<?xml version="1.0" encoding="UTF-8"?>
<svg width="106px" height="125px" viewBox="0 0 106 125" version="1.1" xmlns="http://www.w3.org/2000/svg" xmlns:xlink="http://www.w3.org/1999/xlink">
    <!-- Generator: Sketch 44.1 (41455) - http://www.bohemiancoding.com/sketch -->
    <title>apple</title>
    <desc>Created with Sketch.</desc>
    <defs></defs>
    <g id="Page-1" stroke="none" stroke-width="1" fill="none" fill-rule="evenodd">
        <g id="158227-OUTYSB-392" transform="translate(-345.000000, -75.000000)">
            <g id="apple" transform="translate(345.000000, 75.000000)">
                <path d="M97.858,49.856 C95.087,39.388 88.383,30.548 79.464,25.601 C78.791,25.228 78.045,24.855 77.171,24.455 L76.642,24.222 C75.925,23.909 75.199,23.621 74.496,23.368 L74.29,23.293 C72.565,22.687 70.753,22.208 68.907,21.871 C65.285,21.209 61.626,21.121 58.129,21.587 C59.181,18.881 60.504,16.267 62.069,13.829 C62.924,12.495 63.209,10.907 62.871,9.359 C62.532,7.81 61.611,6.485 60.277,5.631 C57.526,3.865 53.849,4.667 52.079,7.423 C51.782,7.887 51.489,8.358 51.204,8.836 C49.118,6.544 46.653,4.65 43.931,3.263 C36.805,-0.366 27.93,-0.41 20.766,3.149 C19.274,3.891 18.305,5.387 18.237,7.052 C18.17,8.717 19.015,10.286 20.444,11.146 C20.684,11.291 20.916,11.458 21.151,11.655 C21.387,11.853 21.627,12.083 21.866,12.344 C22.332,12.848 22.813,13.476 23.379,14.316 C23.655,14.727 23.925,15.146 24.195,15.574 L24.555,16.145 C25.352,17.411 26.176,18.72 27.171,19.991 C27.81,20.808 28.508,21.582 29.26,22.309 C26.361,23.034 23.535,24.134 20.889,25.601 C11.971,30.547 5.268,39.388 2.495,49.856 C0.214,58.477 0.464,68.182 3.242,78.701 C5.902,88.778 10.421,98.258 16.672,106.878 C22.588,115.034 28.887,120.211 35.931,122.704 C38.734,123.697 41.795,124.199 44.834,124.199 C46.65,124.199 48.459,124.02 50.2,123.658 C50.296,123.677 50.391,123.696 50.486,123.714 C51.015,123.817 51.55,123.9 52.11,123.973 L52.301,123.999 C52.793,124.058 53.285,124.102 53.844,124.139 L54.159,124.157 C54.785,124.189 55.401,124.198 56.053,124.187 C56.465,124.179 56.874,124.164 57.281,124.138 C57.486,124.125 57.69,124.108 57.971,124.083 C58.342,124.049 58.711,124.014 59.058,123.968 C59.307,123.937 59.554,123.897 59.802,123.856 L60.07,123.813 C60.337,123.77 60.602,123.727 60.857,123.676 C61.19,123.61 61.519,123.531 61.847,123.451 L62.097,123.392 C62.285,123.349 62.474,123.304 62.645,123.258 C63.258,123.091 63.855,122.905 64.424,122.704 C71.468,120.211 77.767,115.033 83.681,106.878 C89.932,98.258 94.451,88.778 97.111,78.701 C99.889,68.182 100.139,58.477 97.858,49.856" id="Fill-4" fill="#DF8F42"></path>
                <path d="M103.943,49.856 C101.173,39.388 94.468,30.548 85.549,25.601 C84.876,25.228 84.13,24.855 83.256,24.455 L82.728,24.222 C82.01,23.909 81.285,23.621 80.581,23.368 L80.375,23.293 C78.65,22.687 76.839,22.208 74.993,21.871 C71.371,21.209 67.711,21.121 64.214,21.587 C65.266,18.881 66.59,16.267 68.154,13.829 C69.01,12.495 69.295,10.907 68.957,9.359 C68.618,7.81 67.696,6.485 66.363,5.631 C63.612,3.865 59.934,4.667 58.165,7.423 C57.867,7.887 57.575,8.358 57.289,8.835 C55.203,6.544 52.739,4.65 50.017,3.263 C42.891,-0.366 34.016,-0.41 26.852,3.149 C25.36,3.891 24.391,5.387 24.323,7.052 C24.256,8.717 25.101,10.286 26.529,11.146 C26.77,11.291 27.002,11.458 27.237,11.655 C27.472,11.853 27.712,12.083 27.952,12.344 C28.417,12.848 28.899,13.476 29.465,14.316 C29.741,14.727 30.01,15.146 30.28,15.574 L30.641,16.145 C31.437,17.411 32.261,18.72 33.256,19.991 C33.895,20.808 34.593,21.582 35.346,22.309 C32.447,23.034 29.621,24.134 26.975,25.601 C18.057,30.547 11.353,39.388 8.581,49.856 C6.3,58.477 6.55,68.182 9.328,78.701 C11.988,88.778 16.507,98.258 22.758,106.878 C28.673,115.034 34.973,120.211 42.016,122.704 C44.82,123.697 47.88,124.199 50.919,124.199 C52.736,124.199 54.545,124.02 56.286,123.658 C56.381,123.677 56.477,123.696 56.572,123.714 C57.1,123.817 57.635,123.9 58.196,123.973 L58.387,123.999 C58.878,124.058 59.371,124.102 59.93,124.139 L60.245,124.157 C60.87,124.189 61.486,124.198 62.139,124.187 C62.551,124.179 62.96,124.164 63.366,124.138 C63.572,124.125 63.776,124.108 64.057,124.083 C64.427,124.049 64.796,124.014 65.144,123.968 C65.393,123.937 65.64,123.897 65.888,123.856 L66.156,123.813 C66.422,123.77 66.688,123.727 66.943,123.675 C67.276,123.61 67.604,123.531 67.932,123.451 L68.182,123.392 C68.371,123.349 68.559,123.304 68.73,123.258 C69.344,123.091 69.941,122.905 70.51,122.704 C77.554,120.211 83.853,115.033 89.767,106.878 C96.018,98.258 100.536,88.778 103.196,78.701 C105.974,68.182 106.225,58.477 103.943,49.856" id="Fill-28" fill="#FFFFFF"></path>
                <path d="M99.531,51.023 C97.235,42.351 91.656,34.207 83.336,29.593 C75.222,25.092 64.439,24.429 56.262,28.784 C48.086,24.429 37.303,25.092 29.188,29.593 C20.868,34.207 15.29,42.351 12.994,51.023 C10.698,59.696 11.45,68.862 13.741,77.536 C16.243,87.012 20.567,96.081 26.453,104.198 C30.78,110.166 36.253,115.823 43.539,118.402 C47.537,119.817 52.163,120.035 56.262,118.979 C60.362,120.035 64.987,119.817 68.986,118.402 C76.271,115.823 81.744,110.166 86.072,104.198 C91.958,96.081 96.282,87.012 98.784,77.536 C101.074,68.862 101.826,59.696 99.531,51.023" id="Fill-29" fill="#B73336"></path>
                <path d="M68.931,118.421 C68.937,118.419 68.943,118.417 68.949,118.415 C68.943,118.417 68.937,118.419 68.931,118.421 M86.046,104.233 C86.055,104.221 86.063,104.21 86.072,104.198 C91.958,96.081 96.282,87.012 98.784,77.536 C100.112,72.504 100.923,67.307 100.922,62.137 C100.923,67.307 100.112,72.504 98.784,77.536 C96.282,87.013 91.958,96.081 86.072,104.198 C86.063,104.21 86.055,104.221 86.046,104.233 M99.531,51.023 C98.078,45.535 95.31,40.259 91.365,35.955 C95.31,40.259 98.078,45.535 99.531,51.023" id="Fill-30" fill="#EEEDE8"></path>
                <path d="M61.649,119.633 C60.229,119.633 58.814,119.501 57.443,119.234 C63.23,115.993 67.768,110.59 71.466,104.929 C77.352,95.917 81.676,85.848 84.178,75.326 C86.469,65.695 87.221,55.518 84.925,45.889 C83.174,38.543 79.506,31.544 74.173,26.361 C77.4,26.951 80.529,28.036 83.336,29.593 C86.391,31.287 89.076,33.457 91.365,35.955 C95.31,40.259 98.078,45.535 99.531,51.023 C100.495,54.665 100.921,58.394 100.922,62.137 C100.923,67.307 100.112,72.504 98.784,77.536 C96.282,87.012 91.958,96.081 86.072,104.198 C86.063,104.21 86.055,104.221 86.046,104.233 C81.884,109.966 76.662,115.408 69.789,118.102 C69.524,118.206 69.256,118.306 68.986,118.402 C68.974,118.406 68.961,118.41 68.949,118.415 C68.943,118.417 68.937,118.419 68.931,118.421 C66.635,119.226 64.135,119.633 61.649,119.633" id="Fill-31" fill="#AB3134"></path>
                <path d="M47.945,7.331 C42.073,4.339 34.785,4.303 28.883,7.236 C32.553,9.444 34.211,13.805 36.851,17.178 C40.405,21.72 46.095,24.391 51.823,24.587 C53.908,24.659 57.487,24.774 58.524,22.488 C59.6,20.116 57.275,16.531 56.035,14.641 C54.018,11.571 51.223,9 47.945,7.331" id="Fill-32" fill="#91C33F"></path>
                <path d="M51.823,24.587 C53.665,24.651 56.671,24.745 58.062,23.19 C45.594,7.248 28.883,7.236 28.883,7.236 C32.553,9.445 34.211,13.805 36.851,17.178 C40.405,21.72 46.095,24.391 51.823,24.587" id="Fill-33" fill="#80BD42"></path>
                <path d="M55.793,32.06 L55.616,32.049 C54.866,31.952 54.336,31.265 54.433,30.515 C55.363,23.296 57.982,16.163 62.007,9.886 C62.417,9.249 63.263,9.064 63.899,9.473 C64.536,9.881 64.721,10.728 64.313,11.364 C60.505,17.302 58.027,24.046 57.149,30.865 C57.06,31.556 56.471,32.06 55.793,32.06" id="Fill-34" fill="#6B1B22"></path>
                <path d="M43.123,28.817 C43.123,28.817 43.512,28.861 44.17,28.989 C44.84,29.119 45.738,29.275 46.83,29.46 C47.371,29.563 47.963,29.636 48.578,29.732 C49.191,29.84 49.847,29.898 50.51,30.001 C51.183,30.065 51.868,30.162 52.571,30.215 C53.27,30.29 53.984,30.323 54.695,30.378 C55.408,30.405 56.12,30.451 56.824,30.457 C57.527,30.482 58.22,30.467 58.895,30.478 C59.566,30.453 60.224,30.469 60.845,30.432 C61.467,30.407 62.063,30.402 62.612,30.363 C63.729,30.296 64.66,30.24 65.311,30.201 C65.973,30.152 66.369,30.152 66.369,30.152 C66.369,30.152 66.054,30.377 65.471,30.721 C65.181,30.899 64.821,31.098 64.392,31.288 C63.969,31.497 63.484,31.72 62.935,31.902 C62.393,32.115 61.793,32.305 61.148,32.472 C60.505,32.653 59.813,32.771 59.095,32.899 C58.374,32.99 57.625,33.097 56.859,33.113 C56.094,33.17 55.316,33.127 54.538,33.112 C53.763,33.038 52.986,32.99 52.232,32.845 C51.474,32.739 50.742,32.551 50.036,32.375 C49.338,32.167 48.663,31.97 48.046,31.716 C47.424,31.476 46.85,31.218 46.336,30.946 C45.814,30.703 45.352,30.424 44.952,30.168 C44.543,29.928 44.211,29.69 43.949,29.484 C43.415,29.078 43.123,28.817 43.123,28.817" id="Fill-35" fill="#6B1B22"></path>
                <path d="M54.676,88.303 C45.156,88.303 36.382,83.118 31.778,74.771 C31.413,74.108 31.654,73.275 32.316,72.91 C32.98,72.545 33.811,72.786 34.176,73.448 C38.298,80.922 46.154,85.564 54.676,85.564 C63.199,85.564 71.054,80.922 75.176,73.448 C75.541,72.785 76.373,72.546 77.036,72.91 C77.698,73.275 77.939,74.108 77.574,74.771 C72.971,83.118 64.196,88.303 54.676,88.303" id="Fill-36" fill="#6B1B22"></path>
                <path d="M33.681,69.089 C31.286,69.089 29.345,68.476 29.345,67.72 C29.345,66.963 31.286,66.35 33.681,66.35 C36.075,66.35 38.017,66.963 38.017,67.72 C38.017,68.476 36.075,69.089 33.681,69.089" id="Fill-37" fill="#AB3134"></path>
                <path d="M75.671,69.089 C73.277,69.089 71.335,68.476 71.335,67.72 C71.335,66.963 73.277,66.35 75.671,66.35 C78.066,66.35 80.007,66.963 80.007,67.72 C80.007,68.476 78.066,69.089 75.671,69.089" id="Fill-38" fill="#AB3134"></path>
                <path d="M42.162,59.656 C42.162,61.673 41.039,63.307 39.652,63.307 C38.266,63.307 37.142,61.673 37.142,59.656 C37.142,57.639 38.266,56.005 39.652,56.005 C41.039,56.005 42.162,57.639 42.162,59.656" id="Fill-39" fill="#432F1A"></path>
                <path d="M72.21,59.656 C72.21,61.673 71.086,63.307 69.7,63.307 C68.313,63.307 67.19,61.673 67.19,59.656 C67.19,57.639 68.313,56.005 69.7,56.005 C71.086,56.005 72.21,57.639 72.21,59.656" id="Fill-40" fill="#432F1A"></path>
                <path d="M71.483,60.436 C71.483,60.971 71.049,61.406 70.513,61.406 C69.978,61.406 69.543,60.971 69.543,60.436 C69.543,59.9 69.978,59.466 70.513,59.466 C71.049,59.466 71.483,59.9 71.483,60.436" id="Fill-41" fill="#FFFFFF"></path>
                <path d="M41.245,60.436 C41.245,60.971 40.811,61.406 40.275,61.406 C39.74,61.406 39.305,60.971 39.305,60.436 C39.305,59.9 39.74,59.466 40.275,59.466 C40.811,59.466 41.245,59.9 41.245,60.436" id="Fill-42" fill="#FFFFFF"></path>
                <path d="M37.967,31.088 C37.967,31.088 37.472,31.375 36.589,31.824 C36.136,32.031 35.622,32.344 35.046,32.682 C34.759,32.849 34.453,33.027 34.13,33.215 C33.816,33.419 33.485,33.635 33.14,33.859 C32.441,34.287 31.735,34.826 30.982,35.371 C30.597,35.632 30.229,35.938 29.86,36.259 C29.494,36.582 29.093,36.874 28.716,37.209 C27.983,37.906 27.192,38.578 26.476,39.357 C25.717,40.091 25.043,40.927 24.331,41.725 C23.682,42.576 22.992,43.397 22.415,44.281 C21.788,45.134 21.275,46.036 20.733,46.889 C20.474,47.322 20.265,47.772 20.017,48.193 C19.772,48.616 19.542,49.035 19.358,49.462 C18.965,50.305 18.572,51.101 18.283,51.868 C17.959,52.624 17.697,53.333 17.486,53.973 C17.262,54.611 17.054,55.17 16.937,55.643 C16.664,56.584 16.475,57.132 16.475,57.132 C16.475,57.132 16.425,56.57 16.397,55.567 C16.368,55.063 16.387,54.456 16.46,53.761 C16.49,53.41 16.521,53.037 16.554,52.644 C16.604,52.254 16.698,51.852 16.774,51.425 C16.862,51.002 16.927,50.55 17.045,50.097 C17.179,49.648 17.317,49.184 17.458,48.707 C17.73,47.744 18.153,46.777 18.577,45.77 C19.07,44.799 19.553,43.77 20.198,42.818 C20.775,41.821 21.521,40.918 22.219,39.982 C23.006,39.119 23.752,38.217 24.621,37.461 C25.436,36.65 26.351,35.977 27.213,35.311 C28.121,34.703 28.991,34.106 29.884,33.656 C30.327,33.426 30.75,33.192 31.17,32.987 C31.592,32.785 32.023,32.635 32.422,32.468 C32.827,32.312 33.202,32.143 33.578,32.02 C33.961,31.911 34.324,31.808 34.666,31.711 C35.341,31.504 35.93,31.374 36.42,31.309 C37.398,31.149 37.967,31.088 37.967,31.088" id="Fill-43" fill="#FFFFFF"></path>
            </g>
        </g>
    </g>
</svg>