<?xml version="1.0" encoding="UTF-8"?>
<svg width="151px" height="94px" viewBox="0 0 151 94" version="1.1" xmlns="http://www.w3.org/2000/svg" xmlns:xlink="http://www.w3.org/1999/xlink">
    <!-- Generator: Sketch 44.1 (41455) - http://www.bohemiancoding.com/sketch -->
    <title>banana</title>
    <desc>Created with Sketch.</desc>
    <defs></defs>
    <g id="Page-1" stroke="none" stroke-width="1" fill="none" fill-rule="evenodd">
        <g id="158227-OUTYSB-392" transform="translate(-178.000000, -355.000000)">
            <g id="banana" transform="translate(178.000000, 355.000000)">
                <path d="M144.479,32.443 C144.451,31.907 144.402,31.372 144.335,30.827 L144.295,30.557 C144.234,30.097 144.158,29.639 144.06,29.142 L144.027,28.99 C143.923,28.488 143.802,27.992 143.644,27.431 C143.492,26.894 143.316,26.358 143.123,25.837 C142.777,24.908 142.376,24.023 141.922,23.191 C143.314,18.201 143.941,13.08 143.789,7.939 C143.738,6.225 142.732,4.685 141.184,3.95 L134.438,0.748 C133.126,0.121 131.644,0.162 130.378,0.82 C129.11,1.478 128.223,2.692 127.982,4.1 C127.354,7.762 126.386,11.406 125.1,14.967 C123.729,15.268 122.432,15.779 121.257,16.487 C118.216,18.315 116.409,21.044 114.814,23.451 L114.398,24.077 C101.507,43.334 78.221,55.112 55.071,54.083 C50.307,53.872 45.621,53.195 40.659,52.479 C36.216,51.837 31.622,51.174 26.974,50.878 L26.685,50.859 C15.417,50.135 3.511,50.463 0.632,58.387 C-0.509,61.535 0.433,65.031 3.445,68.791 L3.578,68.954 L3.649,69.042 C3.876,69.317 4.111,69.593 4.344,69.854 L4.48,70.008 C4.758,70.317 5.049,70.627 5.361,70.949 L5.563,71.152 C5.808,71.403 6.06,71.652 6.369,71.951 L6.516,72.092 C6.822,72.383 7.131,72.671 7.469,72.977 L7.629,73.119 C7.895,73.359 8.165,73.595 8.431,73.825 L8.678,74.038 C8.996,74.31 9.317,74.58 9.639,74.845 L9.716,74.908 C10.016,75.154 10.316,75.395 10.659,75.667 L10.862,75.828 C11.155,76.059 11.447,76.287 11.733,76.506 L11.805,76.562 C12.121,76.804 12.432,77.039 12.757,77.281 L12.887,77.377 L12.964,77.434 L15.501,79.26 L15.683,79.386 L17.659,80.738 C21.738,83.491 26.142,85.839 30.764,87.755 C42.417,92.586 55.455,94.67 68.144,93.568 C91.446,91.546 114.764,79.328 132.117,60.048 C140.897,50.295 144.941,41.266 144.479,32.445 L144.479,32.443" id="Fill-9" fill="#DF8F42"></path>
                <path d="M150.565,32.445 L150.565,32.443 C150.537,31.908 150.488,31.372 150.42,30.827 L150.381,30.557 C150.319,30.097 150.244,29.639 150.145,29.142 L150.112,28.99 C150.009,28.489 149.887,27.992 149.729,27.431 C149.577,26.894 149.402,26.358 149.209,25.837 C148.863,24.908 148.461,24.023 148.008,23.191 C149.399,18.201 150.027,13.08 149.875,7.939 C149.824,6.225 148.818,4.685 147.27,3.95 L140.524,0.748 C139.212,0.121 137.73,0.162 136.463,0.82 C135.195,1.478 134.308,2.692 134.067,4.1 C133.439,7.762 132.472,11.406 131.185,14.967 C129.814,15.268 128.518,15.779 127.342,16.487 C124.302,18.315 122.494,21.044 120.899,23.451 L120.483,24.077 C107.593,43.334 84.306,55.112 61.156,54.083 C56.393,53.872 51.706,53.195 46.744,52.479 C42.302,51.837 37.707,51.174 33.06,50.878 L32.77,50.859 C21.503,50.135 9.597,50.463 6.718,58.387 C5.576,61.535 6.519,65.031 9.53,68.791 L9.663,68.954 L9.734,69.042 C9.962,69.317 10.197,69.593 10.43,69.854 L10.565,70.008 C10.843,70.317 11.135,70.627 11.447,70.949 L11.648,71.152 C11.894,71.403 12.146,71.652 12.455,71.951 L12.602,72.092 C12.907,72.383 13.217,72.671 13.554,72.977 L13.715,73.119 C13.981,73.359 14.251,73.595 14.516,73.825 L14.764,74.038 C15.081,74.31 15.403,74.58 15.725,74.845 L15.801,74.908 C16.102,75.154 16.402,75.395 16.745,75.667 L16.947,75.828 C17.241,76.059 17.533,76.287 17.819,76.506 L17.891,76.562 C18.207,76.804 18.517,77.039 18.843,77.281 L18.973,77.377 L19.049,77.434 L21.587,79.26 L21.768,79.386 L23.745,80.738 C27.823,83.491 32.228,85.839 36.849,87.755 C48.502,92.586 61.54,94.671 74.23,93.568 C97.532,91.546 120.849,79.328 138.203,60.048 C146.983,50.295 151.027,41.266 150.565,32.445" id="Fill-125" fill="#FFFFFF"></path>
                <path d="M146.007,32.683 C145.843,29.544 144.883,26.37 143.041,23.859 C144.687,18.777 145.47,13.414 145.313,8.074 C143.063,7.006 140.814,5.939 138.565,4.871 C137.723,9.784 136.327,14.599 134.44,19.213 C132.778,19.17 131.129,19.535 129.694,20.398 C127.318,21.828 125.819,24.311 124.276,26.616 C110.524,47.16 85.652,59.74 60.954,58.643 C51.49,58.223 42.215,56.035 32.77,55.433 C28.107,55.136 13.15,54.051 11.009,59.944 C9.067,65.289 22.546,74.422 26.299,76.955 C40.102,86.273 57.281,90.459 73.835,89.021 C97.255,86.988 119.083,74.467 134.811,56.995 C140.941,50.184 146.486,41.833 146.007,32.683" id="Fill-126" fill="#FBCD27"></path>
                <path d="M146.007,32.683 C145.914,30.898 145.553,29.106 144.93,27.427 C142.872,33.934 138.538,39.903 133.894,45.063 C116.674,64.193 92.776,77.901 67.134,80.128 C49.01,81.701 30.202,77.118 15.089,66.917 C14.443,66.481 13.532,65.865 12.466,65.116 C15.873,69.9 23.6,75.134 26.299,76.955 C40.102,86.273 57.281,90.459 73.835,89.021 C97.255,86.988 119.083,74.467 134.811,56.995 C140.941,50.184 146.486,41.833 146.007,32.683" id="Fill-127" fill="#DBB52C"></path>
                <path d="M47.856,60.24 C47.856,60.24 48.91,60.384 50.748,60.668 C51.208,60.734 51.715,60.834 52.271,60.894 C52.825,60.949 53.424,61.008 54.064,61.072 C54.701,61.137 55.379,61.206 56.093,61.279 C56.812,61.317 57.568,61.357 58.357,61.398 C59.145,61.427 59.963,61.5 60.813,61.498 C61.662,61.495 62.539,61.492 63.442,61.489 C63.892,61.484 64.349,61.499 64.81,61.478 C65.272,61.449 65.739,61.42 66.211,61.391 C67.155,61.32 68.12,61.303 69.098,61.219 C71.049,60.999 73.067,60.81 75.094,60.44 C77.136,60.169 79.165,59.648 81.208,59.211 C83.219,58.646 85.259,58.168 87.193,57.458 C89.159,56.841 91.034,56.073 92.864,55.361 C93.769,54.983 94.63,54.546 95.499,54.171 C95.931,53.978 96.358,53.787 96.78,53.598 C97.199,53.402 97.596,53.177 97.998,52.972 C98.798,52.556 99.576,52.15 100.329,51.758 C101.083,51.366 101.773,50.921 102.458,50.529 C103.137,50.126 103.788,49.74 104.407,49.372 C105.008,48.975 105.578,48.597 106.113,48.243 C106.652,47.889 107.155,47.557 107.621,47.25 C108.084,46.94 108.483,46.619 108.859,46.348 C110.349,45.247 111.22,44.628 111.22,44.628 C111.22,44.628 110.47,45.376 109.124,46.669 C108.782,46.987 108.42,47.36 107.995,47.728 C107.561,48.086 107.092,48.473 106.591,48.887 C106.087,49.3 105.55,49.74 104.985,50.204 C104.404,50.647 103.763,51.072 103.11,51.539 C102.448,51.993 101.779,52.502 101.046,52.963 C100.303,53.409 99.534,53.871 98.745,54.346 C98.347,54.579 97.952,54.832 97.536,55.057 C97.117,55.275 96.691,55.496 96.262,55.719 C95.401,56.164 94.521,56.621 93.609,57.048 C91.755,57.829 89.87,58.734 87.848,59.371 C85.865,60.122 83.776,60.645 81.709,61.244 C79.6,61.672 77.507,62.181 75.402,62.437 C73.315,62.808 71.227,62.886 69.221,63.055 C68.215,63.101 67.223,63.103 66.255,63.109 C65.771,63.111 65.292,63.113 64.819,63.116 C64.346,63.109 63.879,63.069 63.418,63.047 C62.498,62.993 61.604,62.941 60.738,62.891 C59.875,62.824 59.046,62.684 58.249,62.59 C57.453,62.48 56.69,62.402 55.968,62.278 C55.25,62.13 54.568,61.99 53.928,61.858 C53.291,61.724 52.694,61.599 52.143,61.483 C51.597,61.355 51.107,61.195 50.659,61.072 C48.873,60.555 47.856,60.24 47.856,60.24" id="Fill-128" fill="#FFFFFF"></path>
                <path d="M68.511,86.328 C61.23,86.258 54.558,82.227 51.098,75.809 C50.824,75.3 51.014,74.664 51.523,74.39 C52.034,74.116 52.668,74.306 52.942,74.815 C56.04,80.562 62.013,84.171 68.531,84.234 C75.05,84.297 81.092,80.805 84.3,75.119 C84.584,74.615 85.222,74.438 85.727,74.722 C86.23,75.006 86.408,75.645 86.124,76.148 C82.541,82.498 75.792,86.399 68.511,86.328" id="Fill-129" fill="#99812D"></path>
                <path d="M52.699,71.478 C52.665,71.478 52.63,71.478 52.596,71.478 C50.764,71.46 49.284,70.977 49.29,70.398 C49.295,69.831 50.729,69.383 52.513,69.383 C52.547,69.383 52.581,69.383 52.616,69.383 C54.448,69.401 55.928,69.884 55.922,70.462 C55.917,71.03 54.483,71.478 52.699,71.478" id="Fill-130" fill="#EBC128"></path>
                <path d="M84.815,71.789 C84.78,71.789 84.746,71.789 84.711,71.789 C82.879,71.771 81.399,71.288 81.405,70.709 C81.41,70.142 82.844,69.694 84.627,69.694 C84.662,69.694 84.696,69.694 84.731,69.694 C86.563,69.712 88.043,70.195 88.037,70.774 C88.032,71.341 86.598,71.789 84.815,71.789" id="Fill-131" fill="#EBC128"></path>
                <path d="M59.153,64.326 C59.138,65.868 58.266,67.111 57.206,67.1 C56.145,67.09 55.298,65.831 55.313,64.289 C55.328,62.747 56.199,61.505 57.26,61.515 C58.32,61.525 59.168,62.784 59.153,64.326" id="Fill-132" fill="#432F1A"></path>
                <path d="M82.134,64.549 C82.119,66.091 81.247,67.333 80.187,67.323 C79.126,67.313 78.279,66.054 78.294,64.512 C78.309,62.969 79.18,61.727 80.241,61.738 C81.301,61.748 82.149,63.007 82.134,64.549" id="Fill-133" fill="#432F1A"></path>
                <path d="M81.572,65.14 C81.568,65.549 81.232,65.878 80.823,65.874 C80.413,65.87 80.084,65.535 80.088,65.125 C80.092,64.716 80.427,64.387 80.837,64.391 C81.247,64.395 81.576,64.73 81.572,65.14" id="Fill-134" fill="#FFFFFF"></path>
                <path d="M58.445,64.916 C58.441,65.325 58.106,65.654 57.696,65.65 C57.287,65.646 56.958,65.311 56.962,64.901 C56.966,64.492 57.301,64.163 57.711,64.167 C58.12,64.171 58.449,64.506 58.445,64.916" id="Fill-135" fill="#FFFFFF"></path>
            </g>
        </g>
    </g>
</svg>