<?xml version="1.0" encoding="UTF-8"?>
<svg width="88px" height="98px" viewBox="0 0 88 98" version="1.1" xmlns="http://www.w3.org/2000/svg" xmlns:xlink="http://www.w3.org/1999/xlink">
    <!-- Generator: Sketch 44.1 (41455) - http://www.bohemiancoding.com/sketch -->
    <title>green</title>
    <desc>Created with Sketch.</desc>
    <defs></defs>
    <g id="Page-1" stroke="none" stroke-width="1" fill="none" fill-rule="evenodd">
        <g id="158227-OUTYSB-392" transform="translate(-357.000000, -353.000000)">
            <g id="green" transform="translate(351.000000, 353.000000)">
                <path d="M93.787,48.13 L93.787,48.127 C93.556,46.219 93.145,44.348 92.565,42.569 C90.015,34.74 83.938,28.17 75.89,24.542 C75.381,24.313 74.862,24.096 74.337,23.893 C73.883,23.717 73.417,23.553 72.989,23.407 L72.76,23.327 C71.728,22.983 70.633,22.678 69.506,22.419 L69.424,22.401 C65.717,21.559 61.937,21.285 58.302,21.574 C59.341,18.931 60.638,16.384 62.156,14.016 C63.011,12.682 63.296,11.095 62.958,9.546 C62.619,7.997 61.697,6.672 60.364,5.818 C57.615,4.055 53.937,4.855 52.166,7.611 C51.867,8.075 51.576,8.546 51.291,9.024 C49.205,6.731 46.739,4.838 44.017,3.451 C36.89,-0.179 28.015,-0.222 20.853,3.336 C19.36,4.078 18.39,5.575 18.323,7.24 C18.256,8.905 19.102,10.475 20.53,11.335 C22.085,12.27 23.269,14.151 24.639,16.328 L25.159,17.151 C25.741,18.067 26.446,19.142 27.258,20.18 C27.536,20.535 27.825,20.882 28.128,21.225 C28.6,21.756 29.102,22.271 29.622,22.758 C27.905,23.227 26.232,23.823 24.634,24.543 C16.588,28.17 10.511,34.74 7.962,42.569 C5.834,49.099 6.053,56.409 8.615,64.294 C11.019,71.692 15.086,78.635 20.704,84.93 C25.991,90.854 31.596,94.607 37.839,96.403 C40.276,97.104 42.937,97.46 45.578,97.46 C47.164,97.46 48.744,97.332 50.263,97.073 C54.313,97.762 58.787,97.526 62.689,96.403 C68.906,94.614 74.491,90.883 79.771,84.987 L79.821,84.931 C80.504,84.166 81.182,83.37 81.836,82.562 C85.751,77.726 88.811,72.508 90.927,67.055 C91.276,66.154 91.608,65.225 91.91,64.294 C92.334,62.993 92.698,61.684 92.996,60.402 C93.201,59.516 93.378,58.623 93.524,57.736 C93.596,57.289 93.661,56.843 93.719,56.395 C93.835,55.485 93.918,54.567 93.964,53.668 C94.061,51.78 94.002,49.917 93.787,48.13" id="Fill-44" fill="#FFFFFF"></path>
                <path d="M88.224,43.986 C86.21,37.804 81.315,31.998 74.016,28.708 C66.896,25.5 57.436,25.027 50.262,28.132 C43.089,25.027 33.628,25.5 26.509,28.708 C19.209,31.998 14.314,37.804 12.3,43.986 C10.286,50.169 10.946,56.703 12.955,62.887 C15.151,69.643 18.944,76.108 24.108,81.895 C27.905,86.149 32.707,90.182 39.099,92.02 C42.607,93.029 46.665,93.185 50.262,92.432 C53.859,93.185 57.917,93.029 61.425,92.02 C67.817,90.182 72.619,86.149 76.416,81.895 C81.58,76.108 85.374,69.643 87.569,62.887 C89.578,56.703 90.238,50.169 88.224,43.986" id="Fill-45" fill="#70B843"></path>
                <path d="M88.224,43.986 C86.21,37.804 81.315,31.998 74.016,28.708 C73.851,28.634 73.685,28.561 73.518,28.49 C73.685,28.561 73.851,28.634 74.016,28.708 C81.315,31.998 86.21,37.804 88.224,43.986" id="Fill-46" fill="#EEEDE8"></path>
                <path d="M76.393,81.919 C77.057,79.806 77.665,77.674 78.178,75.518 C80.468,65.887 81.221,55.71 78.925,46.081 C77.208,38.878 73.637,32.02 68.472,26.869 C70.229,27.271 71.928,27.813 73.518,28.49 C73.685,28.561 73.851,28.634 74.016,28.708 C81.315,31.998 86.21,37.804 88.224,43.986 C89.07,46.583 89.444,49.241 89.445,51.909 C89.446,55.595 88.735,59.3 87.569,62.887 C85.438,69.445 81.801,75.729 76.866,81.384 C76.717,81.555 76.567,81.725 76.416,81.895 L76.393,81.919" id="Fill-47" fill="#6BB644"></path>
                <path d="M41.945,7.522 C36.073,4.531 28.785,4.495 22.883,7.428 C26.553,9.636 28.211,13.997 30.85,17.37 C34.405,21.912 40.095,24.583 45.823,24.779 C47.908,24.851 51.487,24.966 52.524,22.68 C53.6,20.308 51.275,16.723 50.034,14.833 C48.018,11.763 45.223,9.192 41.945,7.522" id="Fill-48" fill="#91C33F"></path>
                <path d="M45.823,24.779 C47.665,24.842 50.67,24.937 52.061,23.382 C39.594,7.44 22.883,7.428 22.883,7.428 C26.553,9.636 28.211,13.997 30.85,17.37 C34.405,21.912 40.095,24.583 45.823,24.779" id="Fill-49" fill="#80BD42"></path>
                <path d="M49.792,32.252 L49.616,32.241 C48.866,32.144 48.336,31.457 48.432,30.707 C49.363,23.488 51.982,16.355 56.007,10.078 C56.416,9.441 57.262,9.256 57.899,9.665 C58.536,10.073 58.721,10.92 58.312,11.556 C54.505,17.494 52.027,24.238 51.149,31.057 C51.06,31.748 50.471,32.252 49.792,32.252" id="Fill-50" fill="#579742"></path>
                <path d="M37.123,29.009 C37.123,29.009 37.512,29.053 38.17,29.181 C38.84,29.311 39.738,29.467 40.83,29.652 C41.37,29.755 41.963,29.827 42.578,29.924 C43.191,30.032 43.846,30.09 44.51,30.193 C45.183,30.257 45.868,30.354 46.571,30.407 C47.27,30.482 47.984,30.515 48.695,30.57 C49.407,30.597 50.12,30.643 50.823,30.649 C51.527,30.674 52.219,30.659 52.895,30.67 C53.566,30.644 54.224,30.661 54.845,30.624 C55.467,30.599 56.063,30.594 56.612,30.555 C57.729,30.488 58.66,30.432 59.311,30.392 C59.973,30.344 60.369,30.344 60.369,30.344 C60.369,30.344 60.054,30.569 59.471,30.913 C59.18,31.091 58.82,31.29 58.392,31.48 C57.969,31.689 57.483,31.912 56.935,32.094 C56.393,32.307 55.793,32.496 55.148,32.664 C54.505,32.845 53.812,32.963 53.094,33.091 C52.374,33.182 51.625,33.289 50.859,33.305 C50.094,33.362 49.316,33.319 48.538,33.303 C47.763,33.229 46.985,33.181 46.232,33.037 C45.474,32.931 44.741,32.743 44.036,32.567 C43.338,32.358 42.663,32.162 42.046,31.908 C41.424,31.668 40.85,31.41 40.336,31.138 C39.813,30.895 39.352,30.616 38.951,30.36 C38.543,30.12 38.211,29.882 37.949,29.676 C37.415,29.27 37.123,29.009 37.123,29.009" id="Fill-51" fill="#579742"></path>
                <path d="M48.676,76.685 C39.156,76.685 30.382,71.5 25.778,63.153 C25.413,62.49 25.654,61.657 26.315,61.292 C26.98,60.927 27.811,61.168 28.176,61.83 C32.298,69.304 40.153,73.946 48.676,73.946 C57.199,73.946 65.054,69.304 69.176,61.83 C69.541,61.168 70.373,60.928 71.036,61.292 C71.698,61.657 71.939,62.49 71.574,63.153 C66.97,71.5 58.196,76.685 48.676,76.685" id="Fill-52" fill="#579742"></path>
                <path d="M27.68,57.471 C25.286,57.471 23.344,56.858 23.344,56.101 C23.344,55.345 25.286,54.732 27.68,54.732 C30.075,54.732 32.016,55.345 32.016,56.101 C32.016,56.858 30.075,57.471 27.68,57.471" id="Fill-53" fill="#6BB644"></path>
                <path d="M69.671,57.471 C67.276,57.471 65.335,56.858 65.335,56.101 C65.335,55.345 67.276,54.732 69.671,54.732 C72.066,54.732 74.007,55.345 74.007,56.101 C74.007,56.858 72.066,57.471 69.671,57.471" id="Fill-54" fill="#6BB644"></path>
                <path d="M36.162,48.038 C36.162,50.055 35.038,51.69 33.652,51.69 C32.266,51.69 31.142,50.055 31.142,48.038 C31.142,46.022 32.266,44.387 33.652,44.387 C35.038,44.387 36.162,46.022 36.162,48.038" id="Fill-55" fill="#432F1A"></path>
                <path d="M66.21,48.038 C66.21,50.055 65.086,51.69 63.7,51.69 C62.313,51.69 61.189,50.055 61.189,48.038 C61.189,46.022 62.313,44.387 63.7,44.387 C65.086,44.387 66.21,46.022 66.21,48.038" id="Fill-56" fill="#432F1A"></path>
                <path d="M65.483,48.818 C65.483,49.354 65.049,49.788 64.513,49.788 C63.977,49.788 63.543,49.354 63.543,48.818 C63.543,48.282 63.977,47.848 64.513,47.848 C65.049,47.848 65.483,48.282 65.483,48.818" id="Fill-57" fill="#FFFFFF"></path>
                <path d="M35.245,48.818 C35.245,49.354 34.811,49.788 34.275,49.788 C33.74,49.788 33.305,49.354 33.305,48.818 C33.305,48.282 33.74,47.848 34.275,47.848 C34.811,47.848 35.245,48.282 35.245,48.818" id="Fill-58" fill="#FFFFFF"></path>
                <path d="M31.967,31.28 C31.967,31.28 31.581,31.531 30.887,31.918 C30.531,32.097 30.129,32.366 29.681,32.648 C29.227,32.922 28.732,33.248 28.197,33.628 C27.653,33.981 27.105,34.423 26.522,34.872 C25.929,35.302 25.367,35.844 24.756,36.346 C24.185,36.904 23.568,37.439 23.008,38.056 C22.415,38.638 21.887,39.296 21.327,39.925 C20.816,40.594 20.271,41.24 19.812,41.932 C19.315,42.6 18.904,43.305 18.467,43.973 C18.09,44.668 17.665,45.322 17.355,45.987 C17.024,46.643 16.695,47.266 16.451,47.867 C16.18,48.461 15.952,49.016 15.767,49.52 C15.574,50.021 15.388,50.462 15.28,50.835 C15.033,51.578 14.857,52.013 14.857,52.013 C14.857,52.013 14.794,51.564 14.741,50.759 C14.703,50.355 14.698,49.866 14.741,49.307 C14.756,49.025 14.773,48.724 14.79,48.408 C14.821,48.092 14.889,47.769 14.942,47.424 C15.005,47.083 15.049,46.718 15.135,46.352 C15.233,45.988 15.334,45.612 15.439,45.225 C15.644,44.447 15.982,43.669 16.311,42.854 C16.699,42.068 17.08,41.237 17.595,40.469 C18.055,39.663 18.654,38.936 19.215,38.183 C19.849,37.489 20.45,36.764 21.154,36.16 C21.812,35.511 22.553,34.976 23.253,34.448 C23.99,33.97 24.69,33.491 25.415,33.142 C25.775,32.966 26.125,32.795 26.464,32.63 C26.806,32.476 27.156,32.363 27.48,32.237 C27.808,32.119 28.111,31.99 28.417,31.9 C28.728,31.822 29.023,31.747 29.3,31.677 C29.848,31.526 30.324,31.44 30.719,31.403 C31.507,31.305 31.967,31.28 31.967,31.28" id="Fill-59" fill="#FFFFFF"></path>
            </g>
        </g>
    </g>
</svg>