<?xml version="1.0" encoding="UTF-8"?>
<svg width="89px" height="116px" viewBox="0 0 89 116" version="1.1" xmlns="http://www.w3.org/2000/svg" xmlns:xlink="http://www.w3.org/1999/xlink">
    <!-- Generator: Sketch 44.1 (41455) - http://www.bohemiancoding.com/sketch -->
    <title>lemon</title>
    <desc>Created with Sketch.</desc>
    <defs></defs>
    <g id="Page-1" stroke="none" stroke-width="1" fill="none" fill-rule="evenodd">
        <g id="158227-OUTYSB-392" transform="translate(-50.000000, -198.000000)">
            <g id="lemon" transform="translate(50.000000, 198.000000)">
                <path d="M25.876,106.421 C26.411,106.702 26.96,107.022 27.552,107.397 L27.782,107.554 L28.083,107.76 C28.423,107.988 28.761,108.219 29.098,108.47 C29.299,108.619 29.494,108.773 29.689,108.926 C30.011,109.179 30.327,109.439 30.634,109.703 L30.813,109.856 C30.92,109.948 31.027,110.04 31.128,110.13 C31.676,110.624 32.114,111.041 32.51,111.444 C32.81,111.75 33.112,112.038 33.419,112.31 C34.407,113.186 35.45,113.901 36.515,114.434 C38.122,115.238 39.801,115.645 41.505,115.645 C43.73,115.645 47.097,114.916 50.503,111.441 C51.515,110.409 52.579,109.466 53.663,108.64 C54.781,107.79 55.948,107.043 57.135,106.419 C60.429,104.687 63.535,102.406 66.366,99.641 C67.943,98.101 69.446,96.398 70.834,94.576 C71.866,93.223 72.851,91.781 73.76,90.295 C74.065,89.797 74.362,89.292 74.655,88.776 C75.234,87.755 75.789,86.697 76.305,85.632 C78.141,81.845 79.592,77.769 80.616,73.519 C80.911,72.293 81.174,71.036 81.397,69.785 C82.083,65.952 82.43,61.995 82.43,58.024 C82.43,36.706 72.501,17.709 57.134,9.628 C56.533,9.312 55.936,8.964 55.36,8.594 C54.224,7.867 53.109,7.02 52.044,6.075 C51.525,5.614 51.006,5.12 50.505,4.609 C50.22,4.318 49.934,4.047 49.647,3.79 C49.555,3.708 49.463,3.631 49.344,3.533 C49.143,3.361 48.941,3.193 48.74,3.038 C48.625,2.949 48.51,2.865 48.35,2.752 C48.158,2.613 47.964,2.478 47.784,2.361 C47.637,2.265 47.49,2.176 47.332,2.081 C47.139,1.966 46.945,1.857 46.764,1.761 C46.602,1.675 46.441,1.594 46.266,1.51 C46.063,1.414 45.861,1.327 45.657,1.243 C45.488,1.174 45.318,1.106 45.141,1.043 C44.934,0.97 44.726,0.907 44.462,0.83 C44.303,0.782 44.144,0.737 43.972,0.696 C43.748,0.643 43.525,0.603 43.264,0.56 C43.103,0.528 42.941,0.501 42.767,0.48 C42.339,0.429 41.915,0.403 41.505,0.403 C39.28,0.403 35.913,1.132 32.506,4.607 C30.447,6.708 28.215,8.397 25.874,9.628 C10.508,17.709 0.579,36.706 0.579,58.024 C0.579,79.343 10.508,98.338 25.876,106.421" id="Fill-7" fill="#DF8F42"></path>
                <path d="M63.22,9.628 C62.618,9.312 62.022,8.964 61.445,8.594 C60.31,7.867 59.195,7.02 58.129,6.075 C57.61,5.614 57.092,5.12 56.59,4.609 C56.306,4.318 56.019,4.047 55.732,3.79 C55.641,3.708 55.548,3.631 55.43,3.533 C55.229,3.361 55.027,3.193 54.826,3.038 C54.71,2.949 54.595,2.865 54.436,2.752 C54.244,2.613 54.05,2.478 53.87,2.361 C53.723,2.265 53.576,2.176 53.418,2.081 C53.225,1.966 53.031,1.857 52.849,1.761 C52.688,1.675 52.526,1.594 52.351,1.51 C52.149,1.414 51.946,1.327 51.742,1.243 C51.573,1.174 51.404,1.106 51.227,1.043 C51.02,0.97 50.812,0.907 50.548,0.83 C50.389,0.782 50.23,0.737 50.057,0.696 C49.834,0.643 49.61,0.603 49.35,0.56 C49.189,0.528 49.027,0.501 48.852,0.48 C48.425,0.429 48.001,0.403 47.59,0.403 C45.365,0.403 41.998,1.132 38.592,4.607 C36.532,6.708 34.301,8.397 31.96,9.628 C16.593,17.709 6.664,36.706 6.664,58.024 C6.664,79.343 16.593,98.338 31.962,106.421 C32.496,106.702 33.046,107.022 33.637,107.397 L33.868,107.554 L34.168,107.76 C34.508,107.988 34.847,108.219 35.184,108.47 C35.384,108.619 35.58,108.773 35.775,108.926 C36.096,109.179 36.412,109.439 36.72,109.703 L36.898,109.856 C37.006,109.948 37.113,110.04 37.213,110.13 C37.761,110.624 38.199,111.041 38.596,111.444 C38.895,111.75 39.198,112.038 39.504,112.31 C40.493,113.186 41.536,113.901 42.601,114.434 C44.207,115.238 45.886,115.645 47.59,115.645 C49.815,115.645 53.182,114.916 56.589,111.441 C57.6,110.409 58.664,109.466 59.749,108.64 C60.866,107.79 62.034,107.043 63.22,106.419 C66.514,104.687 69.62,102.406 72.452,99.641 C74.029,98.101 75.532,96.398 76.92,94.576 C77.952,93.223 78.937,91.781 79.845,90.295 C80.15,89.797 80.448,89.292 80.741,88.776 C81.319,87.755 81.874,86.697 82.391,85.632 C84.227,81.845 85.677,77.769 86.701,73.519 C86.997,72.293 87.26,71.036 87.483,69.785 C88.169,65.952 88.516,61.995 88.516,58.024 C88.516,36.706 78.587,17.709 63.22,9.628" id="Fill-89" fill="#FFFFFF"></path>
                <path d="M47.59,111.08 C45.581,111.08 43.651,110.082 41.851,108.246 C39.562,105.91 36.979,103.902 34.084,102.38 C20.691,95.337 11.229,78.136 11.229,58.024 C11.229,37.912 20.691,20.711 34.084,13.668 C36.979,12.146 39.562,10.137 41.851,7.802 C43.651,5.966 45.581,4.967 47.59,4.967 C49.599,4.967 51.529,5.966 53.33,7.802 C55.619,10.137 58.202,12.146 61.096,13.668 C74.489,20.711 83.952,37.912 83.952,58.024 C83.952,78.136 74.489,95.337 61.096,102.38 C58.202,103.902 55.619,105.91 53.33,108.246 C51.529,110.082 49.599,111.08 47.59,111.08" id="Fill-90" fill="#F8D754"></path>
                <path d="M47.59,111.08 C45.581,111.08 43.651,110.082 41.851,108.246 C41.838,108.233 41.825,108.22 41.812,108.206 C41.825,108.219 41.838,108.233 41.851,108.246 C43.651,110.082 45.581,111.08 47.59,111.08 C49.599,111.08 51.529,110.082 53.33,108.246 C53.535,108.036 53.743,107.829 53.954,107.624 C53.743,107.829 53.535,108.036 53.33,108.246 C51.529,110.082 49.599,111.08 47.59,111.08 M41.808,108.202 C40.072,106.438 38.166,104.865 36.086,103.545 C36.088,103.544 36.09,103.544 36.092,103.543 C38.171,104.862 40.074,106.438 41.808,108.202 M73.957,90.911 C80.151,82.348 83.952,70.771 83.952,58.024 C83.952,70.771 80.151,82.348 73.957,90.911 M53.33,7.802 C53.323,7.796 53.316,7.789 53.31,7.782 C53.316,7.789 53.323,7.795 53.33,7.802 M53.302,7.775 C53.298,7.77 53.294,7.766 53.29,7.762 C53.294,7.766 53.298,7.77 53.302,7.775 M53.281,7.753 C53.277,7.749 53.274,7.746 53.27,7.742 C53.274,7.746 53.277,7.749 53.281,7.753 M53.26,7.732 C53.257,7.729 53.254,7.726 53.251,7.723 C53.254,7.726 53.257,7.729 53.26,7.732 M53.24,7.712 C53.237,7.709 53.234,7.706 53.232,7.703 C53.234,7.706 53.237,7.709 53.24,7.712 M53.22,7.692 C53.218,7.689 53.215,7.687 53.213,7.685 C53.215,7.687 53.218,7.689 53.22,7.692" id="Fill-91" fill="#EEEDE8"></path>
                <path d="M47.59,111.08 C45.581,111.08 43.651,110.082 41.851,108.246 C41.838,108.233 41.825,108.219 41.812,108.206 C41.811,108.205 41.81,108.204 41.808,108.202 C40.074,106.438 38.171,104.862 36.092,103.543 C37.106,103.133 38.134,102.758 39.194,102.465 C53.779,98.43 66.682,83.634 70.957,63.981 C71.779,60.205 72.236,56.461 72.356,52.805 C72.716,52.605 72.922,52.375 72.922,52.128 C72.922,51.889 72.727,51.664 72.385,51.468 C72.543,36.637 67.143,23.412 58.053,15.78 C55.548,13.678 53.451,11.166 51.711,8.398 C50.733,6.842 49.596,5.699 48.312,5.012 C50.014,5.216 51.653,6.134 53.199,7.671 C53.204,7.676 53.208,7.68 53.213,7.685 C53.215,7.687 53.218,7.689 53.22,7.692 C53.224,7.696 53.228,7.699 53.232,7.703 C53.234,7.706 53.237,7.709 53.24,7.712 C53.243,7.715 53.247,7.719 53.251,7.723 C53.254,7.726 53.257,7.729 53.26,7.732 C53.264,7.735 53.267,7.739 53.27,7.742 C53.274,7.746 53.277,7.749 53.281,7.753 C53.284,7.756 53.287,7.759 53.29,7.762 C53.294,7.766 53.298,7.77 53.302,7.775 C53.305,7.777 53.307,7.78 53.31,7.782 C53.316,7.789 53.323,7.796 53.33,7.802 C55.619,10.137 58.202,12.146 61.096,13.668 C74.489,20.711 83.952,37.912 83.952,58.024 C83.952,70.771 80.151,82.348 73.957,90.911 C70.378,95.859 66.001,99.8 61.096,102.38 C58.462,103.765 56.085,105.553 53.954,107.624 C53.743,107.829 53.535,108.036 53.33,108.246 C51.529,110.082 49.599,111.08 47.59,111.08" id="Fill-92" fill="#E8C94F"></path>
                <path d="M47.59,72.712 C38.07,72.712 29.296,67.527 24.692,59.18 C24.327,58.517 24.568,57.684 25.23,57.319 C25.894,56.954 26.725,57.195 27.09,57.857 C31.212,65.331 39.068,69.973 47.59,69.973 C56.113,69.973 63.969,65.331 68.09,57.857 C68.456,57.194 69.287,56.955 69.951,57.319 C70.612,57.684 70.853,58.517 70.488,59.18 C65.885,67.527 57.111,72.712 47.59,72.712" id="Fill-93" fill="#C9B048"></path>
                <path d="M26.595,53.498 C24.2,53.498 22.259,52.885 22.259,52.128 C22.259,51.372 24.2,50.759 26.595,50.759 C28.99,50.759 30.931,51.372 30.931,52.128 C30.931,52.885 28.99,53.498 26.595,53.498" id="Fill-94" fill="#E8C94F"></path>
                <path d="M68.586,53.498 C66.191,53.498 64.25,52.885 64.25,52.128 C64.25,51.372 66.191,50.759 68.586,50.759 C70.222,50.759 71.647,51.046 72.385,51.468 C72.381,51.913 72.371,52.358 72.356,52.805 C71.61,53.219 70.201,53.498 68.586,53.498" id="Fill-95" fill="#E8C94F"></path>
                <path d="M72.356,52.805 C72.371,52.358 72.381,51.913 72.385,51.468 C72.727,51.664 72.922,51.889 72.922,52.128 C72.922,52.375 72.716,52.605 72.356,52.805" id="Fill-96" fill="#D8BD4C"></path>
                <path d="M35.077,44.065 C35.077,46.082 33.953,47.716 32.566,47.716 C31.18,47.716 30.056,46.082 30.056,44.065 C30.056,42.048 31.18,40.414 32.566,40.414 C33.953,40.414 35.077,42.048 35.077,44.065" id="Fill-97" fill="#432F1A"></path>
                <path d="M65.124,44.065 C65.124,46.082 64,47.716 62.614,47.716 C61.228,47.716 60.104,46.082 60.104,44.065 C60.104,42.048 61.228,40.414 62.614,40.414 C64,40.414 65.124,42.048 65.124,44.065" id="Fill-98" fill="#432F1A"></path>
                <path d="M64.397,44.845 C64.397,45.38 63.963,45.815 63.427,45.815 C62.892,45.815 62.458,45.38 62.458,44.845 C62.458,44.309 62.892,43.875 63.427,43.875 C63.963,43.875 64.397,44.309 64.397,44.845" id="Fill-99" fill="#FFFFFF"></path>
                <path d="M34.159,44.845 C34.159,45.38 33.725,45.815 33.19,45.815 C32.654,45.815 32.22,45.38 32.22,44.845 C32.22,44.309 32.654,43.875 33.19,43.875 C33.725,43.875 34.159,44.309 34.159,44.845" id="Fill-100" fill="#FFFFFF"></path>
                <path d="M39.835,15.332 C39.835,15.332 39.147,15.912 37.918,16.89 C37.614,17.138 37.258,17.392 36.907,17.705 C36.562,18.02 36.188,18.36 35.789,18.723 C35.391,19.081 34.969,19.462 34.523,19.864 C34.101,20.293 33.656,20.744 33.193,21.215 C32.738,21.694 32.235,22.158 31.772,22.697 C31.309,23.233 30.83,23.787 30.337,24.356 C30.094,24.642 29.833,24.919 29.596,25.223 C29.366,25.532 29.132,25.845 28.896,26.161 C28.436,26.801 27.915,27.413 27.445,28.08 C26.541,29.444 25.585,30.831 24.753,32.329 C23.835,33.776 23.125,35.368 22.338,36.916 C21.667,38.517 20.907,40.086 20.395,41.721 C19.792,43.325 19.346,44.949 18.889,46.52 C18.681,47.31 18.554,48.103 18.361,48.868 C18.271,49.252 18.183,49.632 18.096,50.008 C18.016,50.385 17.973,50.762 17.911,51.133 C17.795,51.877 17.681,52.6 17.571,53.3 C17.458,54.001 17.428,54.685 17.355,55.341 C17.295,55.999 17.237,56.63 17.182,57.23 C17.163,57.833 17.145,58.405 17.127,58.943 C17.108,59.484 17.089,59.99 17.072,60.458 C17.059,60.927 17.094,61.355 17.1,61.745 C17.144,63.303 17.146,64.211 17.146,64.211 C17.146,64.211 16.917,63.348 16.559,61.807 C16.477,61.421 16.36,60.995 16.282,60.525 C16.22,60.052 16.152,59.542 16.081,58.995 C16.011,58.446 15.937,57.861 15.859,57.245 C15.809,56.627 15.811,55.975 15.783,55.293 C15.773,54.611 15.718,53.896 15.744,53.16 C15.789,52.424 15.835,51.663 15.883,50.881 C15.913,50.49 15.923,50.09 15.97,49.69 C16.025,49.292 16.081,48.888 16.138,48.48 C16.252,47.663 16.374,46.826 16.537,45.985 C16.944,44.321 17.259,42.563 17.892,40.869 C18.405,39.135 19.167,37.464 19.856,35.763 C20.713,34.141 21.495,32.48 22.489,30.969 C23.379,29.395 24.514,28.018 25.523,26.634 C26.06,25.965 26.622,25.334 27.172,24.719 C27.447,24.413 27.719,24.109 27.988,23.809 C28.263,23.515 28.562,23.249 28.841,22.974 C29.408,22.433 29.959,21.906 30.492,21.397 C31.038,20.902 31.619,20.483 32.146,20.051 C32.685,19.632 33.18,19.209 33.687,18.848 C34.211,18.507 34.707,18.184 35.174,17.881 C35.639,17.582 36.074,17.303 36.476,17.045 C36.884,16.802 37.279,16.621 37.624,16.435 C39.023,15.72 39.835,15.332 39.835,15.332" id="Fill-101" fill="#FFFFFF"></path>
            </g>
        </g>
    </g>
</svg>