<?xml version="1.0" encoding="UTF-8"?>
<svg width="86px" height="97px" viewBox="0 0 86 97" version="1.1" xmlns="http://www.w3.org/2000/svg" xmlns:xlink="http://www.w3.org/1999/xlink">
    <!-- Generator: Sketch 44.1 (41455) - http://www.bohemiancoding.com/sketch -->
    <title>orange</title>
    <desc>Created with Sketch.</desc>
    <defs></defs>
    <g id="Page-1" stroke="none" stroke-width="1" fill="none" fill-rule="evenodd">
        <g id="158227-OUTYSB-392" transform="translate(-52.000000, -89.000000)">
            <g id="orange" transform="translate(52.000000, 89.000000)">
                <path d="M0.053,56.758 C0.053,68.997 5.602,80.341 15.275,87.881 C15.691,88.206 16.113,88.521 16.561,88.842 C18.656,90.343 20.906,91.642 23.292,92.722 L23.609,92.865 C23.983,93.03 24.361,93.189 24.74,93.342 L25.245,93.541 C25.606,93.682 25.968,93.819 26.334,93.948 L27.058,94.194 C27.366,94.297 27.675,94.4 27.98,94.494 C28.152,94.546 28.325,94.595 28.499,94.643 L28.709,94.702 C29.249,94.855 29.794,94.998 30.416,95.146 C30.72,95.219 31.024,95.291 31.333,95.357 C31.535,95.399 31.738,95.437 31.94,95.475 L32.127,95.511 C32.468,95.575 32.811,95.638 33.159,95.694 C33.417,95.736 33.676,95.774 33.934,95.811 C34.298,95.862 34.664,95.909 35.035,95.951 C35.281,95.978 35.527,96.006 35.768,96.028 C36.177,96.067 36.589,96.096 36.999,96.122 L37.166,96.134 C37.318,96.144 37.471,96.155 37.625,96.162 C38.248,96.191 38.874,96.209 39.504,96.209 C61.258,96.209 78.956,78.511 78.956,56.758 C78.956,56.124 78.938,55.494 78.908,54.868 L78.908,54.864 C78.901,54.72 78.892,54.578 78.881,54.435 L78.869,54.255 C78.842,53.833 78.813,53.411 78.772,52.991 C78.753,52.79 78.731,52.591 78.709,52.391 L78.696,52.282 C78.653,51.897 78.605,51.513 78.55,51.13 C78.516,50.889 78.479,50.649 78.44,50.411 C78.379,50.029 78.31,49.648 78.238,49.275 L78.214,49.152 C78.178,48.962 78.142,48.772 78.101,48.578 C78.015,48.17 77.92,47.767 77.822,47.369 L77.784,47.207 C77.752,47.07 77.719,46.933 77.684,46.798 C77.534,46.22 77.372,45.646 77.195,45.076 C77.162,44.968 77.126,44.862 77.09,44.755 L77.051,44.638 C76.913,44.213 76.773,43.79 76.622,43.374 C76.559,43.2 76.494,43.028 76.427,42.855 L76.362,42.687 C76.236,42.358 76.109,42.031 75.976,41.709 C75.874,41.461 75.767,41.215 75.657,40.963 C75.526,40.664 75.393,40.368 75.256,40.076 C75.138,39.822 75.017,39.569 74.896,39.323 C74.757,39.042 74.612,38.763 74.465,38.48 L74.407,38.37 C74.296,38.157 74.184,37.944 74.066,37.731 C73.932,37.488 73.793,37.248 73.653,37.009 L73.497,36.741 C73.391,36.557 73.285,36.373 73.176,36.196 C72.892,35.731 72.598,35.273 72.296,34.821 C72.148,34.6 71.994,34.383 71.839,34.167 L71.63,33.87 C71.517,33.71 71.404,33.549 71.294,33.401 C71.099,33.135 70.897,32.875 70.696,32.615 L67.812,34.854 L70.629,32.529 C70.498,32.361 70.367,32.193 70.232,32.024 C70.014,31.754 69.792,31.488 69.572,31.229 C69.426,31.057 69.277,30.886 69.13,30.719 C68.892,30.448 68.651,30.178 68.403,29.912 L68.002,29.49 C67.732,29.209 67.462,28.928 67.181,28.652 L67.004,28.482 C65.966,27.473 64.855,26.506 63.641,25.561 L63.46,25.42 C63.116,25.156 62.765,24.9 62.411,24.647 L62.086,24.416 C61.73,24.167 61.369,23.924 61.01,23.69 L60.697,23.489 C60.314,23.245 59.928,23.005 59.55,22.782 L59.375,22.68 C57.574,21.628 55.673,20.713 53.714,19.955 L53.589,19.906 C53.137,19.733 52.68,19.57 52.227,19.415 L51.96,19.325 C51.506,19.174 51.049,19.031 50.588,18.896 L50.35,18.828 C50.165,18.775 49.98,18.724 49.796,18.674 C50.744,16.489 51.858,14.394 53.128,12.415 C54.622,10.085 53.942,6.973 51.611,5.478 C49.281,3.986 46.171,4.665 44.675,6.994 C44.157,7.802 43.657,8.631 43.178,9.478 C41.002,6.839 38.333,4.679 35.344,3.157 C28.47,-0.345 19.909,-0.388 12.999,3.046 L7.034,6.01 L12.742,9.444 C13.808,10.086 14.772,11.116 15.964,12.886 C16.246,13.306 16.521,13.734 16.793,14.165 L17.151,14.732 C17.936,15.98 18.749,17.272 19.717,18.509 C20.487,19.493 21.347,20.413 22.288,21.261 C8.816,27.788 0.053,41.512 0.053,56.758" id="Fill-6" fill="#DF8F42"></path>
                <path d="M63.684,25.871 L63.684,25.87 L63.684,25.871 M84.994,54.868 L84.994,54.864 C84.987,54.72 84.977,54.578 84.967,54.435 L84.955,54.255 C84.928,53.833 84.898,53.411 84.858,52.991 C84.839,52.79 84.817,52.591 84.794,52.391 L84.782,52.282 C84.738,51.897 84.69,51.513 84.636,51.13 C84.601,50.889 84.565,50.649 84.526,50.411 C84.464,50.029 84.395,49.648 84.324,49.275 L84.3,49.152 C84.264,48.962 84.228,48.772 84.187,48.578 C84.1,48.17 84.005,47.767 83.908,47.369 L83.87,47.207 C83.837,47.07 83.805,46.933 83.77,46.798 C83.619,46.22 83.457,45.646 83.281,45.076 C83.248,44.968 83.212,44.862 83.175,44.755 L83.136,44.638 C82.999,44.213 82.858,43.79 82.708,43.374 C82.645,43.2 82.579,43.028 82.512,42.855 L82.448,42.687 C82.322,42.358 82.195,42.03 82.062,41.709 C81.96,41.461 81.853,41.215 81.743,40.963 C81.612,40.664 81.478,40.368 81.341,40.076 C81.223,39.822 81.103,39.569 80.981,39.323 C80.843,39.042 80.698,38.763 80.55,38.48 L80.493,38.37 C80.381,38.157 80.269,37.944 80.152,37.731 C80.018,37.488 79.878,37.248 79.738,37.009 L79.582,36.741 C79.477,36.557 79.371,36.373 79.262,36.196 C78.978,35.731 78.684,35.273 78.381,34.821 C78.233,34.6 78.079,34.383 77.925,34.167 L77.715,33.87 C77.603,33.71 77.49,33.549 77.379,33.4 C77.184,33.135 76.983,32.875 76.781,32.615 L73.897,34.854 L76.714,32.529 C76.584,32.361 76.453,32.192 76.317,32.024 C76.099,31.754 75.878,31.488 75.658,31.229 C75.511,31.057 75.363,30.886 75.216,30.719 C74.977,30.448 74.737,30.178 74.489,29.912 L74.087,29.49 C73.818,29.209 73.548,28.928 73.267,28.652 L73.09,28.482 C72.052,27.473 70.941,26.506 69.726,25.561 L69.546,25.42 C69.202,25.156 68.85,24.9 68.497,24.647 L68.172,24.416 C67.815,24.167 67.455,23.924 67.096,23.69 L66.783,23.489 C66.4,23.245 66.013,23.005 65.635,22.781 L65.461,22.68 C63.659,21.628 61.759,20.713 59.8,19.955 L59.675,19.906 C59.223,19.733 58.766,19.57 58.313,19.415 L58.046,19.325 C57.592,19.174 57.135,19.031 56.673,18.896 L56.435,18.828 C56.251,18.775 56.066,18.724 55.882,18.674 C56.83,16.489 57.944,14.394 59.214,12.415 C60.707,10.085 60.027,6.973 57.696,5.478 C55.367,3.986 52.257,4.665 50.761,6.994 C50.242,7.802 49.743,8.631 49.263,9.478 C47.088,6.838 44.419,4.679 41.429,3.157 C34.556,-0.345 25.994,-0.388 19.085,3.046 L13.12,6.01 L18.828,9.444 C19.894,10.086 20.858,11.116 22.05,12.886 C22.332,13.306 22.606,13.734 22.879,14.165 L23.236,14.732 C24.022,15.98 24.834,17.272 25.802,18.509 C26.573,19.493 27.433,20.413 28.373,21.261 C14.902,27.788 6.139,41.512 6.139,56.758 C6.139,68.997 11.688,80.341 21.361,87.881 C21.777,88.206 22.198,88.521 22.646,88.842 C24.742,90.343 26.992,91.642 29.378,92.722 L29.694,92.865 C30.069,93.03 30.447,93.189 30.826,93.342 L31.33,93.541 C31.692,93.681 32.054,93.819 32.42,93.948 L33.144,94.194 C33.452,94.297 33.76,94.4 34.066,94.493 C34.237,94.546 34.411,94.595 34.585,94.643 L34.794,94.702 C35.335,94.855 35.879,94.998 36.502,95.146 C36.806,95.219 37.11,95.291 37.419,95.357 C37.62,95.399 37.823,95.437 38.026,95.475 L38.213,95.511 C38.554,95.575 38.897,95.638 39.245,95.694 C39.503,95.736 39.762,95.774 40.02,95.811 C40.383,95.862 40.75,95.909 41.121,95.951 C41.367,95.978 41.612,96.006 41.853,96.028 C42.263,96.067 42.674,96.096 43.085,96.122 L43.251,96.134 C43.404,96.144 43.557,96.155 43.71,96.162 C44.334,96.191 44.96,96.209 45.59,96.209 C67.343,96.209 85.041,78.511 85.041,56.758 C85.041,56.124 85.023,55.494 84.994,54.868" id="Fill-60" fill="#FFFFFF"></path>
                <path d="M81.39,56.758 C81.39,76.53 65.362,92.558 45.59,92.558 C25.818,92.558 9.79,76.53 9.79,56.758 C9.79,36.986 25.818,20.958 45.59,20.958 C65.362,20.958 81.39,36.986 81.39,56.758" id="Fill-61" fill="#EC912F"></path>
                <path d="M14.631,56.758 C14.631,56.758 14.551,55.993 14.466,54.658 C14.446,54.324 14.424,53.954 14.4,53.552 C14.422,53.144 14.447,52.702 14.472,52.231 C14.501,51.754 14.533,51.246 14.566,50.71 C14.588,50.168 14.74,49.634 14.829,49.053 C14.936,48.475 15.048,47.873 15.163,47.25 C15.348,46.644 15.54,46.017 15.736,45.373 C15.837,45.05 15.938,44.722 16.041,44.39 C16.157,44.063 16.306,43.745 16.439,43.416 C16.709,42.758 17.014,42.098 17.315,41.42 C18.068,40.151 18.722,38.745 19.705,37.529 C20.577,36.23 21.682,35.089 22.731,33.899 C23.914,32.843 25.049,31.728 26.356,30.867 C27.578,29.889 28.98,29.231 30.251,28.48 C30.929,28.181 31.588,27.872 32.246,27.603 C32.576,27.47 32.894,27.321 33.221,27.205 C33.553,27.103 33.881,27.001 34.204,26.9 C34.848,26.704 35.475,26.512 36.081,26.327 C36.704,26.212 37.306,26.1 37.884,25.993 C38.464,25.904 39.003,25.753 39.539,25.731 C40.07,25.698 40.574,25.668 41.047,25.639 C41.518,25.613 41.957,25.59 42.364,25.567 C42.772,25.591 43.147,25.613 43.486,25.633 C44.835,25.717 45.59,25.799 45.59,25.799 C45.59,25.799 44.828,25.957 43.522,26.176 C43.197,26.231 42.837,26.291 42.445,26.357 C42.06,26.455 41.643,26.562 41.198,26.676 C40.309,26.896 39.313,27.127 38.265,27.519 C37.74,27.698 37.193,27.884 36.627,28.077 C36.08,28.313 35.514,28.559 34.932,28.811 C34.643,28.935 34.349,29.06 34.052,29.188 C33.76,29.326 33.478,29.498 33.186,29.654 C32.61,29.981 32.006,30.278 31.402,30.599 C30.264,31.364 29.044,32.077 27.942,32.998 C26.774,33.831 25.746,34.863 24.667,35.834 C23.689,36.907 22.646,37.928 21.824,39.105 C20.909,40.212 20.192,41.429 19.428,42.569 C19.109,43.173 18.808,43.776 18.482,44.352 C18.327,44.644 18.154,44.926 18.016,45.218 C17.889,45.515 17.763,45.809 17.639,46.099 C17.387,46.681 17.142,47.246 16.905,47.794 C16.712,48.36 16.526,48.907 16.348,49.432 C15.956,50.485 15.726,51.467 15.508,52.35 C15.394,52.793 15.287,53.209 15.188,53.593 C15.122,53.99 15.062,54.355 15.007,54.685 C14.788,56.005 14.631,56.758 14.631,56.758" id="Fill-62" fill="#FBF9F7"></path>
                <path d="M45.59,92.558 C45.572,92.558 45.554,92.558 45.537,92.558 C45.555,92.558 45.572,92.558 45.59,92.558 C65.362,92.558 81.39,76.53 81.39,56.758 C81.39,76.53 65.362,92.558 45.59,92.558 M45.518,92.558 C45.506,92.558 45.495,92.558 45.483,92.558 C45.495,92.558 45.506,92.558 45.518,92.558 M45.461,92.558 C45.45,92.557 45.44,92.557 45.428,92.557 C45.439,92.557 45.45,92.557 45.461,92.558 M45.407,92.557 C45.396,92.557 45.386,92.557 45.375,92.557 C45.385,92.557 45.397,92.557 45.407,92.557 M45.352,92.557 C45.342,92.557 45.332,92.557 45.322,92.557 C45.331,92.557 45.342,92.557 45.352,92.557 M45.272,92.556 C45.264,92.556 45.257,92.556 45.25,92.556 C45.257,92.556 45.265,92.556 45.272,92.556 M45.216,92.556 C45.21,92.556 45.204,92.556 45.198,92.556 C45.205,92.556 45.209,92.556 45.216,92.556 M45.161,92.555 C45.157,92.555 45.152,92.555 45.148,92.555 C45.152,92.555 45.158,92.555 45.161,92.555 M45.107,92.555 C45.105,92.555 45.104,92.554 45.102,92.554 C45.103,92.554 45.106,92.555 45.107,92.555 M81.39,56.758 C81.39,56.74 81.39,56.722 81.39,56.704 C81.39,56.722 81.39,56.739 81.39,56.758 M81.39,56.686 C81.39,56.674 81.39,56.662 81.39,56.65 C81.39,56.662 81.39,56.674 81.39,56.686 M81.39,56.629 C81.39,56.618 81.39,56.605 81.39,56.594 C81.39,56.606 81.39,56.618 81.39,56.629 M81.39,56.575 C81.39,56.564 81.389,56.551 81.389,56.54 C81.389,56.553 81.39,56.562 81.39,56.575 M81.389,56.519 C81.389,56.507 81.389,56.495 81.389,56.483 C81.389,56.494 81.389,56.508 81.389,56.519 M81.389,56.465 C81.389,56.447 81.389,56.43 81.388,56.412 C81.389,56.43 81.389,56.448 81.389,56.465 M81.388,56.398 C81.388,56.384 81.388,56.372 81.388,56.358 C81.388,56.371 81.388,56.385 81.388,56.398 M81.388,56.338 C81.387,56.327 81.387,56.316 81.387,56.305 C81.387,56.315 81.387,56.327 81.388,56.338 M81.387,56.28 C81.387,56.271 81.387,56.261 81.387,56.251 C81.387,56.261 81.387,56.27 81.387,56.28 M81.386,56.227 C81.386,56.217 81.386,56.206 81.386,56.196 C81.386,56.206 81.386,56.216 81.386,56.227 M81.385,56.173 C81.385,56.162 81.385,56.151 81.385,56.14 C81.385,56.151 81.385,56.162 81.385,56.173 M81.384,56.119 C81.384,56.102 81.384,56.085 81.384,56.068 C81.384,56.084 81.384,56.102 81.384,56.119 M81.383,56.044 C81.383,56.035 81.383,56.024 81.382,56.014 C81.383,56.025 81.383,56.034 81.383,56.044 M81.382,55.99 C81.382,55.98 81.382,55.97 81.381,55.96 C81.382,55.969 81.382,55.98 81.382,55.99 M81.381,55.935 C81.381,55.926 81.38,55.916 81.38,55.908 C81.38,55.917 81.381,55.925 81.381,55.935 M81.379,55.88 C81.379,55.872 81.379,55.864 81.379,55.856 C81.379,55.865 81.379,55.871 81.379,55.88 M81.378,55.826 C81.378,55.819 81.378,55.813 81.378,55.806 C81.378,55.813 81.378,55.819 81.378,55.826 M81.376,55.732 C81.376,55.73 81.376,55.728 81.375,55.725 C81.375,55.727 81.376,55.73 81.376,55.732 M81.374,55.692 C81.374,55.685 81.374,55.679 81.374,55.672 C81.374,55.679 81.374,55.685 81.374,55.692 M81.373,55.64 C81.373,55.633 81.373,55.627 81.372,55.62 C81.373,55.627 81.373,55.633 81.373,55.64 M81.371,55.587 C81.371,55.581 81.371,55.574 81.371,55.568 C81.371,55.575 81.371,55.58 81.371,55.587 M81.369,55.533 C81.369,55.529 81.369,55.524 81.369,55.521 C81.369,55.525 81.369,55.529 81.369,55.533 M81.362,55.339 C81.362,55.336 81.362,55.335 81.362,55.333 C81.362,55.335 81.362,55.337 81.362,55.339 M81.361,55.291 C81.36,55.287 81.36,55.285 81.36,55.281 C81.36,55.284 81.36,55.288 81.361,55.291 M81.358,55.239 C81.358,55.238 81.358,55.234 81.358,55.233 C81.358,55.235 81.358,55.237 81.358,55.239" id="Fill-63" fill="#EEEDE8"></path>
                <path d="M45.59,92.558 C45.572,92.558 45.555,92.558 45.537,92.558 C45.53,92.558 45.524,92.558 45.518,92.558 C45.506,92.558 45.495,92.558 45.483,92.558 C45.476,92.558 45.468,92.558 45.461,92.558 C45.45,92.557 45.439,92.557 45.428,92.557 C45.421,92.557 45.414,92.557 45.407,92.557 C45.397,92.557 45.385,92.557 45.375,92.557 C45.368,92.557 45.359,92.557 45.352,92.557 C45.342,92.557 45.331,92.557 45.322,92.557 C45.305,92.557 45.289,92.556 45.272,92.556 C45.265,92.556 45.257,92.556 45.25,92.556 C45.238,92.556 45.227,92.556 45.216,92.556 C45.209,92.556 45.205,92.556 45.198,92.556 C45.186,92.555 45.173,92.555 45.161,92.555 C45.158,92.555 45.152,92.555 45.148,92.555 C45.134,92.555 45.121,92.555 45.107,92.555 C45.106,92.555 45.103,92.554 45.102,92.554 C37.001,92.446 29.555,89.639 23.606,85.002 C26.339,85.67 29.191,86.032 32.13,86.032 C49.109,86.032 63.328,74.21 67.006,58.349 C69.203,58.282 70.921,57.698 70.921,56.986 C70.921,56.331 69.467,55.784 67.523,55.649 C67.791,53.882 67.93,52.073 67.93,50.232 C67.93,38.75 62.518,28.538 54.114,21.987 C69.294,25.696 80.681,39.077 81.358,55.233 C81.358,55.234 81.358,55.238 81.358,55.239 C81.359,55.253 81.36,55.267 81.36,55.281 C81.36,55.285 81.36,55.287 81.361,55.291 C81.361,55.304 81.362,55.319 81.362,55.333 C81.362,55.335 81.362,55.336 81.362,55.339 C81.365,55.4 81.367,55.46 81.369,55.521 C81.369,55.524 81.369,55.529 81.369,55.533 C81.37,55.544 81.37,55.557 81.371,55.568 C81.371,55.574 81.371,55.581 81.371,55.587 C81.372,55.597 81.372,55.61 81.372,55.62 C81.373,55.627 81.373,55.633 81.373,55.64 C81.373,55.65 81.374,55.662 81.374,55.672 C81.374,55.679 81.374,55.685 81.374,55.692 C81.375,55.703 81.375,55.714 81.375,55.725 C81.376,55.728 81.376,55.73 81.376,55.732 C81.376,55.757 81.377,55.781 81.378,55.806 C81.378,55.813 81.378,55.819 81.378,55.826 C81.378,55.835 81.379,55.846 81.379,55.856 C81.379,55.864 81.379,55.872 81.379,55.88 C81.38,55.889 81.38,55.9 81.38,55.908 C81.38,55.916 81.381,55.926 81.381,55.935 C81.381,55.944 81.381,55.951 81.381,55.96 C81.382,55.97 81.382,55.98 81.382,55.99 C81.382,55.998 81.382,56.006 81.382,56.014 C81.383,56.024 81.383,56.035 81.383,56.044 C81.383,56.053 81.383,56.06 81.384,56.068 C81.384,56.085 81.384,56.102 81.384,56.119 C81.385,56.126 81.385,56.133 81.385,56.14 C81.385,56.151 81.385,56.162 81.385,56.173 C81.385,56.18 81.386,56.189 81.386,56.196 C81.386,56.206 81.386,56.217 81.386,56.227 C81.386,56.235 81.386,56.243 81.387,56.251 C81.387,56.261 81.387,56.271 81.387,56.28 C81.387,56.289 81.387,56.297 81.387,56.305 C81.387,56.316 81.387,56.327 81.388,56.338 C81.388,56.345 81.388,56.351 81.388,56.358 C81.388,56.372 81.388,56.384 81.388,56.398 C81.388,56.403 81.388,56.407 81.388,56.412 C81.389,56.43 81.389,56.447 81.389,56.465 C81.389,56.472 81.389,56.477 81.389,56.483 C81.389,56.495 81.389,56.507 81.389,56.519 C81.389,56.526 81.389,56.533 81.389,56.54 C81.389,56.551 81.39,56.564 81.39,56.575 C81.39,56.581 81.39,56.588 81.39,56.594 C81.39,56.605 81.39,56.618 81.39,56.629 C81.39,56.636 81.39,56.642 81.39,56.65 C81.39,56.662 81.39,56.674 81.39,56.686 C81.39,56.692 81.39,56.699 81.39,56.704 C81.39,56.722 81.39,56.74 81.39,56.758 C81.39,76.53 65.362,92.558 45.59,92.558" id="Fill-64" fill="#EA8B2D"></path>
                <path d="M45.21,20.96 C45.213,20.96 45.215,20.96 45.218,20.96 C45.216,20.96 45.213,20.96 45.21,20.96 M45.277,20.959 C45.281,20.959 45.286,20.959 45.29,20.959 C45.285,20.959 45.282,20.959 45.277,20.959 M45.316,20.959 C45.325,20.959 45.335,20.959 45.344,20.959 C45.335,20.959 45.326,20.959 45.316,20.959 M45.363,20.959 C45.379,20.958 45.394,20.958 45.409,20.958 C45.394,20.958 45.379,20.958 45.363,20.959 M45.426,20.958 C45.44,20.958 45.454,20.958 45.468,20.958 C45.455,20.958 45.439,20.958 45.426,20.958 M45.476,20.958 C45.492,20.958 45.509,20.958 45.526,20.958 C45.509,20.958 45.493,20.958 45.476,20.958 M45.539,20.958 C45.556,20.958 45.573,20.958 45.59,20.958 C45.573,20.958 45.556,20.958 45.539,20.958" id="Fill-65" fill="#EEEDE8"></path>
                <path d="M40.467,26.857 C40.717,26.794 40.961,26.735 41.198,26.676 C41.643,26.562 42.06,26.455 42.445,26.357 C42.837,26.291 43.197,26.231 43.522,26.176 C43.698,26.147 43.865,26.118 44.021,26.091 C42.875,26.476 41.672,26.726 40.467,26.857 M34.725,26.741 C32.448,26.474 30.181,26.017 27.914,25.63 C33.027,22.72 38.922,21.026 45.21,20.96 C45.213,20.96 45.216,20.96 45.218,20.96 C45.238,20.96 45.257,20.959 45.277,20.959 C45.282,20.959 45.285,20.959 45.29,20.959 C45.298,20.959 45.307,20.959 45.316,20.959 C45.326,20.959 45.335,20.959 45.344,20.959 C45.351,20.959 45.357,20.959 45.363,20.959 C45.379,20.958 45.394,20.958 45.409,20.958 C45.415,20.958 45.42,20.958 45.426,20.958 C45.439,20.958 45.455,20.958 45.468,20.958 C45.471,20.958 45.473,20.958 45.476,20.958 C45.493,20.958 45.509,20.958 45.526,20.958 C45.53,20.958 45.535,20.958 45.539,20.958 C45.556,20.958 45.573,20.958 45.59,20.958 C45.816,20.958 46.04,20.971 46.265,20.975 C47.029,21.665 48.063,22.482 48.928,22.482 C49.215,22.482 49.484,22.392 49.719,22.177 C48.505,23.799 46.833,24.965 44.96,25.74 C44.606,25.71 44.109,25.672 43.486,25.633 C43.147,25.613 42.772,25.591 42.364,25.567 C41.957,25.59 41.518,25.613 41.047,25.639 C40.574,25.668 40.07,25.698 39.539,25.731 C39.003,25.753 38.464,25.904 37.884,25.993 C37.306,26.1 36.704,26.212 36.081,26.327 C35.64,26.462 35.187,26.6 34.725,26.741" id="Fill-66" fill="#EA8B2D"></path>
                <path d="M38.287,26.968 C37.096,26.968 35.909,26.88 34.725,26.741 C35.187,26.6 35.64,26.462 36.081,26.327 C36.704,26.212 37.306,26.1 37.884,25.993 C38.464,25.904 39.003,25.753 39.539,25.731 C40.07,25.698 40.574,25.668 41.047,25.639 C41.518,25.613 41.957,25.59 42.364,25.567 C42.772,25.591 43.147,25.613 43.486,25.633 C44.109,25.672 44.606,25.71 44.96,25.74 C44.652,25.868 44.339,25.985 44.021,26.091 C43.865,26.118 43.698,26.147 43.522,26.176 C43.197,26.231 42.837,26.291 42.445,26.357 C42.06,26.455 41.643,26.562 41.198,26.676 C40.961,26.735 40.717,26.794 40.467,26.857 C40.031,26.904 39.594,26.936 39.16,26.952 C38.869,26.963 38.578,26.968 38.287,26.968" id="Fill-67" fill="#E7E7E1"></path>
                <path d="M39.772,6.41 C33.9,3.419 26.612,3.383 20.71,6.315 C24.38,8.524 26.038,12.885 28.677,16.258 C32.232,20.8 37.922,23.471 43.65,23.667 C45.735,23.738 49.314,23.854 50.351,21.567 C51.427,19.195 49.102,15.61 47.861,13.721 C45.845,10.651 43.05,8.08 39.772,6.41" id="Fill-68" fill="#91C33F"></path>
                <path d="M43.65,23.667 C45.492,23.73 48.497,23.825 49.889,22.269 C37.421,6.328 20.71,6.315 20.71,6.315 C24.38,8.524 26.038,12.885 28.677,16.258 C32.232,20.8 37.922,23.471 43.65,23.667" id="Fill-69" fill="#80BD42"></path>
                <path d="M49.105,29.962 C49.993,23.065 52.487,16.381 56.25,10.515 C56.697,9.817 56.494,8.889 55.797,8.442 C55.1,7.995 54.172,8.198 53.724,8.895 C49.729,15.125 47.079,22.22 46.13,29.579 C46.024,30.4 46.604,31.152 47.426,31.258 C48.248,31.364 49,30.783 49.105,29.962" id="Fill-70" fill="#4F7537"></path>
                <path d="M45.59,77.569 C36.07,77.569 27.296,72.384 22.692,64.037 C22.327,63.375 22.568,62.542 23.23,62.177 C23.893,61.812 24.726,62.053 25.09,62.714 C29.212,70.188 37.068,74.831 45.59,74.831 C54.113,74.831 61.968,70.188 66.09,62.714 C66.455,62.052 67.288,61.812 67.951,62.177 C68.612,62.542 68.853,63.375 68.488,64.037 C63.885,72.384 55.11,77.569 45.59,77.569" id="Fill-71" fill="#865527"></path>
                <path d="M24.595,58.355 C22.2,58.355 20.259,57.742 20.259,56.986 C20.259,56.23 22.2,55.617 24.595,55.617 C26.989,55.617 28.931,56.23 28.931,56.986 C28.931,57.742 26.989,58.355 24.595,58.355" id="Fill-72" fill="#DB842E"></path>
                <path d="M66.585,58.355 C64.191,58.355 62.249,57.742 62.249,56.986 C62.249,56.23 64.191,55.617 66.585,55.617 C66.907,55.617 67.221,55.628 67.523,55.649 C67.384,56.561 67.212,57.461 67.006,58.349 C66.867,58.353 66.727,58.355 66.585,58.355" id="Fill-73" fill="#DB842E"></path>
                <path d="M67.006,58.349 C67.212,57.461 67.384,56.561 67.523,55.649 C69.467,55.784 70.921,56.331 70.921,56.986 C70.921,57.698 69.203,58.282 67.006,58.349" id="Fill-74" fill="#CE7E2E"></path>
                <path d="M33.077,48.923 C33.077,50.939 31.953,52.574 30.566,52.574 C29.18,52.574 28.056,50.939 28.056,48.923 C28.056,46.906 29.18,45.271 30.566,45.271 C31.953,45.271 33.077,46.906 33.077,48.923" id="Fill-75" fill="#432F1A"></path>
                <path d="M63.124,48.923 C63.124,50.939 62,52.574 60.614,52.574 C59.228,52.574 58.104,50.939 58.104,48.923 C58.104,46.906 59.228,45.271 60.614,45.271 C62,45.271 63.124,46.906 63.124,48.923" id="Fill-76" fill="#432F1A"></path>
                <path d="M62.397,49.702 C62.397,50.238 61.963,50.672 61.427,50.672 C60.892,50.672 60.457,50.238 60.457,49.702 C60.457,49.167 60.892,48.732 61.427,48.732 C61.963,48.732 62.397,49.167 62.397,49.702" id="Fill-77" fill="#FFFFFF"></path>
                <path d="M32.159,49.702 C32.159,50.238 31.725,50.672 31.189,50.672 C30.654,50.672 30.219,50.238 30.219,49.702 C30.219,49.167 30.654,48.732 31.189,48.732 C31.725,48.732 32.159,49.167 32.159,49.702" id="Fill-78" fill="#FFFFFF"></path>
                <path d="M37.674,43.032 C39.492,43.032 39.495,40.208 37.674,40.208 C35.857,40.208 35.854,43.032 37.674,43.032" id="Fill-79" fill="#E2872E"></path>
                <path d="M42.847,44.553 C44.664,44.553 44.667,41.729 42.847,41.729 C41.03,41.729 41.027,44.553 42.847,44.553" id="Fill-80" fill="#E2872E"></path>
                <path d="M38.891,50.106 C41.59,50.106 41.594,45.913 38.891,45.913 C36.193,45.913 36.189,50.106 38.891,50.106" id="Fill-81" fill="#E2872E"></path>
                <path d="M44.064,53.292 C45.771,53.292 45.774,50.639 44.064,50.639 C42.357,50.639 42.354,53.292 44.064,53.292" id="Fill-82" fill="#E2872E"></path>
                <path d="M40.413,58.37 C42.781,58.37 42.785,54.69 40.413,54.69 C38.045,54.69 38.041,58.37 40.413,58.37" id="Fill-83" fill="#E2872E"></path>
                <path d="M42.931,63.003 L43.001,62.922 C43.644,62.175 43.648,61.235 43.001,60.483 L42.931,60.401 C41.891,59.193 39.721,60.163 39.79,61.702 C39.819,62.344 40.136,62.96 40.701,63.291 C41.361,63.677 42.405,63.615 42.931,63.003" id="Fill-84" fill="#E2872E"></path>
                <path d="M44.369,67.246 C46.021,67.246 46.023,64.679 44.369,64.679 C42.717,64.679 42.714,67.246 44.369,67.246" id="Fill-85" fill="#E2872E"></path>
                <path d="M41.021,69.286 C42.949,69.286 42.952,66.29 41.021,66.29 C39.094,66.29 39.091,69.286 41.021,69.286" id="Fill-86" fill="#E2872E"></path>
                <path d="M32.502,80.468 C33.548,80.468 33.55,78.842 32.502,78.842 C31.455,78.842 31.454,80.468 32.502,80.468" id="Fill-87" fill="#E2872E"></path>
                <path d="M27.025,81.623 C29.558,81.623 29.562,77.687 27.025,77.687 C24.492,77.687 24.487,81.623 27.025,81.623" id="Fill-88" fill="#E2872E"></path>
            </g>
        </g>
    </g>
</svg>