<?xml version="1.0" encoding="UTF-8"?>
<svg width="87px" height="123px" viewBox="0 0 87 123" version="1.1" xmlns="http://www.w3.org/2000/svg" xmlns:xlink="http://www.w3.org/1999/xlink">
    <!-- Generator: Sketch 44.1 (41455) - http://www.bohemiancoding.com/sketch -->
    <title>pear</title>
    <desc>Created with Sketch.</desc>
    <defs></defs>
    <g id="Page-1" stroke="none" stroke-width="1" fill="none" fill-rule="evenodd">
        <g id="158227-OUTYSB-392" transform="translate(-210.000000, -76.000000)">
            <g id="pear" transform="translate(210.000000, 76.000000)">
                <path d="M38.194,122.154 C38.639,122.205 39.086,122.247 39.534,122.285 C39.774,122.324 40.018,122.344 40.263,122.344 L40.341,122.344 C40.605,122.341 40.867,122.328 41.125,122.287 C41.579,122.248 42.032,122.206 42.485,122.153 C49.273,121.368 55.942,119.179 61.771,115.823 C63.213,114.994 64.61,114.088 65.926,113.132 C67.256,112.165 68.528,111.126 69.708,110.045 C72.142,107.816 74.235,105.365 75.93,102.76 C76.881,101.298 77.701,99.758 78.367,98.186 C78.592,97.652 78.802,97.113 78.994,96.566 C80.445,92.435 80.791,88.244 79.994,84.445 L79.993,84.444 C79.869,83.849 79.715,83.257 79.537,82.688 C78.78,80.268 77.546,78.06 75.868,76.125 C74.093,74.077 71.997,72.517 69.971,71.008 L69.725,70.825 C68.321,69.778 67.079,68.831 66.1,67.85 C65.786,67.534 65.519,67.237 65.285,66.942 C64.626,66.11 64.133,65.182 63.778,64.104 C63.642,63.69 63.525,63.247 63.43,62.786 C63.248,61.895 63.141,60.894 63.114,59.814 C63.101,59.273 63.108,58.731 63.129,58.188 C63.159,57.409 63.222,56.578 63.321,55.645 C63.415,54.766 63.526,53.884 63.637,53.001 L63.649,52.901 C63.801,51.694 63.973,50.326 64.093,48.948 C64.33,46.243 64.471,42.659 63.452,38.926 C62.819,36.612 61.736,34.381 60.231,32.296 C59.944,31.898 59.643,31.507 59.329,31.126 C58.712,30.375 58.035,29.644 57.318,28.956 C56.793,28.451 56.224,27.955 55.632,27.482 C55.412,27.306 55.182,27.14 54.95,26.975 L54.568,26.696 C54.328,26.517 54.088,26.34 53.842,26.176 C53.464,25.923 53.07,25.688 52.676,25.455 L52.438,25.312 C52.282,25.215 52.126,25.12 51.969,25.033 C51.446,24.74 50.907,24.472 50.345,24.201 C50.238,24.146 50.131,24.093 50.022,24.042 C49.57,23.833 49.093,23.628 48.566,23.419 C49.707,20 51.283,16.69 53.21,13.684 C54.066,12.35 54.351,10.762 54.012,9.214 C53.674,7.665 52.752,6.341 51.419,5.487 C48.666,3.721 44.99,4.523 43.221,7.279 C42.923,7.743 42.631,8.214 42.346,8.691 C40.259,6.399 37.794,4.506 35.073,3.119 C27.945,-0.512 19.069,-0.555 11.908,3.004 C10.415,3.746 9.445,5.243 9.378,6.908 C9.312,8.574 10.158,10.143 11.587,11.003 C11.827,11.148 12.058,11.314 12.291,11.509 C12.531,11.71 12.766,11.936 13.007,12.197 C13.473,12.702 13.955,13.331 14.523,14.174 C14.799,14.586 15.069,15.006 15.336,15.429 L15.695,15.998 C16.492,17.265 17.316,18.575 18.312,19.847 C19.676,21.59 21.309,23.139 23.164,24.451 C24.204,25.187 25.311,25.846 26.468,26.417 C25.357,27.188 24.316,28.037 23.359,28.955 C20.336,31.857 18.214,35.305 17.225,38.927 C15.887,43.825 16.5,48.703 17.04,53.007 C17.151,53.888 17.262,54.768 17.355,55.646 C17.929,61.021 17.323,64.505 15.391,66.942 C14.275,68.349 12.539,69.642 10.701,71.011 C8.676,72.519 6.583,74.079 4.808,76.125 C-1.226,83.085 -1.25,93.54 4.747,102.761 C11.482,113.115 24.297,120.546 38.194,122.154" id="Fill-3" fill="#DF8F42"></path>
                <path d="M86.08,84.445 L86.079,84.444 C85.954,83.849 85.801,83.257 85.623,82.688 C84.866,80.268 83.632,78.06 81.954,76.125 C80.178,74.077 78.083,72.517 76.057,71.008 L75.811,70.825 C74.406,69.778 73.164,68.831 72.185,67.85 C71.871,67.534 71.605,67.237 71.371,66.942 C70.712,66.11 70.219,65.182 69.864,64.104 C69.727,63.69 69.61,63.247 69.516,62.786 C69.333,61.895 69.227,60.894 69.2,59.814 C69.187,59.273 69.193,58.731 69.214,58.188 C69.245,57.409 69.307,56.578 69.407,55.645 C69.501,54.766 69.612,53.884 69.722,53.001 L69.735,52.901 C69.886,51.694 70.058,50.326 70.179,48.948 C70.415,46.243 70.556,42.659 69.537,38.926 C68.905,36.612 67.821,34.381 66.317,32.296 C66.03,31.898 65.729,31.507 65.415,31.126 C64.798,30.375 64.121,29.644 63.404,28.956 C62.878,28.451 62.31,27.955 61.718,27.482 C61.497,27.306 61.267,27.14 61.036,26.975 L60.653,26.696 C60.414,26.517 60.174,26.34 59.928,26.176 C59.549,25.923 59.156,25.688 58.761,25.455 L58.524,25.312 C58.368,25.215 58.212,25.12 58.054,25.033 C57.531,24.74 56.992,24.472 56.431,24.201 C56.324,24.146 56.217,24.092 56.108,24.042 C55.656,23.833 55.179,23.628 54.652,23.419 C55.793,19.999 57.368,16.69 59.296,13.684 C60.151,12.35 60.437,10.762 60.098,9.214 C59.76,7.665 58.838,6.341 57.505,5.487 C54.751,3.721 51.076,4.523 49.306,7.279 C49.008,7.743 48.717,8.214 48.431,8.691 C46.345,6.399 43.88,4.506 41.158,3.119 C34.031,-0.512 25.155,-0.555 17.993,3.004 C16.501,3.746 15.531,5.243 15.464,6.908 C15.397,8.574 16.244,10.143 17.672,11.003 C17.913,11.148 18.144,11.314 18.376,11.509 C18.616,11.71 18.851,11.936 19.092,12.197 C19.558,12.702 20.04,13.331 20.608,14.174 C20.885,14.586 21.155,15.006 21.422,15.429 L21.781,15.998 C22.578,17.265 23.402,18.575 24.398,19.847 C25.762,21.59 27.395,23.139 29.25,24.451 C30.29,25.187 31.396,25.846 32.554,26.417 C31.442,27.188 30.402,28.037 29.445,28.955 C26.421,31.857 24.3,35.305 23.311,38.927 C21.973,43.825 22.585,48.703 23.126,53.007 C23.237,53.888 23.348,54.768 23.441,55.646 C24.015,61.021 23.409,64.505 21.477,66.942 C20.36,68.349 18.625,69.642 16.786,71.011 C14.762,72.519 12.669,74.078 10.894,76.125 C4.859,83.085 4.835,93.54 10.833,102.761 C17.567,113.115 30.383,120.546 44.28,122.154 C44.725,122.205 45.172,122.247 45.619,122.285 C45.86,122.324 46.103,122.344 46.349,122.344 L46.427,122.344 C46.691,122.341 46.953,122.328 47.211,122.287 C47.664,122.248 48.118,122.205 48.571,122.153 C55.358,121.368 62.027,119.179 67.857,115.823 C69.298,114.994 70.696,114.088 72.011,113.132 C73.341,112.165 74.614,111.126 75.794,110.045 C78.228,107.816 80.321,105.365 82.016,102.76 C82.967,101.297 83.787,99.758 84.452,98.186 C84.678,97.652 84.887,97.113 85.08,96.566 C86.53,92.435 86.876,88.244 86.08,84.445" id="Fill-12" fill="#FBF9F7"></path>
                <path d="M78.505,79.115 C75.475,75.62 70.647,73.374 67.795,69.778 C64.455,65.566 64.333,60.176 64.868,55.161 C65.403,50.146 66.476,45.04 65.134,40.129 C64.338,37.214 62.597,34.508 60.243,32.248 C56.67,28.819 51.656,26.634 46.498,25.963 L46.498,25.942 L46.424,25.953 L46.35,25.942 L46.35,25.963 C41.192,26.634 36.178,28.819 32.605,32.248 C30.251,34.508 28.51,37.214 27.714,40.129 C26.372,45.04 27.444,50.146 27.98,55.161 C28.515,60.176 28.392,65.566 25.053,69.778 C22.201,73.374 17.373,75.62 14.343,79.115 C9.101,85.16 10.398,93.722 14.659,100.272 C20.673,109.519 32.219,116.163 44.802,117.619 C45.317,117.679 45.833,117.724 46.35,117.766 L46.35,117.78 L46.424,117.773 L46.498,117.78 L46.498,117.766 C47.015,117.724 47.531,117.679 48.046,117.619 C60.629,116.163 72.174,109.519 78.189,100.272 C82.45,93.722 83.747,85.16 78.505,79.115" id="Fill-13" fill="#FBCD27"></path>
                <path d="M46.498,117.78 L46.424,117.773 L46.35,117.78 L46.424,117.773 L46.498,117.78 L46.498,117.766 C47.015,117.724 47.531,117.679 48.046,117.619 C60.629,116.163 72.174,109.519 78.189,100.272 C78.289,100.119 78.387,99.964 78.484,99.808 C78.387,99.964 78.289,100.119 78.189,100.272 C72.174,109.519 60.629,116.163 48.046,117.619 C47.531,117.679 47.015,117.724 46.498,117.766 L46.498,117.78 M77.822,78.376 C74.788,75.288 70.441,73.114 67.795,69.778 C64.455,65.566 64.333,60.176 64.868,55.161 C65.318,50.949 66.146,46.673 65.605,42.503 C66.146,46.673 65.318,50.949 64.868,55.161 C64.333,60.176 64.455,65.566 67.795,69.778 C70.441,73.114 74.788,75.288 77.822,78.376 M60.243,32.248 C60.236,32.242 60.229,32.235 60.222,32.229 C60.229,32.235 60.236,32.242 60.243,32.248 M60.214,32.221 C60.21,32.217 60.206,32.213 60.202,32.209 C60.206,32.213 60.21,32.217 60.214,32.221 M60.19,32.198 C60.187,32.195 60.184,32.192 60.182,32.19 C60.184,32.192 60.187,32.195 60.19,32.198 M60.166,32.175 C60.165,32.174 60.163,32.172 60.161,32.171 C60.163,32.172 60.165,32.174 60.166,32.175" id="Fill-14" fill="#E7E7E1"></path>
                <path d="M46.498,117.78 L46.424,117.773 L46.35,117.78 L46.35,117.766 C45.833,117.724 45.317,117.679 44.802,117.619 C44.591,117.595 44.383,117.557 44.173,117.53 C47.218,115.961 50.035,113.986 52.467,111.567 C57.966,106.099 61.289,98.21 60.299,90.518 C59.706,85.909 57.141,81.113 52.701,79.741 C58.241,69.773 61.056,58.006 58.944,46.799 C57.442,38.826 53.207,31.263 47.069,26.059 C51.975,26.805 56.709,28.905 60.142,32.152 C60.149,32.158 60.155,32.165 60.161,32.171 C60.163,32.172 60.165,32.174 60.166,32.175 C60.172,32.18 60.177,32.185 60.182,32.19 C60.184,32.192 60.187,32.195 60.19,32.198 C60.194,32.202 60.198,32.205 60.202,32.209 C60.206,32.213 60.21,32.217 60.214,32.221 C60.217,32.223 60.22,32.226 60.222,32.229 C60.229,32.235 60.236,32.242 60.243,32.248 C62.597,34.508 64.338,37.214 65.134,40.129 C65.349,40.916 65.502,41.707 65.605,42.503 C66.146,46.673 65.318,50.949 64.868,55.161 C64.333,60.176 64.455,65.566 67.795,69.778 C70.441,73.114 74.788,75.288 77.822,78.376 C78.058,78.616 78.286,78.862 78.505,79.115 C83.624,85.018 82.507,93.322 78.484,99.808 C78.387,99.964 78.289,100.119 78.189,100.272 C72.174,109.519 60.629,116.163 48.046,117.619 C47.531,117.679 47.015,117.724 46.498,117.766 L46.498,117.78 M68.03,81.724 C65.635,81.724 63.694,82.337 63.694,83.093 C63.694,83.85 65.635,84.463 68.03,84.463 C70.425,84.463 72.366,83.85 72.366,83.093 C72.366,82.337 70.425,81.724 68.03,81.724" id="Fill-15" fill="#EBC128"></path>
                <path d="M47.035,103.677 C37.515,103.677 28.74,98.492 24.137,90.145 C23.772,89.482 24.012,88.649 24.674,88.284 C25.339,87.919 26.17,88.16 26.535,88.822 C30.657,96.296 38.512,100.938 47.035,100.938 C55.557,100.938 63.413,96.296 67.534,88.822 C67.9,88.159 68.732,87.92 69.395,88.284 C70.057,88.649 70.297,89.482 69.932,90.145 C65.329,98.492 56.555,103.677 47.035,103.677" id="Fill-16" fill="#7C6B2A"></path>
                <path d="M26.039,84.463 C23.645,84.463 21.703,83.85 21.703,83.093 C21.703,82.337 23.645,81.724 26.039,81.724 C28.434,81.724 30.375,82.337 30.375,83.093 C30.375,83.85 28.434,84.463 26.039,84.463" id="Fill-17" fill="#EBC128"></path>
                <path d="M68.03,84.463 C65.635,84.463 63.694,83.85 63.694,83.093 C63.694,82.337 65.635,81.724 68.03,81.724 C70.425,81.724 72.366,82.337 72.366,83.093 C72.366,83.85 70.425,84.463 68.03,84.463" id="Fill-18" fill="#DCB72B"></path>
                <path d="M34.521,75.03 C34.521,77.047 33.397,78.681 32.011,78.681 C30.624,78.681 29.5,77.047 29.5,75.03 C29.5,73.013 30.624,71.379 32.011,71.379 C33.397,71.379 34.521,73.013 34.521,75.03" id="Fill-19" fill="#432F1A"></path>
                <path d="M64.569,75.03 C64.569,77.047 63.445,78.681 62.058,78.681 C60.672,78.681 59.548,77.047 59.548,75.03 C59.548,73.013 60.672,71.379 62.058,71.379 C63.445,71.379 64.569,73.013 64.569,75.03" id="Fill-20" fill="#432F1A"></path>
                <path d="M63.842,75.81 C63.842,76.345 63.407,76.78 62.872,76.78 C62.336,76.78 61.902,76.345 61.902,75.81 C61.902,75.274 62.336,74.84 62.872,74.84 C63.407,74.84 63.842,75.274 63.842,75.81" id="Fill-21" fill="#FFFFFF"></path>
                <path d="M33.604,75.81 C33.604,76.345 33.17,76.78 32.634,76.78 C32.098,76.78 31.664,76.345 31.664,75.81 C31.664,75.274 32.098,74.84 32.634,74.84 C33.17,74.84 33.604,75.274 33.604,75.81" id="Fill-22" fill="#FFFFFF"></path>
                <path d="M42.369,29.499 C42.369,29.499 42.041,29.791 41.468,30.303 C41.194,30.556 40.86,30.863 40.478,31.216 C40.116,31.579 39.708,31.989 39.262,32.435 C38.412,33.356 37.475,34.447 36.589,35.683 C35.703,36.92 34.874,38.3 34.185,39.745 C33.822,40.506 33.542,41.202 33.255,41.949 C32.994,42.696 32.745,43.437 32.544,44.171 C32.142,45.637 31.885,47.052 31.703,48.292 C31.636,48.919 31.574,49.494 31.52,50.003 C31.486,50.524 31.457,50.978 31.433,51.351 C31.394,52.117 31.372,52.554 31.372,52.554 C31.372,52.554 31.325,52.454 31.237,52.266 C31.159,52.076 31.013,51.801 30.894,51.434 C30.758,51.07 30.608,50.622 30.476,50.095 C30.343,49.568 30.213,48.966 30.131,48.298 C30.051,47.631 29.978,46.899 29.988,46.123 C29.983,45.346 30.05,44.526 30.165,43.682 C30.288,42.839 30.477,41.974 30.734,41.112 C30.988,40.26 31.348,39.361 31.714,38.567 C32.509,36.915 33.558,35.396 34.717,34.147 C35.3,33.526 35.895,32.958 36.503,32.473 C37.099,31.976 37.715,31.574 38.282,31.215 C38.852,30.859 39.403,30.581 39.895,30.352 C40.386,30.123 40.831,29.956 41.202,29.831 C41.564,29.691 41.862,29.635 42.06,29.575 C42.261,29.525 42.369,29.499 42.369,29.499" id="Fill-23" fill="#FFFFFF"></path>
                <path d="M21.382,77.198 C21.382,77.198 21.172,77.393 20.823,77.702 C20.483,78.008 20.001,78.444 19.484,78.97 C18.965,79.496 18.401,80.109 17.856,80.786 C17.584,81.126 17.323,81.485 17.061,81.848 C16.819,82.208 16.546,82.623 16.352,82.96 C16.069,83.441 15.915,83.757 15.7,84.177 C15.515,84.584 15.326,84.987 15.165,85.39 C14.843,86.197 14.585,86.989 14.38,87.699 C14.175,88.409 14.029,89.037 13.929,89.49 C13.829,89.944 13.761,90.221 13.761,90.221 C13.761,90.221 13.595,89.993 13.388,89.555 C13.175,89.118 12.936,88.461 12.794,87.63 C12.661,86.803 12.639,85.803 12.822,84.75 C12.915,84.225 13.054,83.687 13.247,83.157 C13.426,82.646 13.73,82.041 13.958,81.632 C14.291,81.086 14.597,80.651 14.973,80.212 C15.343,79.786 15.741,79.398 16.155,79.062 C16.983,78.388 17.865,77.917 18.651,77.627 C19.446,77.343 20.13,77.231 20.622,77.199 C20.863,77.169 21.052,77.192 21.181,77.188 C21.312,77.195 21.382,77.198 21.382,77.198" id="Fill-24" fill="#FFFFFF"></path>
                <path d="M39.086,7.186 C33.214,4.195 25.926,4.159 20.025,7.091 C23.694,9.3 25.352,13.661 27.992,17.034 C31.547,21.576 37.236,24.247 42.965,24.443 C45.049,24.514 48.629,24.63 49.666,22.343 C50.741,19.971 48.417,16.386 47.176,14.497 C45.16,11.427 42.364,8.856 39.086,7.186" id="Fill-25" fill="#91C33F"></path>
                <path d="M42.965,24.443 C44.806,24.506 47.812,24.601 49.203,23.046 C36.735,7.104 20.025,7.091 20.025,7.091 C23.694,9.3 25.352,13.661 27.992,17.034 C31.547,21.576 37.236,24.247 42.965,24.443" id="Fill-26" fill="#80BD42"></path>
                <path d="M46.934,31.915 L46.758,31.904 C46.007,31.807 45.477,31.121 45.574,30.371 C46.504,23.152 49.123,16.019 53.149,9.742 C53.558,9.105 54.404,8.92 55.04,9.328 C55.677,9.737 55.862,10.583 55.454,11.22 C51.646,17.158 49.169,23.901 48.29,30.721 C48.201,31.412 47.612,31.915 46.934,31.915" id="Fill-27" fill="#7C6B2A"></path>
            </g>
        </g>
    </g>
</svg>