<?xml version="1.0" encoding="UTF-8"?>
<svg width="93px" height="142px" viewBox="0 0 93 142" version="1.1" xmlns="http://www.w3.org/2000/svg" xmlns:xlink="http://www.w3.org/1999/xlink">
    <!-- Generator: Sketch 44.1 (41455) - http://www.bohemiancoding.com/sketch -->
    <title>pineapple</title>
    <desc>Created with Sketch.</desc>
    <defs></defs>
    <g id="Page-1" stroke="none" stroke-width="1" fill="none" fill-rule="evenodd">
        <g id="158227-OUTYSB-392" transform="translate(-51.000000, -322.000000)">
            <g id="pineapple" transform="translate(45.000000, 322.000000)">
                <path d="M97.389,25.58 C91.224,18.813 80.366,16.667 70.985,20.363 C67.978,21.547 65.121,23.279 62.489,25.499 C61.511,18.523 60.15,10.937 57.976,3.406 C57.45,1.582 55.85,0.275 53.958,0.123 C52.061,-0.046 50.276,1.005 49.465,2.721 C46.098,9.842 43.82,17.573 42.72,25.516 C40.084,23.292 37.22,21.554 34.195,20.363 C24.813,16.667 13.956,18.814 7.791,25.58 C6.378,27.131 6.204,29.446 7.37,31.191 C8.537,32.936 10.742,33.659 12.717,32.946 C15.02,32.113 17.97,32.364 20.811,33.638 C22.06,34.198 23.294,34.931 24.582,35.89 C19.961,37.244 15.984,40.219 13.815,44.261 C12.823,46.111 13.221,48.398 14.778,49.805 C16.335,51.213 18.651,51.375 20.391,50.202 C21.605,49.382 23.399,49.107 25.314,49.445 C26.041,49.573 26.784,49.778 27.572,50.074 C24.525,52.016 22.262,54.985 21.491,58.368 C21.024,60.413 22.013,62.514 23.887,63.458 C25.762,64.403 28.037,63.946 29.404,62.355 C29.81,61.883 30.644,61.534 31.585,61.447 C32.676,61.343 34.004,61.528 35.767,62.022 C35.877,62.054 35.986,62.085 36.096,62.117 C25.549,70.632 18.503,85.784 18.503,101.446 C18.503,117.609 26.033,131.196 38.646,137.794 L38.661,137.801 L38.67,137.806 C39.496,138.238 40.34,138.637 41.18,138.993 L41.252,139.022 C42.042,139.355 42.852,139.663 43.704,139.949 L43.861,140.003 C44.679,140.273 45.532,140.519 46.388,140.731 L46.762,140.819 C47.61,141.021 48.406,141.182 49.142,141.302 L49.378,141.344 C50.182,141.472 51.015,141.572 51.9,141.647 C52.099,141.665 52.299,141.68 52.492,141.693 C53.476,141.762 54.303,141.795 55.095,141.795 C75.955,141.795 91.686,124.449 91.686,101.446 C91.686,100.737 91.671,100.031 91.643,99.329 C91.636,99.161 91.626,98.994 91.615,98.826 L91.603,98.625 C91.578,98.156 91.553,97.688 91.516,97.22 C91.499,97.016 91.479,96.814 91.458,96.611 L91.435,96.371 C91.396,95.958 91.356,95.544 91.308,95.138 C91.28,94.896 91.247,94.657 91.214,94.416 L91.188,94.228 C91.135,93.838 91.081,93.449 91.02,93.061 C90.978,92.793 90.932,92.529 90.885,92.263 L90.863,92.133 C90.797,91.759 90.73,91.385 90.657,91.015 C90.595,90.697 90.528,90.381 90.46,90.067 C90.382,89.706 90.303,89.347 90.219,88.995 C90.143,88.672 90.064,88.351 89.984,88.035 C89.897,87.693 89.805,87.351 89.71,87.002 C89.62,86.679 89.529,86.356 89.434,86.031 C89.336,85.701 89.234,85.373 89.133,85.055 C89.029,84.723 88.923,84.393 88.812,84.06 C88.707,83.751 88.599,83.446 88.493,83.15 C88.372,82.809 88.251,82.47 88.123,82.132 C88.037,81.906 87.948,81.683 87.859,81.46 L87.759,81.21 C87.63,80.885 87.5,80.56 87.363,80.233 C87.292,80.065 87.218,79.9 87.145,79.735 L86.971,79.342 C86.831,79.022 86.689,78.702 86.543,78.389 L86.347,77.988 C85.324,75.85 84.16,73.793 82.875,71.853 L82.762,71.679 C82.466,71.237 82.162,70.806 81.811,70.316 L81.664,70.111 C81.358,69.692 81.045,69.282 80.72,68.866 L80.511,68.6 C80.192,68.197 79.867,67.806 79.525,67.403 L79.308,67.149 C78.969,66.76 78.625,66.378 78.283,66.011 L78.068,65.78 C77.705,65.396 77.337,65.022 76.949,64.641 L76.788,64.485 C76.394,64.103 75.995,63.731 75.607,63.385 L75.482,63.273 C74.742,62.619 73.989,62.002 73.224,61.423 C73.352,61.427 73.476,61.435 73.597,61.447 C74.536,61.534 75.371,61.883 75.777,62.355 C77.143,63.946 79.42,64.403 81.294,63.458 C83.168,62.514 84.157,60.413 83.69,58.368 C82.918,54.985 80.656,52.016 77.609,50.074 C78.397,49.778 79.14,49.573 79.866,49.445 C81.78,49.108 83.576,49.383 84.789,50.201 C86.528,51.376 88.844,51.214 90.402,49.805 C91.96,48.398 92.357,46.111 91.365,44.261 C89.197,40.219 85.22,37.244 80.598,35.89 C81.886,34.931 83.12,34.198 84.369,33.638 C87.208,32.364 90.159,32.113 92.463,32.946 C94.436,33.658 96.642,32.936 97.81,31.191 C98.977,29.446 98.803,27.131 97.389,25.58" id="Fill-173" fill="#FFFFFF"></path>
                <path d="M53.591,4.672 C56.289,14.017 57.753,23.672 58.887,33.332 C59.448,38.107 59.922,43.01 58.738,47.669 C58.114,50.124 53.579,59.614 49.742,57.843 C47.022,56.588 46.732,42.912 46.601,40.194 C46.013,28.023 48.378,15.696 53.591,4.672" id="Fill-174" fill="#66B544"></path>
                <path d="M45.178,55.299 C41.961,53.171 38.068,51.82 34.249,52.357 C30.429,52.894 26.798,55.622 25.941,59.382 C27.226,57.884 29.193,57.086 31.158,56.902 C33.124,56.718 35.101,57.095 37.002,57.629 C41.448,58.878 45.646,61.004 49.284,63.85 C50.098,64.486 50.973,65.193 52.006,65.205 C55.391,65.245 52.501,61.863 51.664,60.988 C49.674,58.907 47.588,56.894 45.178,55.299" id="Fill-175" fill="#70B843"></path>
                <path d="M46.381,48.105 C42.691,43.882 37.754,40.488 32.192,39.769 C26.63,39.051 20.488,41.476 17.838,46.418 C20.217,44.813 23.282,44.451 26.108,44.951 C28.935,45.45 31.562,46.74 34.021,48.221 C39.773,51.685 44.84,56.284 48.844,61.674 C49.74,62.88 50.694,64.207 52.138,64.622 C56.869,65.982 54.12,60.129 53.283,58.58 C51.294,54.895 49.146,51.269 46.381,48.105" id="Fill-176" fill="#66B544"></path>
                <path d="M48.634,40.478 C45.133,33.613 39.693,27.433 32.523,24.61 C25.352,21.786 16.355,22.957 11.165,28.654 C14.874,27.313 19.079,27.859 22.678,29.473 C26.277,31.087 29.345,33.688 32.124,36.486 C38.627,43.032 43.836,50.859 47.363,59.386 C48.152,61.293 48.979,63.382 50.763,64.419 C56.611,67.819 54.911,59.096 54.317,56.752 C52.902,51.175 51.257,45.622 48.634,40.478" id="Fill-177" fill="#70B843"></path>
                <path d="M60.002,55.299 C63.219,53.171 67.112,51.82 70.932,52.357 C74.751,52.894 78.382,55.622 79.24,59.382 C77.954,57.884 75.987,57.086 74.022,56.902 C72.056,56.718 70.079,57.095 68.178,57.629 C63.732,58.878 59.534,61.004 55.896,63.85 C55.082,64.486 54.207,65.193 53.174,65.205 C49.789,65.244 52.679,61.863 53.516,60.988 C55.506,58.907 57.592,56.894 60.002,55.299" id="Fill-178" fill="#70B843"></path>
                <path d="M58.799,48.105 C62.489,43.882 67.426,40.488 72.989,39.769 C78.55,39.051 84.692,41.476 87.343,46.418 C84.963,44.813 81.898,44.451 79.072,44.951 C76.245,45.45 73.618,46.74 71.159,48.221 C65.407,51.685 60.34,56.284 56.336,61.674 C55.44,62.88 54.486,64.207 53.042,64.622 C48.311,65.982 51.061,60.129 51.897,58.58 C53.886,54.895 56.034,51.269 58.799,48.105" id="Fill-179" fill="#66B544"></path>
                <path d="M56.546,40.478 C60.047,33.613 65.487,27.433 72.657,24.61 C79.828,21.786 88.825,22.957 94.015,28.654 C90.306,27.313 86.101,27.859 82.502,29.473 C78.903,31.087 75.835,33.688 73.056,36.486 C66.553,43.032 61.344,50.859 57.817,59.386 C57.028,61.293 56.201,63.382 54.417,64.419 C48.569,67.819 50.269,59.096 50.864,56.752 C52.278,51.175 53.924,45.622 56.546,40.478" id="Fill-180" fill="#70B843"></path>
                <path d="M87.122,101.446 C87.122,122.889 72.783,137.231 55.095,137.231 C37.406,137.231 23.067,122.889 23.067,101.446 C23.067,80.002 37.406,59.577 55.095,59.577 C72.783,59.577 87.122,80.002 87.122,101.446" id="Fill-181" fill="#F7D03A"></path>
                <path d="M27.427,107.412 C27.427,107.412 28.001,107.641 28.983,108.08 C29.476,108.294 30.069,108.57 30.736,108.917 C31.411,109.252 32.168,109.639 32.964,110.106 C33.776,110.551 34.637,111.064 35.528,111.638 C36.43,112.198 37.355,112.828 38.299,113.497 C39.225,114.19 40.214,114.87 41.145,115.653 C42.098,116.409 43.025,117.226 43.966,118.028 C44.868,118.872 45.788,119.699 46.633,120.575 C47.507,121.42 48.291,122.328 49.079,123.175 C49.845,124.043 50.573,124.893 51.224,125.731 C51.89,126.556 52.493,127.356 53.022,128.116 C53.572,128.859 54.037,129.569 54.44,130.203 C54.855,130.828 55.194,131.389 55.461,131.858 C56.003,132.79 56.291,133.335 56.291,133.335 C56.291,133.335 55.85,132.899 55.119,132.114 C54.384,131.339 53.333,130.232 52.073,128.903 C51.438,128.25 50.751,127.542 50.024,126.794 C49.304,126.041 48.497,125.293 47.71,124.479 C46.083,122.897 44.32,121.247 42.532,119.624 C41.629,118.823 40.74,118.005 39.823,117.248 C38.919,116.475 38.026,115.718 37.153,114.994 C36.258,114.299 35.43,113.574 34.604,112.941 C33.782,112.298 33.004,111.69 32.287,111.129 C30.831,110.019 29.618,109.094 28.768,108.446 C27.907,107.802 27.427,107.412 27.427,107.412" id="Fill-182" fill="#E9C539"></path>
                <path d="M29.896,94.214 C29.896,94.214 30.625,94.427 31.886,94.833 C32.519,95.027 33.277,95.298 34.138,95.648 C34.571,95.817 35.032,95.998 35.518,96.189 C35.999,96.389 36.489,96.629 37.01,96.864 C37.527,97.107 38.076,97.343 38.626,97.619 C39.172,97.907 39.735,98.204 40.315,98.51 C41.48,99.114 42.659,99.84 43.878,100.591 C45.063,101.393 46.328,102.171 47.512,103.102 C48.733,103.985 49.897,104.978 51.086,105.94 C52.212,106.976 53.362,107.986 54.411,109.066 C55.506,110.1 56.457,111.242 57.422,112.299 C58.342,113.397 59.232,114.457 59.996,115.524 C60.383,116.053 60.759,116.568 61.122,117.066 C61.475,117.571 61.787,118.08 62.102,118.556 C62.41,119.038 62.718,119.489 62.986,119.935 C63.244,120.387 63.488,120.816 63.718,121.219 C64.186,122.018 64.565,122.731 64.85,123.333 C65.436,124.527 65.75,125.215 65.75,125.215 C65.75,125.215 65.278,124.616 64.487,123.558 C64.105,123.021 63.601,122.397 63.035,121.676 C62.476,120.951 61.832,120.145 61.108,119.285 C60.405,118.41 59.595,117.503 58.753,116.535 C58.34,116.045 57.89,115.564 57.424,115.078 C56.966,114.586 56.499,114.083 56.024,113.571 C55.042,112.578 54.028,111.554 52.963,110.55 C51.926,109.515 50.788,108.556 49.683,107.563 C48.542,106.611 47.428,105.625 46.255,104.748 C45.11,103.836 43.948,102.983 42.824,102.155 C42.249,101.758 41.684,101.368 41.131,100.986 C40.583,100.595 40.041,100.219 39.496,99.881 C38.417,99.188 37.404,98.516 36.435,97.948 C35.478,97.356 34.591,96.836 33.794,96.389 C33.002,95.935 32.31,95.525 31.72,95.224 C30.554,94.592 29.896,94.214 29.896,94.214" id="Fill-183" fill="#E9C539"></path>
                <path d="M34.204,78.788 C34.204,78.788 35.001,79.017 36.382,79.45 C37.076,79.657 37.906,79.948 38.849,80.322 C39.324,80.504 39.829,80.697 40.361,80.901 C40.888,81.116 41.426,81.373 41.997,81.625 C42.564,81.885 43.166,82.137 43.77,82.434 C44.368,82.743 44.987,83.063 45.623,83.391 C46.264,83.712 46.905,84.074 47.555,84.453 C48.208,84.826 48.872,85.216 49.536,85.628 C50.84,86.492 52.228,87.33 53.531,88.334 C54.875,89.284 56.156,90.358 57.465,91.397 C58.705,92.517 59.973,93.606 61.13,94.776 C62.336,95.895 63.388,97.13 64.453,98.274 C65.468,99.465 66.454,100.612 67.3,101.769 C67.728,102.343 68.145,102.901 68.547,103.441 C68.939,103.988 69.286,104.541 69.635,105.058 C69.977,105.58 70.318,106.07 70.617,106.554 C70.904,107.044 71.176,107.51 71.432,107.948 C71.953,108.815 72.377,109.588 72.696,110.242 C73.351,111.538 73.705,112.285 73.705,112.285 C73.705,112.285 73.194,111.628 72.334,110.469 C71.918,109.88 71.37,109.196 70.751,108.408 C70.142,107.613 69.438,106.732 68.645,105.792 C67.876,104.835 66.989,103.844 66.064,102.789 C65.61,102.254 65.116,101.729 64.604,101.199 C64.101,100.663 63.587,100.115 63.064,99.557 C61.983,98.477 60.87,97.36 59.694,96.272 C58.551,95.148 57.296,94.109 56.077,93.034 C54.818,92.004 53.587,90.938 52.292,89.993 C51.028,89.008 49.742,88.095 48.5,87.204 C47.865,86.779 47.241,86.361 46.629,85.952 C46.023,85.534 45.424,85.132 44.822,84.772 C43.63,84.033 42.508,83.318 41.437,82.717 C40.906,82.407 40.396,82.111 39.912,81.829 C39.42,81.561 38.954,81.307 38.516,81.069 C37.64,80.589 36.874,80.158 36.221,79.844 C34.933,79.183 34.204,78.788 34.204,78.788" id="Fill-184" fill="#E9C539"></path>
                <path d="M42.08,69.378 C42.08,69.378 42.835,69.467 44.149,69.657 C44.808,69.741 45.601,69.887 46.509,70.098 C46.966,70.198 47.451,70.304 47.963,70.416 C48.471,70.54 48.993,70.706 49.546,70.861 C50.094,71.025 50.676,71.173 51.262,71.369 C51.845,71.578 52.447,71.793 53.067,72.015 C53.691,72.227 54.317,72.483 54.953,72.755 C55.592,73.02 56.242,73.299 56.895,73.602 C58.177,74.252 59.538,74.863 60.828,75.655 C62.153,76.386 63.422,77.254 64.718,78.082 C65.949,79.001 67.207,79.886 68.357,80.87 C69.555,81.795 70.604,82.858 71.663,83.829 C72.174,84.334 72.667,84.843 73.139,85.348 C73.618,85.848 74.077,86.344 74.495,86.854 C74.92,87.356 75.334,87.844 75.734,88.317 C76.124,88.797 76.467,89.289 76.813,89.746 C77.152,90.208 77.49,90.64 77.786,91.07 C78.069,91.509 78.338,91.925 78.59,92.316 C79.105,93.09 79.523,93.783 79.834,94.374 C80.477,95.542 80.823,96.216 80.823,96.216 C80.823,96.216 80.323,95.638 79.483,94.617 C79.078,94.096 78.54,93.498 77.934,92.81 C77.632,92.466 77.311,92.1 76.972,91.714 C76.621,91.34 76.252,90.947 75.868,90.536 C75.113,89.705 74.24,88.857 73.33,87.955 C72.884,87.494 72.397,87.05 71.893,86.604 C71.398,86.15 70.892,85.686 70.377,85.215 C69.311,84.313 68.216,83.378 67.057,82.484 C65.93,81.55 64.696,80.719 63.496,79.846 C62.257,79.027 61.044,78.165 59.774,77.438 C58.532,76.664 57.27,75.97 56.051,75.289 C55.429,74.972 54.818,74.661 54.219,74.356 C53.624,74.041 53.037,73.742 52.449,73.487 C51.283,72.953 50.184,72.432 49.139,72.019 C48.62,71.803 48.122,71.595 47.649,71.398 C47.17,71.218 46.716,71.046 46.289,70.885 C45.436,70.561 44.685,70.267 44.05,70.07 C42.793,69.642 42.08,69.378 42.08,69.378" id="Fill-185" fill="#E9C539"></path>
                <path d="M59.199,66.042 C59.199,66.042 59.505,66.081 60.022,66.191 C60.28,66.244 60.595,66.313 60.947,66.421 C61.304,66.52 61.706,66.636 62.126,66.797 C62.986,67.084 63.95,67.513 64.953,68.031 C65.449,68.3 65.962,68.58 66.46,68.901 C66.969,69.206 67.457,69.559 67.952,69.901 C68.429,70.269 68.915,70.625 69.36,71.017 C69.819,71.392 70.24,71.798 70.648,72.187 C71.447,72.984 72.15,73.771 72.684,74.504 C72.966,74.856 73.198,75.202 73.399,75.511 C73.607,75.813 73.77,76.092 73.9,76.324 C74.163,76.786 74.293,77.064 74.293,77.064 C74.293,77.064 74.023,76.91 73.588,76.615 C73.152,76.321 72.536,75.901 71.823,75.386 C70.383,74.367 68.541,72.989 66.686,71.635 C64.833,70.278 62.96,68.941 61.551,67.881 C60.841,67.357 60.263,66.905 59.843,66.576 C59.427,66.25 59.199,66.042 59.199,66.042" id="Fill-186" fill="#E9C539"></path>
                <path d="M80.823,107.412 C80.823,107.412 80.249,107.641 79.267,108.08 C78.775,108.294 78.182,108.57 77.515,108.917 C76.84,109.252 76.082,109.639 75.286,110.106 C74.475,110.551 73.614,111.064 72.723,111.638 C71.821,112.198 70.896,112.828 69.951,113.497 C69.026,114.19 68.037,114.87 67.106,115.653 C66.153,116.409 65.226,117.226 64.285,118.028 C63.382,118.872 62.463,119.699 61.618,120.575 C60.744,121.42 59.959,122.328 59.172,123.175 C58.406,124.043 57.678,124.893 57.027,125.731 C56.361,126.556 55.757,127.356 55.229,128.116 C54.679,128.859 54.214,129.569 53.811,130.203 C53.396,130.828 53.057,131.389 52.79,131.858 C52.247,132.79 51.96,133.335 51.96,133.335 C51.96,133.335 52.4,132.899 53.132,132.114 C53.867,131.339 54.917,130.232 56.178,128.903 C56.812,128.25 57.5,127.542 58.227,126.794 C58.947,126.041 59.754,125.293 60.541,124.479 C62.168,122.897 63.931,121.247 65.719,119.624 C66.622,118.823 67.511,118.005 68.428,117.248 C69.332,116.475 70.225,115.718 71.098,114.994 C71.992,114.299 72.821,113.574 73.647,112.941 C74.469,112.298 75.246,111.69 75.964,111.129 C77.42,110.019 78.633,109.094 79.482,108.446 C80.344,107.802 80.823,107.412 80.823,107.412" id="Fill-187" fill="#E9C539"></path>
                <path d="M78.355,94.214 C78.355,94.214 77.626,94.427 76.364,94.833 C75.732,95.027 74.973,95.298 74.113,95.648 C73.679,95.817 73.219,95.998 72.733,96.189 C72.252,96.389 71.762,96.629 71.241,96.864 C70.724,97.107 70.175,97.343 69.624,97.619 C69.079,97.907 68.516,98.204 67.936,98.51 C66.771,99.114 65.592,99.84 64.373,100.591 C63.187,101.393 61.923,102.171 60.739,103.102 C59.518,103.985 58.354,104.978 57.165,105.94 C56.039,106.976 54.889,107.986 53.839,109.066 C52.744,110.1 51.794,111.242 50.829,112.299 C49.909,113.397 49.019,114.457 48.255,115.524 C47.868,116.053 47.492,116.568 47.129,117.066 C46.775,117.571 46.463,118.08 46.149,118.556 C45.841,119.038 45.533,119.489 45.265,119.935 C45.007,120.387 44.763,120.816 44.533,121.219 C44.065,122.018 43.686,122.731 43.401,123.333 C42.815,124.527 42.501,125.215 42.501,125.215 C42.501,125.215 42.973,124.616 43.763,123.558 C44.146,123.021 44.65,122.397 45.216,121.676 C45.774,120.951 46.419,120.145 47.143,119.285 C47.846,118.41 48.656,117.503 49.498,116.535 C49.911,116.045 50.361,115.564 50.827,115.078 C51.285,114.586 51.752,114.083 52.227,113.571 C53.209,112.578 54.223,111.554 55.288,110.55 C56.325,109.515 57.462,108.556 58.568,107.563 C59.708,106.611 60.823,105.625 61.996,104.748 C63.141,103.836 64.303,102.983 65.427,102.155 C66.002,101.758 66.567,101.368 67.12,100.986 C67.668,100.595 68.21,100.219 68.754,99.881 C69.833,99.188 70.847,98.516 71.816,97.948 C72.773,97.356 73.659,96.836 74.456,96.389 C75.248,95.935 75.941,95.525 76.531,95.224 C77.697,94.592 78.355,94.214 78.355,94.214" id="Fill-188" fill="#E9C539"></path>
                <path d="M74.047,78.788 C74.047,78.788 73.25,79.017 71.869,79.45 C71.175,79.657 70.345,79.948 69.402,80.322 C68.927,80.504 68.422,80.697 67.89,80.901 C67.363,81.116 66.825,81.373 66.253,81.625 C65.687,81.885 65.085,82.137 64.481,82.434 C63.883,82.743 63.264,83.063 62.628,83.391 C61.986,83.712 61.346,84.074 60.696,84.453 C60.042,84.826 59.379,85.216 58.714,85.628 C57.411,86.492 56.023,87.33 54.719,88.334 C53.376,89.284 52.095,90.358 50.786,91.397 C49.546,92.517 48.278,93.606 47.121,94.776 C45.915,95.895 44.863,97.13 43.798,98.274 C42.783,99.465 41.797,100.612 40.95,101.769 C40.522,102.343 40.106,102.901 39.704,103.441 C39.312,103.988 38.965,104.541 38.616,105.058 C38.274,105.58 37.933,106.07 37.634,106.554 C37.347,107.044 37.075,107.51 36.819,107.948 C36.298,108.815 35.874,109.588 35.555,110.242 C34.9,111.538 34.546,112.285 34.546,112.285 C34.546,112.285 35.057,111.628 35.917,110.469 C36.333,109.88 36.881,109.196 37.499,108.408 C38.109,107.613 38.813,106.732 39.606,105.792 C40.375,104.835 41.262,103.844 42.187,102.789 C42.641,102.254 43.134,101.729 43.647,101.199 C44.15,100.663 44.664,100.115 45.186,99.557 C46.268,98.477 47.381,97.36 48.557,96.272 C49.7,95.148 50.954,94.109 52.174,93.034 C53.433,92.004 54.664,90.938 55.959,89.993 C57.223,89.008 58.508,88.095 59.751,87.204 C60.386,86.779 61.01,86.361 61.622,85.952 C62.228,85.534 62.827,85.132 63.429,84.772 C64.621,84.033 65.743,83.318 66.814,82.717 C67.345,82.407 67.855,82.111 68.339,81.829 C68.831,81.561 69.297,81.307 69.734,81.069 C70.611,80.589 71.377,80.158 72.029,79.844 C73.318,79.183 74.047,78.788 74.047,78.788" id="Fill-189" fill="#E9C539"></path>
                <path d="M66.171,69.378 C66.171,69.378 65.416,69.467 64.102,69.657 C63.443,69.741 62.65,69.887 61.742,70.098 C61.285,70.198 60.8,70.304 60.288,70.416 C59.78,70.54 59.258,70.706 58.705,70.861 C58.156,71.025 57.575,71.173 56.988,71.369 C56.406,71.578 55.803,71.793 55.184,72.014 C54.559,72.227 53.934,72.483 53.298,72.755 C52.659,73.02 52.008,73.3 51.356,73.602 C50.074,74.252 48.712,74.863 47.423,75.655 C46.098,76.386 44.828,77.254 43.533,78.082 C42.302,79.001 41.044,79.886 39.894,80.87 C38.696,81.795 37.647,82.858 36.588,83.829 C36.076,84.334 35.584,84.843 35.111,85.348 C34.633,85.848 34.174,86.344 33.756,86.854 C33.33,87.356 32.917,87.844 32.517,88.317 C32.127,88.797 31.784,89.289 31.438,89.746 C31.099,90.208 30.761,90.64 30.465,91.07 C30.182,91.509 29.913,91.925 29.66,92.316 C29.146,93.09 28.728,93.783 28.416,94.374 C27.774,95.542 27.427,96.216 27.427,96.216 C27.427,96.216 27.928,95.638 28.768,94.617 C29.173,94.096 29.711,93.498 30.317,92.81 C30.619,92.466 30.94,92.1 31.279,91.714 C31.629,91.34 31.998,90.947 32.383,90.536 C33.138,89.704 34.011,88.858 34.921,87.954 C35.367,87.494 35.853,87.05 36.358,86.604 C36.853,86.15 37.359,85.686 37.874,85.215 C38.94,84.313 40.035,83.378 41.194,82.484 C42.321,81.55 43.555,80.719 44.755,79.846 C45.993,79.027 47.206,78.165 48.477,77.438 C49.719,76.664 50.98,75.97 52.199,75.289 C52.822,74.972 53.433,74.661 54.032,74.356 C54.627,74.041 55.214,73.742 55.802,73.487 C56.968,72.953 58.067,72.432 59.111,72.019 C59.631,71.803 60.128,71.595 60.602,71.398 C61.08,71.218 61.535,71.047 61.961,70.885 C62.815,70.561 63.566,70.267 64.201,70.07 C65.458,69.642 66.171,69.378 66.171,69.378" id="Fill-190" fill="#E9C539"></path>
                <path d="M49.051,66.042 C49.051,66.042 48.745,66.081 48.229,66.191 C47.971,66.244 47.656,66.313 47.304,66.421 C46.947,66.52 46.544,66.636 46.125,66.797 C45.264,67.084 44.301,67.513 43.298,68.031 C42.802,68.3 42.289,68.58 41.791,68.901 C41.282,69.206 40.794,69.559 40.299,69.901 C39.822,70.268 39.336,70.625 38.89,71.017 C38.432,71.392 38.011,71.798 37.603,72.187 C36.803,72.984 36.101,73.771 35.567,74.504 C35.285,74.856 35.053,75.202 34.852,75.511 C34.644,75.813 34.481,76.092 34.35,76.324 C34.087,76.786 33.958,77.064 33.958,77.064 C33.958,77.064 34.228,76.91 34.663,76.615 C35.099,76.321 35.715,75.901 36.428,75.386 C37.868,74.367 39.709,72.989 41.565,71.635 C43.418,70.278 45.291,68.941 46.7,67.881 C47.41,67.357 47.988,66.905 48.408,66.576 C48.824,66.25 49.051,66.042 49.051,66.042" id="Fill-191" fill="#E9C539"></path>
                <path d="M55.095,137.231 C55.079,137.231 55.063,137.231 55.048,137.231 C55.063,137.231 55.079,137.231 55.095,137.231 C72.783,137.231 87.122,122.889 87.122,101.446 C87.122,122.889 72.783,137.231 55.095,137.231 M55.032,137.231 C55.022,137.231 55.011,137.231 55.001,137.231 C55.012,137.231 55.021,137.231 55.032,137.231 M54.982,137.231 C54.972,137.231 54.962,137.231 54.952,137.231 C54.962,137.231 54.973,137.231 54.982,137.231 M54.936,137.23 C54.921,137.23 54.907,137.23 54.892,137.23 C54.906,137.23 54.922,137.23 54.936,137.23 M54.87,137.23 C54.863,137.23 54.854,137.23 54.847,137.23 C54.855,137.23 54.861,137.23 54.87,137.23 M54.821,137.23 C54.815,137.23 54.809,137.23 54.803,137.23 C54.809,137.23 54.815,137.23 54.821,137.23 M54.774,137.229 C54.772,137.229 54.77,137.229 54.767,137.229 C54.769,137.229 54.772,137.229 54.774,137.229 M87.122,101.446 C87.122,101.426 87.122,101.405 87.122,101.385 C87.122,101.406 87.122,101.425 87.122,101.446 M87.122,101.365 C87.122,101.351 87.122,101.339 87.122,101.324 C87.122,101.338 87.122,101.352 87.122,101.365 M87.122,101.301 C87.122,101.289 87.122,101.275 87.122,101.264 C87.122,101.276 87.122,101.289 87.122,101.301 M87.122,101.239 C87.122,101.228 87.122,101.215 87.122,101.203 C87.122,101.215 87.122,101.227 87.122,101.239 M87.121,101.176 C87.121,101.166 87.121,101.153 87.121,101.143 C87.121,101.154 87.121,101.165 87.121,101.176 M87.121,101.115 C87.121,101.103 87.121,101.094 87.121,101.082 C87.121,101.093 87.121,101.104 87.121,101.115 M87.121,101.054 C87.121,101.044 87.12,101.032 87.12,101.021 C87.12,101.032 87.12,101.043 87.121,101.054 M87.12,100.994 C87.12,100.983 87.12,100.972 87.12,100.961 C87.12,100.972 87.12,100.983 87.12,100.994 M87.119,100.932 C87.119,100.922 87.119,100.912 87.119,100.901 C87.119,100.912 87.119,100.921 87.119,100.932 M87.119,100.872 C87.119,100.861 87.119,100.851 87.118,100.841 C87.118,100.85 87.119,100.862 87.119,100.872 M87.118,100.811 C87.118,100.801 87.118,100.79 87.118,100.78 C87.118,100.789 87.118,100.802 87.118,100.811 M87.117,100.751 C87.117,100.741 87.117,100.732 87.117,100.722 C87.117,100.732 87.117,100.741 87.117,100.751 M87.115,100.597 C87.115,100.588 87.114,100.581 87.114,100.572 C87.114,100.579 87.115,100.59 87.115,100.597 M87.114,100.537 C87.113,100.529 87.113,100.519 87.113,100.512 C87.113,100.52 87.113,100.528 87.114,100.537 M87.112,100.475 C87.112,100.467 87.112,100.46 87.112,100.452 C87.112,100.46 87.112,100.468 87.112,100.475 M87.111,100.415 C87.111,100.407 87.111,100.4 87.111,100.392 C87.111,100.399 87.111,100.408 87.111,100.415 M87.11,100.355 C87.11,100.347 87.11,100.34 87.109,100.332 C87.11,100.34 87.11,100.347 87.11,100.355 M87.108,100.296 C87.108,100.288 87.108,100.28 87.108,100.272 C87.108,100.279 87.108,100.288 87.108,100.296 M87.107,100.234 C87.107,100.228 87.107,100.221 87.106,100.214 C87.107,100.22 87.107,100.228 87.107,100.234 M87.105,100.174 C87.105,100.167 87.105,100.161 87.105,100.155 C87.105,100.161 87.105,100.168 87.105,100.174 M87.104,100.114 C87.104,100.109 87.103,100.102 87.103,100.097 C87.103,100.101 87.104,100.109 87.104,100.114 M87.102,100.054 C87.102,100.05 87.102,100.045 87.102,100.041 C87.102,100.046 87.102,100.049 87.102,100.054 M87.086,99.589 L87.086,99.586 L87.086,99.589" id="Fill-192" fill="#EEEDE8"></path>
                <path d="M55.095,137.231 C55.079,137.231 55.063,137.231 55.048,137.231 C55.042,137.231 55.038,137.231 55.032,137.231 C55.021,137.231 55.012,137.231 55.001,137.231 C54.995,137.231 54.989,137.231 54.982,137.231 C54.973,137.231 54.962,137.231 54.952,137.231 C54.946,137.23 54.941,137.23 54.936,137.23 C54.922,137.23 54.906,137.23 54.892,137.23 C54.885,137.23 54.878,137.23 54.87,137.23 C54.861,137.23 54.855,137.23 54.847,137.23 C54.838,137.23 54.83,137.23 54.821,137.23 C54.815,137.23 54.809,137.23 54.803,137.23 C54.793,137.229 54.784,137.229 54.774,137.229 C54.772,137.229 54.769,137.229 54.767,137.229 C48.027,137.161 41.791,135 36.66,131.165 C38.798,131.623 41.014,131.863 43.285,131.863 C46.793,131.863 50.17,131.299 53.329,130.227 C53.423,130.326 53.515,130.423 53.605,130.518 C53.282,131.017 53.012,131.469 52.79,131.858 C52.247,132.79 51.96,133.335 51.96,133.335 C51.96,133.335 52.4,132.899 53.132,132.114 C53.417,131.813 53.751,131.462 54.125,131.067 C54.5,131.462 54.833,131.813 55.119,132.114 C55.85,132.899 56.291,133.335 56.291,133.335 C56.291,133.335 56.003,132.79 55.461,131.858 C55.239,131.469 54.969,131.017 54.646,130.518 C55.019,130.124 55.425,129.697 55.858,129.24 C59.016,127.842 61.913,125.91 64.452,123.509 C64.464,123.525 64.476,123.542 64.487,123.558 C65.278,124.616 65.75,125.215 65.75,125.215 C65.75,125.215 65.436,124.527 64.85,123.333 C64.828,123.286 64.806,123.239 64.783,123.192 C67.09,120.945 69.091,118.303 70.711,115.316 C70.84,115.208 70.969,115.101 71.098,114.994 C71.992,114.299 72.821,113.574 73.647,112.941 C74.469,112.298 75.246,111.69 75.964,111.129 C77.42,110.019 78.633,109.094 79.482,108.446 C80.344,107.802 80.823,107.412 80.823,107.412 C80.823,107.412 80.249,107.641 79.267,108.08 C78.775,108.294 78.182,108.57 77.515,108.917 C76.84,109.252 76.082,109.639 75.286,110.106 C74.631,110.466 73.943,110.87 73.232,111.314 C73.124,111.096 72.998,110.842 72.855,110.557 C74.327,106.539 75.187,102.052 75.3,97.184 C75.427,97.067 75.496,96.942 75.496,96.811 C75.496,96.685 75.431,96.563 75.312,96.449 C75.313,96.326 75.313,96.202 75.313,96.078 C75.313,96.018 75.313,95.956 75.313,95.896 C75.758,95.64 76.164,95.411 76.531,95.224 C77.697,94.592 78.355,94.214 78.355,94.214 C78.355,94.214 77.626,94.427 76.364,94.833 C76.043,94.932 75.688,95.05 75.305,95.189 C75.27,93.272 75.12,91.365 74.865,89.482 C75.216,89.838 75.552,90.189 75.868,90.536 C76.252,90.947 76.621,91.34 76.972,91.714 C77.311,92.1 77.632,92.466 77.934,92.81 C78.54,93.498 79.078,94.096 79.483,94.617 C80.323,95.638 80.823,96.216 80.823,96.216 C80.823,96.216 80.477,95.542 79.834,94.374 C79.523,93.783 79.105,93.09 78.59,92.316 C78.338,91.925 78.069,91.509 77.786,91.07 C77.49,90.64 77.152,90.208 76.813,89.746 C76.467,89.289 76.124,88.797 75.734,88.317 C75.334,87.844 74.92,87.356 74.495,86.854 C74.47,86.824 74.446,86.794 74.421,86.764 C73.95,84.312 73.302,81.916 72.494,79.605 C73.492,79.089 74.047,78.788 74.047,78.788 C74.047,78.788 73.446,78.961 72.383,79.29 C71.765,77.561 71.058,75.882 70.268,74.265 C70.821,74.669 71.344,75.048 71.823,75.386 C72.536,75.901 73.152,76.321 73.588,76.615 C74.023,76.91 74.293,77.064 74.293,77.064 C74.293,77.064 74.163,76.786 73.9,76.324 C73.77,76.092 73.607,75.813 73.399,75.511 C73.198,75.202 72.966,74.856 72.684,74.504 C72.15,73.771 71.447,72.984 70.648,72.187 C70.24,71.798 69.819,71.392 69.36,71.017 C68.915,70.625 68.429,70.269 67.952,69.901 C67.886,69.856 67.82,69.81 67.755,69.764 C65.286,65.876 62.305,62.511 58.95,59.916 C74.308,62.524 86.326,80.379 87.084,99.529 C87.085,99.548 87.086,99.567 87.086,99.586 L87.086,99.589 C87.092,99.74 87.097,99.89 87.102,100.041 C87.102,100.045 87.102,100.05 87.102,100.054 C87.103,100.068 87.103,100.082 87.103,100.097 C87.103,100.102 87.104,100.109 87.104,100.114 C87.104,100.129 87.105,100.14 87.105,100.155 C87.105,100.161 87.105,100.167 87.105,100.174 C87.106,100.187 87.106,100.201 87.106,100.214 C87.107,100.221 87.107,100.228 87.107,100.234 C87.107,100.247 87.108,100.259 87.108,100.272 C87.108,100.28 87.108,100.288 87.108,100.296 C87.109,100.308 87.109,100.32 87.109,100.332 C87.11,100.34 87.11,100.347 87.11,100.355 C87.11,100.367 87.11,100.38 87.111,100.392 C87.111,100.4 87.111,100.407 87.111,100.415 C87.111,100.428 87.112,100.439 87.112,100.452 C87.112,100.46 87.112,100.467 87.112,100.475 C87.113,100.487 87.113,100.499 87.113,100.512 C87.113,100.519 87.113,100.529 87.114,100.537 C87.114,100.549 87.114,100.56 87.114,100.572 C87.114,100.581 87.115,100.588 87.115,100.597 C87.115,100.639 87.116,100.68 87.117,100.722 C87.117,100.732 87.117,100.741 87.117,100.751 C87.117,100.76 87.117,100.77 87.118,100.78 C87.118,100.79 87.118,100.801 87.118,100.811 C87.118,100.822 87.118,100.83 87.118,100.841 C87.119,100.851 87.119,100.861 87.119,100.872 C87.119,100.881 87.119,100.892 87.119,100.901 C87.119,100.912 87.119,100.922 87.119,100.932 C87.12,100.942 87.12,100.952 87.12,100.961 C87.12,100.972 87.12,100.983 87.12,100.994 C87.12,101.002 87.12,101.013 87.12,101.021 C87.12,101.032 87.121,101.044 87.121,101.054 C87.121,101.064 87.121,101.073 87.121,101.082 C87.121,101.094 87.121,101.103 87.121,101.115 C87.121,101.125 87.121,101.133 87.121,101.143 C87.121,101.153 87.121,101.166 87.121,101.176 C87.121,101.185 87.122,101.195 87.122,101.203 C87.122,101.215 87.122,101.228 87.122,101.239 C87.122,101.248 87.122,101.255 87.122,101.264 C87.122,101.275 87.122,101.289 87.122,101.301 C87.122,101.31 87.122,101.316 87.122,101.324 C87.122,101.339 87.122,101.351 87.122,101.365 C87.122,101.371 87.122,101.379 87.122,101.385 C87.122,101.405 87.122,101.426 87.122,101.446 C87.122,122.889 72.783,137.231 55.095,137.231" id="Fill-193" fill="#E7C339"></path>
                <path d="M56.291,133.335 C56.291,133.335 55.85,132.899 55.119,132.114 C54.833,131.813 54.5,131.462 54.125,131.067 C54.291,130.892 54.465,130.709 54.646,130.518 C54.969,131.017 55.239,131.469 55.461,131.858 C56.003,132.79 56.291,133.335 56.291,133.335 M53.605,130.518 C53.515,130.423 53.423,130.326 53.329,130.227 C53.531,130.159 53.73,130.089 53.93,130.016 C53.89,130.079 53.85,130.142 53.811,130.203 C53.74,130.31 53.671,130.415 53.605,130.518" id="Fill-194" fill="#DABB38"></path>
                <path d="M65.75,125.215 C65.75,125.215 65.278,124.616 64.487,123.558 C64.476,123.542 64.464,123.525 64.452,123.509 C64.562,123.404 64.674,123.298 64.783,123.192 C64.806,123.239 64.828,123.286 64.85,123.333 C65.436,124.527 65.75,125.215 65.75,125.215" id="Fill-195" fill="#DABB38"></path>
                <path d="M72.342,111.878 C72.466,111.576 72.586,111.271 72.703,110.964 C72.83,111.134 72.947,111.289 73.051,111.428 C72.942,111.497 72.833,111.567 72.723,111.638 C72.596,111.717 72.469,111.797 72.342,111.878" id="Fill-196" fill="#E7C339"></path>
                <path d="M73.051,111.428 C72.947,111.289 72.83,111.134 72.703,110.964 C72.754,110.829 72.805,110.694 72.855,110.557 C72.998,110.842 73.124,111.096 73.232,111.314 C73.172,111.352 73.112,111.39 73.051,111.428" id="Fill-197" fill="#DABB38"></path>
                <path d="M80.823,96.216 C80.823,96.216 80.323,95.638 79.483,94.617 C79.078,94.096 78.54,93.498 77.934,92.81 C77.632,92.466 77.311,92.1 76.972,91.714 C76.621,91.34 76.252,90.947 75.868,90.536 C75.552,90.189 75.216,89.838 74.865,89.482 C74.742,88.57 74.593,87.664 74.421,86.764 C74.446,86.794 74.47,86.824 74.495,86.854 C74.92,87.356 75.334,87.844 75.734,88.317 C76.124,88.797 76.467,89.289 76.813,89.746 C77.152,90.208 77.49,90.64 77.786,91.07 C78.069,91.509 78.338,91.925 78.59,92.316 C79.105,93.09 79.523,93.783 79.834,94.374 C80.477,95.542 80.823,96.216 80.823,96.216" id="Fill-198" fill="#DABB38"></path>
                <path d="M74.293,77.064 C74.293,77.064 74.023,76.91 73.588,76.615 C73.152,76.321 72.536,75.901 71.823,75.386 C71.344,75.048 70.821,74.669 70.268,74.265 C69.505,72.702 68.665,71.197 67.755,69.764 C67.82,69.81 67.886,69.856 67.952,69.901 C68.429,70.269 68.915,70.625 69.36,71.017 C69.819,71.392 70.24,71.798 70.648,72.187 C71.447,72.984 72.15,73.771 72.684,74.504 C72.966,74.856 73.198,75.202 73.399,75.511 C73.607,75.813 73.77,76.092 73.9,76.324 C74.163,76.786 74.293,77.064 74.293,77.064" id="Fill-199" fill="#DABB38"></path>
                <path d="M51.96,133.335 C51.96,133.335 52.247,132.79 52.79,131.858 C53.012,131.469 53.282,131.017 53.605,130.518 C53.671,130.415 53.74,130.31 53.811,130.203 C53.85,130.142 53.89,130.079 53.93,130.016 C54.582,129.779 55.226,129.52 55.858,129.24 C55.425,129.697 55.019,130.124 54.646,130.518 C54.465,130.709 54.291,130.892 54.125,131.067 C53.751,131.462 53.417,131.813 53.132,132.114 C52.4,132.899 51.96,133.335 51.96,133.335 M70.711,115.316 C71.308,114.215 71.852,113.069 72.342,111.878 C72.469,111.797 72.596,111.717 72.723,111.638 C72.833,111.567 72.942,111.497 73.051,111.428 C73.112,111.39 73.172,111.352 73.232,111.314 C73.943,110.87 74.631,110.466 75.286,110.106 C76.082,109.639 76.84,109.252 77.515,108.917 C78.182,108.57 78.775,108.294 79.267,108.08 C80.249,107.641 80.823,107.412 80.823,107.412 C80.823,107.412 80.344,107.802 79.482,108.446 C78.633,109.094 77.42,110.019 75.964,111.129 C75.246,111.69 74.469,112.298 73.647,112.941 C72.821,113.574 71.992,114.299 71.098,114.994 C70.969,115.101 70.84,115.208 70.711,115.316" id="Fill-200" fill="#DABB38"></path>
                <path d="M75.313,95.896 C75.312,95.66 75.309,95.425 75.305,95.189 C75.688,95.05 76.043,94.932 76.364,94.833 C77.626,94.427 78.355,94.214 78.355,94.214 C78.355,94.214 77.697,94.592 76.531,95.224 C76.164,95.411 75.758,95.64 75.313,95.896" id="Fill-201" fill="#DABB38"></path>
                <path d="M72.494,79.605 C72.457,79.5 72.42,79.394 72.383,79.29 C73.446,78.961 74.047,78.788 74.047,78.788 C74.047,78.788 73.492,79.089 72.494,79.605" id="Fill-202" fill="#DABB38"></path>
                <path d="M54.203,114.113 C46.201,114.113 38.826,109.754 34.956,102.738 C34.65,102.182 34.852,101.481 35.408,101.174 C35.967,100.868 36.665,101.07 36.972,101.626 C40.437,107.909 47.04,111.811 54.203,111.811 C61.367,111.811 67.97,107.909 71.434,101.626 C71.742,101.07 72.441,100.868 72.998,101.174 C73.555,101.481 73.757,102.182 73.45,102.738 C69.581,109.754 62.206,114.113 54.203,114.113" id="Fill-203" fill="#89792D"></path>
                <path d="M36.458,97.962 C34.49,97.946 32.911,97.437 32.911,96.811 C32.911,96.587 33.114,96.378 33.466,96.201 C33.574,96.262 33.683,96.325 33.794,96.389 C34.591,96.836 35.478,97.356 36.435,97.948 C36.443,97.953 36.451,97.957 36.458,97.962 M38.81,97.716 C38.748,97.684 38.687,97.651 38.626,97.619 C38.076,97.343 37.527,97.107 37.01,96.864 C36.489,96.629 35.999,96.389 35.518,96.189 C35.208,96.067 34.908,95.95 34.619,95.836 C35.18,95.725 35.844,95.66 36.556,95.66 C38.569,95.66 40.2,96.176 40.2,96.811 C40.2,97.178 39.656,97.505 38.81,97.716" id="Fill-204" fill="#E7C339"></path>
                <path d="M36.556,97.962 C36.523,97.962 36.491,97.962 36.458,97.962 C36.451,97.957 36.443,97.953 36.435,97.948 C35.478,97.356 34.591,96.836 33.794,96.389 C33.683,96.325 33.574,96.262 33.466,96.201 C33.759,96.053 34.154,95.929 34.619,95.836 C34.908,95.95 35.208,96.067 35.518,96.189 C35.999,96.389 36.489,96.629 37.01,96.864 C37.527,97.107 38.076,97.343 38.626,97.619 C38.687,97.651 38.748,97.684 38.81,97.716 C38.189,97.87 37.407,97.962 36.556,97.962" id="Fill-205" fill="#DABB38"></path>
                <path d="M71.851,97.962 C71.831,97.962 71.812,97.962 71.792,97.962 C71.8,97.958 71.808,97.953 71.816,97.948 C72.773,97.356 73.659,96.836 74.456,96.389 C74.592,96.311 74.725,96.235 74.855,96.16 C75.048,96.248 75.203,96.345 75.312,96.449 C75.31,96.695 75.306,96.941 75.3,97.184 C74.81,97.637 73.451,97.962 71.851,97.962 M69.492,97.689 C68.706,97.478 68.206,97.163 68.206,96.811 C68.206,96.176 69.838,95.66 71.851,95.66 C72.519,95.66 73.145,95.717 73.683,95.816 C73.378,95.936 73.061,96.06 72.733,96.189 C72.252,96.389 71.762,96.629 71.241,96.864 C70.724,97.107 70.175,97.343 69.624,97.619 C69.581,97.642 69.537,97.666 69.492,97.689" id="Fill-206" fill="#E7C339"></path>
                <path d="M71.792,97.962 C70.916,97.958 70.114,97.856 69.492,97.689 C69.537,97.666 69.581,97.642 69.624,97.619 C70.175,97.343 70.724,97.107 71.241,96.864 C71.762,96.629 72.252,96.389 72.733,96.189 C73.061,96.06 73.378,95.936 73.683,95.816 C74.149,95.902 74.55,96.02 74.855,96.16 C74.725,96.235 74.592,96.311 74.456,96.389 C73.659,96.836 72.773,97.356 71.816,97.948 C71.808,97.953 71.8,97.958 71.792,97.962" id="Fill-207" fill="#DABB38"></path>
                <path d="M75.3,97.184 C75.306,96.941 75.31,96.695 75.312,96.449 C75.431,96.563 75.496,96.685 75.496,96.811 C75.496,96.942 75.427,97.067 75.3,97.184" id="Fill-208" fill="#D8B938"></path>
                <path d="M43.685,90.034 C43.685,91.729 42.74,93.103 41.575,93.103 C40.41,93.103 39.465,91.729 39.465,90.034 C39.465,88.339 40.41,86.965 41.575,86.965 C42.74,86.965 43.685,88.339 43.685,90.034" id="Fill-209" fill="#432F1A"></path>
                <path d="M68.942,90.034 C68.942,91.729 67.997,93.103 66.831,93.103 C65.666,93.103 64.721,91.729 64.721,90.034 C64.721,88.339 65.666,86.965 66.831,86.965 C67.997,86.965 68.942,88.339 68.942,90.034" id="Fill-210" fill="#432F1A"></path>
                <path d="M68.33,90.689 C68.33,91.139 67.965,91.504 67.515,91.504 C67.065,91.504 66.7,91.139 66.7,90.689 C66.7,90.239 67.065,89.874 67.515,89.874 C67.965,89.874 68.33,90.239 68.33,90.689" id="Fill-211" fill="#FFFFFF"></path>
                <path d="M42.914,90.689 C42.914,91.139 42.549,91.504 42.099,91.504 C41.649,91.504 41.284,91.139 41.284,90.689 C41.284,90.239 41.649,89.874 42.099,89.874 C42.549,89.874 42.914,90.239 42.914,90.689" id="Fill-212" fill="#FFFFFF"></path>
            </g>
        </g>
    </g>
</svg>