<?xml version="1.0" encoding="UTF-8"?>
<svg width="80px" height="104px" viewBox="0 0 80 104" version="1.1" xmlns="http://www.w3.org/2000/svg" xmlns:xlink="http://www.w3.org/1999/xlink">
    <!-- Generator: Sketch 44.1 (41455) - http://www.bohemiancoding.com/sketch -->
    <title>strawberry</title>
    <desc>Created with Sketch.</desc>
    <defs></defs>
    <g id="Page-1" stroke="none" stroke-width="1" fill="none" fill-rule="evenodd">
        <g id="158227-OUTYSB-392" transform="translate(-358.000000, -213.000000)">
            <g id="strawberry" transform="translate(358.000000, 213.000000)">
                <path d="M0.98,38.257 C1.094,39.994 2.187,41.515 3.797,42.177 C4.83,42.603 5.885,42.99 6.959,43.338 C4.718,47.059 3.347,51.264 3.048,55.537 C2.23,67.167 8.898,77.62 13.765,85.252 C18.77,93.099 25.134,101.354 34.415,103.093 C34.647,103.138 34.879,103.181 35.146,103.222 C35.394,103.257 35.645,103.289 35.885,103.314 C36.572,103.389 37.156,103.425 37.725,103.428 L37.828,103.428 C42.555,103.428 47.28,101.586 51.495,98.097 C52.335,97.401 53.147,96.643 53.908,95.845 C54.39,95.339 54.866,94.807 55.32,94.266 C55.764,93.735 56.195,93.191 56.61,92.637 C57.699,91.183 58.776,89.539 59.904,87.611 C60.23,87.052 60.549,86.49 60.862,85.927 C61.468,84.838 62.055,83.74 62.65,82.626 C64.595,78.983 66.799,74.853 68.462,70.561 C69.574,67.693 70.349,65.019 70.832,62.382 C71.195,60.397 71.377,58.388 71.375,56.413 C71.37,53.217 70.891,50.176 69.952,47.374 C69.446,45.868 68.811,44.442 68.053,43.118 C68.9,42.829 69.735,42.515 70.555,42.178 C72.165,41.515 73.258,39.994 73.373,38.257 C73.487,36.52 72.604,34.869 71.095,34.001 C68.979,32.784 66.491,31.42 63.751,30.186 C65.741,28.21 67.532,26.065 69.113,23.765 C70.1,22.33 70.184,20.459 69.33,18.941 C68.476,17.424 66.848,16.527 65.095,16.622 C62.659,16.76 59.829,16.978 56.861,17.441 C57.448,14.698 57.776,11.922 57.843,9.133 C57.884,7.392 56.932,5.78 55.388,4.976 C53.843,4.17 51.977,4.316 50.574,5.348 C48.649,6.765 46.466,8.442 44.298,10.377 C43.605,7.979 42.821,5.766 42.1,3.841 C41.489,2.21 40.005,1.069 38.272,0.899 C36.534,0.728 34.86,1.559 33.944,3.039 C32.475,5.412 31.234,7.916 30.226,10.533 C27.992,8.522 25.743,6.794 23.778,5.347 C22.376,4.316 20.508,4.172 18.964,4.976 C17.419,5.78 16.467,7.393 16.509,9.133 C16.576,11.923 16.905,14.699 17.491,17.441 C14.523,16.978 11.693,16.76 9.257,16.622 C7.517,16.524 5.876,17.425 5.022,18.941 C4.168,20.459 4.252,22.33 5.239,23.765 C6.82,26.064 8.611,28.21 10.602,30.186 C7.862,31.421 5.374,32.784 3.258,34.001 C1.749,34.869 0.866,36.519 0.98,38.257" id="Fill-10" fill="#DF8F42"></path>
                <path d="M79.459,38.257 C79.573,36.52 78.69,34.869 77.18,34.001 C75.065,32.784 72.577,31.42 69.837,30.186 C71.826,28.21 73.618,26.065 75.199,23.765 C76.186,22.33 76.269,20.459 75.415,18.941 C74.562,17.424 72.933,16.527 71.181,16.622 C68.745,16.76 65.915,16.978 62.947,17.441 C63.533,14.698 63.862,11.922 63.929,9.133 C63.97,7.392 63.018,5.78 61.474,4.976 C59.928,4.17 58.062,4.316 56.66,5.348 C54.735,6.765 52.551,8.442 50.383,10.377 C49.691,7.979 48.906,5.766 48.185,3.841 C47.574,2.21 46.09,1.069 44.357,0.899 C42.62,0.728 40.946,1.559 40.029,3.039 C38.561,5.412 37.319,7.916 36.312,10.533 C34.078,8.522 31.829,6.794 29.863,5.347 C28.462,4.316 26.593,4.172 25.049,4.976 C23.505,5.78 22.553,7.393 22.594,9.133 C22.662,11.923 22.991,14.699 23.577,17.441 C20.608,16.978 17.779,16.76 15.342,16.622 C13.602,16.524 11.962,17.425 11.108,18.941 C10.254,20.459 10.338,22.33 11.325,23.765 C12.905,26.064 14.697,28.21 16.688,30.186 C13.947,31.421 11.459,32.784 9.344,34.001 C7.835,34.869 6.951,36.519 7.065,38.257 C7.18,39.994 8.272,41.515 9.882,42.178 C10.915,42.603 11.971,42.99 13.044,43.338 C10.804,47.059 9.433,51.264 9.133,55.537 C8.316,67.167 14.983,77.62 19.85,85.252 C24.855,93.099 31.219,101.354 40.501,103.093 C40.733,103.138 40.964,103.181 41.232,103.222 C41.48,103.257 41.73,103.289 41.971,103.314 C42.657,103.389 43.241,103.425 43.811,103.428 L43.913,103.428 C48.641,103.428 53.365,101.586 57.58,98.097 C58.421,97.401 59.233,96.643 59.993,95.845 C60.475,95.339 60.951,94.807 61.405,94.266 C61.85,93.735 62.281,93.191 62.696,92.637 C63.785,91.183 64.861,89.539 65.989,87.611 C66.315,87.053 66.634,86.49 66.947,85.928 C67.554,84.838 68.14,83.74 68.736,82.626 C70.681,78.983 72.884,74.853 74.548,70.561 C75.659,67.693 76.434,65.019 76.917,62.382 C77.281,60.397 77.463,58.388 77.46,56.413 C77.456,53.217 76.977,50.176 76.037,47.374 C75.532,45.868 74.896,44.442 74.139,43.118 C74.986,42.829 75.821,42.515 76.641,42.178 C78.251,41.515 79.344,39.994 79.459,38.257" id="Fill-136" fill="#FFFFFF"></path>
                <path d="M43.91,5.441 C46.118,11.338 47.984,17.506 47.812,23.801 C47.699,27.969 46.632,32.709 44.081,36.105 C40.575,40.772 38.532,36.396 38.041,32.375 C36.907,23.096 38.988,13.394 43.91,5.441" id="Fill-137" fill="#33A947"></path>
                <path d="M27.158,9.024 C32.229,12.756 37.163,16.902 40.459,22.267 C42.642,25.82 44.339,30.373 44.058,34.611 C43.672,40.435 39.571,37.887 36.961,34.788 C30.941,27.636 27.382,18.374 27.158,9.024" id="Fill-138" fill="#2F8942"></path>
                <path d="M15.086,21.18 C21.373,21.533 27.77,22.31 33.463,25.001 C37.232,26.784 41.142,29.669 43.223,33.372 C46.083,38.46 41.255,38.568 37.376,37.398 C28.426,34.699 20.384,28.888 15.086,21.18" id="Fill-139" fill="#33A947"></path>
                <path d="M11.62,37.957 C17.078,34.817 22.86,31.971 29.098,31.115 C33.229,30.547 38.08,30.827 41.846,32.79 C47.022,35.489 43.038,38.218 39.15,39.358 C30.18,41.989 20.269,41.517 11.62,37.957" id="Fill-140" fill="#2E9645"></path>
                <path d="M59.366,9.024 C54.294,12.756 49.361,16.902 46.065,22.267 C43.882,25.82 42.184,30.373 42.465,34.611 C42.851,40.435 46.953,37.887 49.562,34.788 C55.582,27.636 59.142,18.374 59.366,9.024" id="Fill-141" fill="#2F8942"></path>
                <path d="M71.438,21.18 C65.151,21.533 58.753,22.31 53.061,25.001 C49.291,26.784 45.382,29.669 43.301,33.372 C40.441,38.46 45.269,38.568 49.147,37.398 C58.097,34.699 66.14,28.888 71.438,21.18" id="Fill-142" fill="#33A947"></path>
                <path d="M74.904,37.957 C69.446,34.817 63.664,31.971 57.426,31.115 C53.295,30.547 48.444,30.827 44.678,32.79 C39.502,35.489 43.486,38.218 47.374,39.358 C56.344,41.989 66.255,41.517 74.904,37.957" id="Fill-143" fill="#2E9645"></path>
                <path d="M25.255,37.51 C18.704,41.224 14.214,48.345 13.686,55.857 C13.002,65.589 18.453,74.572 23.699,82.797 C28.527,90.367 34.859,98.815 43.837,98.864 C48.724,98.892 53.317,96.232 56.691,92.695 C60.064,89.159 62.407,84.789 64.709,80.477 C67.929,74.444 71.194,68.288 72.428,61.561 C73.661,54.834 72.559,47.32 67.92,42.295 C62.558,36.488 55.02,35.847 47.663,35.647 C39.75,35.432 32.691,33.294 25.255,37.51" id="Fill-144" fill="#DC3A39"></path>
                <path d="M36.366,39.854 C36.366,39.854 36.244,39.899 36.015,39.983 C35.788,40.064 35.441,40.175 35.031,40.34 C34.616,40.487 34.128,40.712 33.568,40.946 C33.015,41.203 32.41,41.518 31.762,41.862 C31.127,42.237 30.454,42.651 29.775,43.129 C29.088,43.594 28.429,44.169 27.756,44.752 C27.093,45.352 26.46,46.018 25.848,46.715 C25.267,47.416 24.675,48.22 24.219,48.944 C23.656,49.861 23.295,50.585 22.896,51.458 C22.542,52.316 22.221,53.176 21.977,54.036 C21.75,54.897 21.526,55.742 21.41,56.564 C21.28,57.383 21.207,58.17 21.149,58.905 C21.125,59.638 21.11,60.319 21.122,60.929 C21.158,61.534 21.172,62.074 21.223,62.515 C21.257,62.96 21.306,63.309 21.334,63.55 C21.36,63.793 21.373,63.923 21.373,63.923 C21.373,63.923 21.308,63.811 21.185,63.6 C21.074,63.385 20.87,63.079 20.697,62.657 C20.499,62.242 20.289,61.724 20.09,61.11 C20.001,60.799 19.906,60.469 19.806,60.12 C19.719,59.768 19.659,59.391 19.579,58.997 C19.46,58.207 19.352,57.337 19.371,56.412 C19.357,55.486 19.44,54.505 19.607,53.501 C19.783,52.498 20.06,51.475 20.432,50.465 C20.797,49.484 21.357,48.388 21.853,47.566 C22.492,46.572 23.128,45.747 23.873,44.944 C24.618,44.167 25.412,43.465 26.236,42.867 C27.063,42.273 27.907,41.769 28.744,41.372 C29.565,40.946 30.395,40.662 31.155,40.419 C31.544,40.317 31.908,40.203 32.263,40.128 C32.62,40.063 32.958,40.003 33.276,39.945 C33.913,39.853 34.474,39.813 34.937,39.806 C35.397,39.774 35.749,39.824 35.993,39.828 C36.236,39.845 36.366,39.854 36.366,39.854" id="Fill-145" fill="#FFFFFF"></path>
                <path d="M43.805,98.864 C43.804,98.864 43.802,98.864 43.801,98.864 C43.803,98.864 43.803,98.864 43.805,98.864 M67.92,42.295 C67.91,42.285 67.901,42.274 67.891,42.264 C67.901,42.274 67.91,42.285 67.92,42.295 M67.882,42.254 C67.875,42.247 67.868,42.24 67.862,42.233 C67.869,42.24 67.875,42.247 67.882,42.254 M67.852,42.221 C67.845,42.214 67.838,42.207 67.832,42.2 C67.838,42.207 67.845,42.214 67.852,42.221 M67.822,42.19 C67.814,42.181 67.804,42.171 67.796,42.162 C67.805,42.171 67.813,42.181 67.822,42.19 M67.794,42.16 C67.784,42.149 67.774,42.139 67.764,42.128 C67.774,42.139 67.783,42.149 67.794,42.16 M67.757,42.121 C67.749,42.113 67.742,42.105 67.734,42.097 C67.742,42.105 67.749,42.113 67.757,42.121 M67.725,42.088 C67.719,42.08 67.711,42.073 67.704,42.066 C67.711,42.073 67.718,42.08 67.725,42.088 M67.695,42.056 C67.687,42.047 67.679,42.039 67.67,42.03 C67.678,42.039 67.687,42.048 67.695,42.056 M67.666,42.026 C67.656,42.016 67.646,42.005 67.636,41.995 C67.646,42.005 67.656,42.015 67.666,42.026 M67.631,41.989 C67.623,41.981 67.615,41.972 67.606,41.964 C67.615,41.973 67.623,41.981 67.631,41.989 M67.598,41.956 C67.591,41.948 67.584,41.94 67.576,41.933 C67.584,41.941 67.591,41.948 67.598,41.956 M67.568,41.924 C67.56,41.916 67.552,41.908 67.544,41.9 C67.552,41.908 67.56,41.916 67.568,41.924 M67.538,41.894 C67.528,41.883 67.518,41.873 67.508,41.863 C67.518,41.873 67.528,41.883 67.538,41.894 M67.506,41.861 C67.497,41.852 67.487,41.842 67.478,41.833 C67.487,41.842 67.497,41.852 67.506,41.861 M67.47,41.825 C67.463,41.818 67.455,41.81 67.448,41.803 C67.455,41.81 67.462,41.817 67.47,41.825 M67.439,41.793 C67.431,41.786 67.424,41.779 67.417,41.772 C67.424,41.779 67.432,41.786 67.439,41.793 M67.409,41.763 C67.389,41.744 67.369,41.724 67.349,41.704 C67.369,41.724 67.389,41.744 67.409,41.763 M67.34,41.695 C67.333,41.688 67.326,41.681 67.319,41.675 C67.326,41.681 67.333,41.688 67.34,41.695 M67.309,41.664 C67.302,41.658 67.295,41.651 67.289,41.645 C67.295,41.651 67.302,41.658 67.309,41.664 M67.278,41.635 C67.27,41.627 67.262,41.619 67.254,41.611 C67.262,41.619 67.271,41.627 67.278,41.635 M67.249,41.606 C67.239,41.596 67.229,41.587 67.219,41.577 C67.229,41.587 67.239,41.596 67.249,41.606 M67.209,41.568 C67.203,41.561 67.196,41.555 67.19,41.548 C67.196,41.555 67.203,41.561 67.209,41.568 M67.177,41.537 C67.172,41.531 67.165,41.525 67.16,41.52 C67.165,41.525 67.172,41.531 67.177,41.537 M67.147,41.508 C67.141,41.501 67.134,41.495 67.127,41.489 C67.134,41.495 67.141,41.501 67.147,41.508 M67.117,41.479 C67.108,41.47 67.098,41.461 67.089,41.452 C67.098,41.461 67.108,41.47 67.117,41.479 M67.077,41.441 C67.071,41.435 67.065,41.43 67.059,41.424 C67.065,41.43 67.071,41.435 67.077,41.441 M67.045,41.411 C67.04,41.406 67.035,41.401 67.029,41.396 C67.035,41.401 67.04,41.406 67.045,41.411 M67.015,41.382 C67.01,41.377 67.005,41.373 67,41.368 C67.005,41.373 67.01,41.377 67.015,41.382 M66.985,41.354 C66.979,41.349 66.975,41.344 66.969,41.339 C66.974,41.344 66.98,41.349 66.985,41.354 M66.941,41.313 C66.937,41.309 66.933,41.305 66.929,41.302 C66.933,41.305 66.937,41.309 66.941,41.313 M66.911,41.285 C66.907,41.282 66.903,41.278 66.899,41.274 C66.903,41.278 66.907,41.282 66.911,41.285 M66.881,41.258 C66.878,41.255 66.874,41.251 66.87,41.248 C66.874,41.251 66.877,41.254 66.881,41.258 M66.852,41.231 C66.849,41.228 66.846,41.226 66.844,41.224 C66.846,41.226 66.849,41.228 66.852,41.231 M66.802,41.185 C66.8,41.184 66.798,41.182 66.797,41.181 C66.798,41.182 66.8,41.184 66.802,41.185 M66.776,41.162 C66.773,41.159 66.77,41.157 66.767,41.154 C66.77,41.157 66.773,41.159 66.776,41.162 M66.747,41.135 C66.744,41.133 66.742,41.131 66.739,41.129 C66.742,41.131 66.744,41.133 66.747,41.135 M66.717,41.109 C66.716,41.108 66.717,41.109 66.717,41.108 L66.717,41.109 M66.637,41.038 C66.637,41.037 66.636,41.037 66.635,41.036 C66.636,41.037 66.637,41.037 66.637,41.038 M66.61,41.014 C66.609,41.013 66.608,41.012 66.607,41.011 C66.608,41.012 66.609,41.013 66.61,41.014" id="Fill-146" fill="#EEEDE8"></path>
                <path d="M43.911,98.865 C43.887,98.865 43.861,98.864 43.837,98.864 C43.826,98.864 43.816,98.864 43.805,98.864 C43.803,98.864 43.803,98.864 43.801,98.864 C42.385,98.852 41.041,98.612 39.752,98.219 C42.866,96.696 45.683,94.492 48.004,91.909 C52.186,87.256 54.906,81.461 56.882,75.525 C58.449,70.816 59.581,65.885 59.917,60.942 C60.557,61.085 61.34,61.17 62.185,61.17 C64.35,61.17 66.104,60.616 66.104,59.932 C66.104,59.249 64.35,58.694 62.185,58.694 C61.38,58.694 60.631,58.771 60.009,58.903 C60.078,55.786 59.811,52.675 59.118,49.623 C57.959,44.522 55.447,39.626 51.874,35.843 C57.234,36.238 62.451,37.346 66.607,41.011 C66.608,41.012 66.609,41.013 66.61,41.014 C66.619,41.021 66.627,41.029 66.635,41.036 C66.636,41.037 66.637,41.037 66.637,41.038 C66.664,41.061 66.69,41.085 66.717,41.108 C66.717,41.109 66.716,41.108 66.717,41.109 C66.724,41.115 66.732,41.122 66.739,41.129 C66.742,41.131 66.744,41.133 66.747,41.135 C66.753,41.141 66.761,41.148 66.767,41.154 C66.77,41.157 66.773,41.159 66.776,41.162 C66.783,41.168 66.79,41.174 66.797,41.181 C66.798,41.182 66.8,41.184 66.802,41.185 C66.816,41.198 66.83,41.211 66.844,41.224 C66.846,41.226 66.849,41.228 66.852,41.231 C66.858,41.236 66.864,41.242 66.87,41.248 C66.874,41.251 66.878,41.255 66.881,41.258 C66.887,41.263 66.893,41.269 66.899,41.274 C66.903,41.278 66.907,41.282 66.911,41.285 C66.917,41.291 66.923,41.296 66.929,41.302 C66.933,41.305 66.937,41.309 66.941,41.313 C66.95,41.322 66.96,41.33 66.969,41.339 C66.975,41.344 66.979,41.349 66.985,41.354 C66.99,41.359 66.995,41.363 67,41.368 C67.005,41.373 67.01,41.377 67.015,41.382 C67.02,41.387 67.025,41.391 67.029,41.396 C67.035,41.401 67.04,41.406 67.045,41.411 C67.05,41.415 67.054,41.419 67.059,41.424 C67.065,41.43 67.071,41.435 67.077,41.441 C67.081,41.445 67.085,41.448 67.089,41.452 C67.098,41.461 67.108,41.47 67.117,41.479 C67.121,41.482 67.124,41.486 67.127,41.489 C67.134,41.495 67.141,41.501 67.147,41.508 C67.152,41.512 67.155,41.515 67.16,41.52 C67.165,41.525 67.172,41.531 67.177,41.537 C67.181,41.541 67.186,41.544 67.19,41.548 C67.196,41.555 67.203,41.561 67.209,41.568 C67.213,41.571 67.216,41.574 67.219,41.577 C67.229,41.587 67.239,41.596 67.249,41.606 C67.251,41.607 67.252,41.609 67.254,41.611 C67.262,41.619 67.27,41.627 67.278,41.635 C67.282,41.638 67.285,41.641 67.289,41.645 C67.295,41.651 67.302,41.658 67.309,41.664 C67.312,41.668 67.316,41.671 67.319,41.675 C67.326,41.681 67.333,41.688 67.34,41.695 C67.343,41.698 67.346,41.701 67.349,41.704 C67.369,41.724 67.389,41.744 67.409,41.763 C67.412,41.766 67.414,41.769 67.417,41.772 C67.424,41.779 67.431,41.786 67.439,41.793 C67.442,41.797 67.445,41.8 67.448,41.803 C67.455,41.81 67.463,41.818 67.47,41.825 C67.472,41.827 67.475,41.83 67.478,41.833 C67.487,41.842 67.497,41.852 67.506,41.861 C67.506,41.862 67.507,41.862 67.508,41.863 C67.518,41.873 67.528,41.883 67.538,41.894 C67.54,41.896 67.542,41.898 67.544,41.9 C67.552,41.908 67.56,41.916 67.568,41.924 C67.571,41.927 67.573,41.93 67.576,41.933 C67.584,41.94 67.591,41.948 67.598,41.956 C67.601,41.958 67.604,41.961 67.606,41.964 C67.615,41.972 67.623,41.981 67.631,41.989 C67.633,41.991 67.635,41.993 67.636,41.995 C67.646,42.005 67.656,42.016 67.666,42.026 C67.668,42.027 67.669,42.029 67.67,42.03 C67.679,42.039 67.687,42.047 67.695,42.056 C67.698,42.059 67.701,42.063 67.704,42.066 C67.711,42.073 67.719,42.08 67.725,42.088 C67.729,42.091 67.731,42.094 67.734,42.097 C67.742,42.105 67.749,42.113 67.757,42.121 C67.759,42.123 67.762,42.126 67.764,42.128 C67.774,42.139 67.784,42.149 67.794,42.16 C67.794,42.16 67.795,42.161 67.796,42.162 C67.804,42.171 67.814,42.181 67.822,42.19 C67.825,42.194 67.829,42.197 67.832,42.2 C67.838,42.207 67.845,42.214 67.852,42.221 C67.855,42.225 67.858,42.229 67.862,42.233 C67.868,42.24 67.875,42.247 67.882,42.254 C67.885,42.257 67.888,42.261 67.891,42.264 C67.901,42.274 67.91,42.285 67.92,42.295 C72.559,47.32 73.661,54.834 72.428,61.561 C71.194,68.288 67.929,74.444 64.709,80.477 C62.407,84.789 60.064,89.159 56.69,92.695 C53.662,95.87 49.651,98.339 45.326,98.79 C44.857,98.839 44.386,98.865 43.911,98.865 M64.557,61.108 C62.795,61.108 62.792,63.846 64.557,63.846 C66.319,63.846 66.322,61.108 64.557,61.108" id="Fill-147" fill="#DA3435"></path>
                <path d="M41.128,39.694 C41.568,39.694 41.569,39.009 41.128,39.009 C40.687,39.009 40.686,39.694 41.128,39.694" id="Fill-148" fill="#EFA336"></path>
                <path d="M47.47,47.045 L47.617,47.263 C47.823,47.565 48.225,47.565 48.43,47.263 L48.578,47.045 C48.857,46.634 48.486,46.079 48.024,46.079 C47.562,46.079 47.191,46.634 47.47,47.045" id="Fill-149" fill="#EFA336"></path>
                <path d="M38.153,51.109 L38.225,51.219 C38.789,52.073 39.955,52.073 40.519,51.219 L40.591,51.109 C41.191,50.2 40.398,48.984 39.372,48.984 C38.346,48.984 37.553,50.2 38.153,51.109" id="Fill-150" fill="#EFA336"></path>
                <path d="M37.476,65.149 C39.348,65.149 39.352,62.239 37.476,62.239 C35.604,62.239 35.601,65.149 37.476,65.149" id="Fill-151" fill="#EFA336"></path>
                <path d="M31.278,81.549 L31.214,81.664 C31.407,81.471 31.6,81.278 31.793,81.085 C30.165,81.8 30.864,84.463 32.608,84.385 C33.412,84.349 34.052,83.863 34.299,83.097 C34.536,82.367 34.131,81.396 33.422,81.085 C33.615,81.278 33.808,81.471 34.001,81.664 L33.938,81.549 C33.383,80.548 31.833,80.548 31.278,81.549" id="Fill-152" fill="#EFA336"></path>
                <path d="M41.128,91.621 C43,91.621 43.003,88.712 41.128,88.712 C39.255,88.712 39.252,91.621 41.128,91.621" id="Fill-153" fill="#EFA336"></path>
                <path d="M26.684,77.253 L26.831,77.232 C27.544,77.13 28.133,76.247 28.103,75.561 C28.072,74.866 27.594,73.999 26.831,73.89 L26.684,73.869 C26.064,73.781 25.435,73.822 24.977,74.32 C24.662,74.664 24.463,75.086 24.463,75.561 C24.463,76.011 24.659,76.483 24.977,76.801 C25.462,77.287 26.042,77.344 26.684,77.253" id="Fill-154" fill="#EFA336"></path>
                <path d="M49.343,63.694 C50.417,63.694 51.447,62.749 51.397,61.64 C51.347,60.527 50.495,59.586 49.343,59.586 C48.269,59.586 47.24,60.531 47.289,61.64 C47.339,62.753 48.192,63.694 49.343,63.694" id="Fill-155" fill="#EFA336"></path>
                <path d="M33.521,46.236 C35.723,46.236 35.727,42.813 33.521,42.813 C31.318,42.813 31.314,46.236 33.521,46.236" id="Fill-156" fill="#EFA336"></path>
                <path d="M54.212,41.206 C55.423,41.206 55.425,39.323 54.212,39.323 C53,39.323 52.998,41.206 54.212,41.206" id="Fill-157" fill="#EFA336"></path>
                <path d="M63.036,51.58 C64.247,51.58 64.249,49.697 63.036,49.697 C61.824,49.697 61.822,51.58 63.036,51.58" id="Fill-158" fill="#EFA336"></path>
                <path d="M55.673,55.582 C56.202,55.757 56.785,55.515 57.113,55.091 C57.609,54.448 57.437,53.493 56.728,53.079 C56.089,52.705 55.229,52.93 54.855,53.57 C54.394,54.359 54.841,55.306 55.673,55.582" id="Fill-159" fill="#EFA336"></path>
                <path d="M43.531,72.308 C43.573,72.449 43.614,72.589 43.664,72.727 C43.922,73.447 44.567,74.076 45.388,74.039 C46.219,74.002 46.834,73.5 47.111,72.727 C47.161,72.589 47.202,72.449 47.244,72.308 C47.603,71.102 46.615,69.87 45.388,69.87 C44.162,69.87 43.172,71.103 43.531,72.308" id="Fill-160" fill="#EFA336"></path>
                <path d="M49.647,82.864 C49.514,83.038 49.436,83.249 49.386,83.461 C49.16,84.403 49.837,85.357 50.83,85.357 C51.818,85.357 52.499,84.404 52.274,83.461 C52.223,83.249 52.145,83.038 52.012,82.864 C51.347,81.993 50.312,81.993 49.647,82.864" id="Fill-161" fill="#EFA336"></path>
                <path d="M64.557,63.846 C66.319,63.846 66.322,61.108 64.557,61.108 C62.795,61.108 62.792,63.846 64.557,63.846" id="Fill-162" fill="#EFA336"></path>
                <path d="M60.122,81.254 C60.149,81.348 60.177,81.442 60.204,81.536 C60.407,82.227 61.404,82.228 61.607,81.536 C61.635,81.442 61.662,81.348 61.69,81.254 C61.839,80.745 61.426,80.225 60.906,80.225 C60.387,80.225 59.973,80.745 60.122,81.254" id="Fill-163" fill="#EFA336"></path>
                <path d="M43.207,78.538 C34.602,78.538 26.671,73.851 22.51,66.306 C22.18,65.707 22.397,64.954 22.996,64.624 C23.596,64.294 24.347,64.512 24.677,65.11 C28.403,71.866 35.504,76.062 43.207,76.062 C50.911,76.062 58.012,71.866 61.737,65.11 C62.068,64.511 62.819,64.295 63.419,64.624 C64.017,64.954 64.235,65.707 63.905,66.306 C59.744,73.851 51.813,78.538 43.207,78.538" id="Fill-164" fill="#6B1B22"></path>
                <path d="M24.229,61.17 C22.962,61.17 21.835,60.98 21.119,60.685 C21.115,60.216 21.125,59.708 21.141,59.17 C21.858,58.881 22.975,58.694 24.229,58.694 C26.394,58.694 28.149,59.249 28.149,59.932 C28.149,60.616 26.394,61.17 24.229,61.17" id="Fill-165" fill="#DA3435"></path>
                <path d="M21.119,60.685 C20.612,60.477 20.31,60.216 20.31,59.932 C20.31,59.645 20.62,59.38 21.141,59.17 C21.125,59.708 21.115,60.216 21.119,60.685" id="Fill-166" fill="#EEEDE8"></path>
                <path d="M59.917,60.942 C58.917,60.717 58.266,60.349 58.266,59.932 C58.266,59.503 58.958,59.125 60.009,58.903 C59.994,59.582 59.963,60.262 59.917,60.942" id="Fill-167" fill="#DA3435"></path>
                <path d="M62.185,61.17 C61.34,61.17 60.557,61.085 59.917,60.942 C59.963,60.262 59.994,59.582 60.009,58.903 C60.631,58.771 61.38,58.694 62.185,58.694 C64.35,58.694 66.104,59.249 66.104,59.932 C66.104,60.616 64.35,61.17 62.185,61.17" id="Fill-168" fill="#D92D30"></path>
                <path d="M31.896,52.644 C31.896,54.466 30.88,55.944 29.627,55.944 C28.374,55.944 27.358,54.466 27.358,52.644 C27.358,50.821 28.374,49.343 29.627,49.343 C30.88,49.343 31.896,50.821 31.896,52.644" id="Fill-169" fill="#432F1A"></path>
                <path d="M59.056,52.644 C59.056,54.466 58.04,55.944 56.787,55.944 C55.534,55.944 54.518,54.466 54.518,52.644 C54.518,50.821 55.534,49.343 56.787,49.343 C58.04,49.343 59.056,50.821 59.056,52.644" id="Fill-170" fill="#432F1A"></path>
                <path d="M58.399,53.348 C58.399,53.833 58.007,54.225 57.522,54.225 C57.038,54.225 56.646,53.833 56.646,53.348 C56.646,52.864 57.038,52.472 57.522,52.472 C58.007,52.472 58.399,52.864 58.399,53.348" id="Fill-171" fill="#FFFFFF"></path>
                <path d="M31.067,53.348 C31.067,53.833 30.675,54.225 30.19,54.225 C29.706,54.225 29.314,53.833 29.314,53.348 C29.314,52.864 29.706,52.472 30.19,52.472 C30.675,52.472 31.067,52.864 31.067,53.348" id="Fill-172" fill="#FFFFFF"></path>
            </g>
        </g>
    </g>
</svg>