<?xml version="1.0" encoding="UTF-8"?>
<svg width="145px" height="73px" viewBox="0 0 145 73" version="1.1" xmlns="http://www.w3.org/2000/svg" xmlns:xlink="http://www.w3.org/1999/xlink">
    <!-- Generator: Sketch 44.1 (41455) - http://www.bohemiancoding.com/sketch -->
    <title>watermelon</title>
    <desc>Created with Sketch.</desc>
    <defs></defs>
    <g id="Page-1" stroke="none" stroke-width="1" fill="none" fill-rule="evenodd">
        <g id="158227-OUTYSB-392" transform="translate(-181.000000, -238.000000)">
            <g id="watermelon" transform="translate(181.000000, 238.000000)">
                <path d="M39.516,65.583 C39.714,65.679 39.915,65.771 40.116,65.862 L40.362,65.975 C40.977,66.26 41.597,66.536 42.276,66.826 C42.579,66.955 42.882,67.085 43.19,67.21 C43.91,67.504 44.635,67.784 45.366,68.054 L45.519,68.112 C45.763,68.202 46.008,68.293 46.253,68.38 C47.053,68.663 47.86,68.932 48.679,69.188 C48.961,69.276 49.244,69.361 49.533,69.449 C50.379,69.7 51.229,69.942 52.081,70.16 L52.767,70.329 C53.608,70.535 54.454,70.73 55.319,70.909 L55.73,70.995 C56.606,71.17 57.542,71.335 58.588,71.498 L59.191,71.593 C60.116,71.729 61.088,71.851 62.085,71.956 L62.69,72.016 C63.73,72.115 64.706,72.188 65.686,72.24 L66.136,72.259 C67.294,72.312 68.341,72.338 69.339,72.338 C87.509,72.338 104.669,65.343 117.658,52.642 C130.622,39.965 138.004,23.009 138.445,4.899 C138.475,3.67 138.008,2.48 137.149,1.6 C136.29,0.72 135.113,0.224 133.882,0.224 L4.796,0.224 C3.566,0.224 2.389,0.72 1.53,1.6 C0.671,2.48 0.203,3.67 0.233,4.899 C0.87,31.028 15.922,54.281 39.516,65.583" id="Fill-8" fill="#DF8F42"></path>
                <path d="M143.234,1.6 C142.376,0.72 141.198,0.224 139.968,0.224 L10.882,0.224 C9.652,0.224 8.474,0.72 7.615,1.6 C6.756,2.48 6.289,3.67 6.319,4.899 C6.955,31.028 22.008,54.281 45.601,65.583 C45.8,65.679 46.001,65.771 46.202,65.862 L46.448,65.975 C47.063,66.26 47.682,66.536 48.362,66.826 C48.665,66.955 48.968,67.085 49.275,67.21 C49.995,67.504 50.721,67.784 51.452,68.054 L51.605,68.112 C51.849,68.202 52.093,68.293 52.339,68.38 C53.138,68.663 53.946,68.932 54.764,69.188 C55.047,69.276 55.33,69.361 55.619,69.449 C56.464,69.7 57.315,69.942 58.166,70.16 L58.852,70.329 C59.694,70.535 60.54,70.73 61.405,70.909 L61.816,70.995 C62.691,71.17 63.627,71.335 64.673,71.498 L65.276,71.593 C66.201,71.729 67.173,71.851 68.171,71.956 L68.775,72.016 C69.816,72.115 70.792,72.188 71.772,72.24 L72.222,72.259 C73.379,72.312 74.427,72.338 75.425,72.338 C93.595,72.338 110.755,65.343 123.744,52.642 C136.707,39.965 144.09,23.009 144.53,4.899 C144.561,3.67 144.094,2.48 143.234,1.6" id="Fill-102" fill="#FFFFFF"></path>
                <path d="M10.882,4.788 C11.732,39.716 40.292,67.774 75.425,67.774 C110.557,67.774 139.117,39.716 139.968,4.788 L10.882,4.788" id="Fill-103" fill="#136033"></path>
                <path d="M17.786,4.788 C19.181,35.771 44.706,60.471 76.033,60.471 C107.361,60.471 132.886,35.771 134.28,4.788 L17.786,4.788" id="Fill-104" fill="#DC3A39"></path>
                <path d="M131.06,4.788 C128.072,32.56 104.6,54.195 76.033,54.195 C47.467,54.195 23.995,32.56 21.007,4.788 L17.786,4.788 C19.181,35.771 44.706,60.471 76.033,60.471 C107.361,60.471 132.886,35.771 134.28,4.788 L131.06,4.788" id="Fill-105" fill="#D9E495"></path>
                <path d="M75.37,67.774 C75.363,67.774 75.358,67.774 75.352,67.774 C75.356,67.774 75.365,67.774 75.37,67.774 M75.314,67.774 C75.307,67.774 75.301,67.774 75.294,67.774 C75.3,67.774 75.308,67.774 75.314,67.774 M75.258,67.774 C75.251,67.774 75.245,67.774 75.238,67.774 C75.244,67.774 75.252,67.774 75.258,67.774 M75.202,67.774 C75.195,67.774 75.189,67.774 75.182,67.773 C75.188,67.774 75.195,67.774 75.202,67.774 M75.143,67.773 C75.138,67.773 75.133,67.773 75.128,67.773 C75.132,67.773 75.139,67.773 75.143,67.773 M75.08,67.773 C75.078,67.773 75.075,67.773 75.073,67.773 C75.075,67.773 75.078,67.773 75.08,67.773" id="Fill-106" fill="#DBDCD7"></path>
                <path d="M75.425,67.774 L75.425,67.774 C75.407,67.774 75.388,67.774 75.37,67.774 C75.365,67.774 75.356,67.774 75.352,67.774 C75.339,67.774 75.327,67.774 75.314,67.774 C75.308,67.774 75.3,67.774 75.294,67.774 C75.282,67.774 75.27,67.774 75.258,67.774 C75.252,67.774 75.244,67.774 75.238,67.774 C75.226,67.774 75.214,67.774 75.202,67.774 C75.195,67.774 75.188,67.774 75.182,67.773 C75.169,67.773 75.156,67.773 75.143,67.773 C75.139,67.773 75.132,67.773 75.128,67.773 C75.112,67.773 75.096,67.773 75.08,67.773 C75.078,67.773 75.075,67.773 75.073,67.773 C65.227,67.72 55.907,65.459 47.575,61.468 C51.473,62.203 55.49,62.601 59.602,62.601 C65.309,62.601 70.84,61.861 76.108,60.471 C107.401,60.432 132.887,35.747 134.28,4.788 L139.968,4.788 C139.117,39.716 110.557,67.774 75.425,67.774" id="Fill-107" fill="#0E522D"></path>
                <path d="M98.877,49.275 C112.56,38.761 121.907,22.884 123.794,4.788 L131.06,4.788 C128.924,24.639 116.324,41.354 98.877,49.275" id="Fill-108" fill="#D92D30"></path>
                <path d="M76.108,60.471 C84.487,58.261 92.199,54.406 98.877,49.275 C116.324,41.354 128.924,24.639 131.06,4.788 L134.28,4.788 C132.887,35.747 107.401,60.432 76.108,60.471" id="Fill-109" fill="#C1D98A"></path>
                <path d="M75.425,43.856 C65.905,43.856 57.131,38.671 52.527,30.324 C52.162,29.662 52.402,28.829 53.064,28.464 C53.729,28.099 54.56,28.339 54.925,29.001 C59.047,36.475 66.902,41.118 75.425,41.118 C83.948,41.118 91.803,36.475 95.925,29.001 C96.29,28.339 97.122,28.099 97.785,28.464 C98.447,28.829 98.688,29.662 98.323,30.324 C93.719,38.671 84.945,43.856 75.425,43.856" id="Fill-110" fill="#6B1B22"></path>
                <path d="M54.429,24.642 C52.035,24.642 50.093,24.029 50.093,23.273 C50.093,22.517 52.035,21.904 54.429,21.904 C56.824,21.904 58.765,22.517 58.765,23.273 C58.765,24.029 56.824,24.642 54.429,24.642" id="Fill-111" fill="#DA3435"></path>
                <path d="M96.42,24.642 C94.025,24.642 92.084,24.029 92.084,23.273 C92.084,22.517 94.025,21.904 96.42,21.904 C98.815,21.904 100.756,22.517 100.756,23.273 C100.756,24.029 98.815,24.642 96.42,24.642" id="Fill-112" fill="#DA3435"></path>
                <path d="M62.911,15.209 C62.911,17.226 61.787,18.861 60.401,18.861 C59.014,18.861 57.891,17.226 57.891,15.209 C57.891,13.193 59.014,11.558 60.401,11.558 C61.787,11.558 62.911,13.193 62.911,15.209" id="Fill-113" fill="#432F1A"></path>
                <path d="M92.959,15.209 C92.959,17.226 91.835,18.861 90.449,18.861 C89.062,18.861 87.938,17.226 87.938,15.209 C87.938,13.193 89.062,11.558 90.449,11.558 C91.835,11.558 92.959,13.193 92.959,15.209" id="Fill-114" fill="#432F1A"></path>
                <path d="M92.232,15.989 C92.232,16.525 91.798,16.959 91.262,16.959 C90.726,16.959 90.292,16.525 90.292,15.989 C90.292,15.454 90.726,15.019 91.262,15.019 C91.798,15.019 92.232,15.454 92.232,15.989" id="Fill-115" fill="#FFFFFF"></path>
                <path d="M61.994,15.989 C61.994,16.525 61.56,16.959 61.024,16.959 C60.488,16.959 60.054,16.525 60.054,15.989 C60.054,15.454 60.488,15.019 61.024,15.019 C61.56,15.019 61.994,15.454 61.994,15.989" id="Fill-116" fill="#FFFFFF"></path>
                <path d="M31.3,15.937 C33.117,15.937 33.12,13.113 31.3,13.113 C29.482,13.113 29.479,15.937 31.3,15.937" id="Fill-117" fill="#6B1B22"></path>
                <path d="M40.732,12.381 C41.889,12.381 41.891,10.583 40.732,10.583 C39.576,10.583 39.574,12.381 40.732,12.381" id="Fill-118" fill="#6B1B22"></path>
                <path d="M39.355,23.887 L39.333,23.74 C39.248,23.168 38.547,22.696 37.994,22.72 C37.433,22.746 36.746,23.128 36.654,23.74 L36.632,23.887 C36.498,24.778 37.003,25.674 37.994,25.674 C38.977,25.674 39.49,24.778 39.355,23.887" id="Fill-119" fill="#6B1B22"></path>
                <path d="M48.948,14.896 C50.6,14.896 50.603,12.328 48.948,12.328 C47.296,12.328 47.293,14.896 48.948,14.896" id="Fill-120" fill="#6B1B22"></path>
                <path d="M104.023,16.022 C105.95,16.022 105.953,13.027 104.023,13.027 C102.095,13.027 102.092,16.022 104.023,16.022" id="Fill-121" fill="#6B1B22"></path>
                <path d="M112.389,25.912 C112.675,25.855 112.926,25.761 113.19,25.63 C114.225,25.12 114.225,23.403 113.19,22.893 C112.926,22.763 112.675,22.668 112.389,22.612 C111.31,22.397 110.222,23.097 110.222,24.262 C110.222,25.419 111.309,26.127 112.389,25.912" id="Fill-122" fill="#6B1B22"></path>
                <path d="M108.283,11.325 C109.156,11.325 109.992,10.558 109.951,9.656 C109.911,8.752 109.218,7.988 108.283,7.988 C107.41,7.988 106.573,8.755 106.614,9.656 C106.654,10.561 107.347,11.325 108.283,11.325" id="Fill-123" fill="#6B1B22"></path>
                <path d="M121.145,16.011 L121.266,15.958 C122.122,15.579 122.122,14.08 121.266,13.7 L121.145,13.647 C120.227,13.24 119.085,13.703 119.085,14.829 C119.085,15.955 120.227,16.418 121.145,16.011" id="Fill-124" fill="#6B1B22"></path>
            </g>
        </g>
    </g>
</svg>