<?xml version="1.0" encoding="UTF-8"?>
<svg width="172px" height="142px" viewBox="0 0 172 142" version="1.1" xmlns="http://www.w3.org/2000/svg" xmlns:xlink="http://www.w3.org/1999/xlink">
    <!-- Generator: Sketch 49.3 (51167) - http://www.bohemiancoding.com/sketch -->
    <title>avatar5</title>
    <desc>Created with Sketch.</desc>
    <defs></defs>
    <g id="Page-1" stroke="none" stroke-width="1" fill="none" fill-rule="evenodd">
        <g id="114523-OOP5HG-503" transform="translate(-20.000000, -302.000000)">
            <g id="avatar5" transform="translate(20.000000, 302.000000)">
                <path d="M143.858,67.759 C143.953,64.743 143.355,61.863 142.504,59.014 C142.327,58.418 142.128,57.736 141.712,57.325 C141.044,56.668 140.905,55.876 140.697,55.059 C139.121,48.824 136.017,43.267 132.824,37.784 C129.127,31.438 122.949,28.135 116.523,25.265 C115.794,24.938 114.86,25.055 114.018,25.003 C109.551,24.734 105.146,25.341 100.751,26.009 C97.41,26.518 94.036,26.921 90.909,28.35 C89.449,29.017 88.027,29.675 87.601,31.483 C87.401,32.334 86.777,33.085 85.885,33.178 C84.746,33.296 83.404,33.492 82.469,33.021 C81.226,32.394 80.043,32.381 78.801,32.441 C76.925,32.532 75.245,31.99 73.668,31.056 C72.666,30.463 71.586,29.936 70.74,29.16 C68.462,27.076 65.725,26.657 62.803,26.522 C60.624,26.422 58.647,27.25 56.565,27.514 C52.439,28.039 48.984,30.043 45.574,32.175 C44.595,32.788 43.55,33.442 42.85,34.327 C40.095,37.81 37.455,41.382 34.803,44.944 C34.365,45.531 34.054,46.221 33.73,46.886 C32.944,48.503 32.139,50.113 31.427,51.766 C30.632,53.609 29.878,55.474 29.201,57.364 C27.365,62.491 26.1,67.715 26.726,73.23 C26.726,74.289 26.702,75.349 26.73,76.407 C26.778,78.099 26.656,79.827 26.974,81.469 C27.454,83.948 28.028,86.456 28.964,88.79 C30.408,92.391 31.42,96.269 34.487,99.025 C35.025,99.507 35.323,100.247 35.794,100.815 C36.467,101.628 37.159,102.431 37.911,103.167 C39.197,104.426 40.521,105.646 41.857,106.853 C42.641,107.559 43.459,108.23 44.299,108.871 C45.474,109.768 46.692,110.606 47.875,111.493 C50.935,113.786 54.066,115.979 57.8,117.021 C60.138,117.675 62.53,118.158 64.918,118.606 C66.676,118.937 68.513,118.912 70.231,119.365 C71.939,119.813 73.57,119.772 75.244,119.454 C79.624,118.622 84.03,118.174 88.489,118.554 C89.434,118.634 90.446,118.613 91.297,118.96 C94.365,120.213 97.523,120.003 100.693,119.749 C101.746,119.664 102.785,119.418 103.836,119.301 C112.369,118.359 119.921,114.833 126.921,110.144 C130.53,107.725 133.475,104.496 135.454,100.48 C138.549,94.198 141.055,87.688 143.14,81.017 C143.576,79.62 143.799,78.114 143.846,76.651 C143.942,73.69 143.766,70.72 143.858,67.759" id="Fill-15" fill="#FF6F63"></path>
                <path d="M52.726,6.06 C54.928,5.231 57.044,5.128 59.147,5.117 C61.263,5.106 63.383,5.225 65.496,5.371 C66.325,5.428 67.192,5.588 67.951,5.915 C71.084,7.267 73.978,8.954 76.174,11.69 C78.101,14.092 80.077,16.437 81.123,19.396 C82.03,21.965 82.154,24.551 81.349,27.165 C81.334,27.211 81.194,27.222 80.924,27.311 C78.353,22.908 75.993,18.251 71.523,15.279 C70.04,14.294 68.59,13.248 66.91,12.707 C66.203,13.354 66.685,13.818 67.044,14.092 C67.968,14.793 68.992,15.361 69.941,16.033 C72.486,17.836 74.43,20.194 76.121,22.785 C77.564,24.995 78.822,27.294 79.835,29.918 C78.475,30.508 77.289,30.342 76.098,29.92 C73.286,28.924 70.719,27.6 68.482,25.511 C65.003,22.265 61.27,19.31 58.245,15.573 C56.159,12.999 54.515,10.185 52.954,7.299 C52.812,7.038 52.835,6.686 52.726,6.06" id="Fill-16" fill="#54B02C"></path>
                <path d="M65.034,121.145 C66.38,121.432 67.291,121.625 68.147,121.808 C68.741,124.091 68.878,132.208 68.425,137.465 C67.972,137.717 67.469,138.158 66.895,138.292 C63.277,139.133 59.606,139.476 55.9,139.132 C53.766,138.934 51.8,138.135 49.961,137.062 C48.338,136.114 48.234,133.937 49.781,132.86 C50.363,132.456 51.095,132.131 51.791,132.05 C53.794,131.815 55.778,131.892 57.71,132.663 C59.27,133.284 60.895,133.748 62.498,134.255 C62.895,134.38 63.32,134.444 63.736,134.467 C64.863,134.525 65.659,133.958 65.652,132.855 C65.637,130.647 65.613,128.417 65.297,126.238 C65.067,124.653 65.042,123.12 65.034,121.145" id="Fill-17" fill="#FFC43B"></path>
                <path d="M83.504,31.055 C82.926,29.805 82.791,28.522 83.243,27.131 C83.94,24.989 83.975,22.774 83.917,20.53 C83.816,16.505 83.852,12.477 83.862,8.45 C83.864,7.606 83.947,6.752 84.104,5.925 C84.24,5.208 84.536,4.522 84.811,3.67 C86.954,3.496 88.965,2.254 91.418,3.057 C91.418,4.031 91.523,4.97 91.4,5.879 C90.958,9.14 90.257,12.351 89.042,15.417 C88.526,16.723 88.272,18.03 88.242,19.431 C88.167,22.959 86.987,26.277 86.128,29.648 C85.723,31.24 85.518,31.238 83.504,31.055" id="Fill-18" fill="#A6832C"></path>
                <path d="M103.009,122.004 C104.277,121.913 105.09,121.854 105.818,121.803 C106.035,122.083 106.214,122.223 106.271,122.401 C107.088,124.958 106.958,127.6 106.981,130.234 C107.007,133.029 108.052,133.788 110.47,132.601 C113.654,131.037 116.998,131.114 120.377,131.279 C120.78,131.299 121.194,131.477 121.567,131.657 C122.426,132.072 122.736,132.795 122.683,133.735 C122.635,134.576 122.208,135.12 121.48,135.436 C121.1,135.6 120.678,135.731 120.268,135.758 C116.275,136.012 112.318,136.739 108.289,136.528 C106.851,136.452 106.032,135.961 105.417,134.593 C104.009,131.458 103.479,128.142 103.025,124.798 C102.915,123.985 103.009,123.145 103.009,122.004" id="Fill-19" fill="#FFC43B"></path>
                <path d="M124.626,65.09 C126.185,65.177 127.152,65.118 128.07,65.305 C130.611,65.822 131.517,68.377 129.834,70.379 C129.249,71.075 128.406,71.645 127.568,72.023 C124.509,73.404 121.246,73.601 117.965,73.271 C116.055,73.079 115.24,71.928 115.333,69.999 C115.435,67.896 116.748,66.242 118.965,65.814 C121.024,65.418 123.132,65.272 124.626,65.09" id="Fill-20" fill="#DB2E2C"></path>
                <path d="M44.308,68.692 C45.195,68.692 45.408,68.679 45.617,68.694 C47.211,68.822 48.885,68.863 49.488,70.773 C50.188,72.985 49.338,75.573 47.606,76.69 C45.422,78.1 43.002,78.267 40.596,77.663 C37.512,76.888 36.673,72.802 39.133,70.545 C39.948,69.799 41.091,69.332 42.163,68.97 C43.04,68.675 44.035,68.723 44.308,68.692" id="Fill-21" fill="#DB2E2C"></path>
                <path d="M103.009,122.004 C103.009,123.145 102.915,123.985 103.025,124.798 C103.479,128.142 104.009,131.458 105.417,134.593 C106.032,135.961 106.851,136.452 108.289,136.528 C112.318,136.739 116.275,136.012 120.268,135.758 C120.678,135.731 121.1,135.6 121.48,135.436 C122.208,135.12 122.635,134.576 122.683,133.735 C122.736,132.795 122.426,132.072 121.567,131.657 C121.194,131.477 120.78,131.299 120.377,131.279 C116.998,131.114 113.654,131.037 110.47,132.601 C108.052,133.788 107.007,133.029 106.981,130.234 C106.958,127.6 107.088,124.958 106.271,122.401 C106.214,122.223 106.035,122.083 105.818,121.803 C105.09,121.854 104.277,121.913 103.009,122.004 Z M83.504,31.055 C85.518,31.238 85.723,31.24 86.128,29.648 C86.987,26.277 88.167,22.959 88.242,19.431 C88.272,18.03 88.526,16.723 89.042,15.417 C90.257,12.351 90.958,9.14 91.4,5.879 C91.523,4.97 91.418,4.031 91.418,3.057 C88.965,2.254 86.954,3.496 84.811,3.67 C84.536,4.522 84.24,5.208 84.104,5.925 C83.947,6.752 83.864,7.606 83.862,8.45 C83.852,12.477 83.816,16.505 83.917,20.53 C83.975,22.774 83.94,24.989 83.243,27.131 C82.791,28.522 82.926,29.805 83.504,31.055 Z M65.034,121.145 C65.042,123.12 65.067,124.653 65.297,126.238 C65.613,128.417 65.637,130.647 65.652,132.855 C65.659,133.958 64.863,134.525 63.736,134.467 C63.32,134.444 62.895,134.38 62.498,134.255 C60.895,133.748 59.27,133.284 57.71,132.663 C55.778,131.892 53.794,131.815 51.791,132.05 C51.095,132.131 50.363,132.456 49.781,132.86 C48.234,133.937 48.338,136.114 49.961,137.062 C51.8,138.135 53.766,138.934 55.9,139.132 C59.606,139.476 63.277,139.133 66.895,138.292 C67.469,138.158 67.972,137.717 68.425,137.465 C68.878,132.208 68.741,124.091 68.147,121.808 C67.291,121.625 66.38,121.432 65.034,121.145 Z M52.726,6.06 C52.835,6.686 52.812,7.038 52.954,7.299 C54.515,10.185 56.159,12.999 58.245,15.573 C61.27,19.31 65.003,22.265 68.482,25.511 C70.719,27.6 73.286,28.924 76.098,29.92 C77.289,30.342 78.475,30.508 79.835,29.918 C78.822,27.294 77.564,24.995 76.121,22.785 C74.43,20.194 72.486,17.836 69.941,16.033 C68.992,15.361 67.968,14.793 67.044,14.092 C66.685,13.818 66.203,13.354 66.91,12.707 C68.59,13.248 70.04,14.294 71.523,15.279 C75.993,18.251 78.353,22.908 80.924,27.311 C81.194,27.222 81.334,27.211 81.349,27.165 C82.154,24.551 82.03,21.965 81.123,19.396 C80.077,16.437 78.101,14.092 76.174,11.69 C73.978,8.954 71.084,7.267 67.951,5.915 C67.192,5.588 66.325,5.428 65.496,5.371 C63.383,5.225 61.263,5.106 59.147,5.117 C57.044,5.128 54.928,5.231 52.726,6.06 Z M26.726,73.23 C26.726,74.289 26.702,75.349 26.73,76.407 C26.778,78.099 26.656,79.827 26.974,81.469 C27.454,83.948 28.028,86.456 28.964,88.79 C30.408,92.391 31.42,96.269 34.487,99.025 C35.025,99.507 35.323,100.247 35.794,100.815 C36.467,101.628 37.159,102.431 37.911,103.167 C39.197,104.426 40.521,105.646 41.857,106.853 C42.641,107.559 43.459,108.23 44.299,108.871 C45.474,109.768 46.692,110.606 47.875,111.493 C50.935,113.786 54.066,115.979 57.8,117.021 C60.138,117.675 62.53,118.158 64.918,118.606 C66.676,118.937 68.513,118.912 70.231,119.365 C71.939,119.813 73.57,119.772 75.244,119.454 C79.624,118.622 84.03,118.174 88.489,118.554 C89.434,118.634 90.446,118.613 91.297,118.96 C94.365,120.213 97.523,120.003 100.693,119.749 C101.746,119.664 102.785,119.418 103.836,119.301 C112.369,118.359 119.921,114.833 126.921,110.144 C130.53,107.725 133.475,104.496 135.454,100.48 C138.549,94.198 141.055,87.688 143.14,81.017 C143.576,79.62 143.799,78.114 143.846,76.651 C143.942,73.69 143.766,70.72 143.858,67.759 C143.953,64.743 143.355,61.863 142.504,59.014 C142.327,58.418 142.128,57.736 141.712,57.325 C141.044,56.668 140.905,55.876 140.697,55.059 C139.121,48.824 136.017,43.267 132.824,37.784 C129.127,31.438 122.949,28.135 116.523,25.265 C115.794,24.938 114.86,25.055 114.018,25.003 C109.551,24.734 105.146,25.341 100.751,26.009 C97.41,26.518 94.036,26.921 90.909,28.35 C89.449,29.017 88.027,29.675 87.601,31.483 C87.401,32.334 86.777,33.085 85.885,33.178 C84.746,33.296 83.404,33.492 82.469,33.021 C81.226,32.394 80.043,32.381 78.801,32.441 C76.925,32.532 75.245,31.99 73.668,31.056 C72.666,30.463 71.586,29.936 70.74,29.16 C68.462,27.076 65.725,26.657 62.803,26.522 C60.624,26.422 58.647,27.25 56.565,27.514 C52.439,28.039 48.984,30.043 45.574,32.175 C44.595,32.788 43.55,33.442 42.85,34.327 C40.095,37.81 37.455,41.382 34.803,44.944 C34.365,45.531 34.054,46.221 33.73,46.886 C32.944,48.503 32.139,50.113 31.427,51.766 C30.632,53.609 29.878,55.474 29.201,57.364 C27.365,62.491 26.1,67.715 26.726,73.23 Z M100.271,122.252 C94.188,120.919 88.233,120.194 82.181,120.773 C80.606,120.925 79.059,121.355 77.488,121.581 C75.5,121.866 73.499,122.073 71.32,122.336 C71.207,123.04 71.005,123.739 70.999,124.439 C70.969,128.042 70.991,131.646 70.99,135.251 C70.99,135.992 71.02,136.739 70.945,137.475 C70.79,138.972 70.143,140.078 68.511,140.385 C66.862,140.693 65.237,141.221 63.577,141.37 C59.998,141.692 56.374,142.081 52.868,140.924 C51.276,140.399 49.747,139.648 48.25,138.88 C47.039,138.258 46.378,137.199 46.433,135.77 C46.458,135.135 46.413,134.497 46.446,133.863 C46.528,132.329 47.283,131.248 48.753,130.773 C52.998,129.401 57.231,128.941 61.404,131.069 C61.85,131.297 62.345,131.428 62.749,131.578 C63.685,130.799 63.423,129.886 63.362,129.097 C63.161,126.472 62.86,123.854 62.577,121.015 C61.718,120.3 60.389,120.197 59.197,119.951 C54.384,118.96 50.389,116.422 46.532,113.576 C45.257,112.635 43.962,111.72 42.709,110.751 C41.79,110.038 40.902,109.283 40.041,108.502 C38.786,107.362 37.532,106.218 36.343,105.011 C35.381,104.036 34.501,102.979 33.613,101.933 C33.203,101.45 32.907,100.864 32.474,100.405 C28.851,96.578 27.185,91.832 26.079,86.826 C25.701,85.114 25.106,83.511 23.47,82.669 C20.158,80.962 17.929,78.154 15.706,75.319 C15.184,74.653 14.677,73.972 14.116,73.339 C13.187,72.292 12.487,71.129 12.058,69.794 C11.864,69.189 11.651,68.581 11.357,68.022 C10.004,65.448 8.085,63.573 5.012,63.42 C3.433,63.342 2.182,62.601 0.939,61.801 C0.655,61.618 0.386,61.104 0.429,60.786 C0.511,60.173 1.116,59.969 1.65,60.05 C2.464,60.171 3.257,60.435 4.263,60.689 C4.258,59.888 3.605,59.663 3.307,59.239 C2.941,58.72 2.526,58.231 2.207,57.686 C1.851,57.074 1.248,56.452 1.891,55.685 C2.36,55.125 3.108,55.315 4.072,56.202 C4.452,56.55 4.826,56.905 5.215,57.243 C5.264,57.286 5.39,57.24 5.578,57.229 C5.325,56.091 4.963,54.975 4.86,53.836 C4.788,53.036 5.023,52.192 5.225,51.396 C5.274,51.201 5.735,50.998 6.001,51.004 C6.271,51.011 6.667,51.213 6.771,51.438 C6.986,51.905 7.036,52.445 7.165,52.953 C7.5,54.259 7.695,55.625 8.771,56.94 C9.18,56.364 9.639,56.004 9.687,55.595 C9.845,54.229 9.851,52.846 9.926,51.472 C9.962,50.837 9.994,50.201 10.081,49.573 C10.178,48.865 10.804,48.174 11.244,48.292 C11.952,48.482 12.223,49.06 12.282,49.733 C12.347,50.472 12.357,51.215 12.406,51.953 C12.481,53.105 12.569,54.255 12.641,55.251 C13.442,55.971 14.042,55.725 14.338,55.103 C14.79,54.153 15.011,53.097 15.443,52.137 C15.58,51.832 16.085,51.506 16.403,51.523 C16.735,51.542 17.235,51.907 17.324,52.219 C17.491,52.798 17.574,53.494 17.411,54.061 C16.44,57.427 15.486,60.823 12.263,63.015 C13.056,65.795 13.533,68.703 15.261,70.994 C17.716,74.249 20.06,77.675 23.498,79.928 C24.347,79.663 24.238,79.074 24.241,78.578 C24.257,75.291 24.197,72.004 24.277,68.721 C24.316,67.144 24.454,65.535 24.813,64.005 C26.028,58.84 27.643,53.814 30.059,49.052 C31.642,45.933 33,42.704 35.475,40.136 C35.618,39.987 35.712,39.785 35.808,39.597 C37.482,36.308 39.969,33.847 43.009,31.731 C46.167,29.535 49.41,27.586 53.049,26.39 C56.255,25.339 59.491,24.317 62.906,24.161 C63.297,23.523 62.804,23.216 62.438,22.861 C58.449,19.016 54.883,14.858 52.479,9.792 C51.823,8.41 51.407,7.062 51.604,5.461 C53.464,4.023 55.721,3.774 57.882,3.595 C60.511,3.376 63.176,3.52 65.822,3.615 C66.757,3.648 67.738,3.864 68.6,4.229 C72.038,5.681 75.282,7.44 77.674,10.447 C78.788,11.846 79.976,13.185 81.37,14.834 C81.579,14.059 81.79,13.614 81.804,13.162 C81.854,11.573 81.724,9.973 81.873,8.396 C82.032,6.72 82.342,5.046 82.753,3.412 C83.056,2.21 83.866,1.425 85.254,1.36 C86.091,1.321 86.914,1.034 87.752,0.941 C88.907,0.813 90.073,0.67 91.229,0.703 C92.998,0.754 93.538,1.283 93.572,2.991 C93.6,4.364 93.566,5.757 93.362,7.11 C92.921,10.043 92.112,12.89 91.271,15.739 C90.316,18.974 89.743,22.319 89.025,25.62 C88.962,25.91 89.065,26.235 89.089,26.521 C89.316,26.609 89.538,26.783 89.655,26.729 C92.954,25.197 96.551,24.743 100.012,23.797 C105.006,22.432 110.091,22.637 115.172,22.661 C116.809,22.669 118.244,23.378 119.661,24.114 C120.785,24.7 121.925,25.254 123.063,25.813 C125.648,27.08 127.935,28.759 130.042,30.715 C132.794,33.269 134.997,36.207 136.57,39.618 C136.747,39.999 136.969,40.375 137.239,40.694 C140.165,44.15 141.806,48.264 143.232,52.476 C144.149,55.184 144.924,57.94 145.862,60.641 C146.394,62.172 146.625,63.705 146.601,65.314 C146.539,69.342 146.52,73.369 146.492,77.396 C146.49,77.786 146.544,78.175 146.575,78.607 C147.7,78.752 148.291,78.065 148.894,77.536 C151.307,75.422 153.343,72.968 154.783,70.104 C156.353,66.982 157.761,63.784 158.416,60.306 C158.726,58.658 159.201,57.042 159.578,55.508 C156.825,52.699 156.34,49.229 155.862,45.782 C155.766,45.092 156.035,44.331 156.239,43.633 C156.306,43.402 156.686,43.149 156.945,43.122 C157.204,43.095 157.602,43.263 157.744,43.475 C158.031,43.901 158.218,44.407 158.388,44.899 C158.726,45.877 159.024,46.867 159.501,48.362 C159.901,47.559 160.183,47.243 160.2,46.916 C160.271,45.539 160.25,44.161 160.292,42.783 C160.309,42.259 160.303,41.693 160.498,41.225 C160.633,40.898 161.123,40.473 161.401,40.51 C161.849,40.566 162.484,40.877 162.625,41.241 C162.882,41.905 162.857,42.686 162.91,43.42 C162.976,44.333 163.001,45.249 163.042,46.118 C163.813,46.286 163.887,45.796 164.058,45.437 C164.646,44.196 165.191,42.936 165.823,41.719 C166.145,41.099 166.761,40.809 167.435,41.101 C168.147,41.41 168.158,42.121 167.987,42.733 C167.76,43.544 167.356,44.303 167.1,45.105 C166.917,45.677 166.852,46.286 166.691,47.091 C167.97,46.477 168.995,45.984 169.983,45.51 C171.133,46.564 171.247,46.817 170.671,47.575 C169.979,48.488 169.197,49.333 168.419,50.251 C169.389,50.511 170.286,50.707 171.147,51.01 C171.376,51.089 171.66,51.522 171.62,51.74 C171.554,52.105 171.326,52.607 171.03,52.73 C170.467,52.968 169.8,53.105 169.193,53.059 C167.714,52.946 166.524,53.483 165.391,54.354 C164.471,55.062 163.479,55.676 162.35,56.446 C161.917,58.04 161.428,59.765 160.983,61.5 C159.764,66.256 157.982,70.749 155.075,74.76 C152.926,77.724 150.34,80.21 147.134,81.958 C145.699,82.741 145.013,83.853 144.521,85.324 C142.638,90.951 140.503,96.477 137.83,101.79 C135.423,106.571 131.782,110.202 127.413,113.129 C122.093,116.69 116.23,119.126 110.133,121.018 C109.742,121.139 109.346,121.242 109.013,121.336 C108.241,122.98 109.504,124.292 109.426,125.759 C109.353,127.119 109.442,128.489 109.462,130.051 C110.285,129.89 110.89,129.825 111.462,129.649 C114.136,128.831 116.875,128.711 119.638,128.842 C120.266,128.87 120.916,128.923 121.509,129.11 C125.016,130.222 125.506,132.274 124.637,135.567 C124.45,136.275 123.668,137.038 122.97,137.354 C121.053,138.227 119.075,139.024 116.899,139.024 C113.931,139.024 110.962,138.974 107.996,139.054 C105.532,139.12 104.037,137.933 103.116,135.762 C101.528,132.018 100.729,128.099 100.458,124.057 C100.417,123.446 100.333,122.84 100.271,122.252 Z" id="Fill-22" fill="#4F251F"></path>
                <path d="M71.705,76.342 C74.081,78.603 76.368,79.599 79.189,79.478 C82.04,79.356 84.902,79.374 87.755,79.465 C89.98,79.535 91.9,78.673 93.759,77.693 C94.829,77.13 95.799,76.271 96.402,74.751 C88.162,75.281 80.21,75.793 71.705,76.342 Z M64.228,76.172 C64.073,76.821 63.888,77.313 63.848,77.815 C63.661,80.156 64.056,82.438 64.507,84.729 C65.152,88.017 66.849,90.563 69.494,92.566 C74.715,96.522 80.689,97.556 86.954,96.647 C91.955,95.923 96.381,93.576 100.337,90.42 C101.439,89.54 102.09,88.359 102.565,87.021 C104.056,82.829 104.075,78.523 103.694,74.176 C103.687,74.091 103.563,74.016 103.361,73.783 C102.243,73.477 101.034,73.707 99.888,74.093 C99.349,74.844 98.859,75.527 98.368,76.211 C95.764,79.838 92.145,81.501 87.764,81.584 C84.588,81.645 81.409,81.545 78.233,81.608 C76.805,81.637 75.484,81.372 74.284,80.654 C72.39,79.522 70.294,78.703 68.756,76.999 C68.376,76.578 67.705,76.289 67.129,76.207 C66.209,76.076 65.257,76.172 64.228,76.172 Z M77.277,73.957 C79.916,73.844 82.554,73.704 85.194,73.625 C90.283,73.474 95.286,72.593 100.316,71.939 C101.671,71.763 103.052,71.712 104.42,71.721 C105.234,71.727 105.811,72.319 105.848,73.155 C106.067,78.118 106.41,83.097 104.777,87.927 C104.152,89.775 103.151,91.364 101.563,92.536 C98.578,94.738 95.451,96.616 91.917,97.91 C86.854,99.763 81.751,99.837 76.619,98.716 C72.519,97.821 68.97,95.734 65.941,92.788 C64.466,91.353 63.397,89.668 62.749,87.745 C61.628,84.414 61.046,80.992 61.335,77.459 C61.501,75.451 62.013,74.798 64.006,74.617 C66.204,74.416 68.419,74.404 70.628,74.331 C72.846,74.257 75.064,74.206 77.283,74.146 L77.277,73.957 Z" id="Fill-23" fill="#4F251F"></path>
                <path d="M62.501,62.144 C62.289,62.681 62.153,63.313 61.819,63.811 C61.296,64.592 60.469,64.75 59.576,64.537 C58.889,64.373 58.533,63.873 58.328,63.244 C58.023,62.305 58.07,61.38 58.466,60.473 C58.82,59.662 59.561,59.202 60.475,59.233 C61.339,59.263 61.793,59.829 62.076,60.542 C62.267,61.021 62.347,61.545 62.501,62.144" id="Fill-24" fill="#4F251F"></path>
                <path d="M104.724,60.155 C104.708,61.214 104.134,61.949 103.323,61.982 C102.32,62.024 101.435,61.307 101.334,60.333 C101.303,60.023 101.322,59.692 101.398,59.392 C101.667,58.348 102.592,57.521 103.353,57.606 C104,57.678 104.552,58.482 104.683,59.558 C104.708,59.767 104.711,59.978 104.724,60.155" id="Fill-25" fill="#4F251F"></path>
                <path d="M64.228,76.172 C65.257,76.172 66.209,76.076 67.129,76.207 C67.705,76.289 68.376,76.578 68.756,76.999 C70.294,78.703 72.39,79.522 74.284,80.654 C75.484,81.372 76.805,81.637 78.233,81.608 C81.409,81.545 84.588,81.645 87.764,81.584 C92.145,81.501 95.764,79.838 98.368,76.211 C98.859,75.527 99.349,74.844 99.888,74.093 C101.034,73.707 102.243,73.477 103.361,73.783 C103.563,74.016 103.687,74.091 103.694,74.176 C104.075,78.523 104.056,82.829 102.565,87.021 C102.09,88.359 101.439,89.54 100.337,90.42 C96.381,93.576 91.955,95.923 86.954,96.647 C80.689,97.556 74.715,96.522 69.494,92.566 C66.849,90.563 65.152,88.017 64.507,84.729 C64.056,82.438 63.661,80.156 63.848,77.815 C63.888,77.313 64.073,76.821 64.228,76.172" id="Fill-26" fill="#DB2738"></path>
                <path d="M71.705,76.342 C80.21,75.793 88.162,75.281 96.402,74.751 C95.799,76.271 94.829,77.13 93.759,77.693 C91.9,78.673 89.98,79.535 87.755,79.465 C84.902,79.374 82.04,79.356 79.189,79.478 C76.368,79.599 74.081,78.603 71.705,76.342" id="Fill-27" fill="#FFFFFF"></path>
            </g>
        </g>
    </g>
</svg>