<?xml version="1.0" encoding="UTF-8"?>
<svg width="237px" height="200px" viewBox="0 0 237 200" version="1.1" xmlns="http://www.w3.org/2000/svg" xmlns:xlink="http://www.w3.org/1999/xlink">
    <!-- Generator: Sketch 49.3 (51167) - http://www.bohemiancoding.com/sketch -->
    <title>avatar9</title>
    <desc>Created with Sketch.</desc>
    <defs></defs>
    <g id="Page-2" stroke="none" stroke-width="1" fill="none" fill-rule="evenodd">
        <g id="114524-OOP7JI-483" transform="translate(-239.000000, -35.000000)">
            <g id="avatar9" transform="translate(239.000000, 35.000000)">
                <path d="M112.176,134.555 C111.387,132.802 110.585,131.054 109.75,129.322 C109.454,128.708 109.141,128.056 108.678,127.573 C105.771,124.534 102.753,121.658 98.789,119.948 C95.916,118.711 92.926,117.955 89.862,117.583 C87.196,117.262 84.517,117.708 81.861,118.113 C80.118,118.379 78.724,119.074 77.967,121.08 C78.895,121.72 79.804,122.331 80.692,122.967 C81.025,123.203 81.363,123.461 81.611,123.778 C81.983,124.252 81.865,125.01 81.426,125.481 C81.054,125.881 80.579,125.875 79.97,125.39 C77.649,123.541 75.102,122.069 72.54,120.583 C70.151,119.198 67.581,118.607 64.965,118.043 C64.301,117.899 63.596,117.848 62.916,117.884 C60.443,118.017 57.974,118.193 55.504,118.387 C55.039,118.423 54.513,118.511 54.141,118.764 C52.157,120.109 50.211,121.515 48.256,122.902 C48.146,122.981 48.063,123.1 47.964,123.193 C47.309,123.799 46.654,124.404 45.998,125.008 C44.611,126.282 43.557,127.745 42.916,129.562 C42.299,131.308 41.73,133.057 41.323,134.86 C41.248,135.193 41.125,135.519 41.014,135.844 C40.004,138.781 39.829,141.756 40.584,144.781 C40.698,145.242 40.756,145.72 40.812,146.193 C41.258,150.08 41.184,154.033 42.288,157.835 C42.346,158.033 42.338,158.248 42.39,158.446 C42.645,159.441 42.883,160.442 43.178,161.426 C43.375,162.082 43.716,162.698 43.893,163.358 C44.449,165.449 45.47,167.309 46.683,169.074 C48.442,171.635 50.546,173.913 52.72,176.112 C56.067,179.495 60.181,181.414 64.86,182.211 C67.498,182.662 70.117,183.24 72.756,183.7 C73.692,183.863 74.676,183.979 75.613,183.883 C77.11,183.728 78.594,183.411 80.069,183.104 C83.367,182.419 86.662,181.722 89.948,180.979 C91.42,180.646 92.946,180.368 94.307,179.754 C97.499,178.313 100.625,176.731 103.361,174.473 C104.71,173.359 105.852,172.122 106.644,170.555 C107.015,169.82 107.459,169.12 107.891,168.417 C111.218,163.021 112.808,158.944 113.852,152.716 C114.09,151.303 114.081,149.843 114.114,148.403 C114.205,144.175 113.097,140.087 112.596,135.928 C112.539,135.46 112.371,134.99 112.176,134.555" id="Fill-43" fill="#FF3B57"></path>
                <path d="M200.85,136.519 C200.778,135.973 200.755,135.423 200.71,134.873 C200.444,131.633 199.713,128.479 198.713,125.404 C197.196,120.743 195.198,116.307 192.387,112.25 C191.4,110.827 190.357,109.478 189.152,108.247 C186.956,106 184.418,104.302 181.435,103.237 C178.316,102.122 175.095,101.414 171.889,100.648 C171.689,100.601 171.479,100.597 171.274,100.58 C167.522,100.262 164.269,101.608 161.225,103.62 C158.865,105.178 156.885,107.201 154.747,109.03 C154.67,109.098 154.678,109.266 154.606,109.535 C155.002,109.585 155.384,109.663 155.766,109.673 C156.382,109.688 157.004,109.617 157.617,109.664 C158.071,109.7 158.47,110.261 158.438,110.71 C158.404,111.161 158.166,111.547 157.732,111.618 C156.787,111.775 155.816,111.969 154.872,111.913 C153.167,111.81 151.464,111.591 149.775,111.319 C148.069,111.042 146.376,110.865 144.648,111.078 C143.624,111.203 142.59,111.251 141.562,111.323 C138.756,111.515 136.201,112.466 133.797,113.88 C132.723,114.513 131.816,115.325 130.983,116.267 C130.145,117.22 129.729,118.381 129.101,119.436 C128.075,121.156 127.189,122.911 126.659,124.863 C126.385,125.88 126.228,126.852 126.323,127.898 C126.652,131.531 126.924,135.168 127.266,138.8 C127.347,139.68 127.544,140.566 127.813,141.408 C128.667,144.09 129.601,146.734 130.827,149.289 C132.369,152.506 133.719,155.8 135.546,158.896 C137.341,161.937 139.544,164.46 142.585,166.251 C143.355,166.706 144.078,167.246 144.864,167.664 C145.833,168.177 146.813,168.708 147.847,169.048 C149.674,169.647 151.54,170.127 153.401,170.617 C156.02,171.305 158.673,171.515 161.375,171.214 C163.7,170.957 166.037,170.803 168.37,170.615 C173.456,170.205 178.461,169.271 183.437,168.198 C184.967,167.868 186.496,167.317 187.88,166.589 C191.365,164.758 194.541,162.517 197.083,159.405 C198.523,157.642 199.534,155.766 199.959,153.563 C200.166,152.485 200.307,151.392 200.408,150.299 C200.542,148.861 200.525,147.407 200.723,145.979 C201.157,142.826 201.255,139.68 200.85,136.519" id="Fill-44" fill="#FF3B57"></path>
                <path d="M166.977,17.64 C165.269,14.74 162.897,12.45 160.141,10.576 C155.439,7.38 150.375,4.956 144.815,3.644 C139.146,2.308 133.383,2.025 127.599,2.335 C124.858,2.481 122.135,2.951 119.405,3.311 C116.011,3.759 112.893,4.964 110.045,6.867 C109.843,7.001 109.681,7.193 109.532,7.33 C109.723,7.783 110.035,7.722 110.287,7.725 C113.592,7.752 116.884,7.955 120.17,8.29 C120.988,8.375 121.816,8.426 122.64,8.432 C125.666,8.452 128.681,8.581 131.688,8.988 C134.479,9.365 137.309,9.56 139.995,10.467 C142.99,11.479 145.944,12.611 148.922,13.673 C149.851,14.003 150.645,14.526 151.357,15.186 C151.563,15.379 151.651,15.644 151.347,15.864 C147.809,15.264 144.459,14.038 141.11,12.825 C138.769,11.977 136.37,11.427 133.895,11.18 C132.39,11.029 130.894,10.789 129.39,10.654 C127.816,10.515 126.236,10.44 124.66,10.361 C122.944,10.275 121.225,10.251 119.513,10.139 C115.945,9.903 112.383,9.621 108.819,9.373 C108.151,9.327 107.463,9.214 106.827,9.562 C107.063,10.451 107.063,10.453 107.46,10.746 C108.344,11.399 109.302,11.972 110.1,12.717 C111.757,14.265 113.339,15.893 114.933,17.511 C116.089,18.687 117.179,19.933 118.356,21.088 C120.991,23.665 123.933,25.813 127.476,26.951 C131.896,28.372 136.46,29.066 141.093,28.849 C145.351,28.649 149.604,28.246 153.844,27.792 C157.306,27.422 160.454,25.971 163.54,24.457 C164.766,23.856 165.861,22.99 166.996,22.211 C167.438,21.907 167.817,21.512 168.21,21.173 C168.248,19.769 167.6,18.696 166.977,17.64" id="Fill-45" fill="#72C229"></path>
                <path d="M46.6,190.481 C47.517,190.241 48.239,190.148 48.984,190.419 C50.529,190.981 52.078,191.537 53.628,192.086 C54.338,192.339 55.043,192.624 55.775,192.794 C57.175,193.118 57.83,192.528 57.855,191.104 C57.885,189.531 57.963,187.958 58.05,186.385 C58.106,185.364 58.219,184.346 58.316,183.201 C59.594,183.267 60.701,183.926 61.928,184.323 C61.822,187.755 61.177,191.015 60.036,194.169 C59.761,194.929 59.247,195.613 58.782,196.29 C57.948,197.499 56.762,197.923 55.358,197.579 C53.771,197.19 52.108,196.994 50.793,195.837 C50.448,195.536 49.918,195.457 49.497,195.232 C47.672,194.255 46.527,192.848 46.6,190.481" id="Fill-46" fill="#FFBB00"></path>
                <path d="M104.912,189.228 C104.865,191.1 103.978,192.487 102.815,193.501 C101.22,194.894 99.365,195.986 97.104,196.047 C95.092,196.103 94.13,195.208 93.673,193.501 C93.28,192.042 92.982,190.554 92.498,189.127 C91.866,187.267 91.809,185.362 91.728,183.474 C92.473,182.674 93.457,182.971 94.355,182.542 C94.521,183.045 94.714,183.4 94.751,183.771 C94.924,185.55 95.045,187.335 95.203,189.116 C95.252,189.662 95.305,190.218 95.454,190.741 C95.765,191.842 97.017,192.199 97.649,191.283 C98.402,190.191 99.525,189.644 100.57,189.069 C101.91,188.333 103.432,188.055 104.912,189.228" id="Fill-47" fill="#FFBB00"></path>
                <path d="M209.801,165.207 C211.265,166.751 211.011,168.373 210.29,170.018 C209.963,170.767 209.563,171.486 209.176,172.208 C209.049,172.445 208.883,172.67 208.697,172.864 C208.03,173.552 207.328,174.204 206.678,174.906 C205.655,176.012 204.347,175.904 203.048,175.793 C202.807,175.772 202.561,175.546 202.368,175.363 C202.176,175.177 202.021,174.938 201.895,174.698 C201.156,173.3 200.186,172.08 199.158,170.882 C198.538,170.163 198.098,169.291 197.595,168.476 C196.88,167.32 196.183,166.151 195.433,164.915 C195.938,164.284 196.52,163.75 197.295,163.269 C197.526,163.588 197.768,163.833 197.901,164.125 C198.559,165.558 199.173,167.008 199.835,168.437 C200.062,168.925 200.313,169.436 200.675,169.822 C202.287,171.533 204.257,171.575 205.89,169.869 C206.641,169.084 207.239,168.142 207.842,167.229 C208.374,166.426 208.992,165.743 209.801,165.207" id="Fill-48" fill="#FFBB00"></path>
                <path d="M152.864,182.188 C153.257,182.173 153.67,182.068 154.032,182.159 C155.623,182.564 157.197,183.029 158.779,183.462 C159.174,183.571 159.575,183.685 159.98,183.719 C161.083,183.813 161.662,183.281 161.63,182.167 C161.564,179.843 161.889,177.517 161.55,175.196 C161.493,174.808 161.602,174.396 161.642,173.91 C162.219,173.862 162.732,173.82 163.357,173.768 C163.576,175.668 164.03,177.458 163.586,179.313 C163.491,179.706 163.444,180.135 163.493,180.534 C163.728,182.485 163.175,184.335 162.814,186.208 C162.751,186.541 162.657,186.881 162.504,187.18 C161.979,188.209 161.048,188.746 159.962,188.407 C158.543,187.964 157.012,187.765 155.82,186.707 C155.366,186.303 154.79,186.03 154.251,185.733 C152.841,184.961 152.423,183.805 152.864,182.188" id="Fill-49" fill="#FFBB00"></path>
                <path d="M177.717,134.894 C178.629,134.819 179.506,134.746 180.41,134.671 C181.085,135.634 181.357,136.69 181.441,137.784 C181.651,140.521 181.795,143.264 182,146 C182.101,147.338 181.625,148.469 180.701,149.337 C179.406,150.555 178.023,151.634 176.223,152.148 C174.157,152.735 172.079,153.124 169.946,153.163 C169.002,153.178 168.029,153.042 167.107,152.821 C164.617,152.227 163.373,150.476 162.904,148.064 C162.839,147.729 162.844,147.357 162.691,147.064 C161.919,145.56 162.009,143.874 161.535,142.203 C162.004,141.891 162.434,141.604 162.881,141.309 C163.561,141.695 164.18,141.992 164.739,142.377 C165.458,142.872 166.234,143.033 167.08,142.98 C167.628,142.944 168.176,142.865 168.723,142.878 C170.903,142.931 172.749,142.173 174.279,140.633 C175.688,139.216 176.91,137.675 177.492,135.717 C177.568,135.459 177.634,135.2 177.717,134.894" id="Fill-50" fill="#FF5E3B"></path>
                <path d="M175.465,135.614 C174.538,137.743 173.193,139.406 171.26,140.558 C170.926,140.758 170.486,140.824 170.088,140.872 C169.065,140.993 168.037,141.048 167.016,141.164 C166.129,141.268 165.423,140.985 164.786,140.233 C167.314,138.222 170.38,137.358 173.212,136.044 C173.862,135.742 174.563,135.4 175.465,135.614" id="Fill-51" fill="#FFFFFF"></path>
                <path d="M53.261,158.938 C51.932,159.042 50.809,159.138 49.824,158.548 C49.193,158.171 48.549,157.71 48.11,157.136 C47.175,155.909 47.566,154.097 48.967,153.458 C50.389,152.809 51.896,152.296 53.415,151.925 C55.019,151.533 56.348,152.365 57.507,153.371 C58.084,153.871 58.311,154.621 58.35,155.407 C58.386,156.151 58.14,156.758 57.533,157.185 C56.178,158.138 54.779,158.997 53.261,158.938" id="Fill-52" fill="#E52004"></path>
                <path d="M104.181,155.869 C103.093,155.948 101.998,156.108 100.946,155.649 C99.837,155.165 99.237,154.095 99.552,152.995 C99.783,152.191 100.224,151.401 101.019,151.116 C102.678,150.526 104.322,149.774 106.143,149.876 C106.673,149.904 107.225,150.063 107.707,150.285 C108.773,150.773 109.035,151.432 108.744,152.604 C108.102,155.191 107.679,155.552 104.999,155.801 C104.726,155.827 104.454,155.846 104.181,155.869" id="Fill-53" fill="#E52004"></path>
                <path d="M192.967,124.592 C193.081,124.595 193.632,124.563 194.166,124.635 C194.92,124.736 195.392,125.198 195.555,125.949 C195.845,127.276 195.719,128.458 194.787,129.591 C193.739,130.872 192.443,131.659 190.906,132.11 C189.971,132.385 189.027,132.392 188.096,131.999 C186.819,131.46 186.191,130.53 186.19,129.135 C186.191,128.235 186.532,127.557 187.266,127.052 C188.051,126.512 188.825,125.958 189.606,125.412 C190.488,124.796 191.509,124.699 192.967,124.592" id="Fill-54" fill="#E52004"></path>
                <path d="M147.297,149.218 C147.381,150.363 146.817,151.492 145.654,152.273 C144.203,153.244 142.504,153.572 140.838,153.942 C140.212,154.082 139.553,153.811 139.243,153.229 C138.83,152.452 138.464,151.627 138.251,150.779 C138.01,149.827 138.442,148.97 139.243,148.469 C141.005,147.365 142.91,146.607 145.039,146.677 C146.291,146.717 147.137,147.623 147.297,149.218" id="Fill-55" fill="#E52004"></path>
                <path d="M152.864,182.188 C152.423,183.805 152.841,184.961 154.251,185.733 C154.79,186.03 155.366,186.303 155.82,186.707 C157.012,187.765 158.543,187.964 159.962,188.407 C161.048,188.746 161.979,188.209 162.504,187.18 C162.657,186.881 162.751,186.541 162.814,186.208 C163.175,184.335 163.728,182.485 163.493,180.534 C163.444,180.135 163.491,179.706 163.586,179.313 C164.03,177.458 163.576,175.668 163.357,173.768 C162.732,173.82 162.219,173.862 161.642,173.91 C161.602,174.396 161.493,174.808 161.55,175.196 C161.889,177.517 161.564,179.843 161.63,182.167 C161.662,183.281 161.083,183.813 159.98,183.719 C159.575,183.685 159.174,183.571 158.779,183.462 C157.197,183.029 155.623,182.564 154.032,182.159 C153.67,182.068 153.257,182.173 152.864,182.188 Z M209.801,165.207 C208.992,165.743 208.374,166.426 207.842,167.229 C207.239,168.142 206.641,169.084 205.89,169.869 C204.257,171.575 202.287,171.533 200.675,169.822 C200.313,169.436 200.062,168.925 199.835,168.437 C199.173,167.008 198.559,165.558 197.901,164.125 C197.768,163.833 197.526,163.588 197.295,163.269 C196.52,163.75 195.938,164.284 195.433,164.915 C196.183,166.151 196.88,167.32 197.595,168.476 C198.098,169.291 198.538,170.163 199.158,170.882 C200.186,172.08 201.156,173.3 201.895,174.698 C202.021,174.938 202.176,175.177 202.368,175.363 C202.561,175.546 202.807,175.772 203.048,175.793 C204.347,175.904 205.655,176.012 206.678,174.906 C207.328,174.204 208.03,173.552 208.697,172.864 C208.883,172.67 209.049,172.445 209.176,172.208 C209.563,171.486 209.963,170.767 210.29,170.018 C211.011,168.373 211.265,166.751 209.801,165.207 Z M104.912,189.228 C103.432,188.055 101.91,188.333 100.57,189.069 C99.525,189.644 98.402,190.191 97.649,191.283 C97.017,192.199 95.765,191.842 95.454,190.741 C95.305,190.218 95.252,189.662 95.203,189.116 C95.045,187.335 94.924,185.55 94.751,183.771 C94.714,183.4 94.521,183.045 94.355,182.542 C93.457,182.971 92.473,182.674 91.728,183.474 C91.809,185.362 91.866,187.267 92.498,189.127 C92.982,190.554 93.28,192.042 93.673,193.501 C94.13,195.208 95.092,196.103 97.104,196.047 C99.365,195.986 101.22,194.894 102.815,193.501 C103.978,192.487 104.865,191.1 104.912,189.228 Z M46.6,190.481 C46.527,192.848 47.672,194.255 49.497,195.232 C49.918,195.457 50.448,195.536 50.793,195.837 C52.108,196.994 53.771,197.19 55.358,197.579 C56.762,197.923 57.948,197.499 58.782,196.29 C59.247,195.613 59.761,194.929 60.036,194.169 C61.177,191.015 61.822,187.755 61.928,184.323 C60.701,183.926 59.594,183.267 58.316,183.201 C58.219,184.346 58.106,185.364 58.05,186.385 C57.963,187.958 57.885,189.531 57.855,191.104 C57.83,192.528 57.175,193.118 55.775,192.794 C55.043,192.624 54.338,192.339 53.628,192.086 C52.078,191.537 50.529,190.981 48.984,190.419 C48.239,190.148 47.517,190.241 46.6,190.481 Z M106.827,9.562 C107.063,10.451 107.063,10.453 107.46,10.746 C108.344,11.399 109.302,11.972 110.1,12.717 C111.757,14.265 113.339,15.893 114.933,17.511 C116.089,18.687 117.179,19.933 118.356,21.088 C120.991,23.665 123.933,25.813 127.476,26.951 C131.896,28.372 136.46,29.066 141.093,28.849 C145.351,28.649 149.604,28.246 153.844,27.792 C157.306,27.422 160.454,25.971 163.54,24.457 C164.766,23.856 165.861,22.99 166.996,22.211 C167.438,21.907 167.817,21.512 168.21,21.173 C168.248,19.769 167.6,18.696 166.977,17.64 C165.269,14.74 162.897,12.45 160.141,10.576 C155.439,7.38 150.375,4.956 144.815,3.644 C139.146,2.308 133.383,2.025 127.599,2.335 C124.858,2.481 122.135,2.951 119.405,3.311 C116.011,3.759 112.893,4.964 110.045,6.867 C109.843,7.001 109.681,7.193 109.532,7.33 C109.723,7.783 110.035,7.722 110.287,7.725 C113.592,7.752 116.884,7.955 120.17,8.29 C120.988,8.375 121.816,8.426 122.64,8.432 C125.666,8.452 128.681,8.581 131.688,8.988 C134.479,9.365 137.309,9.56 139.995,10.467 C142.99,11.479 145.944,12.611 148.922,13.673 C149.851,14.003 150.645,14.526 151.357,15.186 C151.563,15.379 151.651,15.644 151.347,15.864 C147.809,15.264 144.459,14.038 141.11,12.825 C138.769,11.977 136.37,11.427 133.895,11.18 C132.39,11.029 130.894,10.789 129.39,10.654 C127.816,10.515 126.236,10.44 124.66,10.361 C122.944,10.275 121.225,10.251 119.513,10.139 C115.945,9.903 112.383,9.621 108.819,9.373 C108.151,9.327 107.463,9.214 106.827,9.562 Z M154.606,109.535 C155.002,109.585 155.384,109.663 155.766,109.673 C156.382,109.688 157.004,109.617 157.617,109.664 C158.071,109.7 158.47,110.261 158.438,110.71 C158.404,111.161 158.166,111.547 157.732,111.618 C156.787,111.775 155.816,111.969 154.872,111.913 C153.167,111.81 151.464,111.591 149.775,111.319 C148.069,111.042 146.376,110.865 144.648,111.078 C143.624,111.203 142.59,111.251 141.562,111.323 C138.756,111.515 136.201,112.466 133.797,113.88 C132.723,114.513 131.816,115.325 130.983,116.267 C130.145,117.22 129.729,118.381 129.101,119.436 C128.075,121.156 127.189,122.911 126.659,124.863 C126.385,125.88 126.228,126.852 126.323,127.898 C126.652,131.531 126.924,135.168 127.266,138.8 C127.347,139.68 127.544,140.566 127.813,141.408 C128.667,144.09 129.601,146.734 130.827,149.289 C132.369,152.506 133.719,155.8 135.546,158.896 C137.341,161.937 139.544,164.46 142.585,166.251 C143.355,166.706 144.078,167.246 144.864,167.664 C145.833,168.177 146.813,168.708 147.847,169.048 C149.674,169.647 151.54,170.127 153.401,170.617 C156.02,171.305 158.673,171.515 161.375,171.214 C163.7,170.957 166.037,170.803 168.37,170.615 C173.456,170.205 178.461,169.271 183.437,168.198 C184.967,167.868 186.496,167.317 187.88,166.589 C191.365,164.758 194.541,162.517 197.083,159.405 C198.523,157.642 199.534,155.766 199.959,153.563 C200.166,152.485 200.307,151.392 200.408,150.299 C200.542,148.861 200.525,147.407 200.723,145.979 C201.157,142.826 201.255,139.68 200.85,136.519 C200.778,135.973 200.755,135.423 200.71,134.873 C200.444,131.633 199.713,128.479 198.713,125.404 C197.196,120.743 195.198,116.307 192.387,112.25 C191.4,110.827 190.357,109.478 189.152,108.247 C186.956,106 184.418,104.302 181.435,103.237 C178.316,102.122 175.095,101.414 171.889,100.648 C171.689,100.601 171.479,100.597 171.274,100.58 C167.522,100.262 164.269,101.608 161.225,103.62 C158.865,105.178 156.885,107.201 154.747,109.03 C154.67,109.098 154.678,109.266 154.606,109.535 Z M77.967,121.08 C78.895,121.72 79.804,122.331 80.692,122.967 C81.025,123.203 81.363,123.461 81.611,123.778 C81.983,124.252 81.865,125.01 81.426,125.481 C81.054,125.881 80.579,125.875 79.97,125.39 C77.649,123.541 75.102,122.069 72.54,120.583 C70.151,119.198 67.581,118.607 64.965,118.043 C64.301,117.899 63.596,117.848 62.916,117.884 C60.443,118.017 57.974,118.193 55.504,118.387 C55.039,118.423 54.513,118.511 54.141,118.764 C52.157,120.109 50.211,121.515 48.256,122.902 C48.146,122.981 48.063,123.1 47.964,123.193 C47.309,123.799 46.654,124.404 45.998,125.008 C44.611,126.282 43.557,127.745 42.916,129.562 C42.299,131.308 41.73,133.057 41.323,134.86 C41.248,135.193 41.125,135.519 41.014,135.844 C40.004,138.781 39.829,141.756 40.584,144.781 C40.698,145.242 40.756,145.72 40.812,146.193 C41.258,150.08 41.184,154.033 42.288,157.835 C42.346,158.033 42.338,158.248 42.39,158.446 C42.645,159.441 42.883,160.442 43.178,161.426 C43.375,162.082 43.716,162.698 43.893,163.358 C44.449,165.449 45.47,167.309 46.683,169.074 C48.442,171.635 50.546,173.913 52.72,176.112 C56.067,179.495 60.181,181.414 64.86,182.211 C67.498,182.662 70.117,183.24 72.756,183.7 C73.692,183.863 74.676,183.979 75.613,183.883 C77.11,183.728 78.594,183.411 80.069,183.104 C83.367,182.419 86.662,181.722 89.948,180.979 C91.42,180.646 92.946,180.368 94.307,179.754 C97.499,178.313 100.625,176.731 103.361,174.473 C104.71,173.359 105.852,172.122 106.644,170.555 C107.015,169.82 107.459,169.12 107.891,168.417 C111.218,163.021 112.808,158.944 113.852,152.716 C114.09,151.303 114.081,149.843 114.114,148.403 C114.205,144.175 113.097,140.087 112.596,135.928 C112.539,135.46 112.371,134.99 112.176,134.555 C111.387,132.802 110.585,131.054 109.75,129.322 C109.454,128.708 109.141,128.056 108.678,127.573 C105.771,124.534 102.753,121.658 98.789,119.948 C95.916,118.711 92.926,117.955 89.862,117.583 C87.196,117.262 84.517,117.708 81.861,118.113 C80.118,118.379 78.724,119.074 77.967,121.08 Z M103.36,12.569 C103.36,12.96 103.308,13.178 103.366,13.362 C103.89,15.021 103.997,16.739 104.141,18.453 C104.477,22.43 104.863,26.405 105.149,30.387 C105.296,32.442 105.326,34.508 105.31,36.568 C105.293,38.698 105.078,40.826 105.084,42.955 C105.096,46.806 104.672,50.64 104.797,54.497 C104.85,56.13 104.756,57.811 104.182,59.383 C103.563,61.08 103.245,62.841 103.066,64.615 C102.913,66.138 102.557,67.586 102.074,69.027 C101.729,70.066 101.293,71.134 101.25,72.205 C101.158,74.435 100.37,76.483 99.87,78.604 C99.554,79.941 99.021,81.206 98.449,82.468 C97.778,83.952 97.348,85.541 96.778,87.071 C96.397,88.096 95.959,89.102 95.541,90.114 C95.097,91.19 94.659,92.272 94.188,93.337 C93.831,94.152 93.445,94.959 93.035,95.749 C92.434,96.908 91.745,98.024 91.188,99.202 C89.518,102.749 87.593,106.146 85.419,109.411 C84.28,111.121 83.268,112.918 82.208,114.683 C82.043,114.958 81.933,115.267 81.678,115.821 C82.856,115.784 83.79,115.674 84.721,115.589 C87.53,115.331 90.287,115.247 93.117,115.868 C95.633,116.42 98.021,117.196 100.332,118.246 C101.704,118.87 103.076,119.562 104.288,120.442 C105.785,121.531 107.096,122.872 108.523,124.059 C110.534,125.73 111.842,127.893 112.954,130.2 C114.186,132.751 115.277,135.342 115.364,138.244 C115.384,138.854 115.602,139.456 115.718,140.063 C116.441,143.862 116.918,147.705 116.49,151.554 C116.01,155.868 115.036,160.091 113.165,164.056 C113.051,164.295 112.999,164.563 112.896,164.883 C113.755,165.799 114.636,166.666 115.432,167.606 C116.629,169.022 117.784,170.474 118.922,171.936 C119.513,172.695 120.015,173.522 120.583,174.297 C121.027,174.906 121.467,175.496 122.337,175.603 C123.001,175.686 125.414,175.918 125.769,175.757 C127.391,175.019 129.065,174.348 130.063,172.716 C130.278,172.366 130.592,172.079 130.823,171.736 C132.891,168.685 134.035,165.36 133.696,161.63 C133.644,161.031 133.51,160.373 133.201,159.877 C131.923,157.828 130.865,155.683 129.912,153.466 C128.501,150.185 126.874,146.994 125.844,143.561 C125.448,142.25 124.919,140.982 124.817,139.578 C124.528,135.528 124.169,131.483 123.849,127.434 C123.808,126.888 123.691,126.284 123.863,125.796 C124.483,124.054 124.71,122.174 125.695,120.556 C126.301,119.56 126.996,118.58 127.387,117.498 C128.084,115.561 129.425,114.271 131.088,113.222 C132.25,112.489 133.42,111.768 134.595,111.059 C134.884,110.883 135.199,110.733 135.521,110.635 C137.556,110.021 139.63,109.52 141.62,108.791 C143.195,108.212 144.785,107.918 146.436,107.794 C146.953,107.756 147.555,107.88 147.93,107.372 C147.586,105.814 147.252,104.291 146.908,102.769 C146.861,102.569 146.766,102.381 146.691,102.19 C146.064,100.522 145.46,98.845 144.8,97.19 C144.141,95.538 143.412,93.913 142.742,92.266 C142.408,91.442 142.192,90.565 141.825,89.758 C140.857,87.633 139.848,85.529 138.833,83.426 C136.983,79.585 135.053,75.782 133.28,71.907 C131.879,68.844 130.618,65.714 129.373,62.583 C126.907,56.384 124.498,50.163 121.739,44.086 C120.945,42.334 120.092,40.608 119.252,38.877 C117.992,36.279 116.724,33.686 115.455,31.093 C114.548,29.24 113.633,27.392 112.727,25.539 C112.217,24.49 111.465,23.58 110.918,22.578 C110.385,21.601 109.77,20.718 109.108,19.845 C108.443,18.967 107.817,18.063 107.168,17.177 C106.193,15.847 105.225,14.513 104.223,13.203 C104.04,12.963 103.72,12.827 103.36,12.569 Z M111.996,17.578 C112.156,18.015 112.242,18.498 112.486,18.881 C113.818,20.979 114.936,23.177 115.835,25.496 C116.255,26.581 116.861,27.594 117.396,28.632 C118.216,30.218 119.115,31.767 119.857,33.39 C121.376,36.702 122.799,40.06 124.288,43.385 C125.046,45.079 125.881,46.741 126.655,48.426 C127.717,50.739 128.756,53.06 129.807,55.375 C130.799,57.559 131.808,59.735 132.78,61.931 C133.225,62.934 133.603,63.97 134.003,64.993 C134.479,66.207 134.939,67.429 135.42,68.642 C136.028,70.173 136.611,71.717 137.273,73.226 C139.235,77.693 141.142,82.182 143.453,86.492 C145.764,90.801 147.439,95.401 149.401,99.871 C149.761,100.691 150.136,101.504 150.46,102.336 C150.906,103.486 151.309,104.653 151.741,105.808 C151.907,106.25 152.105,106.683 152.268,107.067 C153.084,107.317 153.513,106.798 153.982,106.422 C155.537,105.175 157.106,103.942 158.616,102.645 C160.1,101.372 161.788,100.547 163.58,99.781 C166.063,98.719 168.606,98.434 171.237,98.448 C171.647,98.451 172.071,98.46 172.469,98.552 C176.35,99.453 180.259,100.25 183.94,101.871 C185.531,102.57 187.016,103.41 188.353,104.506 C190.706,106.434 192.739,108.625 194.473,111.159 C197.139,115.056 199.219,119.215 200.679,123.685 C201.076,124.898 201.748,125.712 202.898,126.186 C203.47,126.421 204.017,126.724 204.603,126.915 C207.744,127.946 210.934,128.741 214.229,129.14 C218.093,129.607 221.901,129.115 225.81,128.758 C226.074,127.068 226.316,125.458 226.583,123.854 C226.708,123.108 226.875,122.369 227.04,121.631 C227.21,120.885 227.593,120.497 228.054,120.566 C228.529,120.64 228.852,121.086 228.859,121.851 C228.863,122.466 228.753,123.081 228.708,123.696 C228.679,124.08 228.678,124.465 228.648,125.297 C229.406,124.233 229.893,123.51 230.427,122.822 C230.67,122.507 230.968,122.168 231.316,122.022 C231.566,121.918 231.996,122.044 232.247,122.213 C232.412,122.327 232.524,122.742 232.451,122.946 C232.242,123.523 231.925,124.059 231.652,124.612 C231.425,125.077 230.952,125.461 231.142,126.076 C231.786,126.37 232.185,125.855 232.665,125.651 C233.167,125.436 233.636,125.112 234.155,124.978 C234.566,124.873 235.023,125.11 235.119,125.554 C235.178,125.833 235.062,126.266 234.861,126.458 C234.473,126.83 233.968,127.083 233.487,127.4 C233.669,127.841 233.841,128.259 234.021,128.7 C234.447,128.718 234.861,128.708 235.267,128.762 C235.854,128.838 236.19,129.203 236.161,129.691 C236.133,130.159 235.861,130.456 235.412,130.542 C234.939,130.634 234.45,130.631 233.983,130.745 C233.676,130.821 233.399,131.028 233.03,131.215 C233.189,131.609 233.295,131.927 233.441,132.223 C233.658,132.652 233.612,133.107 233.265,133.343 C232.96,133.549 232.501,133.564 232.107,133.583 C231.938,133.59 231.758,133.392 231.577,133.296 C230.427,132.685 229.278,132.067 228.119,131.474 C227.889,131.355 227.604,131.279 227.348,131.283 C224.748,131.325 222.15,131.118 219.549,131.436 C216.937,131.754 214.316,131.408 211.75,130.934 C208.709,130.374 205.697,129.643 202.834,128.416 C202.72,128.367 202.575,128.383 202.435,128.367 C202.036,128.607 202.219,128.965 202.298,129.266 C203.243,132.89 203.357,136.616 203.643,140.317 C203.727,141.407 203.59,142.516 203.51,143.613 C203.331,146.012 203.163,148.414 202.91,150.806 C202.761,152.236 202.521,153.664 202.214,155.069 C201.748,157.188 200.834,159.095 199.313,160.685 C199.031,160.978 198.811,161.327 198.5,161.729 C199.772,163.47 200.67,165.382 201.47,167.345 C201.574,167.599 201.669,167.862 201.813,168.094 C202.608,169.372 203.696,169.518 204.669,168.401 C205.297,167.677 205.75,166.804 206.359,166.063 C207.098,165.163 207.861,164.271 208.714,163.486 C209.557,162.71 210.769,162.895 211.422,163.824 C213.017,166.093 213.278,168.485 211.999,170.995 C211.626,171.728 211.305,172.488 210.904,173.204 C210.675,173.616 210.359,173.991 210.035,174.337 C209.615,174.787 209.122,175.167 208.705,175.619 C206.836,177.644 205.976,178.036 203.275,177.885 C202.113,177.821 201.187,177.257 200.562,176.25 C198.644,173.162 196.109,170.477 194.579,167.128 C194.418,166.774 194.097,166.493 193.788,166.097 C193.306,166.382 192.89,166.597 192.508,166.858 C189.459,168.941 186.168,170.354 182.5,171.022 C177.423,171.946 172.365,172.967 167.205,173.345 C166.869,173.371 166.534,173.45 166.276,173.491 C165.627,174.062 165.549,174.723 165.612,175.432 C165.675,176.118 165.763,176.803 165.775,177.49 C165.788,178.103 165.721,178.717 165.673,179.329 C165.637,179.807 165.495,180.29 165.538,180.758 C165.736,182.923 165.119,184.974 164.718,187.057 C164.668,187.325 164.582,187.598 164.456,187.838 C163.285,190.04 161.809,190.889 159.418,190.397 C156.58,189.814 154.223,188.307 151.976,186.584 C151.23,186.011 150.817,185.233 150.736,184.292 C150.685,183.675 150.59,183.056 150.604,182.441 C150.639,181.066 151.341,180.25 152.718,180.091 C153.384,180.013 154.093,180.088 154.752,180.229 C156.285,180.556 157.804,180.965 159.41,181.362 C159.789,180.147 159.856,178.909 159.896,177.685 C159.93,176.53 159.826,175.371 159.783,174.16 C159.614,174.104 159.43,173.989 159.242,173.989 C156.257,173.975 153.38,173.308 150.521,172.535 C149.593,172.284 148.678,171.981 147.751,171.718 C146.083,171.248 144.518,170.562 143.082,169.581 C142.344,169.078 141.59,168.592 140.814,168.147 C139.31,167.278 137.979,166.206 136.826,164.906 C136.619,164.673 136.33,164.51 135.961,164.224 C135.781,165.134 135.652,165.86 135.492,166.58 C134.832,169.515 133.622,172.18 131.629,174.466 C130.958,175.236 130.348,176.059 129.758,176.796 C129.945,177.546 130.143,178.134 130.236,178.737 C130.511,180.504 129.547,182.256 127.871,182.854 C127.148,183.112 126.467,183.303 125.938,183.919 C125.479,184.458 124.832,184.473 124.245,184.116 C123.604,183.726 122.922,183.346 122.407,182.818 C121.691,182.083 121.102,181.227 120.479,180.403 C120.005,179.776 119.815,179.027 119.849,178.262 C119.89,177.292 119.47,176.576 118.889,175.853 C118.203,174.997 117.656,174.031 117.002,173.149 C115.979,171.771 114.935,170.405 113.857,169.07 C113.267,168.335 112.584,167.673 111.904,166.939 C111.701,167.146 111.531,167.262 111.438,167.421 C110.633,168.784 109.748,170.109 109.071,171.533 C107.872,174.048 105.945,175.851 103.744,177.443 C102.069,178.656 100.367,179.805 98.456,180.628 C97.839,180.894 97.275,181.285 96.649,181.642 C96.722,183.934 96.994,186.105 97.178,188.23 C97.823,188.541 98.204,188.198 98.579,187.913 C100.815,186.213 103.292,186.311 105.835,186.944 C106.262,187.051 106.543,187.364 106.625,187.81 C106.908,189.319 106.994,190.785 106.188,192.216 C105.149,194.055 103.802,195.479 101.94,196.567 C100.127,197.627 98.238,197.961 96.234,198.016 C95.769,198.03 95.291,197.917 94.833,197.801 C92.819,197.301 92.089,195.757 91.705,193.924 C91.48,192.85 91.288,191.758 90.942,190.723 C90.328,188.883 89.876,187.023 89.813,185.078 C89.803,184.747 89.714,184.418 89.664,184.106 C89.026,183.799 88.495,184.043 87.985,184.148 C84.958,184.776 81.946,185.48 78.911,186.064 C76.334,186.561 73.766,186.734 71.148,186.004 C68.979,185.399 66.715,185.129 64.491,184.709 C63.952,185.342 63.742,185.958 63.728,186.664 C63.675,189.524 62.778,192.214 61.879,194.873 C61.497,196.009 60.693,197.041 59.93,198.001 C58.634,199.631 56.807,199.974 54.893,199.521 C53.104,199.099 51.219,198.84 49.754,197.534 C49.559,197.36 49.264,197.293 49.007,197.198 C47.152,196.505 45.962,195.104 45.092,193.416 C44.439,192.153 44.504,190.749 44.546,189.375 C44.559,188.933 44.891,188.566 45.325,188.522 C46.939,188.358 48.519,187.894 50.166,188.705 C51.696,189.459 53.381,189.897 55.002,190.458 C55.186,190.522 55.406,190.486 55.721,190.501 C56.163,187.726 56.573,184.962 56.521,182.196 C50.069,178.154 42.851,170.847 39.788,159.268 C35.576,161.999 31.016,163.915 26.221,165.153 C21.405,166.395 16.441,166.528 11.431,166.407 C10.33,167.671 8.93,168.706 8.13,170.27 C8.015,170.498 7.771,170.678 7.552,170.83 C7.162,171.099 6.455,170.821 6.419,170.346 C6.384,169.887 6.412,169.38 6.574,168.958 C6.788,168.401 7.161,167.905 7.462,167.388 C6.93,166.853 6.419,166.943 5.913,167.224 C5.494,167.457 5.121,167.8 4.677,167.959 C4.112,168.165 3.5,168.305 2.903,168.324 C2.671,168.332 2.284,167.965 2.224,167.709 C2.163,167.45 2.357,167.065 2.552,166.83 C2.71,166.641 3.036,166.596 3.285,166.481 C3.959,166.169 4.556,165.757 5.358,165.044 C4.229,164.936 3.44,165.107 2.655,165.108 C2.107,165.11 1.542,165.163 1.017,165.048 C0.753,164.991 0.412,164.633 0.375,164.373 C0.339,164.121 0.585,163.719 0.824,163.564 C1.155,163.349 1.59,163.272 1.991,163.19 C2.524,163.082 3.067,163.026 3.759,162.924 C3.472,162.21 2.901,162.002 2.381,161.817 C1.729,161.584 1.053,161.42 0.604,160.846 C0.494,160.705 0.415,160.458 0.461,160.301 C0.508,160.14 0.706,159.953 0.873,159.907 C1.92,159.616 2.912,159.822 3.866,160.303 C4.525,160.635 5.15,161.087 5.95,161.017 C6.154,160.521 5.737,160.406 5.564,160.169 C5.082,159.506 4.578,158.857 4.11,158.184 C3.891,157.869 3.944,157.522 4.199,157.239 C4.506,156.896 4.922,156.802 5.319,156.985 C5.615,157.122 5.863,157.382 6.104,157.615 C7.777,159.24 9.441,160.874 11.112,162.5 C11.208,162.594 11.325,162.69 11.451,162.729 C13.015,163.217 14.58,163.695 16.146,164.175 C19.703,163.836 23.309,163.784 26.748,162.67 C30.02,161.61 33.262,160.459 36.29,158.801 C37.31,158.243 38.276,157.586 39.247,156.987 C39.137,155.644 39.066,154.414 38.924,153.192 C38.79,152.035 38.537,150.893 38.41,149.737 C38.053,146.463 37.504,143.222 37.834,139.881 C38.026,137.946 38.519,136.109 38.862,134.225 C39.387,131.338 40.601,128.729 41.771,126.099 C42.674,124.072 44,122.32 45.739,120.911 C46.328,120.434 46.977,120.019 47.503,119.483 C49.847,117.095 52.763,116.072 56.014,115.839 C57.372,115.742 58.723,115.448 60.105,115.868 C60.66,116.036 61.333,115.859 61.947,115.792 C63.609,115.605 65.234,115.743 66.853,116.167 C68.579,116.622 70.34,116.931 71.981,117.693 C73.019,118.175 74.341,117.795 75.107,116.893 C76.131,115.688 77.207,114.553 78.377,113.473 C80.19,111.797 81.618,109.766 83.009,107.711 C84.259,105.866 85.174,103.881 85.923,101.809 C86.845,99.267 88.453,97.081 89.552,94.635 C90,93.632 90.465,92.635 90.911,91.631 C91.999,89.181 93.126,86.746 94.151,84.271 C95.23,81.667 96.399,79.078 97.18,76.38 C97.862,74.023 98.478,71.621 98.725,69.14 C98.935,67.028 99.447,64.948 99.73,62.841 C100.069,60.328 100.306,57.798 100.585,55.275 C100.624,54.935 100.634,54.587 100.697,54.251 C101.306,51 101.62,47.719 101.666,44.414 C101.71,41.114 101.869,37.807 101.396,34.52 C100.981,31.641 101.038,28.761 101.265,25.873 C101.328,25.052 101.342,24.221 101.283,23.4 C101,19.28 100.688,15.163 100.37,11.045 C100.337,10.598 100.216,10.157 100.105,9.55 C99.569,9.917 99.196,10.189 98.808,10.435 C98.201,10.819 97.523,10.943 96.825,10.835 C96.402,10.77 96.037,10.525 95.961,10.064 C95.873,9.523 95.801,8.972 95.804,8.427 C95.809,7.681 95.883,6.936 95.941,6.192 C95.995,5.533 96.286,5.172 96.896,5.005 C97.092,4.951 97.299,4.899 97.501,4.896 C99.337,4.871 100.986,4.203 102.614,3.446 C103.114,3.215 103.662,3.09 104.149,2.842 C105.376,2.212 106.423,2.763 107.459,3.311 C107.959,3.576 108.038,4.359 107.622,4.75 C107.275,5.075 106.896,5.389 106.479,5.608 C105.756,5.99 105.445,6.672 105.106,7.331 C104.905,7.729 105.188,7.952 105.584,8.088 C108.403,5.407 111.652,3.404 115.379,2.232 C116.556,1.862 117.766,1.542 118.984,1.364 C123.273,0.74 127.561,0.076 131.922,0.185 C138.555,0.352 145.106,0.977 151.319,3.547 C155.853,5.423 160.183,7.665 163.918,10.903 C166.551,13.184 168.733,15.807 169.996,19.113 C170.212,19.678 170.59,20.18 170.956,20.819 C170.403,22.219 169.861,23.636 168.142,24.253 C167.32,24.548 166.593,25.139 165.867,25.659 C164.623,26.545 163.28,27.215 161.851,27.735 C160.363,28.276 158.91,28.927 157.391,29.344 C155.805,29.777 154.172,30.115 152.538,30.274 C148.088,30.709 143.64,31.186 139.151,31.104 C134.991,31.028 130.933,30.355 126.979,29.109 C123.092,27.882 119.85,25.569 116.995,22.707 C115.685,21.392 114.472,19.979 113.188,18.635 C112.827,18.254 112.372,17.956 111.96,17.621 C111.921,17.231 111.839,16.888 111.181,17.048 C111.512,17.262 111.753,17.42 111.996,17.578 Z" id="Fill-56" fill="#542033"></path>
                <path d="M92.953,154.563 C92.805,155.481 92.642,156.281 92.553,157.091 C92.441,158.113 92.3,159.147 92.331,160.17 C92.434,163.406 88.965,167.801 85.559,168.716 C81.925,169.691 78.31,170.272 74.594,169.176 C73.031,168.713 71.771,167.863 70.6,166.739 C68.536,164.764 67.348,162.34 66.563,159.663 C66.368,159.003 66.18,158.342 65.96,157.584 C65.681,157.497 65.333,157.454 65.061,157.287 C64.332,156.842 64.108,156.025 64.557,155.334 C65.059,154.559 65.72,153.947 66.746,154.06 C67.271,154.118 67.788,154.266 68.219,154.355 C68.319,154.64 68.438,154.801 68.397,154.887 C67.881,155.952 67.976,157.019 68.363,158.087 C68.807,159.313 69.11,160.622 69.741,161.747 C71.918,165.644 74.563,167.648 79.197,167.374 C80.912,167.272 82.63,167.159 84.278,166.583 C87.479,165.464 89.51,163.369 89.843,159.89 C90.058,157.639 90.193,155.38 90.368,153.124 C90.389,152.851 90.396,152.571 90.465,152.309 C90.668,151.529 91.545,151.112 92.266,151.473 C93.058,151.869 93.831,152.308 94.599,152.747 C94.773,152.846 94.916,153.009 95.045,153.165 C95.41,153.603 95.198,154.34 94.658,154.519 C94.529,154.562 94.391,154.597 94.257,154.599 C93.919,154.6 93.578,154.581 92.953,154.563" id="Fill-57" fill="#542033"></path>
                <path d="M67.454,145.908 C67.438,146.318 67.467,146.735 67.396,147.135 C67.302,147.668 66.72,148.123 66.221,148.132 C65.696,148.142 65.168,147.755 65.03,147.182 C64.918,146.716 64.94,146.219 64.809,145.762 C64.587,144.976 64.327,144.195 64.012,143.442 C63.777,142.89 63.155,142.76 62.622,143.068 C61.716,143.592 61.329,144.449 61.143,145.423 C61.054,145.89 61.054,146.38 60.915,146.829 C60.787,147.251 60.406,147.463 59.957,147.477 C59.503,147.493 59.141,147.276 58.957,146.882 C58.594,146.108 58.529,145.259 58.78,144.468 C59.224,143.077 59.918,141.827 61.189,140.98 C62.838,139.879 65.114,140.211 66.074,141.854 C66.796,143.086 67.471,144.392 67.454,145.908" id="Fill-58" fill="#542033"></path>
                <path d="M93.216,141.973 C91.97,142.481 91.455,143.353 91.374,144.553 C91.344,145.024 91.249,145.496 91.132,145.956 C91.044,146.301 90.789,146.633 90.421,146.557 C90.134,146.498 89.81,146.245 89.652,145.988 C89.17,145.192 89.071,144.266 89.292,143.4 C89.884,141.079 91.771,139.437 94.466,139.694 C94.996,139.745 95.376,140.05 95.521,140.543 C95.968,142.045 96.623,143.5 96.604,145.113 C96.602,145.387 96.648,145.662 96.641,145.934 C96.614,146.736 96.259,147.208 95.645,147.285 C94.988,147.368 94.488,146.885 94.362,145.997 C94.283,145.456 94.247,144.907 94.211,144.36 C94.159,143.515 93.883,142.765 93.216,141.973" id="Fill-59" fill="#542033"></path>
                <path d="M175.465,135.614 C174.563,135.4 173.862,135.742 173.212,136.044 C170.38,137.358 167.314,138.222 164.786,140.233 C165.423,140.985 166.129,141.268 167.016,141.164 C168.037,141.048 169.065,140.993 170.088,140.872 C170.486,140.824 170.926,140.758 171.26,140.558 C173.193,139.406 174.538,137.743 175.465,135.614 Z M177.717,134.894 C177.634,135.2 177.568,135.459 177.492,135.717 C176.91,137.675 175.688,139.216 174.279,140.633 C172.749,142.173 170.903,142.931 168.723,142.878 C168.176,142.865 167.628,142.944 167.08,142.98 C166.234,143.033 165.458,142.872 164.739,142.377 C164.18,141.992 163.561,141.695 162.881,141.309 C162.434,141.604 162.004,141.891 161.535,142.203 C162.009,143.874 161.919,145.56 162.691,147.064 C162.844,147.357 162.839,147.729 162.904,148.064 C163.373,150.476 164.617,152.227 167.107,152.821 C168.029,153.042 169.002,153.178 169.946,153.163 C172.079,153.124 174.157,152.735 176.223,152.148 C178.023,151.634 179.406,150.555 180.701,149.337 C181.625,148.469 182.101,147.338 182,146 C181.795,143.264 181.651,140.521 181.441,137.784 C181.357,136.69 181.085,135.634 180.41,134.671 C179.506,134.746 178.629,134.819 177.717,134.894 Z M183.725,141.541 C183.836,142.911 183.936,144.281 184.064,145.649 C184.305,148.126 183.242,149.977 181.459,151.611 C179.112,153.761 176.256,154.594 173.247,155.083 C172.098,155.27 170.922,155.332 169.757,155.371 C169.01,155.396 168.248,155.333 167.508,155.209 C163.67,154.56 161.473,152.228 160.687,148.473 C160.589,148.005 160.494,147.524 160.3,147.092 C159.806,145.986 159.799,144.826 159.82,143.657 C159.826,143.388 160.017,143.061 159.918,142.859 C159.4,141.791 160.083,141.188 160.744,140.583 C161.095,140.259 161.483,139.967 161.882,139.705 C164.349,138.076 166.905,136.63 169.639,135.469 C172.05,134.446 174.461,133.48 177.052,133.051 C178.202,132.862 179.365,132.722 180.526,132.663 C181.703,132.601 182.09,132.944 182.498,134.053 C183.022,135.479 183.361,136.939 183.431,138.464 C183.476,139.492 183.593,140.518 183.678,141.544 C183.692,141.543 183.707,141.542 183.725,141.541 Z" id="Fill-60" fill="#542033"></path>
                <path d="M153.979,136.983 C153.859,137.589 153.851,138.229 153.605,138.759 C152.928,140.227 151.259,140.341 150.336,139.025 C150.183,138.807 150.009,138.554 149.98,138.301 C149.885,137.432 149.766,136.55 149.812,135.682 C149.855,134.871 150.38,134.318 151.197,134.116 C152.071,133.902 152.729,134.165 153.232,135.068 C153.555,135.649 153.727,136.315 153.979,136.983" id="Fill-61" fill="#542033"></path>
                <path d="M178.661,124.305 C178.563,122.912 178.964,122.274 179.828,121.996 C180.653,121.729 181.517,121.992 181.974,122.74 C182.289,123.259 182.563,123.828 182.728,124.41 C182.999,125.362 182.628,126.139 181.857,126.473 C180.93,126.875 179.983,126.731 179.461,125.956 C179.051,125.352 178.813,124.63 178.661,124.305" id="Fill-62" fill="#542033"></path>
            </g>
        </g>
    </g>
</svg>