<?xml version="1.0" encoding="UTF-8"?>
<svg width="154px" height="174px" viewBox="0 0 154 174" version="1.1" xmlns="http://www.w3.org/2000/svg" xmlns:xlink="http://www.w3.org/1999/xlink">
    <!-- Generator: Sketch 49.3 (51167) - http://www.bohemiancoding.com/sketch -->
    <title>avatar1</title>
    <desc>Created with Sketch.</desc>
    <defs>
        <path d="M16.564,26.797 C15.725,26.797 14.874,26.724 14.018,26.63 C10.89,26.286 8.336,25.137 7.242,21.891 C5.86,20.28 5.398,18.259 4.77,16.315 C3.588,12.667 2.419,9.014 1.249,5.361 C1.142,5.024 1.063,4.68 0.961,4.308 C1.813,2.732 3.377,2.033 4.891,0.901 C5.229,1.796 5.549,2.519 5.777,3.268 C7.312,8.306 8.822,13.351 10.354,18.39 C10.744,19.669 11.14,19.993 12.437,20.051 C13.118,20.081 13.802,20.105 14.484,20.105 C14.964,20.105 15.443,20.093 15.921,20.064 C16.111,20.051 16.301,20.046 16.489,20.046 C17.83,20.046 19.119,20.336 20.397,20.703 C22.286,21.245 22.607,21.719 22.605,23.778 C22.604,24.041 22.531,24.304 22.477,24.661 C20.657,26.347 18.649,26.797 16.564,26.797 Z" id="path-1"></path>
    </defs>
    <g id="Page-1" stroke="none" stroke-width="1" fill="none" fill-rule="evenodd">
        <g id="114523-OOP5HG-503" transform="translate(-24.000000, -102.000000)">
            <g id="avatar1" transform="translate(24.000000, 102.000000)">
                <g id="Group-91" transform="translate(106.000000, 135.000000)">
                    <mask id="mask-2" fill="white">
                        <use xlink:href="#path-1"></use>
                    </mask>
                    <g id="Clip-90"></g>
                    <polygon id="Fill-89" fill="#FFCF20" mask="url(#mask-2)" points="0.961 26.797 22.607 26.797 22.607 0.901 0.961 0.901"></polygon>
                </g>
                <path d="M57.333,171.288 C56.913,171.288 56.484,171.247 56.052,171.161 C54.607,170.874 52.975,170.937 51.855,169.633 C51.53,167.878 52.244,166.802 53.879,166.079 C55.751,165.251 57.503,164.15 59.37,163.309 C60.455,162.819 60.829,162.089 60.751,161.002 C60.486,157.32 60.921,153.686 61.487,150.061 C61.636,149.108 61.906,148.174 62.131,147.181 C62.314,147.166 62.494,147.159 62.671,147.159 C64.026,147.159 65.202,147.567 66.503,148.026 C66.198,149.685 65.923,151.261 65.616,152.83 C65.205,154.935 64.755,157.032 64.354,159.14 C64.222,159.839 64.056,160.574 64.14,161.265 C64.341,162.912 63.934,164.466 63.609,166.037 C62.968,169.15 60.358,171.288 57.333,171.288" id="Fill-92" fill="#FFCF20"></path>
                <path d="M127.649,66.425 C126.149,58.243 123.273,50.58 119.574,43.171 C115.768,35.547 110.692,28.888 104.532,23.046 C103.176,21.761 101.649,20.625 100.087,19.595 C96.342,17.124 92.337,15.135 88.199,13.395 C85.563,12.285 82.991,11.022 80.394,9.822 C79.753,9.526 79.123,9.207 78.614,8.96 C77.591,9.474 76.734,9.957 75.834,10.334 C75.262,10.573 74.794,10.299 74.503,9.642 C74.806,9.365 75.115,9.055 75.454,8.78 C75.849,8.461 76.268,8.172 76.799,7.779 C75.8,6.629 74.85,5.686 74.077,4.613 C72.541,2.483 70.394,1.993 67.616,2.006 C68.355,2.687 68.902,3.108 69.331,3.628 C69.503,3.837 69.497,4.287 69.41,4.579 C69.357,4.755 68.965,4.979 68.773,4.941 C67.114,4.608 65.461,4.235 63.818,3.829 C63.622,3.78 63.493,3.455 63.305,3.223 C63.481,2.983 63.626,2.771 63.788,2.572 C63.938,2.391 64.482,2.562 64.321,2.11 C63.275,2.11 62.284,2.035 61.31,2.13 C60.162,2.242 58.915,3.322 59.052,4.395 C59.243,5.887 58.589,7.146 58.299,8.474 C59.297,9.678 61.415,9.441 61.674,11.454 C59.5,11.89 57.773,10.563 56.07,10.062 C54.383,11.299 52.897,12.447 51.352,13.508 C48.532,15.441 45.431,16.847 42.298,18.18 C39.303,19.453 36.599,21.175 34.168,23.335 C32.494,24.822 30.779,26.266 29.131,27.78 C26.489,30.209 23.952,32.738 22.042,35.815 C18.445,41.61 15.323,47.653 12.83,54.002 C11.047,58.542 10.065,63.257 10.248,68.173 C10.332,70.411 10.332,72.651 10.432,74.889 C10.892,85.265 12.907,95.31 16.854,104.942 C19.44,111.251 22.389,117.367 26.187,123.057 C29.427,127.907 33.461,131.864 38.536,134.79 C40.851,136.125 43.336,137.199 45.368,139.012 C45.752,139.354 46.312,139.511 46.803,139.723 C52.644,142.24 58.547,144.578 64.902,145.457 C67.114,145.764 69.345,145.937 71.564,146.194 C74.229,146.505 76.888,146.861 79.555,147.151 C80.067,147.206 80.612,147.088 81.127,146.976 C82.418,146.695 83.706,146.527 85.026,146.717 C85.011,146.893 85.031,147.037 84.99,147.057 C84.041,147.521 83.084,147.973 82.13,148.426 L82.235,148.669 C84.59,151.197 87.548,151.353 90.652,150.713 C91.548,150.528 92.195,149.815 92.608,148.981 C92.845,148.503 93.028,147.994 93.184,147.482 C93.831,145.352 95.325,144.071 97.298,143.192 C98.188,142.796 99.097,142.333 99.826,141.703 C102.588,139.315 105.794,137.468 108.12,134.54 C110.233,131.881 112.571,129.4 114.81,126.842 C115.339,126.237 115.811,125.569 116.407,125.042 C118.124,123.521 119.304,121.637 120.188,119.566 C122.054,115.191 123.366,110.621 124.381,105.998 C125.647,100.232 126.563,94.391 127.661,88.588 C129.062,81.196 129.007,73.831 127.649,66.425" id="Fill-93" fill="#A4DB00"></path>
                <path d="M105.182,76.077 C104.047,76.007 103.058,75.137 103.067,74.283 C103.077,73.461 103.663,72.551 104.321,72.39 C105.153,72.187 105.675,72.648 106.108,73.275 C106.21,73.422 106.337,73.551 106.443,73.695 C106.785,74.157 106.935,74.66 106.643,75.194 C106.316,75.792 105.794,76.092 105.182,76.077" id="Fill-94" fill="#9CA124"></path>
                <path d="M108.529,83.244 C108.421,83.567 108.397,83.867 108.241,84.056 C107.902,84.467 107.516,84.846 107.111,85.194 C106.337,85.862 105.315,85.486 105.087,84.469 C104.907,83.667 105.231,82.828 105.905,82.354 C106.457,81.965 107.294,81.967 107.904,82.437 C108.17,82.64 108.331,82.98 108.529,83.244" id="Fill-95" fill="#9CA124"></path>
                <path d="M109.608,66.273 C110.573,66.279 111.221,66.487 111.572,67.242 C111.919,67.988 111.604,68.644 111.254,69.263 C110.982,69.741 110.075,69.871 109.556,69.573 C108.833,69.159 108.378,67.365 108.886,66.701 C109.076,66.452 109.464,66.354 109.608,66.273" id="Fill-96" fill="#9CA124"></path>
                <path d="M120.104,73.319 C120.094,74.094 119.495,74.739 118.786,74.741 C117.965,74.742 117.382,74.042 117.413,73.091 C117.438,72.375 117.901,71.872 118.554,71.854 C119.454,71.831 120.116,72.457 120.104,73.319" id="Fill-97" fill="#9CA124"></path>
                <path d="M117.857,80.425 C118.374,79.777 118.638,79.317 119.024,79.015 C119.245,78.843 119.769,78.786 119.974,78.933 C120.277,79.148 120.576,79.582 120.601,79.941 C120.679,81.116 119.797,81.609 118.72,81.049 C118.493,80.931 118.299,80.748 117.857,80.425" id="Fill-98" fill="#9CA124"></path>
                <path d="M111.619,76.259 C112.457,76.147 113.019,76.673 113.076,77.371 C113.119,77.893 112.659,78.473 112.173,78.51 C111.563,78.558 110.857,77.983 110.968,77.375 C111.049,76.931 111.443,76.543 111.619,76.259" id="Fill-99" fill="#9CA124"></path>
                <path d="M39.193,78.806 C39.052,79.644 38.197,80.372 37.352,80.373 L37.093,80.341 C36.339,80.148 36.08,79.203 36.482,78.11 C36.777,77.307 37.429,76.939 38.087,77.204 C38.771,77.48 39.29,78.231 39.193,78.806" id="Fill-100" fill="#9CA124"></path>
                <path d="M38.346,89.557 C38.282,89.774 38.233,90.139 38.073,90.444 C37.812,90.944 37.398,91.259 36.783,91.15 C36.16,91.042 35.85,90.591 35.859,90.035 C35.868,89.521 36.027,88.991 36.218,88.507 C36.452,87.913 37.041,87.776 37.542,87.976 C37.878,88.11 38.107,88.56 38.333,88.902 C38.414,89.026 38.346,89.247 38.346,89.557" id="Fill-101" fill="#9CA124"></path>
                <path d="M31.578,81.52 C31.787,81.594 32.108,81.61 32.263,81.779 C33.094,82.683 32.813,84.334 31.689,84.976 C31.493,85.087 30.953,84.934 30.808,84.732 C30.398,84.162 30.607,82.261 31.066,81.759 C31.172,81.642 31.374,81.611 31.578,81.52" id="Fill-102" fill="#9CA124"></path>
                <path d="M43.601,84.27 C43.622,84.792 43.176,85.219 42.58,85.245 C41.86,85.276 41.306,84.863 41.253,84.258 C41.201,83.658 41.795,83.058 42.407,83.09 C43.038,83.124 43.576,83.656 43.601,84.27" id="Fill-103" fill="#9CA124"></path>
                <path d="M48.128,88.486 C47.847,88.695 47.495,89.12 47.063,89.235 C46.469,89.394 45.918,88.802 45.839,88.116 C45.784,87.65 46.131,87.175 46.548,87.145 C47.3,87.09 48.101,87.654 48.128,88.486" id="Fill-104" fill="#9CA124"></path>
                <path d="M49.944,79.184 C49.971,79.909 49.517,80.382 48.951,80.426 C48.44,80.465 48.091,80.226 47.976,79.733 C47.839,79.146 48.456,78.454 49.082,78.584 C49.437,78.658 49.731,79.027 49.944,79.184" id="Fill-105" fill="#9CA124"></path>
                <path d="M66.503,148.026 C65.032,147.507 63.721,147.054 62.131,147.181 C61.906,148.174 61.636,149.108 61.487,150.062 C60.921,153.686 60.486,157.32 60.751,161.002 C60.829,162.089 60.455,162.819 59.37,163.309 C57.503,164.15 55.751,165.251 53.879,166.079 C52.244,166.802 51.53,167.878 51.855,169.633 C52.976,170.937 54.607,170.874 56.052,171.161 C59.594,171.864 62.879,169.583 63.609,166.037 C63.934,164.466 64.341,162.912 64.14,161.265 C64.056,160.574 64.222,159.839 64.354,159.14 C64.755,157.032 65.205,154.935 65.616,152.83 C65.923,151.261 66.198,149.686 66.503,148.026 Z M128.477,159.661 C128.531,159.304 128.604,159.041 128.605,158.778 C128.607,156.719 128.286,156.245 126.397,155.703 C124.939,155.284 123.468,154.966 121.921,155.063 C120.764,155.136 119.597,155.103 118.437,155.051 C117.14,154.993 116.744,154.669 116.354,153.39 C114.822,148.351 113.313,143.306 111.777,138.269 C111.549,137.519 111.229,136.796 110.891,135.901 C109.377,137.033 107.813,137.732 106.961,139.308 C107.063,139.68 107.142,140.024 107.249,140.361 C108.419,144.014 109.588,147.667 110.77,151.315 C111.398,153.259 111.86,155.28 113.242,156.891 C114.336,160.137 116.89,161.286 120.018,161.63 C123.004,161.958 125.926,162.025 128.477,159.661 Z M82.13,148.426 L82.235,148.669 C84.59,151.197 87.548,151.353 90.652,150.713 C91.548,150.528 92.195,149.815 92.608,148.981 C92.845,148.503 93.028,147.994 93.184,147.482 C93.831,145.352 95.325,144.071 97.298,143.192 C98.188,142.796 99.097,142.333 99.826,141.703 C102.588,139.315 105.794,137.468 108.12,134.54 C110.233,131.881 112.571,129.4 114.81,126.842 C115.339,126.237 115.811,125.569 116.407,125.042 C118.124,123.521 119.304,121.637 120.188,119.566 C122.054,115.191 123.366,110.621 124.381,105.998 C125.647,100.232 126.563,94.391 127.661,88.588 C129.062,81.196 129.007,73.831 127.649,66.425 C126.149,58.243 123.273,50.58 119.574,43.171 C115.768,35.547 110.692,28.888 104.532,23.046 C103.176,21.761 101.649,20.625 100.087,19.595 C96.342,17.124 92.337,15.135 88.199,13.395 C85.563,12.285 82.991,11.022 80.394,9.822 C79.753,9.526 79.123,9.207 78.614,8.96 C77.591,9.474 76.734,9.957 75.834,10.334 C75.262,10.573 74.794,10.299 74.503,9.642 C74.806,9.365 75.115,9.055 75.454,8.78 C75.849,8.461 76.268,8.172 76.799,7.779 C75.8,6.629 74.85,5.686 74.077,4.613 C72.541,2.483 70.394,1.993 67.616,2.006 C68.355,2.687 68.902,3.108 69.331,3.628 C69.503,3.837 69.497,4.287 69.41,4.579 C69.357,4.755 68.965,4.979 68.773,4.941 C67.114,4.608 65.461,4.235 63.818,3.829 C63.622,3.78 63.493,3.455 63.305,3.223 C63.481,2.983 63.626,2.771 63.788,2.572 C63.938,2.391 64.482,2.562 64.321,2.11 C63.275,2.11 62.284,2.035 61.31,2.13 C60.162,2.242 58.915,3.322 59.052,4.395 C59.243,5.887 58.589,7.146 58.299,8.474 C59.297,9.678 61.415,9.441 61.674,11.454 C59.5,11.89 57.773,10.563 56.07,10.062 C54.383,11.299 52.897,12.447 51.352,13.508 C48.532,15.441 45.431,16.847 42.298,18.18 C39.303,19.453 36.599,21.175 34.168,23.335 C32.494,24.822 30.779,26.266 29.131,27.78 C26.489,30.209 23.952,32.738 22.042,35.815 C18.445,41.61 15.323,47.653 12.83,54.002 C11.047,58.542 10.065,63.257 10.248,68.173 C10.332,70.411 10.332,72.651 10.432,74.889 C10.892,85.265 12.907,95.31 16.854,104.942 C19.44,111.251 22.389,117.367 26.187,123.057 C29.427,127.907 33.461,131.864 38.536,134.79 C40.851,136.125 43.336,137.199 45.368,139.012 C45.752,139.354 46.312,139.511 46.803,139.723 C52.644,142.24 58.547,144.578 64.902,145.457 C67.114,145.764 69.345,145.937 71.564,146.194 C74.229,146.505 76.888,146.861 79.555,147.151 C80.067,147.206 80.612,147.088 81.127,146.976 C82.418,146.695 83.706,146.527 85.026,146.717 C85.011,146.893 85.031,147.037 84.99,147.057 C84.041,147.521 83.084,147.973 82.13,148.426 Z M131.614,78.55 C133.261,78.854 134.66,79.126 136.065,79.366 C137.239,79.567 138.171,79.109 138.895,78.204 C139.174,77.855 139.436,77.487 139.662,77.103 C141.579,73.851 143.273,70.526 143.776,66.693 C144.079,64.39 144.653,62.121 145.071,59.831 C145.229,58.96 145.295,58.072 145.41,57.138 C144.016,55.913 142.616,54.813 141.374,53.556 C140.247,52.417 139.251,51.14 138.277,49.862 C137.748,49.168 137.853,48.886 138.567,47.699 C139.945,48.073 140.316,49.688 141.596,50.208 C142.188,49.886 141.729,49.46 141.654,49.111 C141.409,47.974 141.087,46.853 140.853,45.713 C140.809,45.499 140.969,45.095 141.143,45.017 C141.431,44.886 141.851,44.836 142.138,44.95 C142.868,45.238 143.117,45.945 143.348,46.633 C143.712,47.72 144.075,48.808 144.479,50.015 C145.304,48.956 145.234,47.831 145.495,46.805 C145.842,45.444 146.489,44.675 147.058,44.985 C147.938,45.468 147.783,46.314 147.64,47.117 C147.466,48.087 147.275,49.054 147.111,50.024 C146.995,50.707 147.147,51.258 148.11,51.508 C148.35,51.001 148.651,50.487 148.839,49.935 C149.04,49.345 149.087,48.702 149.288,48.112 C149.464,47.597 149.783,47.135 150.433,47.156 C150.901,47.172 151.269,47.708 151.226,48.378 C151.185,49 151.072,49.619 150.97,50.236 C150.87,50.846 150.743,51.451 150.582,52.296 C151.396,52.154 152.042,51.995 152.697,51.943 C153.201,51.904 153.648,52.704 153.37,53.14 C153.137,53.504 152.854,53.913 152.489,54.104 C151.542,54.596 150.555,55.025 149.552,55.393 C148.431,55.805 147.87,56.43 147.779,57.734 C147.636,59.777 147.215,61.804 146.868,63.83 C146.643,65.154 146.246,66.453 146.089,67.783 C145.613,71.826 143.594,75.214 141.609,78.621 C141.296,79.158 140.908,79.669 140.479,80.118 C139.296,81.356 137.85,81.962 136.118,81.693 C135.146,81.543 134.187,81.313 133.215,81.155 C132.706,81.073 132.185,81.073 131.537,81.026 C131.386,82.188 131.262,83.244 131.112,84.295 C130.415,89.171 129.592,94.01 128.297,98.784 C127.151,103.009 126.459,107.354 125.533,111.64 C124.538,116.239 122.702,120.492 120.102,124.412 C118.464,126.882 116.642,129.204 114.527,131.293 C113.956,131.856 113.435,132.478 112.938,133.11 C112.666,133.456 112.495,133.881 112.276,134.274 C114.074,137.925 115.026,141.834 116.269,145.642 C117.017,147.935 117.756,150.231 118.513,152.569 C119.77,153.099 121.04,152.882 122.255,152.831 C123.994,152.758 125.643,153.11 127.263,153.618 C130.005,154.479 130.829,155.667 130.846,158.549 C130.847,158.817 130.833,159.087 130.845,159.355 C130.899,160.667 130.499,161.636 129.055,161.929 C128.626,162.015 128.206,162.229 127.825,162.459 C125.116,164.088 122.184,164.01 119.222,163.571 C117.721,163.349 116.242,162.982 114.75,162.696 C113.909,162.535 113.318,162.075 112.814,161.382 C111.597,159.704 110.558,157.978 109.994,155.937 C108.708,151.278 107.299,146.655 105.924,142.021 C105.804,141.616 105.569,141.245 105.297,140.662 C102.682,142.456 100.097,144.054 97.731,145.929 C96.575,146.843 95.617,148.165 94.937,149.491 C93.278,152.72 90.579,153.505 87.297,153.157 C84.747,152.888 82.372,152.168 80.589,150.164 C80.087,149.6 79.498,149.272 78.738,149.204 C78.205,149.155 77.684,148.993 77.15,148.929 C75.109,148.682 73.067,148.434 71.022,148.229 C70.322,148.159 69.608,148.218 68.849,148.218 C68.239,149.075 68.252,150.098 68.058,151.032 C67.476,153.838 66.977,156.66 66.453,159.478 C66.354,160.006 66.158,160.563 66.242,161.067 C66.55,162.902 65.929,164.62 65.692,166.385 C65.065,171.087 59.554,174.372 55.501,173.255 C53.863,172.804 52.189,172.538 50.663,171.72 C49.742,171.226 49.365,170.544 49.509,169.54 C49.597,168.92 49.694,168.3 49.791,167.681 C50.031,166.134 50.846,165.076 52.336,164.497 C53.67,163.979 54.97,163.373 56.27,162.771 C57.073,162.4 57.848,161.965 58.546,161.604 C58.664,158.927 58.67,156.417 58.915,153.931 C59.15,151.545 59.632,149.186 60.02,146.729 C56.229,145.307 52.561,143.929 48.893,142.552 C48.725,142.488 48.552,142.438 48.387,142.369 C41.899,139.685 35.733,136.442 30.427,131.77 C27.992,129.625 26.052,127.041 24.242,124.358 C19.45,117.253 15.975,109.506 13.06,101.484 C12.696,100.484 12.343,99.481 11.92,98.299 C11.345,98.699 10.896,98.95 10.521,99.283 C9.112,100.531 7.763,101.846 6.327,103.062 C3.908,105.111 3.343,107.891 3.334,110.812 C3.332,111.72 3.804,112.754 4.355,113.515 C5.561,115.177 6.949,116.707 8.281,118.275 C8.509,118.544 8.805,118.778 9.111,118.954 C11.908,120.546 14.7,122.155 18.005,122.462 C19.453,122.597 20.806,123.027 22.035,123.818 C22.186,123.915 22.424,123.96 22.485,124.093 C22.626,124.397 22.817,124.784 22.732,125.057 C22.654,125.307 22.209,125.644 21.979,125.606 C21.29,125.496 20.622,125.235 19.956,125.005 C19.646,124.899 19.36,124.728 18.845,124.833 C19.08,125.132 19.312,125.432 19.552,125.727 C20.453,126.838 21.373,127.934 22.248,129.064 C22.534,129.435 22.637,129.967 22.169,130.243 C21.829,130.443 21.301,130.544 20.936,130.432 C20.554,130.312 20.225,129.92 19.945,129.585 C19.431,128.968 18.999,128.28 18.474,127.673 C18.275,127.445 17.914,127.361 17.394,127.089 C17.444,127.679 17.396,128.04 17.516,128.335 C18.119,129.838 18.915,131.221 20.072,132.388 C20.359,132.679 20.514,133.136 20.637,133.544 C20.759,133.951 20.249,134.48 19.853,134.419 C18.93,134.275 18.108,133.896 17.605,133.095 C16.942,132.037 16.338,130.941 15.765,129.833 C15.45,129.226 15.253,128.558 14.877,127.595 C13.856,130.278 15.723,132.136 15.906,134.155 C15.335,134.789 14.826,134.624 14.384,134.28 C12.91,133.135 11.857,131.753 11.971,129.747 C12.005,129.128 11.976,128.507 11.976,127.64 C11.476,128 11.19,128.321 10.839,128.434 C10.136,128.657 9.394,127.984 9.458,127.23 C9.548,126.203 9.993,125.333 10.774,124.671 C11.242,124.274 11.783,123.966 12.226,123.663 C12.302,122.875 11.727,122.877 11.368,122.752 C6.931,121.218 4.265,117.734 1.87,114.015 C0.884,112.483 0.496,110.72 1.069,108.861 C1.254,108.267 1.278,107.625 1.403,107.011 C1.845,104.836 2.852,102.999 4.549,101.523 C6.709,99.646 8.818,97.708 11.069,95.688 C10.946,94.939 10.87,94.15 10.683,93.388 C9.183,87.274 8.369,81.07 8.156,74.782 C8.1,73.081 8.031,71.379 7.942,69.679 C7.646,63.948 8.654,58.435 10.749,53.115 C13.283,46.68 16.436,40.548 20.097,34.687 C23.277,29.594 33.218,20.376 38.475,17.605 C40.135,16.73 41.884,16.021 43.607,15.272 C46.825,13.875 49.841,12.132 52.701,10.104 C54.04,9.153 55.131,8.054 55.81,6.503 C56.456,5.032 57.314,3.653 58.094,2.242 C58.698,1.146 59.654,0.423 60.88,0.378 C63.917,0.268 66.945,-0.121 70.003,0.198 C72.173,0.425 73.965,1.189 75.326,2.928 C75.877,3.632 76.455,4.334 77.118,4.928 C78.046,5.758 78.976,6.657 80.063,7.224 C82.758,8.628 85.495,9.976 88.303,11.137 C92.701,12.955 96.981,14.991 100.989,17.556 C102.718,18.662 104.423,19.863 105.926,21.251 C112.096,26.944 117.274,33.415 121.22,40.87 C125.653,49.244 129.052,57.965 130.515,67.363 C130.941,70.102 131.15,72.875 131.437,75.635 C131.527,76.514 131.546,77.4 131.614,78.55 Z" id="Fill-106" fill="#4F251F"></path>
                <path d="M59.366,82.027 C59.197,81.295 58.939,80.356 58.778,79.401 C58.698,78.929 58.974,78.487 59.467,78.405 C59.777,78.354 60.139,78.514 60.455,78.637 C60.604,78.694 60.746,78.868 60.812,79.023 C61.722,81.146 63.706,81.882 65.622,82.563 C67.639,83.279 69.761,83.697 71.823,84.29 C75.071,85.224 78.216,84.829 81.271,83.553 C83.434,82.648 85.399,81.395 87.129,79.806 C87.649,79.327 88.105,78.761 88.516,78.182 C89.032,77.452 89.504,76.687 89.934,75.903 C90.252,75.324 90.621,74.745 91.306,74.78 C92.253,74.828 92.987,75.355 93.372,76.262 C93.582,76.759 93.322,77.325 92.944,77.388 C91.574,77.616 91.065,78.7 90.473,79.678 C89.606,81.106 88.297,82.061 87,83 C82.957,85.932 78.513,87.613 73.423,86.932 C72.188,86.766 70.97,86.437 69.763,86.112 C68.381,85.742 67.004,85.339 65.655,84.864 C64.652,84.511 63.693,84.029 62.722,83.59 C61.763,83.155 60.812,82.702 59.366,82.027" id="Fill-107" fill="#4F251F"></path>
                <path d="M86.504,61.46 C86.688,60.66 86.797,59.861 87.06,59.116 C87.429,58.066 88.408,57.701 89.439,58.103 C90.152,58.381 90.621,58.92 90.891,59.584 C91.384,60.798 91.249,62.028 90.711,63.198 C90.359,63.963 89.587,64.335 88.726,64.227 C87.788,64.109 87.009,63.726 86.705,62.757 C86.575,62.343 86.567,61.891 86.504,61.46" id="Fill-108" fill="#4F251F"></path>
                <path d="M54.929,63.001 C54.783,63.68 54.66,64.202 54.563,64.729 C54.441,65.387 54.191,65.943 53.457,66.073 C52.516,66.24 51.579,65.804 51.165,65.046 C50.643,64.088 50.856,61.797 51.549,60.942 C52.266,60.058 53.796,60.11 54.294,61.098 C54.608,61.722 54.746,62.437 54.929,63.001" id="Fill-109" fill="#4F251F"></path>
                <path d="M48.454,137.782 C46.426,138.247 45.815,136.705 44.919,135.728 C44.527,135.301 44.147,134.664 44.924,134.147 C45.097,134.188 45.32,134.169 45.409,134.27 C46.399,135.387 47.369,136.523 48.454,137.782" id="Fill-110" fill="#4F251F"></path>
                <path d="M52.992,137.684 C52.658,137.518 52.239,137.446 52.084,137.206 C51.56,136.398 51.105,135.542 50.685,134.677 C50.602,134.509 50.754,134.186 50.876,133.981 C50.933,133.889 51.218,133.833 51.336,133.892 C52.628,134.521 53.25,135.907 52.992,137.684" id="Fill-111" fill="#4F251F"></path>
                <path d="M51.868,130.482 C50.343,130.431 49.093,129.897 48.245,128.648 C48.161,128.525 48.144,128.282 48.211,128.153 C48.275,128.027 48.544,127.864 48.622,127.906 C49.843,128.559 51.127,129.136 51.868,130.482" id="Fill-112" fill="#4F251F"></path>
                <path d="M34.777,122.153 C33.379,121.82 33.024,120.967 32.857,119.999 C32.82,119.785 33.028,119.529 33.123,119.292 C33.415,119.426 33.869,119.485 33.968,119.705 C34.283,120.41 34.467,121.173 34.777,122.153" id="Fill-113" fill="#4F251F"></path>
                <path d="M42.118,122.936 C40.226,121.817 40.226,121.817 39.55,119.924 C39.691,119.924 39.907,119.865 39.956,119.932 C40.689,120.924 41.401,121.931 42.118,122.936" id="Fill-114" fill="#4F251F"></path>
                <path d="M23.101,53.744 C22.841,53.381 22.565,53.165 22.592,52.999 C22.656,52.606 22.786,52.164 23.044,51.884 C23.202,51.711 23.738,51.665 23.933,51.804 C24.12,51.938 24.235,52.462 24.12,52.671 C23.905,53.06 23.501,53.342 23.101,53.744" id="Fill-115" fill="#4F251F"></path>
                <path d="M25.89,52.415 C25.946,51.57 25.991,50.896 26.049,50.044 C26.43,50.24 26.779,50.323 26.793,50.444 C26.877,51.157 26.803,51.847 25.89,52.415" id="Fill-116" fill="#4F251F"></path>
            </g>
        </g>
    </g>
</svg>