<?xml version="1.0" encoding="UTF-8"?>
<svg width="209px" height="155px" viewBox="0 0 209 155" version="1.1" xmlns="http://www.w3.org/2000/svg" xmlns:xlink="http://www.w3.org/1999/xlink">
    <!-- Generator: Sketch 49.3 (51167) - http://www.bohemiancoding.com/sketch -->
    <title>avatar10</title>
    <desc>Created with Sketch.</desc>
    <defs></defs>
    <g id="Page-2" stroke="none" stroke-width="1" fill="none" fill-rule="evenodd">
        <g id="114524-OOP7JI-483" transform="translate(-42.000000, -57.000000)">
            <g id="avatar10" transform="translate(42.000000, 57.000000)">
                <path d="M92.777,18.64 C94.597,18.547 96.285,18.093 97.846,17.232 C98.932,16.634 99.375,15.861 99.192,14.91 C98.979,13.807 98.439,12.977 97.262,12.653 C94.406,11.866 90.479,12.941 88.605,15.102 C88.404,15.335 88.328,15.744 88.325,16.072 C88.32,16.831 88.769,17.38 89.325,17.846 C90.353,18.706 91.557,18.79 92.777,18.64 Z M112.392,25.386 C109.881,24.054 107.138,23.716 104.506,23.006 C103.498,22.734 102.431,22.482 101.445,23.534 C102.056,26.205 103.638,28.76 102.847,31.823 C102.453,31.775 102.019,31.79 101.626,31.664 C100.004,31.138 98.606,30.213 97.319,29.109 C95.976,27.956 94.635,26.8 93.292,25.647 C93.025,25.417 92.777,25.159 92.485,24.961 C91.195,24.078 89.912,24.321 89.127,25.71 C87.779,28.1 86.516,30.534 85.208,32.947 C85.012,33.311 84.778,33.653 84.498,34.108 C83.816,32.083 83.639,29.255 84.051,27.272 C84.248,26.32 84.501,25.379 84.72,24.431 C84.82,24.001 84.941,23.571 84.983,23.134 C85.084,22.068 84.288,21.37 83.313,21.791 C81.696,22.494 80.124,23.306 78.562,24.128 C75.749,25.609 72.96,27.138 70.152,28.628 C69.861,28.782 69.507,28.816 69.201,28.903 C68.807,28.302 69.239,27.998 69.473,27.705 C70.802,26.044 72.259,24.54 74.001,23.263 C75.777,21.961 77.338,20.365 78.961,18.862 C79.268,18.579 79.47,18.15 79.635,17.752 C79.829,17.29 79.329,16.587 78.835,16.618 C78.402,16.646 77.959,16.721 77.548,16.857 C74.421,17.905 71.182,18.335 67.916,18.601 C66.969,18.676 66.018,18.631 65.032,18.331 C66.076,17.075 66.974,16.688 73.396,14.671 C76.264,13.771 79.162,13.009 82.173,12.931 C83.282,10.324 84.346,7.818 85.442,5.247 C86.704,5.215 87.362,6.105 88.062,6.842 C88.477,7.283 88.718,7.885 89.068,8.393 C89.621,9.198 90.193,9.996 91.288,10.227 C92.286,9.962 93.156,9.439 94.019,8.79 C96.348,7.04 98.75,5.388 101.138,3.717 C101.777,3.27 102.436,2.75 103.432,3.331 C103.396,3.96 103.366,4.643 103.313,5.322 C103.259,6.023 103.172,6.723 103.121,7.425 C103.082,7.948 103.013,8.482 103.07,8.997 C103.157,9.784 103.702,10.279 104.49,10.314 C105.921,10.379 107.3,10.181 108.629,9.575 C110.664,8.648 112.818,8.177 115.061,8.154 C115.322,8.151 115.587,8.196 115.845,8.243 C115.906,8.252 115.947,8.358 116.127,8.576 C115.9,9.423 115.259,10.14 114.717,10.921 C113.981,11.979 114.064,12.651 115.099,13.399 C115.812,13.91 116.61,14.315 117.402,14.699 C119.234,15.584 121.093,16.414 122.928,17.296 C123.623,17.63 124.278,18.044 124.893,18.387 C124.863,19.048 124.45,19.076 124.134,19.073 C122.899,19.063 121.663,19.02 120.429,18.951 C118.479,18.841 116.562,18.814 114.658,19.445 C113.67,19.772 112.567,19.738 111.526,19.922 C110.821,20.046 110.511,20.771 110.924,21.335 C111.499,22.119 112.143,22.849 112.75,23.609 C113.205,24.177 113.226,24.72 112.392,25.386 Z" id="Fill-18" fill="#7AB600"></path>
                <path d="M82.942,151.674 C76.811,152.657 71.289,151.279 66.287,147.789 C65.287,147.092 64.407,146.176 63.611,145.242 C62.584,144.034 62.629,143.917 62.796,141.792 C63.694,140.865 64.797,140.371 66.108,140.44 C68.225,140.55 70.346,140.635 72.451,140.85 C73.944,141.004 75.407,141.363 76.772,142.07 C77.289,142.339 77.923,142.381 78.519,142.531 C79.579,141.13 80.074,139.656 80.347,138.076 C80.903,134.854 81.486,131.635 82.072,128.419 C82.134,128.082 82.29,127.763 82.445,127.306 C83.425,127.25 84.384,127.18 85.346,127.147 C85.859,127.13 86.376,127.182 86.988,127.205 C86.922,127.748 86.911,128.189 86.813,128.61 C86.208,131.19 85.586,133.765 84.965,136.341 C84.464,138.409 84.108,140.49 84.27,142.635 C84.384,144.136 84.38,145.648 84.548,147.142 C84.74,148.849 84.293,150.29 82.942,151.674" id="Fill-19" fill="#C0B600"></path>
                <path d="M134.046,124.069 C135.76,123.078 137.432,122.143 139.455,121.595 C139.781,122.977 140.063,124.268 140.395,125.544 C140.929,127.595 141.479,129.645 142.055,131.686 C142.487,133.214 142.969,134.729 143.43,136.249 C143.809,137.497 144.895,137.854 145.891,137.018 C146.362,136.621 146.747,136.125 147.184,135.686 C148.613,134.241 150.087,132.837 151.473,131.35 C152.49,130.255 153.8,129.758 155.146,129.328 C156.392,128.93 157.395,129.383 157.599,130.611 C157.869,132.257 157.966,133.953 157.93,135.622 C157.915,136.25 157.399,136.927 156.973,137.474 C155.103,139.873 152.742,141.774 150.248,143.447 C149.039,144.258 147.497,144.67 146.045,145.006 C143.848,145.513 142.042,144.22 141.504,141.999 C141.341,141.32 141.246,140.593 140.931,139.984 C138.865,135.958 137.256,131.742 135.562,127.557 C135.1,126.416 134.582,125.296 134.046,124.069" id="Fill-20" fill="#C0B600"></path>
                <path d="M184.719,59.151 C184.586,58.458 184.387,57.771 184.144,57.108 C182.261,51.961 180.037,46.939 178.394,41.7 C178.314,41.447 178.232,41.192 178.117,40.954 C176.882,38.405 175.726,35.815 174.007,33.531 C173.001,32.19 172.072,30.792 171.087,29.433 C169.115,26.706 167.11,24.009 164.707,21.632 C163.703,20.638 162.775,19.565 161.773,18.569 C161.149,17.948 160.519,17.283 159.768,16.851 C156.091,14.729 152.389,12.648 148.659,10.622 C147.345,9.907 145.841,9.522 144.569,8.751 C141.548,6.919 138.214,6.077 134.803,5.551 C132.108,5.138 129.365,5.037 126.645,4.789 C125.588,4.693 124.536,4.532 123.478,4.485 C121.181,4.389 118.867,4.486 116.585,4.25 C113.472,3.924 110.391,4.216 107.298,4.374 C106.704,4.405 106.119,4.587 105.495,4.707 C105.466,5.359 105.443,5.884 105.417,6.409 C105.389,6.984 105.359,7.559 105.331,8.121 C106.518,8.46 107.376,7.979 108.273,7.605 C111.267,6.352 114.429,6.024 117.635,6.008 C118.61,6.004 119.314,6.817 119.114,7.77 C118.993,8.347 118.668,8.908 118.332,9.406 C117.792,10.202 117.188,10.953 116.852,11.997 C117.476,12.328 117.996,12.632 118.54,12.886 C120.303,13.712 122.116,14.441 123.831,15.355 C125.779,16.396 127.651,17.583 129.542,18.73 C130.036,19.032 130.221,19.536 130.107,20.108 C129.985,20.71 129.5,20.938 128.978,21.09 C128.809,21.139 128.626,21.149 128.451,21.156 C125.799,21.236 123.163,21.636 120.495,21.252 C119.37,21.089 118.198,21.235 117.049,21.278 C116.064,21.315 115.201,21.699 114.304,22.347 C114.783,22.986 115.206,23.538 115.614,24.101 C116.952,25.942 116.553,27.379 114.475,28.209 C114.319,28.272 114.131,28.261 113.831,28.3 C110.782,26.432 107.234,25.654 103.567,24.803 C104.728,25.754 104.995,27.038 105.093,28.386 C105.162,29.357 105.242,30.332 105.228,31.305 C105.219,31.912 105.125,32.547 104.917,33.115 C104.492,34.276 103.503,34.755 102.354,34.29 C100.053,33.365 97.771,32.395 95.904,30.671 C94.669,29.529 93.374,28.453 92.086,27.371 C91.781,27.115 91.401,26.953 90.955,26.688 C89.534,29.361 88.213,31.863 86.874,34.355 C86.498,35.054 86.129,35.77 85.642,36.39 C85.062,37.127 84.019,37.36 83.239,37.031 C82.507,36.722 82.184,36.101 82.151,35.346 C82.009,32.085 81.391,28.815 82.361,25.573 C82.451,25.274 82.339,24.914 82.305,24.32 C81.349,24.828 80.575,25.229 79.813,25.647 C77.022,27.176 74.249,28.736 71.438,30.225 C70.586,30.676 69.634,30.95 68.719,31.274 C68.39,31.392 68.033,31.469 67.686,31.48 C66.698,31.51 65.927,30.632 66.269,29.722 C66.669,28.659 67.136,27.571 67.81,26.669 C69.238,24.75 70.835,22.977 72.914,21.684 C73.614,21.247 74.47,20.823 74.69,19.765 C74.25,19.79 73.884,19.746 73.557,19.84 C69.809,20.914 66.016,20.674 62.218,20.253 C61.786,20.204 61.356,20.054 60.948,19.893 C60.107,19.56 59.835,18.59 60.49,17.964 C61.052,17.428 61.725,16.925 62.442,16.652 C65.831,15.364 69.229,14.085 72.671,12.954 C74.771,12.263 76.961,11.86 79.194,11.792 C79.699,11.776 80.202,11.703 80.693,11.659 C81.041,10.401 81.338,9.316 81.688,8.047 C78.912,8.374 76.301,8.679 73.691,8.998 C73.255,9.05 72.808,9.114 72.396,9.262 C68.573,10.628 64.756,12.011 60.941,13.4 C60.527,13.552 60.126,13.749 59.743,13.966 C56.677,15.708 53.445,17.188 50.813,19.623 C50.361,20.04 49.795,20.329 49.308,20.709 C47.353,22.234 45.314,23.666 43.49,25.334 C41.603,27.061 39.937,29.028 38.162,30.876 C37.113,31.969 36.261,33.19 35.479,34.491 C33.566,37.669 32.373,41.245 30.055,44.207 C29.524,44.885 29.203,45.769 28.936,46.606 C27.303,51.746 25.452,56.832 25.081,62.286 C24.68,68.206 24.525,74.099 26.11,79.912 C26.762,82.298 27.18,84.748 27.732,87.164 C27.909,87.937 28.129,88.708 28.412,89.45 C29.171,91.433 29.943,93.414 30.772,95.37 C32.063,98.419 33.87,101.133 36.24,103.461 C36.872,104.082 37.504,104.704 38.097,105.362 C42.498,110.234 47.62,114.065 53.824,116.36 C54.486,116.604 55.095,116.985 55.737,117.285 C57.977,118.338 60.2,119.433 62.47,120.417 C64.169,121.154 66.014,121.587 67.647,122.435 C71.552,124.463 75.714,124.964 80.008,124.904 C80.447,124.897 80.94,124.675 81.317,124.808 C83.067,125.426 84.834,125.048 86.587,124.982 C89.683,124.868 92.77,124.558 95.878,124.849 C97.987,125.048 100.112,125.098 102.233,125.161 C108.704,125.354 115.165,125.058 121.618,124.597 C122.498,124.535 123.377,124.387 124.239,124.191 C125.878,123.821 127.502,123.377 129.135,122.983 C131.72,122.356 134.235,121.575 136.656,120.423 C138.805,119.398 141.08,118.635 143.31,117.787 C144.881,117.19 146.469,116.634 148.053,116.073 C149.802,115.455 151.579,114.9 153.305,114.226 C156.268,113.068 159.281,112.025 161.966,110.25 C163.665,109.129 165.415,108.082 167.183,107.074 C168.668,106.231 169.994,105.209 171.078,103.907 C172.153,102.616 173.136,101.25 174.174,99.93 C177.019,96.313 179.696,92.613 182.012,88.6 C184.907,83.58 185.895,78.151 186.21,72.578 C186.464,68.067 185.564,63.588 184.719,59.151" id="Fill-21" fill="#FF8B00"></path>
                <path d="M93.955,5.786 C92.587,5.775 91.416,5.579 90.411,6.641 C90.735,7.11 91.02,7.522 91.462,8.162 C92.461,7.366 93.403,6.955 93.955,5.786" id="Fill-22" fill="#FF8B00"></path>
                <path d="M89.331,81.712 C90.361,82.593 90.887,83.02 91.386,83.475 C93.805,85.678 96.657,86.626 99.903,86.443 C100.257,86.424 100.616,86.364 100.963,86.402 C103.88,86.714 106.289,85.324 108.673,84.003 C110.735,82.859 111.666,80.83 112.225,78.628 C112.312,78.288 112.284,77.92 112.369,77.582 C112.569,76.802 112.848,76.667 114.314,76.599 C114.9,77.256 114.948,78.139 114.995,79.009 C115.191,82.635 115.291,86.267 115.579,89.885 C115.932,94.318 112.852,97.007 109.603,97.886 C105.557,98.981 101.408,99.33 97.265,98.199 C96.753,98.059 96.24,97.888 95.718,97.823 C92.996,97.482 91.563,95.69 90.645,93.338 C89.997,91.682 89.586,89.978 89.563,88.172 C89.54,86.242 89.292,84.315 89.331,81.712" id="Fill-23" fill="#FF473B"></path>
                <path d="M92.287,81.447 C98.283,80.038 103.941,78.709 109.468,77.411 C110.136,77.776 110.097,78.216 109.954,78.644 C109.345,80.461 108.273,81.737 106.516,82.759 C103.387,84.579 100.149,84.655 96.779,84.213 C95.163,84.001 94.103,83.313 92.287,81.447" id="Fill-24" fill="#FFFFFF"></path>
                <path d="M93.65,13.861 C94.826,14.003 95.78,14.091 96.72,14.256 C96.909,14.289 97.147,14.604 97.178,14.815 C97.21,15.028 97.077,15.392 96.902,15.486 C95.08,16.48 93.12,16.828 91.08,16.466 C90.772,16.411 90.432,15.917 90.332,15.563 C90.273,15.354 90.601,14.871 90.856,14.771 C91.818,14.394 92.822,14.121 93.65,13.861" id="Fill-25" fill="#8B6000"></path>
                <path d="M162.538,66.831 C162.436,65.974 162.651,65.236 163.454,64.817 C164.215,64.418 165.01,64.459 165.688,64.993 C166.623,65.729 167.19,66.701 167.214,67.921 C167.233,68.765 166.583,69.484 165.803,69.547 C164.117,69.681 162.688,68.493 162.538,66.831" id="Fill-26" fill="#EA4A00"></path>
                <path d="M51.987,88.585 C50.249,88.639 49.229,87.993 48.77,86.756 C48.325,85.561 49.02,84.368 50.28,84.206 C51.387,84.062 52.397,84.293 53.168,85.163 C53.744,85.813 53.877,86.566 53.546,87.379 C53.207,88.213 52.55,88.573 51.987,88.585" id="Fill-27" fill="#EA4A00"></path>
                <path d="M43.116,81.529 C43.194,83.288 41.942,84.45 40.279,84.271 C39.512,84.189 38.975,83.775 38.674,83.061 C38.402,82.414 38.573,81.772 39.302,81.213 C39.929,80.733 40.611,80.308 41.311,79.939 C42.16,79.494 42.875,79.9 43.041,80.856 C43.086,81.118 43.1,81.383 43.116,81.529" id="Fill-28" fill="#EA4A00"></path>
                <path d="M50.823,78.3 C49.298,78.407 48.389,78.19 47.66,77.431 C47.105,76.852 46.9,76.07 47.219,75.505 C47.592,74.846 48.188,74.411 48.937,74.471 C50.206,74.573 51.332,75.105 52.084,76.158 C52.275,76.426 52.21,77.012 52.055,77.361 C51.741,78.071 51.046,78.285 50.823,78.3" id="Fill-29" fill="#EA4A00"></path>
                <path d="M146.079,68.666 C147.319,68.609 147.899,69.224 147.92,70.62 C147.938,71.794 147.38,72.424 146.249,72.508 C144.884,72.61 144.084,71.889 144.074,70.545 C144.067,69.353 144.735,68.727 146.079,68.666" id="Fill-30" fill="#EA4A00"></path>
                <path d="M157.105,71.882 C157.246,71.899 157.609,71.896 157.933,72.004 C158.162,72.08 158.393,72.269 158.533,72.472 C158.915,73.019 158.627,74.463 158.035,75.171 C157.666,75.61 156.699,75.785 156.072,75.524 C155.371,75.231 155.007,74.282 155.199,73.24 C155.359,72.384 155.863,71.984 157.105,71.882" id="Fill-31" fill="#EA4A00"></path>
                <path d="M63.102,89.577 C63.147,90.699 62.101,91.847 60.992,91.817 C60.678,91.808 60.28,91.645 60.075,91.415 C59.227,90.466 59.708,88.533 60.875,88.044 C61.87,87.626 63.056,88.442 63.102,89.577" id="Fill-32" fill="#EA4A00"></path>
                <path d="M59.847,79.939 C60.616,79.831 61.309,80.723 61.465,82.021 C61.533,82.587 61.018,83.133 60.316,83.236 C59.129,83.411 58.285,82.895 58.102,81.881 C57.938,80.974 58.726,80.097 59.847,79.939" id="Fill-33" fill="#EA4A00"></path>
                <path d="M166.378,76.444 C166.315,75.567 166.836,74.95 167.396,74.388 C167.865,73.916 168.482,73.824 169.117,74.056 C169.659,74.254 170.032,74.915 169.993,75.56 C169.945,76.316 169.458,76.934 168.769,77.109 C167.943,77.318 167.502,77.197 166.378,76.444" id="Fill-34" fill="#EA4A00"></path>
                <path d="M149.091,79.303 C150.351,79.229 151.062,79.656 151.175,80.513 C151.302,81.467 150.55,82.119 149.249,82.187 C147.883,82.258 147.061,81.402 147.454,80.294 C147.736,79.499 148.408,79.324 149.091,79.303" id="Fill-35" fill="#EA4A00"></path>
                <path d="M45.209,92.452 C45.139,92.615 45.087,92.891 44.926,93.071 C44.698,93.327 44.417,93.576 44.108,93.711 C43.537,93.957 42.922,94.091 42.358,93.67 C41.915,93.341 41.777,92.399 42.07,91.706 C42.328,91.096 42.787,90.719 43.464,90.655 C44.137,90.591 45.081,91.528 45.209,92.452" id="Fill-36" fill="#EA4A00"></path>
                <path d="M155.772,67.489 C154.888,67.487 154.215,66.828 154.259,66.005 C154.305,65.129 154.977,64.466 155.781,64.505 C156.646,64.548 157.227,65.14 157.288,66.04 C157.344,66.87 156.695,67.492 155.772,67.489" id="Fill-37" fill="#EA4A00"></path>
                <path d="M91.462,8.162 C92.461,7.366 93.403,6.955 93.955,5.786 C92.587,5.775 91.416,5.579 90.411,6.641 C90.735,7.11 91.02,7.522 91.462,8.162 Z M134.046,124.069 C134.582,125.296 135.1,126.416 135.562,127.557 C137.256,131.742 138.865,135.958 140.931,139.984 C141.246,140.593 141.341,141.32 141.504,141.999 C142.042,144.22 143.848,145.513 146.045,145.006 C147.497,144.67 149.039,144.258 150.248,143.447 C152.742,141.774 155.103,139.873 156.973,137.474 C157.399,136.927 157.915,136.25 157.93,135.622 C157.966,133.953 157.869,132.257 157.599,130.611 C157.395,129.383 156.392,128.93 155.146,129.328 C153.8,129.758 152.49,130.255 151.473,131.35 C150.087,132.837 148.613,134.241 147.184,135.686 C146.747,136.125 146.362,136.621 145.891,137.018 C144.895,137.854 143.809,137.497 143.43,136.249 C142.969,134.729 142.487,133.214 142.055,131.686 C141.479,129.645 140.929,127.595 140.395,125.544 C140.063,124.268 139.781,122.977 139.455,121.595 C137.432,122.143 135.76,123.078 134.046,124.069 Z M82.942,151.674 C84.293,150.29 84.74,148.849 84.548,147.142 C84.38,145.648 84.384,144.136 84.27,142.635 C84.108,140.49 84.464,138.409 84.965,136.341 C85.586,133.765 86.208,131.19 86.813,128.61 C86.911,128.189 86.922,127.748 86.988,127.205 C86.376,127.182 85.859,127.13 85.346,127.147 C84.384,127.18 83.425,127.25 82.445,127.306 C82.29,127.763 82.134,128.082 82.072,128.419 C81.486,131.635 80.903,134.854 80.347,138.076 C80.074,139.656 79.579,141.13 78.519,142.531 C77.923,142.381 77.289,142.339 76.772,142.07 C75.407,141.363 73.944,141.004 72.451,140.85 C70.346,140.635 68.225,140.55 66.108,140.44 C64.797,140.371 63.694,140.865 62.796,141.792 C62.629,143.917 62.584,144.034 63.611,145.242 C64.407,146.176 65.287,147.092 66.287,147.789 C71.289,151.279 76.811,152.657 82.942,151.674 Z M112.392,25.386 C113.226,24.72 113.205,24.177 112.75,23.609 C112.143,22.849 111.499,22.119 110.924,21.335 C110.511,20.771 110.821,20.046 111.526,19.922 C112.567,19.738 113.67,19.772 114.658,19.445 C116.562,18.814 118.479,18.841 120.429,18.951 C121.663,19.02 122.899,19.063 124.134,19.073 C124.45,19.076 124.863,19.048 124.893,18.387 C124.278,18.044 123.623,17.63 122.928,17.296 C121.093,16.414 119.234,15.584 117.402,14.699 C116.61,14.315 115.812,13.91 115.099,13.399 C114.064,12.651 113.981,11.979 114.717,10.921 C115.259,10.14 115.9,9.423 116.127,8.576 C115.947,8.358 115.906,8.252 115.845,8.243 C115.587,8.196 115.322,8.151 115.061,8.154 C112.818,8.177 110.664,8.648 108.629,9.575 C107.3,10.181 105.921,10.379 104.49,10.314 C103.702,10.279 103.157,9.784 103.07,8.997 C103.013,8.482 103.082,7.948 103.121,7.425 C103.172,6.723 103.259,6.023 103.313,5.322 C103.366,4.643 103.396,3.96 103.432,3.331 C102.436,2.75 101.777,3.27 101.138,3.717 C98.75,5.388 96.348,7.04 94.019,8.79 C93.156,9.439 92.286,9.962 91.288,10.227 C90.193,9.996 89.621,9.198 89.068,8.393 C88.718,7.885 88.477,7.283 88.062,6.842 C87.362,6.105 86.704,5.215 85.442,5.247 C84.346,7.818 83.282,10.324 82.173,12.931 C79.162,13.009 76.264,13.771 73.396,14.671 C66.974,16.688 66.076,17.075 65.032,18.331 C66.018,18.631 66.969,18.676 67.916,18.601 C71.182,18.335 74.421,17.905 77.548,16.857 C77.959,16.721 78.402,16.646 78.835,16.618 C79.329,16.587 79.829,17.29 79.635,17.752 C79.47,18.15 79.268,18.579 78.961,18.862 C77.338,20.365 75.777,21.961 74.001,23.263 C72.259,24.54 70.802,26.044 69.473,27.705 C69.239,27.998 68.807,28.302 69.201,28.903 C69.507,28.816 69.861,28.782 70.152,28.628 C72.96,27.138 75.749,25.609 78.562,24.128 C80.124,23.306 81.696,22.494 83.313,21.791 C84.288,21.37 85.084,22.068 84.983,23.134 C84.941,23.571 84.82,24.001 84.72,24.431 C84.501,25.379 84.248,26.32 84.051,27.272 C83.639,29.255 83.816,32.083 84.498,34.108 C84.778,33.653 85.012,33.311 85.208,32.947 C86.516,30.534 87.779,28.1 89.127,25.71 C89.912,24.321 91.195,24.078 92.485,24.961 C92.777,25.159 93.025,25.417 93.292,25.647 C94.635,26.8 95.976,27.956 97.319,29.109 C98.606,30.213 100.004,31.138 101.626,31.664 C102.019,31.79 102.453,31.775 102.847,31.823 C103.638,28.76 102.056,26.205 101.445,23.534 C102.431,22.482 103.498,22.734 104.506,23.006 C107.138,23.716 109.881,24.054 112.392,25.386 Z M103.567,24.803 C104.728,25.754 104.995,27.038 105.093,28.386 C105.162,29.357 105.242,30.332 105.228,31.305 C105.219,31.912 105.125,32.547 104.917,33.115 C104.492,34.276 103.503,34.755 102.354,34.29 C100.053,33.365 97.771,32.395 95.904,30.671 C94.669,29.529 93.374,28.453 92.086,27.371 C91.781,27.115 91.401,26.953 90.955,26.688 C89.534,29.361 88.213,31.863 86.874,34.355 C86.498,35.054 86.129,35.77 85.642,36.39 C85.062,37.127 84.019,37.36 83.239,37.031 C82.507,36.722 82.184,36.101 82.151,35.346 C82.009,32.085 81.391,28.815 82.361,25.573 C82.451,25.274 82.339,24.914 82.305,24.32 C81.349,24.828 80.575,25.229 79.813,25.647 C77.022,27.176 74.249,28.736 71.438,30.225 C70.586,30.676 69.634,30.95 68.719,31.274 C68.39,31.392 68.033,31.469 67.686,31.48 C66.698,31.51 65.927,30.632 66.269,29.722 C66.669,28.659 67.136,27.571 67.81,26.669 C69.238,24.75 70.835,22.977 72.914,21.684 C73.614,21.247 74.47,20.823 74.69,19.765 C74.25,19.79 73.884,19.746 73.557,19.84 C69.809,20.914 66.016,20.674 62.218,20.253 C61.786,20.204 61.356,20.054 60.948,19.893 C60.107,19.56 59.835,18.59 60.49,17.964 C61.052,17.428 61.725,16.925 62.442,16.652 C65.831,15.364 69.229,14.085 72.671,12.954 C74.771,12.263 76.961,11.86 79.194,11.792 C79.699,11.776 80.202,11.703 80.693,11.659 C81.041,10.401 81.338,9.316 81.688,8.047 C78.912,8.374 76.301,8.679 73.691,8.998 C73.255,9.05 72.808,9.114 72.396,9.262 C68.573,10.628 64.756,12.011 60.941,13.4 C60.527,13.552 60.126,13.749 59.743,13.966 C56.677,15.708 53.445,17.188 50.813,19.623 C50.361,20.04 49.795,20.329 49.308,20.709 C47.353,22.234 45.314,23.666 43.49,25.334 C41.603,27.061 39.937,29.028 38.162,30.876 C37.113,31.969 36.261,33.19 35.479,34.491 C33.566,37.669 32.373,41.245 30.055,44.207 C29.524,44.885 29.203,45.769 28.936,46.606 C27.303,51.746 25.452,56.832 25.081,62.286 C24.68,68.206 24.525,74.099 26.11,79.912 C26.762,82.298 27.18,84.748 27.732,87.164 C27.909,87.937 28.129,88.708 28.412,89.45 C29.171,91.433 29.943,93.414 30.772,95.37 C32.063,98.419 33.87,101.133 36.24,103.461 C36.872,104.082 37.504,104.704 38.097,105.362 C42.498,110.234 47.62,114.065 53.824,116.36 C54.486,116.604 55.095,116.985 55.737,117.285 C57.977,118.338 60.2,119.433 62.47,120.417 C64.169,121.154 66.014,121.587 67.647,122.435 C71.552,124.463 75.714,124.964 80.008,124.904 C80.447,124.897 80.94,124.675 81.317,124.808 C83.067,125.426 84.834,125.048 86.587,124.982 C89.683,124.868 92.77,124.558 95.878,124.849 C97.987,125.048 100.112,125.098 102.233,125.161 C108.704,125.354 115.165,125.058 121.618,124.597 C122.498,124.535 123.377,124.387 124.239,124.191 C125.878,123.821 127.502,123.377 129.135,122.983 C131.72,122.356 134.235,121.575 136.656,120.423 C138.805,119.398 141.08,118.635 143.31,117.787 C144.881,117.19 146.469,116.634 148.053,116.073 C149.802,115.455 151.579,114.9 153.305,114.226 C156.268,113.068 159.281,112.025 161.966,110.25 C163.665,109.129 165.415,108.082 167.183,107.074 C168.668,106.231 169.994,105.209 171.078,103.907 C172.153,102.616 173.136,101.25 174.174,99.93 C177.019,96.313 179.696,92.613 182.012,88.6 C184.907,83.58 185.895,78.151 186.21,72.578 C186.464,68.067 185.564,63.588 184.719,59.151 C184.586,58.458 184.387,57.771 184.144,57.108 C182.261,51.961 180.037,46.939 178.394,41.7 C178.314,41.447 178.232,41.192 178.117,40.954 C176.882,38.405 175.726,35.815 174.007,33.531 C173.001,32.19 172.072,30.792 171.087,29.433 C169.115,26.706 167.11,24.009 164.707,21.632 C163.703,20.638 162.775,19.565 161.773,18.569 C161.149,17.948 160.519,17.283 159.768,16.851 C156.091,14.729 152.389,12.648 148.659,10.622 C147.345,9.907 145.841,9.522 144.569,8.751 C141.548,6.919 138.214,6.077 134.803,5.551 C132.108,5.138 129.365,5.037 126.645,4.789 C125.588,4.693 124.536,4.532 123.478,4.485 C121.181,4.389 118.867,4.486 116.585,4.25 C113.472,3.924 110.391,4.216 107.298,4.374 C106.704,4.405 106.119,4.587 105.495,4.707 C105.466,5.359 105.443,5.884 105.417,6.409 C105.389,6.984 105.359,7.559 105.331,8.121 C106.518,8.46 107.376,7.979 108.273,7.605 C111.267,6.352 114.429,6.024 117.635,6.008 C118.61,6.004 119.314,6.817 119.114,7.77 C118.993,8.347 118.668,8.908 118.332,9.406 C117.792,10.202 117.188,10.953 116.852,11.997 C117.476,12.328 117.996,12.632 118.54,12.886 C120.303,13.712 122.116,14.441 123.831,15.355 C125.779,16.396 127.651,17.583 129.542,18.73 C130.036,19.032 130.221,19.536 130.107,20.108 C129.985,20.71 129.5,20.938 128.978,21.09 C128.809,21.139 128.626,21.149 128.451,21.156 C125.799,21.236 123.163,21.636 120.495,21.252 C119.37,21.089 118.198,21.235 117.049,21.278 C116.064,21.315 115.201,21.699 114.304,22.347 C114.783,22.986 115.206,23.538 115.614,24.101 C116.952,25.942 116.553,27.379 114.475,28.209 C114.319,28.272 114.131,28.261 113.831,28.3 C110.782,26.432 107.234,25.654 103.567,24.803 Z M141.143,120.826 C142.491,125.292 143.289,129.654 145.377,133.817 C145.832,133.506 146.265,133.278 146.613,132.958 C147.979,131.699 149.286,130.377 150.677,129.145 C151.894,128.063 153.418,127.5 154.962,127.119 C157.159,126.578 158.807,127.487 159.579,129.642 C160.337,131.765 160.344,134.012 160.075,136.206 C159.966,137.105 159.362,138.034 158.764,138.769 C155.737,142.486 151.941,145.169 147.412,146.765 C143.88,148.011 140.953,146.333 139.59,143.204 C138.144,139.879 136.745,136.53 135.351,133.183 C134.396,130.893 133.498,128.583 132.552,126.29 C132.321,125.732 132.011,125.205 131.672,124.533 C129.38,125.075 127.161,125.621 124.93,126.122 C123.898,126.354 122.855,126.591 121.805,126.671 C115.262,127.176 108.707,127.387 102.147,127.238 C99.673,127.181 97.205,126.948 94.733,126.855 C93.058,126.794 91.382,126.839 89.658,126.834 C89.455,127.262 89.243,127.548 89.173,127.868 C88.293,131.925 87.417,135.984 86.581,140.051 C86.458,140.644 86.516,141.283 86.546,141.897 C86.641,143.845 86.697,145.797 86.893,147.737 C87.064,149.432 86.522,150.84 85.631,152.229 C84.846,153.455 83.779,154.056 82.377,154.243 C78.612,154.744 74.945,154.267 71.379,153.062 C69.112,152.297 66.904,151.321 65.012,149.82 C63.843,148.891 62.775,147.822 61.732,146.747 C60.316,145.289 60.149,143.446 60.311,141.535 C60.374,140.792 60.662,140.148 61.286,139.728 C62.777,138.725 64.352,137.937 66.226,138.065 C68.259,138.205 70.303,138.257 72.319,138.528 C73.963,138.747 75.572,139.232 77.205,139.601 C78.042,138.021 79.647,130.875 79.965,127.179 C78.339,126.999 76.708,126.767 75.067,126.652 C73.102,126.515 71.188,126.134 69.397,125.348 C64.381,123.148 59.094,121.556 54.364,118.704 C53.988,118.478 53.576,118.296 53.164,118.139 C46.632,115.68 41.246,111.61 36.638,106.436 C36.167,105.906 35.656,105.413 35.151,104.916 C32.325,102.142 30.261,98.884 28.816,95.198 C27.296,91.326 25.513,87.553 24.461,83.507 C24.172,82.395 23.903,81.278 23.531,79.783 C22.858,79.224 21.934,78.41 20.96,77.66 C17.253,74.801 14.23,71.393 12.245,67.104 C11.651,65.823 10.873,64.626 10.226,63.367 C7.619,58.292 5.469,53.082 5.367,47.243 C5.338,45.577 5.312,43.917 4.584,42.317 C4.234,41.545 3.921,40.914 3.146,40.55 C2.746,40.362 2.352,40.144 2,39.881 C1.506,39.512 0.984,39.144 0.607,38.671 C0.366,38.369 0.178,37.796 0.31,37.493 C0.426,37.223 1.006,37.063 1.397,37.028 C1.78,36.993 2.184,37.178 2.688,37.29 C2.848,36.031 2.077,35.158 1.867,34.145 C1.707,33.369 1.442,32.614 1.301,31.838 C1.241,31.511 1.291,31.09 1.459,30.816 C1.617,30.56 1.979,30.364 2.286,30.296 C2.479,30.254 2.811,30.443 2.943,30.628 C3.137,30.901 3.238,31.254 3.327,31.589 C3.704,33.012 4.233,34.359 5.088,35.612 C5.802,34.997 5.522,34.344 5.52,33.758 C5.518,32.695 5.42,31.63 5.444,30.57 C5.454,30.156 5.632,29.718 5.831,29.343 C6.13,28.786 7.157,28.82 7.367,29.394 C7.544,29.88 7.632,30.413 7.68,30.931 C7.806,32.32 7.84,33.719 8.011,35.029 C8.755,35.27 9.046,34.845 9.241,34.497 C9.716,33.654 10.073,32.746 10.523,31.889 C10.807,31.349 11.115,30.8 11.525,30.361 C11.706,30.17 12.234,30.109 12.483,30.233 C12.725,30.351 12.996,30.832 12.933,31.071 C12.577,32.433 12.162,33.783 11.689,35.11 C11.487,35.675 11.097,36.174 10.8,36.689 C11.267,37.331 11.782,36.939 12.237,36.86 C12.93,36.744 13.603,36.499 14.296,36.402 C14.872,36.323 15.487,36.767 15.436,37.248 C15.396,37.628 15.158,38.099 14.854,38.311 C14.357,38.658 13.74,38.838 13.167,39.069 C12.024,39.534 10.876,39.986 9.705,40.454 C9.312,41.91 8.724,43.184 7.272,43.948 C7.443,47.6 7.663,51.14 8.901,54.66 C10.652,59.64 13.337,64.111 15.844,68.683 C17.34,71.411 19.559,73.588 22.054,75.374 C22.754,75.144 22.626,74.649 22.615,74.238 C22.589,73.265 22.471,72.291 22.483,71.317 C22.522,68.14 22.498,64.956 22.711,61.788 C22.822,60.129 23.368,58.495 23.736,56.855 C24.277,54.439 24.802,52.018 25.398,49.615 C25.737,48.243 26.097,46.857 26.631,45.554 C27.944,42.351 29.5,39.266 31.63,36.51 C32.063,35.95 32.538,35.415 32.92,34.822 C37.012,28.463 42.39,23.39 48.533,19.065 C49.909,18.097 51.223,17.042 52.543,15.998 C55.12,13.96 57.886,12.219 60.784,10.684 C61.173,10.477 61.578,10.247 62.001,10.166 C65.306,9.529 68.396,8.226 71.549,7.121 C71.882,7.004 72.233,6.925 72.583,6.879 C75.385,6.51 78.186,6.112 80.996,5.81 C82.304,5.669 83.346,5.411 83.932,3.997 C84.361,2.964 85.661,2.712 86.945,3.213 C87.589,3.464 88.158,3.907 88.604,4.168 C91.665,3.676 94.549,3.245 97.42,2.738 C98.453,2.555 99.472,2.245 100.462,1.894 C101.537,1.514 102.557,0.98 103.628,0.584 C104.795,0.151 104.874,0.216 105.693,1.463 C105.789,1.609 105.887,1.755 106.004,1.928 C106.931,2.318 107.908,2.043 108.865,2.01 C115.69,1.787 122.499,1.862 129.277,2.867 C131.28,3.163 133.35,3.036 135.339,3.384 C138.914,4.013 142.422,4.9 145.595,6.817 C146.873,7.587 148.358,8.006 149.672,8.724 C153.399,10.76 157.112,12.825 160.776,14.974 C161.75,15.544 162.565,16.414 163.385,17.213 C164.397,18.201 165.309,19.29 166.315,20.285 C168.779,22.727 170.836,25.498 172.843,28.31 C173.82,29.676 174.742,31.081 175.752,32.422 C177.527,34.78 178.708,37.457 179.973,40.091 C180.164,40.488 180.32,40.906 180.457,41.326 C182.086,46.287 184.097,51.105 185.915,55.997 C186.465,57.475 186.709,59.074 187.025,60.629 C187.361,62.266 187.615,63.917 187.932,65.733 C189.339,65.519 190.212,64.78 190.857,63.882 C193.182,60.644 195.641,57.477 197.643,54.046 C199.425,50.99 200.363,47.553 200.784,43.972 C201.194,40.5 200.834,37.075 200.654,33.632 C200.568,31.979 199.485,30.616 197.802,30.296 C195.625,29.884 194.134,28.695 193.048,26.935 C193.209,26.132 193.746,26.059 194.288,26.173 C195.039,26.334 195.771,26.592 196.525,26.814 C196.732,26.081 196.154,25.818 195.789,25.559 C194.966,24.978 194.363,24.237 193.888,23.38 C193.722,23.081 193.569,22.715 193.586,22.388 C193.604,22.074 193.769,21.654 194.01,21.498 C194.256,21.34 194.776,21.302 194.995,21.462 C195.627,21.926 196.148,22.544 196.761,23.041 C196.921,23.17 197.313,23.183 197.486,23.074 C197.65,22.971 197.777,22.602 197.725,22.405 C197.54,21.722 197.22,21.075 197.049,20.391 C196.923,19.892 196.838,19.328 196.949,18.842 C197.033,18.481 197.411,18.022 197.746,17.932 C198.061,17.849 198.588,18.095 198.849,18.364 C199.733,19.272 200.138,20.462 200.55,21.635 C200.687,22.027 200.71,22.532 201.479,22.584 C201.793,21.525 201.541,20.383 201.737,19.301 C201.861,18.614 201.84,17.823 202.737,17.623 C203.384,17.479 204.14,18.143 204.248,19.157 C204.37,20.29 204.33,21.449 204.264,22.591 C204.213,23.475 204.009,24.35 204.764,25.282 C205.233,24.732 205.649,24.214 206.104,23.73 C206.458,23.351 206.818,22.938 207.258,22.692 C207.491,22.561 207.942,22.688 208.223,22.835 C208.394,22.926 208.494,23.273 208.503,23.51 C208.516,23.762 208.433,24.047 208.308,24.27 C206.936,26.727 205.854,29.398 203.189,31.133 C203.289,33.177 203.375,35.289 203.5,37.399 C203.619,39.435 203.6,41.451 203.412,43.494 C202.906,48.918 201.173,53.859 198.047,58.307 C196.468,60.554 194.891,62.804 193.212,64.976 C192.521,65.872 191.613,66.623 190.716,67.327 C189.963,67.918 189.081,68.346 188.177,68.894 C188.167,69.384 188.132,69.907 188.15,70.428 C188.326,75.258 187.653,79.961 186.096,84.538 C185.952,84.956 185.873,85.403 185.678,85.796 C183.955,89.29 182.203,92.773 179.872,95.918 C177.972,98.477 176.062,101.027 174.105,103.542 C172.465,105.652 170.614,107.54 168.228,108.85 C166.753,109.657 165.272,110.479 163.906,111.456 C161.059,113.49 157.829,114.745 154.629,116.008 C150.849,117.501 146.956,118.709 143.113,120.046 C142.536,120.248 141.975,120.493 141.143,120.826 Z" id="Fill-38" fill="#542033"></path>
                <path d="M92.287,81.447 C94.103,83.313 95.163,84.001 96.779,84.213 C100.149,84.655 103.387,84.579 106.516,82.759 C108.273,81.737 109.345,80.461 109.954,78.644 C110.097,78.216 110.136,77.776 109.468,77.411 C103.941,78.709 98.283,80.038 92.287,81.447 Z M89.331,81.712 C89.292,84.315 89.54,86.242 89.563,88.172 C89.586,89.978 89.997,91.682 90.645,93.338 C91.563,95.69 92.996,97.482 95.718,97.823 C96.24,97.888 96.753,98.059 97.265,98.199 C101.408,99.33 105.557,98.981 109.603,97.886 C112.852,97.007 115.932,94.318 115.579,89.885 C115.291,86.267 115.191,82.635 114.995,79.009 C114.948,78.139 114.9,77.256 114.314,76.599 C112.848,76.667 112.569,76.802 112.369,77.582 C112.284,77.92 112.312,78.288 112.225,78.628 C111.666,80.83 110.735,82.859 108.673,84.003 C106.289,85.324 103.88,86.714 100.963,86.402 C100.616,86.364 100.257,86.424 99.903,86.443 C96.657,86.626 93.805,85.678 91.386,83.475 C90.887,83.02 90.361,82.593 89.331,81.712 Z M117.709,84.558 C117.785,85.881 117.86,87.207 117.936,88.532 C117.961,88.975 117.984,89.416 118.011,89.857 C118.335,95.087 115.304,98.258 111.069,100.018 C110.023,100.452 108.858,100.702 107.728,100.812 C105.352,101.039 102.963,101.229 100.58,101.226 C98,101.224 95.521,100.453 93.094,99.655 C90.845,98.916 89.548,97.05 88.647,94.999 C87.76,92.982 87.074,90.885 87.114,88.606 C87.14,87.105 86.954,85.603 86.883,84.1 C86.75,81.29 87.103,80.763 89.886,79.99 C92.262,79.33 94.663,78.754 97.061,78.169 C99.292,77.623 101.546,77.172 103.762,76.578 C106.226,75.917 108.856,75.83 111.129,74.494 C112.536,74.449 113.945,74.352 115.351,74.396 C115.683,74.409 116.188,74.836 116.292,75.174 C116.719,76.514 117.146,77.876 117.332,79.263 C117.566,81.013 117.565,82.793 117.666,84.56 C117.68,84.559 117.696,84.558 117.709,84.558 Z" id="Fill-39" fill="#542033"></path>
                <path d="M81.49,71.571 C81.48,72.196 81.521,72.733 81.455,73.257 C81.195,75.313 79.553,76.373 77.613,75.659 C77.084,75.463 76.515,74.978 76.275,74.479 C75.58,73.024 75.293,71.436 75.4,69.825 C75.539,67.75 77.772,66.387 79.677,67.221 C80.112,67.412 80.457,67.901 80.738,68.323 C80.975,68.681 81.113,69.131 81.201,69.557 C81.342,70.25 81.405,70.958 81.49,71.571" id="Fill-40" fill="#542033"></path>
                <path d="M124.245,65.526 C124.295,66.411 124.296,66.763 124.337,67.111 C124.557,68.962 123.276,69.578 121.884,69.979 C121.482,70.093 120.84,69.805 120.474,69.502 C120.015,69.125 119.599,68.589 119.389,68.037 C118.782,66.46 118.615,64.798 119.028,63.15 C119.248,62.271 119.835,61.571 120.84,61.461 C121.947,61.34 123.393,62.202 123.837,63.218 C123.942,63.456 124.03,63.711 124.066,63.968 C124.163,64.661 124.226,65.36 124.245,65.526" id="Fill-41" fill="#542033"></path>
                <path d="M93.65,13.861 C92.822,14.121 91.818,14.394 90.856,14.771 C90.601,14.871 90.273,15.354 90.332,15.563 C90.432,15.917 90.772,16.411 91.08,16.466 C93.12,16.828 95.08,16.48 96.902,15.486 C97.077,15.392 97.21,15.028 97.178,14.815 C97.147,14.604 96.909,14.289 96.72,14.256 C95.78,14.091 94.826,14.003 93.65,13.861 Z M92.777,18.64 C91.557,18.79 90.353,18.706 89.325,17.846 C88.769,17.38 88.32,16.831 88.325,16.072 C88.328,15.744 88.404,15.335 88.605,15.102 C90.479,12.941 94.406,11.866 97.262,12.653 C98.439,12.977 98.979,13.807 99.192,14.91 C99.375,15.861 98.932,16.634 97.846,17.232 C96.285,18.093 94.597,18.547 92.777,18.64 Z" id="Fill-42" fill="#542033"></path>
            </g>
        </g>
    </g>
</svg>