<?xml version="1.0" encoding="UTF-8"?>
<svg width="170px" height="197px" viewBox="0 0 170 197" version="1.1" xmlns="http://www.w3.org/2000/svg" xmlns:xlink="http://www.w3.org/1999/xlink">
    <!-- Generator: Sketch 49.3 (51167) - http://www.bohemiancoding.com/sketch -->
    <title>avatar4</title>
    <desc>Created with Sketch.</desc>
    <defs></defs>
    <g id="Page-1" stroke="none" stroke-width="1" fill="none" fill-rule="evenodd">
        <g id="114523-OOP5HG-503" transform="translate(-302.000000, -67.000000)">
            <g id="avatar4" transform="translate(302.000000, 67.000000)">
                <path d="M147.993,106.058 C147.569,105.48 147.138,104.907 146.679,104.358 C142.368,99.206 138.156,93.982 134.478,88.345 C133.158,86.323 131.65,84.42 130.164,82.514 C124.492,75.241 118.773,68.006 113.112,60.726 C107.063,52.946 101.003,45.174 95.052,37.319 C90.291,31.036 85.671,24.646 81.023,18.279 C79.97,16.834 79.043,15.295 78.086,13.781 C75.979,10.452 73.896,7.106 71.786,3.779 C71.364,3.114 70.859,2.502 70.328,1.777 C69.219,3.08 68.475,4.403 67.828,5.771 C66.642,8.281 65.542,10.831 64.364,13.345 C61.128,20.249 58.685,27.466 56.049,34.604 C53.91,40.399 51.96,46.265 49.821,52.061 C46.752,60.376 43.582,68.655 40.463,76.953 C36.901,86.427 33.257,95.864 28.765,104.948 C28.565,105.35 28.355,105.75 28.208,106.171 C26.346,111.491 24.02,116.65 22.602,122.483 C23.675,123.231 24.623,124.083 25.725,124.625 C28.613,126.047 31.528,127.435 34.51,128.645 C37.656,129.922 40.858,131.083 44.098,132.101 C47.68,133.226 51.295,134.297 54.961,135.087 C59.347,136.033 63.872,136.017 68.327,136.115 C77.822,136.326 87.325,136.156 96.825,136.126 C97.718,136.123 98.644,136.138 99.495,135.918 C103.126,134.977 106.803,134.143 110.337,132.909 C115.646,131.057 120.965,129.205 125.941,126.484 C128.713,124.968 131.267,123.226 133.602,121.124 C134.397,120.407 135.259,119.765 136.051,119.044 C138.294,117.004 140.8,115.274 142.65,112.779 C144.026,110.925 145.547,109.127 147.505,107.792 C147.859,107.55 148.105,107.148 148.398,106.822 C148.24,106.519 148.146,106.266 147.993,106.058" id="Fill-28" fill="#F45448"></path>
                <path d="M158.584,120.827 C160.26,122.343 164.301,128.266 166.136,131.784 C164.491,133.646 162.877,135.537 161.184,137.354 C160.52,138.068 159.707,138.659 158.907,139.229 C157.093,140.525 155.14,141.601 153.396,143.031 C152.115,144.083 150.521,144.776 149.082,145.655 C145.955,147.567 142.922,149.612 139.838,151.587 C135.315,154.485 130.521,156.872 125.505,158.837 C122.263,160.108 119.058,161.524 115.973,163.138 C112.925,164.731 109.68,165.671 106.425,166.617 C104.798,167.091 103.099,167.313 101.432,167.649 C98.971,168.147 96.473,168.269 93.977,168.495 C86.373,169.187 78.76,168.976 71.148,169.037 C69.184,169.053 67.217,168.851 65.252,168.742 C64,168.673 62.746,168.626 61.499,168.512 C57.311,168.13 53.121,167.761 48.941,167.303 C47.705,167.167 46.491,166.79 45.283,166.466 C42,165.583 38.727,164.669 35.448,163.767 C31.455,162.668 27.717,160.972 24.09,158.996 C20.63,157.113 17.263,155.099 14.211,152.53 C13.857,150.183 14.204,147.952 14.981,145.702 C16.09,142.493 16.984,139.212 17.983,135.965 C18.085,135.635 18.272,135.331 18.406,135.048 C18.672,135.063 18.871,135.018 19.008,135.09 C27.882,139.8 39.532,144.129 50.642,146.759 C55.522,147.915 60.462,148.653 65.473,149.11 C73.528,149.844 81.587,149.599 89.642,149.554 C92.74,149.536 95.854,148.808 98.928,148.231 C105.009,147.09 110.92,145.3 116.664,143.017 C119.568,141.862 122.338,140.37 125.191,139.081 C129.434,137.164 133.698,135.299 137.709,132.912 C138.244,132.593 138.819,132.312 139.411,132.124 C142.495,131.146 145.341,129.627 148.273,128.303 C150.098,127.479 151.608,126.229 153.157,125.01 C154.909,123.63 156.689,122.284 158.584,120.827" id="Fill-29" fill="#659F48"></path>
                <path d="M19.289,132.093 C19.72,129.418 20.545,127.04 21.999,124.284 C22.721,124.804 23.397,125.358 24.14,125.808 C24.903,126.269 25.74,126.607 26.527,127.032 C30.712,129.292 35.086,131.069 39.604,132.571 C43.422,133.841 47.163,135.335 51.067,136.345 C54.372,137.2 57.695,137.87 61.135,137.747 C61.76,137.725 62.404,137.697 63.012,137.818 C66.383,138.488 69.793,138.304 73.191,138.317 C80.627,138.347 88.063,138.322 95.498,138.385 C97.753,138.403 99.989,138.306 102.147,137.678 C106.949,136.281 111.842,135.167 116.443,133.136 C117.587,132.63 118.775,132.223 119.955,131.806 C124.195,130.306 128.099,128.146 131.858,125.716 C132.68,125.185 133.408,124.506 134.161,123.873 C136.555,121.862 138.978,119.883 141.311,117.804 C142.373,116.856 143.282,115.73 144.207,114.64 C145.939,112.6 147.602,110.492 150.136,109.071 C151.163,109.759 151.609,110.991 152.414,111.904 C153.3,112.911 154.088,114.002 154.926,115.051 C155.697,116.016 156.478,116.974 157.317,118.015 C156.865,118.444 156.572,118.769 156.233,119.036 C154.129,120.702 152.045,122.397 149.889,123.995 C148.893,124.733 147.767,125.303 146.672,125.898 C143.916,127.399 141.047,128.643 138.067,129.64 C137.479,129.837 136.921,130.147 136.384,130.466 C132.292,132.893 127.943,134.787 123.605,136.71 C121.726,137.545 119.908,138.523 118.018,139.334 C115.883,140.249 113.704,141.062 111.536,141.897 C105.151,144.356 98.463,145.584 91.758,146.724 C90.793,146.889 89.794,146.892 88.812,146.897 C83.974,146.928 79.136,146.99 74.299,146.937 C66.309,146.848 58.412,145.991 50.611,144.144 C43.358,142.424 36.338,140.074 29.512,137.105 C28.035,136.463 26.539,135.859 25.026,135.311 C22.986,134.569 21.123,133.531 19.289,132.093" id="Fill-30" fill="#D1CA48"></path>
                <path d="M114.673,166.949 C115.845,166.273 116.916,165.64 118.004,165.035 C118.387,164.822 118.81,164.682 119.393,164.431 C120.909,168.629 119.982,172.941 120.396,177.122 C122.382,178.925 124.589,179.801 127.246,179.656 C129.016,179.56 130.825,179.433 132.522,180.184 C132.761,180.289 132.971,180.454 133.21,180.602 C133.651,182.151 133.467,183.5 132.515,184.885 C131.394,186.514 129.797,187.214 128.042,187.544 C125.978,187.931 124.038,187.583 122.238,186.226 C120.053,184.577 118.311,182.595 116.916,180.286 C116.462,179.534 116.055,178.683 115.908,177.827 C115.427,175.018 115.052,172.188 114.688,169.36 C114.588,168.575 114.673,167.767 114.673,166.949" id="Fill-31" fill="#D4C76F"></path>
                <path d="M67.271,171.707 C69.068,171.707 70.643,171.707 72.313,171.707 C72.622,172.824 72.885,173.853 73.193,174.868 C73.815,176.92 74.396,178.989 75.12,181.005 C75.784,182.854 75.619,184.731 75.389,186.57 C75.131,188.627 74.209,190.496 73.034,192.215 C72.23,193.391 71.203,194.099 69.676,194.041 C67.708,193.967 65.735,193.997 63.766,194.03 C62.785,194.047 62.045,193.624 61.399,192.962 C60.578,192.119 60.547,190.853 61.459,190.114 C62.846,188.991 64.284,187.921 65.77,186.93 C67.598,185.708 69.027,184.204 70.028,182.216 C70.648,180.985 70.763,179.85 70.232,178.622 C69.525,176.982 68.793,175.354 68.083,173.715 C67.812,173.088 67.569,172.448 67.271,171.707" id="Fill-32" fill="#D4C76F"></path>
                <path d="M88.949,95.321 C89.717,95.362 90.426,95.207 90.883,95.478 C91.354,95.758 91.64,96.426 91.894,96.976 C92.074,97.367 92.135,97.845 92.136,98.284 C92.143,100.432 92.152,102.581 92.067,104.727 C92.04,105.418 91.811,106.136 91.526,106.777 C90.619,108.826 89.49,110.739 88.116,112.532 C86.934,114.077 85.427,114.899 83.576,115.041 C81.797,115.177 79.994,115.203 78.214,115.091 C76.502,114.983 75.234,113.889 74.236,112.6 C72.085,109.817 70.534,106.705 69.457,103.355 C68.981,101.877 68.97,100.358 69.033,98.837 C69.084,97.581 69.317,97.441 71.135,97.463 C71.711,99.049 72.97,100.197 74.202,101.346 C74.778,101.882 75.472,102.451 76.205,102.633 C78.754,103.266 81.323,103.549 83.707,101.979 C84.528,101.438 85.437,101.011 86.2,100.401 C87.773,99.144 88.837,97.539 88.949,95.321" id="Fill-33" fill="#DB2738"></path>
                <path d="M72.986,97.109 C77.724,96.346 81.98,95.313 86.483,95.285 C86.483,95.978 86.669,96.595 86.444,96.96 C85.986,97.702 85.353,98.357 84.705,98.955 C84.252,99.372 83.61,99.58 83.133,99.977 C81.347,101.455 79.267,101.101 77.222,100.996 L76.968,100.915 C75.357,100.107 74.08,98.96 72.986,97.109" id="Fill-34" fill="#FFFFFF"></path>
                <path d="M92.146,62.256 C91.507,62.578 90.892,62.472 90.439,61.965 C89.85,61.301 89.261,60.606 88.83,59.836 C87.146,56.829 86.442,53.541 85.992,49.832 C86.553,50.117 86.879,50.198 87.086,50.401 C88.556,51.84 90.021,53.285 91.444,54.77 C91.932,55.278 92.38,55.863 92.699,56.489 C93.74,58.53 93.614,59.562 92.146,62.256" id="Fill-35" fill="#95393B"></path>
                <path d="M39.385,108.814 C39.385,111.552 39.392,113.786 39.383,116.02 C39.378,117.263 38.787,118.241 37.949,119.106 C37.178,119.905 36.328,120.501 34.972,120.321 C34.869,119.917 34.655,119.507 34.684,119.114 C34.881,116.288 36.961,111.602 39.385,108.814" id="Fill-36" fill="#95393B"></path>
                <path d="M131.638,111.292 C130.57,111.68 129.769,111.396 129.141,110.644 C128.742,110.167 128.385,109.647 128.072,109.11 C127.308,107.8 126.572,106.472 125.841,105.142 C125.64,104.774 125.277,104.412 125.684,103.857 C127.295,105.112 128.903,106.362 130.507,107.617 C131.663,108.521 132.227,109.634 131.638,111.292" id="Fill-37" fill="#95393B"></path>
                <path d="M63.993,31.376 C64.291,33.511 64.426,35.05 63.911,36.572 C63.847,36.763 63.536,36.982 63.339,36.982 C63.15,36.982 62.825,36.738 62.793,36.561 C62.496,34.873 62.892,33.34 63.993,31.376" id="Fill-38" fill="#95393B"></path>
                <path d="M53.891,127.217 C53.97,125.144 54.291,123.263 54.65,121.449 C55.306,121.261 55.335,121.67 55.466,121.971 C56.086,123.396 56.066,124.9 55.974,126.402 C55.909,127.46 55.571,127.6 53.891,127.217" id="Fill-39" fill="#95393B"></path>
                <path d="M109.253,94.955 C108.273,94.909 107.283,94.935 106.318,94.792 C105.631,94.69 104.911,94.473 104.319,94.118 C101.42,92.383 101.24,88.747 104.061,86.862 C105.9,85.633 107.947,84.706 109.926,83.69 C110.387,83.454 110.945,83.311 111.463,83.297 C113.067,83.254 114.674,83.266 116.277,83.311 C117.428,83.343 118.328,83.922 118.932,84.879 C119.498,85.776 120.049,86.697 120.466,87.669 C120.656,88.111 120.643,88.743 120.49,89.214 C120.034,90.611 119.201,91.736 117.817,92.394 C116.773,92.891 115.744,93.423 114.728,93.974 C113.005,94.907 111.134,94.923 109.253,94.955" id="Fill-40" fill="#4F251F"></path>
                <path d="M45.937,101.619 C45.579,101.619 44.858,101.684 44.154,101.607 C41.649,101.337 40.177,99.562 40.334,97.07 C40.367,96.54 40.48,95.999 40.415,95.481 C40.24,94.118 40.902,93.214 42.018,92.68 C43.054,92.185 44.16,91.689 45.278,91.553 C46.857,91.358 48.504,91.309 50.072,91.536 C52.06,91.825 53.781,92.743 54.766,94.685 C55.488,96.108 55.339,97.421 54.497,98.724 C53.786,99.827 52.743,100.478 51.554,100.927 C49.857,101.569 48.091,101.733 45.937,101.619" id="Fill-41" fill="#4F251F"></path>
                <path d="M67.271,171.707 C67.569,172.448 67.812,173.088 68.083,173.715 C68.793,175.354 69.525,176.982 70.232,178.622 C70.763,179.85 70.648,180.985 70.028,182.216 C69.027,184.204 67.598,185.708 65.77,186.93 C64.284,187.921 62.846,188.991 61.459,190.114 C60.547,190.853 60.578,192.119 61.399,192.962 C62.045,193.624 62.785,194.047 63.766,194.03 C65.735,193.997 67.708,193.967 69.676,194.041 C71.203,194.099 72.23,193.391 73.034,192.215 C74.209,190.496 75.131,188.627 75.389,186.57 C75.619,184.731 75.784,182.854 75.12,181.005 C74.396,178.989 73.815,176.92 73.193,174.868 C72.885,173.853 72.622,172.824 72.313,171.707 C70.643,171.707 69.068,171.707 67.271,171.707 Z M114.673,166.949 C114.673,167.767 114.588,168.575 114.688,169.36 C115.052,172.188 115.427,175.018 115.908,177.827 C116.055,178.683 116.462,179.534 116.916,180.286 C118.311,182.595 120.053,184.577 122.238,186.226 C124.038,187.583 125.978,187.931 128.042,187.544 C129.797,187.214 131.394,186.514 132.515,184.885 C133.467,183.5 133.651,182.151 133.21,180.602 C132.971,180.454 132.761,180.289 132.522,180.184 C130.825,179.433 129.016,179.56 127.246,179.656 C124.589,179.801 122.382,178.925 120.396,177.122 C119.982,172.941 120.909,168.629 119.393,164.431 C118.81,164.682 118.387,164.822 118.004,165.035 C116.916,165.64 115.845,166.273 114.673,166.949 Z M19.289,132.093 C21.123,133.531 22.986,134.569 25.026,135.311 C26.539,135.859 28.035,136.463 29.512,137.105 C36.338,140.074 43.358,142.424 50.611,144.144 C58.412,145.991 66.309,146.848 74.299,146.937 C79.136,146.99 83.974,146.928 88.812,146.897 C89.794,146.892 90.793,146.889 91.758,146.724 C98.463,145.584 105.151,144.356 111.536,141.897 C113.704,141.062 115.883,140.249 118.018,139.334 C119.908,138.523 121.726,137.545 123.605,136.71 C127.943,134.787 132.292,132.893 136.384,130.466 C136.921,130.147 137.479,129.837 138.067,129.64 C141.047,128.643 143.916,127.399 146.672,125.898 C147.767,125.303 148.893,124.733 149.889,123.995 C152.045,122.397 154.129,120.702 156.233,119.036 C156.572,118.769 156.865,118.444 157.317,118.015 C156.478,116.974 155.697,116.016 154.926,115.051 C154.088,114.002 153.3,112.911 152.414,111.904 C151.609,110.991 151.163,109.759 150.136,109.071 C147.602,110.492 145.939,112.6 144.207,114.64 C143.282,115.73 142.373,116.856 141.311,117.804 C138.978,119.883 136.555,121.862 134.161,123.873 C133.408,124.506 132.68,125.185 131.858,125.716 C128.099,128.146 124.195,130.306 119.955,131.806 C118.775,132.223 117.587,132.63 116.443,133.136 C111.842,135.167 106.949,136.281 102.147,137.678 C99.989,138.306 97.753,138.403 95.498,138.385 C88.063,138.322 80.627,138.347 73.191,138.317 C69.793,138.304 66.383,138.488 63.012,137.818 C62.404,137.697 61.76,137.725 61.135,137.747 C57.695,137.87 54.372,137.2 51.067,136.345 C47.163,135.335 43.422,133.841 39.604,132.571 C35.086,131.069 30.712,129.292 26.527,127.032 C25.74,126.607 24.903,126.269 24.14,125.808 C23.397,125.358 22.721,124.804 21.999,124.284 C20.545,127.04 19.72,129.418 19.289,132.093 Z M158.584,120.827 C156.689,122.284 154.909,123.63 153.157,125.01 C151.608,126.229 150.098,127.479 148.273,128.303 C145.341,129.627 142.495,131.146 139.411,132.124 C138.819,132.312 138.244,132.593 137.709,132.912 C133.698,135.299 129.434,137.164 125.191,139.081 C122.338,140.37 119.568,141.862 116.664,143.017 C110.92,145.3 105.009,147.09 98.928,148.231 C95.854,148.808 92.74,149.536 89.642,149.554 C81.587,149.599 73.528,149.844 65.473,149.11 C60.462,148.653 55.522,147.915 50.642,146.759 C39.532,144.129 27.882,139.8 19.008,135.09 C18.871,135.018 18.672,135.063 18.406,135.048 C18.272,135.331 18.085,135.635 17.983,135.965 C16.984,139.212 16.09,142.493 14.981,145.702 C14.204,147.952 13.857,150.183 14.211,152.53 C17.263,155.099 20.63,157.113 24.09,158.996 C27.717,160.972 31.455,162.668 35.448,163.767 C38.727,164.669 42,165.583 45.283,166.466 C46.491,166.79 47.705,167.167 48.941,167.303 C53.121,167.761 57.311,168.13 61.499,168.512 C62.746,168.626 64,168.673 65.252,168.742 C67.217,168.851 69.184,169.053 71.148,169.037 C78.76,168.976 86.373,169.187 93.977,168.495 C96.473,168.269 98.971,168.147 101.432,167.649 C103.099,167.313 104.798,167.091 106.425,166.617 C109.68,165.671 112.925,164.731 115.973,163.138 C119.058,161.524 122.263,160.108 125.505,158.837 C130.521,156.872 135.315,154.485 139.838,151.587 C142.922,149.612 145.955,147.567 149.082,145.655 C150.521,144.776 152.115,144.083 153.396,143.031 C155.14,141.601 157.093,140.525 158.907,139.229 C159.707,138.659 160.52,138.068 161.184,137.354 C162.877,135.537 164.491,133.646 166.136,131.784 C164.301,128.266 160.26,122.343 158.584,120.827 Z M22.602,122.483 C23.675,123.231 24.623,124.083 25.725,124.625 C28.613,126.047 31.528,127.435 34.51,128.645 C37.656,129.922 40.858,131.083 44.098,132.101 C47.68,133.226 51.295,134.297 54.961,135.087 C59.347,136.033 63.872,136.017 68.327,136.115 C77.822,136.326 87.325,136.156 96.825,136.126 C97.718,136.123 98.644,136.138 99.495,135.918 C103.126,134.977 106.803,134.143 110.337,132.909 C115.646,131.057 120.965,129.205 125.941,126.484 C128.713,124.968 131.267,123.226 133.602,121.124 C134.397,120.407 135.259,119.765 136.051,119.044 C138.294,117.004 140.8,115.274 142.65,112.779 C144.026,110.925 145.547,109.127 147.505,107.792 C147.859,107.55 148.105,107.148 148.398,106.822 C148.24,106.519 148.146,106.266 147.993,106.058 C147.569,105.48 147.138,104.907 146.679,104.358 C142.368,99.206 138.156,93.982 134.478,88.345 C133.158,86.323 131.65,84.42 130.164,82.514 C124.492,75.241 118.773,68.006 113.112,60.726 C107.063,52.946 101.003,45.174 95.052,37.319 C90.291,31.036 85.671,24.646 81.023,18.279 C79.97,16.834 79.043,15.295 78.086,13.781 C75.979,10.452 73.896,7.106 71.786,3.779 C71.364,3.114 70.859,2.502 70.328,1.777 C69.219,3.08 68.475,4.403 67.828,5.771 C66.642,8.281 65.542,10.831 64.364,13.345 C61.128,20.249 58.685,27.466 56.049,34.604 C53.91,40.399 51.96,46.265 49.821,52.061 C46.752,60.376 43.582,68.655 40.463,76.953 C36.901,86.427 33.257,95.864 28.765,104.948 C28.565,105.35 28.355,105.75 28.208,106.171 C26.346,111.491 24.02,116.65 22.602,122.483 Z M121.613,163.637 C122.412,165.112 122.326,166.55 122.333,167.978 C122.348,170.661 122.366,173.344 122.383,175.912 C123.503,177.082 124.728,177.521 126.128,177.531 C127.382,177.541 128.645,177.45 129.89,177.563 C131.125,177.676 132.378,177.876 133.554,178.254 C134.173,178.453 134.858,179.011 135.14,179.589 C135.954,181.262 136.034,183.172 135.261,184.78 C134.244,186.895 132.616,188.566 130.207,189.319 C128.713,189.786 127.326,189.839 125.752,189.571 C123.172,189.133 121.086,187.824 118.984,186.486 C118.323,186.066 117.77,185.419 117.291,184.782 C115.384,182.247 114.076,179.4 113.472,176.302 C112.993,173.852 112.813,171.343 112.492,168.861 C112.448,168.521 112.361,168.187 112.298,167.865 C111.94,167.865 111.645,167.787 111.415,167.878 C107.211,169.534 102.722,169.943 98.355,170.889 C98.008,170.965 97.644,170.988 97.286,170.994 C91.465,171.081 85.669,171.843 79.834,171.604 C78.148,171.536 76.443,171.455 74.635,171.716 C75.049,174.479 75.819,177.054 77.011,179.444 C78.301,182.03 78.051,184.689 77.679,187.321 C77.365,189.544 76.303,191.561 75.021,193.43 C73.725,195.322 72.106,196.474 69.647,196.308 C67.507,196.164 65.347,196.324 63.197,196.262 C59.994,196.169 57.754,193.153 58.682,190.122 C58.9,189.405 59.475,188.709 60.063,188.215 C61.361,187.122 62.71,186.061 64.155,185.177 C66.064,184.01 67.516,182.531 68.297,180.335 C67.673,177.071 65.654,174.356 64.566,171.251 C63.964,171.17 63.532,171.085 63.097,171.058 C59.525,170.835 55.941,170.735 52.385,170.369 C49.993,170.123 47.614,169.606 45.274,169.029 C41.625,168.13 38.002,167.118 34.39,166.077 C30.33,164.907 26.529,163.122 22.795,161.152 C19.379,159.352 16.229,157.169 13.09,154.948 C12.111,154.256 11.62,153.419 11.58,152.273 C11.506,150.119 11.505,147.983 12.297,145.911 C13.064,143.905 13.7,141.85 14.435,139.831 C15.417,137.135 16.236,134.405 16.645,131.549 C16.819,130.321 17.244,129.118 17.651,127.937 C19.02,123.959 20.397,119.984 21.837,116.032 C23.246,112.162 24.736,108.321 26.188,104.466 C26.282,104.218 26.351,103.96 26.468,103.588 C25.354,102.91 24.195,102.28 23.123,101.529 C22.325,100.971 21.494,100.359 20.93,99.588 C19.24,97.276 17.571,94.939 16.479,92.255 C16.041,91.179 15.5,90.144 15.009,89.089 C14.479,87.953 13.857,86.851 13.441,85.674 C11.324,79.686 9.014,73.749 7.986,67.437 C7.771,66.115 7.571,64.776 7.559,63.443 C7.548,62.339 7.109,61.548 6.331,60.891 C5.512,60.197 4.643,59.562 3.804,58.89 C2.59,57.917 1.735,56.663 1.052,55.288 C0.855,54.892 0.627,54.454 0.623,54.035 C0.621,53.646 0.794,53.12 1.079,52.898 C1.503,52.569 1.921,52.935 2.177,53.324 C2.569,53.922 2.894,54.565 3.297,55.157 C3.787,55.875 4.238,56.657 5.342,57.108 C5.396,56.625 5.517,56.304 5.451,56.027 C5.038,54.285 4.604,52.549 4.138,50.82 C3.88,49.861 3.614,48.905 3.908,47.921 C3.97,47.713 4.255,47.475 4.469,47.439 C4.682,47.403 5.048,47.54 5.146,47.715 C5.408,48.173 5.583,48.686 5.752,49.19 C6.229,50.623 6.688,52.063 7.161,53.526 C7.91,53.425 7.741,52.873 7.767,52.521 C7.844,51.449 7.814,50.37 7.9,49.299 C7.942,48.778 8.102,48.253 8.29,47.761 C8.478,47.271 9.399,47.224 9.625,47.695 C9.852,48.167 10.063,48.684 10.108,49.196 C10.197,50.176 10.125,51.169 10.191,52.15 C10.263,53.207 10.244,54.309 11.17,55.315 C11.49,55.028 11.91,54.819 12.062,54.486 C12.581,53.346 12.975,52.163 13.013,50.877 C13.028,50.362 13.213,49.835 13.415,49.354 C13.484,49.19 13.84,49.101 14.075,49.073 C14.204,49.06 14.43,49.216 14.485,49.349 C14.986,50.537 15.097,51.778 14.799,53.028 C14.49,54.322 14.113,55.601 13.718,57.063 C14.598,56.91 14.773,56.12 15.263,55.729 C15.801,55.297 16.352,54.88 16.819,54.517 C17.637,54.88 17.794,55.405 17.522,55.934 C16.701,57.531 15.763,59.049 14.285,60.156 C13.003,61.118 11.749,62.118 10.685,62.944 C9.654,65.477 9.91,67.75 10.602,70.018 C11.123,71.729 11.646,73.439 12.195,75.142 C12.69,76.674 13.175,78.214 13.747,79.718 C14.702,82.226 15.688,84.723 16.732,87.194 C17.429,88.841 18.155,90.489 19.04,92.04 C20.236,94.137 21.451,96.253 22.933,98.146 C24.076,99.605 25.646,100.727 27.648,100.845 C28.531,100.158 28.777,99.167 29.171,98.283 C32.305,91.247 35.209,84.116 37.92,76.905 C41.134,68.356 44.416,59.832 47.606,51.273 C49.764,45.485 51.776,39.642 53.918,33.847 C57.178,25.024 60.469,16.21 64.698,7.793 C65.781,5.64 67.129,3.617 68.399,1.561 C68.719,1.044 69.209,0.631 69.548,0.251 C71.31,0.049 72.342,0.834 73.181,2.152 C75.442,5.702 77.771,9.209 80.074,12.731 C80.908,14.006 81.71,15.303 82.587,16.546 C87.494,23.502 92.505,30.381 97.763,37.079 C103.516,44.408 109.215,51.78 114.923,59.144 C115.91,60.418 116.713,61.851 117.791,63.037 C122.686,68.414 126.7,74.489 131.393,80.024 C131.9,80.624 132.467,81.174 133.058,81.801 C135.563,79.015 137.198,75.985 138.005,72.51 C138.733,69.372 139.478,66.238 140.208,63.103 C140.289,62.754 140.37,62.396 140.381,62.042 C140.586,55.424 141.474,48.826 140.991,42.319 C140.217,41.205 139.57,40.132 138.777,39.182 C138.1,38.369 137.302,37.637 136.47,36.979 C135.3,36.054 134.599,34.828 134.01,33.519 C133.874,33.216 133.877,32.815 133.93,32.476 C133.965,32.253 134.166,31.969 134.365,31.882 C134.572,31.792 134.973,31.81 135.106,31.95 C135.656,32.531 136.123,33.188 136.646,33.795 C137.032,34.244 137.23,34.95 138.201,34.884 C138.234,34.604 138.367,34.271 138.29,33.996 C137.926,32.705 137.51,31.43 137.102,30.151 C136.882,29.462 136.633,28.758 137.011,28.072 C137.161,27.799 137.501,27.49 137.777,27.467 C138.052,27.443 138.515,27.69 138.619,27.935 C139.25,29.416 139.799,30.931 140.381,32.431 C140.538,32.837 140.718,33.233 140.869,33.591 C141.457,33.587 141.556,33.257 141.554,32.887 C141.543,31.276 141.534,29.665 141.494,28.055 C141.465,26.856 141.681,26.36 142.305,26.372 C142.976,26.384 143.46,26.81 143.655,27.797 C143.845,28.757 143.919,29.744 143.987,30.725 C144.049,31.617 143.968,32.524 144.082,33.407 C144.145,33.89 144.482,34.335 144.734,34.879 C145.71,34.247 145.771,33.313 146.023,32.491 C146.259,31.724 146.398,30.924 146.666,30.169 C146.971,29.31 147.491,28.945 147.988,29.145 C148.631,29.403 148.6,29.999 148.522,30.507 C148.319,31.835 148.047,33.151 147.787,34.47 C147.703,34.894 147.571,35.309 147.416,35.902 C148.646,36.076 149.504,35.095 150.561,35.295 C151.191,35.893 150.869,36.515 150.394,36.899 C149.565,37.569 148.631,38.114 147.713,38.664 C147.257,38.938 146.738,39.106 146.55,39.189 C145.668,40.24 145.046,41.106 144.293,41.84 C143.664,42.453 143.368,43.137 143.35,43.974 C143.331,44.869 143.353,45.767 143.333,46.662 C143.287,48.812 143.254,50.962 143.164,53.11 C143.063,55.524 142.955,57.941 142.758,60.35 C142.619,62.043 142.439,63.748 142.077,65.404 C141.276,69.073 140.442,72.743 139.12,76.27 C138.393,78.209 137.354,79.984 136.051,81.606 C135.496,82.298 135.031,83.062 134.46,83.889 C136.422,86.703 138.247,89.565 140.317,92.236 C144.047,97.048 147.972,101.707 151.718,106.505 C153.755,109.114 155.505,111.946 157.818,114.345 C158.121,114.659 158.425,115.068 158.512,115.479 C158.883,117.24 160.104,118.462 161.155,119.78 C164.01,123.355 166.518,127.167 168.917,131.054 C169.101,131.352 169.205,131.699 169.337,131.999 C168.912,133.175 168.222,134.035 167.262,134.784 C166.283,135.547 165.361,136.445 164.627,137.441 C163.047,139.584 160.985,141.114 158.784,142.521 C157.811,143.144 156.903,143.868 155.966,144.546 C155.53,144.86 155.121,145.224 154.652,145.478 C151.201,147.347 147.93,149.513 144.598,151.578 C144.371,151.719 144.095,151.794 143.894,151.963 C141.408,154.055 138.526,155.502 135.711,157.064 C132.652,158.763 129.472,160.177 126.194,161.386 C124.69,161.94 123.168,162.46 121.613,163.637 Z" id="Fill-42" fill="#4F251F"></path>
                <path d="M72.986,97.109 C74.08,98.96 75.357,100.107 76.968,100.915 L77.222,100.996 C79.267,101.101 81.347,101.455 83.133,99.977 C83.61,99.58 84.252,99.372 84.705,98.955 C85.353,98.357 85.986,97.702 86.444,96.96 C86.669,96.595 86.483,95.978 86.483,95.285 C81.98,95.313 77.724,96.346 72.986,97.109 Z M88.949,95.321 C88.837,97.539 87.773,99.144 86.2,100.401 C85.437,101.011 84.528,101.438 83.707,101.979 C81.323,103.549 78.754,103.266 76.205,102.633 C75.472,102.451 74.778,101.882 74.202,101.346 C72.97,100.197 71.711,99.049 71.135,97.463 C69.317,97.441 69.084,97.581 69.033,98.837 C68.97,100.358 68.981,101.877 69.457,103.355 C70.534,106.705 72.085,109.817 74.236,112.6 C75.234,113.889 76.502,114.983 78.214,115.091 C79.994,115.203 81.797,115.177 83.576,115.041 C85.427,114.899 86.934,114.077 88.116,112.532 C89.49,110.739 90.619,108.826 91.526,106.777 C91.811,106.136 92.04,105.418 92.067,104.727 C92.152,102.581 92.143,100.432 92.136,98.284 C92.135,97.845 92.074,97.367 91.894,96.976 C91.64,96.426 91.354,95.758 90.883,95.478 C90.426,95.207 89.717,95.362 88.949,95.321 Z M94.251,101.694 L94.253,101.962 C94.805,107.354 92.014,111.367 88.773,115.181 C87.938,116.164 86.793,116.683 85.554,117.014 C83.004,117.694 80.408,117.747 77.821,117.444 C75.467,117.168 73.69,115.768 72.295,113.947 C70.157,111.156 68.645,108.017 67.432,104.726 C66.602,102.477 66.676,100.145 66.814,97.824 C66.907,96.286 67.729,95.594 69.284,95.674 C71.379,95.782 73.363,95.206 75.364,94.793 C80.029,93.831 84.72,93.231 89.49,93.394 C90.027,93.412 90.564,93.42 91.1,93.454 C92.081,93.518 92.771,94.009 93.194,94.896 C93.776,96.114 94.297,97.341 94.243,98.738 C94.205,99.723 94.235,100.709 94.235,101.694 L94.251,101.694 Z" id="Fill-43" fill="#4F251F"></path>
                <path d="M92.146,62.256 C93.614,59.562 93.74,58.53 92.699,56.489 C92.38,55.863 91.932,55.278 91.444,54.77 C90.021,53.285 88.556,51.84 87.086,50.401 C86.879,50.198 86.553,50.117 85.992,49.832 C86.442,53.541 87.146,56.829 88.83,59.836 C89.261,60.606 89.85,61.301 90.439,61.965 C90.892,62.472 91.507,62.578 92.146,62.256 Z M84.059,44.665 C84.705,45.085 85.149,45.233 85.376,45.542 C87.46,48.375 90.07,50.711 92.522,53.195 C93.542,54.229 94.306,55.375 94.831,56.763 C95.761,59.224 94.954,61.349 93.806,63.416 C93.224,64.463 91.683,64.808 90.441,64.204 C89.738,63.862 89.075,63.334 88.554,62.748 C87.415,61.468 86.545,59.995 86.014,58.356 C84.851,54.766 83.892,51.14 84.155,47.303 C84.207,46.548 84.104,45.781 84.059,44.665 Z" id="Fill-44" fill="#4F251F"></path>
                <path d="M39.385,108.814 C36.961,111.602 34.881,116.288 34.684,119.114 C34.655,119.507 34.869,119.917 34.972,120.321 C36.328,120.501 37.178,119.905 37.949,119.106 C38.787,118.241 39.378,117.263 39.383,116.02 C39.392,113.786 39.385,111.552 39.385,108.814 Z M32.833,119.165 C32.909,118.696 32.937,117.966 33.152,117.297 C34.426,113.358 36.1,109.632 38.943,106.525 C39.535,105.88 39.936,105.06 40.509,104.394 C40.676,104.2 41.154,104.183 41.461,104.239 C41.618,104.269 41.855,104.674 41.813,104.853 C40.986,108.384 41.455,111.97 41.346,115.529 C41.278,117.722 40.373,119.469 38.752,120.911 C37.599,121.937 36.266,122.269 34.779,122.125 C33.77,122.027 33.11,121.435 32.933,120.479 C32.867,120.13 32.876,119.768 32.833,119.165 Z" id="Fill-45" fill="#4F251F"></path>
                <path d="M131.638,111.292 C132.227,109.634 131.663,108.521 130.507,107.617 C128.903,106.362 127.295,105.112 125.684,103.857 C125.277,104.412 125.64,104.774 125.841,105.142 C126.572,106.472 127.308,107.8 128.072,109.11 C128.385,109.647 128.742,110.167 129.141,110.644 C129.769,111.396 130.57,111.68 131.638,111.292 Z M123.23,101.999 C125.454,101.638 126.903,102.54 128.302,103.725 C129.526,104.763 130.877,105.65 132.166,106.612 C133.807,107.836 134.08,109.549 133.834,111.42 C133.672,112.649 132.946,113.313 131.708,113.449 C130.212,113.614 128.893,113.344 127.823,112.138 C126.727,110.901 123.513,104.765 123.239,103.119 C123.184,102.783 123.23,102.43 123.23,101.999 Z" id="Fill-46" fill="#4F251F"></path>
                <path d="M63.993,31.376 C62.892,33.34 62.496,34.873 62.793,36.561 C62.825,36.738 63.15,36.982 63.339,36.982 C63.536,36.982 63.847,36.763 63.911,36.572 C64.426,35.05 64.291,33.511 63.993,31.376 Z M66.537,25.431 C66.537,26.321 66.712,27.235 66.503,28.052 C65.982,30.076 66.127,32.119 66.051,34.162 C66.014,35.128 65.919,36.129 65.627,37.042 C65.102,38.687 63.723,39.341 62.032,38.914 C61.46,38.77 61.023,38.396 61.033,37.814 C61.058,36.398 60.943,34.919 61.313,33.584 C62.048,30.919 63.28,28.435 64.86,26.145 C65.242,25.593 65.263,25.606 66.537,25.431 Z" id="Fill-47" fill="#4F251F"></path>
                <path d="M53.891,127.217 C55.571,127.6 55.909,127.46 55.974,126.402 C56.066,124.9 56.086,123.396 55.466,121.971 C55.335,121.67 55.306,121.261 54.65,121.449 C54.291,123.263 53.97,125.144 53.891,127.217 Z M54.81,117.098 C56.923,120.325 58.123,123.322 57.691,126.738 C57.402,129.027 55.161,130.104 53.132,128.891 C52.847,128.721 52.605,128.405 52.457,128.102 C52.308,127.794 52.208,127.409 52.242,127.074 C52.552,123.978 52.909,120.887 54.299,118.034 C54.454,117.715 54.639,117.409 54.81,117.098 Z" id="Fill-48" fill="#4F251F"></path>
                <path d="M62.984,86.13 C63.022,87.194 63.092,88.265 62.345,89.178 C61.689,89.978 60.688,89.969 60.117,89.096 C59.089,87.524 58.971,85.771 59.15,83.974 C59.249,82.995 59.781,82.387 60.556,82.283 C61.452,82.164 62.4,82.665 62.719,83.499 C62.874,83.906 62.934,84.359 62.976,84.798 C63.019,85.237 62.984,85.686 62.984,86.13" id="Fill-49" fill="#4F251F"></path>
                <path d="M97.569,83.726 C97.426,84.13 97.299,84.652 97.063,85.12 C96.614,86.007 95.88,86.169 95.081,85.619 C93.543,84.559 92.813,82.403 93.404,80.661 C93.778,79.556 95.181,79.174 96,80 C96.979,80.989 97.419,82.238 97.569,83.726" id="Fill-50" fill="#4F251F"></path>
            </g>
        </g>
    </g>
</svg>