<?xml version="1.0" encoding="UTF-8"?>
<svg width="193px" height="201px" viewBox="0 0 193 201" version="1.1" xmlns="http://www.w3.org/2000/svg" xmlns:xlink="http://www.w3.org/1999/xlink">
    <!-- Generator: Sketch 49.3 (51167) - http://www.bohemiancoding.com/sketch -->
    <title>avatar7</title>
    <desc>Created with Sketch.</desc>
    <defs></defs>
    <g id="Page-2" stroke="none" stroke-width="1" fill="none" fill-rule="evenodd">
        <g id="114524-OOP7JI-483" transform="translate(-300.000000, -255.000000)">
            <g id="avatar7" transform="translate(300.000000, 254.000000)">
                <path d="M145.496,75.167 C145.348,74.474 145.203,73.779 145.058,73.086 C145.061,73.086 145.063,73.084 145.064,73.084 C144.746,71.569 144.394,70.063 144.116,68.54 C143.686,66.173 142.818,63.961 141.834,61.783 C140.448,58.712 138.817,55.8 136.374,53.42 C135.13,52.206 133.86,51.016 132.598,49.819 C131.474,48.754 130.308,47.743 128.968,46.947 C128.582,46.719 128.249,46.404 127.893,46.128 C126.111,44.746 124.334,43.356 122.543,41.987 C122.188,41.717 121.777,41.514 121.388,41.289 C120.496,40.773 119.586,40.288 118.71,39.75 C117.116,38.77 115.543,37.759 113.961,36.764 C113.241,36.31 112.461,35.941 111.604,36.026 C110.789,36.105 110.088,35.863 109.357,35.604 C107.341,34.891 105.241,34.389 103.12,34.479 C100.517,34.588 97.977,34.291 95.437,33.877 C94.326,33.697 93.259,33.648 92.231,34.181 C91.386,34.618 90.514,34.602 89.598,34.427 C88.515,34.223 87.44,34.25 86.357,34.598 C85.124,34.994 83.849,35.076 82.537,34.94 C81.588,34.844 80.615,34.968 79.655,35.022 C79.014,35.058 78.375,35.142 77.734,35.211 C74.152,35.603 70.551,35.812 67.002,36.537 C64.648,37.021 62.388,37.654 60.275,38.82 C57.854,40.155 55.351,41.353 52.979,42.772 C51.162,43.86 49.514,45.23 47.756,46.424 C45.801,47.752 44.247,49.439 42.983,51.419 C40.898,54.686 39.011,58.058 37.487,61.622 C36.931,62.922 36.449,64.266 36.065,65.627 C35.471,67.731 34.988,69.871 34.461,71.997 C33.619,75.387 33.133,78.823 33.078,82.318 C33.071,82.83 33.022,83.355 32.892,83.847 C32.29,86.122 32.25,88.429 32.435,90.754 C32.581,92.614 32.735,94.472 32.613,96.347 C32.504,98.024 32.713,99.689 33.076,101.337 C33.256,102.148 33.365,102.992 33.379,103.822 C33.427,106.975 33.409,110.132 33.45,113.286 C33.467,114.311 33.481,115.357 33.691,116.354 C34.21,118.813 34.132,121.358 34.84,123.788 C34.979,124.268 34.894,124.813 34.914,125.329 C34.931,125.715 34.922,126.104 34.973,126.485 C35.313,128.976 35.688,131.46 36.006,133.952 C36.49,137.725 36.91,141.503 36.855,145.316 C36.833,146.924 36.752,148.531 36.685,150.139 C36.637,151.295 36.601,152.451 36.491,153.603 C36.286,155.775 36.034,157.934 35.522,160.073 C35.176,161.516 34.925,162.958 34.225,164.289 C33.58,165.517 33.161,166.882 33.585,168.206 C34.051,169.662 33.845,171.544 35.717,172.293 C35.819,172.334 35.913,172.479 35.945,172.594 C36.172,173.393 36.96,173.76 37.352,174.391 C38.332,175.978 39.822,176.777 41.464,177.421 C41.823,177.562 42.168,177.742 42.5,177.935 C44.031,178.818 45.611,179.443 47.438,179.05 C47.734,178.987 48.098,179.023 48.38,179.139 C50.037,179.807 51.821,179.379 53.507,179.764 C54.72,179.394 55.921,179.673 57.132,179.807 C59.433,180.063 61.708,180.074 64.041,179.791 C67.952,179.319 71.816,178.656 75.673,177.898 C77.598,177.521 79.398,176.914 81.05,175.841 C81.639,175.458 82.285,175.143 82.938,174.877 C86.125,173.586 88.999,171.738 91.827,169.837 C94.231,168.222 96.493,166.397 98.878,164.756 C103.396,161.644 107.596,158.124 111.737,154.557 C114.608,152.083 117.142,149.216 119.779,146.479 C120.669,145.556 121.44,144.515 122.217,143.49 C123.618,141.642 125,139.777 126.351,137.894 C127.325,136.533 128.245,135.135 129.171,133.739 C129.848,132.72 130.433,131.633 131.165,130.655 C133.613,127.387 135.45,123.765 137.361,120.183 C137.664,119.617 137.894,119.01 138.142,118.417 C138.663,117.168 139.137,115.899 139.69,114.665 C142.587,108.22 144.538,101.481 145.725,94.534 C146.201,91.749 146.46,88.907 146.556,86.082 C146.741,80.668 146.661,80.666 145.496,75.167" id="Fill-73" fill="#FF7C00"></path>
                <path d="M186.618,49.363 C185.626,46.89 184.935,44.258 183.096,42.185 C182.336,41.327 181.777,40.285 181.048,39.427 C179.551,37.667 177.96,35.946 176.197,34.462 C167.878,27.453 158.331,23.056 147.57,21.364 C144.699,20.912 141.791,20.728 138.908,21.152 C133.215,21.99 127.686,23.436 122.423,25.846 C119.546,27.164 116.754,28.604 114.234,30.535 C113.982,30.729 113.665,30.869 113.853,31.323 C114.093,31.314 114.347,31.314 114.599,31.295 C118.515,30.987 122.429,30.639 126.348,30.378 C132.148,29.995 137.929,30.221 143.663,31.229 C150.769,32.479 157.51,34.768 163.705,38.512 C165.297,39.474 166.782,40.623 168.27,41.75 C169.221,42.472 169.399,42.822 169.978,44.091 C168.963,43.876 168.132,43.423 167.314,42.953 C166.141,42.28 164.979,41.587 163.821,40.886 C156.489,36.447 148.531,33.811 140.053,32.755 C132.592,31.827 125.14,32.342 117.695,33.047 C117.449,33.071 117.032,32.971 117.013,33.483 C117.269,33.575 117.504,33.667 117.745,33.744 C120.379,34.596 123.069,35.303 125.633,36.328 C130.954,38.458 136.237,40.688 141.483,43.002 C146.585,45.254 151.243,48.247 155.332,52.063 C157.404,53.997 159.475,55.938 161.443,57.973 C162.914,59.492 164.501,60.714 166.585,61.229 C167.144,61.366 167.664,61.65 168.211,61.841 C172.553,63.357 177.011,64.355 181.617,64.436 C184.244,64.482 186.875,64.255 189.548,64.147 C189.586,63.801 189.667,63.545 189.633,63.306 C188.979,58.581 188.408,53.831 186.618,49.363" id="Fill-74" fill="#5DAC00"></path>
                <path d="M182.436,21.634 C181.763,21.138 181.034,20.708 180.389,20.178 C177.848,18.097 175.287,16.033 172.816,13.872 C169.303,10.8 165.533,8.125 161.333,6.082 C160.591,5.721 159.795,5.43 158.99,5.239 C154.913,4.269 150.764,3.734 146.601,3.286 C140.011,2.578 133.595,3.377 127.43,5.779 C117.58,9.624 111.836,17.223 108.48,26.918 C108.351,27.297 108.084,27.762 108.553,28.283 C108.859,27.977 109.169,27.692 109.449,27.382 C112.878,23.569 116.772,20.341 121.271,17.848 C124.724,15.938 128.346,14.453 132.127,13.334 C136.521,12.036 140.951,10.913 145.537,10.555 C148.598,10.313 151.603,10.563 154.473,11.748 C154.02,11.774 153.566,11.818 153.119,11.795 C149.688,11.614 146.302,11.896 142.948,12.648 C139.427,13.436 135.899,14.183 132.441,15.242 C126.022,17.207 120.14,20.154 115.007,24.522 C112.846,26.365 110.868,28.394 109.036,30.562 C108.418,31.291 108.442,31.326 109.053,32.345 C109.203,32.225 109.362,32.12 109.496,31.99 C112.252,29.341 115.336,27.131 118.707,25.347 C123.227,22.955 128.006,21.243 132.965,20.006 C139.599,18.351 146.21,18.386 152.851,20.007 C158.4,21.361 163.635,23.465 168.601,26.267 C169.44,26.739 170.275,27.225 171.046,27.666 C172.393,27.384 173.646,27.09 174.909,26.859 C177.558,26.375 179.886,25.151 182.132,23.753 C182.591,23.466 182.907,22.956 183.36,22.472 C182.988,22.132 182.732,21.855 182.436,21.634" id="Fill-75" fill="#5DAC00"></path>
                <path d="M93.436,172.008 C94.265,171.229 95.084,170.353 96.358,169.916 C96.66,170.758 96.54,171.522 96.468,172.271 C96.281,174.192 96.07,176.113 96.214,178.051 C96.269,178.755 96.295,179.463 96.379,180.163 C96.455,180.799 96.523,181.404 96.437,182.067 C96.223,183.701 96.913,184.477 98.535,184.606 C99.88,184.716 101.228,184.773 102.571,184.874 C104.789,185.039 105.549,185.904 105.539,188.382 C104.45,189.02 103.315,189.737 102.125,190.352 C101.691,190.574 101.132,190.597 100.625,190.629 C100.052,190.667 99.473,190.614 98.895,190.597 C96.84,190.534 95.188,189.297 94.601,187.344 C94.512,187.048 94.47,186.687 94.558,186.403 C94.927,185.203 94.817,184.033 94.627,182.805 C94.305,180.71 94.188,178.582 93.965,176.471 C93.817,175.069 93.634,173.675 93.436,172.008" id="Fill-76" fill="#F9B814"></path>
                <path d="M69.169,181.587 C69.858,181.511 70.358,181.451 70.891,181.393 C71.051,181.65 71.229,181.849 71.308,182.08 C72.496,185.633 74.097,189.002 75.799,192.332 C76.205,193.127 76.576,193.967 76.792,194.829 C77.103,196.078 76.657,197.199 75.555,197.829 C72.954,199.314 70.154,199.885 67.185,199.228 C66.22,199.012 65.909,198.351 66.377,197.483 C67.278,195.813 68.433,194.36 70.251,193.591 C70.905,193.316 71.576,193.086 72.218,192.787 C72.987,192.428 73.246,191.837 72.992,191.041 C72.877,190.679 72.662,190.347 72.508,189.996 C71.499,187.697 70.482,185.402 69.498,183.092 C69.328,182.697 69.307,182.24 69.169,181.587" id="Fill-77" fill="#F9B814"></path>
                <path d="M105.522,26.813 C105.848,28.633 105.733,30.467 105.633,32.291 C104.45,32.508 99.549,32.434 98.16,32.185 C97.941,31.204 98.647,30.517 98.957,29.701 C99.273,28.865 99.54,28.009 99.817,27.191 C101.236,26.661 103.19,26.535 105.522,26.813" id="Fill-78" fill="#D1A914"></path>
                <path d="M105.522,26.813 C103.19,26.535 101.236,26.661 99.817,27.191 C99.54,28.009 99.273,28.865 98.957,29.701 C98.647,30.517 97.941,31.204 98.16,32.185 C99.549,32.434 104.45,32.508 105.633,32.291 C105.733,30.467 105.848,28.633 105.522,26.813 Z M69.169,181.587 C69.307,182.24 69.328,182.697 69.498,183.092 C70.482,185.402 71.499,187.697 72.508,189.996 C72.662,190.347 72.877,190.679 72.992,191.041 C73.246,191.837 72.987,192.428 72.218,192.787 C71.576,193.086 70.905,193.316 70.251,193.591 C68.433,194.36 67.278,195.813 66.377,197.483 C65.909,198.351 66.22,199.012 67.185,199.228 C70.154,199.885 72.954,199.314 75.555,197.829 C76.657,197.199 77.103,196.078 76.792,194.829 C76.576,193.967 76.205,193.127 75.799,192.332 C74.097,189.002 72.496,185.633 71.308,182.08 C71.229,181.849 71.051,181.65 70.891,181.393 C70.358,181.451 69.858,181.511 69.169,181.587 Z M93.436,172.008 C93.634,173.675 93.817,175.069 93.965,176.471 C94.188,178.582 94.305,180.71 94.627,182.805 C94.817,184.033 94.927,185.203 94.558,186.403 C94.47,186.687 94.512,187.048 94.601,187.344 C95.188,189.297 96.84,190.534 98.895,190.597 C99.473,190.614 100.052,190.667 100.625,190.629 C101.132,190.597 101.691,190.574 102.125,190.352 C103.315,189.737 104.45,189.02 105.539,188.382 C105.549,185.904 104.789,185.039 102.571,184.874 C101.228,184.773 99.88,184.716 98.535,184.606 C96.913,184.477 96.223,183.701 96.437,182.067 C96.523,181.404 96.455,180.799 96.379,180.163 C96.295,179.463 96.269,178.755 96.214,178.051 C96.07,176.113 96.281,174.192 96.468,172.271 C96.54,171.522 96.66,170.758 96.358,169.916 C95.084,170.353 94.265,171.229 93.436,172.008 Z M189.548,64.147 C189.586,63.801 189.667,63.545 189.633,63.306 C188.979,58.581 188.408,53.831 186.618,49.363 C185.626,46.89 184.935,44.258 183.096,42.185 C182.336,41.327 181.777,40.285 181.048,39.427 C179.551,37.667 177.96,35.946 176.197,34.462 C167.878,27.453 158.331,23.056 147.57,21.364 C144.699,20.912 141.791,20.728 138.908,21.152 C133.215,21.99 127.686,23.436 122.423,25.846 C119.546,27.164 116.754,28.604 114.234,30.535 C113.982,30.729 113.665,30.869 113.853,31.323 C114.093,31.314 114.347,31.314 114.599,31.295 C118.515,30.987 122.429,30.639 126.348,30.378 C132.148,29.995 137.929,30.221 143.663,31.229 C150.769,32.479 157.51,34.768 163.705,38.512 C165.297,39.474 166.782,40.623 168.27,41.75 C169.221,42.472 169.399,42.822 169.978,44.091 C168.963,43.876 168.132,43.423 167.314,42.953 C166.141,42.28 164.979,41.587 163.821,40.886 C156.489,36.447 148.531,33.811 140.053,32.755 C132.592,31.827 125.14,32.342 117.695,33.047 C117.449,33.071 117.032,32.971 117.013,33.483 C117.269,33.575 117.504,33.667 117.745,33.744 C120.379,34.596 123.069,35.303 125.633,36.328 C130.954,38.458 136.237,40.688 141.483,43.002 C146.585,45.254 151.243,48.247 155.332,52.063 C157.404,53.997 159.475,55.938 161.443,57.973 C162.914,59.492 164.501,60.714 166.585,61.229 C167.144,61.366 167.664,61.65 168.211,61.841 C172.553,63.357 177.011,64.355 181.617,64.436 C184.244,64.482 186.875,64.255 189.548,64.147 Z M145.058,73.086 C145.061,73.086 145.063,73.084 145.064,73.084 C144.746,71.569 144.394,70.063 144.116,68.54 C143.686,66.173 142.818,63.961 141.834,61.783 C140.448,58.712 138.817,55.8 136.374,53.42 C135.13,52.206 133.86,51.016 132.598,49.819 C131.474,48.754 130.308,47.743 128.968,46.947 C128.582,46.719 128.249,46.404 127.893,46.128 C126.111,44.746 124.334,43.356 122.543,41.987 C122.188,41.717 121.777,41.514 121.388,41.289 C120.496,40.773 119.586,40.288 118.71,39.75 C117.116,38.77 115.543,37.759 113.961,36.764 C113.241,36.31 112.461,35.941 111.604,36.026 C110.789,36.105 110.088,35.863 109.357,35.604 C107.341,34.891 105.241,34.389 103.12,34.479 C100.517,34.588 97.977,34.291 95.437,33.877 C94.326,33.697 93.259,33.648 92.231,34.181 C91.386,34.618 90.514,34.602 89.598,34.427 C88.515,34.223 87.44,34.25 86.357,34.598 C85.124,34.994 83.849,35.076 82.537,34.94 C81.588,34.844 80.615,34.968 79.655,35.022 C79.014,35.058 78.375,35.142 77.734,35.211 C74.152,35.603 70.551,35.812 67.002,36.537 C64.648,37.021 62.388,37.654 60.275,38.82 C57.854,40.155 55.351,41.353 52.979,42.772 C51.162,43.86 49.514,45.23 47.756,46.424 C45.801,47.752 44.247,49.439 42.983,51.419 C40.898,54.686 39.011,58.058 37.487,61.622 C36.931,62.922 36.449,64.266 36.065,65.627 C35.471,67.731 34.988,69.871 34.461,71.997 C33.619,75.387 33.133,78.823 33.078,82.318 C33.071,82.83 33.022,83.355 32.892,83.847 C32.29,86.122 32.25,88.429 32.435,90.754 C32.581,92.614 32.735,94.472 32.613,96.347 C32.504,98.024 32.713,99.689 33.076,101.337 C33.256,102.148 33.365,102.992 33.379,103.822 C33.427,106.975 33.409,110.132 33.45,113.286 C33.467,114.311 33.481,115.357 33.691,116.354 C34.21,118.813 34.132,121.358 34.84,123.788 C34.979,124.268 34.894,124.813 34.914,125.329 C34.931,125.715 34.922,126.104 34.973,126.485 C35.313,128.976 35.688,131.46 36.006,133.952 C36.49,137.725 36.91,141.503 36.855,145.316 C36.833,146.924 36.752,148.531 36.685,150.139 C36.637,151.295 36.601,152.451 36.491,153.603 C36.286,155.775 36.034,157.934 35.522,160.073 C35.176,161.516 34.925,162.958 34.225,164.289 C33.58,165.517 33.161,166.882 33.585,168.206 C34.051,169.662 33.845,171.544 35.717,172.293 C35.819,172.334 35.913,172.479 35.945,172.594 C36.172,173.393 36.96,173.76 37.352,174.391 C38.332,175.978 39.822,176.777 41.464,177.421 C41.823,177.562 42.168,177.742 42.5,177.935 C44.031,178.818 45.611,179.443 47.438,179.05 C47.734,178.987 48.098,179.023 48.38,179.139 C50.037,179.807 51.821,179.379 53.507,179.764 C54.72,179.394 55.921,179.673 57.132,179.807 C59.433,180.063 61.708,180.074 64.041,179.791 C67.952,179.319 71.816,178.656 75.673,177.898 C77.598,177.521 79.398,176.914 81.05,175.841 C81.639,175.458 82.285,175.143 82.938,174.877 C86.125,173.586 88.999,171.738 91.827,169.837 C94.231,168.222 96.493,166.397 98.878,164.756 C103.396,161.644 107.596,158.124 111.737,154.557 C114.608,152.083 117.142,149.216 119.779,146.479 C120.669,145.556 121.44,144.515 122.217,143.49 C123.618,141.642 125,139.777 126.351,137.894 C127.325,136.533 128.245,135.135 129.171,133.739 C129.848,132.72 130.433,131.633 131.165,130.655 C133.613,127.387 135.45,123.765 137.361,120.183 C137.664,119.617 137.894,119.01 138.142,118.417 C138.663,117.168 139.137,115.899 139.69,114.665 C142.587,108.22 144.538,101.481 145.725,94.534 C146.201,91.749 146.46,88.907 146.556,86.082 C146.741,80.668 146.661,80.666 145.496,75.167 C145.348,74.474 145.203,73.779 145.058,73.086 Z M154.646,11.737 C154.135,11.76 153.624,11.821 153.119,11.795 C149.688,11.614 146.302,11.896 142.948,12.648 C139.427,13.436 135.899,14.183 132.441,15.242 C126.022,17.207 120.14,20.154 115.007,24.522 C112.846,26.365 110.868,28.394 109.036,30.562 C108.418,31.291 108.442,31.326 109.053,32.345 C109.203,32.225 109.362,32.12 109.496,31.99 C112.252,29.341 115.336,27.131 118.707,25.347 C123.227,22.955 128.006,21.243 132.965,20.006 C139.599,18.351 146.21,18.386 152.851,20.007 C158.4,21.361 163.635,23.465 168.601,26.267 C169.44,26.739 170.275,27.225 171.046,27.666 C172.393,27.384 173.646,27.09 174.909,26.859 C177.558,26.375 179.886,25.151 182.132,23.753 C182.591,23.466 182.907,22.956 183.36,22.472 C182.988,22.132 182.732,21.855 182.436,21.634 C181.763,21.138 181.034,20.708 180.389,20.178 C177.848,18.097 175.287,16.033 172.816,13.872 C169.303,10.8 165.533,8.125 161.333,6.082 C160.591,5.721 159.795,5.43 158.99,5.239 C154.913,4.269 150.764,3.734 146.601,3.286 C140.011,2.578 133.595,3.377 127.43,5.779 C117.58,9.624 111.836,17.223 108.48,26.918 C108.351,27.297 108.084,27.762 108.553,28.283 C108.859,27.977 109.169,27.692 109.449,27.382 C112.878,23.569 116.772,20.341 121.271,17.848 C124.724,15.938 128.346,14.453 132.127,13.334 C136.521,12.036 140.951,10.913 145.537,10.555 C148.646,10.31 151.698,10.565 154.609,11.801 L154.646,11.737 Z M4.254,88.637 C3.484,88.191 2.638,87.731 1.822,87.218 C1.393,86.949 0.991,86.617 0.625,86.262 C0.331,85.978 0.24,85.6 0.477,85.207 C0.706,84.827 1.081,84.715 1.473,84.773 C1.848,84.83 2.211,84.979 2.571,85.107 C2.861,85.21 3.138,85.344 3.376,85.445 C3.808,85.114 3.61,84.787 3.563,84.506 C3.438,83.743 3.266,82.986 3.123,82.227 C3.024,81.702 3.09,81.208 3.4,80.751 C3.683,80.334 4.26,80.221 4.538,80.611 C4.831,81.022 5.08,81.485 5.233,81.962 C5.464,82.688 5.595,83.445 5.769,84.196 C6.297,84.058 6.274,83.688 6.313,83.397 C6.43,82.569 6.49,81.731 6.6,80.903 C6.688,80.261 6.942,79.956 7.348,79.925 C7.82,79.889 8.211,80.262 8.341,80.909 C8.404,81.224 8.431,81.549 8.451,81.869 C8.47,82.182 8.46,82.497 8.464,82.787 C9.023,83.055 9.154,82.544 9.443,82.361 C9.713,82.188 9.959,81.924 10.25,81.857 C10.526,81.795 10.939,81.839 11.127,82.015 C11.313,82.187 11.399,82.609 11.333,82.875 C11.243,83.229 10.984,83.552 10.758,83.861 C10.266,84.537 9.729,85.183 9.249,85.867 C9.131,86.037 9.171,86.316 9.105,86.753 C9.622,86.5 9.953,86.338 10.282,86.176 C11.105,85.77 11.973,85.543 12.891,85.556 C13.302,85.562 13.637,85.734 13.797,86.148 C13.949,86.548 13.739,86.972 13.254,87.247 C13.198,87.278 13.145,87.322 13.084,87.337 C11.303,87.789 10.122,89.098 8.867,90.3 C8.407,90.739 7.964,91.196 7.429,91.73 C8.425,94.994 8.955,98.456 10.632,101.563 C11.74,103.624 13.125,105.468 14.854,107.052 C16.054,108.151 17.398,109.021 18.914,109.623 C20.442,110.226 22.01,110.468 23.649,110.207 C24.983,109.996 26.325,109.827 27.659,109.624 C27.977,109.574 28.29,109.479 28.593,109.376 C30.831,108.627 30.993,108.461 30.776,106.06 C30.294,100.72 30.316,95.382 30.613,90.036 C30.685,88.757 30.553,87.464 30.492,86.18 C30.441,85.1 30.126,84.011 30.655,82.954 C30.734,82.797 30.689,82.572 30.688,82.38 C30.608,77.432 31.646,72.653 32.832,67.893 C33.55,65.014 34.339,62.168 35.597,59.459 C36.038,58.505 36.852,57.792 37.215,56.863 C37.589,55.899 37.87,54.907 38.551,54.115 C39.892,52.551 41.224,49.315 42.659,47.843 C47.236,43.157 52.59,41.143 58.106,37.68 C58.54,37.406 59.006,37.179 59.477,36.975 C61.723,36.002 63.971,35.038 66.228,34.089 C66.686,33.899 67.15,33.661 67.654,34.127 C67.829,34.292 68.249,34.266 68.539,34.222 C69.623,34.057 70.716,33.911 71.775,33.645 C75.36,32.741 79.042,32.604 82.689,32.186 C85.113,31.905 87.576,31.986 89.965,31.367 C90.313,31.276 90.728,31.391 91.1,31.47 C91.667,31.589 92.212,31.828 92.781,31.894 C93.48,31.975 94.192,31.931 94.882,31.939 C96.275,30.289 97.366,28.496 98.085,26.479 C98.316,25.828 98.795,25.41 99.456,25.222 C99.95,25.08 100.451,24.892 100.957,24.867 C102.998,24.765 105.039,24.495 107.164,24.863 C107.579,23.921 107.99,22.984 108.406,22.05 C110.041,18.371 112.138,14.991 114.875,12.021 C119.237,7.292 124.578,4.224 130.776,2.6 C131.087,2.517 131.404,2.458 131.715,2.371 C136.816,0.959 142.006,0.697 147.236,1.312 C150.433,1.687 153.613,2.208 156.798,2.667 C157.827,2.816 158.813,3.099 159.701,3.663 C159.863,3.767 160.033,3.873 160.215,3.932 C164.437,5.285 167.979,7.964 171.878,9.941 C172.561,10.288 173.201,10.753 173.785,11.251 C176.572,13.641 179.321,16.077 182.113,18.465 C182.793,19.046 183.574,19.513 184.32,20.016 C184.942,20.436 185.671,20.403 186.374,20.439 C186.757,20.46 187.145,20.39 187.527,20.403 C187.811,20.414 188.115,20.861 188.01,21.12 C187.868,21.47 187.716,21.845 187.467,22.115 C187.167,22.439 186.763,22.672 186.4,22.939 C185.829,23.358 185.208,23.721 184.693,24.2 C182.216,26.505 179.266,27.84 176.002,28.573 C175.274,28.735 174.504,28.772 173.895,29.094 C173.782,29.56 174.055,29.686 174.246,29.826 C177.216,32.011 179.995,34.399 182.259,37.339 C182.376,37.489 182.49,37.688 182.651,37.76 C183.885,38.31 184.333,39.471 184.891,40.557 C186.98,44.635 188.899,48.785 190.049,53.241 C190.354,54.424 190.529,55.639 190.739,56.843 C190.993,58.302 191.201,59.771 191.48,61.226 C191.547,61.577 191.83,61.882 191.995,62.217 C192.383,63.003 192.474,63.824 192.159,64.644 C191.792,65.606 191.213,66.233 190.024,66.252 C187.903,66.285 185.786,66.492 183.665,66.587 C179.968,66.747 176.346,66.198 172.76,65.35 C169.802,64.651 166.967,63.587 164.161,62.445 C163.393,62.133 162.625,61.731 161.979,61.218 C160.267,59.857 158.551,58.489 156.965,56.987 C154.06,54.241 151.176,51.479 147.836,49.242 C145.473,47.659 143.014,46.248 140.422,45.09 C135.064,42.703 129.7,40.332 124.299,38.05 C122.228,37.175 120.051,36.542 117.908,35.843 C117.584,35.735 117.212,35.437 116.744,35.819 C116.965,35.955 117.145,36.088 117.342,36.187 C119.184,37.11 121.045,37.996 122.863,38.964 C123.653,39.385 124.395,39.92 125.087,40.491 C127.271,42.301 129.471,44.085 131.88,45.602 C132.689,46.108 133.376,46.816 134.085,47.469 C135.55,48.826 137.017,50.185 138.439,51.584 C141.054,54.155 142.838,57.274 144.333,60.585 C145.426,63 146.331,65.469 146.853,68.079 C147.48,71.238 148.168,74.39 148.843,77.54 C149.193,79.184 149.32,80.837 149.373,82.524 C149.492,86.472 149.032,90.377 148.574,94.269 C148.159,97.784 147.254,101.228 146.248,104.631 C146.085,105.184 145.925,105.735 145.727,106.416 C146.106,106.461 146.397,106.509 146.69,106.527 C153.143,106.956 158.925,111.53 160.705,117.8 C161.353,120.086 161.651,122.469 162.111,124.806 C162.233,125.424 162.369,126.039 162.449,126.416 C163.666,127.225 164.69,127.881 165.683,128.58 C166.116,128.883 166.389,129.324 166.375,129.896 C166.357,130.651 165.791,131.004 165.076,130.68 C164.846,130.576 164.635,130.432 164.224,130.199 C164.37,130.729 164.461,131.074 164.563,131.417 C164.675,131.786 164.833,132.144 164.904,132.52 C165.012,133.08 164.721,133.624 164.276,133.813 C163.856,133.991 163.297,133.748 162.984,133.224 C162.853,133.004 162.771,132.755 162.669,132.521 C162.572,132.295 162.481,132.069 162.272,131.569 C162.337,132.943 162.412,134.009 162.425,135.073 C162.43,135.448 162.349,135.846 162.202,136.188 C162.047,136.552 161.696,136.852 161.281,136.715 C160.948,136.605 160.598,136.359 160.402,136.074 C160.243,135.843 160.272,135.46 160.274,135.143 C160.276,134.376 160.274,133.61 159.922,132.622 C159.723,133.027 159.583,133.208 159.544,133.407 C159.389,134.229 159.271,135.061 159.123,135.884 C159.054,136.262 158.978,136.644 158.843,137 C158.672,137.45 158.222,137.686 157.761,137.643 C157.328,137.599 156.905,137.222 156.87,136.764 C156.842,136.383 156.874,135.991 156.93,135.613 C157.12,134.339 157.334,133.069 157.53,131.797 C157.566,131.561 157.562,131.317 157.587,130.894 C156.905,131.284 156.734,131.848 156.417,132.279 C156.189,132.591 155.988,132.927 155.727,133.206 C155.417,133.538 154.853,133.593 154.478,133.387 C154.095,133.179 153.857,132.672 153.985,132.227 C154.072,131.922 154.188,131.604 154.371,131.349 C155.486,129.771 156.569,128.168 157.782,126.666 C158.283,126.044 159.075,125.652 159.858,125.065 C159.359,122.336 159,119.456 157.796,116.779 C155.851,112.452 152.389,110.014 147.912,108.852 C146.97,108.607 146.009,108.587 145.125,108.893 C144.992,109.048 144.878,109.132 144.833,109.244 C143.384,112.828 141.954,116.417 140.488,119.992 C140.123,120.884 139.662,121.74 139.206,122.591 C137.44,125.887 135.683,129.185 133.431,132.19 C132.775,133.065 132.166,133.99 131.651,134.953 C130.671,136.785 129.418,138.412 128.145,140.038 C127.072,141.408 126.019,142.795 125.042,144.233 C123.842,146 122.513,147.644 121.023,149.175 C118.416,151.852 115.929,154.646 113.076,157.076 C112.634,157.452 112.2,157.839 111.749,158.201 C109.54,159.974 107.344,161.767 105.104,163.504 C103.531,164.728 101.888,165.864 100.291,167.062 C99.526,167.635 98.8,168.262 98.076,168.851 C98.368,170.963 98.19,172.948 98.107,174.942 C98.003,177.449 98.102,179.966 98.88,182.52 C99.258,182.588 99.683,182.696 100.112,182.732 C101.135,182.818 102.168,182.814 103.182,182.951 C103.874,183.047 104.555,183.284 105.213,183.53 C106.188,183.897 106.787,184.662 107.023,185.648 C107.235,186.521 107.352,187.421 107.447,188.316 C107.518,188.988 107.227,189.577 106.785,190.078 C106.618,190.27 106.42,190.457 106.197,190.571 C104.719,191.332 103.32,192.301 101.641,192.586 C101.018,192.693 100.358,192.709 99.731,192.634 C98.585,192.496 97.444,192.28 96.31,192.059 C95.396,191.88 94.599,191.456 94.069,190.664 C93.572,189.913 93.019,189.174 92.693,188.348 C92.42,187.656 92.217,186.795 92.379,186.102 C92.842,184.102 92.506,182.126 92.43,180.146 C92.356,178.346 92.152,176.551 91.982,174.757 C91.939,174.32 91.808,173.895 91.687,173.32 C89.585,174.199 87.897,175.63 85.905,176.48 C83.833,177.369 81.795,178.341 79.694,179.151 C77.666,179.938 75.579,180.571 73.426,181.303 C73.307,181.837 73.522,182.377 73.758,182.89 C75.104,185.814 76.442,188.742 77.839,191.645 C78.29,192.581 78.678,193.518 78.862,194.544 C79.249,196.688 78.43,198.313 76.729,199.559 C76.421,199.786 76.07,199.969 75.717,200.118 C73.25,201.154 70.693,201.722 68.003,201.497 C67.494,201.455 66.984,201.329 66.493,201.182 C64.354,200.548 63.446,198.65 64.441,196.647 C65.462,194.595 66.918,192.889 69.025,191.831 C69.531,191.576 70.033,191.311 70.535,191.049 C69.328,187.983 68.155,185.001 66.942,181.92 C66.043,181.738 65.042,181.731 64.022,181.969 C62.775,182.259 61.524,182.646 60.213,182.339 C58.549,182.724 56.859,182.165 55.239,182.356 C53.348,182.582 51.528,182.08 49.674,182.238 C49.361,182.266 49.012,182.234 48.726,182.119 C47.983,181.813 47.248,181.726 46.463,181.923 C46.163,181.999 45.786,182.028 45.512,181.914 C44.211,181.374 42.727,181.343 41.551,180.453 C41.195,180.186 40.766,180.018 40.371,179.797 C39.419,179.268 38.461,178.744 37.521,178.193 C37.188,177.998 36.934,177.639 36.585,177.513 C34.806,176.875 33.813,175.293 32.47,174.139 C31.562,173.359 31.09,172.328 30.811,171.154 C30.4,169.425 30.179,167.732 30.948,166.05 C31.335,163.237 32.271,160.546 32.792,157.768 C33.206,155.561 33.308,153.295 33.582,151.063 C34.069,147.09 33.979,143.091 33.976,139.108 C33.969,135.509 33.771,131.898 32.939,128.359 C32.707,127.362 32.667,126.32 32.533,125.301 C32.473,124.856 32.52,124.341 32.31,123.978 C31.484,122.55 31.683,120.991 31.595,119.465 C31.57,119.016 31.621,118.545 31.504,118.12 C31.14,116.787 31.258,115.434 31.213,114.086 C31.191,113.385 31.16,112.682 31.127,111.849 C30.592,111.892 30.149,111.852 29.753,111.971 C27.763,112.576 25.72,112.703 23.656,112.817 C20.353,112.998 17.396,112.116 14.771,110.166 C11.306,107.591 8.873,104.219 7.59,100.106 C6.959,98.089 6.65,95.965 6.228,93.883 C6.01,92.815 5.877,91.774 5.104,90.862 C4.641,90.313 4.549,89.447 4.254,88.637 Z" id="Fill-79" fill="#542033"></path>
                <path d="M82.677,103.162 C82.6,103.041 82.523,102.921 82.448,102.801 C81.762,102.945 81.076,103.094 80.391,103.232 C75.609,104.203 70.829,105.17 66.05,106.153 C65.85,106.195 65.681,106.387 65.462,106.531 C66.984,107.767 67.619,108.072 69.167,108.252 C71.849,108.563 74.447,108.035 76.884,107.038 C78.581,106.342 80.1,105.192 81.669,104.198 C82.064,103.947 82.343,103.513 82.677,103.162 Z M62.178,106.659 C61.782,107.531 61.949,108.303 62.158,109.036 C63.093,112.316 64.044,115.592 65.037,118.854 C65.26,119.586 65.639,120.277 66.015,120.95 C67.854,124.246 71.092,125.78 74.782,125.102 C75.856,124.903 76.935,124.68 77.98,124.365 C83.429,122.729 87.11,119.252 88.842,113.792 C89.547,111.569 89.905,109.276 89.945,106.953 C89.979,105.162 89.852,103.37 89.131,101.6 C87.711,101.556 86.442,101.952 85.212,102.309 C84.536,104.27 84.154,104.847 82.495,105.998 C81.442,106.73 80.321,107.369 79.215,108.026 C76.352,109.724 73.185,110.209 69.933,110.185 C67.805,110.167 65.901,109.41 64.317,107.944 C63.938,107.596 63.614,107.172 63.192,106.894 C62.92,106.713 62.514,106.729 62.178,106.659 Z M59.913,110.923 C59.76,109.584 59.586,108.248 59.466,106.906 C59.433,106.533 59.516,106.133 59.618,105.766 C59.79,105.159 60.287,104.717 60.899,104.815 C61.705,104.945 62.435,104.728 63.182,104.57 C71.132,102.914 79.077,101.242 87.025,99.578 C87.593,99.458 88.158,99.314 88.731,99.254 C89.953,99.123 90.691,99.549 91.221,100.644 C91.361,100.935 91.479,101.235 91.571,101.543 C93.159,106.823 91.916,115.06 88.941,119.42 C86.752,122.626 83.89,124.899 80.29,126.239 C78.117,127.05 75.891,127.764 73.537,127.778 C69.827,127.805 66.719,126.502 64.578,123.37 C63.858,122.316 63.217,121.16 62.798,119.96 C61.758,116.981 60.869,113.951 59.913,110.923 Z" id="Fill-80" fill="#542033"></path>
                <path d="M54.092,94.829 C54.245,95.85 54.417,96.673 54.479,97.506 C54.536,98.289 54.139,98.83 53.381,99.132 C51.521,99.874 50.757,99.555 50.226,97.651 C49.932,96.6 49.688,95.518 49.587,94.435 C49.518,93.688 49.641,92.894 49.829,92.159 C50.034,91.365 50.588,90.818 51.479,90.759 C52.322,90.702 52.824,91.24 53.102,91.907 C53.518,92.912 53.807,93.971 54.092,94.829" id="Fill-81" fill="#542033"></path>
                <path d="M99.982,85.916 C100.258,87.366 100.131,88.631 98.935,89.633 C98.338,90.134 97.871,90.178 97.192,89.748 C96.525,89.326 96.02,88.794 95.805,87.989 C95.432,86.609 95.225,85.237 95.597,83.827 C95.834,82.926 96.334,82.42 97.126,82.321 C97.938,82.221 98.518,82.63 98.856,83.285 C99.293,84.132 99.612,85.037 99.982,85.916" id="Fill-82" fill="#542033"></path>
                <path d="M119.854,47.107 C120.064,47.122 120.307,47.064 120.433,47.158 C121.349,47.852 122.254,48.559 123.13,49.299 C123.291,49.436 123.414,49.773 123.366,49.972 C123.272,50.343 122.912,50.307 122.579,50.301 C121.464,50.279 120.679,49.585 119.883,48.962 C119.469,48.639 119.354,48.088 119.519,47.555 C119.571,47.389 119.736,47.26 119.854,47.107" id="Fill-83" fill="#542033"></path>
                <path d="M96.617,153.588 C96.982,153.864 97.419,154.025 97.526,154.31 C97.913,155.307 97.733,156.327 97.38,157.302 C97.234,157.698 96.481,157.726 96.221,157.366 C96.073,157.165 95.912,156.914 95.906,156.686 C95.891,155.914 95.896,155.138 95.991,154.376 C96.021,154.125 96.35,153.91 96.617,153.588" id="Fill-84" fill="#542033"></path>
                <path d="M127.14,60.157 C126.954,60.133 126.742,60.165 126.607,60.076 C125.807,59.555 125.017,59.021 124.247,58.456 C124.057,58.318 123.919,58.07 123.826,57.845 C123.653,57.425 124.104,56.895 124.533,56.979 C126.278,57.318 127.11,58.317 127.14,60.157" id="Fill-85" fill="#542033"></path>
                <path d="M102.121,152.521 C101.936,152.245 101.621,151.992 101.633,151.762 C101.669,151.133 101.813,150.506 101.978,149.896 C102.086,149.49 102.13,148.961 102.729,148.937 C103.161,148.921 103.442,149.463 103.291,150.154 C103.143,150.833 102.91,151.496 102.673,152.151 C102.621,152.287 102.382,152.352 102.121,152.521" id="Fill-86" fill="#542033"></path>
                <path d="M136.788,73.279 C136.851,73.571 136.922,73.708 136.892,73.816 C136.832,74.038 136.765,74.293 136.61,74.442 C136.422,74.63 136.068,74.371 135.961,73.971 C135.896,73.727 135.817,73.471 135.834,73.227 C135.85,73.004 135.941,72.753 136.084,72.584 C136.236,72.404 136.607,72.691 136.732,73.078 C136.77,73.199 136.802,73.322 136.788,73.279" id="Fill-87" fill="#542033"></path>
                <path d="M62.178,106.659 C62.514,106.729 62.92,106.713 63.192,106.894 C63.614,107.172 63.938,107.596 64.317,107.944 C65.901,109.41 67.805,110.167 69.933,110.185 C73.185,110.209 76.352,109.724 79.215,108.026 C80.321,107.369 81.442,106.73 82.495,105.998 C84.154,104.847 84.536,104.27 85.212,102.309 C86.442,101.952 87.711,101.556 89.131,101.6 C89.852,103.37 89.979,105.162 89.945,106.953 C89.905,109.276 89.547,111.569 88.842,113.792 C87.11,119.252 83.429,122.729 77.98,124.365 C76.935,124.68 75.856,124.903 74.782,125.102 C71.092,125.78 67.854,124.246 66.015,120.95 C65.639,120.277 65.26,119.586 65.037,118.854 C64.044,115.592 63.093,112.316 62.158,109.036 C61.949,108.303 61.782,107.531 62.178,106.659" id="Fill-88" fill="#FF5E22"></path>
                <path d="M82.677,103.162 C82.343,103.513 82.064,103.947 81.669,104.198 C80.1,105.192 78.581,106.342 76.884,107.038 C74.447,108.035 71.849,108.563 69.167,108.252 C67.619,108.072 66.984,107.767 65.462,106.531 C65.681,106.387 65.85,106.195 66.05,106.153 C70.829,105.17 75.609,104.203 80.391,103.232 C81.076,103.094 81.762,102.945 82.448,102.801 C82.523,102.921 82.6,103.041 82.677,103.162" id="Fill-89" fill="#FFFFFF"></path>
            </g>
        </g>
    </g>
</svg>