<?xml version="1.0" encoding="UTF-8"?>
<svg width="127px" height="200px" viewBox="0 0 127 200" version="1.1" xmlns="http://www.w3.org/2000/svg" xmlns:xlink="http://www.w3.org/1999/xlink">
    <!-- Generator: Sketch 49.3 (51167) - http://www.bohemiancoding.com/sketch -->
    <title>avatar3</title>
    <desc>Created with Sketch.</desc>
    <defs></defs>
    <g id="Page-1" stroke="none" stroke-width="1" fill="none" fill-rule="evenodd">
        <g id="114523-OOP5HG-503" transform="translate(-342.000000, -266.000000)">
            <g id="avatar3" transform="translate(342.000000, 266.000000)">
                <path d="M112.92,115.124 C112.252,112.883 111.186,110.759 110.254,108.602 C109.506,106.867 108.516,105.305 107.228,103.88 C105.843,102.344 104.541,100.771 102.857,99.517 C101.895,98.799 101.169,97.759 100.348,96.854 C99.905,96.366 99.571,95.728 99.042,95.383 C97.082,94.111 95.891,92.231 94.612,90.352 C91.646,85.995 90.01,81.132 88.784,76.085 C88.54,75.081 88.293,74.078 88.08,73.068 C87.711,71.324 87.297,69.586 87.026,67.826 C86.354,63.463 85.964,59.046 84.309,54.888 C84.034,54.194 83.837,53.445 83.748,52.705 C83.508,50.705 82.642,48.931 81.896,47.103 C81.433,45.97 80.767,45.315 79.468,45.077 C76.964,44.619 74.556,43.809 72.547,42.125 C72.405,42.006 72.232,41.919 72.063,41.839 C70.333,41.031 68.813,39.981 67.746,38.339 C67.446,37.876 66.972,37.522 66.561,37.137 C64.917,35.596 63.242,34.088 61.633,32.512 C60.995,31.889 60.363,31.429 59.431,31.478 C56.344,31.642 53.263,31.375 50.159,31.953 C46.423,32.649 43.639,34.719 41.152,37.307 C40.184,38.313 39.429,39.518 38.226,40.313 C37.846,40.564 37.527,40.943 37.261,41.32 C35.233,44.182 33.415,47.125 33.395,50.816 C33.392,51.462 33.155,52.105 33.016,52.747 C32.757,53.941 32.388,55.122 32.244,56.329 C31.547,62.201 30.913,68.08 30.616,73.991 C30.46,77.104 29.871,80.147 28.329,82.929 C27.327,84.733 26.392,86.578 25.342,88.354 C23.665,91.188 22.253,94.155 20.741,97.074 C18.521,101.362 16.876,105.837 15.525,110.436 C14.678,113.319 13.93,116.244 13.357,119.194 C12.856,121.769 12.524,124.395 12.376,127.014 C12.211,129.921 12.308,132.846 12.346,135.763 C12.406,140.394 13.191,144.916 14.378,149.307 C16.137,150.397 18.037,150.608 19.826,151.139 C21.596,151.662 22.938,151.063 23.854,149.46 C24.133,148.971 24.536,148.548 24.78,148.045 C25.758,146.033 27.705,145.184 29.456,144.119 C30.23,143.648 31.315,143.835 31.501,144.312 C31.758,144.974 31.22,145.334 30.923,145.788 C30.786,145.996 30.678,146.221 30.36,146.787 C31.182,146.476 31.667,146.269 32.167,146.108 C32.699,145.938 33.237,145.756 33.787,145.684 C34.524,145.587 35.193,145.992 35.405,146.557 C35.6,147.077 35.149,147.631 34.328,147.921 C33.357,148.265 32.385,148.607 31.43,148.994 C31.123,149.12 30.877,149.391 30.4,149.746 C30.947,150.134 31.261,150.479 31.646,150.605 C32.448,150.867 33.314,150.939 34.105,151.225 C35.08,151.575 35.996,152.07 36.1,153.27 C35.296,154.21 34.354,154.414 33.256,154.091 C31.827,153.67 30.362,153.731 28.535,153.6 C30.229,155.403 32.849,154.759 34.056,156.649 C33.598,157.601 32.847,158.026 31.957,157.865 C30.866,157.668 29.778,157.336 28.761,156.897 C27.836,156.499 27.006,155.878 26.058,155.309 C25.881,155.664 25.62,156.027 25.68,156.092 C26.122,156.563 26.61,157.001 27.121,157.401 C27.559,157.744 28.108,157.963 28.487,158.355 C28.702,158.575 28.813,159.088 28.709,159.37 C28.602,159.659 28.199,159.93 27.874,160.02 C27.543,160.111 27.133,160.025 26.784,159.926 C25.467,159.549 24.446,158.723 23.648,157.64 C22.816,156.509 22.042,155.335 21.182,154.092 C19.632,153.804 18.01,153.503 16.239,153.174 C16.388,154.742 16.943,155.913 17.51,157.09 C19.026,160.254 21.281,162.927 23.249,165.792 C24.865,168.146 26.834,170.133 29.08,171.879 C29.909,172.523 30.756,173.043 31.77,173.359 C36.521,174.848 41.256,176.392 46.003,177.896 C46.715,178.121 47.464,178.234 48.192,178.407 C52.043,179.322 55.976,179.71 59.872,180.323 C64.428,181.039 68.858,180.645 73.297,179.618 C76.156,178.958 78.742,177.66 81.414,176.504 C87.053,174.064 91.748,170.355 96.05,166.133 C99.408,162.836 102.262,159.072 104.803,155.098 C106.018,153.197 107.172,151.256 108.311,149.309 C108.629,148.765 108.966,148.139 108.404,147.512 C104.97,146.853 101.869,147.368 99.319,149.965 C99.064,150.224 98.712,150.454 98.367,150.54 C98.048,150.618 97.563,150.603 97.359,150.409 C97.154,150.216 97.083,149.714 97.174,149.412 C97.371,148.748 98.278,148.374 97.955,147.354 C97.426,147.354 96.865,147.375 96.306,147.348 C95.745,147.321 95.163,147.326 94.638,147.163 C94.341,147.072 94.007,146.705 93.925,146.399 C93.786,145.879 94.177,145.521 94.639,145.344 C94.982,145.213 95.364,145.17 95.732,145.114 C96.311,145.028 96.892,144.963 97.47,144.89 C95.838,144.542 94.357,143.979 92.975,143.177 C92.504,142.902 92.103,142.482 91.723,142.078 C91.422,141.758 91.715,140.991 92.155,140.959 C92.605,140.924 93.073,140.961 93.52,141.044 C94.336,141.193 95.11,141.184 96.129,140.768 C95.585,140.184 95.223,139.784 94.85,139.396 C94.526,139.061 94.109,138.783 93.89,138.392 C93.733,138.115 93.701,137.598 93.864,137.36 C94.025,137.125 94.555,136.939 94.829,137.027 C95.527,137.249 96.221,137.565 96.827,137.978 C97.442,138.396 97.925,139.005 98.513,139.471 C98.836,139.729 99.257,139.863 100.024,140.25 C99.769,139.496 99.687,139.164 99.546,138.856 C99.038,137.746 98.475,136.659 98.021,135.527 C97.915,135.267 98.055,134.728 98.271,134.564 C98.501,134.39 99.066,134.361 99.286,134.529 C99.794,134.915 100.273,135.405 100.598,135.951 C101.269,137.081 101.794,138.297 102.452,139.435 C102.773,139.986 103.164,140.698 103.688,140.891 C105.282,141.477 106.198,142.773 107.061,143.861 C108.515,143.861 109.729,143.861 111.291,143.861 C112.049,141.658 112.73,139.612 113.454,137.582 C114.348,135.074 114.772,132.489 114.793,129.834 C114.805,128.422 114.738,127.008 114.822,125.601 C115.043,121.948 113.936,118.528 112.92,115.124" id="Fill-51" fill="#B8CF24"></path>
                <path d="M59.357,22.521 C59.126,20.616 59.699,18.932 60.448,17.338 C61.767,14.527 63.297,11.832 65.486,9.576 L65.65,9.35 C69.188,6.697 72.662,3.887 77.24,3.272 C79.563,2.961 81.917,2.871 84.259,2.716 C88.41,2.443 91.719,4.25 94.584,7.038 C95.988,8.406 97.273,9.898 98.662,11.285 C99.544,12.168 100.201,13.172 100.7,14.302 C100.89,14.731 101.072,15.179 101.345,15.555 C102.837,17.611 103.134,20.023 103.617,22.429 C104.255,25.611 104.088,28.792 104.096,31.979 C104.105,36.14 105.326,39.899 107.627,43.342 C108.028,43.942 108.299,44.631 108.609,45.234 C107.686,46.16 106.673,46.298 105.633,46.311 C104.034,46.332 102.434,46.347 100.836,46.316 C100.284,46.306 99.726,46.188 99.188,46.053 C96.284,45.323 93.381,44.699 90.396,44.279 C86.324,43.707 82.192,43.165 78.293,41.7 C74.841,40.403 71.655,38.749 68.98,36.056 C67.216,34.276 65.009,32.913 62.906,31.502 C61.328,30.444 59.93,29.247 58.798,27.866 C58.693,26.685 59.245,25.917 59.958,25.286 C61.012,24.355 62.046,23.354 63.242,22.641 C67.631,20.018 72.426,18.844 77.533,19.104 C78.638,19.16 79.785,19.424 80.813,19.842 C85.454,21.727 89.339,24.582 91.995,28.931 C92.288,29.412 92.608,29.877 92.946,30.328 C93.112,30.548 93.348,30.715 93.723,31.066 C93.909,30.453 94.225,29.945 94.177,29.473 C94.052,28.237 93.515,27.112 92.738,26.147 C89.29,21.855 85.043,18.729 79.655,17.299 C79.111,17.154 78.553,16.977 78,16.973 C74.32,16.943 70.666,17.18 67.213,18.609 C64.783,19.613 62.328,20.589 60.261,22.293 C60.072,22.447 59.741,22.43 59.357,22.521" id="Fill-52" fill="#5EBD24"></path>
                <path d="M84.152,189.369 C84.66,185.346 85.13,181.62 85.623,177.7 C86.441,176.906 87.478,176.162 88.746,175.712 C89.208,177.527 89.21,177.528 88.932,178.981 C88.612,180.638 88.268,182.289 87.976,183.95 C87.736,185.322 88.361,186.132 89.777,186.188 C91.468,186.255 93.165,186.241 94.857,186.207 C96.007,186.183 97.092,186.38 98.16,186.796 C98.826,187.056 99.325,187.39 99.386,188.16 C99.455,189.039 99.429,189.92 98.473,190.318 C97.178,190.859 95.884,191.536 94.524,191.76 C91.511,192.258 88.524,191.929 85.717,190.642 C85.149,190.382 84.713,189.836 84.152,189.369" id="Fill-53" fill="#E08D24"></path>
                <path d="M53.592,182.488 C54.313,184.104 54.813,185.598 54.993,187.216 C55.105,188.23 55.408,189.243 55.759,190.209 C56.476,192.178 55.858,193.596 54.304,194.91 C52.285,196.617 50.095,197.713 47.412,197.658 C47.143,197.653 46.875,197.551 46.506,197.472 C46.093,196.415 46.267,195.402 47.035,194.647 C48.234,193.474 49.486,192.316 50.866,191.371 C52.656,190.146 52.807,190.028 52.01,188.019 C51.218,186.018 50.395,184.031 49.586,182.039 C50.942,181.635 50.942,181.635 53.592,182.488" id="Fill-54" fill="#E08D24"></path>
                <path d="M55.72,23.396 C54.529,20.568 53.41,17.709 52.131,14.922 C50.853,12.138 49.414,9.426 48.018,6.626 C48.629,6.14 49.241,5.973 49.83,5.973 C50.266,5.973 50.689,6.064 51.091,6.186 C51.749,6.387 52.444,6.917 52.819,7.496 C53.422,8.426 54.016,9.478 54.185,10.547 C54.855,14.805 55.361,19.088 55.927,23.362 L55.72,23.396" id="Fill-55" fill="#A68327"></path>
                <path d="M55.72,23.396 L55.927,23.362 C55.361,19.088 54.855,14.805 54.185,10.547 C54.016,9.479 53.422,8.426 52.819,7.496 C52.444,6.917 51.749,6.387 51.091,6.186 C50.147,5.9 49.082,5.779 48.018,6.626 C49.414,9.426 50.853,12.138 52.131,14.922 C53.41,17.709 54.529,20.568 55.72,23.396 Z M53.592,182.488 C50.942,181.635 50.942,181.635 49.586,182.039 C50.395,184.031 51.218,186.018 52.01,188.019 C52.807,190.028 52.656,190.146 50.866,191.371 C49.486,192.316 48.234,193.474 47.035,194.647 C46.267,195.402 46.093,196.415 46.506,197.472 C46.875,197.551 47.143,197.653 47.412,197.658 C50.095,197.713 52.285,196.617 54.304,194.91 C55.858,193.596 56.476,192.178 55.759,190.209 C55.408,189.243 55.105,188.23 54.993,187.216 C54.813,185.598 54.313,184.104 53.592,182.488 Z M11.262,147.944 C9.355,139.018 9.411,130.644 10.025,121.916 C9.54,122.426 9.177,122.697 8.962,123.056 C8.433,123.938 8.01,124.884 7.479,125.764 C5.258,129.437 4.346,133.545 3.445,137.663 C3.055,139.447 3.53,141.019 4.66,142.382 C6.096,144.114 7.626,145.764 9.531,147.005 C9.906,147.249 10.318,147.437 11.262,147.944 Z M84.152,189.369 C84.713,189.836 85.149,190.382 85.717,190.642 C88.524,191.929 91.511,192.258 94.524,191.76 C95.884,191.536 97.178,190.859 98.473,190.318 C99.429,189.92 99.455,189.039 99.386,188.16 C99.325,187.39 98.826,187.056 98.16,186.796 C97.092,186.38 96.007,186.183 94.857,186.207 C93.165,186.241 91.468,186.255 89.777,186.188 C88.361,186.132 87.736,185.322 87.976,183.95 C88.268,182.289 88.612,180.638 88.932,178.981 C89.21,177.528 89.208,177.527 88.746,175.712 C87.478,176.162 86.441,176.906 85.623,177.7 C85.13,181.62 84.66,185.346 84.152,189.369 Z M114.209,144.077 C115.117,143.711 115.563,143.612 115.917,143.375 C118.693,141.515 120.878,139.088 122.709,136.305 C123.568,134.998 123.994,133.604 124.071,132.07 C124.341,126.779 121.954,122.665 118.314,119.119 C118.014,118.826 117.535,118.713 116.641,118.269 C118.048,122.821 117.529,127.04 117.485,131.233 C117.441,135.533 115.55,139.419 114.209,144.077 Z M59.357,22.521 C59.741,22.43 60.072,22.447 60.261,22.293 C62.328,20.589 64.783,19.613 67.213,18.609 C70.666,17.18 74.32,16.943 78,16.973 C78.553,16.977 79.111,17.154 79.655,17.299 C85.043,18.729 89.29,21.855 92.738,26.147 C93.515,27.112 94.052,28.237 94.177,29.473 C94.225,29.945 93.909,30.453 93.723,31.066 C93.348,30.715 93.112,30.548 92.946,30.328 C92.608,29.877 92.288,29.412 91.995,28.931 C89.339,24.582 85.454,21.727 80.813,19.842 C79.785,19.424 78.638,19.16 77.533,19.104 C72.426,18.844 67.631,20.018 63.242,22.641 C62.046,23.354 61.012,24.355 59.958,25.286 C59.245,25.917 58.693,26.685 58.798,27.866 C59.93,29.247 61.328,30.444 62.906,31.502 C65.009,32.913 67.216,34.276 68.98,36.056 C71.655,38.749 74.841,40.403 78.293,41.7 C82.192,43.165 86.324,43.707 90.396,44.279 C93.381,44.699 96.284,45.323 99.188,46.053 C99.726,46.188 100.284,46.306 100.836,46.316 C102.434,46.347 104.034,46.332 105.633,46.311 C106.673,46.298 107.686,46.16 108.609,45.234 C108.299,44.631 108.028,43.942 107.627,43.342 C105.326,39.899 104.105,36.14 104.096,31.979 C104.088,28.792 104.255,25.611 103.617,22.429 C103.134,20.023 102.837,17.611 101.345,15.555 C101.072,15.179 100.89,14.731 100.7,14.302 C100.201,13.172 99.544,12.168 98.662,11.285 C97.273,9.898 95.988,8.406 94.584,7.038 C91.719,4.25 88.41,2.443 84.259,2.716 C81.917,2.871 79.563,2.961 77.24,3.272 C72.662,3.887 69.188,6.697 65.65,9.35 L65.486,9.576 C63.297,11.832 61.767,14.527 60.448,17.338 C59.699,18.932 59.126,20.616 59.357,22.521 Z M111.291,143.861 C112.049,141.658 112.73,139.612 113.454,137.582 C114.348,135.074 114.772,132.489 114.793,129.834 C114.805,128.422 114.738,127.008 114.822,125.601 C115.043,121.948 113.936,118.528 112.92,115.124 C112.252,112.883 111.186,110.759 110.254,108.602 C109.506,106.867 108.516,105.305 107.228,103.88 C105.843,102.344 104.541,100.771 102.857,99.517 C101.895,98.799 101.169,97.759 100.348,96.854 C99.905,96.366 99.571,95.728 99.042,95.383 C97.082,94.111 95.891,92.231 94.612,90.352 C91.646,85.995 90.01,81.132 88.784,76.085 C88.54,75.081 88.293,74.078 88.08,73.068 C87.711,71.324 87.297,69.586 87.026,67.826 C86.354,63.463 85.964,59.046 84.309,54.888 C84.034,54.194 83.837,53.445 83.748,52.705 C83.508,50.705 82.642,48.931 81.896,47.103 C81.433,45.97 80.767,45.315 79.468,45.077 C76.964,44.619 74.556,43.809 72.547,42.125 C72.405,42.006 72.232,41.919 72.063,41.839 C70.333,41.031 68.813,39.981 67.746,38.339 C67.446,37.876 66.972,37.522 66.561,37.137 C64.917,35.596 63.242,34.088 61.633,32.512 C60.995,31.889 60.363,31.429 59.431,31.478 C56.344,31.642 53.263,31.375 50.159,31.953 C46.423,32.649 43.639,34.719 41.152,37.307 C40.184,38.313 39.429,39.518 38.226,40.313 C37.846,40.564 37.527,40.943 37.261,41.32 C35.233,44.182 33.415,47.125 33.395,50.816 C33.392,51.462 33.155,52.105 33.016,52.747 C32.757,53.941 32.388,55.122 32.244,56.329 C31.547,62.201 30.913,68.08 30.616,73.991 C30.46,77.104 29.871,80.147 28.329,82.929 C27.327,84.733 26.392,86.578 25.342,88.354 C23.665,91.188 22.253,94.155 20.741,97.074 C18.521,101.362 16.876,105.837 15.525,110.436 C14.678,113.319 13.93,116.244 13.357,119.194 C12.856,121.769 12.524,124.395 12.376,127.014 C12.211,129.921 12.308,132.846 12.346,135.763 C12.406,140.394 13.191,144.916 14.378,149.307 C16.137,150.397 18.037,150.608 19.826,151.139 C21.596,151.662 22.938,151.063 23.854,149.46 C24.133,148.971 24.536,148.548 24.78,148.045 C25.758,146.033 27.705,145.184 29.456,144.119 C30.23,143.648 31.315,143.835 31.501,144.312 C31.758,144.974 31.22,145.334 30.923,145.788 C30.786,145.996 30.678,146.221 30.36,146.787 C31.182,146.476 31.667,146.269 32.167,146.108 C32.699,145.938 33.237,145.756 33.787,145.684 C34.524,145.587 35.193,145.992 35.405,146.557 C35.6,147.077 35.149,147.631 34.328,147.921 C33.357,148.265 32.385,148.607 31.43,148.994 C31.123,149.12 30.877,149.391 30.4,149.746 C30.947,150.134 31.261,150.479 31.646,150.605 C32.448,150.867 33.314,150.939 34.105,151.225 C35.08,151.575 35.996,152.07 36.1,153.27 C35.296,154.21 34.354,154.414 33.256,154.091 C31.827,153.67 30.362,153.731 28.535,153.6 C30.229,155.403 32.849,154.759 34.056,156.649 C33.598,157.601 32.847,158.026 31.957,157.865 C30.866,157.668 29.778,157.336 28.761,156.897 C27.836,156.499 27.006,155.878 26.058,155.309 C25.881,155.664 25.62,156.027 25.68,156.092 C26.122,156.563 26.61,157.001 27.121,157.401 C27.559,157.744 28.108,157.963 28.487,158.355 C28.702,158.575 28.813,159.088 28.709,159.37 C28.602,159.659 28.199,159.93 27.874,160.02 C27.543,160.111 27.133,160.025 26.784,159.926 C25.467,159.549 24.446,158.723 23.648,157.64 C22.816,156.509 22.042,155.335 21.182,154.092 C19.632,153.804 18.01,153.503 16.239,153.174 C16.388,154.742 16.943,155.913 17.51,157.09 C19.026,160.254 21.281,162.927 23.249,165.792 C24.865,168.146 26.834,170.133 29.08,171.879 C29.909,172.523 30.756,173.043 31.77,173.359 C36.521,174.848 41.256,176.392 46.003,177.896 C46.715,178.121 47.464,178.234 48.192,178.407 C52.043,179.322 55.976,179.71 59.872,180.323 C64.428,181.039 68.858,180.645 73.297,179.618 C76.156,178.958 78.742,177.66 81.414,176.504 C87.053,174.064 91.748,170.355 96.05,166.133 C99.408,162.836 102.262,159.072 104.803,155.098 C106.018,153.197 107.172,151.256 108.311,149.309 C108.629,148.765 108.966,148.139 108.404,147.512 C104.97,146.853 101.869,147.368 99.319,149.965 C99.064,150.224 98.712,150.454 98.367,150.54 C98.048,150.618 97.563,150.603 97.359,150.409 C97.154,150.216 97.083,149.714 97.174,149.412 C97.371,148.748 98.278,148.374 97.955,147.354 C97.426,147.354 96.865,147.375 96.306,147.348 C95.745,147.321 95.163,147.326 94.638,147.163 C94.341,147.072 94.007,146.705 93.925,146.399 C93.786,145.879 94.177,145.521 94.639,145.344 C94.982,145.213 95.364,145.17 95.732,145.114 C96.311,145.028 96.892,144.963 97.47,144.89 C95.838,144.542 94.357,143.979 92.975,143.177 C92.504,142.902 92.103,142.482 91.723,142.078 C91.422,141.758 91.715,140.991 92.155,140.959 C92.605,140.924 93.073,140.961 93.52,141.044 C94.336,141.193 95.11,141.184 96.129,140.768 C95.585,140.184 95.223,139.784 94.85,139.396 C94.526,139.061 94.109,138.783 93.89,138.392 C93.733,138.115 93.701,137.598 93.864,137.36 C94.025,137.125 94.555,136.939 94.829,137.027 C95.527,137.249 96.221,137.565 96.827,137.978 C97.442,138.396 97.925,139.005 98.513,139.471 C98.836,139.729 99.257,139.863 100.024,140.25 C99.769,139.496 99.687,139.164 99.546,138.856 C99.038,137.746 98.475,136.659 98.021,135.527 C97.915,135.267 98.055,134.728 98.271,134.564 C98.501,134.39 99.066,134.361 99.286,134.529 C99.794,134.915 100.273,135.405 100.598,135.951 C101.269,137.081 101.794,138.297 102.452,139.435 C102.773,139.986 103.164,140.698 103.688,140.891 C105.282,141.477 106.198,142.773 107.061,143.861 C108.515,143.861 109.729,143.861 111.291,143.861 Z M116.007,115.18 C121.115,116.796 123.693,120.865 125.731,125.276 C127.141,128.327 127.238,131.683 126.463,134.963 C126.21,136.026 125.57,137.031 124.97,137.974 C121.702,143.098 118.079,146.033 111.895,148.668 C103.999,161.207 105.996,160.1 91.378,174.115 C91.203,177.25 91.032,180.322 90.862,183.375 C92.015,184.162 93.171,183.823 94.255,183.857 C95.854,183.91 97.438,183.879 98.963,184.54 C100.411,185.168 101.638,185.88 101.757,187.692 C101.889,189.68 101.69,191.453 99.636,192.475 C97.596,193.488 95.527,194.334 93.188,194.258 C92.344,194.231 91.488,194.193 90.65,194.281 C88.383,194.52 86.398,193.516 84.425,192.737 C82.536,191.993 81.448,189.639 81.823,187.88 C82.189,186.161 82.26,184.387 82.771,182.676 C83.114,181.526 83.286,180.311 83.164,178.835 C80.959,179.724 78.967,180.683 76.878,181.326 C74.645,182.016 72.316,182.393 70.036,182.931 C67.815,183.455 65.561,183.56 63.306,183.403 C61.078,183.25 58.86,182.93 56.538,182.672 C56.189,183.937 56.9,184.817 57.081,185.778 C57.254,186.692 57.383,187.666 57.801,188.474 C58.595,190.009 58.37,191.592 58.271,193.169 C58.238,193.689 57.943,194.262 57.61,194.686 C54.824,198.223 51.25,200.187 46.65,199.958 C44.801,199.866 44.151,199.152 44.024,197.349 C43.89,195.442 44.439,193.83 45.922,192.573 C47.204,191.486 48.481,190.395 49.877,189.207 C49.359,186.482 48.156,183.961 46.721,181.548 C46.465,181.119 45.901,180.777 45.406,180.605 C43.633,179.989 41.82,179.485 40.034,178.901 C36.819,177.854 33.619,176.762 30.399,175.729 C29.394,175.407 28.546,174.886 27.716,174.241 C25.018,172.147 22.682,169.74 20.76,166.905 C18.86,164.107 16.634,161.526 15.216,158.419 C14.398,156.627 13.566,154.838 12.848,153.005 C12.438,151.966 11.81,151.294 10.791,150.857 C7.787,149.57 5.423,147.442 3.251,145.052 C0.942,142.509 0.077,139.712 0.841,136.236 C2.005,130.933 3.916,125.982 6.898,121.464 C7.719,120.221 8.756,119.101 9.807,118.034 C10.829,116.998 11.567,115.871 11.847,114.43 C12.819,109.425 14.578,104.665 16.416,99.932 C16.552,99.582 16.668,99.22 16.845,98.891 C19.024,94.84 20.833,90.594 23.328,86.707 C24.238,85.29 24.971,83.76 25.792,82.285 C27.577,79.079 28.104,75.59 28.288,71.98 C28.454,68.7 28.771,65.426 29.123,62.159 C29.415,59.459 29.505,56.726 30.4,54.106 C30.634,53.424 30.535,52.614 30.521,51.863 C30.436,47.009 32.48,42.952 35.241,39.159 C37.372,37.716 38.629,35.408 40.55,33.771 C42.556,32.062 44.718,30.493 47.23,29.65 C48.896,29.093 50.709,28.97 52.459,28.67 C53.002,28.576 53.555,28.536 54.048,28.479 C54.158,28.191 54.316,27.996 54.278,27.853 C53.581,25.23 53.219,22.529 51.993,20.037 C51.004,18.026 50.418,15.83 49.311,13.849 C48.304,12.049 47.479,10.15 46.55,8.305 C45.752,6.717 45.734,6.307 46.59,4.496 C47.723,4.463 48.938,4.45 50.149,4.384 C52.268,4.27 53.726,5.316 54.82,7 C55.756,8.443 56.275,10.04 56.511,11.742 C56.754,13.504 57.03,15.261 57.284,16.974 C57.797,17.213 58.012,16.972 58.226,16.619 C59.15,15.092 60.119,13.592 61.03,12.057 C62.688,9.263 65.007,7.051 67.414,4.949 C69.927,2.755 72.951,1.428 76.104,0.422 C76.807,0.199 77.581,0.145 78.325,0.119 C79.734,0.069 81.148,0.043 82.557,0.1 C87.154,0.29 91.516,1.414 95.242,4.166 C98.045,6.237 100.398,8.825 102.298,11.79 C105.376,16.599 106.85,21.907 106.799,27.561 C106.762,31.569 107.481,35.404 108.481,39.23 C109.067,41.468 110.118,43.424 111.92,44.928 C112.136,45.108 112.412,45.269 112.53,45.503 C112.728,45.899 112.938,46.352 112.93,46.775 C112.916,47.336 112.392,47.42 111.91,47.515 C111.09,47.675 110.242,47.802 109.479,48.119 C107.711,48.854 105.896,49.056 103.99,49.136 C100.275,49.29 96.705,48.622 93.141,47.74 C91.139,47.246 89.128,46.781 87.105,46.396 C86.418,46.267 85.678,46.424 84.932,46.45 C85.654,49.154 86.15,51.749 87.044,54.197 C88.643,58.578 89.094,63.159 89.796,67.703 C89.867,68.167 89.835,68.652 89.946,69.105 C91.277,74.479 92.239,79.978 94.73,84.983 C95.814,87.159 97.248,89.16 98.529,91.235 C98.627,91.394 98.75,91.558 98.902,91.656 C101.932,93.628 103.537,97.105 106.651,98.984 C109.157,101.784 111.73,104.526 113.102,108.14 C113.968,110.422 114.96,112.657 116.007,115.18 Z" id="Fill-56" fill="#4F251F"></path>
                <path d="M40.651,112.995 C41.287,110.835 42.471,109.271 44.584,108.545 C44.861,108.448 45.374,108.594 45.564,108.813 C45.755,109.031 45.84,109.666 45.688,109.804 C43.921,111.395 44.483,113.222 45.185,114.981 C46.84,119.132 49.14,122.927 52.452,125.938 C58.04,131.018 69.952,133.448 77.695,124.237 C80.926,120.395 82.539,116.035 82.437,111.026 C82.424,110.369 82.429,109.711 82.436,109.052 C82.467,106.338 82.684,103.598 81.188,101.281 C81.576,100.281 82.187,99.9 83.016,100.019 C83.66,100.112 84.314,100.284 84.906,100.55 C86.267,101.161 86.564,102.082 85.749,103.441 C85.381,104.054 85.283,104.639 85.283,105.298 C85.285,107.555 85.342,109.814 85.268,112.068 C84.98,120.605 80.926,126.921 73.58,131.05 C70.066,133.025 66.144,133.629 62.105,132.932 C60.72,132.691 59.322,132.46 57.977,132.066 C53.042,130.626 49.407,127.476 46.726,123.188 C45.133,120.641 43.564,118.063 42.814,115.098 C42.646,114.431 42.336,113.908 41.597,113.689 C41.272,113.593 41.016,113.273 40.651,112.995" id="Fill-57" fill="#4F251F"></path>
                <path d="M48.639,92.438 C48.588,93.207 48.596,93.682 48.511,94.14 C48.462,94.396 48.306,94.667 48.12,94.858 C47.377,95.626 45.073,95.603 44.513,94.721 C43.703,93.443 43.114,92.055 43.801,90.486 C44.212,89.549 44.877,88.952 45.924,88.891 C46.904,88.833 47.996,89.526 48.32,90.526 C48.545,91.226 48.569,91.99 48.639,92.438" id="Fill-58" fill="#4F251F"></path>
                <path d="M76.252,90.968 C76.226,92.635 75.121,93.354 73.914,92.844 C72.378,92.192 71.049,89.877 71.263,88.226 C71.473,86.604 73.651,85.608 74.968,86.547 C75.187,86.703 75.432,86.945 75.485,87.188 C75.793,88.555 76.046,89.934 76.252,90.968" id="Fill-59" fill="#4F251F"></path>
                <path d="M22.395,137.679 C21.741,135.425 21.884,133.26 22.67,131.987 C23.29,133.096 23.467,134.508 23.131,136.449 C23.064,136.831 22.713,137.163 22.395,137.679" id="Fill-60" fill="#4F251F"></path>
                <path d="M18.342,133.927 C17.419,132.553 17.371,131.766 18.082,130.81 C18.17,130.693 18.446,130.589 18.552,130.642 C18.777,130.756 19.074,130.949 19.121,131.159 C19.33,132.106 19.185,132.999 18.342,133.927" id="Fill-61" fill="#4F251F"></path>
                <path d="M56.745,168.66 C57.723,169.321 59.221,168.952 60.055,170.521 C58.828,170.733 57.86,170.668 56.998,170.129 C56.681,169.93 56.54,169.444 56.318,169.089 C56.461,168.947 56.603,168.803 56.745,168.66" id="Fill-62" fill="#4F251F"></path>
                <path d="M51.929,173.51 C50.896,174.035 50.084,174.016 49.372,173.269 C49.213,173.101 49.121,172.729 49.194,172.521 C49.254,172.351 49.637,172.147 49.822,172.19 C50.597,172.374 51.394,172.581 51.929,173.51" id="Fill-63" fill="#4F251F"></path>
                <path d="M25.063,127.557 C25.987,128.631 25.987,128.631 25.038,130.221 C24.195,129.062 24.196,128.902 25.063,127.557" id="Fill-64" fill="#4F251F"></path>
            </g>
        </g>
    </g>
</svg>