<?xml version="1.0" encoding="UTF-8"?>
<svg width="172px" height="175px" viewBox="0 0 172 175" version="1.1" xmlns="http://www.w3.org/2000/svg" xmlns:xlink="http://www.w3.org/1999/xlink">
    <!-- Generator: Sketch 49.3 (51167) - http://www.bohemiancoding.com/sketch -->
    <title>avatar2</title>
    <desc>Created with Sketch.</desc>
    <defs></defs>
    <g id="Page-1" stroke="none" stroke-width="1" fill="none" fill-rule="evenodd">
        <g id="114523-OOP5HG-503" transform="translate(-145.000000, -9.000000)">
            <g id="avatar2" transform="translate(145.000000, 9.000000)">
                <path d="M134.787,82.358 C134.708,81.302 134.643,80.229 134.544,79.159 C134.313,76.663 134.26,74.13 133.776,71.682 C133.102,68.26 132.146,64.891 131.229,61.521 C129.811,56.299 127.223,51.564 124.896,46.727 C124.445,45.794 123.658,44.949 122.85,44.276 C119.885,41.812 116.844,39.446 113.3,37.823 C111.917,37.19 110.535,36.529 109.232,35.748 C106.114,33.876 102.666,33.402 99.153,33.379 C96.47,33.362 93.771,33.551 91.253,34.68 C90.112,35.192 88.982,35.738 87.817,36.192 C83.067,38.044 78.313,39.886 73.542,41.684 C72.549,42.058 71.489,42.285 70.439,42.475 C69.295,42.683 68.133,42.83 66.973,42.897 C64.114,43.063 61.252,43.174 58.391,43.285 C58.041,43.299 57.684,43.185 57.333,43.117 C53.457,42.361 49.866,43.065 46.556,45.22 C43.761,47.038 41.294,49.239 38.971,51.619 C36.402,54.249 34.734,57.349 33.826,60.908 C31.436,70.264 31.622,79.577 34.603,88.735 C36.735,95.288 39.343,101.683 41.58,108.203 C43.816,114.718 47.069,120.641 51.323,126.033 C52.6,127.651 53.866,129.278 55.18,130.864 C57.815,134.043 60.662,137.018 63.802,139.709 C66.13,141.707 68.689,143.342 71.461,144.646 C74.387,146.021 77.431,147.083 80.554,147.897 C85.709,149.24 90.963,149.115 95.983,147.701 C102.998,145.723 109.101,141.89 113.98,136.436 C118.954,130.88 122.924,124.564 126.905,118.278 C131.409,111.166 133.786,103.314 134.534,95.002 C134.91,90.823 134.721,86.592 134.787,82.358" id="Fill-65" fill="#FF4865"></path>
                <path d="M111.379,18.594 C111.873,19.25 111.711,19.862 111.375,20.407 C109.584,23.313 107.752,26.185 104.658,27.937 C104.036,28.289 103.444,28.702 102.877,29.137 C101.126,30.479 99.211,31.152 96.958,31.316 C94.844,31.469 92.77,32.187 90.678,32.655 C90.175,32.767 89.67,32.874 89.056,33.008 C88.74,31.926 89.286,31.128 89.384,30.286 C89.474,29.496 89.595,28.703 89.58,27.913 C89.576,27.66 89.208,27.248 88.962,27.211 C88.719,27.177 88.251,27.472 88.175,27.714 C87.719,29.163 87.344,30.636 86.951,32.104 C86.812,32.62 86.699,33.143 86.584,33.62 C85.016,34.554 79.774,36.638 77.996,37.014 C77.387,34.695 77.66,32.264 77.242,29.991 C76.521,29.469 76.099,29.904 75.946,30.41 C75.717,31.166 75.558,31.984 75.588,32.767 C75.65,34.363 75.858,35.954 76.026,37.771 C73.921,38.657 71.889,40.214 68.99,39.873 C67.937,38.735 66.793,37.49 65.638,36.256 C65.15,35.733 64.692,35.16 64.12,34.751 C63.824,34.542 63.217,34.48 62.91,34.646 C62.458,34.891 62.585,35.448 62.854,35.826 C63.373,36.554 63.943,37.244 64.498,37.946 C65.049,38.642 65.608,39.332 66.311,40.209 C65.783,40.415 65.428,40.621 65.048,40.691 C62.836,41.101 60.626,41.192 58.374,40.909 C56.989,40.735 55.75,40.334 54.655,39.528 C52.205,37.727 49.791,35.874 47.359,34.045 C45.859,32.916 44.367,31.776 42.848,30.673 C41.785,29.901 40.627,29.245 39.887,28.124 C40.113,27.899 40.22,27.695 40.348,27.681 C44.441,27.211 48.54,26.714 52.636,27.619 C53.852,27.887 55.044,28.267 56.245,28.602 C57.619,28.984 58.979,29.423 60.368,29.74 C61.289,29.951 61.994,29.221 61.72,28.31 C61.415,27.292 61.057,26.235 60.466,25.37 C59.061,23.313 58.404,21.018 57.964,18.626 C57.53,16.262 58.063,14.216 59.959,12.544 C61.1,12.878 61.813,13.707 62.463,14.52 C64.247,16.751 66.252,18.815 67.534,21.431 C68,22.383 68.709,23.227 69.371,24.07 C70.023,24.898 71.025,24.864 71.622,24.004 C71.922,23.571 72.154,23.07 72.321,22.568 C73.362,19.428 74.378,16.279 75.399,13.131 C75.481,12.877 75.5,12.596 75.612,12.356 C77.314,8.672 79.551,5.397 82.777,2.767 C84.384,4.105 84.888,5.807 85.032,7.589 C85.326,11.247 85.498,14.913 85.712,18.575 C85.727,18.842 85.666,19.111 85.66,19.379 C85.637,20.472 85.879,21.058 86.43,21.179 C87.297,21.37 87.724,20.744 88.168,20.186 C89.449,18.575 90.742,16.974 91.992,15.341 C93.162,13.814 94.644,12.697 96.338,11.826 C97.144,11.413 97.957,11.122 98.916,11.354 C99.534,12.827 99.154,14.198 98.647,15.539 C98.016,17.211 97.322,18.861 96.655,20.521 C96.521,20.854 96.363,21.179 96.272,21.522 C95.979,22.627 96.822,23.445 97.978,23.185 C98.237,23.127 98.501,23.053 98.74,22.938 C100.59,22.045 102.531,21.292 104.258,20.201 C106.504,18.783 108.867,18.394 111.379,18.594" id="Fill-66" fill="#66B32F"></path>
                <path d="M126.913,155.222 C126.897,155.222 126.881,155.222 126.865,155.221 C125.64,155.194 125.158,154.093 124.796,153.048 C123.841,150.304 123.432,147.521 124.173,144.649 L124.062,144.414 C120.12,143.168 119.269,142.446 116.341,137.82 C116.67,136.948 117.337,136.269 117.971,135.663 C118.002,135.661 118.032,135.66 118.062,135.66 C118.693,135.66 118.858,136.124 119.038,136.467 C120.562,139.369 123.229,140.205 126.197,140.29 C127.379,140.323 128.494,140.389 129.736,140.92 C129.846,141.414 130.04,142 130.096,142.6 C130.261,144.381 130.325,146.174 130.518,147.952 C130.73,149.913 130.118,151.664 129.297,153.369 C128.815,154.369 128.029,155.222 126.913,155.222" id="Fill-67" fill="#FFB11A"></path>
                <path d="M84.418,172.414 C83.722,172.414 83.032,172.353 82.361,172.023 C80.924,169.241 82.221,165.065 84.992,163.716 C85.928,163.259 86.771,162.523 87.51,161.77 C88.31,160.956 88.235,160.449 87.665,159.383 C86.359,156.943 85.121,154.478 85.489,151.429 C86.174,151.377 86.836,151.328 87.745,151.259 C88.151,155.108 89.172,158.377 91.846,161.088 C92.234,164.61 91.234,167.823 89.007,170.701 C88.119,171.846 86.987,172.379 85.539,172.394 C85.164,172.397 84.79,172.414 84.418,172.414" id="Fill-68" fill="#FFB11A"></path>
                <path d="M72.036,101.749 C72.784,101.153 73.492,100.747 74.255,101.454 C75.962,103.034 78.112,103.239 80.241,103.299 C83.245,103.385 86.08,102.641 88.672,101.058 C89.815,100.36 91.005,99.739 92.14,99.026 C92.837,98.587 93.304,97.988 93.343,97.064 C93.371,96.372 93.644,95.69 93.809,95.001 C94.709,94.538 95.559,94.517 96.461,94.733 C97.137,96.25 97.554,97.772 97.615,99.403 C97.668,100.833 97.815,102.26 97.912,103.688 C98.167,107.438 96.498,110.247 93.534,112.342 C92.445,113.11 91.209,113.677 90.015,114.287 C88.889,114.861 87.689,115.201 86.407,115.212 C85.871,115.218 85.317,115.212 84.804,115.34 C81.204,116.232 78.961,114.25 76.809,111.791 C75.318,110.087 74.288,108.118 73.042,106.272 C72.077,104.845 71.861,103.344 72.036,101.749" id="Fill-69" fill="#DB2738"></path>
                <path d="M91.198,95.486 C91.619,96.45 91.47,97.25 90.727,97.729 C88.03,99.469 85.265,101.08 81.986,101.505 C79.903,101.775 77.917,101.442 75.727,100.657 C76.157,100.289 76.407,99.926 76.741,99.813 C80.962,98.395 85.191,96.996 89.432,95.638 C89.991,95.459 90.629,95.529 91.198,95.486" id="Fill-70" fill="#FFFFFF"></path>
                <path d="M112.441,46.751 C111.613,47.221 111.072,46.84 110.569,46.489 C108.656,45.157 107.293,43.338 105.908,41.317 C107.142,41.035 108.006,41.54 108.876,41.885 C109.783,42.244 110.696,42.635 111.504,43.167 C111.895,43.423 112.187,44.007 112.287,44.492 C112.445,45.249 112.403,46.05 112.441,46.751" id="Fill-71" fill="#FFA04D"></path>
                <path d="M67.712,129.254 C69.564,131.28 70.349,133.282 69.891,135.887 C69.507,135.778 69.006,135.773 68.938,135.598 C68.185,133.673 67.403,131.739 67.712,129.254" id="Fill-72" fill="#FFA04D"></path>
                <path d="M45.006,60.521 C44.955,60.046 44.799,59.635 44.892,59.293 C45.375,57.497 46.278,55.942 47.692,54.531 C47.999,57.695 47.424,58.99 45.006,60.521" id="Fill-73" fill="#FFA04D"></path>
                <path d="M92.676,49.344 C94.891,50.123 96.068,51.39 97.021,52.91 C97.558,53.768 97.54,53.779 97.427,55.405 C96.458,55.784 95.96,55.002 95.428,54.497 C94.067,53.207 93.136,51.658 92.676,49.344" id="Fill-74" fill="#FFA04D"></path>
                <path d="M103.102,130.397 C104.239,132.074 103.817,133.785 103.849,135.397 C103.864,136.214 103.898,137.181 102.754,137.763 C101.844,135.262 101.781,132.931 103.102,130.397" id="Fill-75" fill="#FFA04D"></path>
                <path d="M117.564,110.419 C119.697,111.612 119.224,113.373 119.289,115.286 C118.807,114.968 118.442,114.856 118.306,114.616 C117.628,113.426 117.303,112.145 117.564,110.419" id="Fill-76" fill="#FFA04D"></path>
                <path d="M117.167,91.964 C116.653,92.002 116.475,92.019 116.295,92.028 C114.091,92.147 113.555,91.668 113.418,89.545 C113.339,88.333 113.639,87.268 114.337,86.262 C115.802,84.154 117.831,82.974 120.299,82.477 C120.911,82.354 121.539,82.292 122.163,82.247 C124.63,82.069 125.432,82.86 125.166,85.352 C124.919,87.666 123.517,89.267 121.647,90.485 C120.195,91.432 118.567,91.903 117.167,91.964" id="Fill-77" fill="#E01B15"></path>
                <path d="M56.429,102.569 C57.117,102.579 57.747,102.528 58.359,102.609 C60.637,102.908 61.632,104.987 60.364,106.97 C59.444,108.407 58.178,109.614 56.601,110.272 C55.05,110.919 53.388,111.32 51.668,111.342 C50.546,111.356 49.433,111.22 48.933,110.099 C48.375,108.848 48.232,107.461 49.125,106.285 C50.331,104.696 51.857,103.476 53.859,103.014 C54.724,102.814 55.61,102.708 56.429,102.569" id="Fill-78" fill="#E01B15"></path>
                <path d="M87.745,151.259 C86.836,151.328 86.174,151.377 85.489,151.429 C85.121,154.479 86.359,156.943 87.665,159.383 C88.235,160.449 88.31,160.956 87.51,161.771 C86.771,162.523 85.928,163.259 84.992,163.716 C82.221,165.065 80.924,169.241 82.361,172.023 C83.391,172.529 84.463,172.403 85.539,172.394 C86.987,172.379 88.119,171.846 89.007,170.701 C91.234,167.823 92.234,164.61 91.846,161.088 C89.172,158.376 88.151,155.108 87.745,151.259 Z M124.062,144.414 L124.173,144.649 C123.432,147.521 123.841,150.304 124.796,153.048 C125.158,154.093 125.64,155.194 126.865,155.221 C128.007,155.246 128.808,154.384 129.297,153.369 C130.118,151.664 130.73,149.913 130.518,147.952 C130.325,146.174 130.261,144.381 130.096,142.6 C130.04,142 129.846,141.414 129.736,140.92 C128.494,140.389 127.379,140.323 126.197,140.29 C123.229,140.205 120.563,139.369 119.038,136.467 C118.85,136.108 118.678,135.617 117.971,135.663 C117.337,136.269 116.67,136.948 116.341,137.82 C119.269,142.446 120.12,143.167 124.062,144.414 Z M111.379,18.594 C108.867,18.394 106.504,18.783 104.258,20.201 C102.531,21.292 100.59,22.045 98.74,22.938 C98.501,23.053 98.237,23.127 97.978,23.185 C96.822,23.445 95.979,22.627 96.272,21.522 C96.363,21.179 96.521,20.854 96.655,20.521 C97.322,18.861 98.016,17.211 98.647,15.539 C99.154,14.198 99.534,12.827 98.916,11.354 C97.957,11.122 97.144,11.413 96.338,11.826 C94.644,12.697 93.162,13.814 91.992,15.341 C90.742,16.974 89.449,18.575 88.168,20.186 C87.724,20.744 87.297,21.37 86.43,21.179 C85.879,21.058 85.637,20.472 85.66,19.379 C85.666,19.111 85.727,18.842 85.712,18.575 C85.498,14.913 85.326,11.247 85.032,7.589 C84.888,5.807 84.384,4.105 82.777,2.767 C79.551,5.397 77.314,8.672 75.612,12.356 C75.5,12.596 75.481,12.877 75.399,13.131 C74.378,16.279 73.362,19.428 72.321,22.568 C72.154,23.07 71.922,23.571 71.622,24.004 C71.025,24.864 70.023,24.898 69.371,24.07 C68.709,23.227 68,22.383 67.534,21.431 C66.252,18.815 64.247,16.751 62.463,14.52 C61.813,13.707 61.1,12.878 59.959,12.544 C58.063,14.216 57.53,16.262 57.964,18.626 C58.404,21.018 59.061,23.313 60.466,25.37 C61.057,26.235 61.415,27.292 61.72,28.31 C61.994,29.221 61.289,29.951 60.368,29.74 C58.979,29.423 57.619,28.984 56.245,28.602 C55.044,28.267 53.852,27.887 52.636,27.619 C48.54,26.714 44.441,27.211 40.348,27.681 C40.22,27.695 40.113,27.899 39.887,28.124 C40.627,29.245 41.785,29.901 42.848,30.673 C44.367,31.776 45.859,32.916 47.359,34.045 C49.791,35.874 52.205,37.727 54.655,39.528 C55.75,40.334 56.989,40.735 58.374,40.909 C60.626,41.192 62.836,41.101 65.048,40.691 C65.428,40.621 65.783,40.415 66.311,40.209 C65.608,39.332 65.049,38.642 64.498,37.946 C63.943,37.244 63.373,36.554 62.854,35.826 C62.585,35.448 62.458,34.891 62.91,34.646 C63.217,34.48 63.824,34.542 64.12,34.751 C64.692,35.16 65.15,35.733 65.638,36.256 C66.793,37.49 67.937,38.735 68.99,39.873 C71.889,40.214 73.921,38.657 76.026,37.771 C75.858,35.954 75.65,34.363 75.588,32.767 C75.558,31.984 75.717,31.166 75.946,30.41 C76.099,29.904 76.521,29.469 77.242,29.991 C77.66,32.264 77.387,34.695 77.996,37.014 C79.774,36.638 85.016,34.554 86.584,33.62 C86.699,33.143 86.812,32.62 86.951,32.104 C87.344,30.636 87.719,29.163 88.175,27.714 C88.251,27.472 88.719,27.177 88.962,27.211 C89.208,27.248 89.576,27.66 89.58,27.913 C89.595,28.703 89.474,29.496 89.384,30.286 C89.286,31.128 88.74,31.926 89.056,33.008 C89.67,32.874 90.175,32.767 90.678,32.655 C92.77,32.187 94.844,31.469 96.958,31.316 C99.211,31.152 101.126,30.479 102.877,29.137 C103.444,28.702 104.036,28.289 104.658,27.937 C107.752,26.185 109.584,23.313 111.375,20.407 C111.711,19.862 111.873,19.25 111.379,18.594 Z M134.787,82.358 C134.708,81.302 134.643,80.229 134.544,79.159 C134.313,76.663 134.26,74.13 133.776,71.682 C133.102,68.26 132.146,64.891 131.229,61.521 C129.811,56.299 127.223,51.564 124.896,46.727 C124.445,45.794 123.658,44.949 122.85,44.276 C119.885,41.812 116.844,39.446 113.3,37.823 C111.917,37.19 110.535,36.529 109.232,35.748 C106.114,33.876 102.666,33.402 99.153,33.379 C96.47,33.362 93.771,33.551 91.253,34.68 C90.112,35.192 88.982,35.738 87.817,36.192 C83.067,38.044 78.313,39.886 73.542,41.684 C72.549,42.058 71.489,42.285 70.439,42.475 C69.295,42.683 68.133,42.83 66.973,42.897 C64.114,43.063 61.252,43.174 58.391,43.285 C58.041,43.299 57.684,43.185 57.333,43.117 C53.457,42.361 49.866,43.065 46.556,45.22 C43.761,47.038 41.294,49.239 38.971,51.619 C36.402,54.249 34.734,57.349 33.826,60.908 C31.436,70.264 31.622,79.577 34.603,88.735 C36.735,95.288 39.343,101.683 41.58,108.203 C43.816,114.718 47.069,120.641 51.323,126.033 C52.6,127.651 53.866,129.278 55.18,130.864 C57.815,134.043 60.662,137.018 63.802,139.709 C66.13,141.707 68.689,143.342 71.461,144.646 C74.387,146.021 77.431,147.083 80.554,147.897 C85.709,149.24 90.963,149.115 95.983,147.701 C102.998,145.723 109.101,141.89 113.98,136.436 C118.954,130.88 122.924,124.564 126.905,118.278 C131.409,111.166 133.786,103.314 134.534,95.002 C134.91,90.823 134.721,86.592 134.787,82.358 Z M39.181,109.21 C38.921,108.342 38.75,107.663 38.516,107.007 C36.526,101.442 34.389,95.926 32.556,90.31 C29.489,80.919 29.013,71.365 31.146,61.677 C32.263,56.604 34.617,52.318 38.45,48.809 C40.636,46.808 42.884,44.896 45.418,43.348 C47.105,42.317 48.853,41.419 50.845,41.101 C51.154,41.052 51.433,40.805 51.789,40.616 C51.522,40.309 51.379,40.071 51.174,39.92 C47.704,37.383 44.572,34.407 40.919,32.102 C39.717,31.343 38.674,30.322 37.604,29.369 C37.218,29.024 36.903,28.559 36.671,28.09 C36.325,27.389 36.604,26.574 37.301,26.273 C38.038,25.956 38.808,25.6 39.587,25.524 C43.95,25.096 48.318,24.384 52.697,25.322 C54.092,25.62 55.466,26.016 56.844,26.393 C57.25,26.503 57.627,26.753 58.049,26.647 C58.082,26.354 58.175,26.142 58.106,26.038 C56.721,23.977 56.235,21.599 55.701,19.241 C54.965,15.983 56.058,13.241 58.191,10.836 C58.933,10.001 60.3,9.852 61.407,10.604 C62.433,11.3 63.42,12.132 64.211,13.081 C66.099,15.345 68.163,17.493 69.463,20.197 C69.572,20.423 69.792,20.596 69.943,20.771 C70.585,20.75 70.647,20.249 70.783,19.85 C71.505,17.733 72.314,15.638 72.888,13.481 C73.522,11.097 74.612,8.989 76.025,6.994 C77.479,4.941 78.951,2.92 80.912,1.31 C81.05,1.198 81.158,1.049 81.294,0.934 C82.648,-0.213 83.662,-0.164 84.727,1.179 C86.143,2.966 87.138,4.956 87.36,7.261 C87.533,9.045 87.665,10.833 87.809,12.619 C87.889,13.598 87.957,14.579 88.025,15.492 C89.016,15.932 89.275,15.172 89.591,14.718 C91.004,12.69 92.802,11.119 94.973,9.952 C96.178,9.303 97.46,8.92 98.818,8.87 C100.369,8.814 101.174,9.479 101.385,11.006 C101.645,12.896 101.533,14.755 100.741,16.539 C100.319,17.49 99.847,18.441 99.78,19.721 C101.038,19.592 101.975,19.06 102.793,18.438 C105.227,16.587 108.051,16.315 110.942,16.23 C111.211,16.223 111.482,16.219 111.748,16.256 C113.507,16.504 114.479,17.697 114.152,19.469 C113.979,20.412 113.563,21.352 113.066,22.182 C111.118,25.443 108.85,28.425 105.412,30.295 C105.107,30.461 104.866,30.742 104.586,30.979 C104.74,31.141 104.827,31.314 104.96,31.361 C111.932,33.869 118.33,37.387 124.047,42.121 C125.232,43.102 126.337,44.173 126.994,45.572 C129.158,50.19 131.67,54.671 133.086,59.6 C134.298,63.816 135.454,68.06 136.335,72.354 C136.854,74.878 136.787,77.522 136.983,80.112 C137.029,80.724 137.076,81.336 137.123,81.966 C137.854,82.466 138.544,82.12 139.198,81.935 C142.951,80.873 146.829,80.676 150.651,80.864 C153.381,81 156.078,81.944 158.768,82.613 C160.234,82.978 161.64,83.583 163.104,83.96 C163.771,84.13 164.521,84.082 165.221,84.004 C167.066,83.798 168.764,84.381 170.466,84.921 C170.756,85.013 171.002,85.371 171.182,85.66 C171.451,86.097 171.004,86.851 170.471,86.815 C169.767,86.768 169.073,86.576 168.368,86.503 C167.507,86.413 166.691,85.757 165.784,86.265 C165.665,87.026 166.267,87.19 166.742,87.339 C168.481,87.882 169.586,89.149 170.566,90.568 C170.913,91.07 170.833,91.732 170.417,92.015 C169.921,92.354 169.356,92.374 168.924,91.989 C168.394,91.516 167.978,90.918 167.488,90.397 C167.073,89.955 166.612,89.569 165.742,89.636 C166.363,91.077 166.909,92.376 167.486,93.664 C167.739,94.229 167.706,94.714 167.183,95.069 C166.562,95.489 165.673,95.262 165.355,94.564 C165.023,93.833 164.802,93.052 164.509,92.302 C164.323,91.823 164.198,91.276 163.455,91.102 C163.121,92.061 163.479,93.011 163.47,93.948 C163.464,94.484 163.512,95.022 163.47,95.554 C163.424,96.131 162.881,96.674 162.41,96.529 C162.041,96.416 161.595,96.08 161.474,95.739 C161.22,95.027 161.158,94.246 160.924,92.99 C160.47,93.804 160.275,94.16 160.075,94.513 C159.781,95.034 159.347,95.312 158.747,95.131 C158.116,94.943 158.019,94.392 158.052,93.841 C158.071,93.491 158.216,93.148 158.297,92.799 C158.681,91.144 159.085,89.492 159.435,87.829 C159.753,86.318 159.125,85.122 157.651,84.729 C153.851,83.715 150.066,82.642 146.023,83.188 C143.456,83.534 140.838,83.514 138.339,84.325 C138.006,84.432 137.681,84.557 137.327,84.683 C136.863,85.669 137.092,86.668 137.129,87.624 C137.371,93.769 136.535,99.773 134.942,105.695 C133.771,110.049 132.169,114.232 129.781,118.051 C127.026,122.456 124.086,126.743 121.224,131.08 C120.688,131.891 120.14,132.695 119.69,133.365 C120.623,137.239 124.113,138.497 127.178,138.42 C130.197,138.345 132.214,139.64 132.622,142.082 C132.813,143.218 132.763,144.399 132.765,145.56 C132.767,146.357 132.554,147.167 132.64,147.949 C132.896,150.29 132.098,152.37 131.156,154.409 C130.617,155.576 129.685,156.421 128.523,157.005 C127.016,157.761 125.862,157.626 124.573,156.507 C123.743,155.787 123.152,154.905 122.796,153.863 C122.275,152.336 121.83,150.8 121.806,149.161 C121.791,148.092 121.657,147.025 121.57,145.872 C118.411,144.688 116.881,141.85 114.852,139.374 C107.541,145.482 99.885,150.661 89.92,151.099 C89.633,152.18 89.807,153.143 90.118,154.047 C90.493,155.141 90.908,156.25 91.521,157.218 C91.795,157.65 92.591,157.753 93.264,158.058 C93.876,159.397 93.609,160.959 93.861,162.438 C94.111,163.913 93.618,165.243 93.231,166.629 C92.589,168.922 91.642,170.987 89.912,172.673 C89.112,173.451 88.233,174.101 87.134,174.175 C85.535,174.285 83.911,174.346 82.322,174.186 C80.812,174.033 80.085,173.216 79.945,171.714 C79.822,170.39 79.72,169.01 79.95,167.714 C80.37,165.335 81.547,163.363 83.785,162.17 C84.413,161.835 84.991,161.403 85.575,161.026 C85.916,160.129 85.466,159.382 85.123,158.704 C84.003,156.501 83.414,154.192 83.391,151.728 C83.388,151.563 83.272,151.399 83.151,151.085 C82.753,150.955 82.269,150.737 81.763,150.642 C78.669,150.054 75.705,149.035 72.79,147.885 C68.411,146.16 64.468,143.714 61.003,140.517 C54.506,134.521 49.028,127.682 44.369,120.19 C43.192,118.299 42.323,116.214 41.332,114.209 C40.938,113.415 40.595,112.596 40.163,111.64 C39.688,111.754 39.236,111.77 38.882,111.962 C36.931,113.028 34.792,113.155 32.648,113.396 C29.396,113.762 26.232,113.484 23.063,112.704 C20.31,112.026 17.87,110.779 15.603,109.133 C14.733,108.502 13.865,107.93 12.817,107.572 C11.904,107.26 11.045,106.703 10.262,106.118 C9.364,105.445 8.415,105.099 7.304,105.002 C5.435,104.839 3.574,104.588 1.714,104.348 C1.374,104.304 1.009,104.193 0.733,104.002 C0.564,103.885 0.496,103.559 0.475,103.319 C0.463,103.188 0.619,102.946 0.741,102.914 C1.334,102.753 1.937,102.59 2.546,102.538 C3.076,102.493 3.617,102.616 4.154,102.628 C4.618,102.638 5.136,102.529 5.127,101.977 C5.122,101.593 4.917,101.08 4.625,100.859 C3.771,100.212 2.823,99.69 1.923,99.103 C1.549,98.858 1.18,98.596 0.851,98.297 C0.503,97.981 0.248,97.487 0.581,97.129 C0.83,96.861 1.386,96.715 1.766,96.773 C2.274,96.848 2.754,97.155 3.229,97.396 C3.699,97.635 4.147,97.916 4.56,98.153 C5.14,97.788 4.801,97.457 4.64,97.221 C4.037,96.334 3.381,95.484 2.754,94.612 C2.201,93.841 2.218,93.131 3.043,92.462 C5.193,93.262 6.005,95.435 7.474,96.933 C8.08,96.531 7.741,96.118 7.638,95.764 C7.238,94.392 6.774,93.038 6.403,91.659 C6.285,91.22 6.471,90.755 6.996,90.611 C7.487,90.477 7.91,90.695 8.129,91.11 C8.545,91.899 8.896,92.724 9.256,93.541 C9.721,94.592 10.167,95.65 10.7,96.886 C11.415,96.395 11.606,95.862 11.649,95.256 C11.718,94.273 11.723,93.284 11.848,92.309 C11.882,92.03 12.21,91.626 12.455,91.585 C12.683,91.547 13.138,91.866 13.217,92.116 C13.682,93.579 14.019,95.114 13.483,96.594 C12.976,97.993 12.856,99.359 13.143,100.79 L13.161,101.058 C12.645,103.612 14.187,104.946 16.006,106.332 C19.157,108.727 22.602,110.329 26.515,110.773 C30.716,111.25 34.905,111.277 39.181,109.21 Z" id="Fill-79" fill="#4F251F"></path>
                <path d="M91.198,95.486 C90.629,95.529 89.991,95.459 89.432,95.638 C85.191,96.996 80.962,98.395 76.741,99.813 C76.407,99.926 76.157,100.289 75.727,100.657 C77.917,101.442 79.903,101.775 81.986,101.505 C85.265,101.08 88.03,99.469 90.727,97.729 C91.47,97.25 91.619,96.45 91.198,95.486 Z M72.036,101.749 C71.861,103.344 72.077,104.845 73.042,106.272 C74.288,108.118 75.318,110.087 76.809,111.791 C78.961,114.25 81.204,116.232 84.804,115.34 C85.317,115.212 85.871,115.218 86.407,115.212 C87.689,115.201 88.889,114.861 90.015,114.287 C91.209,113.677 92.445,113.11 93.534,112.342 C96.498,110.247 98.167,107.438 97.912,103.688 C97.815,102.26 97.668,100.833 97.615,99.403 C97.554,97.772 97.137,96.25 96.461,94.733 C95.559,94.517 94.709,94.538 93.809,95.001 C93.644,95.69 93.371,96.372 93.343,97.064 C93.304,97.988 92.837,98.587 92.14,99.026 C91.005,99.739 89.815,100.36 88.672,101.058 C86.08,102.641 83.245,103.385 80.241,103.299 C78.112,103.239 75.962,103.034 74.255,101.454 C73.492,100.747 72.784,101.153 72.036,101.749 Z M99.939,101.562 C99.979,102.098 100.012,102.634 100.061,103.169 C100.528,108.234 98.422,111.971 94.21,114.673 C91.361,116.501 88.315,117.426 84.906,117.737 C81.753,118.024 79.171,117.592 76.827,115.317 C75.273,113.809 73.968,112.141 72.72,110.415 C71.938,109.333 71.415,108.069 70.679,106.949 C69.962,105.858 69.661,104.688 69.583,103.41 C69.45,101.236 69.176,100.883 71.807,99.764 C77.325,97.417 82.965,95.374 88.755,93.808 C91.074,93.18 93.5,92.945 95.882,92.556 C97.614,92.273 98.48,92.867 98.914,94.68 C99.461,96.959 99.802,99.237 99.939,101.562 Z" id="Fill-80" fill="#4F251F"></path>
                <path d="M56.868,90.383 C57.319,90.011 57.561,89.74 57.862,89.575 C59.748,88.543 61.665,89.189 62.467,91.146 C63.167,92.851 63.034,94.651 62.805,96.407 C62.655,97.569 61.563,98.328 60.316,98.464 C59.132,98.593 58.211,98.182 57.67,97.1 C57.392,96.547 57.134,95.967 56.983,95.37 C56.569,93.723 56.098,92.138 54.688,90.998 C54.391,90.759 54.287,90.224 54.208,89.804 C54.17,89.598 54.336,89.257 54.517,89.135 C54.7,89.012 55.084,88.977 55.257,89.09 C55.768,89.423 56.219,89.85 56.868,90.383" id="Fill-81" fill="#4F251F"></path>
                <path d="M105.932,80.809 C106.051,81.413 106.262,82.188 106.341,82.975 C106.41,83.674 106.442,84.411 106.301,85.091 C105.874,87.152 103.7,88.242 101.77,87.406 C101.457,87.27 101.139,87.032 100.944,86.756 C99.99,85.415 99.45,83.925 99.637,82.259 C99.771,81.075 101.241,79.595 102.455,79.372 C102.972,79.277 103.507,79.284 104.152,79.236 C104.591,78.565 105.032,77.801 105.574,77.119 C105.742,76.907 106.242,76.767 106.489,76.86 C106.73,76.952 107.037,77.435 106.979,77.657 C106.713,78.672 106.328,79.656 105.932,80.809" id="Fill-82" fill="#4F251F"></path>
                <path d="M112.441,46.751 C112.403,46.05 112.445,45.249 112.287,44.492 C112.187,44.007 111.895,43.423 111.504,43.167 C110.696,42.635 109.783,42.244 108.876,41.885 C108.006,41.54 107.142,41.035 105.908,41.317 C107.293,43.338 108.656,45.157 110.569,46.489 C111.072,46.84 111.613,47.221 112.441,46.751 Z M104.015,39.755 C104.543,39.122 105.159,38.832 105.928,38.977 C108.227,39.408 110.39,40.23 112.422,41.371 C113.31,41.869 113.933,42.67 114.076,43.696 C114.236,44.839 114.371,46.002 114.332,47.15 C114.287,48.461 113.192,49.227 111.913,48.948 C110.576,48.657 109.375,48.012 108.441,47.037 C107.21,45.751 106.057,44.381 104.961,42.977 C104.237,42.05 103.952,40.923 104.015,39.755 Z" id="Fill-83" fill="#4F251F"></path>
                <path d="M67.712,129.254 C67.403,131.739 68.185,133.673 68.938,135.598 C69.006,135.773 69.507,135.778 69.891,135.887 C70.349,133.282 69.564,131.28 67.712,129.254 Z M65.887,129.373 C65.852,128.213 65.778,127.051 65.795,125.891 C65.805,125.211 66.571,124.815 67.168,125.182 C67.607,125.45 68.074,125.793 68.33,126.223 C69.334,127.91 70.324,129.612 71.198,131.37 C71.935,132.85 71.908,134.501 71.759,136.101 C71.657,137.215 70.258,138.041 69.119,137.803 C67.963,137.562 67.203,136.865 66.94,135.702 C66.472,133.613 65.792,131.557 65.887,129.373 Z" id="Fill-84" fill="#4F251F"></path>
                <path d="M45.006,60.521 C47.424,58.99 47.999,57.695 47.692,54.531 C46.278,55.942 45.375,57.497 44.892,59.293 C44.799,59.635 44.955,60.046 45.006,60.521 Z M49.895,51.224 C50.002,51.407 50.179,51.568 50.164,51.709 C49.918,53.828 49.681,55.95 49.37,58.06 C49.149,59.56 48.181,60.66 47.061,61.559 C46.544,61.973 45.791,62.208 45.117,62.288 C43.921,62.431 43.046,61.645 42.993,60.412 C42.963,59.718 43.027,58.948 43.306,58.327 C44.408,55.858 45.958,53.679 48.001,51.895 C48.502,51.456 49.101,50.935 49.895,51.224 Z" id="Fill-85" fill="#4F251F"></path>
                <path d="M92.676,49.344 C93.136,51.658 94.067,53.207 95.428,54.497 C95.96,55.002 96.458,55.784 97.427,55.405 C97.54,53.779 97.558,53.768 97.021,52.91 C96.068,51.39 94.891,50.123 92.676,49.344 Z M91.137,46.863 C91.999,47.151 92.58,47.364 93.173,47.541 C95.921,48.355 97.692,50.273 98.985,52.711 C99.231,53.176 99.393,53.707 99.484,54.226 C99.664,55.231 99.607,56.28 98.679,56.876 C97.715,57.494 96.618,57.443 95.674,56.731 C95.039,56.25 94.415,55.722 93.904,55.115 C92.194,53.087 91.316,50.679 90.919,48.086 C90.871,47.769 91.032,47.418 91.137,46.863 Z" id="Fill-86" fill="#4F251F"></path>
                <path d="M103.102,130.397 C101.781,132.931 101.844,135.262 102.754,137.763 C103.898,137.181 103.864,136.214 103.849,135.397 C103.817,133.785 104.239,132.074 103.102,130.397 Z M103.859,128.559 C104.457,129.503 104.887,130.548 105.024,131.713 C105.15,132.771 105.281,133.831 105.441,134.885 C105.621,136.071 105.397,137.199 104.925,138.267 C104.246,139.803 102.6,140.076 101.478,138.834 C101.136,138.456 100.853,137.943 100.743,137.448 C100.129,134.666 100.415,131.969 101.734,129.421 C102.156,128.605 102.909,128.406 103.859,128.559 Z" id="Fill-87" fill="#4F251F"></path>
                <path d="M117.564,110.419 C117.303,112.145 117.628,113.426 118.306,114.616 C118.442,114.856 118.807,114.968 119.289,115.286 C119.224,113.373 119.697,111.612 117.564,110.419 Z M116.286,107.571 C118.121,108.199 119.306,109.362 120.354,110.687 C120.563,110.95 120.708,111.32 120.744,111.655 C120.875,112.888 120.996,114.126 121.025,115.365 C121.047,116.275 120.471,116.821 119.56,116.932 C118.494,117.062 117.592,116.755 117.097,115.766 C116.705,114.977 116.29,114.145 116.167,113.291 C115.938,111.72 115.899,110.119 115.825,108.527 C115.814,108.299 116.041,108.061 116.286,107.571 Z" id="Fill-88" fill="#4F251F"></path>
            </g>
        </g>
    </g>
</svg>