<?xml version="1.0" encoding="UTF-8"?>
<svg width="146px" height="169px" viewBox="0 0 146 169" version="1.1" xmlns="http://www.w3.org/2000/svg" xmlns:xlink="http://www.w3.org/1999/xlink">
    <!-- Generator: Sketch 49.3 (51167) - http://www.bohemiancoding.com/sketch -->
    <title>avatar6</title>
    <desc>Created with Sketch.</desc>
    <defs></defs>
    <g id="Page-1" stroke="none" stroke-width="1" fill="none" fill-rule="evenodd">
        <g id="114523-OOP5HG-503" transform="translate(-175.000000, -217.000000)">
            <g id="avatar6" transform="translate(174.000000, 216.000000)">
                <path d="M143.459,109.688 C143.395,109.415 143.094,109.199 142.822,108.857 C141.889,108.857 140.92,108.797 139.963,108.876 C139.223,108.938 138.504,109.274 137.764,109.315 C135.086,109.465 132.393,109.606 129.795,110.248 C127.449,110.826 125.107,110.802 122.746,110.809 C120.592,110.815 118.436,110.785 116.283,110.815 C112.727,110.867 109.176,110.91 105.742,109.744 C105.342,109.607 104.896,109.59 104.469,109.541 C99.648,108.986 95.375,106.858 91.299,104.487 C87.967,102.549 84.965,100.033 81.869,97.701 C80.22,96.458 78.923,94.869 78,93 C77.473,91.936 77.076,90.863 77.571,89.611 C77.813,89.813 78.034,89.909 78.104,90.071 C79.402,93.135 81.467,95.543 84.217,97.4 C86.447,98.906 88.588,100.552 90.857,101.993 C94.691,104.426 98.805,106.261 103.256,107.268 C108.094,108.362 112.961,109.114 117.959,108.813 C120.32,108.668 122.697,108.824 125.066,108.774 C126.133,108.752 127.209,108.633 128.256,108.429 C132.471,107.609 136.746,107.292 141,106.799 C141.373,106.755 141.732,106.583 142.281,106.414 C141.912,105.746 141.721,105.248 141.402,104.851 C139.896,102.962 137.904,101.702 135.828,100.523 C130.379,97.43 124.332,96.229 118.277,95.379 C114.113,94.795 109.963,94.192 105.893,93.204 C102.559,92.395 99.172,91.508 96.076,90.08 C89.777,87.176 85.541,81.938 82.238,76.061 C79.979,72.044 78.348,67.671 76.481,63.437 C76.095,62.56 75.84,61.607 75.648,60.663 C75.113,58.03 74.754,55.358 74.121,52.75 C73.404,49.797 73.055,46.828 73.082,43.8 C73.09,42.834 72.982,41.866 72.91,40.9 C72.759,38.867 72.498,36.836 72.461,34.802 C72.376,30.178 72.549,25.559 71.81,20.951 C71.205,17.197 69.818,13.751 68.482,10.198 C67.684,10.244 67.047,10.255 66.419,10.332 C66.24,10.354 66.086,10.569 65.704,10.86 C65.805,12.837 65.896,14.974 66.033,17.106 C66.177,19.359 66.525,21.609 66.506,23.857 C66.439,31.07 66.25,38.284 66.085,45.496 C66.074,45.988 65.878,46.477 65.769,46.966 C64.646,34.841 65.137,22.691 64.208,10.79 C62.237,9.879 60.514,9.081 58.697,8.239 C58.523,8.341 58.193,8.446 57.991,8.669 C55.598,11.3 53.347,14.04 51.559,17.135 C48.592,22.271 45.891,27.52 44.171,33.23 C43.707,34.773 43.013,36.246 42.511,37.779 C42.014,39.307 41.636,40.873 41.174,42.412 C41.114,42.616 40.864,42.763 40.374,43.283 C40.533,42.081 40.573,41.345 40.732,40.633 C42.382,33.274 44.215,26.021 48.125,19.4 C50.822,14.834 53.463,10.325 57.816,6.987 C57.322,5.991 56.867,5.08 56.399,4.14 C55.274,4.551 54.394,5.029 53.459,5.183 C51.359,5.532 49.687,6.66 47.969,7.785 C46.149,8.978 44.587,10.412 43.153,12.047 C40.585,14.977 38.127,17.954 36.809,21.699 C36.667,22.102 36.448,22.483 36.22,22.848 C33.682,26.919 32.146,31.374 31.134,36.035 C30.836,37.401 30.411,38.745 30.175,40.121 C29.539,43.829 28.91,47.542 28.396,51.27 C27.942,54.554 28.476,57.96 27.187,61.147 C27.11,61.336 27.144,61.574 27.155,61.789 C27.425,66.833 26.926,71.92 27.982,76.918 C28.316,78.496 28.812,80.041 29.106,81.623 C29.92,85.991 31.559,90.097 33.274,94.141 C34.778,97.687 36.723,101.05 38.52,104.471 C38.916,105.223 39.477,105.897 40.014,106.566 C43.448,110.843 46.827,115.166 50.373,119.348 C52.033,121.307 53.891,123.152 55.896,124.753 C59.258,127.434 62.835,129.844 66.272,132.436 C67.749,133.549 69.293,134.494 71.035,135.106 C76.309,136.958 81.531,138.917 87.098,139.854 C90.514,140.431 93.898,140.853 97.355,140.782 C99.508,140.74 101.666,140.862 103.816,140.762 C105.637,140.678 107.445,140.386 109.258,140.172 C109.787,140.108 110.313,139.999 110.84,139.914 C114.447,139.338 118.078,138.88 121.656,138.161 C127.361,137.014 131.809,133.658 135.826,129.648 C135.896,129.578 135.811,129.351 135.783,129.063 C134.295,129.816 132.93,130.661 131.453,131.213 C129.652,131.886 127.75,132.283 125.908,132.854 C124.246,133.367 122.564,133.604 120.822,133.525 C120.08,133.493 119.266,133.46 118.594,133.717 C117.334,134.198 116.061,134.155 114.773,134.158 C111.973,134.165 109.168,134.066 106.373,134.176 C101.396,134.37 96.5,133.8 91.652,132.779 C87.664,131.938 83.572,131.463 79.844,129.617 C79.179,129.288 78.424,129.083 77.688,128.964 C75.09,128.545 72.734,127.575 70.555,126.108 C69.574,125.45 68.521,124.897 67.486,124.321 C63.417,122.051 59.707,119.318 56.514,115.902 C55.78,115.116 55.036,114.3 54.158,113.697 C50.82,111.404 48.892,108.084 47.299,104.512 C47.11,104.09 47.166,103.559 47.046,102.554 C47.719,103.265 48.089,103.52 48.276,103.872 C50.432,107.959 53.83,110.875 57.208,113.918 C61.318,117.62 65.657,120.891 70.494,123.561 C73.143,125.022 75.75,126.493 78.802,126.933 C79.328,127.008 79.862,127.165 80.346,127.388 C83.904,129.042 87.744,129.622 91.543,130.356 C95.986,131.218 100.449,131.816 105,131.666 C108.121,131.562 111.248,131.675 114.371,131.615 C115.539,131.594 116.705,131.352 117.875,131.23 C118.834,131.132 119.795,130.987 120.754,130.996 C122.275,131.008 123.754,130.881 125.199,130.368 C126.414,129.937 127.637,129.509 128.887,129.217 C132.447,128.384 135.391,126.524 137.994,124.016 C138.762,123.276 139.654,122.648 140.553,122.068 C141.785,121.276 142.566,120.194 143.121,118.854 C144.369,115.828 144.189,112.77 143.459,109.688" id="Fill-4" fill="#FFCF24"></path>
                <path d="M83.984,142.273 C85.373,142.416 86.416,142.524 87.566,142.642 C87.887,144.263 88.463,145.808 88.439,147.344 C88.393,150.176 89.135,152.819 89.646,155.548 C90.094,157.926 89.74,160.452 89.74,162.791 C87.627,165.183 84.818,165.652 82.127,166.29 C80.06,166.779 77.939,167.31 75.834,166.359 C75.348,166.14 74.83,165.964 74.39,165.673 C73.057,164.792 73.165,162.562 74.648,161.966 C76.535,161.21 78.485,160.588 80.447,160.056 C81.883,159.665 83.385,159.514 84.855,159.255 C86.156,159.025 86.561,158.646 86.633,157.4 C86.818,154.266 86.514,151.192 85.365,148.234 C84.668,146.44 84.039,144.623 83.984,142.273" id="Fill-5" fill="#95B624"></path>
                <path d="M106.42,143.738 C107.104,143.475 107.393,143.295 107.693,143.264 C108.221,143.209 108.756,143.248 109.34,143.248 C109.5,143.494 109.68,143.751 109.838,144.021 C110.402,144.995 110.406,146.066 110.414,147.149 C110.426,149.075 110.342,150.986 110.924,152.897 C111.256,153.987 111.111,155.247 111.057,156.425 C110.973,158.17 111.801,159.275 113.305,159.971 C114.086,160.331 114.859,160.752 115.684,160.962 C117.457,161.417 118.584,162.752 119.867,163.869 C120.371,164.307 120.076,165.306 119.387,165.373 C118.012,165.509 116.578,165.724 115.25,165.472 C113.582,165.154 111.98,164.441 110.379,163.823 C109.162,163.354 108.457,162.401 108.555,161.074 C108.885,156.514 107.816,152.107 107.127,147.659 C106.932,146.406 106.68,145.161 106.42,143.738" id="Fill-6" fill="#95B624"></path>
                <path d="M67.398,7.789 C63.809,8.525 61.121,7.978 59.389,4.905 C59.605,4.047 60.204,3.7 61,3.642 C61.419,3.611 61.854,3.72 62.265,3.653 C63.071,3.522 63.884,2.782 64.673,3.449 C65.467,4.122 66.192,4.914 66.796,5.761 C67.13,6.231 67.156,6.921 67.398,7.789" id="Fill-7" fill="#D99724"></path>
                <path d="M42.988,77.145 C43.459,77.509 43.956,77.864 44.421,78.258 C48.252,81.498 53.3,81.902 57.555,79.34 C58.713,78.643 59.537,77.686 59.999,76.448 C60.407,75.353 60.695,74.211 61.122,72.809 C62.175,72.362 63.435,71.829 64.872,71.221 C65.228,71.794 65.674,72.264 65.833,72.815 C66.457,74.969 67.29,77.057 67.243,79.39 C67.204,81.349 66.586,82.92 65.234,84.292 C61.986,87.59 58.097,89.391 53.438,89.339 C51.945,89.322 50.435,89.226 48.969,88.963 C47.332,88.667 46.084,87.754 45.16,86.266 C43.603,83.764 42.264,81.238 42.505,78.169 C42.521,77.96 42.58,77.752 42.645,77.55 C42.673,77.466 42.766,77.401 42.988,77.145" id="Fill-8" fill="#DB2738"></path>
                <path d="M58.342,74.211 C58.234,75.967 57.375,77.133 55.774,77.935 C52.088,79.781 47.99,79.22 45.094,76.331 C44.896,76.135 44.853,75.783 44.734,75.493 C45.005,75.425 45.238,75.284 45.412,75.337 C48.791,76.365 52.012,75.512 55.222,74.532 C56.219,74.229 57.168,73.547 58.342,74.211" id="Fill-9" fill="#FFFFFF"></path>
                <path d="M67.398,7.789 C67.156,6.921 67.13,6.231 66.796,5.761 C66.192,4.914 65.467,4.122 64.673,3.449 C63.884,2.782 63.071,3.522 62.265,3.653 C61.854,3.72 61.419,3.611 61,3.642 C60.204,3.7 59.605,4.047 59.389,4.905 C61.121,7.978 63.809,8.525 67.398,7.789 Z M106.42,143.738 C106.68,145.161 106.932,146.406 107.127,147.659 C107.816,152.107 108.885,156.514 108.555,161.074 C108.457,162.401 109.162,163.354 110.379,163.823 C111.98,164.441 113.582,165.154 115.25,165.472 C116.578,165.724 118.012,165.509 119.387,165.373 C120.076,165.306 120.371,164.307 119.867,163.869 C118.584,162.752 117.457,161.417 115.684,160.962 C114.859,160.752 114.086,160.331 113.305,159.971 C111.801,159.275 110.973,158.17 111.057,156.425 C111.111,155.247 111.256,153.987 110.924,152.897 C110.342,150.986 110.426,149.075 110.414,147.149 C110.406,146.066 110.402,144.995 109.838,144.021 C109.68,143.751 109.5,143.494 109.34,143.248 C108.756,143.248 108.221,143.209 107.693,143.264 C107.393,143.295 107.104,143.475 106.42,143.738 Z M83.984,142.273 C84.039,144.623 84.668,146.44 85.365,148.234 C86.514,151.192 86.818,154.266 86.633,157.4 C86.561,158.646 86.156,159.025 84.855,159.255 C83.385,159.514 81.883,159.665 80.447,160.056 C78.485,160.588 76.535,161.21 74.648,161.966 C73.165,162.562 73.057,164.792 74.39,165.673 C74.83,165.964 75.348,166.14 75.834,166.359 C77.939,167.31 80.06,166.779 82.127,166.29 C84.818,165.652 87.627,165.183 89.74,162.791 C89.74,160.452 90.094,157.926 89.646,155.548 C89.135,152.819 88.393,150.176 88.439,147.344 C88.463,145.808 87.887,144.263 87.566,142.642 C86.416,142.524 85.373,142.416 83.984,142.273 Z M47.046,102.554 C47.719,103.265 48.089,103.52 48.276,103.872 C50.432,107.959 53.83,110.875 57.208,113.918 C61.318,117.62 65.657,120.891 70.494,123.561 C73.143,125.022 75.75,126.493 78.802,126.933 C79.328,127.008 79.862,127.165 80.346,127.388 C83.904,129.042 87.744,129.622 91.543,130.356 C95.986,131.218 100.449,131.816 105,131.666 C108.121,131.562 111.248,131.675 114.371,131.615 C115.539,131.594 116.705,131.352 117.875,131.23 C118.834,131.132 119.795,130.987 120.754,130.996 C122.275,131.008 123.754,130.881 125.199,130.368 C126.414,129.937 127.637,129.509 128.887,129.217 C132.447,128.384 135.391,126.524 137.994,124.016 C138.762,123.276 139.654,122.648 140.553,122.068 C141.785,121.276 142.566,120.194 143.121,118.854 C144.369,115.828 144.189,112.77 143.459,109.688 C143.395,109.415 143.094,109.199 142.822,108.857 C141.889,108.857 140.92,108.797 139.963,108.876 C139.223,108.938 138.504,109.274 137.764,109.315 C135.086,109.465 132.393,109.606 129.795,110.248 C127.449,110.826 125.107,110.802 122.746,110.809 C120.592,110.815 118.436,110.785 116.283,110.815 C112.727,110.867 109.176,110.91 105.742,109.744 C105.342,109.607 104.896,109.59 104.469,109.541 C99.648,108.986 95.375,106.858 91.299,104.487 C87.967,102.549 84.965,100.033 81.869,97.701 C80.22,96.458 78.923,94.869 78,93 C77.473,91.936 77.076,90.863 77.571,89.611 C77.813,89.813 78.034,89.909 78.104,90.071 C79.402,93.135 81.467,95.543 84.217,97.4 C86.447,98.906 88.588,100.552 90.857,101.993 C94.691,104.426 98.805,106.261 103.256,107.268 C108.094,108.362 112.961,109.114 117.959,108.813 C120.32,108.668 122.697,108.824 125.066,108.774 C126.133,108.752 127.209,108.633 128.256,108.429 C132.471,107.609 136.746,107.292 141,106.799 C141.373,106.755 141.732,106.583 142.281,106.414 C141.912,105.746 141.721,105.248 141.402,104.851 C139.896,102.962 137.904,101.702 135.828,100.523 C130.379,97.43 124.332,96.229 118.277,95.379 C114.113,94.795 109.963,94.192 105.893,93.204 C102.559,92.395 99.172,91.508 96.076,90.08 C89.777,87.176 85.541,81.938 82.238,76.061 C79.979,72.044 78.348,67.671 76.481,63.437 C76.095,62.56 75.84,61.607 75.648,60.663 C75.113,58.03 74.754,55.358 74.121,52.75 C73.404,49.797 73.055,46.828 73.082,43.8 C73.09,42.834 72.982,41.866 72.91,40.9 C72.759,38.867 72.498,36.836 72.461,34.802 C72.376,30.178 72.549,25.559 71.81,20.951 C71.205,17.197 69.818,13.751 68.482,10.198 C67.684,10.244 67.047,10.255 66.419,10.332 C66.24,10.354 66.086,10.569 65.704,10.86 C65.805,12.837 65.896,14.974 66.033,17.106 C66.177,19.359 66.525,21.609 66.506,23.857 C66.439,31.07 66.25,38.284 66.085,45.496 C66.074,45.988 65.878,46.477 65.769,46.966 C64.646,34.841 65.137,22.691 64.208,10.79 C62.237,9.879 60.514,9.081 58.697,8.239 C58.523,8.341 58.193,8.446 57.991,8.669 C55.598,11.3 53.347,14.04 51.559,17.135 C48.592,22.271 45.891,27.52 44.171,33.23 C43.707,34.773 43.013,36.246 42.511,37.779 C42.014,39.307 41.636,40.873 41.174,42.412 C41.114,42.616 40.864,42.763 40.374,43.283 C40.533,42.081 40.573,41.345 40.732,40.633 C42.382,33.274 44.215,26.021 48.125,19.4 C50.822,14.834 53.463,10.325 57.816,6.987 C57.322,5.991 56.867,5.08 56.399,4.14 C55.274,4.551 54.394,5.029 53.459,5.183 C51.359,5.532 49.687,6.66 47.969,7.785 C46.149,8.978 44.587,10.412 43.153,12.047 C40.585,14.977 38.127,17.954 36.809,21.699 C36.667,22.102 36.448,22.483 36.22,22.848 C33.682,26.919 32.146,31.374 31.134,36.035 C30.836,37.401 30.411,38.745 30.175,40.121 C29.539,43.829 28.91,47.542 28.396,51.27 C27.942,54.554 28.476,57.96 27.187,61.147 C27.11,61.336 27.144,61.574 27.155,61.789 C27.425,66.833 26.926,71.92 27.982,76.918 C28.316,78.496 28.812,80.041 29.106,81.623 C29.92,85.991 31.559,90.097 33.274,94.141 C34.778,97.687 36.723,101.05 38.52,104.471 C38.916,105.223 39.477,105.897 40.014,106.566 C43.448,110.843 46.827,115.166 50.373,119.348 C52.033,121.307 53.891,123.152 55.896,124.753 C59.258,127.434 62.835,129.844 66.272,132.436 C67.749,133.549 69.293,134.494 71.035,135.106 C76.309,136.958 81.531,138.917 87.098,139.854 C90.514,140.431 93.898,140.853 97.355,140.782 C99.508,140.74 101.666,140.862 103.816,140.762 C105.637,140.678 107.445,140.386 109.258,140.172 C109.787,140.108 110.313,139.999 110.84,139.914 C114.447,139.338 118.078,138.88 121.656,138.161 C127.361,137.014 131.809,133.658 135.826,129.648 C135.896,129.578 135.811,129.351 135.783,129.063 C134.295,129.816 132.93,130.661 131.453,131.213 C129.652,131.886 127.75,132.283 125.908,132.854 C124.246,133.367 122.564,133.604 120.822,133.525 C120.08,133.493 119.266,133.46 118.594,133.717 C117.334,134.198 116.061,134.155 114.773,134.158 C111.973,134.165 109.168,134.066 106.373,134.176 C101.396,134.37 96.5,133.8 91.652,132.779 C87.664,131.938 83.572,131.463 79.844,129.617 C79.179,129.288 78.424,129.083 77.688,128.964 C75.09,128.545 72.734,127.575 70.555,126.108 C69.574,125.45 68.521,124.897 67.486,124.321 C63.417,122.051 59.707,119.318 56.514,115.902 C55.78,115.116 55.036,114.3 54.158,113.697 C50.82,111.404 48.892,108.084 47.299,104.512 C47.11,104.09 47.166,103.559 47.046,102.554 Z M86.887,78.242 C90.305,77.077 92.01,74.539 92.867,71.418 C94.109,66.903 93.994,62.265 93.725,57.635 C93.713,57.434 93.57,57.238 93.432,56.901 C92.432,56.186 90.904,55.987 90.221,54.563 C90.057,54.221 89.299,54.181 88.83,53.968 C87.77,53.486 86.688,53.037 85.684,52.454 C85.443,52.314 85.299,51.624 85.43,51.332 C85.557,51.055 86.098,50.835 86.463,50.827 C86.961,50.814 87.465,51.024 88.205,51.193 C87.488,49.455 86.832,47.933 86.25,46.384 C86.174,46.179 86.396,45.728 86.609,45.582 C86.818,45.439 87.26,45.428 87.482,45.558 C87.836,45.766 88.148,46.104 88.379,46.452 C88.793,47.079 89.08,47.793 89.52,48.399 C89.998,49.061 90.473,49.803 91.697,49.831 C91.424,48.94 91.176,48.15 90.939,47.356 C90.633,46.333 90.271,45.317 90.076,44.271 C90.021,43.98 90.404,43.424 90.711,43.301 C91.006,43.184 91.594,43.353 91.818,43.604 C92.234,44.066 92.527,44.661 92.785,45.238 C93.348,46.492 93.857,47.769 94.594,49.528 C95.035,48.252 94.9,47.429 94.938,46.644 C94.98,45.783 94.934,44.918 95.004,44.06 C95.064,43.325 95.184,42.585 95.383,41.879 C95.445,41.657 95.854,41.405 96.105,41.402 C96.363,41.398 96.785,41.63 96.859,41.85 C97.092,42.552 97.23,43.292 97.342,44.027 C97.496,45.042 97.195,46.124 97.719,47.185 C99.299,46.458 98.883,44.656 99.979,43.494 C100.293,43.782 100.732,43.984 100.795,44.269 C101.66,48.202 100.479,51.705 98.436,55.009 C98.324,55.188 98.18,55.385 98,55.479 C95.711,56.701 95.592,58.761 95.682,61.022 C95.822,64.566 96.037,68.123 95.088,71.624 C94.129,75.158 92.641,78.278 89.201,80.067 C89.023,80.16 88.904,80.372 88.748,80.538 C88.527,81.29 89.102,81.724 89.514,82.146 C92.869,85.584 96.629,88.382 101.422,89.504 C105.504,90.459 109.58,91.443 113.658,92.414 C113.867,92.464 114.078,92.549 114.289,92.548 C117.547,92.526 120.662,93.439 123.84,93.959 C129.453,94.877 134.637,96.839 139.418,99.871 C143.957,102.748 146.008,106.987 146.352,112.3 C146.658,117.058 145.166,121.103 142.629,125.033 C139.961,129.165 136.813,132.736 132.883,135.689 C128.924,138.666 124.592,140.604 119.666,141.284 C117.123,141.636 114.615,142.227 112.002,142.724 C112.396,147.642 112.781,152.41 113.166,157.186 C113.668,158.139 114.637,158.468 115.551,158.68 C117.768,159.193 119.287,160.737 120.973,162.062 C122.137,162.977 122.475,164.169 122.092,165.512 C121.693,166.909 120.578,167.621 119.197,167.694 C117.59,167.779 115.926,167.894 114.375,167.569 C112.498,167.176 110.666,166.443 108.906,165.655 C107.463,165.008 106.607,163.729 106.383,162.129 C106.277,161.384 106.242,160.623 106.256,159.871 C106.357,154.558 105.154,149.402 104.49,144.339 C103.703,143.424 102.791,143.627 101.957,143.622 C98.086,143.602 94.217,143.612 90.117,143.612 C90.092,143.987 90.053,144.475 90.035,144.964 C90.031,145.061 90.125,145.158 90.154,145.261 C90.934,148.058 90.23,151.029 91.355,153.83 C92.422,156.484 91.689,159.377 91.887,162.155 C91.99,163.605 91.387,164.662 90.191,165.387 C89.189,165.993 88.174,166.602 87.109,167.079 C84.84,168.1 82.379,168.472 79.963,168.943 C77.656,169.394 75.468,168.725 73.423,167.678 C71.713,166.804 71.019,165.37 71.178,163.413 C71.329,161.551 72.344,160.387 73.949,159.803 C76.27,158.959 78.66,158.3 81.027,157.584 C82.051,157.274 83.088,157.02 84.146,156.733 C84.943,154.236 84.182,151.952 83.646,149.687 C83.057,147.184 82.299,144.719 81.521,141.905 C81.156,141.738 80.512,141.389 79.827,141.145 C76.384,139.912 72.933,138.705 69.48,137.496 C67.838,136.922 66.379,136.045 64.987,135.003 C61.371,132.292 57.629,129.743 54.1,126.927 C52.009,125.259 50.071,123.339 48.337,121.3 C44.926,117.287 41.752,113.071 38.38,109.023 C36.913,107.264 35.763,105.354 34.77,103.313 C34.113,101.961 33.389,100.635 32.634,99.334 C32.209,98.602 31.658,97.943 31.308,97.451 C28.936,97.583 26.809,97.716 24.681,97.816 C22.122,97.936 19.802,97.181 17.662,95.813 C15.672,94.54 13.68,93.267 11.69,91.993 C11.509,91.877 11.343,91.649 11.16,91.638 C8.125,91.442 6.524,88.742 4.044,87.569 C2.779,86.97 1.646,86.08 1.057,84.734 C0.922,84.428 1.001,83.825 1.225,83.621 C1.45,83.413 2.05,83.38 2.352,83.535 C3.013,83.875 3.568,84.415 4.207,84.807 C4.719,85.121 5.291,85.339 5.956,85.657 C6.226,84.592 5.661,84.054 5.271,83.461 C4.355,82.077 3.955,80.524 3.833,78.896 C3.802,78.479 3.857,78.019 4.013,77.634 C4.119,77.376 4.454,77.085 4.717,77.052 C4.974,77.021 5.441,77.234 5.521,77.449 C5.931,78.557 6.196,79.718 6.61,80.822 C6.861,81.49 7.084,82.293 8.236,82.317 C8.146,81.563 8.013,80.841 7.983,80.115 C7.934,78.944 7.899,77.768 7.988,76.604 C8.007,76.359 8.56,76.06 8.912,75.976 C9.08,75.936 9.492,76.308 9.556,76.554 C9.9,77.906 10.156,79.284 10.477,80.644 C10.594,81.141 10.81,81.614 11.061,82.326 C11.976,81.016 12.146,79.774 12.389,78.551 C12.515,77.918 12.712,77.196 13.564,77.331 C14.383,77.461 14.396,78.253 14.405,78.862 C14.416,79.606 14.263,80.355 14.156,81.099 C14.053,81.812 13.917,82.52 13.729,83.613 C14.722,82.88 15.376,82.343 16.089,81.9 C16.317,81.758 16.864,81.736 16.98,81.885 C17.214,82.181 17.413,82.672 17.331,83.01 C17.211,83.504 16.867,83.963 16.55,84.386 C15.709,85.512 14.831,86.609 13.518,87.294 C13.351,88.131 13.186,88.966 13.025,89.771 C13.15,89.992 13.217,90.221 13.367,90.353 C15.492,92.236 18.098,93.336 20.596,94.55 C23.194,95.813 26.054,95.446 28.834,95.081 C29.221,95.029 29.565,94.655 30.083,94.336 C29.677,93.007 29.362,91.649 28.855,90.366 C26.224,83.689 24.658,76.826 24.926,69.6 C25.006,67.448 24.848,65.287 24.963,63.139 C25.105,60.457 25.313,57.771 25.678,55.111 C26.277,50.741 26.99,46.385 27.723,42.034 C28.492,37.468 29.963,33.076 31.275,28.652 C31.669,27.325 32.409,26.098 33.026,24.842 C34.117,22.621 35.199,20.394 36.359,18.209 C37.012,16.979 37.722,15.755 38.572,14.659 C39.958,12.874 41.354,11.066 42.971,9.499 C45.759,6.794 48.785,4.384 52.719,3.466 C53.549,3.272 54.341,2.893 55.131,2.553 C57.439,1.561 59.926,1.35 62.358,1.026 C65.084,0.664 67.527,2.398 68.886,5.35 C69.693,7.105 70.421,8.899 71.127,10.698 C71.757,12.3 72.337,13.922 72.885,15.554 C74.194,19.466 74.65,23.528 74.83,27.618 C74.943,30.197 74.789,32.789 74.873,35.371 C74.936,37.299 75.201,39.218 75.352,41.144 C75.436,42.215 75.527,43.293 75.513,44.365 C75.479,47.075 75.807,49.719 76.476,52.354 C77.106,54.849 77.443,57.413 78.001,59.929 C78.277,61.18 78.65,62.43 79.162,63.603 C80.711,67.152 82.354,70.662 83.947,74.193 C84.617,75.678 85.406,77.07 86.887,78.242 Z" id="Fill-10" fill="#4F251F"></path>
                <path d="M58.342,74.211 C57.168,73.547 56.219,74.229 55.222,74.532 C52.012,75.512 48.791,76.365 45.412,75.337 C45.238,75.284 45.005,75.425 44.734,75.493 C44.853,75.783 44.896,76.135 45.094,76.331 C47.99,79.22 52.088,79.781 55.774,77.935 C57.375,77.133 58.234,75.967 58.342,74.211 Z M42.988,77.145 C42.766,77.401 42.673,77.466 42.645,77.55 C42.58,77.752 42.521,77.96 42.505,78.169 C42.264,81.238 43.603,83.764 45.16,86.266 C46.084,87.754 47.332,88.667 48.969,88.963 C50.435,89.226 51.945,89.322 53.438,89.339 C58.097,89.391 61.986,87.59 65.234,84.292 C66.586,82.92 67.204,81.349 67.243,79.39 C67.29,77.057 66.457,74.969 65.833,72.815 C65.674,72.264 65.228,71.794 64.872,71.221 C63.435,71.829 62.175,72.362 61.122,72.809 C60.695,74.211 60.407,75.353 59.999,76.448 C59.537,77.686 58.713,78.643 57.555,79.34 C53.3,81.902 48.252,81.498 44.421,78.258 C43.956,77.864 43.459,77.509 42.988,77.145 Z M52.402,91.878 C51.757,91.878 51.107,91.935 50.469,91.868 C47.223,91.53 44.518,90.37 42.779,87.336 C41.095,84.398 39.693,81.46 39.996,77.944 C40.286,74.58 42.528,72.63 45.871,73.234 C48.607,73.729 51.234,73.476 53.814,72.642 C57.066,71.591 60.265,70.378 63.507,69.292 C64.195,69.062 64.994,68.914 65.689,69.033 C66.241,69.127 66.994,69.579 67.176,70.057 C68.325,73.059 69.504,76.059 69.544,79.364 C69.578,82.116 68.586,84.367 66.631,86.265 C62.366,90.404 58.673,91.878 52.402,91.878 Z" id="Fill-11" fill="#4F251F"></path>
                <path d="M42.366,58.763 C42.316,59.716 41.688,60.385 40.839,60.554 C39.785,60.763 38.873,60.364 38.423,59.471 C37.867,58.365 37.88,57.203 38.284,56.075 C38.408,55.727 38.812,55.359 39.169,55.239 C41.559,53.584 42.433,57.492 42.366,58.763" id="Fill-12" fill="#4F251F"></path>
                <path d="M58.471,56.924 C58.505,56.976 58.506,56.943 58.434,56.84 L58.437,56.86 L58.471,56.924" id="Fill-13" fill="#4F251F"></path>
                <path d="M61.822,51.826 C61.297,51.155 60.75,50.49 59.884,50.304 C59.047,50.123 58.044,50.544 57.452,51.136 C56.212,52.376 56.234,54.32 56.311,55.938 C56.36,56.967 57.285,58.467 58.363,57.443 C58.508,57.306 58.535,57.1 58.471,56.924 L58.437,56.86 L58.363,56.746 L58.434,56.84 C58.415,56.78 58.398,56.705 58.395,56.597 C58.385,56.33 58.399,56.047 58.409,55.778 C58.436,54.934 58.515,54.143 58.775,53.336 C59.216,51.971 59.913,53.219 60.313,53.848 C60.854,54.695 61.088,55.703 61.145,56.699 C61.232,58.25 63.58,58.275 63.572,56.699 C63.563,54.893 62.927,53.24 61.822,51.826" id="Fill-14" fill="#4F251F"></path>
            </g>
        </g>
    </g>
</svg>