<?xml version="1.0" encoding="UTF-8"?>
<svg width="160px" height="221px" viewBox="0 0 160 221" version="1.1" xmlns="http://www.w3.org/2000/svg" xmlns:xlink="http://www.w3.org/1999/xlink">
    <!-- Generator: Sketch 49.3 (51167) - http://www.bohemiancoding.com/sketch -->
    <title>avatar11</title>
    <desc>Created with Sketch.</desc>
    <defs></defs>
    <g id="Page-2" stroke="none" stroke-width="1" fill="none" fill-rule="evenodd">
        <g id="114524-OOP7JI-483" transform="translate(-13.000000, -218.000000)">
            <g id="avatar11" transform="translate(13.000000, 218.000000)">
                <path d="M122.542,126.856 C121.806,122.128 120.359,117.634 118.694,113.182 C118.224,111.925 117.537,110.762 116.323,110.305 C114.826,109.74 113.482,108.938 112.087,108.208 C111.53,107.917 110.973,107.847 110.343,107.962 C108.19,108.354 106.553,109.364 105.81,111.533 C105.664,111.962 105.51,112.388 105.337,112.805 C105.193,113.152 105.051,113.507 104.848,113.82 C104.283,114.697 103.468,115.003 102.522,114.507 C101.397,113.916 100.351,113.171 99.286,112.468 C98.092,111.683 96.931,110.846 95.729,110.075 C94.902,109.545 94.065,109.59 93.163,110.043 C91.462,110.899 89.842,111.816 88.807,113.504 C88.614,113.818 88.321,114.079 88.048,114.339 C86.369,115.936 84.956,116.086 82.946,114.884 C82.624,114.691 82.323,114.461 82.019,114.239 C80.923,113.44 79.815,112.656 78.742,111.829 C78.115,111.345 77.428,111.047 76.656,111.106 C75.132,111.224 73.646,111.532 72.55,112.716 C71.58,113.764 70.579,114.806 69.776,115.976 C68.952,117.177 67.941,117.665 66.528,117.557 C64.635,117.411 63.086,116.548 61.685,115.351 C60.769,114.566 59.867,113.768 58.964,112.967 C58.057,112.162 56.993,111.897 55.813,112.04 C54.684,112.176 53.608,112.461 52.606,113.049 C50.907,114.049 49.279,115.115 48.059,116.711 C47.696,117.188 47.224,117.58 46.81,118.02 C45.192,119.732 44.267,119.661 42.224,118.472 C41.72,118.179 41.271,117.726 40.911,117.259 C40.036,116.13 39.229,114.947 38.395,113.788 C37.282,112.243 36.874,112.149 35.317,113.388 C34.258,114.228 33.277,115.177 32.322,116.138 C31.086,117.381 29.796,118.508 28.083,119.057 C27.745,119.165 27.462,119.443 27.173,119.631 C26.088,124.521 25.982,129.432 25.701,134.309 C25.475,138.216 25.613,142.148 25.67,146.069 C25.718,149.408 26.366,152.656 27.492,155.801 C27.72,156.438 28.106,157.029 28.257,157.68 C29.087,161.235 30.725,164.473 32.208,167.765 C33.105,169.752 34.191,171.658 35.243,173.573 C35.663,174.339 36.105,175.128 36.847,175.632 C37.05,175.479 37.231,175.415 37.273,175.302 C37.587,174.455 37.902,173.607 38.162,172.743 C38.854,170.456 40.099,168.49 41.727,166.785 C42.952,165.504 44.09,165.394 45.603,166.251 C46.123,166.546 46.599,166.931 47.061,167.316 C47.639,167.799 48.145,168.372 48.747,168.819 C49.692,169.525 50.552,170.421 51.927,170.526 C52.221,170.082 52.581,169.685 52.78,169.217 C53.567,167.372 54.825,165.846 56.251,164.519 C59.221,161.754 61.059,161.983 63.647,163.921 C64.009,164.191 64.35,164.491 64.697,164.78 C65.724,165.64 66.749,166.501 67.874,167.443 C68.55,166.698 69.147,166.032 69.751,165.374 C71.026,163.986 72.24,162.535 73.598,161.234 C75.135,159.762 76.961,159.614 78.766,160.775 C79.963,161.545 81.048,162.489 82.178,163.363 C82.833,163.868 83.435,164.454 84.131,164.892 C85.71,165.885 86.144,165.781 87.303,164.243 C87.892,163.461 88.376,162.595 89.003,161.848 C89.854,160.833 90.983,160.256 92.309,160.081 C93.612,159.909 94.416,160.706 95.199,161.546 C96.01,162.417 96.817,163.291 97.778,164.328 C99.588,162.248 102.008,161.169 104.24,159.802 C105.047,159.308 105.898,159.13 106.819,159.105 C107.726,159.081 108.455,159.347 108.883,160.189 C109.324,161.062 109.754,161.938 110.172,162.821 C110.42,163.347 110.608,163.911 111.262,164.277 C111.745,163.679 112.149,163.152 112.582,162.649 C112.972,162.194 113.319,161.646 113.812,161.344 C116.327,159.809 118.925,158.671 121.875,160.265 C122,160.333 122.168,160.32 122.4,160.357 C122.881,158.618 123.067,156.837 123.147,155.033 C123.21,153.604 123.335,152.178 123.418,150.747 C123.493,149.47 123.591,148.189 123.604,146.91 C123.632,144.12 123.56,141.328 123.625,138.54 C123.716,134.597 123.146,130.736 122.542,126.856" id="Fill-4" fill="#FFCF00"></path>
                <path d="M88.93,20.773 C89.158,21.356 89.399,21.735 89.447,22.138 C89.777,24.905 90.149,27.673 90.352,30.452 C90.762,36.094 90.948,41.754 91.468,47.387 C91.866,51.701 90.938,55.777 89.795,59.827 C88.873,63.095 87.447,66.187 85.802,69.165 C85.622,69.491 85.391,69.846 85.378,70.194 C85.367,70.521 85.525,70.99 85.771,71.151 C86.009,71.309 86.584,71.298 86.781,71.115 C87.324,70.607 87.817,70.014 88.206,69.378 C89.505,67.252 90.835,65.153 92.456,63.253 C92.748,62.91 92.995,62.52 93.202,62.12 C94.007,60.566 95.103,59.253 96.276,57.956 C97.555,56.542 98.781,55.155 100.627,54.469 C101.035,54.317 101.38,53.975 101.727,53.688 C103.492,52.228 105.567,51.41 107.874,50.553 C107.874,51.101 107.964,51.471 107.861,51.775 C106.107,56.911 104.134,61.956 101.72,66.824 C101.052,68.171 100.444,69.533 99.618,70.813 C98.453,72.621 96.866,74.014 95.408,75.523 C93.739,77.252 91.911,78.828 89.834,80.096 C89.083,80.555 88.382,80.84 87.506,80.662 C86.99,80.558 86.443,80.588 85.938,80.454 C83.629,79.848 81.307,79.969 78.968,80.207 C77.243,80.385 75.504,80.423 73.778,80.593 C70.331,80.933 66.884,81.285 63.446,81.706 C62.179,81.861 60.943,82.253 59.685,82.496 C57.769,82.865 55.84,83.172 53.927,83.558 C52.898,83.767 51.892,84.086 50.76,84.386 C48.157,83.278 45.477,82.093 42.983,80.504 C41.268,79.411 39.454,78.474 37.725,77.401 C36.381,76.568 35.07,75.676 33.798,74.736 C31.613,73.125 29.47,71.458 27.31,69.813 C26.657,69.315 25.949,68.87 25.507,67.974 C25.838,67.763 26.108,67.5 26.429,67.4 C29.942,66.307 33.563,66.129 37.18,66.461 C39.602,66.684 41.754,67.91 43.928,68.96 C47.594,70.73 51.192,72.624 54.654,74.771 C55.038,75.008 55.429,75.25 55.848,75.407 C56.471,75.643 57.299,74.946 57.184,74.293 C57.12,73.927 57.02,73.536 56.823,73.229 C56.135,72.152 55.501,71.015 54.659,70.067 C50.795,65.723 47.232,61.141 43.707,56.525 C40.205,51.939 37.469,46.921 35.207,41.632 C33.732,38.181 33.3,34.516 33.029,30.821 C32.968,29.975 33.283,29.231 33.65,28.298 C34.067,28.568 34.4,28.716 34.644,28.955 C36.317,30.588 37.939,32.274 39.636,33.881 C44.415,38.402 48.744,43.325 52.835,48.467 C54.167,50.141 54.847,52.163 55.84,54.018 C56.017,54.346 56.069,54.755 56.288,55.043 C56.504,55.327 56.832,55.616 57.161,55.695 C57.475,55.771 57.94,55.681 58.179,55.477 C58.42,55.268 58.639,54.782 58.56,54.503 C58.36,53.786 58.013,53.106 57.682,52.431 C57.252,51.551 56.778,50.691 56.33,49.82 C54.4,46.071 53.355,42.078 53.249,37.874 C53.139,33.501 53.001,29.117 53.177,24.751 C53.303,21.599 53.902,18.463 54.331,15.327 C54.545,13.759 54.871,12.207 55.11,10.642 C55.467,8.309 56.317,6.134 57.197,3.967 C57.281,3.759 57.384,3.551 57.514,3.368 C57.85,2.892 58.706,2.866 59.113,3.318 C59.264,3.485 59.405,3.669 59.509,3.868 C60.731,6.203 62.109,8.465 62.806,11.044 C63.001,11.771 63.218,12.499 63.509,13.19 C66.182,19.531 68.046,26.128 69.736,32.781 C70.553,35.997 71.396,39.205 72.181,42.426 C72.77,44.84 73.306,47.268 73.819,49.696 C73.907,50.116 73.753,50.58 73.743,51.026 C73.735,51.395 73.67,51.818 73.823,52.122 C73.967,52.408 74.336,52.662 74.656,52.749 C74.877,52.809 75.26,52.629 75.434,52.435 C76.018,51.781 76.214,50.913 76.112,50.108 C75.856,48.088 76.498,46.232 76.913,44.321 C77.8,40.237 79.239,36.353 81.301,32.732 C82.715,30.251 83.976,27.669 85.751,25.394 C86.535,24.389 87.107,23.22 87.808,22.147 C88.09,21.716 88.46,21.342 88.93,20.773" id="Fill-5" fill="#72C229"></path>
                <path d="M44.72,117.211 C43.542,117.066 42.9,116.607 42.39,115.895 C41.557,114.732 40.702,113.586 39.829,112.453 C39.509,112.038 39.149,111.64 38.747,111.309 C37.779,110.514 36.676,110.334 35.601,111.005 C34.647,111.599 33.742,112.294 32.898,113.037 C31.88,113.932 30.961,114.938 29.977,115.871 C29.44,116.381 28.936,116.977 28.025,116.988 C27.849,115.734 28.298,114.588 28.649,113.466 C29.801,109.792 31.415,106.3 32.999,102.799 C33.122,102.527 33.278,102.253 33.481,102.041 C34.68,100.792 35.851,99.513 37.125,98.344 C37.949,97.59 38.923,96.997 39.844,96.352 C41.767,95.005 43.95,95.014 46.158,95.167 C46.946,95.222 47.599,95.574 48.195,96.06 C49.605,97.204 50.951,98.427 51.965,99.937 C53.047,101.547 54.119,101.6 55.254,99.969 C56.058,98.815 57.218,97.906 58.223,96.894 C58.806,96.307 59.374,95.7 59.997,95.157 C61.014,94.268 62.054,93.402 63.115,92.565 C63.873,91.967 64.766,91.854 65.692,92.067 C66.279,92.202 66.89,92.307 67.43,92.554 C69.408,93.459 71.41,94.297 73.072,95.805 C74.12,96.754 75.364,97.512 76.588,98.241 C77.801,98.963 79.379,98.51 80.427,97.292 C81.261,96.323 82.117,95.371 82.942,94.396 C84.159,92.959 85.74,92.424 87.57,92.467 C88.021,92.478 88.475,92.481 88.927,92.467 C89.866,92.438 90.683,92.705 91.453,93.271 C92.667,94.163 93.939,94.976 95.186,95.822 C95.372,95.95 95.543,96.103 95.737,96.218 C96.726,96.798 97.421,96.688 98.091,95.788 C98.494,95.246 98.881,94.676 99.173,94.067 C100.239,91.849 101.922,91.562 104.073,92.707 C105.184,93.298 106.272,94.088 107.097,95.027 C109.636,97.925 111.644,101.218 113.729,104.445 C114.198,105.173 114.636,105.953 114.825,106.821 C114.189,107.073 113.875,106.675 113.491,106.507 C112.944,106.269 112.414,105.928 111.84,105.819 C109.248,105.325 105.829,106.962 104.531,109.303 C104.024,110.215 103.615,111.181 103.119,112.211 C102.109,112.138 101.501,111.441 100.785,110.94 C99.491,110.036 98.203,109.117 96.864,108.283 C95.342,107.334 93.794,107.332 92.163,108.18 C90.199,109.2 88.347,110.308 87.131,112.236 C87.012,112.425 86.842,112.585 86.681,112.743 C85.746,113.66 85.183,113.776 84.081,113.077 C82.874,112.312 81.696,111.49 80.566,110.614 C77.661,108.359 74.064,108.479 71.329,110.997 C70.607,111.66 69.908,112.354 69.265,113.091 C68.673,113.769 68.17,114.522 67.63,115.24 C65.873,115.756 64.521,114.965 63.255,113.955 C62.49,113.345 61.763,112.685 61.051,112.012 C58.393,109.498 55.976,109.219 52.104,111.012 C49.993,111.988 48.061,113.346 46.597,115.258 C46.055,115.965 45.358,116.554 44.72,117.211" id="Fill-6" fill="#FFE500"></path>
                <path d="M92.636,162.008 C93.746,162.803 94.6,163.742 95.382,164.76 C95.747,165.236 96.116,165.723 96.553,166.129 C97.158,166.694 97.965,166.711 98.622,166.251 C98.805,166.121 98.979,165.969 99.127,165.801 C100.911,163.761 103.366,162.701 105.624,161.354 C105.812,161.241 106.055,161.113 106.25,161.141 C106.596,161.192 107.064,161.26 107.232,161.496 C107.617,162.038 107.825,162.703 108.153,163.291 C108.701,164.272 109.206,165.295 109.876,166.189 C110.792,167.412 111.978,167.343 112.825,166.122 C113.167,165.628 113.504,165.126 113.791,164.598 C114.789,162.76 116.574,162.147 118.411,161.668 C118.879,161.546 119.465,161.664 119.94,161.831 C120.565,162.051 121.133,162.429 121.681,162.715 C121.571,165.968 119.599,171.919 117.674,174.781 C116.04,173.963 114.321,174.526 112.695,174.882 C110.957,175.259 109.204,175.93 107.684,176.848 C106.24,177.719 105.091,179.078 103.819,180.216 C102.936,180.131 102.533,179.447 102.065,178.881 C101.345,178.01 100.616,177.139 99.981,176.206 C98.551,174.109 96.535,173.946 94.363,174.516 C93.515,174.738 92.664,175.188 91.975,175.735 C90.445,176.952 89.009,178.287 87.554,179.594 C87.163,179.944 86.855,180.386 86.479,180.755 C85.809,181.412 85.245,181.503 84.463,180.969 C83.783,180.503 83.161,179.948 82.547,179.394 C81.876,178.787 81.261,178.12 80.594,177.511 C79.543,176.549 78.297,176.156 76.868,176.159 C75.423,176.163 74.193,176.58 73.255,177.693 C71.466,179.814 69.405,181.734 68.272,184.351 C68.248,184.407 68.149,184.432 67.931,184.568 C66.662,183.65 65.358,182.672 64.186,181.517 C63.381,180.723 62.59,179.914 61.754,179.153 C59.793,177.367 57.5,177.359 55.205,178.215 C54.104,178.625 53.086,179.372 52.167,180.132 C50.484,181.524 48.893,183.032 47.75,184.938 C47.636,185.128 47.499,185.308 47.329,185.553 C43.655,183.527 40.734,180.905 38.331,177.546 C39.51,175.02 39.933,172.223 41.555,169.875 C43.472,167.102 43.987,166.963 46.346,169.251 C47.767,170.629 49.401,171.688 51.075,172.698 C52.033,173.277 52.761,173.09 53.381,172.133 C53.79,171.502 54.196,170.855 54.489,170.167 C55.185,168.534 56.346,167.253 57.525,165.984 C57.828,165.658 58.192,165.377 58.56,165.124 C59.75,164.303 60.953,164.279 62.089,165.214 C63.367,166.268 64.619,167.353 65.869,168.44 C66.15,168.686 66.349,169.023 66.623,169.279 C67.229,169.85 68.009,169.918 68.681,169.425 C69.04,169.161 69.345,168.816 69.645,168.48 C70.902,167.079 72.142,165.66 73.399,164.26 C73.852,163.753 74.309,163.248 74.812,162.795 C75.926,161.791 76.568,161.699 77.839,162.542 C78.9,163.246 79.915,164.041 80.855,164.899 C81.811,165.772 82.809,166.557 83.983,167.099 C85.718,167.897 86.962,167.67 88.227,166.254 C88.826,165.583 89.366,164.845 89.838,164.078 C90.464,163.064 91.278,162.353 92.636,162.008" id="Fill-7" fill="#FF9A00"></path>
                <path d="M116.061,176.633 C116.145,176.81 116.347,177.032 116.305,177.189 C116.21,177.544 116.034,177.894 115.82,178.194 C114.947,179.422 114.007,180.602 113.167,181.851 C111.671,184.075 109.521,185.386 107.114,186.384 C104.941,187.285 102.669,187.796 100.356,188.134 C97.818,188.505 95.342,189.107 92.879,189.835 C88.38,191.162 83.763,191.81 79.071,191.875 C76.359,191.913 73.644,191.824 70.934,191.906 C67.983,191.997 65.066,191.678 62.151,191.349 C60.968,191.215 59.801,190.829 58.656,190.467 C55.426,189.445 52.261,188.257 49.195,186.448 C49.306,186.111 49.339,185.735 49.528,185.473 C50.951,183.5 52.697,181.865 54.689,180.465 C56.526,179.175 59.258,179.226 61.03,181.142 C62.659,182.902 64.519,184.46 66.354,186.015 C68.129,187.517 69.306,187.338 70.238,185.229 C71.244,182.948 72.977,181.279 74.52,179.453 C75.885,177.834 77.654,177.795 79.275,179.181 C79.904,179.717 80.448,180.352 81.06,180.91 C81.669,181.468 82.333,181.967 82.942,182.526 C84.007,183.507 85.275,183.436 86.564,183.268 C87.304,183.172 87.714,182.599 88.16,182.092 C89.708,180.333 91.387,178.724 93.299,177.355 C94.266,176.661 95.285,176.356 96.471,176.425 C97.127,176.463 97.628,176.677 98.023,177.185 C98.718,178.075 99.398,178.979 100.117,179.848 C100.643,180.487 101.171,181.137 101.785,181.684 C102.963,182.732 104.448,182.695 105.656,181.607 C106.212,181.105 106.694,180.517 107.183,179.945 C107.936,179.063 108.866,178.432 109.936,178.031 C111.898,177.296 113.887,176.65 116.061,176.633" id="Fill-8" fill="#FF7C00"></path>
                <path d="M100.826,89.675 C99.888,90.382 98.959,90.925 98.244,91.671 C97.587,92.358 97.159,93.265 96.552,94.193 C95.175,93.301 93.875,92.541 92.672,91.653 C91.46,90.758 90.171,90.309 88.667,90.425 C88.067,90.472 87.46,90.408 86.858,90.44 C84.993,90.542 83.299,91.099 81.981,92.483 C80.944,93.573 79.958,94.713 78.953,95.833 C78.424,96.423 78.046,96.547 77.367,96.209 C76.22,95.638 75.129,94.993 74.156,94.126 C71.921,92.133 69.242,90.935 66.391,90.147 C64.803,89.709 63.263,89.954 61.876,90.962 C60.655,91.85 59.403,92.689 58.436,93.876 C58.15,94.226 57.842,94.562 57.51,94.867 C56.191,96.082 54.859,97.283 53.569,98.456 C52.272,97.241 51.016,96.057 49.751,94.881 C48.468,93.688 46.961,93.196 45.199,93.271 C43.537,93.346 41.881,93.333 40.313,94.001 C40.218,94.041 40.06,93.935 39.772,93.851 C40.452,93.262 41.047,92.701 41.689,92.202 C42.989,91.192 44.292,90.182 45.642,89.24 C46.375,88.73 47.181,88.3 48.002,87.942 C49.723,87.189 51.439,86.393 53.225,85.836 C54.639,85.395 56.148,85.225 57.628,85.048 C58.719,84.918 59.784,84.438 60.936,84.785 C61.256,84.881 61.681,84.709 62.039,84.597 C63.559,84.123 65.085,84.044 66.689,84.072 C68.395,84.103 70.14,83.737 71.811,83.323 C75.167,82.491 78.581,82.552 81.939,82.817 C85.755,83.12 89.577,83.729 93.222,85.021 C95.066,85.676 96.856,86.475 98.386,87.752 C99.182,88.416 100.015,89.037 100.826,89.675" id="Fill-9" fill="#FFEF27"></path>
                <path d="M61.167,217.174 C60.648,214.055 61.67,212.207 64.493,211.113 C65.823,210.597 67.152,210.075 68.502,209.615 C69.394,209.312 70.079,208.778 70.683,208.083 C71.206,207.482 71.357,206.89 71.254,206.04 C70.822,202.513 69.78,199.145 68.82,195.75 C68.699,195.32 68.611,194.883 68.48,194.333 C69.297,193.917 70.121,194.136 70.899,194.097 C71.715,194.057 72.536,194.088 73.507,194.088 C73.674,195.743 74.165,197.199 74.17,198.787 C74.175,200.2 74.449,201.62 74.691,203.022 C75.049,205.088 75.491,207.14 75.879,209.2 C75.948,209.566 75.971,209.95 75.953,210.322 C75.899,211.438 75.816,212.553 75.744,213.668 C74.692,214.746 73.616,215.821 72.213,216.41 C70.623,217.078 69.004,217.702 67.348,218.175 C65.151,218.806 63.042,218.501 61.167,217.174" id="Fill-10" fill="#C45100"></path>
                <path d="M108.824,209.023 C108.855,209.578 108.922,210.169 108.917,210.761 C108.901,212.53 108.443,213.174 106.791,213.791 C106.51,213.896 106.215,213.979 105.919,214.022 C103.122,214.425 100.354,214.417 97.688,213.319 C97.28,213.151 96.79,212.956 96.56,212.621 C95.572,211.186 94.635,209.659 94.712,207.854 C94.81,205.576 94.31,203.37 94.112,201.132 C93.901,198.729 93.55,196.34 93.3,193.941 C93.238,193.36 93.334,192.763 93.36,192.105 C95.114,191.426 96.807,190.871 98.723,190.774 C98.959,191.713 98.774,192.577 98.644,193.46 C98.467,194.647 98.372,195.851 98.258,197.048 C98.192,197.722 98.244,198.42 98.091,199.071 C97.584,201.236 97.79,203.427 97.787,205.606 C97.785,207.003 98.162,207.345 99.528,207.415 C100.431,207.462 101.339,207.472 102.242,207.426 C104.327,207.315 106.268,207.901 108.188,208.596 C108.391,208.668 108.556,208.839 108.824,209.023" id="Fill-11" fill="#C45100"></path>
                <path d="M46.28,139.677 C47.657,139.786 48.783,139.856 49.903,139.978 C50.349,140.026 50.797,140.146 51.216,140.309 C52.501,140.809 53.102,141.817 52.828,143.17 C52.553,144.523 51.976,145.762 50.802,146.587 C47.069,149.213 43.009,150.831 38.344,150.495 C36.739,150.38 35.251,149.964 33.931,148.966 C32.018,147.522 32.069,145.656 33.17,144.001 C33.573,143.394 34.198,142.901 34.804,142.473 C36.108,141.548 37.586,140.98 39.139,140.62 C39.797,140.467 40.462,140.318 41.132,140.237 C42.923,140.021 44.719,139.844 46.28,139.677" id="Fill-12" fill="#FF5148"></path>
                <path d="M113.073,140.243 C111.213,140.494 109.625,140.121 108.113,139.376 C107.712,139.179 107.301,138.978 106.952,138.706 C106.079,138.026 105.77,137.042 106.357,136.114 C107.542,134.242 109.08,132.588 111.321,132.17 C113.61,131.744 115.963,132.019 118.184,132.794 C120.554,133.622 121.077,137.132 119.097,138.729 C117.957,139.648 116.594,140.084 115.155,140.229 C114.414,140.305 113.657,140.243 113.073,140.243" id="Fill-13" fill="#FF5148"></path>
                <path d="M108.824,209.023 C108.556,208.839 108.391,208.668 108.188,208.596 C106.268,207.901 104.327,207.315 102.242,207.426 C101.339,207.472 100.431,207.462 99.528,207.415 C98.162,207.345 97.785,207.003 97.787,205.606 C97.79,203.427 97.584,201.236 98.091,199.071 C98.244,198.42 98.192,197.722 98.258,197.048 C98.372,195.851 98.467,194.647 98.644,193.46 C98.774,192.577 98.959,191.713 98.723,190.774 C96.807,190.871 95.114,191.426 93.36,192.105 C93.334,192.763 93.238,193.36 93.3,193.941 C93.55,196.34 93.901,198.729 94.112,201.132 C94.31,203.37 94.81,205.576 94.712,207.854 C94.635,209.659 95.572,211.186 96.56,212.621 C96.79,212.956 97.28,213.151 97.688,213.319 C100.354,214.417 103.122,214.425 105.919,214.022 C106.215,213.979 106.51,213.896 106.791,213.791 C108.443,213.174 108.901,212.53 108.917,210.761 C108.922,210.169 108.855,209.578 108.824,209.023 Z M61.167,217.174 C63.042,218.501 65.151,218.806 67.348,218.175 C69.004,217.702 70.623,217.078 72.213,216.41 C73.616,215.821 74.692,214.746 75.744,213.668 C75.816,212.553 75.899,211.438 75.953,210.322 C75.971,209.95 75.948,209.566 75.879,209.2 C75.491,207.14 75.049,205.088 74.691,203.022 C74.449,201.62 74.175,200.2 74.17,198.787 C74.165,197.199 73.674,195.743 73.507,194.088 C72.536,194.088 71.715,194.057 70.899,194.097 C70.121,194.136 69.297,193.917 68.48,194.333 C68.611,194.883 68.699,195.32 68.82,195.75 C69.78,199.145 70.822,202.513 71.254,206.04 C71.357,206.89 71.206,207.482 70.683,208.083 C70.079,208.778 69.394,209.312 68.502,209.615 C67.152,210.075 65.823,210.597 64.493,211.113 C61.67,212.207 60.648,214.055 61.167,217.174 Z M100.826,89.675 C100.015,89.037 99.182,88.416 98.386,87.752 C96.856,86.475 95.066,85.676 93.222,85.021 C89.577,83.729 85.755,83.12 81.939,82.817 C78.581,82.552 75.167,82.491 71.811,83.323 C70.14,83.737 68.395,84.103 66.689,84.072 C65.085,84.044 63.559,84.123 62.039,84.597 C61.681,84.709 61.256,84.881 60.936,84.785 C59.784,84.438 58.719,84.918 57.628,85.048 C56.148,85.225 54.639,85.395 53.225,85.836 C51.439,86.393 49.723,87.189 48.002,87.942 C47.181,88.3 46.375,88.73 45.642,89.24 C44.292,90.182 42.989,91.192 41.689,92.202 C41.047,92.701 40.452,93.262 39.772,93.851 C40.06,93.935 40.218,94.041 40.313,94.001 C41.881,93.333 43.537,93.346 45.199,93.271 C46.961,93.196 48.468,93.688 49.751,94.881 C51.016,96.057 52.272,97.241 53.569,98.456 C54.859,97.283 56.191,96.082 57.51,94.867 C57.842,94.562 58.15,94.226 58.436,93.876 C59.403,92.689 60.655,91.85 61.876,90.962 C63.263,89.954 64.803,89.709 66.391,90.147 C69.242,90.935 71.921,92.133 74.156,94.126 C75.129,94.993 76.22,95.638 77.367,96.209 C78.046,96.547 78.424,96.423 78.953,95.833 C79.958,94.713 80.944,93.573 81.981,92.483 C83.299,91.099 84.993,90.542 86.858,90.44 C87.46,90.408 88.067,90.472 88.667,90.425 C90.171,90.309 91.46,90.758 92.672,91.653 C93.875,92.541 95.175,93.301 96.552,94.193 C97.159,93.265 97.587,92.358 98.244,91.671 C98.959,90.925 99.888,90.382 100.826,89.675 Z M116.061,176.633 C113.887,176.65 111.898,177.296 109.936,178.031 C108.866,178.432 107.936,179.063 107.183,179.945 C106.694,180.517 106.212,181.105 105.656,181.607 C104.448,182.695 102.963,182.732 101.785,181.684 C101.171,181.137 100.643,180.487 100.117,179.848 C99.398,178.979 98.718,178.075 98.023,177.185 C97.628,176.677 97.127,176.463 96.471,176.425 C95.285,176.356 94.266,176.661 93.299,177.355 C91.387,178.724 89.708,180.333 88.16,182.092 C87.714,182.599 87.304,183.172 86.564,183.268 C85.275,183.436 84.007,183.507 82.942,182.526 C82.333,181.967 81.669,181.468 81.06,180.91 C80.448,180.352 79.904,179.717 79.275,179.181 C77.654,177.795 75.885,177.834 74.52,179.453 C72.977,181.279 71.244,182.948 70.238,185.229 C69.306,187.338 68.129,187.517 66.354,186.015 C64.519,184.46 62.659,182.902 61.03,181.142 C59.258,179.226 56.526,179.175 54.689,180.465 C52.697,181.865 50.951,183.5 49.528,185.473 C49.339,185.735 49.306,186.111 49.195,186.448 C52.261,188.257 55.426,189.445 58.656,190.467 C59.801,190.829 60.968,191.215 62.151,191.349 C65.066,191.678 67.983,191.997 70.934,191.906 C73.644,191.824 76.359,191.913 79.071,191.875 C83.763,191.81 88.38,191.162 92.879,189.835 C95.342,189.107 97.818,188.505 100.356,188.134 C102.669,187.796 104.941,187.285 107.114,186.384 C109.521,185.386 111.671,184.075 113.167,181.851 C114.007,180.602 114.947,179.422 115.82,178.194 C116.034,177.894 116.21,177.544 116.305,177.189 C116.347,177.032 116.145,176.81 116.061,176.633 Z M92.636,162.008 C91.278,162.353 90.464,163.064 89.838,164.078 C89.366,164.845 88.826,165.583 88.227,166.254 C86.962,167.67 85.718,167.897 83.983,167.099 C82.809,166.557 81.811,165.772 80.855,164.899 C79.915,164.041 78.9,163.246 77.839,162.542 C76.568,161.699 75.926,161.791 74.812,162.795 C74.309,163.248 73.852,163.753 73.399,164.26 C72.142,165.66 70.902,167.079 69.645,168.48 C69.345,168.816 69.04,169.161 68.681,169.425 C68.009,169.918 67.229,169.85 66.623,169.279 C66.349,169.023 66.15,168.686 65.869,168.44 C64.619,167.353 63.367,166.268 62.089,165.214 C60.953,164.279 59.75,164.303 58.56,165.124 C58.192,165.377 57.828,165.658 57.525,165.984 C56.346,167.253 55.185,168.534 54.489,170.167 C54.196,170.855 53.79,171.502 53.381,172.133 C52.761,173.09 52.033,173.277 51.075,172.698 C49.401,171.688 47.767,170.629 46.346,169.251 C43.987,166.963 43.472,167.102 41.555,169.875 C39.933,172.223 39.51,175.02 38.331,177.546 C40.734,180.905 43.655,183.527 47.329,185.553 C47.499,185.308 47.636,185.128 47.75,184.938 C48.893,183.032 50.484,181.524 52.167,180.132 C53.086,179.372 54.104,178.625 55.205,178.215 C57.5,177.359 59.793,177.367 61.754,179.153 C62.59,179.914 63.381,180.723 64.186,181.517 C65.358,182.672 66.662,183.65 67.931,184.568 C68.149,184.432 68.248,184.407 68.272,184.351 C69.405,181.734 71.466,179.814 73.255,177.693 C74.193,176.58 75.423,176.163 76.868,176.159 C78.297,176.156 79.543,176.549 80.594,177.511 C81.261,178.12 81.876,178.787 82.547,179.394 C83.161,179.948 83.783,180.503 84.463,180.969 C85.245,181.503 85.809,181.412 86.479,180.755 C86.855,180.386 87.163,179.944 87.554,179.594 C89.009,178.287 90.445,176.952 91.975,175.735 C92.664,175.188 93.515,174.738 94.363,174.516 C96.535,173.946 98.551,174.109 99.981,176.206 C100.616,177.139 101.345,178.01 102.065,178.881 C102.533,179.447 102.936,180.131 103.819,180.216 C105.091,179.078 106.24,177.719 107.684,176.848 C109.204,175.93 110.957,175.259 112.695,174.882 C114.321,174.526 116.04,173.963 117.674,174.781 C119.599,171.919 121.571,165.968 121.681,162.715 C121.133,162.429 120.565,162.051 119.94,161.831 C119.465,161.664 118.879,161.546 118.411,161.668 C116.574,162.147 114.789,162.76 113.791,164.598 C113.504,165.126 113.167,165.628 112.825,166.122 C111.978,167.343 110.792,167.412 109.876,166.189 C109.206,165.295 108.701,164.272 108.153,163.291 C107.825,162.703 107.617,162.038 107.232,161.496 C107.064,161.26 106.596,161.192 106.25,161.141 C106.055,161.113 105.812,161.241 105.624,161.354 C103.366,162.701 100.911,163.761 99.127,165.801 C98.979,165.969 98.805,166.121 98.622,166.251 C97.965,166.711 97.158,166.694 96.553,166.129 C96.116,165.723 95.747,165.236 95.382,164.76 C94.6,163.742 93.746,162.803 92.636,162.008 Z M44.72,117.211 C45.358,116.554 46.055,115.965 46.597,115.258 C48.061,113.346 49.993,111.988 52.104,111.012 C55.976,109.219 58.393,109.498 61.051,112.012 C61.763,112.685 62.49,113.345 63.255,113.955 C64.521,114.965 65.873,115.756 67.63,115.24 C68.17,114.522 68.673,113.769 69.265,113.091 C69.908,112.354 70.607,111.66 71.329,110.997 C74.064,108.479 77.661,108.359 80.566,110.614 C81.696,111.49 82.874,112.312 84.081,113.077 C85.183,113.776 85.746,113.66 86.681,112.743 C86.842,112.585 87.012,112.425 87.131,112.236 C88.347,110.308 90.199,109.2 92.163,108.18 C93.794,107.332 95.342,107.334 96.864,108.283 C98.203,109.117 99.491,110.036 100.785,110.94 C101.501,111.441 102.109,112.138 103.119,112.211 C103.615,111.181 104.024,110.215 104.531,109.303 C105.829,106.962 109.248,105.325 111.84,105.819 C112.414,105.928 112.944,106.269 113.491,106.507 C113.875,106.675 114.189,107.073 114.825,106.821 C114.636,105.953 114.198,105.173 113.729,104.445 C111.644,101.218 109.636,97.925 107.097,95.027 C106.272,94.088 105.184,93.298 104.073,92.707 C101.922,91.562 100.239,91.849 99.173,94.067 C98.881,94.676 98.494,95.246 98.091,95.788 C97.421,96.688 96.726,96.798 95.737,96.218 C95.543,96.103 95.372,95.95 95.186,95.822 C93.939,94.976 92.667,94.163 91.453,93.271 C90.683,92.705 89.866,92.438 88.927,92.467 C88.475,92.481 88.021,92.478 87.57,92.467 C85.74,92.424 84.159,92.959 82.942,94.396 C82.117,95.371 81.261,96.323 80.427,97.292 C79.379,98.51 77.801,98.963 76.588,98.241 C75.364,97.512 74.12,96.754 73.072,95.805 C71.41,94.297 69.408,93.459 67.43,92.554 C66.89,92.307 66.279,92.202 65.692,92.067 C64.766,91.854 63.873,91.967 63.115,92.565 C62.054,93.402 61.014,94.268 59.997,95.157 C59.374,95.7 58.806,96.307 58.223,96.894 C57.218,97.906 56.058,98.815 55.254,99.969 C54.119,101.6 53.047,101.547 51.965,99.937 C50.951,98.427 49.605,97.204 48.195,96.06 C47.599,95.574 46.946,95.222 46.158,95.167 C43.95,95.014 41.767,95.005 39.844,96.352 C38.923,96.997 37.949,97.59 37.125,98.344 C35.851,99.513 34.68,100.792 33.481,102.041 C33.278,102.253 33.122,102.527 32.999,102.799 C31.415,106.3 29.801,109.792 28.649,113.466 C28.298,114.588 27.849,115.734 28.025,116.988 C28.936,116.977 29.44,116.381 29.977,115.871 C30.961,114.938 31.88,113.932 32.898,113.037 C33.742,112.294 34.647,111.599 35.601,111.005 C36.676,110.334 37.779,110.514 38.747,111.309 C39.149,111.64 39.509,112.038 39.829,112.453 C40.702,113.586 41.557,114.732 42.39,115.895 C42.9,116.607 43.542,117.066 44.72,117.211 Z M88.93,20.773 C88.46,21.342 88.09,21.716 87.808,22.147 C87.107,23.22 86.535,24.389 85.751,25.394 C83.976,27.669 82.715,30.251 81.301,32.732 C79.239,36.353 77.8,40.237 76.913,44.321 C76.498,46.232 75.856,48.088 76.112,50.108 C76.214,50.913 76.018,51.781 75.434,52.435 C75.26,52.629 74.877,52.809 74.656,52.749 C74.336,52.662 73.967,52.408 73.823,52.122 C73.67,51.818 73.735,51.395 73.743,51.026 C73.753,50.58 73.907,50.116 73.819,49.696 C73.306,47.268 72.77,44.84 72.181,42.426 C71.396,39.205 70.553,35.997 69.736,32.781 C68.046,26.128 66.182,19.531 63.509,13.19 C63.218,12.499 63.001,11.771 62.806,11.044 C62.109,8.465 60.731,6.203 59.509,3.868 C59.405,3.669 59.264,3.485 59.113,3.318 C58.706,2.866 57.85,2.892 57.514,3.368 C57.384,3.551 57.281,3.759 57.197,3.967 C56.317,6.134 55.467,8.309 55.11,10.642 C54.871,12.207 54.545,13.759 54.331,15.327 C53.902,18.463 53.303,21.599 53.177,24.751 C53.001,29.117 53.139,33.501 53.249,37.874 C53.355,42.078 54.4,46.071 56.33,49.82 C56.778,50.691 57.252,51.551 57.682,52.431 C58.013,53.106 58.36,53.786 58.56,54.503 C58.639,54.782 58.42,55.268 58.179,55.477 C57.94,55.681 57.475,55.771 57.161,55.695 C56.832,55.616 56.504,55.327 56.288,55.043 C56.069,54.755 56.017,54.346 55.84,54.018 C54.847,52.163 54.167,50.141 52.835,48.467 C48.744,43.325 44.415,38.402 39.636,33.881 C37.939,32.274 36.317,30.588 34.644,28.955 C34.4,28.716 34.067,28.568 33.65,28.298 C33.283,29.231 32.968,29.975 33.029,30.821 C33.3,34.516 33.732,38.181 35.207,41.632 C37.469,46.921 40.205,51.939 43.707,56.525 C47.232,61.141 50.795,65.723 54.659,70.067 C55.501,71.015 56.135,72.152 56.823,73.229 C57.02,73.536 57.12,73.927 57.184,74.293 C57.299,74.946 56.471,75.643 55.848,75.407 C55.429,75.25 55.038,75.008 54.654,74.771 C51.192,72.624 47.594,70.73 43.928,68.96 C41.754,67.91 39.602,66.684 37.18,66.461 C33.563,66.129 29.942,66.307 26.429,67.4 C26.108,67.5 25.838,67.763 25.507,67.974 C25.949,68.87 26.657,69.315 27.31,69.813 C29.47,71.458 31.613,73.125 33.798,74.736 C35.07,75.676 36.381,76.568 37.725,77.401 C39.454,78.474 41.268,79.411 42.983,80.504 C45.477,82.093 48.157,83.278 50.76,84.386 C51.892,84.086 52.898,83.767 53.927,83.558 C55.84,83.172 57.769,82.865 59.685,82.496 C60.943,82.253 62.179,81.861 63.446,81.706 C66.884,81.285 70.331,80.933 73.778,80.593 C75.504,80.423 77.243,80.385 78.968,80.207 C81.307,79.969 83.629,79.848 85.938,80.454 C86.443,80.588 86.99,80.558 87.506,80.662 C88.382,80.84 89.083,80.555 89.834,80.096 C91.911,78.828 93.739,77.252 95.408,75.523 C96.866,74.014 98.453,72.621 99.618,70.813 C100.444,69.533 101.052,68.171 101.72,66.824 C104.134,61.956 106.107,56.911 107.861,51.775 C107.964,51.471 107.874,51.101 107.874,50.553 C105.567,51.41 103.492,52.228 101.727,53.688 C101.38,53.975 101.035,54.317 100.627,54.469 C98.781,55.155 97.555,56.542 96.276,57.956 C95.103,59.253 94.007,60.566 93.202,62.12 C92.995,62.52 92.748,62.91 92.456,63.253 C90.835,65.153 89.505,67.252 88.206,69.378 C87.817,70.014 87.324,70.607 86.781,71.115 C86.584,71.298 86.009,71.309 85.771,71.151 C85.525,70.99 85.367,70.521 85.378,70.194 C85.391,69.846 85.622,69.491 85.802,69.165 C87.447,66.187 88.873,63.095 89.795,59.827 C90.938,55.777 91.866,51.701 91.468,47.387 C90.948,41.754 90.762,36.094 90.352,30.452 C90.149,27.673 89.777,24.905 89.447,22.138 C89.399,21.735 89.158,21.356 88.93,20.773 Z M122.4,160.357 C122.881,158.618 123.067,156.837 123.147,155.033 C123.21,153.604 123.335,152.178 123.418,150.747 C123.493,149.47 123.591,148.189 123.604,146.91 C123.632,144.12 123.56,141.328 123.625,138.54 C123.716,134.597 123.146,130.736 122.542,126.856 C121.806,122.128 120.359,117.634 118.694,113.182 C118.224,111.925 117.537,110.762 116.323,110.305 C114.826,109.74 113.482,108.938 112.087,108.208 C111.53,107.917 110.973,107.847 110.343,107.962 C108.19,108.354 106.553,109.364 105.81,111.533 C105.664,111.962 105.51,112.388 105.337,112.805 C105.193,113.152 105.051,113.507 104.848,113.82 C104.283,114.697 103.468,115.003 102.522,114.507 C101.397,113.916 100.351,113.171 99.286,112.468 C98.092,111.683 96.931,110.846 95.729,110.075 C94.902,109.545 94.065,109.59 93.163,110.043 C91.462,110.899 89.842,111.816 88.807,113.504 C88.614,113.818 88.321,114.079 88.048,114.339 C86.369,115.936 84.956,116.086 82.946,114.884 C82.624,114.691 82.323,114.461 82.019,114.239 C80.923,113.44 79.815,112.656 78.742,111.829 C78.115,111.345 77.428,111.047 76.656,111.106 C75.132,111.224 73.646,111.532 72.55,112.716 C71.58,113.764 70.579,114.806 69.776,115.976 C68.952,117.177 67.941,117.665 66.528,117.557 C64.635,117.411 63.086,116.548 61.685,115.351 C60.769,114.566 59.867,113.768 58.964,112.967 C58.057,112.162 56.993,111.897 55.813,112.04 C54.684,112.176 53.608,112.461 52.606,113.049 C50.907,114.049 49.279,115.115 48.059,116.711 C47.696,117.188 47.224,117.58 46.81,118.02 C45.192,119.732 44.267,119.661 42.224,118.472 C41.72,118.179 41.271,117.726 40.911,117.259 C40.036,116.13 39.229,114.947 38.395,113.788 C37.282,112.243 36.874,112.149 35.317,113.388 C34.258,114.228 33.277,115.177 32.322,116.138 C31.086,117.381 29.796,118.508 28.083,119.057 C27.745,119.165 27.462,119.443 27.173,119.631 C26.088,124.521 25.982,129.432 25.701,134.309 C25.475,138.216 25.613,142.148 25.67,146.069 C25.718,149.408 26.366,152.656 27.492,155.801 C27.72,156.438 28.106,157.029 28.257,157.68 C29.087,161.235 30.725,164.473 32.208,167.765 C33.105,169.752 34.191,171.658 35.243,173.573 C35.663,174.339 36.105,175.128 36.847,175.632 C37.05,175.479 37.231,175.415 37.273,175.302 C37.587,174.455 37.902,173.607 38.162,172.743 C38.854,170.456 40.099,168.49 41.727,166.785 C42.952,165.504 44.09,165.394 45.603,166.251 C46.123,166.546 46.599,166.931 47.061,167.316 C47.639,167.799 48.145,168.372 48.747,168.819 C49.692,169.525 50.552,170.421 51.927,170.526 C52.221,170.082 52.581,169.685 52.78,169.217 C53.567,167.372 54.825,165.846 56.251,164.519 C59.221,161.754 61.059,161.983 63.647,163.921 C64.009,164.191 64.35,164.491 64.697,164.78 C65.724,165.64 66.749,166.501 67.874,167.443 C68.55,166.698 69.147,166.032 69.751,165.374 C71.026,163.986 72.24,162.535 73.598,161.234 C75.135,159.762 76.961,159.614 78.766,160.775 C79.963,161.545 81.048,162.489 82.178,163.363 C82.833,163.868 83.435,164.454 84.131,164.892 C85.71,165.885 86.144,165.781 87.303,164.243 C87.892,163.461 88.376,162.595 89.003,161.848 C89.854,160.833 90.983,160.256 92.309,160.081 C93.612,159.909 94.416,160.706 95.199,161.546 C96.01,162.417 96.817,163.291 97.778,164.328 C99.588,162.248 102.008,161.169 104.24,159.802 C105.047,159.308 105.898,159.13 106.819,159.105 C107.726,159.081 108.455,159.347 108.883,160.189 C109.324,161.062 109.754,161.938 110.172,162.821 C110.42,163.347 110.608,163.911 111.262,164.277 C111.745,163.679 112.149,163.152 112.582,162.649 C112.972,162.194 113.319,161.646 113.812,161.344 C116.327,159.809 118.925,158.671 121.875,160.265 C122,160.333 122.168,160.32 122.4,160.357 Z M125.876,151.71 C125.281,152.332 125.413,153.044 125.403,153.703 C125.306,160.436 123.558,166.811 121.184,173.039 C120.543,174.72 119.773,176.375 118.857,177.919 C117.979,179.398 116.833,180.717 115.805,182.106 C115.76,182.168 115.707,182.223 115.667,182.285 C113.058,186.352 109.086,188.353 104.605,189.567 C103.879,189.763 103.134,189.889 102.396,190.034 C101.332,190.244 100.918,190.563 100.784,191.596 C100.563,193.311 100.432,195.037 100.266,196.759 C100.173,197.73 100.089,198.704 99.999,199.677 C99.944,200.276 99.848,200.876 99.834,201.476 C99.808,202.677 99.827,203.878 99.827,205.195 C100.459,205.286 100.963,205.447 101.454,205.413 C103.674,205.257 105.804,205.675 107.896,206.348 C108.539,206.554 109.169,206.805 109.786,207.079 C110.464,207.378 110.834,207.939 110.872,208.674 C110.915,209.501 110.941,210.333 110.911,211.16 C110.815,213.709 109.815,215.006 107.38,215.786 C106.95,215.924 106.515,216.082 106.071,216.133 C102.816,216.501 99.593,216.451 96.536,215.087 C95.938,214.82 95.297,214.408 94.941,213.885 C93.714,212.078 92.7,210.212 92.649,207.877 C92.597,205.479 92.178,203.09 91.931,200.694 C91.861,200.021 91.847,199.341 91.782,198.668 C91.594,196.731 91.394,194.795 91.191,192.782 C89.366,192.762 87.73,193.411 86.026,193.574 C84.376,193.733 82.729,193.947 81.075,194.041 C79.356,194.14 77.631,194.124 75.957,194.157 C75.894,194.391 75.848,194.469 75.859,194.536 C76.339,197.424 76.18,200.374 76.855,203.257 C77.574,206.328 78.195,209.43 78.11,212.637 C78.073,214.068 77.501,215.045 76.501,215.949 C73.96,218.245 70.865,219.466 67.636,220.225 C65.36,220.76 63.006,220.585 60.803,219.456 C59.593,218.835 58.992,217.921 58.838,216.638 C58.465,213.523 60.292,210.575 63.402,209.324 C64.799,208.763 66.225,208.273 67.633,207.737 C68.046,207.579 68.441,207.371 68.953,207.136 C69.153,202.586 67.141,198.514 66.534,194.164 C65.562,193.973 64.832,193.717 64.097,193.7 C60.863,193.633 57.867,192.596 54.933,191.42 C52.209,190.328 49.52,189.123 46.917,187.77 C43.753,186.126 40.938,183.972 38.612,181.229 C38.319,180.885 38.036,180.529 37.725,180.201 C34.304,176.59 31.935,172.319 29.948,167.809 C29.251,166.228 28.544,164.651 27.772,162.916 C27.376,163.364 27.081,163.681 26.804,164.012 C25.018,166.154 23.3,168.358 21.428,170.423 C20.218,171.757 18.807,172.912 17.444,174.101 C15.795,175.536 14.103,176.922 12.377,178.372 C12.55,180.49 12.909,182.542 13.57,184.549 C13.8,185.25 13.923,186.001 13.991,186.739 C14.034,187.198 13.806,187.688 13.268,187.719 C12.939,187.738 12.477,187.603 12.285,187.366 C11.817,186.79 11.479,186.11 11.072,185.482 C10.957,185.307 10.786,185.167 10.634,185.004 C9.895,186.593 9.202,188.144 8.449,189.665 C8.221,190.124 7.868,190.543 7.502,190.91 C7.083,191.33 6.484,191.322 6.062,190.985 C5.637,190.645 5.524,190.086 5.833,189.567 C6.295,188.791 6.835,188.059 7.262,187.265 C7.686,186.478 8.012,185.638 8.377,184.829 C7.854,184.4 7.623,184.844 7.37,185.04 C6.416,185.777 5.508,186.576 4.534,187.285 C4.124,187.584 3.609,187.813 3.114,187.89 C2.823,187.933 2.379,187.688 2.177,187.434 C1.868,187.047 1.969,186.518 2.32,186.197 C2.817,185.743 3.409,185.393 3.952,184.989 C4.846,184.327 5.755,183.683 6.606,182.747 C5.226,182.798 4.085,183.144 3.139,183.771 C2.764,184.021 2.445,184.371 2.045,184.561 C1.726,184.712 1.295,184.799 0.969,184.711 C0.657,184.627 0.281,184.325 0.182,184.033 C0.083,183.743 0.173,183.209 0.389,183.021 C1.357,182.184 2.399,181.442 3.644,181.027 C4.394,180.777 5.203,180.623 5.815,180.156 C5.747,179.595 5.395,179.646 5.122,179.636 C4.142,179.603 3.158,179.626 2.181,179.563 C1.748,179.534 1.29,179.413 0.913,179.207 C0.71,179.097 0.577,178.723 0.56,178.458 C0.549,178.296 0.788,178.021 0.968,177.964 C1.39,177.829 1.841,177.74 2.283,177.729 C4.168,177.684 6.055,177.632 7.94,177.664 C8.973,177.684 9.831,177.448 10.632,176.762 C12.98,174.751 15.405,172.829 17.738,170.801 C20.599,168.314 22.898,165.309 25.269,162.377 C26.45,160.917 26.723,159.348 25.972,157.528 C24.22,153.287 23.568,148.829 23.612,144.255 C23.631,142.219 23.65,140.181 23.635,138.145 C23.597,133.081 23.951,128.036 24.632,123.028 C25.333,117.863 26.568,112.813 28.679,108.014 C29.134,106.979 29.619,105.955 30.031,104.904 C31.339,101.567 33.327,98.647 35.527,95.855 C35.806,95.5 36.121,95.174 36.426,94.841 C36.527,94.729 36.644,94.633 36.756,94.531 C38.802,92.666 40.495,90.445 42.86,88.881 C44.039,88.102 45.061,87.082 46.4,86.516 C46.877,86.313 47.3,85.982 47.891,85.623 C47.411,85.328 47.054,85.083 46.676,84.88 C41.296,81.994 35.877,79.176 31.1,75.304 C29.578,74.07 27.937,72.982 26.414,71.75 C25.365,70.9 24.364,69.974 23.452,68.979 C22.516,67.958 22.652,67.142 23.848,66.389 C24.604,65.912 25.442,65.498 26.3,65.268 C27.602,64.918 28.946,64.675 30.288,64.527 C32.01,64.336 33.746,64.268 35.477,64.178 C37.006,64.099 38.496,64.364 39.907,64.93 C41.653,65.628 43.377,66.387 45.086,67.173 C47.001,68.054 48.886,68.999 50.792,69.902 C50.896,69.952 51.066,69.859 51.337,69.809 C50.152,68.299 49.002,66.839 47.857,65.373 C45.583,62.461 43.237,59.6 41.057,56.619 C37.568,51.85 34.758,46.678 32.692,41.142 C31.39,37.652 30.938,33.963 30.98,30.25 C30.994,29 31.449,27.744 31.782,26.512 C31.941,25.92 32.654,25.6 33.263,25.79 C34.27,26.106 35.262,26.48 36.025,27.265 C40.654,32.018 45.639,36.426 49.902,41.535 C50.273,41.979 50.704,42.373 51.364,43.056 C51.392,42.426 51.429,42.166 51.41,41.912 C51.248,39.81 50.973,37.71 50.927,35.605 C50.849,31.986 50.762,28.355 50.962,24.746 C51.133,21.668 51.657,18.605 52.111,15.549 C52.409,13.538 52.892,11.555 53.234,9.548 C53.644,7.138 54.636,4.943 55.62,2.741 C55.681,2.603 55.76,2.473 55.834,2.342 C56.706,0.793 57.94,0.306 59.597,0.891 C59.869,0.987 60.14,1.179 60.325,1.4 C60.71,1.861 61.097,2.338 61.378,2.865 C62.797,5.522 64.333,8.13 65.045,11.106 C65.166,11.617 65.356,12.115 65.557,12.601 C68.239,19.096 70.222,25.812 71.906,32.624 C72.683,35.77 73.496,38.907 74.303,42.047 C74.376,42.332 74.524,42.6 74.742,43.132 C75.003,42.516 75.242,42.108 75.35,41.67 C76.395,37.374 78.314,33.462 80.57,29.695 C80.842,29.243 81.123,28.796 81.383,28.337 C83.169,25.184 85.287,22.257 87.503,19.398 C87.825,18.984 88.197,18.602 88.587,18.25 C89.129,17.759 89.973,17.773 90.382,18.357 C90.763,18.899 91.117,19.527 91.248,20.165 C91.626,22.01 92.017,23.866 92.169,25.738 C92.569,30.624 92.812,35.522 93.181,40.412 C93.385,43.117 93.636,45.816 93.556,48.532 C93.527,49.51 93.453,50.489 93.319,51.457 C92.958,54.064 92.553,56.666 92.166,59.274 C92.285,59.274 92.478,59.318 92.507,59.269 C93.581,57.405 95.361,56.198 96.774,54.653 C96.826,54.598 96.876,54.537 96.938,54.497 C98.956,53.202 100.948,51.863 103.005,50.634 C104.029,50.022 105.152,49.553 106.271,49.126 C106.961,48.863 107.723,48.728 108.463,48.669 C109.438,48.594 110.184,49.41 110.124,50.368 C110.109,50.592 110.037,50.813 109.983,51.033 C109.305,53.815 108.618,56.593 107.293,59.166 C106.846,60.034 106.477,60.943 106.097,61.844 C104.954,64.552 103.936,67.319 102.646,69.953 C101.861,71.559 100.825,73.111 99.615,74.423 C97.529,76.687 95.443,78.979 92.954,80.836 C92.656,81.058 92.379,81.309 92.01,81.615 C92.561,81.917 93.004,82.192 93.473,82.412 C95.055,83.15 96.479,84.112 97.819,85.231 C98.446,85.755 99.182,86.172 99.916,86.542 C101.139,87.157 102.242,87.913 103.253,88.84 C103.97,89.499 104.748,90.132 105.595,90.598 C106.956,91.346 108.015,92.414 108.925,93.6 C110.483,95.632 111.912,97.761 113.397,99.847 C114.709,101.693 115.873,103.622 116.931,105.63 C117.842,107.357 118.958,108.978 119.967,110.653 C120.471,111.491 120.952,112.342 121.418,113.2 C121.558,113.459 121.709,113.77 121.69,114.044 C121.612,115.233 122.217,116.219 122.556,117.287 C123.055,118.864 123.582,120.448 123.888,122.069 C124.519,125.399 125.046,128.75 125.54,132.104 C125.747,133.515 125.833,134.954 125.848,136.381 C125.888,140.229 125.861,144.077 125.859,147.924 C125.859,148.445 125.859,148.966 125.859,149.347 C127.208,150.193 128.399,150.986 129.632,151.709 C132.946,153.654 136.258,155.61 139.967,156.745 C142.121,157.402 144.161,158.447 146.636,158.643 C148.118,157.429 149.966,156.963 152.069,157.331 C152.851,156.645 153.634,155.952 154.421,155.266 C154.646,155.069 154.857,154.833 155.118,154.712 C155.551,154.508 156.063,154.485 156.335,154.923 C156.504,155.192 156.585,155.712 156.437,155.947 C156.082,156.508 155.571,156.972 155.118,157.467 C154.839,157.771 154.547,158.065 154.277,158.348 C154.638,158.937 155.033,158.642 155.364,158.649 C155.738,158.659 156.116,158.581 156.492,158.595 C157.091,158.615 157.71,158.601 158.278,158.76 C158.556,158.839 158.83,159.242 158.931,159.557 C159.063,159.963 158.647,160.495 158.218,160.548 C157.696,160.61 157.165,160.598 156.64,160.631 C156.14,160.662 155.643,160.711 155.188,160.749 C155.018,161.389 155.427,161.579 155.731,161.715 C156.623,162.113 157.546,162.438 158.458,162.793 C158.667,162.874 158.966,162.899 159.064,163.053 C159.253,163.346 159.43,163.719 159.412,164.048 C159.401,164.268 159.081,164.568 158.835,164.657 C158.095,164.926 157.358,164.806 156.646,164.468 C156.104,164.209 155.557,163.94 154.983,163.785 C154.776,163.729 154.434,163.941 154.246,164.126 C154.125,164.245 154.074,164.605 154.166,164.736 C154.591,165.349 155.057,165.935 155.548,166.495 C155.792,166.774 156.171,166.94 156.402,167.227 C156.701,167.596 156.788,168.053 156.474,168.477 C156.167,168.891 155.71,168.983 155.261,168.819 C154.388,168.501 153.734,167.883 153.168,167.156 C152.716,166.573 152.463,165.804 151.692,165.521 C151.209,165.678 151.228,166.063 151.261,166.439 C151.34,167.34 151.443,168.237 151.51,169.138 C151.537,169.511 151.53,169.894 151.478,170.264 C151.405,170.764 150.858,171.182 150.341,171.19 C149.826,171.2 149.309,170.786 149.272,170.225 C149.214,169.322 149.217,168.415 149.217,167.513 C149.218,166.677 149.061,166.014 148.452,165.288 C147.603,164.277 147.08,162.979 146.488,161.768 C146.151,161.08 145.657,160.79 144.936,160.634 C141.833,159.963 138.815,158.936 135.976,157.583 C132.861,156.1 129.699,154.609 127.019,152.341 C126.688,152.063 126.25,151.913 125.876,151.71 Z" id="Fill-14" fill="#542033"></path>
                <path d="M61.806,141.193 C61.517,141.174 61.214,141.186 60.925,141.126 C59.824,140.897 59.469,140.1 60.017,139.137 C60.408,138.446 60.947,137.961 61.752,137.821 C62.586,137.679 63.244,138.128 63.235,139.005 C63.229,139.577 63.346,140.008 63.694,140.441 C65.275,142.412 67.134,143.975 69.529,144.916 C74.408,146.837 79.435,147.296 84.602,146.683 C86.691,146.434 88.508,145.479 90.114,144.247 C91.413,143.25 92.521,141.971 93.583,140.709 C94.352,139.796 94.897,138.698 95.563,137.694 C96.034,136.984 96.231,136.223 96.279,135.364 C96.336,134.367 96.849,133.913 97.646,133.896 C98.618,133.876 99.568,134.458 99.756,135.265 C99.815,135.52 99.749,135.982 99.58,136.084 C98.598,136.672 98.487,137.828 97.829,138.626 C97.212,139.377 96.742,140.248 96.207,141.066 C94.092,144.299 91.325,146.757 87.726,148.234 C86.311,148.815 84.818,148.988 83.315,149.112 C79.368,149.439 75.48,148.986 71.684,147.961 C68.131,147.002 64.979,145.292 62.703,142.26 C62.434,141.9 62.124,141.57 61.806,141.193" id="Fill-15" fill="#542033"></path>
                <path d="M59.129,125.736 C60.713,125.753 61.299,126.285 61.347,127.863 C61.365,128.451 61.317,129.07 61.144,129.627 C60.802,130.736 59.966,131.321 58.819,131.432 C57.904,131.52 57.218,131.119 56.916,130.229 C56.705,129.602 56.541,128.927 56.529,128.271 C56.493,126.444 57.279,125.718 59.129,125.736" id="Fill-16" fill="#542033"></path>
                <path d="M96.44,125.166 C96.44,125.018 96.431,124.867 96.442,124.72 C96.555,123.25 97.179,122.763 98.647,122.989 C99.709,123.153 100.708,124.41 100.707,125.58 C100.706,126.71 99.845,127.813 98.791,128.034 C97.729,128.258 96.846,127.768 96.553,126.71 C96.417,126.218 96.426,125.686 96.369,125.173 C96.393,125.17 96.417,125.168 96.44,125.166" id="Fill-17" fill="#542033"></path>
            </g>
        </g>
    </g>
</svg>