<?xml version="1.0" encoding="UTF-8"?>
<svg width="139px" height="162px" viewBox="0 0 139 162" version="1.1" xmlns="http://www.w3.org/2000/svg" xmlns:xlink="http://www.w3.org/1999/xlink">
    <!-- Generator: Sketch 49.3 (51167) - http://www.bohemiancoding.com/sketch -->
    <title>avatar8</title>
    <desc>Created with Sketch.</desc>
    <defs></defs>
    <g id="Page-2" stroke="none" stroke-width="1" fill="none" fill-rule="evenodd">
        <g id="114524-OOP7JI-483" transform="translate(-156.000000, -220.000000)">
            <g id="avatar8" transform="translate(156.000000, 220.000000)">
                <path d="M134.088,73.22 C133.736,70.379 133.422,67.534 133.024,64.7 C132.354,59.937 130.359,55.653 128.082,51.485 C127.755,50.886 127.379,50.303 126.951,49.773 C124.327,46.533 121.971,43.091 119.156,39.99 C116.965,37.576 114.644,35.354 112.017,33.44 C108.926,31.188 105.628,29.342 101.903,28.352 C99.92,27.825 97.934,27.309 95.938,26.835 C93.987,26.372 91.99,26.284 89.996,26.397 C87.76,26.524 85.521,26.697 83.296,26.95 C78.771,27.467 74.304,28.246 70.116,30.169 C69.007,30.678 67.765,30.917 67.038,32.071 C66.856,32.357 66.409,32.464 66.124,32.701 C65.602,33.14 65.104,33.607 64.605,34.074 C64.337,34.327 64.105,34.624 63.829,34.868 C63.04,35.568 62.184,36.2 61.453,36.954 C60.695,37.738 59.943,38.549 59.245,39.564 C60.256,40.256 61.173,40.888 62.093,41.515 C64.009,42.822 65.737,44.334 67.172,46.164 C67.863,47.047 68.542,47.94 69.256,48.804 C70.908,50.796 72.032,53.065 72.925,55.479 C74.485,59.694 75.634,64.004 76.379,68.445 C77.281,73.827 77.389,79.222 77.051,84.644 C77.016,85.199 76.947,85.773 76.764,86.292 C76.458,87.156 75.898,87.763 74.842,87.689 C74.513,84.395 74.4,81.164 74.432,77.925 C74.446,76.432 74.429,74.93 74.283,73.446 C73.689,67.408 72.364,61.531 70.224,55.848 C69.674,54.39 69.072,52.951 68.128,51.692 C67.082,50.298 66.021,48.915 64.951,47.54 C63.793,46.052 62.391,44.822 60.853,43.745 C59.781,42.995 58.71,42.245 57.617,41.528 C56.544,40.824 55.408,40.219 54.306,39.564 C51.731,38.037 48.974,36.813 46.019,36.266 C43.095,35.725 40.127,35.416 37.172,35.069 C36.251,34.963 35.306,35.082 34.371,35.079 C33.237,35.073 32.154,35.281 31.085,35.673 C29.924,36.1 28.733,36.431 27.526,36.737 C25.242,37.317 22.969,38.012 20.979,39.372 C18.735,40.908 16.393,42.301 14.444,44.245 C13.524,45.163 12.456,45.933 11.452,46.766 C10.624,47.454 9.981,48.28 9.526,49.258 C8.712,51.004 7.896,52.75 6.715,54.295 C6.377,54.738 6.055,55.198 5.768,55.676 C5.55,56.038 5.382,56.435 5.223,56.828 C5.062,57.23 4.96,57.658 4.798,58.06 C3.766,60.607 2.905,63.19 2.938,65.994 C2.947,66.736 2.811,67.481 2.746,68.226 C2.636,69.473 2.685,70.708 2.941,71.942 C3.104,72.73 3.177,73.539 3.259,74.342 C3.428,76.011 3.498,77.694 3.744,79.353 C4.557,84.85 5.939,90.211 7.906,95.404 C8.786,97.73 9.865,99.98 10.821,102.279 C11.208,103.209 11.698,104.06 12.31,104.854 C13.108,105.891 13.868,106.955 14.644,108.008 C16.057,108.637 16.21,110.152 16.936,111.268 C17.037,111.423 17.155,111.569 17.272,111.716 C18.552,113.321 19.795,114.961 21.124,116.525 C23.269,119.053 25.698,121.283 28.432,123.166 C28.994,123.553 29.598,124.144 30.193,124.154 C31.186,124.177 31.79,124.681 32.435,125.241 C32.928,125.674 33.418,125.609 33.985,125.354 C36.818,124.081 39.22,122.271 41.128,119.741 C40.349,117.973 39.738,116.154 39.423,114.248 C39.363,113.889 39.279,113.497 39.365,113.159 C39.428,112.91 39.716,112.611 39.962,112.544 C40.205,112.478 40.62,112.59 40.781,112.777 C41.135,113.185 41.376,113.692 41.772,114.336 C41.921,113.823 42.076,113.497 42.103,113.159 C42.16,112.477 42.125,111.789 42.171,111.104 C42.23,110.177 42.691,109.603 43.282,109.654 C43.831,109.702 44.231,110.189 44.313,111.029 C44.385,111.768 44.382,112.513 44.428,113.664 C45.371,112.804 46.029,112.167 46.728,111.579 C47.233,111.153 48.125,111.495 48.159,112.151 C48.188,112.691 48.035,113.243 47.939,113.787 C47.847,114.316 47.31,114.73 47.52,115.398 C47.7,115.341 47.895,115.333 48.014,115.233 C48.533,114.8 49.037,114.344 49.536,113.885 C49.99,113.466 50.47,113.376 50.876,113.668 C51.288,113.963 51.315,114.391 51.245,114.837 C51.149,115.437 50.73,115.815 50.291,116.171 C49.711,116.64 49.108,117.08 48.55,117.572 C48.357,117.743 48.269,118.032 48.105,118.311 C48.854,118.464 49.471,118.562 50.069,118.72 C50.517,118.838 50.771,119.254 50.762,119.714 C50.754,120.165 50.473,120.616 50.068,120.714 C49.709,120.8 49.329,120.79 48.962,120.853 C48.107,120.998 47.204,121.03 46.415,121.347 C45.268,121.807 44.162,122.007 42.917,121.508 C40.868,123.826 38.629,125.87 35.679,127.201 C36.058,127.51 36.265,127.758 36.531,127.881 C38.617,128.851 40.676,129.89 42.814,130.73 C46.575,132.209 50.448,133.372 54.354,134.409 C55.296,134.66 56.243,135.081 57.276,134.862 C57.443,134.827 57.672,134.861 57.81,134.954 C58.594,135.485 59.45,135.407 60.33,135.367 C60.875,135.344 61.432,135.48 61.978,135.578 C62.896,135.742 63.808,136.079 64.724,136.086 C66.721,136.101 68.691,136.202 70.663,136.562 C72.37,136.875 74.139,136.868 75.832,137.233 C77.319,137.553 78.791,137.569 80.28,137.558 C81.96,137.546 83.642,137.459 85.321,137.483 C86.225,137.497 87.001,137.299 87.794,136.848 C89.522,135.86 91.333,135.063 93.239,134.436 C96.139,133.483 98.89,132.163 101.434,130.448 C101.896,130.137 102.385,129.859 102.873,129.583 C107.103,127.18 111.125,124.468 114.979,121.504 C115.917,120.783 116.803,120.017 117.537,119.145 C116.048,118.228 114.979,116.965 113.747,115.774 C113.561,115.786 113.314,115.787 113.071,115.822 C111.476,116.052 109.979,115.666 108.532,115.046 C108.085,114.854 107.674,114.553 107.282,114.254 C106.967,114.01 107.045,113.502 107.389,113.309 C107.834,113.057 108.288,112.917 108.815,113.08 C109.067,113.159 109.356,113.118 109.681,113.135 C109.47,112.456 108.977,112.295 108.53,112.085 C107.328,111.516 106.579,110.379 105.5,109.647 C105.34,109.538 105.306,109.03 105.41,108.798 C105.509,108.581 105.859,108.398 106.125,108.358 C106.413,108.315 106.741,108.417 107.03,108.518 C107.69,108.746 108.228,109.164 108.692,109.684 C108.86,109.871 109.08,109.997 109.35,109.728 C109.228,109.524 109.102,109.313 108.979,109.101 C108.441,108.189 107.892,107.286 107.375,106.363 C107.116,105.896 107.187,105.413 107.475,105.156 C107.771,104.896 108.317,104.814 108.688,105.122 C109.205,105.553 109.657,106.067 110.106,106.575 C110.354,106.855 110.444,107.292 111.096,107.508 C110.854,106.723 110.662,106.144 110.501,105.557 C110.32,104.899 110.115,104.24 110.029,103.569 C110.001,103.34 110.248,102.952 110.47,102.85 C110.698,102.743 111.137,102.789 111.323,102.953 C111.637,103.226 111.885,103.62 112.05,104.01 C112.583,105.271 113.071,106.55 113.567,107.826 C113.757,108.317 113.907,108.828 114.176,109.289 C114.704,108.993 114.551,108.584 114.521,108.242 C114.464,107.561 114.3,106.886 114.274,106.204 C114.259,105.725 114.342,105.221 114.485,104.759 C114.623,104.316 115.282,104.266 115.553,104.637 C115.66,104.785 115.777,104.94 115.834,105.111 C116.703,107.82 116.944,110.565 116.291,113.39 C117.072,115.084 118.368,116.17 120.274,116.657 C121.408,115.659 122.367,114.449 123.226,113.157 C123.878,112.175 124.516,111.182 125.116,110.167 C125.875,108.882 126.651,107.601 127.311,106.264 C129.156,102.523 130.713,98.658 132.241,94.778 C133.747,90.958 134.413,87.003 134.472,82.919 C134.519,79.679 134.487,76.442 134.088,73.22" id="Fill-63" fill="#FF9397"></path>
                <path d="M6.428,6.883 C8.973,5.975 11.397,4.997 13.891,4.255 C15.67,3.726 17.535,3.468 19.374,3.167 C22.891,2.594 26.427,2.437 29.966,2.97 C30.946,3.117 31.945,3.277 32.874,3.608 C35.154,4.421 37.402,5.331 39.656,6.217 C40,6.352 40.333,6.539 40.639,6.747 C45.041,9.734 48.712,13.367 50.895,18.323 C51.445,19.576 52.095,20.787 52.597,22.056 C53.235,23.673 53.811,25.317 54.337,26.973 C54.977,28.987 55.544,31.024 56.128,33.056 C56.26,33.518 56.331,33.997 56.461,34.621 C55.605,34.287 55.268,33.711 54.877,33.157 C54.198,32.195 53.523,31.219 52.742,30.343 C48.681,25.796 43.902,22.158 38.531,19.285 C36.997,18.463 35.481,17.604 33.948,16.781 C33.188,16.372 32.426,15.905 31.356,16.325 C31.511,16.548 31.592,16.776 31.753,16.88 C32.688,17.49 33.643,18.069 34.588,18.662 C35.219,19.058 35.827,19.497 36.479,19.856 C39.979,21.789 43.17,24.171 46.271,26.67 C48.504,28.47 50.437,30.591 52.315,32.754 C52.518,32.987 52.708,33.244 52.846,33.52 C53.386,34.593 54.16,35.474 55.021,36.295 C55.264,36.525 55.441,36.827 55.495,37.279 C54.898,36.998 54.3,36.722 53.704,36.438 C50.77,35.042 47.737,33.956 44.505,33.491 C43.829,33.394 43.147,33.271 42.468,33.267 C39.232,33.24 35.999,33.245 32.763,33.25 C31.381,33.252 30.039,33.552 28.743,33.99 C27.751,34.325 26.947,34.131 26.133,33.52 C23.581,31.599 21.313,29.444 19.547,26.731 C17.812,24.063 16.227,21.33 14.938,18.423 C14.202,16.76 13.151,15.292 12.095,13.83 C11.073,12.419 10.054,11.005 8.965,9.645 C8.233,8.731 7.383,7.913 6.428,6.883" id="Fill-64" fill="#72C229"></path>
                <path d="M59.372,137.996 C61.146,137.972 62.578,138.422 64.119,138.548 C64.276,138.959 64.479,139.342 64.567,139.749 C65.01,141.801 65.734,143.791 65.76,145.938 C65.772,146.909 66.182,147.853 66.227,148.856 C66.261,149.623 66.803,150.248 67.417,150.671 C68.687,151.545 69.842,152.594 71.299,153.198 C72.464,153.68 73.438,154.459 74.193,155.474 C74.446,155.813 74.681,156.218 74.76,156.625 C75.068,158.217 74.303,159.195 72.646,159.518 C71.869,159.669 71.037,159.555 70.231,159.523 C69.995,159.516 69.724,159.438 69.537,159.3 C68.243,158.348 66.917,157.417 66.232,155.88 C65.553,154.354 64.84,152.838 64.229,151.285 C63.372,149.095 62.591,146.874 61.784,144.665 C61.188,143.035 60.603,141.401 60.013,139.77 C59.827,139.253 59.64,138.736 59.372,137.996" id="Fill-65" fill="#EA9F4A"></path>
                <path d="M98.284,134.753 C99.645,134.073 100.951,133.42 102.467,132.662 C101.963,134.251 102.031,135.748 101.418,137.13 C100.41,139.402 99.583,141.739 99.159,144.204 C99.064,144.748 98.854,145.277 98.647,145.795 C98.391,146.438 98.253,147.081 98.254,147.782 C98.266,149.859 97.721,151.826 96.866,153.7 C96.458,154.599 95.962,155.469 95.419,156.295 C94.323,157.965 92.639,158.257 90.823,158.045 C89.936,157.939 89.4,156.979 89.705,156.04 C90.09,154.849 90.682,153.715 91.698,152.96 C92.464,152.392 93.127,151.788 93.59,150.957 C93.681,150.797 93.791,150.622 93.941,150.527 C95.38,149.606 95.84,148.129 96.069,146.592 C96.459,143.95 97.142,141.372 97.658,138.758 C97.91,137.482 98.063,136.188 98.284,134.753" id="Fill-66" fill="#EA9F4A"></path>
                <path d="M38.968,90.183 C39.772,90.26 40.593,90.256 41.373,90.438 C41.958,90.573 42.549,90.864 43.027,91.229 C43.9,91.897 44.064,93.334 43.452,94.271 C42.427,95.84 41.051,96.992 39.21,97.418 C37.881,97.725 36.515,97.889 35.156,98.033 C33.87,98.167 32.719,97.741 31.646,97.021 C29.8,95.785 30.1,93.301 31.502,92.215 C31.938,91.879 32.451,91.617 32.968,91.418 C35.374,90.493 36.599,90.242 38.968,90.183" id="Fill-67" fill="#FF5475"></path>
                <path d="M106.826,87.152 C109.168,86.823 111.384,87.08 113.58,87.523 C114.816,87.771 115.916,88.38 116.925,89.104 C117.952,89.843 117.917,91.12 116.879,91.951 C115.985,92.669 114.942,93.047 113.786,93.079 C111.8,93.133 109.825,93.106 107.864,92.671 C106.458,92.359 105.648,91.366 104.947,90.278 C104.524,89.628 104.85,88.94 105.358,88.422 C105.791,87.983 106.289,87.611 106.826,87.152" id="Fill-68" fill="#FF5475"></path>
                <path d="M17.235,116.354 C17.102,116.395 16.968,116.435 16.834,116.475 C17.086,118.004 17.231,119.561 17.618,121.056 C18.012,122.579 18.757,124.016 20.206,124.801 C22.466,126.024 24.871,126.858 27.493,126.85 C27.78,126.849 28.135,126.877 28.138,126.439 C26.784,125.423 25.395,124.468 24.109,123.393 C22.871,122.354 21.696,121.232 20.569,120.073 C19.41,118.88 18.343,117.598 17.235,116.354 Z M98.284,134.753 C98.063,136.188 97.91,137.482 97.658,138.758 C97.142,141.372 96.459,143.95 96.069,146.592 C95.84,148.129 95.38,149.606 93.941,150.527 C93.791,150.622 93.681,150.797 93.59,150.957 C93.127,151.788 92.464,152.392 91.698,152.96 C90.682,153.715 90.09,154.849 89.705,156.04 C89.4,156.979 89.936,157.939 90.823,158.045 C92.639,158.257 94.323,157.965 95.419,156.295 C95.962,155.469 96.458,154.599 96.866,153.7 C97.721,151.826 98.266,149.859 98.254,147.782 C98.253,147.081 98.391,146.438 98.647,145.795 C98.854,145.277 99.064,144.748 99.159,144.204 C99.583,141.739 100.41,139.402 101.418,137.13 C102.031,135.748 101.963,134.251 102.467,132.662 C100.951,133.42 99.645,134.073 98.284,134.753 Z M124.357,117.34 C125.092,117.68 125.825,117.449 126.533,117.29 C127.865,116.989 129.167,116.537 130.508,116.303 C132.06,116.031 133.268,115.281 134.262,114.109 C134.342,114.016 134.43,113.925 134.521,113.842 C135.147,113.268 135.447,112.526 135.57,111.712 C135.637,111.284 135.637,110.845 135.659,110.411 C135.805,107.537 135.124,104.738 134.871,101.9 C134.821,101.333 134.349,100.566 133.625,99.626 C133.466,99.918 133.304,100.168 133.186,100.436 C132.233,102.596 131.218,104.73 130.371,106.93 C129.78,108.464 128.888,109.785 127.904,111.046 C126.479,112.872 125.501,114.949 124.363,116.94 C124.312,117.031 124.357,117.18 124.357,117.34 Z M59.372,137.996 C59.64,138.736 59.827,139.253 60.013,139.77 C60.603,141.401 61.188,143.035 61.784,144.665 C62.591,146.874 63.372,149.095 64.229,151.285 C64.84,152.838 65.553,154.354 66.232,155.88 C66.917,157.417 68.243,158.348 69.537,159.3 C69.724,159.438 69.995,159.516 70.231,159.523 C71.037,159.555 71.869,159.669 72.646,159.518 C74.303,159.195 75.068,158.217 74.76,156.625 C74.681,156.218 74.446,155.813 74.193,155.474 C73.438,154.459 72.464,153.68 71.299,153.198 C69.842,152.594 68.687,151.545 67.417,150.671 C66.803,150.248 66.261,149.623 66.227,148.856 C66.182,147.853 65.772,146.909 65.76,145.938 C65.734,143.791 65.01,141.801 64.567,139.749 C64.479,139.342 64.276,138.959 64.119,138.548 C62.578,138.422 61.146,137.972 59.372,137.996 Z M6.428,6.883 C7.383,7.913 8.233,8.731 8.965,9.645 C10.054,11.005 11.073,12.419 12.095,13.83 C13.151,15.292 14.202,16.76 14.938,18.423 C16.227,21.33 17.812,24.063 19.547,26.731 C21.313,29.444 23.581,31.599 26.133,33.52 C26.947,34.131 27.751,34.325 28.743,33.99 C30.039,33.552 31.381,33.252 32.763,33.25 C35.999,33.245 39.232,33.24 42.468,33.267 C43.147,33.271 43.829,33.394 44.505,33.491 C47.737,33.956 50.77,35.042 53.704,36.438 C54.3,36.722 54.898,36.998 55.495,37.279 C55.441,36.827 55.264,36.525 55.021,36.295 C54.16,35.474 53.386,34.593 52.846,33.52 C52.708,33.244 52.518,32.987 52.315,32.754 C50.437,30.591 48.504,28.47 46.271,26.67 C43.17,24.171 39.979,21.789 36.479,19.856 C35.827,19.497 35.219,19.058 34.588,18.662 C33.643,18.069 32.688,17.49 31.753,16.88 C31.592,16.776 31.511,16.548 31.356,16.325 C32.426,15.905 33.188,16.372 33.948,16.781 C35.481,17.604 36.997,18.463 38.531,19.285 C43.902,22.158 48.681,25.796 52.742,30.343 C53.523,31.219 54.198,32.195 54.877,33.157 C55.268,33.711 55.605,34.287 56.461,34.621 C56.331,33.997 56.26,33.518 56.128,33.056 C55.544,31.024 54.977,28.987 54.337,26.973 C53.811,25.317 53.235,23.673 52.597,22.056 C52.095,20.787 51.445,19.576 50.895,18.323 C48.712,13.367 45.041,9.734 40.639,6.747 C40.333,6.539 40,6.352 39.656,6.217 C37.402,5.331 35.154,4.421 32.874,3.608 C31.945,3.277 30.946,3.117 29.966,2.97 C26.427,2.437 22.891,2.594 19.374,3.167 C17.535,3.468 15.67,3.726 13.891,4.255 C11.397,4.997 8.973,5.975 6.428,6.883 Z M44.428,113.664 C45.371,112.804 46.029,112.167 46.728,111.579 C47.233,111.153 48.125,111.495 48.159,112.151 C48.188,112.691 48.035,113.243 47.939,113.787 C47.847,114.316 47.31,114.73 47.52,115.398 C47.7,115.341 47.895,115.333 48.014,115.233 C48.533,114.8 49.037,114.344 49.536,113.885 C49.99,113.466 50.47,113.376 50.876,113.668 C51.288,113.963 51.315,114.391 51.245,114.837 C51.149,115.437 50.73,115.815 50.291,116.171 C49.711,116.64 49.108,117.08 48.55,117.572 C48.357,117.743 48.269,118.032 48.105,118.311 C48.854,118.464 49.471,118.562 50.069,118.72 C50.517,118.838 50.771,119.254 50.762,119.714 C50.754,120.165 50.473,120.616 50.068,120.714 C49.709,120.8 49.329,120.79 48.962,120.853 C48.107,120.998 47.204,121.03 46.415,121.347 C45.268,121.807 44.162,122.007 42.917,121.508 C40.868,123.826 38.629,125.87 35.679,127.201 C36.058,127.51 36.265,127.758 36.531,127.881 C38.617,128.851 40.676,129.89 42.814,130.73 C46.575,132.209 50.448,133.372 54.354,134.409 C55.296,134.66 56.243,135.081 57.276,134.862 C57.443,134.827 57.672,134.861 57.81,134.954 C58.594,135.485 59.45,135.407 60.33,135.367 C60.875,135.344 61.432,135.48 61.978,135.578 C62.896,135.742 63.808,136.079 64.724,136.086 C66.721,136.101 68.691,136.202 70.663,136.562 C72.37,136.875 74.139,136.868 75.832,137.233 C77.319,137.553 78.791,137.569 80.28,137.558 C81.96,137.546 83.642,137.459 85.321,137.483 C86.225,137.497 87.001,137.299 87.794,136.848 C89.522,135.86 91.333,135.063 93.239,134.436 C96.139,133.483 98.89,132.163 101.434,130.448 C101.896,130.137 102.385,129.859 102.873,129.583 C107.103,127.18 111.125,124.468 114.979,121.504 C115.917,120.783 116.803,120.017 117.537,119.145 C116.048,118.228 114.979,116.965 113.747,115.774 C113.561,115.786 113.314,115.787 113.071,115.822 C111.476,116.052 109.979,115.666 108.532,115.046 C108.085,114.854 107.674,114.553 107.282,114.254 C106.967,114.01 107.045,113.502 107.389,113.309 C107.834,113.057 108.288,112.917 108.815,113.08 C109.067,113.159 109.356,113.118 109.681,113.135 C109.47,112.456 108.977,112.295 108.53,112.085 C107.328,111.516 106.579,110.379 105.5,109.647 C105.34,109.538 105.306,109.03 105.41,108.798 C105.509,108.581 105.859,108.398 106.125,108.358 C106.413,108.315 106.741,108.417 107.03,108.518 C107.69,108.746 108.228,109.164 108.692,109.684 C108.86,109.871 109.08,109.997 109.35,109.728 C109.228,109.524 109.102,109.313 108.979,109.101 C108.441,108.189 107.892,107.286 107.375,106.363 C107.116,105.896 107.187,105.413 107.475,105.156 C107.771,104.896 108.317,104.814 108.688,105.122 C109.205,105.553 109.657,106.067 110.106,106.575 C110.354,106.855 110.444,107.292 111.096,107.508 C110.854,106.723 110.662,106.144 110.501,105.557 C110.32,104.899 110.115,104.24 110.029,103.569 C110.001,103.34 110.248,102.952 110.47,102.85 C110.698,102.743 111.137,102.789 111.323,102.953 C111.637,103.226 111.885,103.62 112.05,104.01 C112.583,105.271 113.071,106.55 113.567,107.826 C113.757,108.317 113.907,108.828 114.176,109.289 C114.704,108.993 114.551,108.584 114.521,108.242 C114.464,107.561 114.3,106.886 114.274,106.204 C114.259,105.725 114.342,105.221 114.485,104.759 C114.623,104.316 115.282,104.266 115.553,104.637 C115.66,104.785 115.777,104.94 115.834,105.111 C116.703,107.82 116.944,110.565 116.291,113.39 C117.072,115.084 118.368,116.17 120.274,116.657 C121.408,115.659 122.367,114.449 123.226,113.157 C123.878,112.175 124.516,111.182 125.116,110.167 C125.875,108.882 126.651,107.601 127.311,106.264 C129.156,102.523 130.713,98.658 132.241,94.778 C133.747,90.958 134.413,87.003 134.472,82.919 C134.519,79.679 134.487,76.442 134.088,73.22 C133.736,70.379 133.422,67.534 133.024,64.7 C132.354,59.937 130.359,55.653 128.082,51.485 C127.755,50.886 127.379,50.303 126.951,49.773 C124.327,46.533 121.971,43.091 119.156,39.99 C116.965,37.576 114.644,35.354 112.017,33.44 C108.926,31.188 105.628,29.342 101.903,28.352 C99.92,27.825 97.934,27.309 95.938,26.835 C93.987,26.372 91.99,26.284 89.996,26.397 C87.76,26.524 85.521,26.697 83.296,26.95 C78.771,27.467 74.304,28.246 70.116,30.169 C69.007,30.678 67.765,30.917 67.038,32.071 C66.856,32.357 66.409,32.464 66.124,32.701 C65.602,33.14 65.104,33.607 64.605,34.074 C64.337,34.327 64.105,34.624 63.829,34.868 C63.04,35.568 62.184,36.2 61.453,36.954 C60.695,37.738 59.943,38.549 59.245,39.564 C60.256,40.256 61.173,40.888 62.093,41.515 C64.009,42.822 65.737,44.334 67.172,46.164 C67.863,47.047 68.542,47.94 69.256,48.804 C70.908,50.796 72.032,53.065 72.925,55.479 C74.485,59.694 75.634,64.004 76.379,68.445 C77.281,73.827 77.389,79.222 77.051,84.644 C77.016,85.199 76.947,85.773 76.764,86.292 C76.458,87.156 75.898,87.763 74.842,87.689 C74.513,84.395 74.4,81.164 74.432,77.925 C74.446,76.432 74.429,74.93 74.283,73.446 C73.689,67.408 72.364,61.531 70.224,55.848 C69.674,54.39 69.072,52.951 68.128,51.692 C67.082,50.298 66.021,48.915 64.951,47.54 C63.793,46.052 62.391,44.822 60.853,43.745 C59.781,42.995 58.71,42.245 57.617,41.528 C56.544,40.824 55.408,40.219 54.306,39.564 C51.731,38.037 48.974,36.813 46.019,36.266 C43.095,35.725 40.127,35.416 37.172,35.069 C36.251,34.963 35.306,35.082 34.371,35.079 C33.237,35.073 32.154,35.281 31.085,35.673 C29.924,36.1 28.733,36.431 27.526,36.737 C25.242,37.317 22.969,38.012 20.979,39.372 C18.735,40.908 16.393,42.301 14.444,44.245 C13.524,45.163 12.456,45.933 11.452,46.766 C10.624,47.454 9.981,48.28 9.526,49.258 C8.712,51.004 7.896,52.75 6.715,54.295 C6.377,54.738 6.055,55.198 5.768,55.676 C5.55,56.038 5.382,56.435 5.223,56.828 C5.062,57.23 4.96,57.658 4.798,58.06 C3.766,60.607 2.905,63.19 2.938,65.994 C2.947,66.736 2.811,67.481 2.746,68.226 C2.636,69.473 2.685,70.708 2.941,71.942 C3.104,72.73 3.177,73.539 3.259,74.342 C3.428,76.011 3.498,77.694 3.744,79.353 C4.557,84.85 5.939,90.211 7.906,95.404 C8.786,97.73 9.865,99.98 10.821,102.279 C11.208,103.209 11.698,104.06 12.31,104.854 C13.108,105.891 13.868,106.955 14.644,108.008 C16.057,108.637 16.21,110.152 16.936,111.268 C17.037,111.423 17.155,111.569 17.272,111.716 C18.552,113.321 19.795,114.961 21.124,116.525 C23.269,119.053 25.698,121.283 28.432,123.166 C28.994,123.553 29.598,124.144 30.193,124.154 C31.186,124.177 31.79,124.681 32.435,125.241 C32.928,125.674 33.418,125.609 33.985,125.354 C36.818,124.081 39.22,122.271 41.128,119.741 C40.349,117.973 39.738,116.154 39.423,114.248 C39.363,113.889 39.279,113.497 39.365,113.159 C39.428,112.91 39.716,112.611 39.962,112.544 C40.205,112.478 40.62,112.59 40.781,112.777 C41.135,113.185 41.376,113.692 41.772,114.336 C41.921,113.823 42.076,113.497 42.103,113.159 C42.16,112.477 42.125,111.789 42.171,111.104 C42.23,110.177 42.691,109.603 43.282,109.654 C43.831,109.702 44.231,110.189 44.313,111.029 C44.385,111.768 44.382,112.513 44.428,113.664 Z M24.501,35.214 C24.188,34.885 24.045,34.693 23.862,34.551 C21.289,32.539 19.134,30.179 17.381,27.397 C15.849,24.968 14.448,22.488 13.236,19.888 C12.712,18.763 12.127,17.651 11.432,16.627 C9.997,14.517 8.476,12.467 6.976,10.401 C6.721,10.051 6.411,9.738 6.104,9.429 C4.987,8.303 4.984,8.306 4.603,6.581 C4.955,5.859 5.638,5.548 6.321,5.24 C11.466,2.929 16.8,1.283 22.447,0.858 C26.948,0.519 31.411,0.703 35.675,2.447 C36.193,2.659 36.726,2.832 37.254,3.02 C44.507,5.598 49.544,10.599 52.93,17.392 C53.54,18.618 54.132,19.856 54.652,21.12 C55.268,22.614 55.873,24.12 56.344,25.663 C57.218,28.517 57.989,31.402 58.815,34.271 C58.862,34.437 59.021,34.569 59.152,34.75 C59.981,34.382 60.609,33.767 61.233,33.178 C63.532,31.005 66.184,29.426 69.149,28.354 C69.441,28.249 69.731,28.135 70.013,28.003 C73.489,26.372 77.188,25.553 80.968,25.082 C83.992,24.704 87.027,24.396 90.063,24.137 C92.368,23.94 94.675,24.071 96.93,24.629 C99.343,25.227 101.754,25.837 104.138,26.537 C106.843,27.331 109.314,28.624 111.679,30.165 C115.144,32.425 118.215,35.09 121,38.165 C123.891,41.358 126.386,44.853 129.098,48.18 C129.529,48.708 129.921,49.28 130.255,49.875 C132.604,54.067 134.688,58.361 135.624,63.136 C136.166,65.891 136.56,68.655 136.779,71.452 C136.896,72.94 137.09,74.424 137.216,75.911 C137.508,79.331 137.494,82.754 137.234,86.176 C137.001,89.233 136.429,92.217 135.301,95.081 C135.097,95.597 134.952,96.134 134.762,96.713 C135,97.023 135.216,97.314 135.443,97.601 C136.387,98.792 137.042,100.067 137.202,101.636 C137.396,103.547 137.856,105.431 138.09,107.34 C138.317,109.193 138.4,111.061 137.974,112.913 C137.759,113.848 137.355,114.668 136.709,115.373 C136.624,115.465 136.543,115.559 136.458,115.651 C134.268,118.079 134.268,118.079 131.028,118.933 C130.126,119.171 129.204,119.346 128.323,119.646 C126.332,120.317 124.289,120.438 122.236,120.208 C121.043,120.073 120.308,120.527 119.472,121.332 C118.001,122.748 116.361,123.999 114.727,125.23 C112.84,126.65 110.891,127.986 108.949,129.328 C108.495,129.642 107.966,129.857 107.454,130.076 C106.767,130.367 106.063,130.616 105.291,130.915 C104.602,132.337 104.234,133.9 103.884,135.469 C103.695,136.314 103.558,137.18 103.268,137.99 C102.447,140.275 101.553,142.531 101.194,144.955 C101.123,145.438 100.912,145.909 100.719,146.366 C100.371,147.181 100.278,148.026 100.192,148.902 C99.869,152.178 98.757,155.171 96.813,157.854 C95.317,159.918 92.075,160.52 90.059,159.978 C88.193,159.478 87.071,157.465 87.671,155.548 C88.18,153.923 89.049,152.461 90.415,151.403 C91.062,150.901 91.633,150.374 92.133,149.729 C92.508,149.246 93.012,148.862 93.567,148.33 C93.889,146.515 94.229,144.558 94.588,142.604 C94.668,142.18 94.784,141.752 94.945,141.352 C95.597,139.723 95.75,137.985 96.167,136.379 C95.896,135.999 95.676,136.186 95.465,136.28 C94.616,136.665 93.788,137.097 92.922,137.437 C91.307,138.074 89.835,139.013 88.187,139.584 C86.234,140.261 84.284,140.763 82.179,140.643 C79.825,140.507 77.477,140.394 75.18,139.788 C74.767,139.68 74.312,139.74 73.88,139.687 C73.388,139.626 72.858,139.62 72.419,139.424 C70.493,138.563 68.516,139.198 66.508,138.934 C66.551,140.346 66.941,141.466 67.25,142.594 C67.465,143.378 67.579,144.157 67.653,144.97 C67.757,146.134 67.985,147.297 68.268,148.434 C68.36,148.809 68.728,149.193 69.073,149.411 C70.171,150.104 71.148,150.963 72.362,151.509 C73.848,152.177 75.08,153.229 76.041,154.592 C78.045,157.425 76.49,161.072 72.993,161.71 C71.907,161.906 70.758,161.787 69.64,161.753 C69.283,161.742 68.892,161.6 68.586,161.406 C67.384,160.647 66.223,159.847 65.312,158.708 C63.815,156.842 63.366,154.601 62.789,152.214 C61.901,151.616 61.427,150.561 61.053,149.41 C60.111,146.516 59.127,143.633 58.146,140.752 C57.807,139.757 57.425,138.778 57.062,137.791 C55.763,137.479 54.568,137.119 53.347,136.916 C51.796,136.658 50.346,136.124 48.894,135.565 C46.921,134.805 44.967,133.987 42.96,133.327 C40.281,132.445 37.845,131.066 35.346,129.81 C35.068,129.671 34.784,129.538 34.525,129.368 C33.542,128.723 32.584,128.594 31.374,128.911 C28.871,129.569 26.309,129.445 23.805,128.749 C22.788,128.466 21.793,128.101 20.799,127.74 C17.56,126.565 15.822,124.128 15.18,120.855 C14.76,118.717 14.445,116.55 14.605,114.36 C14.682,113.303 14.37,112.457 13.739,111.616 C12.356,109.773 11.055,107.873 9.732,105.988 C9.411,105.53 9.061,105.074 8.843,104.567 C7.247,100.854 5.493,97.201 4.29,93.327 C2.681,88.146 1.478,82.872 0.863,77.479 C0.723,76.245 0.725,74.991 0.72,73.747 C0.711,71.319 0.7,68.888 0.78,66.463 C0.818,65.287 0.994,64.105 1.226,62.95 C1.85,59.836 2.725,56.785 3.707,53.765 C3.98,52.924 4.338,52.165 5.064,51.585 C5.436,51.286 5.698,50.832 5.966,50.421 C7.882,47.483 10.076,44.771 12.81,42.564 C15.473,40.413 18.241,38.387 21.213,36.676 C22.173,36.123 23.245,35.764 24.501,35.214 Z" id="Fill-69" fill="#542033"></path>
                <path d="M63.258,100.645 C62.601,100.91 62.105,101.176 61.575,101.299 C61.326,101.357 60.964,101.203 60.742,101.03 C60.415,100.773 60.365,100.294 60.597,100.015 C61.422,99.019 62.267,98.011 63.725,97.94 C64.362,97.909 64.802,98.142 65.034,98.749 C65.774,100.69 67.055,102.306 68.19,104.011 C68.516,104.501 68.9,104.871 69.438,105.072 C70.481,105.461 71.516,105.887 72.586,106.184 C73.599,106.465 74.647,106.636 75.69,106.785 C76.17,106.855 76.706,106.861 77.162,106.719 C79.467,106.006 81.384,104.637 83.018,102.905 C83.505,102.387 83.793,101.632 84.032,100.938 C84.331,100.068 84.485,99.146 84.702,98.249 C84.717,98.188 84.723,98.125 84.741,98.066 C85.335,96.155 86.552,95.686 88.302,96.676 C88.746,96.928 89.153,97.182 89.286,97.721 C89.479,98.515 89.147,99.172 88.346,99.497 C88.121,99.588 87.864,99.598 87.492,99.671 C87.292,100.187 87.018,100.74 86.861,101.328 C86.238,103.651 84.925,105.424 82.902,106.755 C81.604,107.609 80.338,108.459 78.883,109.06 C77.67,109.562 76.451,109.667 75.234,109.472 C73.586,109.208 71.97,108.748 70.344,108.354 C69.984,108.268 69.63,108.133 69.293,107.979 C67.807,107.302 66.473,106.503 65.716,104.904 C65.03,103.456 64.118,102.115 63.258,100.645" id="Fill-70" fill="#542033"></path>
                <path d="M45.383,85.16 C44.907,84.928 44.396,84.703 43.91,84.434 C43.243,84.065 42.693,83.571 42.397,82.844 C42.223,82.421 42.332,81.917 42.65,81.645 C42.953,81.381 43.48,81.365 43.866,81.646 C44.454,82.074 44.883,82.774 45.774,82.719 C45.855,82.569 46.007,82.414 46.02,82.248 C46.135,80.815 47.295,80.368 48.314,79.812 C48.917,79.48 49.579,79.594 49.993,80.151 C50.353,80.635 50.754,81.224 50.789,81.787 C50.889,83.457 50.865,85.139 50.789,86.812 C50.752,87.617 50.102,88.149 49.308,88.242 C48.879,88.293 48.442,88.274 48.01,88.312 C46.76,88.42 46.522,88.305 46.035,87.138 C45.798,86.567 45.645,85.965 45.383,85.16" id="Fill-71" fill="#542033"></path>
                <path d="M103.498,78.831 C103.454,79.474 103.43,80.089 103.363,80.699 C103.27,81.567 103.056,82.399 102.563,83.145 C102.079,83.876 101.418,84.237 100.552,84.287 C99.064,84.372 98.32,83.772 98.26,82.288 C98.204,80.929 98.191,79.563 98.266,78.204 C98.353,76.594 99.747,75.358 101.248,75.591 C101.87,75.686 102.438,76.122 103.12,76.446 C103.603,76.077 104.135,75.658 104.68,75.254 C104.927,75.072 105.176,74.843 105.458,74.779 C105.725,74.719 106.113,74.756 106.304,74.918 C106.496,75.084 106.619,75.476 106.575,75.734 C106.516,76.075 106.313,76.425 106.082,76.695 C105.806,77.02 105.437,77.268 105.101,77.539 C104.576,77.969 104.047,78.39 103.498,78.831" id="Fill-72" fill="#542033"></path>
            </g>
        </g>
    </g>
</svg>