<?xml version="1.0" encoding="UTF-8"?>
<svg width="478px" height="470px" viewBox="0 0 478 470" version="1.1" xmlns="http://www.w3.org/2000/svg" xmlns:xlink="http://www.w3.org/1999/xlink">
    <!-- Generator: Sketch 49.3 (51167) - http://www.bohemiancoding.com/sketch -->
    <title>图层 3 (3)</title>
    <desc>Created with Sketch.</desc>
    <defs></defs>
    <g id="Page-1" stroke="none" stroke-width="1" fill="none" fill-rule="evenodd">
        <g id="图层-3-(3)">
            <path d="M227.14,172.49 C232.14,172.78 237.14,172.49 242.06,172.7 C244.06,172.63 246.15,172.55 248.17,172.39 C255.068768,171.879104 261.937455,171.021353 268.75,169.82 C280.666096,167.65385 292.304305,164.169095 303.45,159.43 C298.08,149.94 292.1,141.43 283.45,134.54 C274.4,127.28 264.11,122.54 253.02,119.36 C250.37,123.36 243.85,124.05 239.49,124.04 C234.84,124.04 227.31,123.8 224.44,119.32 C224.403223,119.345884 224.362773,119.366109 224.32,119.38 C213.22,122.59 202.93,127.29 193.88,134.56 C185.25,141.49 179.27,149.96 173.88,159.46 C184.630825,164.142418 195.846462,167.675378 207.34,170 C213.877331,171.269095 220.491998,172.10094 227.14,172.49 Z" id="Shape" fill="#FCD920" fill-rule="nonzero"></path>
            <path d="M169.48,166.77 C172.396874,169.438102 175.789042,171.534462 179.48,172.95 C186.21,175.82 193.61,177.59 200.74,179.18 C208.709767,180.97044 216.808118,182.130691 224.96,182.65 C228.51,182.88 232.04,182.87 235.56,182.8 C249.03,181.8 262.42,181.8 275.82,179.16 C282.905585,177.894818 289.865855,176.007514 296.62,173.52 C300.561944,172.101578 304.214269,169.980655 307.4,167.26 C310.26,164.66 313.77,159.43 306.53,160.42 C306.466765,160.42498 306.403235,160.42498 306.34,160.42 C294.733506,166.232912 282.338871,170.316167 269.55,172.54 C263.08,173.73 256.55,174.54 250,175.14 C245.286551,175.647484 240.550581,175.917825 235.81,175.95 C226.35,176.3 216.29,174.61 207.51,172.9 C194.804709,170.506406 182.509138,166.300115 171,160.41 C170.940122,160.415411 170.879878,160.415411 170.82,160.41 C168.24,160.06 165.72,160.47 166.73,163.41 C167.401564,164.710018 168.338411,165.854675 169.48,166.77 Z" id="Shape" fill="#FCD920" fill-rule="nonzero"></path>
            <path d="M143,256.65 C142.65,272.7 131.61,283.13 117.24,289.41 C109.94,292.6 102.96,295.41 97.43,301.41 C93.75,305.41 92.81,309.76 92.66,314.49 C96.87,307.86 108.27,304.49 114.92,304.74 C115.549344,304.758122 116.092791,305.185729 116.258451,305.79315 C116.424111,306.40057 116.173004,307.044874 115.64,307.38 C106.93,312.38 103,323.11 109.15,331.55 C109.52,326.29 110.91,321.46 114.68,317.44 C119.48,312.32 125.9,308.74 131.98,305.38 C146.09,297.56 162.76,288.87 163.72,270.66 C163.733371,270.533206 163.76364,270.40877 163.81,270.29 C162.07,266.85 160.41,263.36 158.81,259.84 C153.340088,260.371481 147.835873,259.26089 143,256.65 Z" id="Shape" fill="#E53B51" fill-rule="nonzero"></path>
            <path d="M228.9,119.88 C231.99,121.58 235.31,121.27 238.67,121.28 C242.03,121.29 246.42,121.7 249.28,119.16 C253.86,115.09 248.89,110.4 246.83,106.86 C244.408866,102.953719 243.111344,98.455643 243.08,93.86 C241.08,92.66 239.15,91.45 237.23,90.18 C236.34,90.91 235.43,91.63 234.52,92.34 C234.461125,97.4326242 233.053312,102.418629 230.44,106.79 C229.64,108.17 228.39,109.46 227.71,110.9 C226.44,113.59 225.76,118.17 228.9,119.88 Z" id="Shape" fill="#FCD920" fill-rule="nonzero"></path>
            <path d="M331.34,185.86 C338.82,186.54 342.25,194.16 343.22,200.67 C345.22,214.25 341.89,237.02 326.57,242.23 C324.24,247.23 321.99,252.32 319.7,257.37 C345.05,257.85 354.2,225.43 354.95,205.03 C355.39,192.84 353.32,179.73 341.53,173.59 C336.821403,171.173845 331.568011,170.016376 326.28,170.23 C318.68,170.55 314.28,173.97 309.98,179.88 C309.731283,185.462067 309.156973,191.02486 308.26,196.54 C316.78,200.31 322.31,185 331.34,185.86 Z" id="Shape" fill="#FCD920" fill-rule="nonzero"></path>
            <path d="M206.29,258.45 C212.520677,261.805171 219.192884,264.26601 226.11,265.76 C230.259115,266.556398 234.466544,267.011255 238.69,267.12 C242.853674,267.055827 247.004737,266.6444 251.1,265.89 C263.350041,263.228987 274.72897,257.515444 284.18,249.28 C300.77,226.64 307.45,197.84 307.99,170.14 C303.8,173.59 298.16,175.85 293.54,177.38 C283.606025,180.569835 273.373368,182.741008 263,183.86 C254.413563,184.972577 245.76791,185.566987 237.11,185.64 C229.36151,185.818594 221.611566,185.353664 213.94,184.25 C203.151542,182.914453 192.535373,180.437235 182.27,176.86 C178.2,175.41 173.18,173.27 169.35,170.14 C169.9,197.89 176.6,226.73 193.24,249.37 C197.235623,252.87661 201.613167,255.922442 206.29,258.45 Z" id="Shape" fill="#FCD920" fill-rule="nonzero"></path>
            <path d="M237.63,88.12 C237.759978,88.1273394 237.888096,88.1543116 238.01,88.2 C242.25,90.01 246.14,92.66 250.06,95.07 C251.52,95.96 253.22,96.8 254.76,97.8 C253.87,95.69 253.1,93.53 252.35,91.38 C251.29,88.32 249.98,85.13 249.7,81.87 C249.506637,81.6159402 249.506637,81.2640598 249.7,81.01 C249.7,81.01 249.7,81.01 249.7,80.96 C249.690588,80.5635868 249.962887,80.2158816 250.35,80.13 C252.218737,77.7515272 254.311688,75.5581151 256.6,73.58 C258.29,72.07 260.06,70.45 261.94,69.07 C256.077077,68.8924499 250.234912,68.2875118 244.46,67.26 L244.4,67.26 C244.037631,67.24114 243.718477,67.0153967 243.58,66.68 C242.12,63.68 241.24,60.35 240.09,57.19 C239.09,54.51 237.98,51.85 237.09,49.13 C234.37,54.42 232.69,59.23 230.26,65.13 C230.01,65.73 229.81,66.66 229,66.82 C223.480908,67.9228793 217.876593,68.5452093 212.25,68.68 C214.25,70.14 216.13,71.79 218.05,73.32 C220.803232,75.3067978 223.409961,77.4890975 225.85,79.85 C225.85,79.85 225.85,79.85 225.85,79.85 C226.325053,80.0153072 226.603389,80.5077475 226.5,81 C225.66,84.91 223.71,88.6 222.19,92.28 C221.06,95.01 220.26,97.85 219.32,100.63 C221.44,98.87 223.84,97.32 225.96,95.76 L236.48,88 C236.839518,87.7472231 237.330412,87.7984469 237.63,88.12 Z" id="Shape" fill="#FCD920" fill-rule="nonzero"></path>
            <path d="M150.77,242.23 C135.45,237.02 132.09,214.23 134.11,200.67 C135.11,194.13 138.61,186.37 146.19,185.83 C155.06,185.21 160.63,200.27 169.09,196.55 C168.188107,191.035514 167.613767,185.472432 167.37,179.89 C162.87,173.74 158.14,170.29 150.22,170.21 C144.98189,170.148704 139.816175,171.436689 135.22,173.95 C123.87,180.22 122,193.1 122.39,205 C123.14,225.41 132.29,257.85 157.67,257.34 C155.37,252.32 153.11,247.25 150.77,242.23 Z" id="Shape" fill="#FCD920" fill-rule="nonzero"></path>
            <path d="M325.06,240.07 L325.5,239.44 C318.4,235.38 309.72,229.29 301.27,232.97 C294.36,245.41 283,255.64 270.38,262.06 C262.734978,266.004781 254.501846,268.686121 246,270 C232.82,272.39 216.9,267.42 205.53,261.34 C193.53,254.91 182.7,244.96 176.05,232.99 C167.6,229.31 158.92,235.4 151.82,239.46 L152.26,240.09 C152.455396,240.242816 152.598633,240.452431 152.67,240.69 C163.54,257 166.2,278.11 182.91,290.47 C199.62,302.83 222.09,306.91 242.61,306.73 C260.33,305.27 278.14,301.73 293.01,291.46 C310.82,279.12 313.38,257.46 324.66,240.67 C324.723542,240.431372 324.864167,240.220434 325.06,240.07 Z" id="Shape" fill="#E53B51" fill-rule="nonzero"></path>
            <path d="M234.35,309.56 C232.463333,309.48 230.566667,309.343333 228.66,309.15 C228.74,314.66 228.5,320.15 229.59,325.63 C230.21,328.76 231.19,332.02 233.59,334.24 C235.99,336.46 238.48,336.41 241.32,335.92 C249.32,332.59 248.6,317.64 248.69,309.27 C243.923825,309.722476 239.130572,309.81941 234.35,309.56 Z" id="Shape" fill="#FCD920" fill-rule="nonzero"></path>
            <path d="M360.1,289.41 C345.73,283.13 334.69,272.7 334.34,256.65 C329.517965,259.237043 324.036126,260.333411 318.59,259.8 C316.96,263.33 315.29,266.8 313.53,270.25 C313.57636,270.36877 313.606629,270.493206 313.62,270.62 C314.62,288.82 331.25,297.52 345.37,305.34 C351.44,308.7 357.86,312.27 362.66,317.4 C366.43,321.4 367.82,326.25 368.19,331.51 C374.34,323.07 370.42,312.37 361.71,307.34 C361.178261,307.005967 360.926657,306.36412 361.089743,305.757715 C361.252829,305.15131 361.792442,304.722253 362.42,304.7 C369.05,304.46 380.42,307.81 384.66,314.42 C384.49,309.56 383.47,305.12 379.59,301.03 C374.09,295.25 367.26,292.54 360.1,289.41 Z" id="Shape" fill="#E53B51" fill-rule="nonzero"></path>
            <path d="M267.89,376.77 C261.66,376.77 255.44,376.77 249.21,376.77 C245.73,376.77 242.21,376.93 238.64,376.9 C235.07,376.87 231.58,376.77 228.13,376.77 C221.9,376.77 215.67,376.77 209.44,376.77 C197.26,376.77 184.38,377.83 172.24,376.44 C172.69,381.44 172.32,386.59 172.32,391.58 C172.32,397.71 172.6,403.95 171.97,410.05 C184.1,409.05 196.68,409.93 208.83,409.94 C218.72,409.94 228.74,409.57 238.67,409.86 C248.6,409.57 258.61,409.94 268.5,409.94 C280.66,409.94 293.23,409.04 305.36,410.05 C304.74,403.95 305.02,397.71 305.01,391.58 C305.01,386.58 304.64,381.43 305.09,376.44 C293,377.83 280.07,376.75 267.89,376.77 Z" id="Shape" fill="#FCD920" fill-rule="nonzero"></path>
            <path d="M238.92,371.59 C233.913244,371.71157 228.903754,371.524549 223.92,371.03 C220.320183,370.639274 216.773005,369.861443 213.34,368.71 C211.69,368.15 209.26,367.62 208.12,366.14 C207.550395,365.35732 207.204693,364.434295 207.12,363.47 C200.86,363.84 194.05,364.47 187.94,363.41 C185.53,365.09 183.01,366.6 180.64,368.33 C178.27,370.06 176,372.12 173.73,374.07 C185.43,372.91 197.78,373.92 209.48,373.89 C215.71,373.89 221.94,373.89 228.17,373.89 C231.64,373.89 235.17,373.73 238.74,373.77 C242.31,373.81 245.8,373.9 249.25,373.89 C255.48,373.89 261.7,373.89 267.93,373.89 C279.63,373.89 291.98,372.89 303.68,374.07 C301.41,372.12 299.21,370.07 296.78,368.33 C294.35,366.59 291.88,365.09 289.47,363.41 C283.36,364.49 276.55,363.84 270.29,363.47 C270.20883,364.43509 269.862784,365.359035 269.29,366.14 C266.43,369.84 257.72,370.54 253.5,371.03 C248.653534,371.477614 243.786521,371.66455 238.92,371.59 Z" id="Shape" fill="#FCD920" fill-rule="nonzero"></path>
            <path d="M234.31,338.22 C234.170161,338.133256 234.05076,338.017266 233.96,337.88 C232.274384,336.919016 230.846932,335.563623 229.8,333.93 C228.115882,336.016818 226.732436,338.329294 225.69,340.8 C224.69,343.28 224.63,345.9 223.95,348.41 C226.23,351.29 230.18,351.86 233.61,352.1 C237.879105,352.56204 242.189246,352.488132 246.44,351.88 C247.840524,351.654554 249.203327,351.2373 250.49,350.64 C250.92,350.43 253.49,349.01 253.38,348.41 C252.7,345.9 252.63,343.28 251.65,340.8 C250.59504,338.319965 249.201814,335.997923 247.51,333.9 C244.63,338.48 239.53,341.37 234.31,338.22 Z" id="Shape" fill="#FCD920" fill-rule="nonzero"></path>
            <path d="M228.29,353.93 C225.59,353.2 223.29,352.01 222.07,349.73 C221.85709,349.587914 221.70677,349.369593 221.65,349.12 C221.59,348.91 221.56,348.69 221.52,348.48 C216.273343,349.272535 211.973171,353.056686 210.52,358.16 C208.59,364.82 213.83,366.4 219.04,367.48 C223.868668,368.34834 228.778106,368.683684 233.68,368.48 C241.9,368.37 250.15,369.18 258.27,367.48 C263.53,366.39 268.76,364.91 266.79,358.16 C265.325777,353.063674 261.03113,349.284385 255.79,348.48 C255.79,348.69 255.72,348.91 255.67,349.12 C255.610757,349.371205 255.456682,349.589776 255.24,349.73 C253.99,352.01 251.73,353.21 249.02,353.93 C242.232011,355.766402 235.077989,355.766402 228.29,353.93 Z" id="Shape" fill="#FCD920" fill-rule="nonzero"></path>
            <path d="M283.47,134.54 C274.42,127.28 264.13,122.54 253.04,119.36 C252.846805,119.642661 252.636408,119.913171 252.41,120.17 C269.15,126.45 289.8,140.69 293.21,156.85 C281.96,165.6 228.42,172.65 197.5,167.72 C200.76,168.6 204.05,169.38 207.38,170.03 C213.917557,171.295738 220.532223,172.124242 227.18,172.51 C232.18,172.8 237.18,172.51 242.1,172.72 C244.1,172.65 246.19,172.57 248.21,172.41 C255.108768,171.899104 261.977455,171.041353 268.79,169.84 C280.706096,167.67385 292.344305,164.189095 303.49,159.45 C298.08,149.94 292.1,141.46 283.47,134.54 Z" id="Shape" fill="#F29DA8" fill-rule="nonzero" opacity="0.5" style="mix-blend-mode: multiply;"></path>
            <path d="M215.83,179.41 C199.69,177.5 169.33,170.41 167.4,160.71 C166.62,161.14 166.27,161.96 166.76,163.37 C167.418135,164.681582 168.344876,165.840009 169.48,166.77 C172.396874,169.438102 175.789042,171.534462 179.48,172.95 C186.21,175.82 193.61,177.59 200.74,179.18 C208.709767,180.97044 216.808118,182.130691 224.96,182.65 C228.51,182.88 232.04,182.87 235.56,182.8 C249.03,181.8 262.42,181.8 275.82,179.16 C282.905585,177.894818 289.865855,176.007514 296.62,173.52 C300.561944,172.101578 304.214269,169.980655 307.4,167.26 C309.32,165.52 311.52,162.59 310.59,161.15 C292.67,177.41 246.83,183.08 215.83,179.41 Z" id="Shape" fill="#F29DA8" fill-rule="nonzero" opacity="0.5" style="mix-blend-mode: multiply;"></path>
            <path d="M243.08,93.83 C241.08,92.63 239.15,91.42 237.23,90.15 C236.34,90.88 235.43,91.6 234.52,92.31 C234.508267,94.1111509 234.317327,95.9066641 233.95,97.67 C237.430685,97.8901903 240.831494,98.8084088 243.95,100.37 C243.323042,98.2482138 243.029542,96.0419012 243.08,93.83 Z" id="Shape" fill="#F29DA8" fill-rule="nonzero" opacity="0.5" style="mix-blend-mode: multiply;"></path>
            <path d="M328.67,246.58 C346.67,232.58 356.67,198.58 336.67,184.58 C327.67,177.58 320.67,186.58 313.67,192.58 C311.16,187.58 313.53,181.86 312.67,176.58 C311.723942,177.617637 310.839111,178.709485 310.02,179.85 C309.771283,185.432067 309.196973,190.99486 308.3,196.51 C316.84,200.27 322.37,185 331.4,185.82 C338.88,186.5 342.31,194.12 343.28,200.63 C345.28,214.21 341.95,236.98 326.63,242.19 C324.3,247.19 322.05,252.28 319.76,257.33 C320.794926,257.34287 321.829786,257.299473 322.86,257.2 C323.26,253 324.7,249.22 328.67,246.58 Z" id="Shape" fill="#F29DA8" fill-rule="nonzero" opacity="0.5" style="mix-blend-mode: multiply;"></path>
            <path d="M293.54,177.38 C289.54,178.71 285.47,179.82 281.35,180.76 C285.48,182.07 288.74,185.05 289.67,190.58 C292.67,210.58 286.67,229.58 276.67,247.58 C274.174842,252.085895 271.179226,256.29586 267.74,260.13 C268.37,259.83 269,259.52 269.62,259.2 C274.856022,256.493271 279.744952,253.162352 284.18,249.28 C300.77,226.64 307.45,197.84 307.99,170.14 C303.8,173.59 298.16,175.85 293.54,177.38 Z" id="Shape" fill="#F29DA8" fill-rule="nonzero" opacity="0.5" style="mix-blend-mode: multiply;"></path>
            <path d="M134.11,200.67 C135.11,194.13 138.61,186.37 146.19,185.83 C155.06,185.21 160.63,200.27 169.09,196.55 C168.188107,191.035514 167.613767,185.472432 167.37,179.89 C166.329004,178.441451 165.175431,177.077225 163.92,175.81 C163.77,181.68 165.76,189.04 162.8,194.22 C160.05,189.34 154.68,184.59 150.68,183.59 C138.68,179.59 129.68,192.59 129.68,203.59 C128.2,222.05 137.09,241.59 153.11,247.33 C152.34,245.63 151.57,243.93 150.78,242.24 C135.45,237 132.09,214.25 134.11,200.67 Z" id="Shape" fill="#F29DA8" fill-rule="nonzero" opacity="0.5" style="mix-blend-mode: multiply;"></path>
            <path d="M234.35,309.56 C232.463333,309.48 230.566667,309.343333 228.66,309.15 C228.66,309.65 228.66,310.15 228.66,310.67 C234.08,310.98 240.13,312.22 242.66,315.58 C246.03,319.51 246.87,325.66 245.73,331.7 C249.02,325.7 248.59,315.61 248.66,309.27 C243.903768,309.720987 239.120598,309.81792 234.35,309.56 Z" id="Shape" fill="#F29DA8" fill-rule="nonzero" opacity="0.5" style="mix-blend-mode: multiply;"></path>
            <path d="M305,391.58 C305,386.58 304.63,381.43 305.08,376.44 C303.98,376.56 302.86,376.66 301.75,376.75 C302.22,385.68 304.23,394.53 300.66,402.58 C299.66,405.58 295.66,406.58 291.66,406.58 C251.9,406.58 214.91,408.58 172.2,406.94 C172.14,407.94 172.07,409.02 171.96,410.05 C184.09,409.05 196.67,409.93 208.82,409.94 C218.71,409.94 228.73,409.57 238.66,409.86 C248.59,409.57 258.6,409.94 268.49,409.94 C280.65,409.94 293.22,409.04 305.35,410.05 C304.74,404 305,397.71 305,391.58 Z" id="Shape" fill="#F29DA8" fill-rule="nonzero" opacity="0.5" style="mix-blend-mode: multiply;"></path>
            <path d="M238.92,371.59 C233.913244,371.71157 228.903754,371.524549 223.92,371.03 C220.320183,370.639274 216.773005,369.861443 213.34,368.71 C211.69,368.15 209.26,367.62 208.12,366.14 C207.550395,365.35732 207.204693,364.434295 207.12,363.47 C200.86,363.84 194.05,364.47 187.94,363.41 C185.53,365.09 183.01,366.6 180.64,368.33 C178.27,370.06 176,372.12 173.73,374.07 C185.43,372.91 197.78,373.92 209.48,373.89 C215.71,373.89 221.94,373.89 228.17,373.89 C231.64,373.89 235.17,373.73 238.74,373.77 C242.31,373.81 245.8,373.9 249.25,373.89 C255.48,373.89 261.7,373.89 267.93,373.89 C279.63,373.89 291.98,372.89 303.68,374.07 C301.41,372.12 299.21,370.07 296.78,368.33 C294.35,366.59 291.88,365.09 289.47,363.41 C283.36,364.49 276.55,363.84 270.29,363.47 C270.20883,364.43509 269.862784,365.359035 269.29,366.14 C266.43,369.84 257.72,370.54 253.5,371.03 C248.653534,371.477614 243.786521,371.66455 238.92,371.59 Z" id="Shape" fill="#FDEC8F" fill-rule="nonzero"></path>
            <path d="M251.65,340.8 C250.59504,338.319965 249.201814,335.997923 247.51,333.9 C245.72,336.74 243.08,338.9 240.09,339.43 C245.24,341.73 249.73,345.93 248.59,351.37 C249.241653,351.177327 249.876982,350.933227 250.49,350.64 C250.92,350.43 253.49,349.01 253.38,348.41 C252.7,345.9 252.63,343.28 251.65,340.8 Z" id="Shape" fill="#F29DA8" fill-rule="nonzero" opacity="0.5" style="mix-blend-mode: multiply;"></path>
            <path d="M266.8,358.16 C265.335777,353.063674 261.04113,349.284385 255.8,348.48 C255.8,348.69 255.73,348.91 255.68,349.12 C255.620757,349.371205 255.466682,349.589776 255.25,349.73 C254.610326,350.878836 253.674555,351.835325 252.54,352.5 C256.4,356.5 260.64,362.02 254.66,364.58 C251.602011,366.318644 248.335985,367.662687 244.94,368.58 C249.408679,368.680349 253.87576,368.318425 258.27,367.5 C263.54,366.39 268.77,364.91 266.8,358.16 Z" id="Shape" fill="#F29DA8" fill-rule="nonzero" opacity="0.5" style="mix-blend-mode: multiply;"></path>
            <path d="M247.34,71.05 C240.34,67.42 237.34,60.05 237.65,52.55 C235.8,52.64 235.55,54.46 235.17,55.92 C234.69,57.71 233.57,60.31 233.57,62.13 C232.57,65.21 230.5,68.28 227.36,69.13 C225.602069,69.423744 223.812406,69.4775684 222.04,69.29 C220.25,69.29 218.3,69.59 217.11,70.92 C221.091489,71.2477288 224.61024,73.6374417 226.382905,77.2175699 C228.155569,80.797698 227.922993,85.0448434 225.77,88.41 C229.18,84.92 231.42,80.41 234.61,76.75 C237.8,73.09 242.56,70 247.34,71.05 Z" id="Shape" fill="#FEF0A6" fill-rule="nonzero"></path>
            <path d="M231.24,109.9 C230.17,111.4 228.82,113.01 229.1,114.84 C229.41,116.84 231.62,118.05 233.63,118.57 C237.835368,119.638221 242.269745,119.361947 246.31,117.78 C244.245778,117.723997 242.202216,117.353054 240.25,116.68 C238.280817,115.984247 236.730423,114.437527 236.03,112.47 C235.44,110.47 236.13,108.32 236.46,106.25 C236.67,104.91 236.38,99.73 234.71,102.25 C234.05,103.25 233.9,105.06 233.39,106.19 C232.800318,107.496026 232.079981,108.739026 231.24,109.9 Z" id="Shape" fill="#FEF0A6" fill-rule="nonzero"></path>
            <path d="M184.17,151.59 C183.06,153.13 181.96,154.95 182.37,156.8 C182.85,158.93 185.1,160.1 187.13,160.89 C194.532777,163.772868 202.354572,165.434493 210.29,165.81 C209.64,157.43 213.46,149.18 219.01,142.81 C224.56,136.44 231.72,131.81 238.91,127.48 C236.15,129.15 227.91,125.87 225.38,124.67 C223.38,123.74 222.54,122.8 220.38,123.23 C218.46,123.62 216.38,124.95 214.6,125.82 C206.951268,129.609242 199.929502,134.55011 193.78,140.47 C190.251524,143.882724 187.035376,147.604219 184.17,151.59 Z" id="Shape" fill="#FEF0A6" fill-rule="nonzero"></path>
            <path d="M170.46,162.77 C174.4,166.99 182.02,169.04 187.36,170.94 C194.18,173.37 201.36,175.68 208.65,176.34 C209.43,176.41 209.54,175.23 208.83,175.02 C202.74,173.2 196.5,172.02 190.44,170.02 C184.38,168.02 176.19,166.12 171.39,161.85 C171.127906,161.629126 170.740358,161.645634 170.497996,161.887996 C170.255634,162.130358 170.239126,162.517906 170.46,162.78 L170.46,162.77 Z" id="Shape" fill="#FDEC8F" fill-rule="nonzero"></path>
            <path d="M234.17,179 C242.8,179.47 253.4,179.57 261.67,176.66 C262.4,176.4 262.33,175.23 261.48,175.25 C256.93,175.37 252.42,176.48 247.88,176.9 C243.34,177.32 238.75,177.46 234.17,177.6 C233.783401,177.6 233.47,177.913401 233.47,178.3 C233.47,178.686599 233.783401,179 234.17,179 Z" id="Shape" fill="#FDEC8F" fill-rule="nonzero"></path>
            <path d="M185.56,228.57 C187.99,234.67 190.87,240.69 195.18,245.64 C199.49,250.59 205.41,254.4 211.93,255.07 C209.61,249.823333 207.276667,244.576667 204.93,239.33 C201.29,231.13 198.64,223.77 197.93,214.83 C197.22,205.89 198.44,195.72 203.35,188.22 C196.25,186 189.25,183.43 182.35,180.53 C180.63,179.8 176.35,176.83 175.06,178.53 C174.16,179.69 175.54,185.83 175.65,187.13 C176.948558,201.347164 180.286091,215.303506 185.56,228.57 Z" id="Shape" fill="#FEF0A6" fill-rule="nonzero"></path>
            <path d="M129.54,181.58 C126.175935,186.453992 124.230419,192.165918 123.92,198.08 C123.54,204.71 124.04,212.33 126.65,216.98 C126.088294,210.545672 126.387602,204.065161 127.54,197.71 C128.658197,191.942807 131.595145,186.685741 135.92,182.71 C140.470464,178.760522 146.751927,177.471628 152.49,179.31 C153.318175,179.724593 154.256857,179.864695 155.17,179.71 C156.45,179.28 156.58,178.63 156.79,177.29 C157,175.95 157.16,174.43 156.28,173.4 C155.532718,172.689437 154.559153,172.264608 153.53,172.2 C144,170.66 134.92,173.33 129.54,181.58 Z" id="Shape" fill="#FEF0A6" fill-rule="nonzero"></path>
            <path d="M347.23,181.58 C350.594065,186.453992 352.539581,192.165918 352.85,198.08 C353.23,204.71 352.73,212.33 350.12,216.98 C350.681706,210.545672 350.382398,204.065161 349.23,197.71 C348.111803,191.942807 345.174855,186.685741 340.85,182.71 C336.300436,178.7587 330.017964,177.469599 324.28,179.31 C323.451825,179.724593 322.513143,179.864695 321.6,179.71 C320.32,179.28 320.19,178.63 319.98,177.29 C319.77,175.95 319.61,174.43 320.49,173.4 C321.237282,172.689437 322.210847,172.264608 323.24,172.2 C332.8,170.66 341.85,173.33 347.23,181.58 Z" id="Shape" fill="#FDEA84" fill-rule="nonzero"></path>
            <path d="M231.12,323.53 C231.085093,326.198652 231.813712,328.82168 233.22,331.09 C234.74,333.26 237.46,334.75 240.05,334.2 C241.23,333.95 242.47,333 242.28,331.8 C242.115089,331.21249 241.789555,330.682631 241.34,330.27 C238.117379,326.633579 236.004005,322.150033 235.25,317.35 C235.186234,316.546703 234.990265,315.759448 234.67,315.02 C233.53,312.8 231.23,313.91 231.01,315.92 C230.887024,318.456463 230.923763,320.998151 231.12,323.53 Z" id="Shape" fill="#FEF0A6" fill-rule="nonzero"></path>
            <path d="M227.18,343.37 C226.92,344.96 226.69,346.72 227.59,348.05 C228.49,349.38 229.91,349.77 231.3,350.19 C232.924281,350.786818 234.639584,351.098076 236.37,351.11 C238.128099,351.092237 239.753074,350.170158 240.67,348.67 C235.453578,348.62076 231.246189,344.386629 231.23,339.17 C231.23,337.17 230.29,336.34 229,337.91 C227.71,339.48 227.48,341.55 227.18,343.37 Z" id="Shape" fill="#FEF0A6" fill-rule="nonzero"></path>
            <path d="M214.36,357 C213.978687,359.411418 214.9312,361.840516 216.85,363.35 C218.766822,364.785977 221.023926,365.699156 223.4,366 C226.702131,366.60473 230.082234,366.652052 233.4,366.14 C234.048883,366.086157 234.677535,365.887996 235.24,365.56 C235.757958,365.216712 236.048926,364.619462 236,364 C235.86,363.24 235.09,362.77 234.37,362.49 C232.03,361.55 229.46,361.36 227.07,360.59 C224.68,359.82 222.28,358.21 221.72,355.75 C221.27,353.75 221.6,350.69 218.72,351.9 C216.603441,352.897263 215.016015,354.754115 214.36,357 Z" id="Shape" fill="#FEF0A6" fill-rule="nonzero"></path>
            <path d="M175.28,404.84 L185.54,405.21 C188.032478,396.106097 191.439836,387.27779 195.71,378.86 C195.32,379.61 189.71,378.28 188.58,378.72 C186.2,379.63 185.4,383.24 184.4,385.37 L175.28,404.84 Z" id="Shape" fill="#FEF0A6" fill-rule="nonzero"></path>
            <path d="M193.78,404.84 C197.2,404.97 211.49,404.96 214.92,405.08 C217.402911,395.974385 220.807158,387.145456 225.08,378.73 C224.69,379.48 208.23,378.28 207.08,378.73 C204.7,379.64 203.9,383.25 202.9,385.38 L193.78,404.84 Z" id="Shape" fill="#FEF0A6" fill-rule="nonzero"></path>
            <path d="M163.8,270.25 C162.06,266.81 160.4,263.32 158.8,259.8 C153.337413,260.341673 147.837215,259.245114 143,256.65 C143,257.31 142.95,257.95 142.9,258.59 C155.32,264.77 158.2,276.67 155.8,288.88 C160.544877,283.940418 163.355816,277.459642 163.72,270.62 C163.730152,270.493666 163.757055,270.369243 163.8,270.25 Z" id="Shape" fill="#203E52" fill-rule="nonzero" opacity="0.2" style="mix-blend-mode: multiply;"></path>
            <path d="M334.51,259.44 C334.42,258.53 334.36,257.6 334.34,256.65 C329.517965,259.237043 324.036126,260.333411 318.59,259.8 C316.96,263.33 315.29,266.8 313.53,270.25 C313.57636,270.36877 313.606629,270.493206 313.62,270.62 C313.791523,274.184317 314.650625,277.681844 316.15,280.92 C318.49,271.2 323.7,262.94 334.51,259.44 Z" id="Shape" fill="#203E52" fill-rule="nonzero" opacity="0.2" style="mix-blend-mode: multiply;"></path>
            <path d="M301.27,233 C294.36,245.44 283,255.67 270.38,262.09 C262.733164,266.024377 254.50011,268.695561 246,270 C232.82,272.39 216.9,267.42 205.53,261.34 C193.53,254.91 182.7,244.96 176.05,232.99 C167.6,229.31 158.92,235.4 151.82,239.46 L152.26,240.09 C152.400365,240.207243 152.513057,240.354085 152.59,240.52 C159.11,236.95 166.38,234.05 173.66,238.6 C187.66,249.6 196.66,264.6 213.66,270.6 C246.66,282.6 280.66,264.6 305.66,241.6 C309.1,238.16 314.71,236.18 320.12,236.35 C314.24,233 307.69,230.18 301.27,233 Z" id="Shape" fill="#ED7685" fill-rule="nonzero"></path>
            <path d="M373.62,292.44 C366.45,288.12 358.24,286.11 351.22,281.44 C347.06,278.65 343.05,275.2 340.56,270.78 C337.81,265.91 337.35,260.67 336.67,255.27 C353.21,244.12 358.97,215.62 357.67,197.65 C356.74,184.97 351.83,174.37 339.37,169.65 C333.75476,167.492703 327.648082,166.948887 321.74,168.08 C316.59,169.18 313.13,172.15 310.1,175.95 C310.14,173.656667 310.12,171.37 310.04,169.09 C310.033625,168.866683 309.952654,168.651933 309.81,168.48 C311.094552,167.181411 312.137509,165.664381 312.89,164 C315,159.22 310.89,157.47 306.83,158.49 C306.544848,158.320971 306.197042,158.295071 305.89,158.42 C297,137.73 275.75,121.74 253.89,117.58 C254.000236,117.209793 254.083784,116.832158 254.14,116.45 C254.67,112.75 251.8,109.77 249.96,106.91 C247.749444,103.367004 246.251455,99.4267148 245.55,95.31 L248.18,97 C250.97,98.74 253.77,100.91 256.84,102.13 C257.075685,102.219669 257.340179,102.189867 257.55,102.05 C257.899849,102.031845 258.222755,101.856557 258.428573,101.573073 C258.63439,101.289589 258.701071,100.928275 258.61,100.59 C257.61,96.98 256.1,93.5 254.86,89.96 C253.86,87.15 253.18,84.12 251.78,81.48 C254.01,79.48 256.09,77.37 258.32,75.4 C260.72,73.27 263.44,71.48 265.8,69.32 C267.05,69.25 267.32,67.15 265.99,66.92 C259.62,65.79 252.09,64.77 245.55,65.36 C244.163356,58.4844357 241.649455,51.8854457 238.11,45.83 C237.909263,45.4798647 237.503761,45.3014437 237.11,45.39 C236.659874,45.3296252 236.218919,45.5520889 236,45.95 C232.453959,51.7015582 229.759341,57.936232 228,64.46 C221.73,65.61 215.34,65.46 209.1,66.63 C208.839571,66.6720174 208.612272,66.8299277 208.482021,67.0593253 C208.35177,67.2887229 208.332636,67.5648289 208.43,67.81 C208.233029,68.2414477 208.329168,68.7501845 208.67,69.08 C211.142796,71.3152325 213.75108,73.3958478 216.48,75.31 C218.963886,77.3988452 221.579261,79.3261389 224.31,81.08 C222.621323,84.5173065 221.125667,88.0461196 219.83,91.65 C218.38,95.34 216.46,99.42 216.31,103.43 C216.303964,103.607644 216.345386,103.783686 216.43,103.94 C216.450881,104.275838 216.639261,104.578659 216.931289,104.74582 C217.223318,104.912981 217.579835,104.922067 217.88,104.77 C221.58,102.66 224.88,99.57 228.31,97.02 L232.31,94.02 C231.635671,98.9029917 229.842377,103.564187 227.07,107.64 C225.31,110.29 222.8,113.16 223.38,116.64 C223.440875,116.977635 223.521005,117.311514 223.62,117.64 C201.69,121.77 180.38,137.78 171.47,158.51 C171.162958,158.385071 170.815152,158.410971 170.53,158.58 C166.84,157.66 162.53,158.98 164.25,163.58 C164.986778,165.45986 166.111175,167.163491 167.55,168.58 C167.409414,168.749251 167.328572,168.960143 167.32,169.18 C167.24,171.46 167.23,173.75 167.26,176.04 C164.26,172.25 160.76,169.26 155.62,168.17 C149.937616,167.075379 144.065306,167.531346 138.62,169.49 C125.78,174 120.62,184.75 119.62,197.71 C118.3,215.71 124.06,244.19 140.62,255.33 C139.99,260.44 139.62,265.56 137.11,270.19 C134.6,274.82 130.85,278.19 126.7,281.07 C119.53,286.07 111.07,288.07 103.7,292.54 C93.11,298.91 87.04,309.54 90.7,321.96 C90.8016782,322.274678 91.0419217,322.525428 91.3519622,322.640475 C91.6620026,322.755521 92.0076631,322.722182 92.29,322.55 C92.7132212,322.456679 93.0281601,322.101363 93.07,321.67 C93.81,313.43 102.42,309.06 110.27,307.92 C102.75,314.85 100.6,326.1 107.97,334.56 C108.341406,335.043869 109.02599,335.153578 109.53,334.81 C109.767474,334.977394 110.072836,335.015196 110.343961,334.910763 C110.615085,334.80633 110.816183,334.573447 110.88,334.29 C111.68,329.37 112.07,324.54 115.44,320.54 C118.043117,317.708022 121.032542,315.257232 124.32,313.26 C130.94,308.87 138.17,305.55 144.94,301.43 C154.89,295.35 164.68,286.43 166,274.43 C170,281.52 174.92,288.04 181.54,292.9 C189.906276,298.850279 199.316244,303.175336 209.28,305.65 C214.944351,307.135513 220.700038,308.247901 226.51,308.98 C225.33,316.12 225.62,325.15 228.68,331.85 C224.84,335.2 221.39,341.15 221.34,346.41 C216.684895,346.692286 212.448204,349.191896 209.95,353.13 C208.441337,355.612336 207.464078,358.38067 207.08,361.26 C201.08,360.91 194.64,360.32 188.75,361.2 C188.530555,361.086148 188.269445,361.086148 188.05,361.2 C181.379621,363.904311 175.424619,368.113881 170.65,373.5 C170.65,373.5 170.65,373.5 170.65,373.5 C170.180571,373.521439 169.789397,373.866837 169.71,374.33 C168.89,380 169.38,385.93 169.38,391.65 C169.38,397.95 169.08,404.37 169.78,410.65 C169.482361,410.989968 169.407088,411.470936 169.586627,411.885584 C169.766165,412.300233 170.168419,412.574436 170.62,412.59 C183.18,413.8 196.25,412.82 208.87,412.82 C218.76,412.82 228.78,413.19 238.71,412.89 C248.64,413.19 258.65,412.81 268.54,412.82 C281.16,412.82 294.24,413.82 306.79,412.59 C307.243384,412.578154 307.649079,412.305351 307.831091,411.889937 C308.013102,411.474522 307.938638,410.99134 307.64,410.65 C308.33,404.39 308.02,397.97 308.03,391.65 C308.03,385.93 308.52,380 307.71,374.33 C307.630603,373.866837 307.239429,373.521439 306.77,373.5 C301.988156,368.121954 296.035179,363.913815 289.37,361.2 C289.147051,361.086043 288.882949,361.086043 288.66,361.2 C282.77,360.31 276.29,360.91 270.32,361.26 C269.946166,358.379704 268.97182,355.609971 267.46,353.13 C264.963558,349.145833 260.69358,346.61589 256,346.34 C255.95,341.06 252.49,335.1 248.64,331.76 C251.64,325.09 252.03,316.25 250.86,309.04 C266.33,307.2 281.86,302.47 294.41,293.81 C301.68,288.81 307.06,281.97 311.34,274.35 C312.66,286.35 322.45,295.25 332.41,301.35 C338.92,305.35 345.87,308.55 352.28,312.7 C355.68,314.91 359.28,317.31 361.9,320.46 C365.26,324.46 365.66,329.25 366.46,334.21 C366.524245,334.495571 366.726277,334.730507 366.999008,334.836792 C367.271738,334.943076 367.579465,334.906797 367.82,334.74 C368.324529,335.07498 369.002391,334.961275 369.37,334.48 C376.74,326.02 374.59,314.77 367.07,307.85 C374.92,308.98 383.53,313.36 384.27,321.59 C384.313092,322.024295 384.632852,322.380483 385.06,322.47 C385.342337,322.642182 385.687997,322.675521 385.998038,322.560475 C386.308078,322.445428 386.548322,322.194678 386.65,321.88 C390.28,309.45 384.22,298.81 373.62,292.44 Z M310,179.88 C314.31,173.97 318.7,170.55 326.3,170.23 C331.588011,170.016376 336.841403,171.173845 341.55,173.59 C353.34,179.73 355.41,192.84 354.97,205.03 C354.22,225.43 345.07,257.85 319.72,257.37 C322.01,252.32 324.26,247.24 326.59,242.23 C341.91,237.02 345.26,214.23 343.24,200.67 C342.24,194.16 338.84,186.54 331.36,185.86 C322.36,185.04 316.8,200.31 308.26,196.55 C309.163674,191.035254 309.744662,185.472459 310,179.89 L310,179.88 Z M299.77,231.46 C299.593564,231.595061 299.461289,231.779551 299.39,231.99 C297.83,234.243333 296.206667,236.413333 294.52,238.5 C295.13,237.28 295.72,236.05 296.3,234.85 C299.43586,228.377359 302.044325,221.662235 304.1,214.77 C305.646035,209.546893 306.901294,204.242085 307.86,198.88 C311.67,200.4 315.49,199.02 318.78,196.42 C321.66,194.14 323.91,190.74 327.47,189.42 C333.71,187.11 338.09,192.28 339.63,197.74 C343.63,211.82 339.63,229.23 327.9,238.14 C322.69,231.57 307.12,225.81 299.75,231.46 L299.77,231.46 Z M226,95.79 C223.88,97.35 221.48,98.9 219.36,100.66 C220.3,97.88 221.1,95.04 222.23,92.31 C223.75,88.63 225.7,84.94 226.54,81.03 C226.664456,80.5188481 226.371585,79.9986749 225.87,79.84 C225.87,79.84 225.87,79.84 225.87,79.84 C223.429961,77.4790975 220.823232,75.2967978 218.07,73.31 C216.15,71.78 214.27,70.13 212.27,68.67 C217.891064,68.5208771 223.488649,67.8851681 229,66.77 C229.81,66.61 230,65.68 230.26,65.08 C232.69,59.21 234.37,54.4 237.09,49.08 C237.97,51.8 239.09,54.46 240.09,57.14 C241.24,60.3 242.09,63.6 243.58,66.63 C243.718477,66.9653967 244.037631,67.19114 244.4,67.21 L244.46,67.21 C250.234912,68.2375118 256.077077,68.8424499 261.94,69.02 C260.06,70.4 258.29,72.02 256.6,73.53 C254.311688,75.5081151 252.218737,77.7015272 250.35,80.08 C249.962887,80.1658816 249.690588,80.5135868 249.7,80.91 C249.7,80.91 249.7,80.91 249.7,80.96 C249.506637,81.2140598 249.506637,81.5659402 249.7,81.82 C249.98,85.08 251.29,88.27 252.35,91.33 C253.1,93.48 253.87,95.64 254.76,97.75 C253.22,96.75 251.52,95.91 250.06,95.02 C246.14,92.66 242.25,90 238,88.2 C237.878096,88.1543116 237.749978,88.1273394 237.62,88.12 C237.309919,87.8110194 236.819876,87.7769295 236.47,88.04 L226,95.79 Z M227.75,110.87 C228.43,109.43 229.68,108.14 230.48,106.76 C233.093312,102.388629 234.501125,97.4026242 234.56,92.31 C235.47,91.6 236.38,90.88 237.27,90.15 C239.19,91.42 241.15,92.63 243.12,93.83 C243.151344,98.425643 244.448866,102.923719 246.87,106.83 C248.93,110.37 253.87,115.06 249.32,119.13 C246.46,121.68 242.2,121.26 238.71,121.25 C235.22,121.24 232.03,121.55 228.94,119.85 C225.85,118.15 226.44,113.59 227.71,110.87 L227.75,110.87 Z M193.9,134.54 C202.9,127.27 213.24,122.54 224.34,119.36 C224.382773,119.346109 224.423223,119.325884 224.46,119.3 C227.33,123.78 234.86,124.01 239.51,124.02 C243.87,124.02 250.39,123.36 253.04,119.34 C264.13,122.55 274.42,127.26 283.47,134.52 C292.1,141.44 298.08,149.92 303.47,159.41 C292.324305,164.149095 280.686096,167.63385 268.77,169.8 C261.957455,171.001353 255.088768,171.859104 248.19,172.37 C246.19,172.53 244.12,172.61 242.08,172.68 C237.13,172.44 232.08,172.76 227.16,172.47 C220.512223,172.084242 213.897557,171.255738 207.36,169.99 C195.865325,167.655716 184.649655,164.11269 173.9,159.42 C179.25,149.94 185.23,141.47 193.86,134.54 L193.9,134.54 Z M166.8,163.37 C165.8,160.48 168.31,160.07 170.89,160.37 C170.949878,160.375411 171.010122,160.375411 171.07,160.37 C182.554581,166.249451 194.822694,170.452198 207.5,172.85 C216.28,174.56 226.34,176.25 235.8,175.9 C240.540581,175.867825 245.276551,175.597484 249.99,175.09 C256.54,174.53 263.07,173.68 269.54,172.49 C282.328871,170.266167 294.723506,166.182912 306.33,160.37 C306.393235,160.37498 306.456765,160.37498 306.52,160.37 C313.76,159.37 310.25,164.61 307.39,167.21 C304.204269,169.930655 300.551944,172.051578 296.61,173.47 C289.855855,175.957514 282.895585,177.844818 275.81,179.11 C262.41,181.76 249.02,181.75 235.55,182.75 C232.03,182.82 228.55,182.83 224.95,182.6 C216.798118,182.080691 208.699767,180.92044 200.73,179.13 C193.6,177.54 186.2,175.77 179.47,172.9 C175.779042,171.484462 172.386874,169.388102 169.47,166.72 C168.343963,165.803511 167.421051,164.662641 166.76,163.37 L166.8,163.37 Z M182.3,176.86 C192.565373,180.437235 203.181542,182.914453 213.97,184.25 C221.641566,185.353664 229.39151,185.818594 237.14,185.64 C245.787896,185.565784 254.423494,184.971376 263,183.86 C273.376745,182.741676 283.612786,180.570497 293.55,177.38 C298.17,175.85 303.81,173.59 308,170.14 C307.46,197.84 300.78,226.64 284.19,249.28 C274.73897,257.515444 263.360041,263.228987 251.11,265.89 C247.014737,266.6444 242.863674,267.055827 238.7,267.12 C234.476544,267.011255 230.269115,266.556398 226.12,265.76 C219.202884,264.26601 212.530677,261.805171 206.3,258.45 C201.619682,255.923081 197.238754,252.87723 193.24,249.37 C176.6,226.73 169.9,197.89 169.35,170.14 C173.17,173.27 178.19,175.41 182.26,176.86 L182.3,176.86 Z M178,232 C177.938128,231.782167 177.804154,231.591783 177.62,231.46 C170.24,225.8 154.62,231.59 149.47,238.19 C144.22876,234.387261 140.432009,228.919517 138.7,222.68 C136.33,214.97 135.45,205.6 137.77,197.75 C139.19,192.93 142.99,187.62 148.77,188.93 C152.85,189.85 155.51,193.93 158.61,196.42 C161.9,199.01 165.71,200.42 169.52,198.88 C170.474773,204.244661 171.736851,209.550063 173.3,214.77 C175.358383,221.659899 177.963318,228.374546 181.09,234.85 C181.67,236.06 182.27,237.29 182.88,238.52 C181.166667,236.42 179.54,234.246667 178,232 Z M122.43,205 C121.99,193.07 123.91,180.19 135.23,173.91 C139.826175,171.396689 144.99189,170.108704 150.23,170.17 C158.15,170.25 162.88,173.7 167.38,179.85 C167.623767,185.432432 168.198107,190.995514 169.1,196.51 C160.64,200.23 155.1,185.17 146.2,185.79 C138.62,186.33 135.09,194.09 134.12,200.63 C132.12,214.21 135.46,236.98 150.78,242.19 C153.12,247.19 155.38,252.28 157.68,257.33 C132.29,257.88 123.14,225.44 122.39,205 L122.43,205 Z M132,305.34 C125.92,308.7 119.5,312.28 114.7,317.4 C110.93,321.4 109.54,326.25 109.17,331.51 C103.02,323.07 106.95,312.37 115.66,307.34 C116.193004,307.004874 116.444111,306.36057 116.278451,305.75315 C116.112791,305.145729 115.569344,304.718122 114.94,304.7 C108.29,304.46 96.94,307.82 92.68,314.45 C92.83,309.72 93.77,305.35 97.45,301.37 C102.98,295.37 109.96,292.6 117.26,289.37 C131.63,283.09 142.67,272.66 143.02,256.61 C147.854303,259.203154 153.350723,260.299653 158.81,259.76 C160.43,263.28 162.09,266.76 163.81,270.21 C163.76364,270.32877 163.733371,270.453206 163.72,270.58 C162.75,288.83 146.08,297.52 132,305.34 Z M268.5,409.94 C258.61,409.94 248.6,409.57 238.67,409.86 C228.74,409.57 218.72,409.94 208.83,409.94 C196.68,409.94 184.1,409.05 171.97,410.05 C172.6,403.95 172.31,397.71 172.32,391.58 C172.32,386.58 172.69,381.43 172.24,376.44 C184.38,377.83 197.24,376.75 209.44,376.77 C215.67,376.77 221.9,376.77 228.13,376.77 C231.58,376.77 235.13,376.93 238.64,376.9 C242.15,376.87 245.73,376.77 249.21,376.77 C255.44,376.77 261.66,376.77 267.89,376.77 C280.07,376.77 292.96,377.83 305.09,376.44 C304.64,381.44 305.01,386.59 305.01,391.58 C305.01,397.71 304.74,403.95 305.36,410.05 C293.23,409 280.66,409.93 268.5,409.94 Z M269.26,366.14 C269.832784,365.359035 270.17883,364.43509 270.26,363.47 C276.52,363.84 283.33,364.47 289.44,363.41 C291.85,365.09 294.37,366.6 296.75,368.33 C299.13,370.06 301.38,372.12 303.65,374.07 C291.95,372.91 279.6,373.92 267.9,373.89 C261.67,373.89 255.45,373.89 249.22,373.89 C245.77,373.89 242.22,373.73 238.71,373.77 C235.2,373.81 231.61,373.9 228.14,373.89 C221.91,373.89 215.68,373.89 209.45,373.89 C197.75,373.89 185.4,372.89 173.7,374.07 C175.97,372.12 178.16,370.07 180.61,368.33 C183.06,366.59 185.5,365.09 187.91,363.41 C194.02,364.49 200.83,363.84 207.09,363.47 C207.174693,364.434295 207.520395,365.35732 208.09,366.14 C209.23,367.62 211.66,368.14 213.31,368.71 C216.737684,369.84985 220.278058,370.617601 223.87,371 C228.853754,371.494549 233.863244,371.68157 238.87,371.56 C243.726522,371.633477 248.583492,371.446542 253.42,371 C257.69,370.54 266.4,369.84 269.26,366.14 Z M266.8,358.14 C268.8,364.89 263.54,366.37 258.28,367.46 C250.16,369.14 241.91,368.33 233.69,368.46 C228.788106,368.663684 223.878668,368.32834 219.05,367.46 C213.84,366.38 208.6,364.8 210.53,358.14 C211.980947,353.035281 216.282233,349.25015 221.53,348.46 C221.53,348.67 221.6,348.89 221.66,349.1 C221.71677,349.349593 221.86709,349.567914 222.08,349.71 C223.33,351.99 225.6,353.18 228.3,353.91 C235.094294,355.750011 242.255706,355.750011 249.05,353.91 C251.76,353.19 254.05,351.99 255.27,349.71 C255.486682,349.569776 255.640757,349.351205 255.7,349.1 C255.75,348.89 255.78,348.67 255.82,348.46 C261.058755,349.27477 265.345413,353.061709 266.8,358.16 L266.8,358.14 Z M251.65,340.8 C252.65,343.28 252.65,345.9 253.38,348.41 C253.54,349.01 250.92,350.41 250.49,350.64 C249.203327,351.2373 247.840524,351.654554 246.44,351.88 C242.189246,352.488132 237.879105,352.56204 233.61,352.1 C230.18,351.86 226.23,351.29 223.95,348.41 C224.63,345.9 224.71,343.28 225.69,340.8 C226.732436,338.329294 228.115882,336.016818 229.8,333.93 C230.846932,335.563623 232.274384,336.919016 233.96,337.88 C234.05076,338.017266 234.170161,338.133256 234.31,338.22 C239.53,341.37 244.63,338.48 247.51,333.9 C249.201814,335.997923 250.59504,338.319965 251.65,340.8 Z M241.3,335.92 C238.46,336.41 236,336.51 233.57,334.24 C231.14,331.97 230.21,328.76 229.57,325.63 C228.48,320.18 228.72,314.63 228.64,309.15 C230.54,309.336667 232.436667,309.473333 234.33,309.56 C239.103923,309.818416 243.890453,309.721483 248.65,309.27 C248.58,317.64 249.35,332.59 241.3,335.92 Z M293,291.44 C278.13,301.75 260.32,305.25 242.6,306.71 C222.08,306.89 199.73,302.9 182.9,290.45 C166.07,278 163.55,257 152.68,240.67 C152.608633,240.432431 152.465396,240.222816 152.27,240.07 L151.83,239.44 C158.93,235.38 167.61,229.29 176.06,232.97 C182.71,244.97 193.51,254.89 205.54,261.32 C216.91,267.4 232.83,272.37 246.01,269.98 C254.507256,268.671368 262.736879,265.996825 270.38,262.06 C283,255.64 294.38,245.41 301.27,232.97 C309.72,229.29 318.4,235.38 325.5,239.44 L325.06,240.07 C324.87146,240.216782 324.734803,240.420015 324.67,240.65 C313.39,257.48 310.83,279.1 293,291.44 Z M362.4,304.7 C361.772442,304.722253 361.232829,305.15131 361.069743,305.757715 C360.906657,306.36412 361.158261,307.005967 361.69,307.34 C370.4,312.34 374.32,323.07 368.17,331.51 C367.8,326.25 366.41,321.42 362.64,317.4 C357.84,312.27 351.42,308.7 345.35,305.34 C331.23,297.52 314.57,288.82 313.6,270.62 C313.586629,270.493206 313.55636,270.36877 313.51,270.25 C315.27,266.82 316.94,263.33 318.57,259.8 C324.016126,260.333411 329.497965,259.237043 334.32,256.65 C334.67,272.7 345.71,283.13 360.08,289.41 C367.24,292.54 374.08,295.25 379.57,301.03 C383.45,305.12 384.47,309.56 384.64,314.42 C380.44,307.81 369.05,304.46 362.42,304.7 L362.4,304.7 Z" id="Shape" fill="#203E52" fill-rule="nonzero"></path>
            <path d="M188.381733,383.664126 L185.116064,393.312129 L185.240234,400.725073 L182.260156,401.11 L182.173237,394.144067 L176.771846,385.278335 L180.049932,384.30981 L183.191431,390.791479 L185.053979,383.962134 L188.381733,383.664126 Z M203.108286,392.529858 C203.108286,394.905655 202.400525,396.917187 200.98498,398.564517 C199.561158,400.261514 197.785546,401.11 195.658091,401.11 C193.538914,401.11 191.755024,400.311181 190.306367,398.713521 C188.865989,397.11586 188.145811,395.1333 188.145811,392.765781 C188.145811,390.381707 188.857711,388.353618 190.281533,386.681455 C191.713633,385.001014 193.485107,384.160806 195.596006,384.160806 C197.715183,384.160806 199.494934,384.967902 200.935313,386.582119 C202.383969,388.17978 203.108286,390.16234 203.108286,392.529858 Z M199.70603,392.31877 C199.70603,390.961172 199.333524,389.814681 198.588501,388.879263 C197.826922,387.91901 196.837711,387.438892 195.62084,387.438892 C194.39569,387.438892 193.373368,387.989373 192.553843,389.090352 C191.783985,390.10855 191.399063,391.317125 191.399063,392.716113 C191.399063,394.098545 191.779846,395.257453 192.541426,396.192871 C193.311283,397.128289 194.308772,397.595991 195.533921,397.595991 C196.783904,397.595991 197.802088,397.049649 198.588501,395.956948 C199.333524,394.93875 199.70603,393.726036 199.70603,392.31877 Z M217.785171,389.512529 C217.785171,395.331989 216.535206,398.970131 214.035239,400.427065 C213.23227,400.882357 212.379645,401.11 211.477339,401.11 C208.98565,401.11 207.036202,399.028105 205.628936,394.864253 C204.627293,391.908994 204.047839,388.622663 203.890557,385.005161 L207.702573,384.682319 C207.677739,385.253504 207.665322,385.853652 207.665322,386.482783 C207.665322,388.974472 207.868131,391.143285 208.273755,392.989287 C208.935998,395.961102 210.007987,397.446987 211.489756,397.446987 C213.584099,397.446987 214.631255,395.331981 214.631255,391.101904 C214.631255,389.942979 214.573309,388.782002 214.457417,387.618938 C214.341524,386.455874 214.167688,385.274202 213.935903,384.073887 L217.325742,383.44062 C217.483025,384.417428 217.598916,385.408708 217.673418,386.41449 C217.74792,387.420271 217.785171,388.452941 217.785171,389.512529 Z M241.414707,393.523218 C241.414707,396.089409 239.543899,398.076108 235.802227,399.483374 C233.219479,400.443626 230.367739,400.985829 227.246919,401.11 L228.724541,384.235308 C230.164919,384.566429 231.528705,384.976186 232.81594,385.46459 C234.103175,385.952994 235.326236,386.532448 236.485161,387.202969 C239.771541,389.073805 241.414707,391.180534 241.414707,393.523218 Z M237.863447,393.697056 C237.863447,392.380848 237.064629,391.22194 235.466968,390.220298 C234.382545,389.541499 233.05394,388.98274 231.481113,388.544004 L230.636758,397.757412 C232.366867,397.707744 233.848614,397.44699 235.082041,396.975142 C236.936321,396.26323 237.863447,395.170546 237.863447,393.697056 Z M246.2325,384.384312 L245.375728,401.172085 L242.035557,400.811992 L242.780576,384.073887 L246.2325,384.384312 Z M261.38123,393.523218 C261.38123,396.089409 259.510422,398.076108 255.76875,399.483374 C253.186003,400.443626 250.334262,400.985829 247.213442,401.11 L248.691064,384.235308 C250.131443,384.566429 251.495229,384.976186 252.782463,385.46459 C254.069698,385.952994 255.29276,386.532448 256.451685,387.202969 C259.738065,389.073805 261.38123,391.180534 261.38123,393.523218 Z M257.829971,393.697056 C257.829971,392.380848 257.031152,391.22194 255.433491,390.220298 C254.349068,389.541499 253.020464,388.98274 251.447637,388.544004 L250.603281,397.757412 C252.333391,397.707744 253.815137,397.44699 255.048564,396.975142 C256.902845,396.26323 257.829971,395.170546 257.829971,393.697056 Z M274.779165,384.384312 L273.922393,401.172085 L270.582222,400.811992 L271.327241,384.073887 L274.779165,384.384312 Z M287.903926,384.744404 L287.705254,388.072158 L283.135801,387.848652 L282.452866,401.11 L279.038193,401.085166 L279.808047,387.64998 L275.648354,387.227803 L275.710439,383.900049 L287.903926,384.744404 Z M293.305317,384.260142 L291.964282,395.770693 L289.890645,395.944531 L289.977563,384.322227 L293.305317,384.260142 Z M292.560298,397.744995 L292.398877,401.172085 L289.294629,400.811992 L289.443633,397.484238 L292.560298,397.744995 Z" id="YOU-DID-IT!" fill="#000000"></path>
            <path d="M186.72,280.42 C183.747745,278.599826 181.089985,276.310168 178.85,273.64 C176.13,270.26 175.36,267.31 176.27,265.15 C176.387096,264.904344 176.546147,264.680996 176.74,264.49 C178.01,263.14 180.46,262.77 183.96,262.97 C186.59074,263.113635 189.207602,263.447845 191.79,263.97 C191.23,265.41 190.95,266.13 190.43,267.58 C188.798082,267.091805 187.124153,266.757019 185.43,266.58 C183.24,266.38 181.73,266.66 180.98,267.58 C179.98,268.73 180.46,270.51 182.44,272.78 C183.928204,274.449977 185.665335,275.880159 187.59,277.02 C187.23,278.41 187.05,279.08 186.72,280.42 Z" id="Shape" fill="#FFFFFF" fill-rule="nonzero"></path>
            <path d="M208.22,282.08 C207.454152,284.291704 205.695948,286.016595 203.47,286.74 C200.921713,287.59906 198.131765,287.367469 195.76,286.1 C193.302166,285.000266 191.371488,282.98346 190.38,280.48 C189.491573,278.31249 189.731106,275.846055 191.02,273.89 C192.252323,271.940619 194.215963,270.567873 196.47,270.08 C198.719653,269.498697 201.10456,269.765665 203.17,270.83 C205.251674,271.799128 206.918548,273.480188 207.87,275.57 C208.876649,277.599613 209.003237,279.954157 208.22,282.08 Z M204.3,280.32 C204.818481,279.143682 204.850833,277.810075 204.39,276.61 C203.923308,275.354294 202.972242,274.338383 201.75,273.79 C200.487121,273.144339 199.012407,273.053755 197.68,273.54 C196.407666,273.961672 195.338093,274.842286 194.68,276.01 C193.997302,277.146631 193.854434,278.527686 194.29,279.78 C194.80158,281.161541 195.851611,282.276522 197.2,282.87 C198.551977,283.598397 200.159171,283.682793 201.58,283.1 C202.824691,282.578391 203.805668,281.575774 204.3,280.32 Z" id="Shape" fill="#FFFFFF" fill-rule="nonzero"></path>
            <path d="M223.86,294.41 C221.78,294.24 220.74,294.13 218.66,293.84 C217.136251,289.469764 215.946171,284.990249 215.1,280.44 C214.01,285.28 213.48,287.71 212.47,292.57 C210.61,292.04 209.68,291.75 207.85,291.12 C209.52,284.64 210.39,281.42 212.21,274.99 C213.98,275.55 214.86,275.8 216.65,276.26 C217.260951,280.363878 218.156443,284.420322 219.33,288.4 C219.83,283.81 220.11,281.52 220.73,276.96 C222.39,277.35 223.23,277.52 224.91,277.82 C224.37,284.44 224.16,287.76 223.86,294.41 Z" id="Shape" fill="#FFFFFF" fill-rule="nonzero"></path>
            <path d="M244.2,278.91 C244.11,280.49 244.05,281.28 243.94,282.86 C242.186405,282.670669 240.423784,282.577196 238.66,282.58 C233.79,282.58 231.26,283.46 231.05,285.85 C230.93,287.23 231.98,288.6 234.34,289.85 C236.173897,290.766944 238.130847,291.413647 240.15,291.77 C240.29,290.77 240.35,290.29 240.49,289.3 C239.34,289.17 238.77,289.09 237.64,288.92 C237.64,287.84 237.64,287.3 237.64,286.22 C240.33,286.56 241.64,286.68 244.41,286.81 C244.15,290.46 244,292.29 243.65,295.94 C241.687704,295.685281 239.750692,295.263755 237.86,294.68 C236.136077,294.133225 234.463082,293.437259 232.86,292.6 C228.43,290.3 226.61,287.75 226.93,285.4 C227.3,282.69 229.83,281.14 234.24,280.19 C237.525365,279.527194 240.853801,279.099443 244.2,278.91 Z" id="Shape" fill="#FFFFFF" fill-rule="nonzero"></path>
            <path d="M264.21,290.24 C264.29,291.46 264.33,292.07 264.39,293.3 C259.78,294.35 256.64,294.22 255.09,293.37 C254.054302,292.682005 253.213832,291.738198 252.65,290.63 C252.07,290.83 251.44,291.02 250.75,291.2 C250.87,292.82 250.93,293.63 251.04,295.25 C249.28,295.45 248.39,295.52 246.63,295.64 C246.5,288.85 246.4,285.45 246.12,278.64 C248.962508,278.481758 251.812518,278.518511 254.65,278.75 C258.5,279.14 260.82,280.22 261.4,282.38 C261.98,284.54 260.53,286.7 256.77,288.75 C257.248818,289.78629 258.147592,290.568624 259.24,290.9 C260.495284,291.102726 261.78081,291.003312 262.99,290.61 L263.59,290.43 L264.21,290.24 Z M256.26,283.49 C256.03,282.37 255.04,281.7 253.35,281.44 C252.022576,281.276082 250.681106,281.259313 249.35,281.39 C249.57,284.02 249.68,285.34 249.88,287.98 C251.343806,287.727303 252.760245,287.251784 254.08,286.57 C255.78,285.64 256.49,284.59 256.26,283.49 Z" id="Shape" fill="#FFFFFF" fill-rule="nonzero"></path>
            <path d="M274.27,271.43 C274.77,272.67 275.02,273.29 275.51,274.53 C273.51,275.41 272.46,275.82 270.4,276.53 C272.1,281.58 272.93,284.11 274.53,289.19 C272.77,289.87 271.88,290.19 270.09,290.79 C268.76,285.56 268.09,282.95 266.62,277.79 C264.7,278.29 263.73,278.51 261.8,278.89 C261.46,277.6 261.28,276.96 260.94,275.67 C265.518769,274.724368 269.986314,273.303334 274.27,271.43 Z" id="Shape" fill="#FFFFFF" fill-rule="nonzero"></path>
            <path d="M295.3,271.34 C296.52,272.91 295.7,275.6 292.41,279.03 C290.040733,281.458825 287.320452,283.518418 284.34,285.14 L282.39,282.46 C282.89,282.22 283.3,282.02 283.62,281.85 C284.15,281.56 285.3,280.85 287.01,279.7 C288.136239,278.972317 289.185038,278.131267 290.14,277.19 C291.42,275.89 291.77,274.85 291.25,274.11 C291.043332,273.838165 290.738005,273.658562 290.4,273.61 C289.8,273.47 288.71,273.92 287.1,274.86 C285.659548,275.753214 284.147735,276.525844 282.58,277.17 C280.77,277.77 279.32,277.66 278.27,276.91 C277.74452,276.530945 277.318986,276.029913 277.03,275.45 C276.15,273.67 277.19,271.53 279.85,268.76 C281.790942,266.783232 283.844356,264.920134 286,263.18 C286.85,264.44 287.27,265.08 288.1,266.35 C286.48,267.56 284.98,268.69 283.66,269.78 C281.42,271.64 280.43,272.89 280.85,273.63 C281.041353,273.941864 281.340095,274.173034 281.69,274.28 C282.35,274.54 283.52,274.28 285.15,273.36 C287.78,271.89 289.22,270.95 289.52,270.81 C291.26,269.96 292.68,269.74 293.82,270.22 C294.4007,270.461139 294.910148,270.846668 295.3,271.34 Z" id="Shape" fill="#FFFFFF" fill-rule="nonzero"></path>
            <path d="M302.32,267.87 L304.47,270.56 C303.03,271.67 302.31,272.21 300.84,273.25 L298.84,270.55 C300.26,269.52 301,269 302.32,267.87 Z M293.85,257.31 C296.53,261.12 297.85,263.05 300.38,266.97 C299.57,267.78 299.17,268.19 298.38,268.97 C295.38,265.38 293.92,263.59 290.94,259.97 C292.1,259 292.69,258.43 293.85,257.31 Z" id="Shape" fill="#FFFFFF" fill-rule="nonzero"></path>
            <path d="M189.381733,385.664126 L186.116064,395.312129 L186.240234,402.725073 L183.260156,403.11 L183.173237,396.144067 L177.771846,387.278335 L181.049932,386.30981 L184.191431,392.791479 L186.053979,385.962134 L189.381733,385.664126 Z M204.108286,394.529858 C204.108286,396.905655 203.400525,398.917187 201.98498,400.564517 C200.561158,402.261514 198.785546,403.11 196.658091,403.11 C194.538914,403.11 192.755024,402.311181 191.306367,400.713521 C189.865989,399.11586 189.145811,397.1333 189.145811,394.765781 C189.145811,392.381707 189.857711,390.353618 191.281533,388.681455 C192.713633,387.001014 194.485107,386.160806 196.596006,386.160806 C198.715183,386.160806 200.494934,386.967902 201.935313,388.582119 C203.383969,390.17978 204.108286,392.16234 204.108286,394.529858 Z M200.70603,394.31877 C200.70603,392.961172 200.333524,391.814681 199.588501,390.879263 C198.826922,389.91901 197.837711,389.438892 196.62084,389.438892 C195.39569,389.438892 194.373368,389.989373 193.553843,391.090352 C192.783985,392.10855 192.399063,393.317125 192.399063,394.716113 C192.399063,396.098545 192.779846,397.257453 193.541426,398.192871 C194.311283,399.128289 195.308772,399.595991 196.533921,399.595991 C197.783904,399.595991 198.802088,399.049649 199.588501,397.956948 C200.333524,396.93875 200.70603,395.726036 200.70603,394.31877 Z M218.785171,391.512529 C218.785171,397.331989 217.535206,400.970131 215.035239,402.427065 C214.23227,402.882357 213.379645,403.11 212.477339,403.11 C209.98565,403.11 208.036202,401.028105 206.628936,396.864253 C205.627293,393.908994 205.047839,390.622663 204.890557,387.005161 L208.702573,386.682319 C208.677739,387.253504 208.665322,387.853652 208.665322,388.482783 C208.665322,390.974472 208.868131,393.143285 209.273755,394.989287 C209.935998,397.961102 211.007987,399.446987 212.489756,399.446987 C214.584099,399.446987 215.631255,397.331981 215.631255,393.101904 C215.631255,391.942979 215.573309,390.782002 215.457417,389.618938 C215.341524,388.455874 215.167688,387.274202 214.935903,386.073887 L218.325742,385.44062 C218.483025,386.417428 218.598916,387.408708 218.673418,388.41449 C218.74792,389.420271 218.785171,390.452941 218.785171,391.512529 Z M242.414707,395.523218 C242.414707,398.089409 240.543899,400.076108 236.802227,401.483374 C234.219479,402.443626 231.367739,402.985829 228.246919,403.11 L229.724541,386.235308 C231.164919,386.566429 232.528705,386.976186 233.81594,387.46459 C235.103175,387.952994 236.326236,388.532448 237.485161,389.202969 C240.771541,391.073805 242.414707,393.180534 242.414707,395.523218 Z M238.863447,395.697056 C238.863447,394.380848 238.064629,393.22194 236.466968,392.220298 C235.382545,391.541499 234.05394,390.98274 232.481113,390.544004 L231.636758,399.757412 C233.366867,399.707744 234.848614,399.44699 236.082041,398.975142 C237.936321,398.26323 238.863447,397.170546 238.863447,395.697056 Z M247.2325,386.384312 L246.375728,403.172085 L243.035557,402.811992 L243.780576,386.073887 L247.2325,386.384312 Z M262.38123,395.523218 C262.38123,398.089409 260.510422,400.076108 256.76875,401.483374 C254.186003,402.443626 251.334262,402.985829 248.213442,403.11 L249.691064,386.235308 C251.131443,386.566429 252.495229,386.976186 253.782463,387.46459 C255.069698,387.952994 256.29276,388.532448 257.451685,389.202969 C260.738065,391.073805 262.38123,393.180534 262.38123,395.523218 Z M258.829971,395.697056 C258.829971,394.380848 258.031152,393.22194 256.433491,392.220298 C255.349068,391.541499 254.020464,390.98274 252.447637,390.544004 L251.603281,399.757412 C253.333391,399.707744 254.815137,399.44699 256.048564,398.975142 C257.902845,398.26323 258.829971,397.170546 258.829971,395.697056 Z M275.779165,386.384312 L274.922393,403.172085 L271.582222,402.811992 L272.327241,386.073887 L275.779165,386.384312 Z M288.903926,386.744404 L288.705254,390.072158 L284.135801,389.848652 L283.452866,403.11 L280.038193,403.085166 L280.808047,389.64998 L276.648354,389.227803 L276.710439,385.900049 L288.903926,386.744404 Z M294.305317,386.260142 L292.964282,397.770693 L290.890645,397.944531 L290.977563,386.322227 L294.305317,386.260142 Z M293.560298,399.744995 L293.398877,403.172085 L290.294629,402.811992 L290.443633,399.484238 L293.560298,399.744995 Z" id="YOU-DID-IT!" fill="#F29DA8" opacity="0.5" style="mix-blend-mode: multiply;"></path>
            <g id="Group" opacity="0.7" fill="#FEF4BC" fill-rule="nonzero">
                <path d="M445.17,213.77 C454.31,213.77 463.53,214.07 472.67,213.56 C473.222285,213.56 473.67,213.112285 473.67,212.56 C473.67,212.007715 473.222285,211.56 472.67,211.56 C463.53,211.05 454.31,211.35 445.17,211.35 C444.512781,211.35 443.98,211.882781 443.98,212.54 C443.98,213.197219 444.512781,213.73 445.17,213.73 L445.17,213.77 Z" id="Shape"></path>
                <path d="M374.67,213.69 C394.496667,213.75 414.33,213.776667 434.17,213.77 C434.827219,213.77 435.36,213.237219 435.36,212.58 C435.36,211.922781 434.827219,211.39 434.17,211.39 C414.33,211.39 394.496667,211.416667 374.67,211.47 C374.056964,211.47 373.56,211.966964 373.56,212.58 C373.56,213.193036 374.056964,213.69 374.67,213.69 Z" id="Shape"></path>
                <path d="M236.7,425.58 C236.38,432.58 236.45,439.58 236.7,446.58 C236.8115,447.024889 237.211351,447.336895 237.67,447.336895 C238.128649,447.336895 238.5285,447.024889 238.64,446.58 C238.88,439.58 238.95,432.58 238.64,425.58 C238.5285,425.135111 238.128649,424.823105 237.67,424.823105 C237.211351,424.823105 236.8115,425.135111 236.7,425.58 Z" id="Shape"></path>
                <path d="M387.92,402.82 C407.92,421.29 427.52,440.47 448.4,457.91 C449.25,458.62 450.45,457.48 449.64,456.68 C430.32,437.51 409.57,419.62 389.64,401.14 C388.52,400.14 386.83,401.78 387.96,402.82 L387.92,402.82 Z" id="Shape"></path>
                <path d="M319.56,338.65 C336.44,354.803333 353.44,370.823333 370.56,386.71 C371.69,387.76 373.39,386.07 372.26,385.02 L321,337.25 C320.07,336.39 318.68,337.77 319.6,338.65 L319.56,338.65 Z" id="Shape"></path>
                <path d="M396.64,337.68 C406.21,345.14 416.03,352.25 425.9,359.29 C436.26,366.69 446.47,374.53 457.27,381.29 C458.14,381.84 459.27,380.51 458.39,379.84 C439.05,364.22 417.73,351 398,336 C397,335.25 395.7,337 396.67,337.72 L396.64,337.68 Z" id="Shape"></path>
                <path d="M415,264.41 C435.44,268.13 455.91,272.2 476.48,275.18 C477.58,275.34 478.1,273.72 476.95,273.47 C456.66,269.06 436.08,265.72 415.65,262.04 C414.11,261.77 413.44,264.12 415,264.41 Z" id="Shape"></path>
                <path d="M382.44,258.33 C389.37,259.65 396.31,260.98 403.25,262.27 C404.78,262.56 405.43,260.2 403.9,259.93 C396.933333,258.71 389.963333,257.51 382.99,256.33 C381.69,256.1 381.11,258.08 382.44,258.33 Z" id="Shape"></path>
                <path d="M410.33,301.74 C423.33,306.98 436.33,312.39 449.63,316.95 C450.63,317.29 451.32,315.67 450.35,315.24 C437.35,309.57 424.1,304.74 410.88,299.75 C409.63,299.28 409.12,301.25 410.33,301.75 L410.33,301.74 Z" id="Shape"></path>
                <path d="M404.35,169.62 C424.44,165.52 444.8,163.25 464.91,159.43 C465.288101,159.237363 465.50345,158.827071 465.44722,158.406468 C465.390989,157.985865 465.075425,157.64655 464.66,157.56 C444.28,158.85 423.66,163.33 403.75,167.44 C402.33,167.73 402.93,169.9 404.35,169.62 Z" id="Shape"></path>
                <path d="M373.89,176.39 C379.143333,175.143333 384.396667,173.943333 389.65,172.79 C391.06,172.48 390.46,170.3 389.06,170.63 C383.813333,171.863333 378.583333,173.15 373.37,174.49 C372.930869,174.697235 372.704073,175.18998 372.832254,175.658331 C372.960434,176.126681 373.40654,176.435264 373.89,176.39 Z" id="Shape"></path>
                <path d="M441.46,91.45 C448.28,87.45 455.67,83.85 461.97,79.11 C462.361991,78.8407287 462.480539,78.3150333 462.242056,77.9035851 C462.003574,77.4921369 461.488493,77.3337047 461.06,77.54 C453.85,80.76 447.06,85.4 440.24,89.36 C439.662863,89.6968937 439.468106,90.4378624 439.805,91.0149999 C440.141894,91.5921375 440.882862,91.7868936 441.46,91.45 Z" id="Shape"></path>
                <path d="M336.71,149.58 C367.04,134.03 396.71,117.11 426.31,100.19 C426.887137,99.8531063 427.081894,99.1121376 426.745,98.5350001 C426.408106,97.9578625 425.667138,97.7631064 425.09,98.1 C395.52,115.1 365.52,131.3 335.79,148.02 C334.79,148.59 335.67,150.11 336.71,149.58 Z" id="Shape"></path>
                <path d="M342.6,99 C355.326667,85.14 367.993333,71.2233333 380.6,57.25 C393.16,43.31 406.34,29.65 418.06,15 C418.83,14 417.58,12.67 416.66,13.6 C403.52,27 391.48,41.6 378.94,55.6 C366.4,69.6 353.74,83.6 341.07,97.48 C340.12,98.48 341.66,100.06 342.61,99.02 L342.6,99 Z" id="Shape"></path>
                <path d="M318.32,125.23 C323.62,119.53 328.916667,113.82 334.21,108.1 C335.13,107.1 333.64,105.62 332.73,106.62 C327.483333,112.38 322.23,118.136667 316.97,123.89 C316.14,124.79 317.48,126.13 318.32,125.23 Z" id="Shape"></path>
                <path d="M326.52,26.73 C331,20 335.78,13.3 339.78,6.26 C340.41,5.15 338.86,4.33 338.12,5.26 C333.19,11.7 328.89,18.7 324.4,25.46 C323.53,26.78 325.65,28 326.52,26.7 L326.52,26.73 Z" id="Shape"></path>
                <path d="M282.69,92.2 C295.56,74.69 307.07,56 319.08,37.93 C319.95,36.62 317.83,35.39 316.96,36.7 C304.96,54.79 292.24,72.63 281.11,91.27 C280.49,92.27 282.01,93.13 282.69,92.2 Z" id="Shape"></path>
                <path d="M76.17,211.39 C52.53,211.32 28.53,210.26 4.93,211.6 C4.37771525,211.6 3.93,212.047715 3.93,212.6 C3.93,213.152285 4.37771525,213.6 4.93,213.6 C28.53,214.95 52.53,213.88 76.17,213.81 C76.8272189,213.81 77.36,213.277219 77.36,212.62 C77.36,211.962781 76.8272189,211.43 76.17,211.43 L76.17,211.39 Z" id="Shape"></path>
                <path d="M102.93,211.47 L89.17,211.47 C88.5736139,211.525553 88.1175872,212.026032 88.1175872,212.625 C88.1175872,213.223968 88.5736139,213.724447 89.17,213.78 L102.93,213.73 C103.543036,213.73 104.04,213.233036 104.04,212.62 C104.04,212.006964 103.543036,211.51 102.93,211.51 L102.93,211.47 Z" id="Shape"></path>
                <path d="M119.2,372.11 C104,386.21 88.8033333,400.316667 73.61,414.43 C58.43,428.43 42.4,441.92 27.96,456.68 C27.16,457.5 28.34,458.6 29.19,457.91 C45.19,444.91 60.1,430.09 75.29,416.11 C90.48,402.13 105.79,388.01 120.9,373.8 C122.02,372.74 120.33,371.06 119.2,372.11 Z" id="Shape"></path>
                <path d="M156.64,337.25 L135.24,357.12 C134.13,358.12 135.81,359.84 136.91,358.79 C143.97,352.09 151,345.376667 158,338.65 C158.93,337.77 157.54,336.39 156.61,337.25 L156.64,337.25 Z" id="Shape"></path>
                <path d="M15.72,382.07 C10.79,385.61 5.72,389.07 1.01,392.93 C0.2,393.61 1.25,394.93 2.13,394.38 C7.26,391.3 12.07,387.61 16.93,384.14 C18.17,383.25 16.93,381.14 15.72,382.07 Z" id="Shape"></path>
                <path d="M79.63,336 C62,349.49 43.63,362 25.63,375 C24.4,375.9 25.58,378 26.84,377.07 C45.04,364.2 63.35,351.41 80.94,337.72 C81.94,336.96 80.6,335.24 79.62,336 L79.63,336 Z" id="Shape"></path>
                <path d="M31.69,267.56 C21.35,269.48 10.91,271.13 0.69,273.47 C-0.46,273.73 0.06,275.33 1.16,275.18 C11.61,273.78 21.98,271.67 32.36,269.84 C33.85,269.57 33.22,267.28 31.73,267.56 L31.69,267.56 Z" id="Shape"></path>
                <path d="M94.61,256.33 C80.18,258.8 65.73,261.18 51.36,263.99 C49.85,264.29 50.51,266.54 51.99,266.29 C66.42,263.89 80.79,261.06 95.16,258.29 C96.48,258.04 95.91,256.06 94.61,256.29 L94.61,256.33 Z" id="Shape"></path>
                <path d="M45.17,308 C33.12,312.6 21.03,317.18 9.17,322.31 C8.17,322.73 8.89,324.37 9.89,324.02 C21.98,319.83 33.89,315.02 45.78,310.33 C47.2,309.76 46.6,307.44 45.14,308 L45.17,308 Z" id="Shape"></path>
                <path d="M66.72,299.75 L54.35,304.46 C53.01,304.98 53.61,307.17 54.95,306.64 L67.27,301.74 C68.48,301.25 67.97,299.27 66.72,299.74 L66.72,299.75 Z" id="Shape"></path>
                <path d="M36.52,160.66 C28.71,159.44 20.83,158.11 12.94,157.56 C11.88,157.48 11.62,159.23 12.68,159.43 C20.38,160.84 28.18,161.71 35.91,162.9 C37.37,163.12 38,160.9 36.52,160.66 Z" id="Shape"></path>
                <path d="M104.23,174.49 C86.52,170 68.64,166.18 50.64,163 C49.19,162.74 48.57,165 50.03,165.22 C68.03,168.37 85.92,172.16 103.7,176.39 C104.94,176.68 105.46,174.8 104.23,174.49 Z" id="Shape"></path>
                <path d="M100.09,125 C86.09,117.233333 72.14,109.373333 58.24,101.42 C51.4133333,97.5 44.6166667,93.5766667 37.85,89.65 C30.85,85.58 23.91,80.95 16.54,77.54 C16.107462,77.2970169 15.5600022,77.4452694 15.3091772,77.8733077 C15.0583523,78.3013459 15.1966037,78.8514165 15.62,79.11 C21.91,83.71 29.05,87.33 35.78,91.24 C42.84,95.3533333 49.9133333,99.43 57,103.47 C70.9333333,111.403333 84.9033333,119.246667 98.91,127 C100.22,127.73 101.4,125.72 100.09,125 Z" id="Shape"></path>
                <path d="M141.81,148 C134.81,144.08 127.81,140.24 120.81,136.38 C119.53,135.67 118.38,137.64 119.66,138.38 C126.66,142.18 133.77,145.95 140.89,149.6 C141.89,150.14 142.83,148.6 141.81,148.04 L141.81,148 Z" id="Shape"></path>
                <path d="M78.17,32.65 C72.47,26.27 66.85,19.8 60.94,13.65 C60.05,12.72 58.75,14.09 59.55,15.05 C65,21.62 70.76,28 76.46,34.36 C77.46,35.52 79.2,33.81 78.17,32.65 Z" id="Shape"></path>
                <path d="M160.63,123.89 C138.21,99.39 115.906667,74.7766667 93.72,50.05 C92.72,48.9 91,50.6 92.03,51.74 C114.25,76.4066667 136.666667,100.903333 159.28,125.23 C160.12,126.13 161.45,124.79 160.63,123.89 Z" id="Shape"></path>
                <path d="M180.39,66.52 C173.463333,56 166.503333,45.4933333 159.51,35 C152.89,25 146.65,14.56 139.32,5.09 C138.64,4.21 137.32,5.34 137.81,6.26 C143.81,16.9 151.19,26.9 157.94,37.07 C164.69,47.24 171.51,57.52 178.33,67.72 C179.18,68.99 181.23,67.81 180.39,66.52 Z" id="Shape"></path>
                <path d="M196.49,91.27 C193.84,86.67 190.78,82.27 187.88,77.85 C187.06,76.59 185.01,77.78 185.88,79.03 C188.88,83.44 191.71,87.96 194.88,92.2 C195.58,93.11 197.07,92.33 196.47,91.27 L196.49,91.27 Z" id="Shape"></path>
                <path d="M219.12,45.52 C215.12,34.23 210.41,23.03 205.42,12.14 C205.01,11.23 203.42,11.87 203.8,12.82 C207.8,24.11 212.28,35.41 217.3,46.29 C217.77,47.29 219.49,46.59 219.12,45.52 Z" id="Shape"></path>
                <path d="M263.7,40.88 C268.37,29.12 274.43,18.12 280.17,6.88 C280.340825,6.46693427 280.178765,5.9912449 279.791289,5.76838332 C279.403814,5.54552175 278.911148,5.64463648 278.64,6 C272.129038,16.9965689 266.501359,28.4926832 261.81,40.38 C261.35,41.55 263.24,42.05 263.7,40.9 L263.7,40.88 Z" id="Shape"></path>
                <path d="M129.8,428.23 C120.36,441.723333 110.903333,455.196667 101.43,468.65 C100.79,469.56 102.26,470.38 102.91,469.51 C112.72,456.28 122.25,442.84 131.68,429.33 C132.49,428.18 130.6,427.09 129.8,428.23 Z" id="Shape"></path>
                <path d="M147.59,402.6 C144.59,406.92 141.59,411.26 138.59,415.6 C137.78,416.76 139.7,417.88 140.49,416.71 C143.44,412.35 146.41,408.01 149.26,403.58 C149.93,402.58 148.26,401.63 147.61,402.58 L147.59,402.6 Z" id="Shape"></path>
                <path d="M342.73,424.48 C350.51,434.62 358.55,444.67 367.29,454 C368.09,454.86 369.29,453.6 368.56,452.72 C360.63,442.91 352.56,433.24 344.85,423.25 C343.85,422.02 341.77,423.25 342.73,424.48 Z" id="Shape"></path>
                <path d="M327.15,402.84 C330.363333,407.54 333.636667,412.206667 336.97,416.84 C337.88,418.09 339.97,416.84 339.06,415.62 C335.606667,411.073333 332.226667,406.48 328.92,401.84 C328.16,400.78 326.4,401.77 327.15,402.84 Z" id="Shape"></path>
                <path d="M190.24,433.13 C187.89,438.91 185.33,444.65 183.32,450.55 C182.98,451.55 184.58,452.24 185.02,451.27 C187.69,445.54 189.85,439.54 192.19,433.67 C192.68,432.45 190.72,431.94 190.24,433.13 Z" id="Shape"></path>
                <path d="M295.79,430.11 C298.07,435.11 300.24,440.21 302.79,445.11 C303.29,446.11 304.97,445.4 304.56,444.37 C302.51,439.15 300.05,434.1 297.71,429.01 C297.11,427.7 295.18,428.84 295.78,430.14 L295.79,430.11 Z" id="Shape"></path>
                <path d="M153.51,73.75 C148.22,66.91 143,60 137.37,53.38 C136.67,52.56 135.22,53.66 135.86,54.55 C141,61.65 146.54,68.43 152,75.27 C152.87,76.36 154.36,74.83 153.52,73.75 L153.51,73.75 Z" id="Shape"></path>
                <path d="M106.36,95.9 C91.19,83.73 75.74,71.9 60.22,60.17 C59.4,59.56 58.32,60.95 59.12,61.6 C74.28,73.79 89.54,85.86 105.05,97.6 C106.05,98.33 107.32,96.66 106.36,95.89 L106.36,95.9 Z" id="Shape"></path>
                <path d="M12.08,119.05 C41.24,129.64 69.77,141.9 98.92,152.47 C99.92,152.83 100.6,151.2 99.63,150.78 C71.2,138.33 41.88,127.44 12.63,117.08 C11.39,116.64 10.86,118.61 12.09,119.08 L12.08,119.05 Z" id="Shape"></path>
                <path d="M39.17,189.49 C46.83,189.75 54.5,190.13 62.17,190.03 C62.6437784,189.980672 63.0036932,189.581339 63.0036932,189.105 C63.0036932,188.628661 62.6437784,188.229328 62.17,188.18 C54.52,187.65 46.83,187.6 39.17,187.43 C38.6011467,187.43 38.14,187.891147 38.14,188.46 C38.14,189.028853 38.6011467,189.49 39.17,189.49 Z" id="Shape"></path>
                <path d="M20.39,243.27 C33.26,241.27 46.19,240.15 59.18,239.27 C59.6325095,239.221831 59.9757928,238.840066 59.9757928,238.385 C59.9757928,237.929934 59.6325095,237.548169 59.18,237.5 C45.988475,237.719378 32.8360077,239.00018 19.85,241.33 C18.56,241.54 19.11,243.48 20.39,243.33 L20.39,243.27 Z" id="Shape"></path>
                <path d="M39,291.13 C44.32,289.77 49.71,288.57 54.95,286.92 C55.4360105,286.78469 55.7203097,286.281011 55.5849999,285.795 C55.4496902,285.308989 54.9460106,285.02469 54.46,285.16 C49.08,286.25 43.79,287.83 38.46,289.22 C38.0038686,289.417728 37.7622529,289.920509 37.8928477,290.400193 C38.0234425,290.879878 38.4865861,291.190787 38.98,291.13 L39,291.13 Z" id="Shape"></path>
                <path d="M26.52,344.2 C33.85,339.81 41.46,336.13 49.13,332.38 C50,331.95 49.38,330.43 48.45,330.78 C40.4560164,333.988156 32.7596948,337.893203 25.45,342.45 C24.966751,342.726142 24.7988578,343.341751 25.0750002,343.825 C25.3511425,344.308249 25.9667509,344.476142 26.45,344.2 L26.52,344.2 Z" id="Shape"></path>
                <path d="M67.21,381.36 C74.13,376.17 80.71,370.56 87.61,365.36 C88.49,364.7 87.69,363.2 86.72,363.84 C79.51,368.58 73.08,374.45 66.16,379.58 C65.09,380.37 66.16,382.18 67.16,381.38 L67.21,381.36 Z" id="Shape"></path>
                <path d="M31.2,413.63 C40.3133333,405.056667 49.6466667,396.723333 59.2,388.63 C60.2,387.75 58.74,386.27 57.72,387.14 C48.1666667,395.22 38.8333333,403.553333 29.72,412.14 C28.72,413.07 30.23,414.56 31.22,413.63 L31.2,413.63 Z" id="Shape"></path>
                <path d="M104.3,422.22 C111,415 118.17,408 124,400.07 C124.64,399.19 123.18,398.07 122.49,398.9 C116.32,406.47 109.34,413.48 102.7,420.63 C101.7,421.69 103.31,423.29 104.3,422.22 Z" id="Shape"></path>
                <path d="M82.36,444.78 C88.26,439.78 93.36,433.78 98.71,428.17 C99.71,427.17 98.12,425.57 97.15,426.61 C91.91,432.24 86.81,438.35 80.97,443.38 C79.97,444.22 81.4,445.59 82.36,444.78 Z" id="Shape"></path>
                <path d="M160.5,429.9 C158.625847,432.877445 156.910128,435.95172 155.36,439.11 C155.14881,439.577292 155.325319,440.128601 155.768637,440.386344 C156.211955,440.644088 156.778391,440.524722 157.08,440.11 C159.079767,437.210966 160.92242,434.206641 162.6,431.11 C162.882876,430.536137 162.674383,429.841231 162.122315,429.517877 C161.570247,429.194523 160.862163,429.352577 160.5,429.88 L160.5,429.9 Z" id="Shape"></path>
                <path d="M270.17,437.16 C271.07,439.16 271.56,441.27 272.32,443.32 C272.68,444.32 274.32,444.24 274.24,443.06 C273.941831,440.621968 273.224613,438.253795 272.12,436.06 C271.53,434.74 269.58,435.89 270.17,437.2 L270.17,437.16 Z" id="Shape"></path>
                <path d="M216.52,437.07 C216.294418,438.392079 216.167402,439.729094 216.14,441.07 C216.22655,441.485425 216.565865,441.800989 216.986468,441.85722 C217.407071,441.91345 217.817363,441.698101 218.01,441.32 C218.333518,440.0223 218.557502,438.701797 218.68,437.37 C218.794319,436.957651 218.659137,436.516426 218.33345,436.238886 C218.007762,435.961346 217.550681,435.897862 217.161686,436.076141 C216.77269,436.25442 216.522382,436.642104 216.52,437.07 Z" id="Shape"></path>
                <path d="M320.68,434.15 C323.45,437.83 325.56,441.89 328.17,445.65 C328.77,446.52 330.44,446.02 330.01,444.88 C328.39,440.57 325.46,436.62 322.69,432.98 C321.8,431.81 319.78,432.98 320.69,434.15 L320.68,434.15 Z" id="Shape"></path>
                <path d="M386.09,435.67 C393.5,443.57 400.76,451.67 408.51,459.24 C409.38,460.1 410.59,458.83 409.83,457.92 C402.83,449.62 395.2,441.87 387.78,433.98 C386.72,432.87 385.05,434.55 386.09,435.67 Z" id="Shape"></path>
                <path d="M356.21,403.52 C362.443333,410.28 368.686667,417.033333 374.94,423.78 C375.94,424.9 377.66,423.21 376.61,422.11 C370.26,415.46 363.92,408.81 357.61,402.11 C356.71,401.16 355.29,402.59 356.17,403.55 L356.21,403.52 Z" id="Shape"></path>
                <path d="M425.14,393.17 C435.39,401.56 446.23,409.25 456.73,417.33 C457.5,417.92 458.54,416.59 457.73,415.97 C447.53,407.64 436.73,399.97 426.58,391.68 C425.58,390.82 424.03,392.31 425.09,393.17 L425.14,393.17 Z" id="Shape"></path>
                <path d="M375.92,351.33 C389.13,363.06 402.73,374.33 416.24,385.75 C417.24,386.62 418.78,385.13 417.73,384.25 C404.23,372.87 390.63,361.56 377.41,349.83 C376.41,348.93 374.9,350.42 375.92,351.33 Z" id="Shape"></path>
                <path d="M423.18,329.73 C428.76,332.36 434.31,335.06 439.98,337.48 C440.98,337.93 441.98,336.48 440.89,335.92 C435.41,333.1 429.8,330.56 424.22,327.92 C423.03,327.36 421.98,329.13 423.22,329.7 L423.18,329.73 Z" id="Shape"></path>
                <path d="M399,237.07 C418.61,237.66 438.11,239.43 457.61,241.53 C458.56,241.63 458.79,240 457.84,239.85 C438.37398,236.803797 418.702893,235.25592 399,235.22 C398.526222,235.269328 398.166307,235.668661 398.166307,236.145 C398.166307,236.621339 398.526222,237.020672 399,237.07 Z" id="Shape"></path>
                <path d="M403,191.78 C410.78,191.26 418.55,191.35 426.34,191.26 C426.766667,191.135556 427.06,190.744444 427.06,190.3 C427.06,189.855556 426.766667,189.464444 426.34,189.34 C418.564062,188.776524 410.753474,188.903689 403,189.72 C401.69,189.84 401.66,191.87 403,191.78 Z" id="Shape"></path>
                <path d="M387.14,148.21 C398.2,143.916667 409.2,139.463333 420.14,134.85 C431.48,130.04 443.21,125.39 453.98,119.39 C454.79,118.94 454.24,117.51 453.34,117.86 C442.6,122 432.22,127.23 421.67,131.86 C410.076667,136.92 398.41,141.766667 386.67,146.4 C385.55,146.85 386.03,148.68 387.18,148.24 L387.14,148.21 Z" id="Shape"></path>
                <path d="M419.62,63.93 C429.22,56.15 439.3,48.69 448.36,40.27 C449.16,39.53 448.09,38.09 447.17,38.73 C437,45.91 427.5,54.28 417.82,62.12 C416.54,63.12 418.35,64.96 419.62,63.93 Z" id="Shape"></path>
                <path d="M359.25,112.4 C376.12,99.24 392.78,85.76 409.36,72.23 C410.63,71.23 408.83,69.42 407.57,70.44 C390.91,83.83 374.28,97.31 357.93,111.08 C356.99,111.86 358.32,113.08 359.25,112.4 Z" id="Shape"></path>
                <path d="M319.16,79.72 C325.79,72.51 332.37,65.04 338.3,57.24 C338.92,56.42 337.58,55.43 336.89,56.15 C330.15,63.15 323.89,70.76 317.8,78.36 C317.05,79.36 318.31,80.65 319.16,79.72 Z" id="Shape"></path>
                <path d="M295.7,25.31 C299.97,19.38 304.52,13.54 308.34,7.31 C308.87,6.44 307.56,5.37 306.9,6.19 C302.28,11.98 298.29,18.29 294.12,24.4 C293.44,25.4 295.02,26.27 295.7,25.32 L295.7,25.31 Z" id="Shape"></path>
                <path d="M240.86,18.92 C241.19,12.92 241.81,6.92 241.59,0.92 C241.540387,0.440901644 241.13666,0.0768245837 240.655,0.0768245837 C240.17334,0.0768245837 239.769613,0.440901644 239.72,0.92 C239.02,6.87 239.15,12.92 238.99,18.92 C238.99,20.13 240.8,20.12 240.86,18.92 Z" id="Shape"></path>
                <path d="M193.21,41.06 C190.52,35.96 187.89,30.84 184.95,25.87 C184.626697,25.5374742 184.117185,25.4708824 183.71928,25.7091484 C183.321376,25.9474144 183.139516,26.4280014 183.28,26.87 C185.77,32.08 188.57,37.12 191.28,42.2 C191.95,43.45 193.84,42.34 193.18,41.08 L193.21,41.06 Z" id="Shape"></path>
                <path d="M161.33,381.45 C169.55,370.4 177.5,359.13 184.9,347.52 C185.46,346.63 184.1,345.86 183.52,346.7 C175.68,358.05 167.84,369.36 159.72,380.51 C159.01,381.51 160.63,382.4 161.33,381.45 Z" id="Shape"></path>
                <path d="M191,339.08 C192.213843,336.819296 193.626057,334.670857 195.22,332.66 C195.87,331.81 194.79,330.66 194.01,331.45 C192.149114,333.439665 190.567913,335.673532 189.31,338.09 C188.72,339.2 190.41,340.19 191,339.09 L191,339.08 Z" id="Shape"></path>
                <path d="M119.4,340.83 C125.09,336.03 130.79,331.22 136.28,326.2 C137.09,325.46 135.92,324.35 135.1,325.01 C129.31,329.7 123.71,334.62 118.1,339.54 C117.2,340.32 118.5,341.54 119.39,340.83 L119.4,340.83 Z" id="Shape"></path>
                <path d="M159.07,308.78 C160.55264,307.755057 161.871008,306.510869 162.98,305.09 C163.54,304.37 162.32,303.43 161.72,304.09 C160.693092,305.299526 159.505392,306.362736 158.19,307.25 C157.25,307.87 158.19,309.4 159.07,308.76 L159.07,308.78 Z" id="Shape"></path>
                <path d="M280.06,328.9 C287.22,338.76 294.17,348.9 301.92,358.3 C302.56,359.09 303.92,358.06 303.33,357.21 C296.65,347.11 289.06,337.56 281.79,327.88 C281.03,326.88 279.29,327.88 280.06,328.88 L280.06,328.9 Z" id="Shape"></path>
                <path d="M312.77,375.6 C314.26,378.27 315.64,381.03 317.38,383.54 C317.634051,383.976305 318.193695,384.124051 318.63,383.87 C319.066305,383.615949 319.214051,383.056305 318.96,382.62 C317.640575,379.856047 316.17861,377.162425 314.58,374.55 C314.290051,374.050182 313.649818,373.880051 313.15,374.17 C312.650182,374.459949 312.480051,375.100182 312.77,375.6 Z" id="Shape"></path>
                <path d="M295.43,314.82 C298.166792,317.068506 300.712199,319.540327 303.04,322.21 C303.73,322.96 305.04,321.97 304.47,321.11 C302.340402,318.165712 299.782053,315.556803 296.88,313.37 C295.88,312.57 294.4,314.01 295.43,314.82 Z" id="Shape"></path>
                <path d="M341.05,318.67 C347.95,324.18 354.25,330.41 361.26,335.78 C361.99,336.34 362.91,335.12 362.26,334.51 C355.73,328.51 349.39,322.46 342.26,317.12 C341.37,316.45 340.19,317.97 341.06,318.67 L341.05,318.67 Z" id="Shape"></path>
            </g>
        </g>
    </g>
</svg>