<?xml version="1.0" encoding="UTF-8"?>
<svg width="375px" height="254px" viewBox="0 0 375 254" version="1.1" xmlns="http://www.w3.org/2000/svg" xmlns:xlink="http://www.w3.org/1999/xlink">
    <!-- Generator: Sketch 49.3 (51167) - http://www.bohemiancoding.com/sketch -->
    <title>4504</title>
    <desc>Created with Sketch.</desc>
    <defs></defs>
    <g id="Page-1" stroke="none" stroke-width="1" fill="none" fill-rule="evenodd">
        <g id="4504" transform="translate(0.000000, -9.000000)">
            <path d="M63.805,244.553 L63.205,243.999 C69.43,237.254 74.497,213.252 76.299,203.776 C73.633,210.067 67.802,222.564 61.976,226.725 L61.501,226.061 C69.04,220.677 76.946,200.02 77.025,199.812 L77.81,200.024 C77.565,201.488 71.742,235.952 63.805,244.553" id="Fill-1" fill="#9D9F9C"></path>
            <path d="M63.829,234.368 L63.181,233.873 C73.59,220.21 76.877,198.926 76.909,198.712 L77.716,198.833 C77.684,199.049 74.368,220.537 63.829,234.368" id="Fill-2" fill="#9D9F9C"></path>
            <path d="M298.646,243.933 C290.708,235.331 284.886,200.868 284.642,199.404 L285.426,199.192 C285.505,199.4 293.411,220.057 300.95,225.442 L300.476,226.106 C294.649,221.944 288.818,209.446 286.152,203.156 C287.954,212.632 293.021,236.634 299.246,243.379 L298.646,243.933" id="Fill-3" fill="#9D9F9C"></path>
            <path d="M298.622,233.747 C288.084,219.916 284.769,198.429 284.736,198.213 L285.543,198.092 C285.575,198.306 288.862,219.59 299.271,233.253 L298.622,233.747" id="Fill-4" fill="#9D9F9C"></path>
            <polyline id="Fill-5" fill="#9D9F9C" points="284.628 200.583 267.366 126.149 268.161 125.965 284.919 198.222 320.652 128.294 321.379 128.665 284.628 200.583"></polyline>
            <polyline id="Fill-6" fill="#9D9F9C" points="285.178 199.461 284.369 199.344 301.481 81.041 302.29 81.158 285.178 199.461"></polyline>
            <polyline id="Fill-7" fill="#9D9F9C" points="77.798 200.882 52.622 138.556 53.378 138.25 77.499 197.965 87.836 141.235 88.639 141.381 77.798 200.882"></polyline>
            <polyline id="Fill-8" fill="#9D9F9C" points="77.241 199.448 69.897 79.077 70.712 79.027 78.056 199.398 77.241 199.448"></polyline>
            <path d="M290.014,92.172 C290.343,92.24 290.623,92.412 290.878,92.698 C291.433,93.327 291.911,93.485 292.545,93.21 C292.638,93.171 292.724,93.129 292.81,93.092 C293.281,92.868 293.779,92.64 294.353,92.76 C294.576,92.808 294.786,92.902 295.016,93.052 L295.051,93.079 C295.051,93.079 295.296,93.247 295.481,93.218 C295.328,92.416 294.771,90.084 293.16,89.19 C292.842,89.127 291.458,88.871 290.961,88.755 C290.413,89.168 288.676,90.522 287.913,91.74 C287.978,91.911 288.117,92.201 288.401,92.257 C288.599,92.294 288.812,92.252 289.035,92.21 C289.332,92.16 289.663,92.099 290.014,92.172" id="Fill-9" fill="#2D6434"></path>
            <path d="M290.891,88.286 C290.891,88.286 288.354,90.099 287.461,91.677 C287.461,91.677 287.62,92.547 288.347,92.673 C288.598,92.718 288.856,92.671 289.114,92.625 C289.603,92.537 290.096,92.449 290.562,92.976 C291.273,93.777 291.965,93.921 292.714,93.59 C293.463,93.259 294.015,92.883 294.78,93.4 C294.78,93.4 295.386,93.914 295.943,93.446 C295.943,93.446 295.522,89.96 293.304,88.788 C293.304,88.788 290.725,88.313 290.891,88.286" id="Fill-10" fill="#73B94F"></path>
            <path d="M290.046,92.539 C290.26,92.604 290.444,92.731 290.616,92.925 C291.279,93.673 291.917,93.862 292.688,93.525 L292.953,93.402 C293.45,93.17 293.884,92.972 294.391,93.128 C294.534,93.172 294.675,93.241 294.821,93.338 C294.824,93.344 294.971,93.466 295.179,93.529 C295.431,93.608 295.663,93.568 295.863,93.414 C295.807,93.026 295.303,89.937 293.278,88.858 C293.097,88.826 291.226,88.478 290.903,88.379 L290.891,88.375 C290.575,88.607 288.366,90.252 287.54,91.69 C287.569,91.83 287.761,92.497 288.359,92.601 C288.599,92.644 288.841,92.597 289.1,92.553 C289.405,92.498 289.728,92.44 290.046,92.539 M291.544,93.761 C291.19,93.652 290.85,93.41 290.505,93.022 C290.352,92.848 290.186,92.736 290.001,92.678 C289.721,92.591 289.434,92.643 289.125,92.698 C288.866,92.744 288.596,92.793 288.331,92.748 C287.572,92.612 287.394,91.726 287.388,91.693 L287.381,91.666 L287.394,91.642 C288.242,90.143 290.572,88.426 290.82,88.244 L290.83,88.225 L290.859,88.217 L290.903,88.188 L290.916,88.208 L291.193,88.162 L291.047,88.265 C291.557,88.392 293.298,88.713 293.316,88.715 L293.326,88.718 L293.336,88.722 C294.506,89.34 295.169,90.587 295.522,91.53 C295.905,92.546 296.014,93.427 296.011,93.437 L296.02,93.475 L295.988,93.504 C295.746,93.709 295.443,93.767 295.134,93.67 C294.897,93.598 294.738,93.462 294.728,93.456 C294.604,93.371 294.477,93.307 294.35,93.269 C293.894,93.126 293.489,93.317 293.014,93.535 C292.928,93.577 292.839,93.619 292.743,93.659 C292.319,93.847 291.927,93.882 291.544,93.761" id="Fill-11" fill="#2D6434"></path>
            <path d="M290.891,88.286 C290.891,88.286 288.354,90.099 287.461,91.677 C287.461,91.677 287.62,92.547 288.347,92.673 C288.598,92.718 288.856,92.671 289.114,92.625 C289.603,92.537 290.096,92.449 290.562,92.976 C291.273,93.777 291.965,93.921 292.714,93.59 C293.463,93.259 294.015,92.883 294.78,93.4 C294.78,93.4 295.386,93.914 295.943,93.446 C295.943,93.446 295.522,89.96 293.304,88.788 C293.304,88.788 290.725,88.313 290.891,88.286" id="Fill-12" fill="#DA4380"></path>
            <path d="M290.109,92.327 C290.361,92.406 290.582,92.552 290.782,92.779 C291.379,93.45 291.914,93.621 292.597,93.321 L292.857,93.202 C293.377,92.961 293.868,92.733 294.458,92.916 C294.624,92.97 294.78,93.047 294.942,93.154 L294.971,93.176 C294.971,93.176 295.083,93.271 295.245,93.317 C295.383,93.363 295.507,93.357 295.621,93.304 C295.504,92.607 294.955,90.028 293.202,89.07 C292.88,89.008 291.41,88.737 290.936,88.617 C290.441,88.988 288.558,90.434 287.776,91.722 C287.834,91.912 288.006,92.316 288.398,92.385 C288.599,92.42 288.818,92.377 289.058,92.335 C289.38,92.278 289.743,92.213 290.109,92.327 M291.48,93.974 C291.082,93.848 290.712,93.589 290.339,93.17 C290.215,93.027 290.078,92.933 289.935,92.89 C289.705,92.818 289.44,92.866 289.163,92.914 C288.889,92.966 288.599,93.019 288.296,92.963 C287.378,92.803 287.177,91.772 287.171,91.731 L287.151,91.627 L287.202,91.532 C288.038,90.06 290.177,88.444 290.646,88.102 L290.674,88.023 L290.772,88.007 L290.958,87.872 L291.021,87.967 L292.093,87.789 L291.579,88.156 C292.093,88.262 292.829,88.4 293.355,88.497 L293.402,88.505 L293.441,88.525 C295.771,89.757 296.218,93.262 296.233,93.408 L296.253,93.567 L296.132,93.67 C295.832,93.926 295.452,94.001 295.07,93.882 C294.831,93.809 294.655,93.679 294.602,93.636 C294.095,93.299 293.702,93.461 293.109,93.737 C293.018,93.777 292.931,93.82 292.835,93.862 C292.363,94.068 291.908,94.106 291.48,93.974" id="Fill-13" fill="#732E49"></path>
            <path d="M294.897,89.085 C294.786,89.729 293.54,90.046 292.108,89.797 C290.681,89.553 289.619,88.831 289.728,88.188 C289.839,87.547 291.089,87.227 292.514,87.474 C293.938,87.72 295.006,88.445 294.897,89.085" id="Fill-14" fill="#C6C7C2"></path>
            <path d="M292.676,87.72 L292.478,87.682 C291.815,87.565 291.181,87.571 290.684,87.703 C290.247,87.812 289.973,88.004 289.935,88.226 C289.858,88.67 290.754,89.35 292.146,89.591 C292.81,89.709 293.447,89.701 293.944,89.574 C294.378,89.459 294.652,89.271 294.687,89.046 C294.761,88.626 293.971,87.992 292.676,87.72 M291.863,89.967 C290.378,89.654 289.393,88.893 289.523,88.153 C289.594,87.755 289.967,87.45 290.578,87.296 C291.13,87.152 291.831,87.141 292.549,87.267 C294.139,87.539 295.239,88.348 295.102,89.123 C295.035,89.517 294.662,89.82 294.05,89.98 C293.492,90.119 292.791,90.129 292.073,90.007 L291.863,89.967" id="Fill-15" fill="#9A9D99"></path>
            <path d="M331.321,56.012 C327.726,73.13 308.949,92.002 291.442,88.33 C273.932,84.656 264.324,59.827 267.913,42.707 C271.506,25.585 288.615,14.685 306.122,18.359 C323.63,22.033 334.914,38.89 331.321,56.012" id="Fill-16" fill="#DA4380"></path>
            <path d="M309.077,19.43 C308.092,19.124 307.078,18.862 306.061,18.647 C288.739,15.013 271.758,25.833 268.203,42.766 C266.508,50.84 267.77,60.808 271.572,69.433 C275.704,78.792 282.099,85.222 289.568,87.541 C290.205,87.736 290.853,87.905 291.503,88.041 C299.508,89.722 308.351,86.774 316.406,79.744 C323.789,73.3 329.256,64.407 331.035,55.95 C332.645,48.267 331.271,40.301 327.165,33.521 C323.084,26.787 316.658,21.782 309.077,19.43 M289.395,88.103 C281.755,85.735 275.235,79.187 271.034,69.669 C267.184,60.939 265.908,50.837 267.626,42.644 C271.248,25.393 288.541,14.37 306.183,18.07 C307.219,18.289 308.252,18.555 309.253,18.866 C316.974,21.261 323.515,26.355 327.668,33.218 C331.854,40.124 333.25,48.242 331.608,56.071 C329.811,64.645 324.271,73.662 316.792,80.189 C308.599,87.343 299.568,90.337 291.379,88.617 C290.716,88.477 290.046,88.304 289.395,88.103" id="Fill-17" fill="#732E49"></path>
            <path d="M317.341,57.167 C318.945,52.792 319.864,48.144 319.944,43.496 C320.033,38.325 319.026,32.653 315.784,28.48 C312.819,24.667 308.265,22.359 303.651,21.237 C301.549,20.725 299.402,20.476 297.257,20.476 C293.085,20.476 288.922,21.418 285.118,23.2 C278.374,26.357 274.244,33.066 272.244,40.32 C272.148,40.316 272.051,40.312 271.955,40.309 C271.6,40.297 271.248,40.29 270.895,40.288 C272.201,36.335 274.299,32.613 276.861,29.388 C278.742,27.022 280.941,24.838 283.523,23.249 C286.16,21.63 289.186,20.563 292.214,19.977 C294.153,19.6 296.123,19.415 298.091,19.415 C302.348,19.415 306.598,20.281 310.524,21.948 C316.269,24.384 321.538,28.479 324.854,33.817 C327.993,38.872 329.253,44.812 328.803,50.721 C328.775,51.081 328.741,51.44 328.701,51.799 C324.62,52.911 320.769,54.728 317.341,57.167" id="Fill-18" fill="#BE3465"></path>
            <path d="M328.701,51.799 C328.741,51.44 328.775,51.081 328.803,50.721 C329.253,44.812 327.993,38.872 324.854,33.817 C321.538,28.479 316.269,24.384 310.524,21.948 C306.598,20.281 302.348,19.415 298.091,19.415 C296.123,19.415 294.153,19.6 292.214,19.977 C289.186,20.563 286.16,21.63 283.523,23.249 C280.941,24.838 278.742,27.022 276.861,29.388 C274.299,32.613 272.201,36.335 270.895,40.288 C270.803,40.287 270.71,40.287 270.618,40.287 C270.015,40.287 269.416,40.3 268.819,40.327 C272.787,26.94 285.362,17.944 299.319,17.944 C301.54,17.944 303.799,18.173 306.061,18.647 C307.078,18.862 308.092,19.124 309.077,19.43 C316.658,21.782 323.084,26.787 327.165,33.521 C330.416,38.889 331.954,45 331.655,51.126 C330.658,51.31 329.674,51.534 328.701,51.799" id="Fill-19" fill="#97264F"></path>
            <path d="M331.655,51.126 C331.954,45 330.416,38.889 327.165,33.521 C323.084,26.787 316.658,21.782 309.077,19.43 C308.092,19.124 307.078,18.862 306.061,18.647 C303.799,18.173 301.54,17.944 299.319,17.944 C285.362,17.944 272.787,26.94 268.819,40.327 C268.715,40.332 268.61,40.337 268.505,40.343 C272.477,26.759 285.17,17.647 299.294,17.647 C301.543,17.647 303.83,17.878 306.122,18.359 C321.441,21.573 331.996,34.881 331.988,49.629 C331.988,50.108 331.976,50.59 331.954,51.072 C331.854,51.09 331.754,51.108 331.655,51.126" id="Fill-20" fill="#4C1529"></path>
            <path d="M283.988,42.609 C283.436,42.41 282.878,42.222 282.313,42.047 C279.502,41.178 276.587,40.624 273.626,40.4 C274.222,38.458 274.998,36.537 275.784,34.854 C276.788,32.708 278.41,30.527 280.023,28.803 C284.057,24.487 290.203,21.862 296.201,21.862 C297.637,21.862 299.066,22.012 300.454,22.326 C302.025,22.681 305.401,23.828 306.323,25.551 C306.425,25.752 306.502,25.959 306.533,26.176 C306.97,28.975 302.784,30.102 300.824,30.775 C298.044,31.725 295.175,32.476 292.584,33.896 C288.919,35.909 285.981,38.974 283.988,42.609" id="Fill-21" fill="#E288AE"></path>
            <path d="M318.494,130.448 C318.835,130.599 319.1,130.849 319.313,131.217 C319.772,132.031 320.254,132.314 321.006,132.158 C321.114,132.137 321.217,132.115 321.318,132.094 C321.886,131.959 322.473,131.827 323.071,132.091 C323.308,132.195 323.515,132.347 323.722,132.557 L323.757,132.596 C323.757,132.596 323.983,132.84 324.19,132.849 C324.213,131.941 324.145,129.278 322.606,127.934 C322.271,127.796 320.827,127.197 320.314,126.955 C319.619,127.272 317.42,128.342 316.311,129.49 C316.339,129.696 316.428,130.038 316.725,130.17 C316.926,130.251 317.168,130.256 317.426,130.265 C317.754,130.278 318.131,130.287 318.494,130.448 M319.778,132.955 C319.275,132.731 318.86,132.311 318.497,131.676 C318.356,131.43 318.217,131.342 318.118,131.3 C317.923,131.214 317.665,131.206 317.395,131.195 C317.088,131.19 316.731,131.175 316.396,131.041 L316.346,131.023 C315.549,130.668 315.353,129.778 315.37,129.308 C315.37,129.196 315.411,129.094 315.484,129.011 C316.798,127.527 319.686,126.209 320.123,126.016 L320.368,125.963 C320.479,125.965 320.579,126.01 320.662,126.082 C320.719,126.111 320.827,126.166 321.054,126.263 C321.78,126.589 323.03,127.102 323.03,127.102 L323.151,127.176 C325.449,129.094 325.115,133.076 325.105,133.246 C325.086,133.401 324.997,133.539 324.856,133.612 C324.475,133.823 324.057,133.835 323.658,133.662 C323.33,133.515 323.106,133.277 323.04,133.195 C322.625,132.778 322.284,132.827 321.522,133 C321.42,133.024 321.309,133.046 321.197,133.072 C320.678,133.177 320.202,133.141 319.778,132.955" id="Fill-22" fill="#2D6434"></path>
            <path d="M320.346,126.427 C320.346,126.427 317.171,127.81 315.835,129.324 C315.835,129.324 315.807,130.3 316.565,130.61 C317.33,130.915 318.318,130.411 318.902,131.446 C319.492,132.484 320.212,132.801 321.102,132.614 C321.991,132.428 322.677,132.147 323.387,132.884 C323.387,132.884 323.929,133.585 324.64,133.203 C324.64,133.203 324.99,129.32 322.852,127.532 C322.852,127.532 320.158,126.421 320.346,126.427" id="Fill-23" fill="#E29B33"></path>
            <path d="M318.252,130.539 C318.644,130.662 318.94,130.911 319.163,131.301 C319.66,132.185 320.222,132.499 321.041,132.328 C321.149,132.304 321.255,132.28 321.353,132.257 C321.86,132.141 322.342,132.032 322.826,132.181 C323.109,132.27 323.358,132.433 323.598,132.679 L323.62,132.704 C323.62,132.704 323.792,132.918 324.037,132.995 C324.149,133.029 324.251,133.032 324.356,133.001 C324.385,132.247 324.41,129.256 322.698,127.788 C321.242,127.186 320.61,126.914 320.327,126.764 C319.721,127.037 317.289,128.193 316.135,129.431 C316.15,129.648 316.243,130.159 316.677,130.334 C316.896,130.425 317.148,130.43 317.42,130.438 C317.69,130.446 317.975,130.454 318.252,130.539 M320.053,132.873 C319.498,132.703 319.036,132.281 318.646,131.592 C318.5,131.331 318.325,131.179 318.076,131.105 C317.875,131.041 317.646,131.035 317.4,131.027 C317.092,131.018 316.766,131.003 316.454,130.88 C315.52,130.503 315.539,129.36 315.539,129.313 L315.542,129.206 L315.612,129.125 C316.858,127.715 319.571,126.454 320.142,126.198 L320.189,126.127 L320.292,126.132 L320.499,126.04 L320.54,126.145 L321.628,126.195 L321.041,126.448 C321.532,126.661 322.274,126.973 322.967,127.261 L323.04,127.303 C325.271,129.169 324.946,133.065 324.93,133.228 L324.917,133.384 L324.777,133.459 C324.483,133.621 324.168,133.654 323.865,133.558 C323.477,133.437 323.228,133.154 323.167,133.08 C322.998,132.909 322.832,132.8 322.654,132.744 C322.319,132.64 321.934,132.73 321.487,132.833 C321.382,132.855 321.273,132.882 321.165,132.904 C320.754,132.989 320.391,132.98 320.053,132.873" id="Fill-24" fill="#773622"></path>
            <path d="M324.211,133.022 C324.155,133.022 324.098,133.013 324.037,132.995 C323.792,132.918 323.62,132.704 323.62,132.704 L323.598,132.679 C323.358,132.433 323.109,132.27 322.826,132.181 C322.658,132.129 322.49,132.109 322.321,132.109 C322.004,132.109 321.684,132.181 321.353,132.257 C321.255,132.28 321.149,132.304 321.041,132.328 C320.899,132.357 320.764,132.372 320.636,132.372 C320.029,132.372 319.574,132.031 319.163,131.301 C318.94,130.911 318.644,130.662 318.252,130.539 C317.975,130.454 317.69,130.446 317.42,130.438 C317.148,130.43 316.896,130.425 316.677,130.334 C316.243,130.159 316.15,129.648 316.135,129.431 C316.917,128.592 318.285,127.792 319.274,127.277 C319.454,127.486 319.684,127.691 319.957,127.886 C319.323,128.473 318.736,129.237 318.608,129.47 C318.608,129.472 318.608,129.472 318.608,129.472 C318.634,129.472 319.443,128.713 320.192,128.043 C320.242,128.075 320.294,128.106 320.346,128.137 C319.767,128.91 319.355,129.779 319.262,130.287 C319.262,130.289 319.262,130.289 319.262,130.289 C319.289,130.289 319.998,129.265 320.668,128.314 C320.78,128.372 320.896,128.427 321.016,128.48 L321.235,128.571 C321.614,128.722 321.995,128.836 322.362,128.908 C322.392,129.693 322.402,130.39 322.367,130.989 C322.367,130.99 322.367,130.99 322.367,130.99 C322.374,130.99 322.603,129.724 322.609,129.108 C322.682,129.445 323.01,130.121 323.027,130.121 C323.028,130.121 323.028,130.119 323.027,130.117 C322.953,129.74 322.897,129.36 322.839,128.98 C322.982,128.994 323.12,129.002 323.254,129.002 C323.298,129.002 323.341,129.001 323.384,128.999 C323.464,128.996 323.542,128.99 323.616,128.981 C324.398,130.5 324.378,132.418 324.356,133.001 C324.308,133.015 324.26,133.022 324.211,133.022" id="Fill-25" fill="#DA6C2C"></path>
            <path d="M324.209,133.317 C323.721,133.317 323.387,132.884 323.387,132.884 C323.034,132.518 322.687,132.403 322.318,132.403 C321.945,132.403 321.549,132.52 321.102,132.614 C320.942,132.647 320.789,132.665 320.64,132.665 C319.959,132.665 319.387,132.298 318.902,131.446 C318.318,130.411 317.33,130.915 316.565,130.61 C315.807,130.3 315.835,129.324 315.835,129.324 C316.623,128.43 318.052,127.583 319.091,127.038 C319.145,127.118 319.206,127.198 319.274,127.277 C318.285,127.792 316.917,128.592 316.135,129.431 C316.15,129.648 316.243,130.159 316.677,130.334 C316.896,130.425 317.148,130.43 317.42,130.438 C317.69,130.446 317.975,130.454 318.252,130.539 C318.644,130.662 318.94,130.911 319.163,131.301 C319.574,132.031 320.029,132.372 320.636,132.372 C320.764,132.372 320.899,132.357 321.041,132.328 C321.149,132.304 321.255,132.28 321.353,132.257 C321.684,132.181 322.004,132.109 322.321,132.109 C322.49,132.109 322.658,132.129 322.826,132.181 C323.109,132.27 323.358,132.433 323.598,132.679 L323.62,132.704 C323.62,132.704 323.792,132.918 324.037,132.995 C324.098,133.013 324.155,133.022 324.211,133.022 C324.26,133.022 324.308,133.015 324.356,133.001 C324.378,132.418 324.398,130.5 323.616,128.981 C323.723,128.968 323.824,128.949 323.918,128.925 C324.855,130.817 324.64,133.203 324.64,133.203 C324.487,133.285 324.343,133.317 324.209,133.317" id="Fill-26" fill="#712720"></path>
            <path d="M318.608,129.472 C318.608,129.472 318.608,129.472 318.608,129.47 C318.736,129.237 319.323,128.473 319.957,127.886 C320.032,127.939 320.111,127.992 320.192,128.043 C319.443,128.713 318.634,129.472 318.608,129.472" id="Fill-27" fill="#7F4925"></path>
            <path d="M319.262,130.289 C319.262,130.289 319.262,130.289 319.262,130.287 C319.355,129.779 319.767,128.91 320.346,128.137 C320.449,128.198 320.557,128.257 320.668,128.314 C319.998,129.265 319.289,130.289 319.262,130.289" id="Fill-28" fill="#7F4925"></path>
            <path d="M322.367,130.99 C322.367,130.99 322.367,130.99 322.367,130.989 C322.402,130.39 322.392,129.693 322.362,128.908 C322.524,128.94 322.684,128.964 322.839,128.98 C322.897,129.36 322.953,129.74 323.027,130.117 C323.028,130.119 323.028,130.121 323.027,130.121 C323.01,130.121 322.682,129.445 322.609,129.108 C322.603,129.724 322.374,130.99 322.367,130.99" id="Fill-29" fill="#7F4925"></path>
            <path d="M324.513,128.223 C324.245,128.896 322.816,128.953 321.321,128.356 C319.826,127.757 318.838,126.727 319.105,126.055 C319.377,125.381 320.809,125.324 322.297,125.919 C323.789,126.52 324.783,127.553 324.513,128.223" id="Fill-30" fill="#C6C7C2"></path>
            <path d="M322.415,126.225 L322.211,126.137 C321.52,125.862 320.824,125.72 320.254,125.743 C319.753,125.766 319.415,125.912 319.319,126.14 C319.138,126.604 319.951,127.554 321.407,128.137 C322.103,128.416 322.794,128.557 323.365,128.533 C323.862,128.512 324.203,128.369 324.299,128.135 C324.475,127.695 323.764,126.821 322.415,126.225 M321.016,128.48 C319.473,127.796 318.58,126.743 318.89,125.967 C319.061,125.551 319.533,125.307 320.231,125.28 C320.872,125.253 321.634,125.402 322.383,125.707 C324.05,126.367 325.055,127.502 324.729,128.31 C324.561,128.725 324.085,128.969 323.384,128.999 C322.75,129.023 321.987,128.871 321.235,128.571 L321.016,128.48" id="Fill-31" fill="#9A9D99"></path>
            <path d="M323.166,128.146 C322.698,128.146 322.128,128.031 321.545,127.796 C320.612,127.423 319.911,126.848 319.705,126.346 C320.07,126.53 320.44,126.705 320.814,126.87 C321.669,127.251 322.559,127.582 323.457,127.862 C323.611,127.91 323.766,127.956 323.921,128.001 C323.73,128.097 323.469,128.146 323.166,128.146" id="Fill-32" fill="#A1A4A0"></path>
            <path d="M318.686,128.08 C318.338,128.027 317.99,128.351 317.741,128.548 C317.589,128.666 317.436,128.801 317.305,128.956 L317.238,129.016 C317.057,129.178 316.677,129.52 316.861,129.792 C317.152,130.222 318.079,129.384 318.287,129.205 C318.452,129.056 319.198,128.165 318.686,128.08" id="Fill-33" fill="#D5E7C2"></path>
            <path d="M319.539,129.282 C319.571,129.091 319.262,129.121 319.173,129.179 C318.924,129.336 318.714,129.616 318.603,129.904 C318.529,130.044 318.478,130.202 318.529,130.332 C318.573,130.44 318.704,130.443 318.8,130.407 C319.218,130.248 319.46,129.692 319.539,129.282" id="Fill-34" fill="#D5E7C2"></path>
            <path d="M321.528,130.86 C321.739,130.362 321.765,128.703 320.856,128.892 C320.754,128.914 320.662,128.973 320.579,129.049 L320.521,129.103 L320.467,129.157 C320.327,129.305 320.219,129.498 320.142,129.623 C320.005,129.838 319.852,130.081 319.775,130.339 C319.66,130.571 319.594,130.813 319.632,131.087 C319.689,131.534 320.136,131.784 320.553,131.763 C321.066,131.741 321.351,131.28 321.528,130.86" id="Fill-35" fill="#D5E7C2"></path>
            <path d="M371.739,100.711 C363.875,118.482 339.106,134.646 320.933,126.602 C302.762,118.558 298.066,89.358 305.931,71.592 C313.789,53.818 334.898,45.933 353.068,53.976 C371.245,62.019 379.603,82.944 371.739,100.711" id="Fill-36" fill="#E98342"></path>
            <path d="M348.947,52.745 C331.724,47.404 313.343,55.557 306.198,71.71 C302.31,80.492 301.475,92.07 303.954,102.677 C306.664,114.251 312.736,122.652 321.054,126.334 C321.889,126.703 322.756,127.028 323.633,127.299 C331.86,129.849 341.714,128.08 351.376,122.318 C360.289,117.008 367.8,108.885 371.469,100.594 C375.24,92.075 375.39,82.558 371.896,73.806 C368.398,65.049 361.669,58.105 352.951,54.246 C351.65,53.669 350.299,53.164 348.947,52.745 M323.457,127.862 C322.559,127.582 321.669,127.251 320.814,126.87 C312.322,123.116 306.132,114.569 303.381,102.812 C300.868,92.083 301.723,80.367 305.66,71.47 C312.925,55.045 331.611,46.753 349.122,52.183 C350.496,52.608 351.867,53.121 353.189,53.709 C362.049,57.629 368.887,64.687 372.441,73.586 C375.998,82.488 375.843,92.164 372.008,100.832 C368.29,109.232 360.69,117.455 351.679,122.824 C341.867,128.673 331.848,130.462 323.457,127.862" id="Fill-37" fill="#773622"></path>
            <path d="M331.997,125.677 C331.541,125.677 331.087,125.658 330.633,125.62 L330.531,125.421 C331.197,124.293 332.262,123.58 333.358,122.901 C332.482,123.157 331.599,123.382 330.706,123.575 C329.476,123.837 328.239,124.055 326.986,124.184 C326.343,124.254 325.694,124.327 325.049,124.327 C324.525,124.327 324.004,124.278 323.489,124.14 C321.628,123.646 320.678,121.663 320.35,119.918 C320.008,118.12 320.11,116.261 319.734,114.471 C319.24,115.741 318.877,117.225 318.828,118.553 C318.784,119.773 318.934,121.035 318.539,122.208 L318.348,122.282 C315.976,120.854 315.411,117.998 314.178,115.7 C314.216,117.536 315.163,119.218 315.478,121.013 C315.495,121.102 315.414,121.167 315.334,121.167 C315.305,121.167 315.276,121.158 315.252,121.139 C314.356,120.395 313.568,119.534 312.871,118.608 C308.197,112.41 305.797,104.561 305.312,96.869 C305.291,96.707 305.271,96.545 305.251,96.383 C305.669,95.391 306.057,94.393 306.413,93.391 C306.77,96.328 307.567,99.195 308.931,101.832 C311.704,107.206 316.982,111.168 322.514,113.375 C325.592,114.602 328.929,115.304 332.25,115.304 C334.903,115.304 337.546,114.856 340.037,113.871 C342.785,112.784 345.271,110.995 347.503,109.086 C349.909,107.024 352.052,104.652 353.955,102.12 C357.876,96.904 360.803,90.85 362.271,84.484 C363.572,78.89 363.786,72.492 361.227,67.206 C358.89,62.381 354.478,58.82 349.725,56.532 C345.563,54.529 340.998,53.543 336.417,53.543 C333.974,53.543 331.526,53.823 329.132,54.38 C319.427,56.632 312.645,65.361 309.091,74.66 C308.995,73.627 308.855,72.604 308.674,71.592 C311.069,66.81 314.637,62.566 318.729,59.191 C321.321,57.056 324.213,55.192 327.388,54.064 C330.436,52.982 333.75,52.511 336.984,52.511 C337.186,52.511 337.387,52.512 337.589,52.516 C344.525,52.642 351.348,54.919 357.028,58.895 C362.705,62.868 367.48,68.54 369.846,75.105 C372.087,81.325 372.081,88.069 370.226,94.385 C369.304,97.513 367.934,100.517 366.219,103.29 C364.315,106.369 361.925,109.016 359.546,111.727 C357.002,114.622 354.382,117.452 351.058,119.46 C347.509,121.599 343.598,122.938 339.657,124.143 L339.559,124.138 C337.121,125.086 334.552,125.677 331.997,125.677" id="Fill-38" fill="#E46C2E"></path>
            <path d="M331.389,128.437 C328.691,128.437 326.089,128.06 323.633,127.299 C322.756,127.028 321.889,126.703 321.054,126.334 C312.736,122.652 306.664,114.251 303.954,102.677 C303.767,101.876 303.598,101.069 303.449,100.259 C304.1,98.982 304.702,97.689 305.251,96.383 C305.271,96.545 305.291,96.707 305.312,96.869 C305.797,104.561 308.197,112.41 312.871,118.608 C313.568,119.534 314.356,120.395 315.252,121.139 C315.276,121.158 315.305,121.167 315.334,121.167 C315.414,121.167 315.495,121.102 315.478,121.013 C315.163,119.218 314.216,117.536 314.178,115.7 C315.411,117.998 315.976,120.854 318.348,122.282 L318.539,122.208 C318.934,121.035 318.784,119.773 318.828,118.553 C318.877,117.225 319.24,115.741 319.734,114.471 C320.11,116.261 320.008,118.12 320.35,119.918 C320.678,121.663 321.628,123.646 323.489,124.14 C324.004,124.278 324.525,124.327 325.049,124.327 C325.694,124.327 326.343,124.254 326.986,124.184 C328.239,124.055 329.476,123.837 330.706,123.575 C331.599,123.382 332.482,123.157 333.358,122.901 C332.262,123.58 331.197,124.293 330.531,125.421 L330.633,125.62 C331.087,125.658 331.541,125.677 331.997,125.677 C334.552,125.677 337.121,125.086 339.559,124.138 L339.657,124.143 C343.598,122.938 347.509,121.599 351.058,119.46 C354.382,117.452 357.002,114.622 359.546,111.727 C361.925,109.016 364.315,106.369 366.219,103.29 C367.934,100.517 369.304,97.513 370.226,94.385 C372.081,88.069 372.087,81.325 369.846,75.105 C367.48,68.54 362.705,62.868 357.028,58.895 C351.348,54.919 344.525,52.642 337.589,52.516 C337.387,52.512 337.186,52.511 336.984,52.511 C333.75,52.511 330.436,52.982 327.388,54.064 C324.213,55.192 321.321,57.056 318.729,59.191 C314.637,62.566 311.069,66.81 308.674,71.592 C308.476,70.484 308.228,69.391 307.931,68.313 C314.211,57.532 325.857,51.114 338.234,51.114 C341.781,51.114 345.39,51.641 348.947,52.745 C350.299,53.164 351.65,53.669 352.951,54.246 C361.669,58.105 368.398,65.049 371.896,73.806 C375.39,82.558 375.24,92.075 371.469,100.594 C367.8,108.885 360.289,117.008 351.376,122.318 C344.598,126.36 337.728,128.437 331.389,128.437" id="Fill-39" fill="#D8462B"></path>
            <path d="M331.341,128.725 C327.748,128.725 324.231,128.062 320.933,126.602 C311.258,122.319 305.404,112.04 303.231,100.682 C303.304,100.541 303.377,100.4 303.449,100.259 C303.598,101.069 303.767,101.876 303.954,102.677 C306.664,114.251 312.736,122.652 321.054,126.334 C321.889,126.703 322.756,127.028 323.633,127.299 C326.089,128.06 328.691,128.437 331.389,128.437 C337.728,128.437 344.598,126.36 351.376,122.318 C360.289,117.008 367.8,108.885 371.469,100.594 C375.24,92.075 375.39,82.558 371.896,73.806 C368.398,65.049 361.669,58.105 352.951,54.246 C351.65,53.669 350.299,53.164 348.947,52.745 C345.39,51.641 341.781,51.114 338.234,51.114 C325.857,51.114 314.211,57.532 307.931,68.313 C307.895,68.183 307.858,68.051 307.821,67.921 C314.231,57.109 325.944,50.825 338.256,50.825 C343.198,50.825 348.238,51.838 353.068,53.976 C366.612,59.969 374.705,73.114 374.697,86.776 C374.694,91.449 373.744,96.183 371.739,100.711 C365.303,115.256 347.542,128.725 331.341,128.725" id="Fill-40" fill="#6A1E1E"></path>
            <path d="M351.625,61.838 C351.025,59.754 347.617,57.726 345.992,56.976 C338.564,53.547 328.969,54.634 322.297,59.285 C320.151,60.787 317.882,62.781 316.298,64.877 C314.104,67.78 311.777,71.486 310.595,74.939 C309.47,78.243 308.525,82.079 308.312,85.571 C308.169,87.877 307.93,95.292 311.596,95.357 C314.273,95.404 315.567,90.25 316.354,88.379 C317.98,84.506 319.482,80.519 321.946,77.074 C325.096,72.665 329.556,69.295 334.77,67.724 C337.907,66.777 341.207,66.629 344.442,66.24 C346.725,65.964 351.542,65.706 351.711,62.563 C351.724,62.321 351.691,62.079 351.625,61.838" id="Fill-41" fill="#F5BA63"></path>
            <path d="M315.182,99.533 C315.159,99.236 315.103,98.95 314.994,98.682 C314.127,96.552 310.821,96.472 309.864,98.636 C309.122,100.329 310.824,103.161 312.801,102.867 C314.312,102.644 315.277,101.002 315.182,99.533" id="Fill-42" fill="#F5BA63"></path>
            <path d="M266.702,125.187 C266.702,125.187 265.21,126.805 264.824,128.027 C264.824,128.027 265.057,128.602 265.58,128.584 C266.1,128.567 266.542,128.019 267.151,128.473 C267.764,128.927 268.254,128.925 268.727,128.59 C269.198,128.254 269.526,127.912 270.126,128.158 C270.126,128.158 270.619,128.428 270.935,128.022 C270.935,128.022 270.145,125.674 268.445,125.186 C268.445,125.186 266.59,125.23 266.702,125.187" id="Fill-43" fill="#35A5D1"></path>
            <path d="M265.143,127.999 C265.213,128.114 265.356,128.293 265.57,128.287 C265.697,128.287 265.838,128.227 265.988,128.168 C266.23,128.068 266.501,127.955 266.823,128.012 C266.998,128.04 267.167,128.117 267.33,128.238 C267.802,128.587 268.162,128.634 268.561,128.349 L268.72,128.23 C269.06,127.974 269.418,127.71 269.931,127.795 C270.03,127.813 270.132,127.841 270.237,127.883 L270.269,127.899 L270.416,127.943 L270.585,127.934 C270.364,127.4 269.641,125.871 268.401,125.482 C267.986,125.493 267.184,125.51 266.819,125.496 C266.501,125.861 265.497,127.046 265.143,127.999 M265.401,128.867 C264.814,128.769 264.56,128.163 264.547,128.138 L264.544,127.935 C264.92,126.734 266.262,125.229 266.469,125.002 L266.597,124.914 L266.798,124.907 C266.992,124.915 267.757,124.906 268.436,124.89 L268.525,124.901 C270.358,125.428 271.181,127.826 271.216,127.928 C271.248,128.024 271.228,128.126 271.168,128.206 C270.964,128.469 270.658,128.583 270.316,128.525 C270.167,128.501 270.046,128.452 269.998,128.429 C269.66,128.293 269.466,128.412 269.073,128.704 L268.901,128.83 C268.299,129.258 267.664,129.221 266.973,128.709 C266.718,128.521 266.504,128.599 266.211,128.714 C266.029,128.79 265.818,128.872 265.589,128.882 L265.401,128.867" id="Fill-44" fill="#3679B1"></path>
            <path d="M267.192,125.543 C266.766,126.039 266.523,126.755 266.476,127.402 C266.473,127.449 267.002,126.176 267.308,125.573 L267.192,125.543" id="Fill-45" fill="#3168A4"></path>
            <path d="M267.553,125.349 L267.429,125.367 C267.097,126.011 266.887,126.991 267.065,127.708 C267.071,127.75 267.381,126.112 267.553,125.349" id="Fill-46" fill="#3168A4"></path>
            <path d="M268.704,126.163 C268.841,126.35 269.229,126.675 269.207,126.643 C268.946,126.267 268.717,125.864 268.445,125.493 L268.375,125.494 L268.283,125.385 L268.187,125.461 C268.49,126.067 268.809,126.683 269.048,127.319 C269.06,127.352 268.863,126.528 268.704,126.163" id="Fill-47" fill="#3168A4"></path>
            <path d="M268.047,128.535 C267.825,128.535 267.595,128.434 267.33,128.238 C267.167,128.117 266.998,128.04 266.823,128.012 C266.763,128.002 266.705,127.997 266.648,127.997 C266.401,127.997 266.185,128.087 265.988,128.168 C265.838,128.227 265.697,128.287 265.57,128.287 C265.566,128.287 265.562,128.287 265.559,128.287 C265.351,128.287 265.212,128.112 265.143,127.999 C265.394,127.324 265.972,126.531 266.4,125.997 C266.525,126.047 266.664,126.09 266.817,126.123 C266.622,126.525 266.507,126.978 266.476,127.402 C266.475,127.403 266.476,127.403 266.476,127.403 C266.487,127.403 266.764,126.747 267.029,126.162 C267.062,126.167 267.094,126.172 267.127,126.176 C266.995,126.69 266.952,127.252 267.065,127.708 C267.066,127.709 267.066,127.709 267.066,127.709 C267.075,127.709 267.226,126.928 267.373,126.2 C267.454,126.205 267.536,126.207 267.618,126.207 C267.667,126.207 267.717,126.206 267.767,126.205 C268.028,126.196 268.28,126.164 268.512,126.112 C268.707,126.507 268.894,126.909 269.048,127.319 L269.048,127.32 C269.053,127.32 268.86,126.521 268.704,126.163 C268.834,126.341 269.194,126.645 269.208,126.645 C269.208,126.645 269.208,126.644 269.207,126.643 C269.069,126.444 268.939,126.236 268.808,126.031 C268.922,125.993 269.029,125.95 269.128,125.902 C269.137,125.897 269.145,125.893 269.154,125.889 C269.938,126.503 270.413,127.519 270.585,127.934 L270.416,127.943 L270.269,127.899 L270.237,127.883 C270.132,127.841 270.03,127.813 269.931,127.795 C269.864,127.784 269.799,127.779 269.737,127.779 C269.325,127.779 269.016,128.008 268.72,128.23 L268.561,128.349 C268.386,128.474 268.219,128.535 268.047,128.535" id="Fill-48" fill="#3766A2"></path>
            <path d="M268.048,128.829 C267.773,128.829 267.48,128.717 267.151,128.473 C266.974,128.341 266.81,128.293 266.655,128.293 C266.277,128.293 265.948,128.572 265.58,128.584 C265.572,128.585 265.564,128.585 265.557,128.585 C265.05,128.585 264.824,128.027 264.824,128.027 C265.052,127.305 265.667,126.444 266.131,125.861 C266.21,125.911 266.3,125.956 266.4,125.997 C265.972,126.531 265.394,127.324 265.143,127.999 C265.212,128.112 265.351,128.287 265.559,128.287 C265.562,128.287 265.566,128.287 265.57,128.287 C265.697,128.287 265.838,128.227 265.988,128.168 C266.185,128.087 266.401,127.997 266.648,127.997 C266.705,127.997 266.763,128.002 266.823,128.012 C266.998,128.04 267.167,128.117 267.33,128.238 C267.595,128.434 267.825,128.535 268.047,128.535 C268.219,128.535 268.386,128.474 268.561,128.349 L268.72,128.23 C269.016,128.008 269.325,127.779 269.737,127.779 C269.799,127.779 269.864,127.784 269.931,127.795 C270.03,127.813 270.132,127.841 270.237,127.883 L270.269,127.899 L270.416,127.943 L270.585,127.934 C270.413,127.519 269.938,126.503 269.154,125.889 C269.256,125.837 269.345,125.781 269.421,125.721 C270.449,126.579 270.935,128.022 270.935,128.022 C270.8,128.196 270.632,128.246 270.484,128.246 C270.287,128.246 270.126,128.158 270.126,128.158 C269.984,128.099 269.857,128.074 269.739,128.074 C269.362,128.074 269.086,128.334 268.727,128.59 C268.508,128.745 268.285,128.829 268.048,128.829" id="Fill-49" fill="#2E5998"></path>
            <path d="M266.476,127.403 C266.476,127.403 266.475,127.403 266.476,127.402 C266.507,126.978 266.622,126.525 266.817,126.123 C266.872,126.135 266.928,126.145 266.985,126.155 C267,126.157 267.014,126.16 267.029,126.162 C266.764,126.747 266.487,127.403 266.476,127.403" id="Fill-50" fill="#295394"></path>
            <path d="M267.066,127.709 C267.066,127.709 267.066,127.709 267.065,127.708 C266.952,127.252 266.995,126.69 267.127,126.176 C267.208,126.187 267.29,126.194 267.373,126.2 C267.226,126.928 267.075,127.709 267.066,127.709" id="Fill-51" fill="#295394"></path>
            <path d="M269.048,127.32 L269.048,127.319 C268.894,126.909 268.707,126.507 268.512,126.112 C268.615,126.088 268.714,126.061 268.808,126.031 C268.939,126.236 269.069,126.444 269.207,126.643 C269.208,126.644 269.208,126.645 269.208,126.645 C269.194,126.645 268.834,126.341 268.704,126.163 C268.86,126.521 269.053,127.32 269.048,127.32" id="Fill-52" fill="#295394"></path>
            <path d="M269.584,125.161 C269.602,125.623 268.783,126.02 267.764,126.057 C266.743,126.091 265.901,125.748 265.883,125.287 C265.87,124.827 266.686,124.427 267.709,124.39 C268.729,124.357 269.567,124.702 269.584,125.161" id="Fill-53" fill="#C6C7C2"></path>
            <path d="M268.439,124.584 C268.21,124.545 267.964,124.53 267.712,124.54 C267.237,124.554 266.798,124.652 266.473,124.811 C266.188,124.953 266.029,125.122 266.035,125.283 C266.042,125.53 266.453,125.768 267.033,125.865 C267.263,125.902 267.505,125.917 267.76,125.911 C268.232,125.891 268.675,125.792 268.997,125.636 C269.281,125.495 269.44,125.326 269.434,125.166 C269.431,124.918 269.02,124.68 268.439,124.584 M266.985,126.155 C266.23,126.032 265.752,125.699 265.739,125.291 C265.729,125.008 265.943,124.744 266.339,124.547 C266.705,124.366 267.189,124.261 267.699,124.243 C267.977,124.234 268.235,124.251 268.487,124.292 C269.242,124.419 269.718,124.749 269.733,125.157 C269.743,125.443 269.526,125.705 269.128,125.902 C268.765,126.079 268.283,126.187 267.767,126.205 C267.499,126.214 267.234,126.198 266.985,126.155" id="Fill-54" fill="#9A9D99"></path>
            <path d="M267.629,125.677 C266.834,125.677 266.198,125.402 266.171,125.042 C267.131,125.185 268.093,125.273 269.054,125.306 C268.782,125.51 268.301,125.656 267.751,125.675 C267.71,125.677 267.669,125.677 267.629,125.677" id="Fill-55" fill="#A1A4A0"></path>
            <path d="M266.16,126.575 C265.946,126.629 265.828,126.911 265.732,127.085 C265.676,127.194 265.618,127.312 265.583,127.436 L265.558,127.488 C265.497,127.63 265.363,127.928 265.538,128.037 C265.818,128.209 266.144,127.488 266.217,127.328 C266.274,127.202 266.485,126.492 266.16,126.575" id="Fill-56" fill="#B8E0E3"></path>
            <path d="M266.967,127.053 C266.938,126.93 266.766,127.027 266.728,127.088 C266.622,127.242 266.571,127.458 266.584,127.655 C266.574,127.755 266.584,127.858 266.65,127.921 L266.819,127.895 C267.027,127.697 267.023,127.31 266.967,127.053" id="Fill-57" fill="#B8E0E3"></path>
            <path d="M268.528,127.458 C268.525,127.117 268.111,126.148 267.633,126.49 L267.509,126.653 L267.489,126.696 L267.47,126.743 C267.432,126.867 267.416,127.002 267.403,127.094 C267.378,127.256 267.353,127.439 267.371,127.605 C267.368,127.768 267.391,127.926 267.482,128.077 C267.633,128.324 267.955,128.352 268.19,128.235 C268.48,128.092 268.528,127.749 268.528,127.458" id="Fill-58" fill="#B8E0E3"></path>
            <path d="M308.934,79.284 C308.242,99.936 290.234,125.724 269.115,125.014 C247.989,124.305 231.751,97.373 232.442,76.717 C233.141,56.066 250.826,39.897 271.942,40.604 C293.064,41.312 309.625,58.632 308.934,79.284" id="Fill-59" fill="#35A5D1"></path>
            <path d="M282.137,42.612 C278.851,41.593 275.417,41.017 271.933,40.898 C251.005,40.198 233.425,56.272 232.739,76.726 C232.439,85.748 235.35,96.035 240.737,104.954 C246.446,114.407 254.11,121.013 262.318,123.559 C264.56,124.251 266.849,124.644 269.121,124.721 C278.796,125.045 288.5,119.806 296.457,109.977 C303.741,100.962 308.293,89.486 308.641,79.273 C309.195,62.696 298.299,47.621 282.137,42.612 M262.146,124.123 C253.801,121.535 246.017,114.834 240.23,105.256 C234.789,96.244 231.844,85.839 232.149,76.706 C232.845,55.926 250.699,39.598 271.955,40.309 C275.49,40.427 278.975,41.015 282.313,42.047 C298.727,47.136 309.798,62.454 309.227,79.293 C308.883,89.629 304.276,101.237 296.916,110.346 C288.844,120.325 278.965,125.64 269.103,125.308 C266.775,125.232 264.436,124.832 262.146,124.123" id="Fill-60" fill="#3A5280"></path>
            <path d="M261.372,121.889 C261.359,121.889 261.347,121.887 261.334,121.883 C260.157,121.504 259.035,120.97 257.98,120.332 C250.906,116.078 245.42,109.291 241.885,101.894 C238.193,95.333 235.557,87.926 235.098,80.399 C234.655,73.155 236.689,65.745 240.145,59.398 C241.847,56.266 243.96,53.273 246.645,50.9 C249.386,48.479 252.688,46.619 256.093,45.32 C260.3,43.711 264.785,42.911 269.276,42.911 C272.139,42.911 275.003,43.236 277.799,43.883 C284.98,45.547 291.942,49.241 296.891,54.777 C301.57,60.019 304.244,66.676 304.927,73.643 C305.258,77.096 305.105,80.607 304.513,84.022 C303.858,87.814 302.555,91.373 301.283,94.995 C299.928,98.863 298.468,102.694 295.985,105.995 C293.339,109.518 290.011,112.391 286.603,115.144 L286.504,115.181 C284.113,117.423 281.352,119.252 278.293,120.187 L278.111,120.037 C278.314,118.657 279.08,117.531 279.896,116.424 C279.134,117.024 278.35,117.6 277.547,118.141 C276.438,118.89 275.303,119.597 274.12,120.225 C273.019,120.811 271.907,121.417 270.654,121.576 C270.513,121.593 270.373,121.601 270.234,121.601 C268.384,121.601 266.823,120.131 265.879,118.657 C264.831,117.015 264.189,115.143 263.106,113.527 C263.128,114.974 263.355,116.581 263.836,117.913 C264.276,119.133 264.923,120.317 265.003,121.634 L264.847,121.778 C261.937,121.315 260.243,118.722 258.114,116.946 C258.886,118.74 260.485,120.027 261.516,121.667 C261.575,121.768 261.477,121.889 261.372,121.889 M267.605,44.389 C260.788,44.389 254.082,46.598 248.49,50.513 C237.477,58.236 235.258,74.379 237.646,86.775 C238.975,93.688 242,100.681 247.422,105.353 C252.27,109.531 259.01,111.336 265.315,111.336 C265.349,111.336 265.383,111.336 265.417,111.336 C271.751,111.317 278.245,109.282 282.896,104.864 C285.172,102.698 286.916,99.947 288.354,97.177 C289.912,94.185 291.082,90.995 291.952,87.74 C293.747,81.038 294.226,73.904 293.147,67.042 C292.201,61.005 289.871,54.606 285.245,50.412 C281.021,46.582 275.255,44.823 269.657,44.457 C268.973,44.412 268.288,44.389 267.605,44.389" id="Fill-61" fill="#366DA7"></path>
            <path d="M269.969,124.735 C269.687,124.735 269.403,124.731 269.121,124.721 C266.849,124.644 264.56,124.251 262.318,123.559 C254.11,121.013 246.446,114.407 240.737,104.954 C235.35,96.035 232.439,85.748 232.739,76.726 C233.41,56.701 250.272,40.876 270.617,40.876 C271.053,40.876 271.493,40.883 271.933,40.898 C275.417,41.017 278.851,41.593 282.137,42.612 C298.299,47.621 309.195,62.696 308.641,79.273 C308.293,89.486 303.741,100.962 296.457,109.977 C288.732,119.519 279.362,124.736 269.969,124.735 M269.276,42.911 C264.785,42.911 260.3,43.711 256.093,45.32 C252.688,46.619 249.386,48.479 246.645,50.9 C243.96,53.273 241.847,56.266 240.145,59.398 C236.689,65.745 234.655,73.155 235.098,80.399 C235.557,87.926 238.193,95.333 241.885,101.894 C245.42,109.291 250.906,116.078 257.98,120.332 C259.035,120.97 260.157,121.504 261.334,121.883 C261.347,121.887 261.359,121.889 261.372,121.889 C261.477,121.889 261.575,121.768 261.516,121.667 C260.485,120.027 258.886,118.74 258.114,116.946 C260.243,118.722 261.937,121.315 264.847,121.778 L265.003,121.634 C264.923,120.317 264.276,119.133 263.836,117.913 C263.355,116.581 263.128,114.974 263.106,113.527 C264.189,115.143 264.831,117.015 265.879,118.657 C266.823,120.131 268.384,121.601 270.234,121.601 C270.373,121.601 270.513,121.593 270.654,121.576 C271.907,121.417 273.019,120.811 274.12,120.225 C275.303,119.597 276.438,118.89 277.547,118.141 C278.35,117.6 279.134,117.024 279.896,116.424 C279.08,117.531 278.314,118.657 278.111,120.037 L278.293,120.187 C281.352,119.252 284.113,117.423 286.504,115.181 L286.603,115.144 C290.011,112.391 293.339,109.518 295.985,105.995 C298.468,102.694 299.928,98.863 301.283,94.995 C302.555,91.373 303.858,87.814 304.513,84.022 C305.105,80.607 305.258,77.096 304.927,73.643 C304.244,66.676 301.57,60.019 296.891,54.777 C291.942,49.241 284.98,45.547 277.799,43.883 C275.003,43.236 272.139,42.911 269.276,42.911" id="Fill-62" fill="#2A5897"></path>
            <path d="M269.969,125.028 C269.685,125.028 269.4,125.024 269.115,125.014 C248.423,124.32 232.419,98.466 232.421,77.995 C232.421,77.567 232.428,77.14 232.442,76.717 C233.126,56.501 250.086,40.582 270.61,40.582 C271.051,40.582 271.498,40.589 271.942,40.604 C292.642,41.298 308.96,57.945 308.954,78.048 C308.954,78.459 308.947,78.871 308.934,79.284 C308.251,99.657 290.718,125.029 269.969,125.028 M270.617,40.876 C250.272,40.876 233.41,56.701 232.739,76.726 C232.439,85.748 235.35,96.035 240.737,104.954 C246.446,114.407 254.11,121.013 262.318,123.559 C264.56,124.251 266.849,124.644 269.121,124.721 C269.403,124.731 269.687,124.735 269.969,124.735 C279.362,124.736 288.732,119.519 296.457,109.977 C303.741,100.962 308.293,89.486 308.641,79.273 C309.195,62.696 298.299,47.621 282.137,42.612 C278.851,41.593 275.417,41.017 271.933,40.898 C271.493,40.883 271.053,40.876 270.617,40.876" id="Fill-63" fill="#27355D"></path>
            <path d="M246.577,98.08 C243.394,98.079 241.063,91.696 240.354,89.562 C239.175,86.029 238.576,81.874 238.378,78.164 C238.171,74.292 238.997,69.708 240.004,65.976 C240.73,63.276 242.175,60.407 243.705,58.076 C248.235,51.122 256.739,46.349 265.097,46.349 C265.449,46.349 265.802,46.358 266.153,46.375 C268.057,46.466 272.22,47.116 273.636,48.936 C273.805,49.147 273.932,49.373 274.012,49.614 C275.099,52.782 270.451,54.952 268.306,56.133 C265.271,57.805 262.073,59.258 259.353,61.441 C254.837,65.063 251.783,70.158 250.425,75.761 C249.366,80.138 249.472,84.665 249.401,89.134 C249.37,91.289 250.144,96.889 247.482,97.907 C247.174,98.025 246.872,98.08 246.577,98.08" id="Fill-64" fill="#92D2DF"></path>
            <path d="M250.55,105.124 C248.875,105.124 247.032,103.428 247.081,101.828 C247.135,100.127 248.656,99.011 250.162,99.011 C250.883,99.011 251.601,99.267 252.152,99.837 C252.366,100.06 252.542,100.317 252.679,100.6 C253.357,102.011 253.055,104.012 251.652,104.834 C251.31,105.035 250.935,105.124 250.55,105.124" id="Fill-65" fill="#92D2DF"></path>
            <path d="M71.791,93.575 C72.164,93.591 72.506,93.727 72.834,93.994 C73.558,94.587 74.112,94.679 74.756,94.259 C74.849,94.197 74.934,94.142 75.023,94.083 C75.506,93.754 76.006,93.415 76.662,93.444 C76.918,93.455 77.169,93.519 77.437,93.644 L77.484,93.665 C77.484,93.665 77.784,93.81 77.978,93.743 C77.67,92.889 76.642,90.428 74.715,89.735 C74.354,89.728 72.786,89.69 72.222,89.653 C71.692,90.203 70.028,92.001 69.406,93.474 C69.509,93.655 69.719,93.943 70.038,93.957 C70.258,93.96 70.484,93.879 70.73,93.794 C71.039,93.682 71.396,93.556 71.791,93.575" id="Fill-66" fill="#2D6434"></path>
            <path d="M72.059,89.153 C72.059,89.153 69.601,91.595 68.903,93.49 C68.903,93.49 69.231,94.414 70.055,94.424 C70.34,94.428 70.615,94.33 70.891,94.232 C71.41,94.048 71.933,93.863 72.534,94.357 C73.465,95.111 74.249,95.146 75.012,94.649 C75.773,94.152 76.314,93.639 77.242,94.069 C77.242,94.069 78.001,94.526 78.527,93.909 C78.527,93.909 77.446,90.158 74.797,89.271 C74.797,89.271 71.877,89.211 72.059,89.153" id="Fill-67" fill="#73B94F"></path>
            <path d="M71.476,93.978 C71.887,93.912 72.24,94.01 72.592,94.294 C73.449,94.997 74.188,95.086 74.97,94.579 C75.062,94.519 75.151,94.459 75.237,94.4 C75.61,94.149 75.958,93.909 76.359,93.844 C76.656,93.796 76.953,93.844 77.277,93.994 C77.287,93.999 77.622,94.197 77.978,94.138 C78.154,94.112 78.307,94.027 78.435,93.89 C78.305,93.474 77.197,90.171 74.785,89.351 C72.84,89.313 72.26,89.276 72.082,89.247 C71.798,89.539 69.642,91.753 68.989,93.49 C69.05,93.636 69.379,94.333 70.055,94.341 C70.299,94.344 70.576,94.256 70.86,94.157 C71.059,94.085 71.262,94.013 71.476,93.978 M74.262,95.039 C73.691,95.132 73.111,94.93 72.486,94.419 C72.174,94.166 71.871,94.08 71.498,94.142 C71.301,94.173 71.103,94.243 70.912,94.312 C70.631,94.411 70.325,94.51 70.051,94.507 C69.184,94.497 68.84,93.556 68.824,93.516 L68.814,93.49 L68.824,93.462 C69.486,91.665 71.734,89.362 71.977,89.118 L71.986,89.092 L72.015,89.082 L72.057,89.041 L72.075,89.06 L72.368,88.961 L72.229,89.103 C72.662,89.137 73.959,89.172 74.801,89.187 L74.822,89.193 C76.216,89.659 77.169,90.914 77.726,91.884 C78.326,92.929 78.603,93.877 78.603,93.888 L78.619,93.93 L78.591,93.962 C78.432,94.152 78.234,94.264 78.004,94.302 C77.59,94.369 77.217,94.149 77.201,94.138 C76.918,94.008 76.649,93.962 76.385,94.005 C76.021,94.063 75.703,94.28 75.326,94.537 C75.24,94.595 75.151,94.657 75.059,94.718 C74.795,94.892 74.529,94.997 74.262,95.039" id="Fill-68" fill="#2D6434"></path>
            <path d="M72.059,89.153 C72.059,89.153 69.601,91.595 68.903,93.49 C68.903,93.49 69.231,94.414 70.055,94.424 C70.34,94.428 70.615,94.33 70.891,94.232 C71.41,94.048 71.933,93.863 72.534,94.357 C73.465,95.111 74.249,95.146 75.012,94.649 C75.773,94.152 76.314,93.639 77.242,94.069 C77.242,94.069 78.001,94.526 78.527,93.909 C78.527,93.909 77.446,90.158 74.797,89.271 C74.797,89.271 71.877,89.211 72.059,89.153" id="Fill-69" fill="#9271A4"></path>
            <path d="M71.432,93.738 C71.916,93.658 72.346,93.778 72.748,94.104 C73.273,94.534 73.748,94.708 74.198,94.636 C74.408,94.601 74.615,94.519 74.836,94.374 L75.1,94.197 C75.496,93.927 75.869,93.674 76.321,93.601 C76.662,93.545 77.014,93.601 77.379,93.772 L77.412,93.789 C77.412,93.789 77.676,93.938 77.943,93.895 L78.154,93.813 C77.896,93.067 76.831,90.334 74.74,89.597 C73.207,89.568 72.509,89.54 72.174,89.506 C71.699,89.998 69.889,91.926 69.254,93.481 C69.355,93.679 69.614,94.09 70.057,94.099 C70.293,94.102 70.522,94.016 70.774,93.925 C70.984,93.85 71.201,93.775 71.432,93.738 M74.303,95.284 C73.659,95.39 73.012,95.167 72.33,94.612 C72.008,94.35 71.75,94.35 71.536,94.385 C71.364,94.411 71.183,94.475 70.994,94.542 C70.695,94.649 70.357,94.756 70.051,94.753 C69.012,94.739 68.609,93.647 68.594,93.6 L68.553,93.486 L68.598,93.377 C69.248,91.608 71.301,89.456 71.753,88.993 L71.781,88.902 L71.877,88.867 L72.062,88.683 L72.148,88.776 L73.289,88.389 L72.793,88.883 C73.321,88.908 74.09,88.929 74.804,88.942 L74.902,88.958 C77.68,89.891 78.795,93.66 78.843,93.818 L78.894,93.988 L78.775,94.122 C78.578,94.355 78.33,94.497 78.046,94.542 C77.59,94.617 77.188,94.416 77.093,94.361 C76.848,94.248 76.634,94.213 76.426,94.248 C76.114,94.298 75.814,94.501 75.467,94.739 C75.377,94.798 75.289,94.862 75.193,94.921 C74.899,95.114 74.6,95.236 74.303,95.284" id="Fill-70" fill="#3B3E83"></path>
            <path d="M76.599,89.313 C76.592,90.038 75.282,90.609 73.669,90.593 C72.057,90.58 70.758,89.979 70.766,89.254 C70.774,88.528 72.084,87.954 73.697,87.97 C75.305,87.986 76.605,88.587 76.599,89.313" id="Fill-71" fill="#C6C7C2"></path>
            <path d="M73.914,88.21 L73.694,88.204 C72.945,88.194 72.25,88.317 71.725,88.547 C71.266,88.747 71.001,89.009 70.998,89.258 C70.994,89.757 72.103,90.345 73.676,90.358 C74.422,90.37 75.116,90.248 75.639,90.017 C76.102,89.816 76.363,89.559 76.363,89.308 C76.369,88.833 75.387,88.277 73.914,88.21 M73.427,90.821 C71.744,90.746 70.525,90.086 70.532,89.25 C70.539,88.8 70.893,88.403 71.536,88.122 C72.119,87.866 72.885,87.727 73.697,87.737 C75.496,87.751 76.841,88.443 76.831,89.313 C76.824,89.763 76.475,90.16 75.83,90.444 C75.247,90.698 74.478,90.836 73.666,90.829 L73.427,90.821" id="Fill-72" fill="#9A9D99"></path>
            <path d="M71.109,91.299 C70.766,91.371 70.561,91.803 70.401,92.076 C70.299,92.242 70.207,92.423 70.141,92.613 L70.099,92.696 C69.99,92.913 69.754,93.369 70.028,93.559 C70.459,93.853 71.019,92.736 71.147,92.488 C71.246,92.292 71.623,91.189 71.109,91.299" id="Fill-73" fill="#E7D3DF"></path>
            <path d="M72.343,92.108 C72.305,91.915 72.023,92.054 71.963,92.146 C71.788,92.381 71.692,92.72 71.695,93.03 C71.68,93.185 71.685,93.35 71.781,93.455 L72.059,93.425 C72.396,93.126 72.416,92.517 72.343,92.108" id="Fill-74" fill="#E7D3DF"></path>
            <path d="M74.771,92.856 C74.788,92.317 74.211,90.758 73.434,91.267 C73.344,91.319 73.28,91.408 73.228,91.512 L73.191,91.584 L73.162,91.654 C73.089,91.841 73.054,92.063 73.031,92.207 C72.98,92.458 72.926,92.741 72.945,93.008 C72.93,93.262 72.951,93.516 73.082,93.756 C73.303,94.155 73.809,94.227 74.191,94.055 C74.657,93.847 74.756,93.312 74.771,92.856" id="Fill-75" fill="#E7D3DF"></path>
            <path d="M110.66,46.477 C109.783,65.913 92.551,89.995 72.672,89.1 C52.792,88.204 37.793,62.672 38.674,43.233 C39.547,23.797 56.372,8.767 76.251,9.662 C96.131,10.557 111.53,27.041 110.66,46.477" id="Fill-76" fill="#9271A4"></path>
            <path d="M68.719,10.423 C60.783,11.708 53.439,15.66 48.043,21.547 C42.575,27.513 39.359,35.222 38.998,43.25 C38.568,52.849 41.992,63.947 48.157,72.934 C54.887,82.739 63.596,88.363 72.687,88.774 C74.319,88.846 75.977,88.747 77.622,88.48 C85.799,87.155 93.828,81.67 100.232,73.038 C106.254,64.924 109.934,55.237 110.328,46.46 C111.195,27.238 95.897,10.877 76.238,9.99 C73.711,9.878 71.183,10.023 68.719,10.423 M77.724,89.129 C76.037,89.402 74.332,89.503 72.652,89.428 C63.356,89.009 54.466,83.281 47.618,73.305 C41.373,64.203 37.902,52.955 38.346,43.221 C38.715,35.04 41.982,27.185 47.558,21.104 C53.054,15.109 60.532,11.086 68.609,9.774 C71.122,9.369 73.697,9.221 76.264,9.336 C96.293,10.239 111.865,26.907 110.982,46.493 C110.186,64.203 95.793,86.198 77.724,89.129" id="Fill-77" fill="#3B3E83"></path>
            <path d="M70.79,84.465 C70.365,84.04 69.997,83.559 69.697,83.078 C68.725,81.523 68.141,79.752 67.141,78.218 C67.141,78.518 67.15,78.825 67.17,79.134 C66.529,77.999 65.825,76.903 65.06,75.851 C66.489,76.063 67.924,76.172 69.337,76.183 C69.416,76.184 69.495,76.184 69.574,76.184 C75.467,76.184 81.496,74.333 85.865,70.278 C88.033,68.267 89.7,65.694 91.09,63.1 C92.588,60.299 93.724,57.31 94.578,54.253 C96.334,47.961 96.867,41.253 95.926,34.78 C95.101,29.087 92.977,23.039 88.664,19.039 C84.73,15.39 79.324,13.672 74.055,13.266 C73.294,13.207 72.534,13.178 71.774,13.178 C65.475,13.178 59.272,15.178 54.061,18.74 C43.607,25.889 41.345,41.064 43.459,52.757 C44.092,56.27 45.189,59.811 46.857,63.028 C46.267,62.852 45.672,62.692 45.073,62.548 C42.87,57.536 41.4,52.159 41.131,46.729 C40.793,39.902 42.789,32.95 46.11,27.011 C47.746,24.078 49.768,21.289 52.32,19.079 C54.925,16.83 58.059,15.117 61.271,13.928 C65.124,12.507 69.213,11.802 73.304,11.802 C76.136,11.802 78.968,12.14 81.728,12.812 C88.47,14.457 94.986,18.011 99.582,23.273 C103.934,28.261 106.379,34.556 106.939,41.125 C107.221,44.377 107.035,47.679 106.443,50.887 C105.786,54.454 104.52,57.791 103.283,61.187 C102.122,64.377 100.887,67.54 98.991,70.355 C98.436,70.326 97.882,70.312 97.327,70.312 C95.601,70.312 93.874,70.451 92.154,70.729 C83.22,72.179 75.532,77.266 70.79,84.465" id="Fill-78" fill="#65478B"></path>
            <path d="M70.014,85.706 C69.807,85.049 69.583,84.404 69.344,83.772 C68.735,82.168 68.007,80.618 67.17,79.134 C67.15,78.825 67.141,78.518 67.141,78.218 C68.141,79.752 68.725,81.523 69.697,83.078 C69.997,83.559 70.365,84.04 70.79,84.465 C70.521,84.872 70.263,85.285 70.014,85.706 M101.914,70.64 C100.941,70.501 99.966,70.406 98.991,70.355 C100.887,67.54 102.122,64.377 103.283,61.187 C104.52,57.791 105.786,54.454 106.443,50.887 C107.035,47.679 107.221,44.377 106.939,41.125 C106.379,34.556 103.934,28.261 99.582,23.273 C94.986,18.011 88.47,14.457 81.728,12.812 C78.968,12.14 76.136,11.802 73.304,11.802 C69.213,11.802 65.124,12.507 61.271,13.928 C58.059,15.117 54.925,16.83 52.32,19.079 C49.768,21.289 47.746,24.078 46.11,27.011 C42.789,32.95 40.793,39.902 41.131,46.729 C41.4,52.159 42.87,57.536 45.073,62.548 C44.187,62.333 43.292,62.153 42.391,62.007 C39.951,55.753 38.731,49.212 38.998,43.25 C39.359,35.222 42.575,27.513 48.043,21.547 C53.439,15.66 60.783,11.708 68.719,10.423 C70.645,10.11 72.611,9.954 74.585,9.954 C75.135,9.954 75.687,9.966 76.238,9.99 C95.897,10.877 111.195,27.238 110.328,46.46 C109.972,54.387 106.935,63.058 101.914,70.64" id="Fill-79" fill="#513B83"></path>
            <path d="M102.273,70.694 C102.153,70.675 102.034,70.658 101.914,70.64 C106.935,63.058 109.972,54.387 110.328,46.46 C111.195,27.238 95.897,10.877 76.238,9.99 C75.687,9.966 75.135,9.954 74.585,9.954 C72.611,9.954 70.645,10.11 68.719,10.423 C60.783,11.708 53.439,15.66 48.043,21.547 C42.575,27.513 39.359,35.222 38.998,43.25 C38.731,49.212 39.951,55.753 42.391,62.007 C42.27,61.987 42.148,61.968 42.026,61.95 C39.845,56.294 38.635,50.378 38.637,44.87 C38.637,44.32 38.649,43.774 38.674,43.233 C39.522,24.349 55.429,9.624 74.565,9.624 C75.124,9.624 75.687,9.636 76.251,9.662 C95.587,10.532 110.685,26.151 110.695,44.89 C110.696,45.416 110.684,45.946 110.66,46.477 C110.3,54.449 107.189,63.203 102.273,70.694" id="Fill-80" fill="#292757"></path>
            <path d="M51.773,63.498 C48.764,63.498 46.625,57.434 45.976,55.411 C44.908,52.071 44.393,48.154 44.246,44.66 C44.093,41.011 44.915,36.706 45.903,33.204 C46.621,30.668 48.014,27.983 49.471,25.804 C53.772,19.377 61.707,14.997 69.5,14.997 C69.913,14.997 70.327,15.009 70.739,15.034 C72.527,15.142 76.439,15.796 77.756,17.524 C77.908,17.725 78.027,17.939 78.1,18.165 C79.085,21.16 74.689,23.153 72.658,24.24 C69.779,25.78 66.758,27.118 64.176,29.143 C59.882,32.504 56.945,37.267 55.61,42.528 C54.564,46.637 54.615,50.898 54.504,55.106 C54.449,57.137 55.113,62.416 52.602,63.345 C52.318,63.45 52.042,63.498 51.773,63.498" id="Fill-81" fill="#CBA8C4"></path>
            <path d="M57.629,68.374 C56.475,67.523 55.263,66.742 54,66.036 C53.616,65.821 53.227,65.614 52.836,65.415 C53.397,64.782 54.242,64.415 55.082,64.415 C55.771,64.415 56.456,64.662 56.975,65.213 C57.176,65.424 57.338,65.67 57.465,65.936 C57.809,66.677 57.869,67.584 57.629,68.374" id="Fill-82" fill="#CBA8C4"></path>
            <path d="M52.426,141.102 C52.767,140.975 53.123,140.963 53.52,141.077 C54.398,141.328 54.932,141.194 55.346,140.569 L55.515,140.309 C55.82,139.829 56.139,139.329 56.735,139.102 C56.969,139.016 57.22,138.976 57.51,138.982 L57.561,138.984 C57.561,138.984 57.883,138.998 58.036,138.865 C57.43,138.215 55.55,136.412 53.557,136.536 C53.232,136.665 51.816,137.24 51.291,137.427 C51.032,138.121 50.238,140.375 50.252,141.936 C50.41,142.057 50.711,142.236 51,142.124 C51.201,142.042 51.373,141.881 51.555,141.709 C51.795,141.49 52.063,141.242 52.426,141.102 M55.039,141.964 C54.535,142.153 53.959,142.151 53.27,141.953 C53.002,141.877 52.844,141.918 52.748,141.953 C52.553,142.027 52.371,142.199 52.177,142.378 C51.957,142.585 51.699,142.818 51.37,142.956 L51.322,142.976 C50.529,143.278 49.786,142.791 49.471,142.455 C49.396,142.378 49.352,142.278 49.346,142.172 C49.244,140.236 50.348,137.338 50.52,136.904 L50.646,136.703 C50.729,136.626 50.832,136.584 50.934,136.582 C50.991,136.567 51.109,136.524 51.332,136.44 C52.063,136.163 53.283,135.664 53.286,135.664 L53.417,135.631 C56.334,135.388 58.833,138.382 58.941,138.511 C59.037,138.628 59.068,138.789 59.021,138.936 C58.896,139.348 58.616,139.645 58.221,139.794 C57.892,139.919 57.574,139.905 57.472,139.893 C56.894,139.888 56.693,140.158 56.283,140.799 C56.225,140.886 56.168,140.981 56.107,141.074 C55.817,141.505 55.461,141.803 55.039,141.964" id="Fill-83" fill="#2D6434"></path>
            <path d="M50.953,137.037 C50.953,137.037 49.697,140.178 49.805,142.145 C49.805,142.145 50.459,142.845 51.195,142.536 C51.937,142.23 52.275,141.196 53.394,141.514 C54.517,141.835 55.234,141.56 55.725,140.82 C56.216,140.079 56.5,139.414 57.497,139.439 C57.497,139.439 58.355,139.553 58.591,138.8 C58.591,138.8 56.168,135.859 53.455,136.085 C53.455,136.085 50.816,137.163 50.953,137.037" id="Fill-84" fill="#73B94F"></path>
            <path d="M49.882,142.108 C49.984,142.203 50.436,142.608 50.953,142.523 L51.163,142.46 C51.408,142.362 51.606,142.176 51.814,141.986 C52.094,141.726 52.381,141.456 52.795,141.389 C52.99,141.357 53.19,141.372 53.417,141.437 C54.456,141.731 55.157,141.531 55.658,140.774 C55.719,140.683 55.775,140.595 55.83,140.507 C56.181,139.959 56.48,139.487 57.146,139.38 C57.255,139.362 57.376,139.352 57.504,139.356 C57.525,139.358 58.266,139.455 58.495,138.819 C58.215,138.493 55.948,135.967 53.471,136.166 C53.2,136.275 51.342,137.034 51.014,137.122 C50.857,137.517 49.799,140.313 49.882,142.108 M50.981,142.682 C50.306,142.791 49.768,142.224 49.741,142.202 L49.723,142.176 L49.719,142.148 C49.617,140.287 50.742,137.355 50.867,137.04 L50.86,137.016 L50.886,136.991 L50.908,136.938 L50.931,136.949 L51.163,136.744 L51.09,136.925 C51.494,136.786 52.643,136.327 53.42,136.009 L53.433,136.003 L53.445,136.003 C54.873,135.883 56.216,136.639 57.086,137.293 C58.029,137.999 58.648,138.741 58.651,138.746 L58.68,138.781 L58.667,138.825 C58.416,139.633 57.504,139.521 57.49,139.521 C57.383,139.519 57.271,139.527 57.176,139.542 C56.579,139.639 56.311,140.061 55.967,140.595 C55.913,140.683 55.855,140.774 55.792,140.865 C55.25,141.683 54.488,141.91 53.372,141.594 C53.172,141.539 52.993,141.525 52.817,141.552 C52.454,141.611 52.195,141.852 51.925,142.105 C51.715,142.297 51.498,142.5 51.226,142.612 L50.981,142.682" id="Fill-85" fill="#2D6434"></path>
            <path d="M50.809,142.535 C50.355,142.535 49.975,142.195 49.882,142.108 C49.829,140.964 50.24,139.414 50.585,138.337 C50.725,138.36 50.877,138.372 51.039,138.372 C51.241,138.372 51.458,138.354 51.686,138.316 C51.648,139.161 51.76,140.094 51.832,140.344 C51.832,140.345 51.833,140.346 51.833,140.346 C51.851,140.346 51.896,139.253 51.959,138.264 C52.014,138.252 52.069,138.239 52.124,138.226 C52.25,139.161 52.562,140.047 52.85,140.465 C52.85,140.466 52.85,140.466 52.851,140.466 C52.872,140.466 52.66,139.256 52.473,138.127 C52.588,138.09 52.706,138.049 52.824,138.004 L53.044,137.918 C53.411,137.764 53.754,137.581 54.058,137.38 C54.616,137.905 55.103,138.382 55.488,138.819 C55.489,138.82 55.489,138.82 55.49,138.82 C55.495,138.82 54.783,137.779 54.367,137.346 C54.645,137.527 55.312,137.764 55.35,137.764 C55.352,137.764 55.352,137.763 55.349,137.761 C55.039,137.551 54.74,137.326 54.439,137.102 C54.584,136.985 54.716,136.863 54.832,136.74 C54.939,136.624 55.03,136.508 55.105,136.395 C56.875,137.001 58.279,138.567 58.495,138.819 C58.321,139.302 57.852,139.362 57.627,139.362 C57.556,139.362 57.509,139.356 57.504,139.356 C57.485,139.355 57.466,139.355 57.448,139.355 C57.341,139.355 57.239,139.364 57.146,139.38 C56.48,139.487 56.181,139.959 55.83,140.507 C55.775,140.595 55.719,140.683 55.658,140.774 C55.303,141.31 54.848,141.566 54.244,141.566 C53.995,141.566 53.72,141.523 53.417,141.437 C53.266,141.394 53.128,141.373 52.994,141.373 C52.927,141.373 52.861,141.378 52.795,141.389 C52.381,141.456 52.094,141.726 51.814,141.986 C51.606,142.176 51.408,142.362 51.163,142.46 L50.953,142.523 C50.905,142.531 50.857,142.535 50.809,142.535" id="Fill-86" fill="#4E9242"></path>
            <path d="M50.807,142.615 C50.244,142.615 49.805,142.145 49.805,142.145 C49.741,140.984 50.153,139.413 50.501,138.321 C50.528,138.327 50.556,138.332 50.585,138.337 C50.24,139.414 49.829,140.964 49.882,142.108 C49.975,142.195 50.355,142.535 50.809,142.535 C50.857,142.535 50.905,142.531 50.953,142.523 L51.163,142.46 C51.408,142.362 51.606,142.176 51.814,141.986 C52.094,141.726 52.381,141.456 52.795,141.389 C52.861,141.378 52.927,141.373 52.994,141.373 C53.128,141.373 53.266,141.394 53.417,141.437 C53.72,141.523 53.995,141.566 54.244,141.566 C54.848,141.566 55.303,141.31 55.658,140.774 C55.719,140.683 55.775,140.595 55.83,140.507 C56.181,139.959 56.48,139.487 57.146,139.38 C57.239,139.364 57.341,139.355 57.448,139.355 C57.466,139.355 57.485,139.355 57.504,139.356 C57.509,139.356 57.556,139.362 57.627,139.362 C57.852,139.362 58.321,139.302 58.495,138.819 C58.279,138.567 56.875,137.001 55.105,136.395 C55.122,136.37 55.137,136.345 55.152,136.321 C57.102,136.993 58.591,138.8 58.591,138.8 C58.41,139.378 57.863,139.445 57.618,139.445 C57.544,139.445 57.497,139.439 57.497,139.439 C57.479,139.438 57.462,139.438 57.444,139.438 C56.49,139.438 56.207,140.093 55.725,140.82 C55.37,141.354 54.898,141.647 54.24,141.647 C53.987,141.647 53.706,141.603 53.394,141.514 C53.248,141.472 53.115,141.454 52.993,141.454 C52.18,141.454 51.84,142.27 51.195,142.536 C51.062,142.592 50.931,142.615 50.807,142.615" id="Fill-87" fill="#1E4125"></path>
            <path d="M51.833,140.346 C51.833,140.346 51.832,140.345 51.832,140.344 C51.76,140.094 51.648,139.161 51.686,138.316 C51.775,138.302 51.867,138.285 51.959,138.264 C51.896,139.253 51.851,140.346 51.833,140.346" id="Fill-88" fill="#326332"></path>
            <path d="M52.851,140.466 C52.85,140.466 52.85,140.466 52.85,140.465 C52.562,140.047 52.25,139.161 52.124,138.226 C52.238,138.197 52.355,138.164 52.473,138.127 C52.66,139.256 52.872,140.466 52.851,140.466" id="Fill-89" fill="#326332"></path>
            <path d="M55.49,138.82 C55.489,138.82 55.489,138.82 55.488,138.819 C55.103,138.382 54.616,137.905 54.058,137.38 C54.193,137.291 54.32,137.198 54.439,137.102 C54.74,137.326 55.039,137.551 55.349,137.761 C55.352,137.763 55.352,137.764 55.35,137.764 C55.312,137.764 54.645,137.527 54.367,137.346 C54.783,137.779 55.495,138.82 55.49,138.82" id="Fill-90" fill="#326332"></path>
            <path d="M55.084,135.426 C55.358,136.078 54.405,137.098 52.955,137.708 C51.504,138.32 50.107,138.282 49.837,137.63 C49.562,136.976 50.516,135.953 51.963,135.345 C53.41,134.74 54.811,134.774 55.084,135.426" id="Fill-91" fill="#C6C7C2"></path>
            <path d="M52.254,135.478 L52.049,135.557 C51.38,135.837 50.8,136.216 50.42,136.626 C50.086,136.983 49.951,137.317 50.045,137.541 C50.235,137.991 51.45,138.091 52.869,137.497 C53.538,137.216 54.118,136.837 54.498,136.427 C54.832,136.07 54.967,135.738 54.873,135.514 C54.691,135.086 53.599,134.966 52.254,135.478 M52.824,138.004 C51.287,138.587 49.942,138.466 49.627,137.715 C49.457,137.315 49.617,136.816 50.086,136.315 C50.513,135.861 51.144,135.442 51.877,135.138 C53.49,134.455 54.967,134.553 55.295,135.337 C55.463,135.742 55.298,136.236 54.832,136.74 C54.408,137.192 53.773,137.612 53.044,137.918 L52.824,138.004" id="Fill-92" fill="#9A9D99"></path>
            <path d="M51.108,137.532 C50.879,137.532 50.676,137.502 50.512,137.443 C50.878,137.324 51.241,137.197 51.6,137.061 C52.593,136.684 53.56,136.242 54.497,135.736 C54.295,136.227 53.624,136.79 52.725,137.165 C52.143,137.41 51.571,137.532 51.108,137.532" id="Fill-93" fill="#A1A4A0"></path>
            <path d="M50.934,139.327 C50.656,139.527 50.637,139.993 50.6,140.299 C50.573,140.483 50.561,140.683 50.573,140.881 L50.57,140.972 C50.555,141.205 50.525,141.709 50.842,141.769 C51.342,141.865 51.408,140.649 51.432,140.379 C51.44,140.165 51.352,139.033 50.934,139.327" id="Fill-94" fill="#D5E7C2"></path>
            <path d="M52.35,139.578 C52.244,139.416 52.049,139.651 52.027,139.756 C51.963,140.034 52.005,140.375 52.126,140.652 C52.174,140.799 52.247,140.943 52.371,140.998 C52.473,141.041 52.568,140.956 52.607,140.865 C52.795,140.467 52.575,139.914 52.35,139.578" id="Fill-95" fill="#D5E7C2"></path>
            <path d="M54.816,139.307 C54.622,138.817 53.506,137.646 53,138.403 C52.945,138.485 52.92,138.589 52.913,138.702 L52.913,138.851 C52.913,139.051 52.974,139.259 53.002,139.399 C53.06,139.645 53.117,139.916 53.238,140.149 C53.321,140.385 53.442,140.601 53.652,140.764 C54.004,141.037 54.484,140.906 54.759,140.606 C55.097,140.237 54.979,139.722 54.816,139.307" id="Fill-96" fill="#D5E7C2"></path>
            <path d="M69.034,83.887 C75.764,101.638 69.637,129.874 51.482,136.753 C33.33,143.637 10.025,126.559 3.292,108.811 C-3.434,91.058 5.826,71.09 23.98,64.208 C42.133,57.327 62.308,66.137 69.034,83.887" id="Fill-97" fill="#73B94F"></path>
            <path d="M31.049,62.651 C28.692,63.033 26.353,63.661 24.099,64.516 C15.399,67.815 8.473,74.227 4.605,82.573 C0.735,90.914 0.379,100.193 3.598,108.694 C6.601,116.604 13.143,124.678 21.096,130.286 C29.684,136.34 38.816,138.959 46.809,137.664 C48.374,137.411 49.907,136.998 51.367,136.45 C59.665,133.302 66.024,125.439 69.276,114.307 C72.257,104.099 72.053,92.771 68.728,84.005 C65.941,76.65 60.596,70.474 53.682,66.61 C46.854,62.798 38.816,61.39 31.049,62.651 M46.914,138.312 C38.75,139.636 29.447,136.976 20.717,130.82 C12.54,125.054 6.075,117.075 2.986,108.925 C-0.297,100.257 0.066,90.801 4.01,82.295 C7.953,73.794 15.008,67.262 23.863,63.901 C26.158,63.033 28.543,62.394 30.946,62.004 C38.858,60.719 47.045,62.151 54,66.036 C61.052,69.977 66.5,76.273 69.344,83.772 C72.713,92.666 72.923,104.149 69.904,114.489 C66.596,125.824 60.092,133.841 51.6,137.061 C50.099,137.63 48.523,138.05 46.914,138.312" id="Fill-98" fill="#2D6434"></path>
            <path d="M42.662,136.904 C41.902,136.904 41.141,136.84 40.389,136.729 C32.891,135.628 25.833,131.82 20.216,126.804 C14.759,122.551 9.903,117.207 6.85,110.989 C3.907,105.007 3.008,98.004 3.684,91.402 C4.021,88.143 4.752,84.86 6.186,81.898 C7.646,78.873 9.789,76.13 12.215,73.821 C17.121,69.145 23.43,66.047 30.104,64.914 C32.126,64.57 34.199,64.391 36.275,64.391 C41.053,64.391 45.857,65.336 50.143,67.382 C55.971,70.166 60.593,74.862 63.641,80.527 C65.144,83.335 66.258,86.364 66.965,89.469 C67.118,90.139 67.248,90.811 67.359,91.483 C67.117,92.199 66.9,92.927 66.71,93.665 C65.169,99.662 65.237,106.707 66.801,113.534 C65.771,116.543 64.327,119.393 62.811,122.196 L62.741,122.258 C61.508,125.006 59.814,127.537 57.555,129.412 L57.342,129.348 C57.035,128.103 57.283,126.88 57.58,125.654 C57.146,126.434 56.687,127.198 56.197,127.943 C55.523,128.968 54.811,129.974 54.032,130.921 C53.303,131.808 52.578,132.717 51.568,133.29 C51.038,133.595 50.464,133.722 49.884,133.723 C48.683,133.723 47.449,133.175 46.49,132.51 C45.02,131.493 43.815,130.133 42.32,129.145 C42.852,130.366 43.617,131.648 44.494,132.605 C45.298,133.481 46.269,134.259 46.803,135.345 L46.723,135.521 C46.3,135.624 45.884,135.669 45.474,135.669 C43.333,135.669 41.345,134.442 39.305,133.813 C40.592,135.06 42.4,135.583 43.857,136.613 C43.952,136.682 43.895,136.844 43.78,136.856 C43.409,136.888 43.036,136.904 42.662,136.904 M32.188,66.735 C29.205,66.735 26.201,67.326 23.407,68.283 C16.865,70.526 11.3,75.085 7.611,80.917 C1.013,91.363 4.852,105.832 11.265,115.493 C14.838,120.879 19.881,125.736 26.136,127.774 C28.228,128.456 30.428,128.762 32.642,128.762 C36.371,128.762 40.14,127.891 43.503,126.474 C48.868,124.21 53.649,120.184 56.024,114.792 C57.187,112.151 57.691,109.202 57.931,106.345 C58.189,103.257 58.052,100.139 57.638,97.073 C56.78,90.757 54.66,84.537 51.316,79.102 C48.377,74.323 44.137,69.728 38.727,67.81 C36.621,67.063 34.41,66.735 32.188,66.735" id="Fill-99" fill="#4E9242"></path>
            <path d="M42.714,137.988 C35.779,137.988 28.248,135.328 21.096,130.286 C13.143,124.678 6.601,116.604 3.598,108.694 C0.379,100.193 0.735,90.914 4.605,82.573 C8.473,74.227 15.399,67.815 24.099,64.516 C26.353,63.661 28.692,63.033 31.049,62.651 C32.906,62.349 34.777,62.201 36.645,62.201 C42.589,62.201 48.486,63.71 53.682,66.61 C60.596,70.474 65.941,76.65 68.728,84.005 C69.034,84.812 69.314,85.64 69.567,86.487 C68.69,88.071 67.949,89.741 67.359,91.483 C67.248,90.811 67.118,90.139 66.965,89.469 C66.258,86.364 65.144,83.335 63.641,80.527 C60.593,74.862 55.971,70.166 50.143,67.382 C45.857,65.336 41.053,64.391 36.275,64.391 C34.199,64.391 32.126,64.57 30.104,64.914 C23.43,66.047 17.121,69.145 12.215,73.821 C9.789,76.13 7.646,78.873 6.186,81.898 C4.752,84.86 4.021,88.143 3.684,91.402 C3.008,98.004 3.907,105.007 6.85,110.989 C9.903,117.207 14.759,122.551 20.216,126.804 C25.833,131.82 32.891,135.628 40.389,136.729 C41.141,136.84 41.902,136.904 42.662,136.904 C43.036,136.904 43.409,136.888 43.78,136.856 C43.895,136.844 43.952,136.682 43.857,136.613 C42.4,135.583 40.592,135.06 39.305,133.813 C41.345,134.442 43.333,135.669 45.474,135.669 C45.884,135.669 46.3,135.624 46.723,135.521 L46.803,135.345 C46.269,134.259 45.298,133.481 44.494,132.605 C43.617,131.648 42.852,130.366 42.32,129.145 C43.815,130.133 45.02,131.493 46.49,132.51 C47.449,133.175 48.683,133.723 49.884,133.723 C50.464,133.722 51.038,133.595 51.568,133.29 C52.578,132.717 53.303,131.808 54.032,130.921 C54.811,129.974 55.523,128.968 56.197,127.943 C56.687,127.198 57.146,126.434 57.58,125.654 C57.283,126.88 57.035,128.103 57.342,129.348 L57.555,129.412 C59.814,127.537 61.508,125.006 62.741,122.258 L62.811,122.196 C64.327,119.393 65.771,116.543 66.801,113.534 C67.144,115.032 67.559,116.521 68.045,117.985 C64.549,127.17 58.719,133.661 51.367,136.45 C49.907,136.998 48.374,137.411 46.809,137.664 C45.472,137.881 44.106,137.988 42.714,137.988" id="Fill-100" fill="#326332"></path>
            <path d="M42.73,138.314 C26.489,138.313 8.979,123.801 3.292,108.811 C1.801,104.876 1.096,100.831 1.099,96.845 C1.109,82.848 9.851,69.565 23.98,64.208 C28.17,62.62 32.464,61.868 36.678,61.868 C50.725,61.868 63.86,70.233 69.034,83.887 C69.306,84.606 69.558,85.343 69.788,86.093 C69.714,86.224 69.64,86.355 69.567,86.487 C69.314,85.64 69.034,84.812 68.728,84.005 C65.941,76.65 60.596,70.474 53.682,66.61 C48.486,63.71 42.589,62.201 36.645,62.201 C34.777,62.201 32.906,62.349 31.049,62.651 C28.692,63.033 26.353,63.661 24.099,64.516 C15.399,67.815 8.473,74.227 4.605,82.573 C0.735,90.914 0.379,100.193 3.598,108.694 C6.601,116.604 13.143,124.678 21.096,130.286 C28.248,135.328 35.779,137.988 42.714,137.988 C44.106,137.988 45.472,137.881 46.809,137.664 C48.374,137.411 49.907,136.998 51.367,136.45 C58.719,133.661 64.549,127.17 68.045,117.985 C68.097,118.144 68.151,118.301 68.205,118.46 C64.918,126.831 59.322,133.783 51.482,136.753 C48.662,137.823 45.718,138.314 42.73,138.314" id="Fill-101" fill="#162B1C"></path>
            <path d="M28.371,70.668 C26.521,69.629 22.764,70.556 21.121,71.149 C13.602,73.87 7.676,81.206 6.231,89.02 C5.77,91.536 5.559,94.483 5.894,97.027 C6.368,100.547 7.289,104.721 8.839,107.932 C10.321,111.005 12.297,114.317 14.545,116.893 C16.03,118.594 20.953,123.914 23.547,121.443 C25.441,119.636 22.805,115.164 22.064,113.327 C20.541,109.51 18.849,105.715 18.191,101.627 C17.359,96.402 18.144,91 20.691,86.33 C22.227,83.513 24.411,81.149 26.4,78.657 C27.8,76.895 30.965,73.412 28.926,71.111 C28.769,70.935 28.584,70.789 28.371,70.668" id="Fill-102" fill="#D5E7C2"></path>
            <path d="M28.906,121.886 C28.689,121.694 28.45,121.536 28.189,121.424 C26.127,120.535 23.773,122.748 24.596,124.908 C25.236,126.596 28.364,127.395 29.537,125.835 C30.434,124.644 29.983,122.839 28.906,121.886" id="Fill-103" fill="#D5E7C2"></path>
            <path d="M87.443,139.244 C87.443,139.244 84.884,140.903 83.943,142.402 C83.943,142.402 84.059,143.255 84.766,143.414 C85.009,143.469 85.263,143.434 85.517,143.4 C85.997,143.335 86.48,143.27 86.914,143.804 C87.574,144.621 88.244,144.793 88.986,144.5 C89.732,144.212 90.287,143.871 91.011,144.409 C91.011,144.409 91.578,144.934 92.142,144.5 C92.142,144.5 91.887,141.078 89.773,139.84 C89.773,139.84 87.274,139.263 87.443,139.244" id="Fill-104" fill="#F9D55A"></path>
            <path d="M86.414,142.997 C86.729,143.079 86.997,143.259 87.23,143.547 C87.746,144.189 88.209,144.366 88.84,144.122 L89.101,144.018 C89.572,143.819 90.064,143.62 90.621,143.764 C90.838,143.819 91.043,143.919 91.253,144.078 L91.288,144.104 C91.288,144.104 91.52,144.28 91.699,144.258 C91.591,143.47 91.147,141.167 89.621,140.224 C89.305,140.152 87.969,139.84 87.488,139.705 C86.936,140.083 85.184,141.328 84.38,142.482 C84.437,142.656 84.561,142.942 84.836,143.01 C85.023,143.054 85.234,143.024 85.457,142.992 C85.748,142.956 86.076,142.912 86.414,142.997 M87.89,144.985 C87.424,144.868 86.997,144.563 86.596,144.061 C86.435,143.869 86.299,143.815 86.21,143.79 C86.025,143.743 85.805,143.774 85.568,143.807 C85.301,143.844 84.988,143.884 84.676,143.815 L84.632,143.804 C83.889,143.615 83.593,142.869 83.541,142.46 C83.525,142.365 83.545,142.268 83.596,142.185 C84.519,140.707 86.834,139.151 87.188,138.921 L87.389,138.837 C87.488,138.825 87.58,138.848 87.66,138.899 C87.715,138.918 87.822,138.947 88.027,138.998 C88.713,139.174 89.863,139.439 89.869,139.442 L89.98,139.487 C92.254,140.82 92.537,144.322 92.551,144.472 C92.561,144.609 92.5,144.742 92.391,144.825 C92.085,145.066 91.725,145.136 91.355,145.041 C91.053,144.963 90.826,144.788 90.752,144.726 C90.335,144.421 90.045,144.514 89.407,144.777 C89.321,144.811 89.228,144.846 89.137,144.884 C88.699,145.051 88.281,145.085 87.89,144.985" id="Fill-105" fill="#F9D252"></path>
            <path d="M87.973,139.893 C87.23,140.406 86.662,141.288 86.373,142.135 C86.353,142.199 87.501,140.677 88.116,139.967 L87.973,139.893" id="Fill-106" fill="#FAD14D"></path>
            <path d="M88.521,139.753 C88.575,139.655 88.384,139.693 88.349,139.733 C87.683,140.486 87.07,141.729 87.055,142.748 C87.055,142.811 88.033,140.719 88.521,139.753" id="Fill-107" fill="#FAD14D"></path>
            <path d="M89.789,141.24 C89.904,141.536 90.318,142.111 90.3,142.057 C90.073,141.461 89.904,140.844 89.672,140.253 L89.579,140.23 L89.49,140.05 L89.337,140.123 C89.535,141.044 89.752,141.972 89.85,142.906 C89.856,142.956 89.875,141.787 89.789,141.24" id="Fill-108" fill="#FAD14D"></path>
            <path d="M91.668,144.26 C91.494,144.26 91.288,144.104 91.288,144.104 L91.253,144.078 C91.043,143.919 90.838,143.819 90.621,143.764 C90.488,143.73 90.359,143.715 90.233,143.715 C89.831,143.715 89.46,143.866 89.101,144.018 L88.84,144.122 C88.66,144.191 88.493,144.227 88.335,144.227 C87.94,144.227 87.599,144.005 87.23,143.547 C86.997,143.259 86.729,143.079 86.414,142.997 C86.269,142.961 86.127,142.948 85.988,142.948 C85.802,142.948 85.623,142.971 85.457,142.992 C85.314,143.012 85.176,143.032 85.046,143.032 C84.973,143.032 84.903,143.026 84.836,143.01 C84.561,142.942 84.437,142.656 84.38,142.482 C84.95,141.663 85.997,140.8 86.755,140.232 C86.904,140.342 87.076,140.447 87.268,140.543 C86.87,141.013 86.562,141.582 86.373,142.135 C86.373,142.137 86.373,142.137 86.373,142.137 C86.393,142.137 86.985,141.36 87.539,140.668 C87.581,140.685 87.623,140.703 87.667,140.719 C87.315,141.364 87.065,142.101 87.055,142.748 C87.055,142.749 87.055,142.75 87.055,142.75 C87.075,142.75 87.545,141.758 87.991,140.834 C88.095,140.867 88.203,140.898 88.313,140.926 L88.521,140.975 C88.872,141.052 89.22,141.095 89.549,141.105 C89.674,141.703 89.787,142.303 89.85,142.906 C89.85,142.907 89.85,142.907 89.85,142.907 C89.857,142.907 89.873,141.776 89.789,141.24 C89.899,141.523 90.282,142.061 90.3,142.061 C90.301,142.061 90.301,142.059 90.3,142.057 C90.18,141.741 90.076,141.419 89.97,141.099 C90.137,141.088 90.297,141.067 90.446,141.037 C90.461,141.033 90.475,141.03 90.49,141.027 C91.329,142.12 91.615,143.646 91.699,144.258 C91.689,144.259 91.678,144.26 91.668,144.26" id="Fill-109" fill="#F7C447"></path>
            <path d="M91.661,144.672 C91.295,144.672 91.011,144.409 91.011,144.409 C90.733,144.202 90.48,144.125 90.231,144.125 C89.833,144.125 89.446,144.323 88.986,144.5 C88.765,144.588 88.551,144.634 88.341,144.634 C87.846,144.634 87.377,144.378 86.914,143.804 C86.623,143.446 86.31,143.357 85.99,143.357 C85.833,143.357 85.675,143.378 85.517,143.4 C85.358,143.421 85.2,143.443 85.045,143.443 C84.951,143.443 84.858,143.435 84.766,143.414 C84.059,143.255 83.943,142.402 83.943,142.402 C84.498,141.518 85.616,140.578 86.44,139.955 C86.529,140.05 86.635,140.143 86.755,140.232 C85.997,140.8 84.95,141.663 84.38,142.482 C84.437,142.656 84.561,142.942 84.836,143.01 C84.903,143.026 84.973,143.032 85.046,143.032 C85.176,143.032 85.314,143.012 85.457,142.992 C85.623,142.971 85.802,142.948 85.988,142.948 C86.127,142.948 86.269,142.961 86.414,142.997 C86.729,143.079 86.997,143.259 87.23,143.547 C87.599,144.005 87.94,144.227 88.335,144.227 C88.493,144.227 88.66,144.191 88.84,144.122 L89.101,144.018 C89.46,143.866 89.831,143.715 90.233,143.715 C90.359,143.715 90.488,143.73 90.621,143.764 C90.838,143.819 91.043,143.919 91.253,144.078 L91.288,144.104 C91.288,144.104 91.494,144.26 91.668,144.26 C91.678,144.26 91.689,144.259 91.699,144.258 C91.615,143.646 91.329,142.12 90.49,141.027 C90.642,140.992 90.779,140.947 90.9,140.893 C91.985,142.398 92.142,144.5 92.142,144.5 C91.978,144.627 91.813,144.672 91.661,144.672" id="Fill-110" fill="#F6C042"></path>
            <path d="M86.373,142.137 C86.373,142.137 86.373,142.137 86.373,142.135 C86.562,141.582 86.87,141.013 87.268,140.543 C87.354,140.586 87.445,140.628 87.539,140.668 C86.985,141.36 86.393,142.137 86.373,142.137" id="Fill-111" fill="#F6BE40"></path>
            <path d="M87.055,142.75 C87.055,142.75 87.055,142.749 87.055,142.748 C87.065,142.101 87.315,141.364 87.667,140.719 C87.771,140.76 87.879,140.798 87.991,140.834 C87.545,141.758 87.075,142.75 87.055,142.75" id="Fill-112" fill="#F6BE40"></path>
            <path d="M89.85,142.907 C89.85,142.907 89.85,142.907 89.85,142.906 C89.787,142.303 89.674,141.703 89.549,141.105 C89.597,141.107 89.645,141.107 89.692,141.107 C89.787,141.107 89.879,141.105 89.97,141.099 C90.076,141.419 90.18,141.741 90.3,142.057 C90.301,142.059 90.301,142.061 90.3,142.061 C90.282,142.061 89.899,141.523 89.789,141.24 C89.873,141.776 89.857,142.907 89.85,142.907" id="Fill-113" fill="#F6BE40"></path>
            <path d="M91.316,140.201 C91.176,140.824 89.945,141.077 88.562,140.774 C87.182,140.473 86.175,139.719 86.308,139.1 C86.449,138.477 87.68,138.217 89.059,138.523 C90.439,138.827 91.453,139.578 91.316,140.201" id="Fill-114" fill="#C6C7C2"></path>
            <path d="M89.206,138.771 L89.016,138.726 C88.377,138.581 87.756,138.559 87.259,138.664 C86.828,138.752 86.557,138.928 86.51,139.142 C86.417,139.573 87.259,140.277 88.61,140.575 C89.251,140.715 89.869,140.74 90.367,140.633 C90.794,140.544 91.068,140.372 91.113,140.154 C91.201,139.745 90.463,139.091 89.206,138.771 M88.313,140.926 C86.879,140.558 85.951,139.77 86.111,139.054 C86.197,138.669 86.573,138.388 87.179,138.263 C87.725,138.149 88.409,138.169 89.104,138.322 C90.644,138.659 91.677,139.498 91.514,140.246 C91.425,140.627 91.053,140.907 90.446,141.037 C89.901,141.149 89.216,141.127 88.521,140.975 L88.313,140.926" id="Fill-115" fill="#9A9D99"></path>
            <path d="M89.625,140.367 C89.332,140.367 89.01,140.333 88.678,140.259 C87.88,140.083 87.231,139.73 86.938,139.359 C87.254,139.456 87.572,139.546 87.893,139.628 C88.806,139.863 89.736,140.037 90.68,140.15 C90.433,140.291 90.06,140.367 89.625,140.367" id="Fill-116" fill="#A1A4A0"></path>
            <path d="M86.238,140.916 C85.93,140.918 85.674,141.254 85.489,141.457 C85.371,141.581 85.257,141.723 85.164,141.872 L85.116,141.936 C84.982,142.105 84.702,142.455 84.899,142.666 C85.215,142.996 85.9,142.137 86.054,141.947 C86.175,141.797 86.697,140.916 86.238,140.916" id="Fill-117" fill="#FEF6CB"></path>
            <path d="M87.15,141.835 C87.15,141.664 86.889,141.735 86.815,141.8 C86.627,141.972 86.484,142.244 86.427,142.511 C86.389,142.642 86.363,142.787 86.427,142.893 L86.669,142.919 C87.014,142.722 87.144,142.202 87.15,141.835" id="Fill-118" fill="#FEF6CB"></path>
            <path d="M89.104,142.917 C89.216,142.458 88.999,141.011 88.237,141.308 L88.02,141.483 L87.976,141.539 L87.937,141.594 C87.839,141.743 87.771,141.926 87.725,142.046 C87.638,142.252 87.539,142.485 87.508,142.719 C87.443,142.936 87.421,143.155 87.491,143.388 C87.605,143.767 88.027,143.922 88.387,143.844 C88.827,143.75 89.006,143.307 89.104,142.917" id="Fill-119" fill="#FEF6CB"></path>
            <path d="M128.324,109.528 C124.062,126.079 104.902,143.665 87.975,139.311 C71.049,134.954 62.767,110.294 67.025,93.746 C71.291,77.195 88.461,67.313 105.391,71.671 C122.314,76.028 132.582,92.977 128.324,109.528" id="Fill-120" fill="#F9D55A"></path>
            <path d="M92.26,71.376 C80.127,73.342 70.351,82.157 67.344,93.829 C65.244,101.993 66.181,112.143 69.859,120.975 C73.867,130.604 80.332,137.002 88.056,138.992 C90.947,139.736 94.01,139.853 97.163,139.343 C103.749,138.274 110.619,134.458 116.51,128.6 C122.117,123.016 126.306,116.036 128.005,109.445 C132.213,93.097 122.031,76.294 105.308,71.988 C100.992,70.876 96.602,70.671 92.26,71.376 M97.266,139.989 C94.026,140.516 90.87,140.392 87.893,139.628 C79.965,137.584 73.344,131.05 69.254,121.226 C65.527,112.268 64.577,101.963 66.71,93.665 C69.779,81.739 79.768,72.739 92.154,70.729 C96.59,70.012 101.071,70.22 105.471,71.353 C122.545,75.75 132.939,92.91 128.637,109.608 C126.914,116.311 122.662,123.402 116.975,129.063 C110.988,135.02 103.988,138.899 97.266,139.989" id="Fill-121" fill="#C08557"></path>
            <path d="M96.252,137.058 L96.131,136.904 C96.548,135.827 97.367,135.054 98.221,134.306 C97.498,134.656 96.762,134.977 96.016,135.273 C94.988,135.679 93.939,136.045 92.879,136.343 C92.019,136.577 91.155,136.828 90.27,136.828 C90.127,136.828 89.984,136.821 89.841,136.807 C88.154,136.643 87.042,135.06 86.506,133.596 C85.951,132.083 85.769,130.456 85.184,128.958 C84.944,130.13 84.839,131.47 84.988,132.631 C85.126,133.695 85.438,134.768 85.266,135.846 L85.109,135.933 C82.847,135.039 81.941,132.64 80.545,130.823 C80.845,132.411 81.902,133.735 82.438,135.247 C82.466,135.328 82.391,135.402 82.314,135.402 C82.294,135.402 82.275,135.397 82.257,135.386 C81.374,134.872 80.567,134.237 79.828,133.534 C74.881,128.832 71.667,122.37 70.137,115.765 C68.332,109.805 67.533,103.356 68.512,97.192 C69.451,91.267 72.426,85.648 76.35,81.144 C78.285,78.918 80.525,76.883 83.121,75.448 C85.764,73.983 88.764,73.075 91.747,72.635 C93.197,72.422 94.659,72.316 96.12,72.316 C100.74,72.316 105.351,73.368 109.531,75.368 C115.031,77.997 119.99,82.228 122.987,87.582 C125.831,92.655 126.793,98.51 126.096,104.253 C125.748,107.101 124.989,109.907 123.902,112.56 C122.693,115.503 121.004,118.146 119.328,120.841 C117.539,123.719 115.674,126.55 113.08,128.77 C110.312,131.141 107.112,132.864 103.867,134.477 L103.781,134.486 C101.444,135.872 98.888,136.852 96.252,137.058 M95.422,73.318 C91.756,73.318 88.092,74.056 84.68,75.47 C74.402,79.728 69.719,92.362 69.423,102.797 C69.26,108.617 70.446,114.806 73.99,119.548 C77.172,123.813 82.327,126.487 87.443,127.605 C89.122,127.972 90.853,128.167 92.582,128.167 C96.125,128.167 99.659,127.348 102.717,125.512 C104.941,124.17 106.842,122.262 108.499,120.286 C110.293,118.149 111.808,115.781 113.092,113.31 C115.744,108.221 117.412,102.546 117.772,96.813 C118.088,91.769 117.354,86.188 114.371,81.972 C111.645,78.122 107.307,75.67 102.854,74.371 C100.428,73.662 97.925,73.318 95.422,73.318" id="Fill-122" fill="#F2B13D"></path>
            <path d="M93.368,139.654 C91.548,139.654 89.772,139.433 88.056,138.992 C80.332,137.002 73.867,130.604 69.859,120.975 C66.181,112.143 65.244,101.993 67.344,93.829 C70.351,82.157 80.127,73.342 92.26,71.376 C93.943,71.103 95.633,70.966 97.324,70.966 C99.994,70.966 102.665,71.307 105.308,71.988 C122.031,76.294 132.213,93.097 128.005,109.445 C126.306,116.036 122.117,123.016 116.51,128.6 C110.619,134.458 103.749,138.274 97.163,139.343 C95.881,139.55 94.614,139.654 93.368,139.654 M98.221,134.306 C97.367,135.054 96.548,135.827 96.131,136.904 L96.252,137.058 C98.888,136.852 101.444,135.872 103.781,134.486 L103.867,134.477 C107.112,132.864 110.312,131.141 113.08,128.77 C115.674,126.55 117.539,123.719 119.328,120.841 C121.004,118.146 122.693,115.503 123.902,112.56 C124.989,109.907 125.748,107.101 126.096,104.253 C126.793,98.51 125.831,92.655 122.987,87.582 C119.99,82.228 115.031,77.997 109.531,75.368 C105.351,73.368 100.74,72.316 96.12,72.316 C94.659,72.316 93.197,72.422 91.747,72.635 C88.764,73.075 85.764,73.983 83.121,75.448 C80.525,76.883 78.285,78.918 76.35,81.144 C72.426,85.648 69.451,91.267 68.512,97.192 C67.533,103.356 68.332,109.805 70.137,115.765 C71.667,122.37 74.881,128.832 79.828,133.534 C80.567,134.237 81.374,134.872 82.257,135.386 C82.275,135.397 82.294,135.402 82.314,135.402 C82.391,135.402 82.466,135.328 82.438,135.247 C81.902,133.735 80.845,132.411 80.545,130.823 C81.941,132.64 82.847,135.039 85.109,135.933 L85.266,135.846 C85.438,134.768 85.126,133.695 84.988,132.631 C84.839,131.47 84.944,130.13 85.184,128.958 C85.769,130.456 85.951,132.083 86.506,133.596 C87.042,135.06 88.154,136.643 89.841,136.807 C89.984,136.821 90.127,136.828 90.27,136.828 C91.155,136.828 92.019,136.577 92.879,136.343 C93.939,136.045 94.988,135.679 96.016,135.273 C96.762,134.977 97.498,134.656 98.221,134.306" id="Fill-123" fill="#EC943A"></path>
            <path d="M93.362,139.984 C91.555,139.983 89.752,139.768 87.975,139.311 C73.999,135.713 65.917,118.274 65.921,102.989 C65.922,99.761 66.283,96.63 67.025,93.746 C70.609,79.84 83.302,70.642 97.31,70.642 C99.973,70.642 102.685,70.975 105.391,71.671 C119.72,75.36 129.277,88.075 129.287,101.934 C129.288,104.443 128.977,106.99 128.324,109.528 C124.509,124.341 108.762,139.984 93.362,139.984 M97.324,70.966 C95.633,70.966 93.943,71.103 92.26,71.376 C80.127,73.342 70.351,82.157 67.344,93.829 C65.244,101.993 66.181,112.143 69.859,120.975 C73.867,130.604 80.332,137.002 88.056,138.992 C89.772,139.433 91.548,139.654 93.368,139.654 C94.614,139.654 95.881,139.55 97.163,139.343 C103.749,138.274 110.619,134.458 116.51,128.6 C122.117,123.016 126.306,116.036 128.005,109.445 C132.213,93.097 122.031,76.294 105.308,71.988 C102.665,71.307 99.994,70.966 97.324,70.966" id="Fill-124" fill="#C1682E"></path>
            <path d="M105.264,78.699 C104.447,76.976 101.199,75.709 99.685,75.293 C92.742,73.391 84.574,75.713 79.455,80.711 C77.81,82.324 76.127,84.382 75.056,86.429 C73.573,89.263 72.088,92.814 71.559,95.976 C71.059,99.006 70.797,102.471 71.109,105.531 C71.319,107.556 72.18,114.018 75.371,113.548 C77.701,113.203 78.081,108.543 78.495,106.811 C79.35,103.211 80.076,99.538 81.715,96.196 C83.816,91.916 87.195,88.352 91.492,86.237 C94.08,84.961 96.918,84.358 99.668,83.553 C101.613,82.985 105.754,82.065 105.445,79.314 C105.42,79.102 105.361,78.9 105.264,78.699" id="Fill-125" fill="#FEF6CB"></path>
            <path d="M79.085,116.652 C79.024,116.401 78.929,116.162 78.795,115.945 C77.736,114.219 74.857,114.627 74.345,116.642 C73.943,118.218 75.827,120.427 77.498,119.89 C78.775,119.476 79.381,117.916 79.085,116.652" id="Fill-126" fill="#FEF6CB"></path>
            <path d="M182.17,225.037 C165.686,225.037 150.902,223.219 138.45,220.765 C99.695,213.127 74.585,197.841 74.336,197.687 L74.764,196.993 C75.012,197.146 100.021,212.365 138.641,219.971 C174.272,226.988 229.106,228.773 288.006,197.431 L288.389,198.152 C249.848,218.661 213.034,225.037 182.17,225.037" id="Fill-127" fill="#9D9F9C"></path>
            <polyline id="Fill-128" fill="#553F85" points="293.954 233.959 281.821 230.068 275.8 241.298 262.401 208.15 280.56 200.811 293.954 233.959"></polyline>
            <path d="M272.277,223.329 L275.213,221.35 C275.896,223.037 276.642,223.939 277.454,224.058 C278.111,224.153 278.729,224.08 279.313,223.846 C279.463,223.786 279.606,223.712 279.753,223.626 C280.467,223.231 280.888,222.754 281.027,222.199 C281.107,221.843 281.06,221.45 280.885,221.019 C280.789,220.782 280.654,220.525 280.482,220.255 C279.982,219.526 279.103,219.174 277.834,219.209 C276.564,219.244 275.373,219.244 274.257,219.209 C273.145,219.174 272.227,218.838 271.512,218.196 C270.951,217.699 270.518,217.083 270.225,216.35 C270.135,216.137 270.062,215.911 269.998,215.676 C269.711,214.646 269.935,213.521 270.674,212.3 C271.372,211.15 272.392,210.3 273.747,209.753 L274.008,209.648 C275.481,209.116 276.839,209.052 278.072,209.458 C279.303,209.865 280.394,211.116 281.337,213.218 L278.592,215.039 C277.761,213.341 276.97,212.444 276.214,212.345 C275.736,212.288 275.286,212.341 274.875,212.509 C274.64,212.605 274.413,212.744 274.196,212.918 C273.613,213.387 273.311,213.959 273.294,214.629 C273.284,214.872 273.323,215.097 273.409,215.306 C273.549,215.661 273.83,215.951 274.254,216.173 C274.897,216.532 276.367,216.639 278.666,216.494 C280.964,216.35 282.479,216.703 283.218,217.55 C283.671,218.067 284.015,218.622 284.254,219.214 C284.403,219.582 284.516,219.968 284.582,220.372 C284.745,221.408 284.678,222.366 284.381,223.241 C284.088,224.119 283.432,224.955 282.414,225.749 C281.771,226.261 281.082,226.663 280.349,226.96 C279.922,227.134 279.481,227.272 279.032,227.372 C277.795,227.648 276.581,227.538 275.392,227.043 C274.199,226.548 273.163,225.311 272.277,223.329" id="Fill-129" fill="#FFFFFE"></path>
            <polyline id="Fill-130" fill="#553F85" points="84.795 242.72 78.455 231.667 66.439 235.909 80.255 198.669 98.613 205.482 84.795 242.72"></polyline>
            <path d="M90.237,217.321 L86.809,216.913 C87.17,215.346 86.834,214.234 85.805,213.577 C85.609,213.451 85.415,213.352 85.221,213.281 C84.407,212.979 83.627,213.167 82.88,213.848 C81.961,214.685 81.115,215.984 80.348,217.745 C80.161,218.163 79.994,218.571 79.846,218.966 C79.383,220.212 79.12,221.317 79.06,222.277 C78.968,223.545 79.687,224.463 81.223,225.033 C82.75,225.6 83.952,224.711 84.831,222.372 L88.021,224.312 C86.932,226.488 85.551,227.799 83.879,228.25 C82.578,228.611 81.17,228.508 79.653,227.946 C79.209,227.78 78.76,227.575 78.307,227.326 C76.261,226.258 75.423,224.382 75.787,221.7 C75.959,220.383 76.301,219.039 76.809,217.666 C77.338,216.242 78.047,214.787 78.935,213.299 C80.619,210.46 83.043,209.627 86.204,210.802 L86.48,210.904 C89.774,212.233 91.028,214.371 90.237,217.321" id="Fill-131" fill="#FFFFFE"></path>
            <polyline id="Fill-132" fill="#2F74AD" points="115.199 245.385 108.02 234.859 96.369 240.018 105.08 209.447 123.91 214.814 115.199 245.385"></polyline>
            <path d="M113.227,219.423 L113.198,219.415 C111.473,218.923 110.146,219.726 109.223,221.818 C108.748,222.866 108.375,223.873 108.099,224.841 C107.824,225.807 107.646,226.738 107.565,227.63 C107.39,229.403 107.838,230.528 108.91,231.006 C109.117,231.108 109.326,231.19 109.535,231.248 C110.359,231.485 111.121,231.415 111.824,231.046 C112.619,230.623 113.434,228.952 114.268,226.029 L114.482,225.275 C115.385,221.886 114.968,219.938 113.227,219.423 Z M117.695,225.49 C117.588,225.908 117.477,226.309 117.368,226.693 C116.141,230.998 114.775,233.404 113.268,233.907 C111.943,234.339 110.443,234.318 108.766,233.84 C108.348,233.72 107.918,233.574 107.477,233.395 C105.256,232.512 104.187,230.731 104.264,228.049 C104.305,226.713 104.529,225.329 104.939,223.889 C105.347,222.459 105.939,220.976 106.718,219.434 C108.273,216.388 110.8,215.366 114.299,216.362 L114.356,216.377 C117.889,217.401 119.002,220.44 117.695,225.49 Z" id="Fill-133" fill="#FFFFFE"></path>
            <polyline id="Fill-134" fill="#1A4288" points="143.219 262.191 134.926 252.516 123.914 258.923 131.091 216.496 150.396 219.763 143.219 262.191"></polyline>
            <path d="M132.381,226.562 L136.676,227.063 C137.744,231.917 138.861,236.368 140.031,240.406 C140.237,238.823 140.761,234.574 141.602,227.656 L145.057,228.241 C144.871,229.218 144.679,230.298 144.48,231.478 C143.818,235.384 143.096,240.394 142.313,246.502 L137.977,245.528 C137.127,242.454 135.961,237.97 134.479,232.074 C134.221,234.483 133.743,237.748 133.044,241.878 C132.891,242.794 132.721,243.751 132.543,244.75 L129.804,244.272 C130.682,238.551 131.54,232.646 132.381,226.562" id="Fill-135" fill="#FFFFFE"></path>
            <polyline id="Fill-136" fill="#549843" points="175.479 262.325 166.197 253.593 155.934 261.145 158.324 221.497 177.87 222.675 175.479 262.325"></polyline>
            <path d="M173.271,232.741 L169.873,233.56 C169.646,231.897 168.906,230.916 167.65,230.616 C167.426,230.57 167.209,230.539 167.002,230.528 C166.008,230.467 165.126,230.85 164.355,231.679 C163.416,232.678 162.878,234.145 162.742,236.075 L162.715,236.286 C162.604,238.119 162.834,239.637 163.402,240.845 C163.99,242.095 165.1,242.769 166.733,242.868 C168.357,242.965 169.24,241.83 169.383,239.458 L166.011,239.13 L165.958,236.805 L174.43,236.867 L174.387,239.796 L172.438,239.678 C172.434,239.92 172.426,240.157 172.41,240.389 C172.268,242.746 171.529,244.339 170.195,245.174 C169.055,245.896 167.678,246.208 166.063,246.11 C165.59,246.082 165.101,246.016 164.594,245.909 C162.328,245.482 160.869,243.868 160.219,241.065 C159.885,239.69 159.766,238.258 159.855,236.775 C159.947,235.257 160.258,233.682 160.791,232.05 C161.799,228.932 163.986,227.476 167.353,227.678 L167.647,227.696 C171.184,228.008 173.061,229.691 173.271,232.741" id="Fill-137" fill="#FFFFFE"></path>
            <polyline id="Fill-138" fill="#F9CE3F" points="207.505 253.81 197.387 246.059 187.941 254.61 186.64 222.849 206.201 222.048 207.505 253.81"></polyline>
            <path d="M194.329,236.496 L194.613,236.483 C196.711,236.397 198.081,235.973 198.719,235.206 C199.255,234.561 199.506,233.777 199.468,232.855 C199.459,232.65 199.433,232.434 199.395,232.209 C199.19,231.006 198.601,230.263 197.632,229.99 C197.093,229.836 196.484,229.774 195.802,229.801 C195.26,229.824 194.667,229.907 194.023,230.048 L194.329,236.496 Z M191.454,245.416 C191.167,238.405 190.836,232.353 190.459,227.264 C191.814,227.109 193.045,227.008 194.147,226.964 C197.46,226.829 199.688,227.19 200.839,228.049 C202.193,229.067 202.907,230.484 202.981,232.3 C202.994,232.549 202.994,232.802 202.984,233.061 C202.866,235.252 201.888,236.667 200.048,237.308 C201.202,239.465 202.321,241.937 203.401,244.728 L199.898,245.906 C198.942,243.001 197.967,240.653 196.976,238.856 L194.858,239.292 L195.107,245.329 L191.454,245.416 Z" id="Fill-139" fill="#FFFFFE"></path>
            <polyline id="Fill-140" fill="#EB8F3F" points="237.805 255.822 226.931 249.185 218.436 258.681 212.723 219.996 232.092 217.134 237.805 255.822"></polyline>
            <path d="M226.322,234.639 L223.463,226.826 L222.583,227.144 L222.315,235.232 L226.322,234.639 Z M225.334,224.105 C227.55,229.781 229.988,235.369 232.653,240.871 L228.697,241.719 L226.774,237.179 L222.659,237.988 L222.545,242.463 L219.083,243.14 C219.376,236.606 219.567,230.592 219.663,225.094 L225.334,224.105 Z" id="Fill-141" fill="#FFFFFE"></path>
            <polyline id="Fill-142" fill="#D7232A" points="266.434 247.31 254.834 242.04 247.553 252.498 237.563 216.138 256.44 210.951 266.434 247.31"></polyline>
            <path d="M243.619,223.417 C243.523,222.702 243.38,221.991 243.186,221.289 C243.138,221.111 243.087,220.938 243.026,220.764 C246.249,220.023 248.972,219.348 251.196,218.738 C252.309,218.43 253.301,218.142 254.164,217.871 C254.575,219.066 254.853,219.928 254.999,220.457 L251.219,221.548 C251.563,222.831 251.901,224.087 252.235,225.313 C253.326,229.269 254.368,232.874 255.363,236.133 L251.541,237.121 C250.896,233.662 249.981,229.779 248.799,225.467 C248.544,224.539 248.279,223.588 247.999,222.613 L247.964,222.494 L243.619,223.417" id="Fill-143" fill="#FFFFFE"></path>
            <path d="M79.935,197.283 C79.963,197.653 79.43,197.995 78.738,198.052 L75.793,198.282 C75.102,198.339 74.519,198.085 74.484,197.716 C74.457,197.346 74.996,197.003 75.682,196.95 L78.634,196.713 C79.324,196.663 79.906,196.915 79.935,197.283" id="Fill-144" fill="#001316"></path>
            <path d="M80.037,198.554 C80.065,198.927 79.532,199.27 78.84,199.325 L75.889,199.557 C75.197,199.615 74.622,199.358 74.588,198.991 C74.56,198.622 75.099,198.282 75.785,198.221 L78.736,197.989 C79.434,197.934 80.01,198.188 80.037,198.554" id="Fill-145" fill="#193C41"></path>
            <path d="M80.129,199.741 C80.156,200.11 79.624,200.453 78.932,200.507 L75.986,200.743 C75.295,200.797 74.713,200.54 74.685,200.174 C74.657,199.804 75.19,199.458 75.883,199.404 L78.833,199.171 C79.519,199.117 80.101,199.373 80.129,199.741" id="Fill-146" fill="#2D5C64"></path>
            <path d="M287.869,197.157 C287.897,197.527 287.362,197.869 286.67,197.926 L283.725,198.156 C283.033,198.213 282.453,197.959 282.418,197.59 C282.389,197.22 282.931,196.877 283.616,196.824 L286.568,196.587 C287.257,196.537 287.84,196.789 287.869,197.157" id="Fill-147" fill="#001316"></path>
            <path d="M287.971,198.428 C288,198.801 287.464,199.144 286.772,199.199 L283.823,199.431 C283.132,199.489 282.555,199.232 282.52,198.866 C282.494,198.496 283.033,198.156 283.719,198.095 L286.67,197.863 C287.368,197.808 287.942,198.062 287.971,198.428" id="Fill-148" fill="#193C41"></path>
            <path d="M288.063,199.615 C288.089,199.984 287.557,200.327 286.864,200.381 L283.919,200.617 C283.228,200.671 282.647,200.414 282.618,200.048 C282.59,199.678 283.122,199.332 283.813,199.278 L286.766,199.045 C287.451,198.991 288.034,199.247 288.063,199.615" id="Fill-149" fill="#2D5C64"></path>
        </g>
    </g>
</svg>