<svg xmlns="http://www.w3.org/2000/svg" xmlns:xlink="http://www.w3.org/1999/xlink" viewBox="0 0 129.91 130.42"><defs><style>.cls-1{mask:url(#mask);filter:url(#luminosity-noclip-6);}.cls-10,.cls-12,.cls-17,.cls-2,.cls-20,.cls-36,.cls-39,.cls-4,.cls-41,.cls-6,.cls-8{mix-blend-mode:multiply;}.cls-2{fill:url(#linear-gradient);}.cls-3{mask:url(#mask-2);filter:url(#luminosity-noclip-7);}.cls-4{fill:url(#linear-gradient-2);}.cls-5{mask:url(#mask-3);filter:url(#luminosity-noclip-8);}.cls-6{fill:url(#linear-gradient-3);}.cls-7{mask:url(#mask-4);filter:url(#luminosity-noclip-9);}.cls-8{fill:url(#radial-gradient);}.cls-9{mask:url(#mask-5);filter:url(#luminosity-noclip-10);}.cls-10{fill:url(#radial-gradient-2);}.cls-11{isolation:isolate;}.cls-12{fill:#8a7d63;}.cls-12,.cls-38{opacity:0.6;}.cls-13{fill:url(#linear-gradient-4);}.cls-14{opacity:0.5;}.cls-14,.cls-24,.cls-26,.cls-28,.cls-29,.cls-37,.cls-38,.cls-42,.cls-43,.cls-44{mix-blend-mode:screen;}.cls-15{fill:#ffdc7c;}.cls-16{fill:#fff6e6;}.cls-17{fill:url(#linear-gradient-5);}.cls-18{fill:url(#linear-gradient-6);}.cls-19{fill:url(#linear-gradient-7);}.cls-21{fill:#215700;}.cls-22{fill:url(#linear-gradient-8);}.cls-23{mask:url(#mask-6);}.cls-24{fill:url(#linear-gradient-9);}.cls-25{mask:url(#mask-7);}.cls-26{fill:url(#linear-gradient-10);}.cls-27{mask:url(#mask-8);}.cls-28{fill:url(#linear-gradient-11);}.cls-30{mask:url(#mask-9);}.cls-31{fill:url(#radial-gradient-3);}.cls-32{mask:url(#mask-10);}.cls-33{fill:url(#radial-gradient-4);}.cls-34{fill:url(#radial-gradient-5);}.cls-35{fill:url(#radial-gradient-6);}.cls-36,.cls-37,.cls-38{fill:#c3bcb3;}.cls-36,.cls-41{opacity:0.7;}.cls-37{opacity:0.4;}.cls-39,.cls-41{fill:#665d4a;}.cls-39,.cls-40{opacity:0.8;}.cls-40{fill:url(#radial-gradient-7);}.cls-42{fill:url(#radial-gradient-8);}.cls-43{fill:url(#radial-gradient-9);}.cls-44,.cls-45{fill:#fff;}.cls-46{filter:url(#luminosity-noclip-5);}.cls-47{filter:url(#luminosity-noclip-4);}.cls-48{filter:url(#luminosity-noclip-3);}.cls-49{filter:url(#luminosity-noclip-2);}.cls-50{filter:url(#luminosity-noclip);}</style><filter id="luminosity-noclip" x="19.83" y="-8272.59" width="37.58" height="32766" filterUnits="userSpaceOnUse" color-interpolation-filters="sRGB"><feFlood flood-color="#fff" result="bg"/><feBlend in="SourceGraphic" in2="bg"/></filter><mask id="mask" x="19.83" y="-8272.59" width="37.58" height="32766" maskUnits="userSpaceOnUse"><g class="cls-50"/></mask><linearGradient id="linear-gradient" x1="25.48" y1="21.69" x2="41.93" y2="39.47" gradientUnits="userSpaceOnUse"><stop offset="0.03" stop-color="#fff"/><stop offset="0.19" stop-color="#fff"/><stop offset="0.39" stop-color="#fff"/><stop offset="0.95"/></linearGradient><filter id="luminosity-noclip-2" x="59.88" y="-8272.59" width="11.47" height="32766" filterUnits="userSpaceOnUse" color-interpolation-filters="sRGB"><feFlood flood-color="#fff" result="bg"/><feBlend in="SourceGraphic" in2="bg"/></filter><mask id="mask-2" x="59.88" y="-8272.59" width="11.47" height="32766" maskUnits="userSpaceOnUse"><g class="cls-49"/></mask><linearGradient id="linear-gradient-2" x1="55.75" y1="7.88" x2="73.69" y2="26.91" gradientUnits="userSpaceOnUse"><stop offset="0" stop-color="#fff"/><stop offset="0.31" stop-color="#fff"/><stop offset="0.8"/></linearGradient><filter id="luminosity-noclip-3" x="19.09" y="-8272.59" width="88.55" height="32766" filterUnits="userSpaceOnUse" color-interpolation-filters="sRGB"><feFlood flood-color="#fff" result="bg"/><feBlend in="SourceGraphic" in2="bg"/></filter><mask id="mask-3" x="19.09" y="-8272.59" width="88.55" height="32766" maskUnits="userSpaceOnUse"><g class="cls-48"/></mask><linearGradient id="linear-gradient-3" x1="63.36" y1="112.83" x2="63.36" y2="71.13" xlink:href="#linear-gradient"/><filter id="luminosity-noclip-4" x="27.65" y="-8272.59" width="83.78" height="32766" filterUnits="userSpaceOnUse" color-interpolation-filters="sRGB"><feFlood flood-color="#fff" result="bg"/><feBlend in="SourceGraphic" in2="bg"/></filter><mask id="mask-4" x="27.65" y="-8272.59" width="83.78" height="32766" maskUnits="userSpaceOnUse"><g class="cls-47"/></mask><radialGradient id="radial-gradient" cx="103.58" cy="120.14" r="64.58" gradientUnits="userSpaceOnUse"><stop offset="0" stop-color="#fff"/><stop offset="0.24" stop-color="#fff"/><stop offset="0.79"/></radialGradient><filter id="luminosity-noclip-5" x="15.05" y="-8272.59" width="86.71" height="32766" filterUnits="userSpaceOnUse" color-interpolation-filters="sRGB"><feFlood flood-color="#fff" result="bg"/><feBlend in="SourceGraphic" in2="bg"/></filter><mask id="mask-5" x="15.05" y="-8272.59" width="86.71" height="32766" maskUnits="userSpaceOnUse"><g class="cls-46"/></mask><radialGradient id="radial-gradient-2" cx="-299.36" cy="135.53" r="64.47" gradientTransform="matrix(-1, 0.08, 0.08, 1, -281.82, 10.21)" xlink:href="#radial-gradient"/><linearGradient id="linear-gradient-4" x1="64.4" y1="-7.93" x2="64.4" y2="127.41" gradientUnits="userSpaceOnUse"><stop offset="0.42" stop-color="#72c6cc"/><stop offset="0.89" stop-color="#00778b"/></linearGradient><linearGradient id="linear-gradient-5" x1="63.76" y1="112.62" x2="63.76" y2="8.95" xlink:href="#linear-gradient-4"/><linearGradient id="linear-gradient-6" x1="64.4" y1="126.86" x2="64.4" y2="47.48" xlink:href="#linear-gradient-4"/><linearGradient id="linear-gradient-7" x1="63.62" y1="123.1" x2="63.62" y2="30.89" xlink:href="#linear-gradient-4"/><linearGradient id="linear-gradient-8" x1="62.88" y1="118.09" x2="62.88" y2="22.45" xlink:href="#linear-gradient-4"/><filter id="luminosity-noclip-6" x="19.83" y="16.42" width="37.58" height="38.06" filterUnits="userSpaceOnUse" color-interpolation-filters="sRGB"><feFlood flood-color="#fff" result="bg"/><feBlend in="SourceGraphic" in2="bg"/></filter><mask id="mask-6" x="19.83" y="16.42" width="37.58" height="38.06" maskUnits="userSpaceOnUse"><g class="cls-1"><path class="cls-2" d="M20,51.43c-.6-6.85.36-19.92.91-24.8s-.36-8,9.41-9.06a150.31,150.31,0,0,1,21.74-1.1c4.89.19,7.78,3.1,2.54,4.9s-21.26,11-30.43,29.34C23.1,52.88,20.57,57.58,20,51.43Z"/></g></mask><linearGradient id="linear-gradient-9" x1="25.48" y1="21.69" x2="41.93" y2="39.47" gradientUnits="userSpaceOnUse"><stop offset="0.03" stop-color="#fff"/><stop offset="0.19" stop-color="#c8c8c8"/><stop offset="0.39" stop-color="#7f7f7f"/><stop offset="0.95" stop-color="#474747"/></linearGradient><filter id="luminosity-noclip-7" x="59.88" y="16.22" width="11.47" height="3.78" filterUnits="userSpaceOnUse" color-interpolation-filters="sRGB"><feFlood flood-color="#fff" result="bg"/><feBlend in="SourceGraphic" in2="bg"/></filter><mask id="mask-7" x="59.88" y="16.22" width="11.47" height="3.78" maskUnits="userSpaceOnUse"><g class="cls-3"><path class="cls-4" d="M61.49,16.3c6-.19,10.5-.19,9.78,2s-2.36,1.77-6.7,1.44c-2.35-.17-4.35.54-4.53-.55S59.43,16.36,61.49,16.3Z"/></g></mask><linearGradient id="linear-gradient-10" x1="55.75" y1="7.88" x2="73.69" y2="26.91" gradientUnits="userSpaceOnUse"><stop offset="0" stop-color="#c8c8c8"/><stop offset="0.31" stop-color="#7f7f7f"/><stop offset="0.8" stop-color="#474747"/></linearGradient><filter id="luminosity-noclip-8" x="19.09" y="64.49" width="88.55" height="39.85" filterUnits="userSpaceOnUse" color-interpolation-filters="sRGB"><feFlood flood-color="#fff" result="bg"/><feBlend in="SourceGraphic" in2="bg"/></filter><mask id="mask-8" x="19.09" y="64.49" width="88.55" height="39.85" maskUnits="userSpaceOnUse"><g class="cls-5"><path class="cls-6" d="M19.48,90.56C17.3,70.65,24.55,60.15,35.05,74.27S51,89.12,59.31,88.76s22.11-2.54,29.34-14.49,19.2-14.48,18.47,1.08,7.25,29-21,28.61c-17-.22-39.11-.36-54,.35C24.13,104.73,20.53,100.18,19.48,90.56Z"/></g></mask><linearGradient id="linear-gradient-11" x1="63.36" y1="112.83" x2="63.36" y2="71.13" xlink:href="#linear-gradient-9"/><filter id="luminosity-noclip-9" x="27.65" y="56.85" width="83.78" height="49.23" filterUnits="userSpaceOnUse" color-interpolation-filters="sRGB"><feFlood flood-color="#fff" result="bg"/><feBlend in="SourceGraphic" in2="bg"/></filter><mask id="mask-9" x="27.65" y="56.85" width="83.78" height="49.23" maskUnits="userSpaceOnUse"><g class="cls-7"><path class="cls-8" d="M39.56,102.88c12.41-2,46.76.55,54.57-.85S107.48,99.26,108,90.9s-.56-18.94-.56-24.5,3.62-18.94,3.9,1.11-.73,26.82-1.12,30.06-1.65,7.53-13.92,7.53-20.87,1.39-35.63.84S8.65,107.89,39.56,102.88Z"/></g></mask><radialGradient id="radial-gradient-3" cx="103.58" cy="120.14" r="64.58" gradientUnits="userSpaceOnUse"><stop offset="0" stop-color="#c8c8c8"/><stop offset="0.24" stop-color="#7f7f7f"/><stop offset="0.79" stop-color="#474747"/></radialGradient><filter id="luminosity-noclip-10" x="15.05" y="59.63" width="86.71" height="47.07" filterUnits="userSpaceOnUse" color-interpolation-filters="sRGB"><feFlood flood-color="#fff" result="bg"/><feBlend in="SourceGraphic" in2="bg"/></filter><mask id="mask-10" x="15.05" y="59.63" width="86.71" height="47.07" maskUnits="userSpaceOnUse"><g class="cls-9"><path class="cls-10" d="M89.68,99.92c-12.53-1-46.59,4.2-54.47,3.41s-12.2-2-14.74-10c-4.59-14.37-1.92-18.56-2.35-24.13S14,50.24,15.32,70.25s2.82,26.69,3.45,29.89,2.25,7.36,14.46,6.43,20.92-.26,35.59-2S120.88,102.51,89.68,99.92Z"/></g></mask><radialGradient id="radial-gradient-4" cx="-299.36" cy="135.53" r="64.47" gradientTransform="matrix(-1, 0.08, 0.08, 1, -281.82, 10.21)" xlink:href="#radial-gradient-3"/><radialGradient id="radial-gradient-5" cx="59.43" cy="42.07" fy="58.06210080750307" r="66.76" gradientUnits="userSpaceOnUse"><stop offset="0" stop-color="#f0eee8"/><stop offset="0.4" stop-color="#b7a892"/><stop offset="1" stop-color="#6c614f"/></radialGradient><radialGradient id="radial-gradient-6" cx="70.65" cy="12.32" fy="12.323799646664156" r="54.34" xlink:href="#radial-gradient-5"/><radialGradient id="radial-gradient-7" cx="84.57" cy="86.82" r="37.38" gradientUnits="userSpaceOnUse"><stop offset="0" stop-color="#fff"/><stop offset="0.32" stop-color="#b2b2b2"/><stop offset="1"/></radialGradient><radialGradient id="radial-gradient-8" cx="73.64" cy="8.52" r="43.31" gradientUnits="userSpaceOnUse"><stop offset="0" stop-color="#f0eee8"/><stop offset="0.4" stop-color="#b7a892"/><stop offset="1"/></radialGradient><radialGradient id="radial-gradient-9" cx="85.47" cy="109.15" r="38.73" xlink:href="#radial-gradient-8"/></defs><title>图层 1</title><g class="cls-11"><g id="图层_2" data-name="图层 2"><g id="图层_1-2" data-name="图层 1"><path class="cls-12" d="M129.59,25C129,14.79,128,3.38,116.28,1.62a89.46,89.46,0,0,0-13.2-.5c-7,0-13.89-.05-20.86-.27C67.93.4,53.61.29,39.31.16,33.19.09,27.05-.09,20.93.06c-4.1.1-8.18.59-11.88,2.51S3,8.33,1.67,12.34C.53,15.89.6,19.57.76,23.27.34,33.32.43,43.42.34,53.44.24,65.32.28,77.17,0,89.06a164.19,164.19,0,0,0,.43,16.45c.36,4.37.75,9.15,2.57,13.17,3,6.69,11,11.29,18.05,11.65a146.24,146.24,0,0,0,19-.78c8-.63,14.43-.4,22.45-.85,8.68-.49,17.39-.81,26.07-1,4.13-.08,8.22.09,12.34.23,3.47.12,7.24.24,10.64-.72,3.94-.36,7.83-.91,10.78-4,3.09-3.29,4.09-8.53,4.63-12.9.75-6.19,1.23-12.42,1.42-18.65.27-8.32-.14-16.61.36-24.94.52-8.86,1-17.72,1.13-26.6C130,35.09,129.88,30,129.59,25Z"/><path class="cls-13" d="M127,23.51c-.55-9.6-1.55-20.33-12.9-22a90.81,90.81,0,0,0-12.78-.47c-6.75,0-13.46,0-20.21-.25C67.26.38,53.41.27,39.56.16,33.63.09,27.69-.08,21.75.06c-4,.1-7.92.56-11.5,2.36S4.38,7.83,3.1,11.61c-1.09,3.33-1,6.78-.87,10.26-.41,9.45-.32,18.94-.41,28.37-.11,11.17-.07,22.33-.3,33.49A145.09,145.09,0,0,0,1.94,99.2c.35,4.1.73,8.62,2.5,12.38,2.93,6.3,10.63,10.6,17.48,11a152,152,0,0,0,18.37-.75c7.77-.58,14-.36,21.75-.8,8.42-.47,16.83-.75,25.26-.93,4-.09,8,.1,11.94.23,3.37.1,7,.23,10.31-.66,3.82-.37,7.58-.87,10.44-3.8s4-8,4.48-12.13q1.09-8.73,1.39-17.52c.25-7.83-.15-15.64.34-23.47.51-8.31,1-16.64,1.1-25C127.35,33,127.28,28.26,127,23.51Z"/><g class="cls-14"><path class="cls-15" d="M18.55,19.52a29.72,29.72,0,0,1,3.24-4.26c-2-4.87-3.86-9.79-5.72-14.69a20.79,20.79,0,0,0-5.82,1.85A13.92,13.92,0,0,0,3.9,9.6c3.4,3,8,5.16,11.54,7.65C16.49,18,17.51,18.77,18.55,19.52Z"/><path class="cls-15" d="M106.48,16.74c.55,1.17,1.19,2.3,1.81,3.44,6.08-1,12-2.61,18.09-3.71-1-6.92-3.48-13.12-11.25-14.74a41,41,0,0,1-4.5,8C109.17,12,107.77,14.35,106.48,16.74Z"/><path class="cls-15" d="M105.56,100.26c-.21.18-.44.42-.69.62.24,2.88,2.12,6.23,2.79,8.93q1.2,4.86,2.14,9.8c3.73-.35,7.41-.89,10.19-3.76a15.07,15.07,0,0,0,3.4-6.48c-5.6-3.45-11.66-6.21-17.28-9.61C105.93,99.94,105.73,100.1,105.56,100.26Z"/><path class="cls-15" d="M22,96.63a1.59,1.59,0,0,1-.3.36c-5.67,5.24-10.8,11.05-16,16.74a22,22,0,0,0,14.44,8.63c1.64-8.07,3-16.19,3.95-24.37C23.36,97.57,22.66,97.09,22,96.63Z"/></g><path class="cls-16" d="M19.54,13.89C17.9,9.53,15.77,5.35,14,1a20.6,20.6,0,0,0-3.74,1.4,1.23,1.23,0,0,0-.25.14A144.37,144.37,0,0,1,19.54,13.89Z"/><path class="cls-16" d="M110.62,19c1.53-1,3.11-1.91,4.68-2.84,3-2.11,5.76-4.46,8.5-6.84A137.72,137.72,0,0,0,110.62,19Z"/><path class="cls-16" d="M122.77,6.37a11.59,11.59,0,0,0-5-3.81c-3.45,4-5.89,9.13-8.73,13.52-.1.16-.2.32-.31.47C113.12,12.79,118.05,9.68,122.77,6.37Z"/><path class="cls-16" d="M115.8,109.32c1.56,2,3.11,4,4.75,5.83a12.51,12.51,0,0,0,1.5-2.24,29,29,0,0,1-4.78-3.11c-1.34-1.11-2.72-2.13-4.14-3.13A16.74,16.74,0,0,1,115.8,109.32Z"/><path class="cls-16" d="M8.54,116.92c.46-.65.84-1.14,1.06-1.47,2.39-3.68,4.9-7.27,7.38-10.91-3.37,3.59-6.78,7.12-10.08,10.76A17.94,17.94,0,0,0,8.54,116.92Z"/><path class="cls-17" d="M116.57,55.23c-.2-6.86-.25-13.25-.39-20.1-.12-6.19,0-12-1-18.15-1.11-7.34-7.54-7.23-13.89-7.3-22.26-2.42-44.93-1-67.26-1-6.58,0-14.17.28-19.11,5.23-3.56,3.58-3.9,8.64-3.51,13.77,0,9.37-.64,16-.66,24.07,0,9.82-.12,19.6.56,29.43.29,4.17.65,8.36,1.22,12.53.49,3.53.8,7.31,2.2,10.62,2,4.83,6.52,7.37,11.77,7.22a.59.59,0,0,0,.35-.15c5.58.64,11.45.3,17,.38,7.24.09,14.48.1,21.72.12s14.61-.16,21.87-.86c4.64-.43,11-.18,15.63-.44,3.76-.24,7-1.13,9.77-4.1S115.74,97.88,116,94C116.78,81.15,117,68.15,116.57,55.23Z"/><path class="cls-18" d="M127,23.51c-.55-9.6-1.55-20.33-12.9-22a90.81,90.81,0,0,0-12.78-.47c-6.75,0-13.46,0-20.21-.25C67.26.38,53.41.27,39.56.16,33.63.09,27.69-.08,21.75.06c-4,.1-7.92.56-11.5,2.36S4.38,7.83,3.1,11.61c-1.09,3.33-1,6.78-.87,10.26-.41,9.45-.32,18.94-.41,28.37-.11,11.17-.07,22.33-.3,33.49A145.09,145.09,0,0,0,1.94,99.2c.35,4.1.73,8.62,2.5,12.38,2.93,6.3,10.63,10.6,17.48,11a152,152,0,0,0,18.37-.75c7.77-.58,14-.36,21.75-.8,8.42-.47,16.83-.75,25.26-.93,4-.09,8,.1,11.94.23,3.37.1,7,.23,10.31-.66,3.82-.37,7.58-.87,10.44-3.8s4-8,4.48-12.13q1.09-8.73,1.39-17.52c.25-7.83-.15-15.64.34-23.47.51-8.31,1-16.64,1.1-25C127.35,33,127.28,28.26,127,23.51Zm-3,60.76c-.15,5-.38,10-.74,15-.32,4.59-.93,9.37-3.23,13.42-2.53,4.46-8.53,5.37-13.14,5.67-6.16.42-12.34,0-18.49,0q-12.66.22-25.27.91c-7.53.4-13.3.12-20.8.84-3.24.29-11.78,1-15,.92-6.87-.2-12.55-1.69-15.69-3.79a16.51,16.51,0,0,1-6.75-9.81c-2.47-9.55-1.81-20.2-1.64-30s0-19.61,0-29.42c.07-8,.59-16.16.32-24.22A68.29,68.29,0,0,1,4,14.94C4.76,9.75,7.72,5.2,12.68,3.3c3.74-1.43,8-1.38,12-1.38,6.05,0,12.12.14,18.17.2,12.76.14,25.54.3,38.29.7,6.4.2,12.77.33,19.18.27a114.6,114.6,0,0,1,12.56.65c6.41.66,9.9,2.91,11.37,9.45,1.23,5.48,1.15,11.07,1.36,16.65C126.28,47.94,124.53,66.16,124,84.27Z"/><path class="cls-19" d="M113.79,54.62c-.18-6.53-.24-12.6-.36-19.12-.13-5.89-.05-11.41-.94-17.26-1.06-7-7.16-6.9-13.18-7C78.15,9,56.62,10.33,35.4,10.36c-6.27,0-13.46.25-18.16,5-3.39,3.41-3.71,8.21-3.32,13.1,0,8.91-.62,15.27-.64,22.9,0,9.35-.12,18.67.52,28,.27,4,.63,8,1.16,11.92.46,3.36.76,7,2.09,10.1,1.94,4.62,6.21,7,11.19,6.88a.49.49,0,0,0,.34-.15c5.3.62,10.86.31,16.15.37,6.88.08,13.76.1,20.64.13s13.87-.15,20.77-.81c4.41-.43,10.44-.19,14.85-.46,3.58-.21,6.66-1,9.27-3.89s2.75-8.23,3-11.89C114,79.29,114.15,66.91,113.79,54.62Z"/><g class="cls-20"><path class="cls-21" d="M113.79,54.62c-.18-6.53-.24-12.6-.36-19.12-.13-5.89-.05-11.41-.94-17.26-1.06-7-7.16-6.9-13.18-7C78.15,9,56.62,10.33,35.4,10.36c-6.27,0-13.46.25-18.16,5-3.39,3.41-3.71,8.21-3.32,13.1,0,8.91-.62,15.27-.64,22.9,0,9.35-.12,18.67.52,28,.27,4,.63,8,1.16,11.92.46,3.36.76,7,2.09,10.1,1.94,4.62,6.21,7,11.19,6.88a.49.49,0,0,0,.34-.15c5.3.62,10.86.31,16.15.37,6.88.08,13.76.1,20.64.13s13.87-.15,20.77-.81c4.41-.43,10.44-.19,14.85-.46,3.58-.21,6.66-1,9.27-3.89s2.75-8.23,3-11.89C114,79.29,114.15,66.91,113.79,54.62ZM112,89.17c-.17,3.63-.36,8.4-2,11.65-3.24,6.25-11.55,4.6-17.49,5.07-8.64.68-17.29,1.4-26,1.43-6.51,0-13,0-19.54-.07-6.2,0-12.74-.72-19-.15-2.39-.46-4.66-.79-6.74-2.19s-3.15-4.11-3.81-6.52C15.31,90.58,15,82,14.7,73.94c-.51-12.84.81-26.5.91-39.36.16,1.47-.93-15.23,3.67-19C24.76,11.07,33.89,12,40.42,12c10.21,0,20.42-.31,30.62-.31,6.37,0,12.74.26,19.1.6,3.3.18,6.6.28,9.9.44,3.68.14,7.33-.26,9.5,3.39,2.47,4.14,2.5,9.73,2.59,14.39.15,8.14-.38,16.51,0,24.64a222.85,222.85,0,0,1,0,23.83C112,81.38,112.14,85.19,112,89.17Z"/></g><path class="cls-22" d="M107.5,52.78c-.17-5.7-.21-11-.33-16.75-.11-5.16,0-10-.82-15.11-.94-6.15-6.37-6.05-11.74-6.11-18.82-2-38-.84-56.83-.8-5.56,0-12,.22-16.15,4.36-3,3-3.3,7.21-2.95,11.49,0,7.81-.56,13.37-.57,20.06,0,8.19-.11,16.37.47,24.54.25,3.5.55,7,1,10.47.42,2.92.68,6.08,1.87,8.85,1.72,4,5.51,6.14,9.94,6a.53.53,0,0,0,.32-.12c4.7.52,9.64.26,14.35.31q9.16.09,18.35.11c6.15,0,12.34-.15,18.47-.7,3.92-.39,9.29-.18,13.21-.4,3.18-.2,5.92-.93,8.25-3.43s2.45-7.19,2.65-10.41C107.68,74.41,107.82,63.57,107.5,52.78Z"/><g class="cls-23"><path class="cls-24" d="M20,51.43c-.6-6.85.36-19.92.91-24.8s-.36-8,9.41-9.06a150.31,150.31,0,0,1,21.74-1.1c4.89.19,7.78,3.1,2.54,4.9s-21.26,11-30.43,29.34C23.1,52.88,20.57,57.58,20,51.43Z"/></g><g class="cls-25"><path class="cls-26" d="M61.49,16.3c6-.19,10.5-.19,9.78,2s-2.36,1.77-6.7,1.44c-2.35-.17-4.35.54-4.53-.55S59.43,16.36,61.49,16.3Z"/></g><g class="cls-27"><path class="cls-28" d="M19.48,90.56C17.3,70.65,24.55,60.15,35.05,74.27S51,89.12,59.31,88.76s22.11-2.54,29.34-14.49,19.2-14.48,18.47,1.08,7.25,29-21,28.61c-17-.22-39.11-.36-54,.35C24.13,104.73,20.53,100.18,19.48,90.56Z"/></g><g class="cls-29"><g class="cls-30"><path class="cls-31" d="M39.56,102.88c12.41-2,46.76.55,54.57-.85S107.48,99.26,108,90.9s-.56-18.94-.56-24.5,3.62-18.94,3.9,1.11-.73,26.82-1.12,30.06-1.65,7.53-13.92,7.53-20.87,1.39-35.63.84S8.65,107.89,39.56,102.88Z"/></g></g><g class="cls-29"><g class="cls-32"><path class="cls-33" d="M89.68,99.92c-12.53-1-46.59,4.2-54.47,3.41s-12.2-2-14.74-10c-4.59-14.37-1.92-18.56-2.35-24.13S14,50.24,15.32,70.25s2.82,26.69,3.45,29.89,2.25,7.36,14.46,6.43,20.92-.26,35.59-2S120.88,102.51,89.68,99.92Z"/></g></g><path class="cls-12" d="M74.81,10.25c-7.46,2.64-18.5,13-21.48,20.07a81.25,81.25,0,0,0-3.95,12.49c-.24,1-.43,4.69-1.16,5.36a14.23,14.23,0,0,0-3.24.42c-6,2.35-14.4,7.38-16.1,12.82C25.23,73,23.31,80.23,24.18,85.28c3.43,19.89,20.9,19.73,30.08,24.12a144.18,144.18,0,0,0,18.82,7.78c3.82,1.18,7.71,2.78,11.68,1.22,3.4-1.33,5.83-4.22,7.93-7.09,4-5.46,6.65-11.63,9.91-17.49,2.66-4.83,7.26-11.08,6.84-16.88-.12-1.8-2.45-6.66-4.44-10.11.88-1.53,2.6-5.12,3.44-6.68,6-11.37,7.26-19.55,1.27-32C102.11,12.41,89.78,5,74.81,10.25ZM65.38,34.77A19,19,0,0,1,88.59,28c9,3.94,12.78,13.7,9.76,22.86a68,68,0,0,1-2.85,6.92c-.61,1.3-1.25,2.58-1.91,3.85-.82,1.59-2,.21-3.41-.4A142.32,142.32,0,0,0,74.6,55.53c-2.62-.82-5.24-1.63-7.85-2.48-1.43-.49-2.85-1-4.29-1.5s-3.07-.32-2.68-1.95c1.22-5.1,2.61-10.45,5.6-14.83Z"/><path class="cls-34" d="M104.27,20.55A33.2,33.2,0,0,0,92.94,9.43a34.51,34.51,0,0,0-9.41-3.86A38.74,38.74,0,0,0,61,7.64c-6.58,2.74-10.43,8.72-13.11,15.08a92,92,0,0,0-5.12,18c-8-1.37-11.48,12.76-13.27,18.2-2.26,6.83-5.6,13.38-6,20.68-.31,5.86,2.48,10,6.82,13C35.69,96.76,43,99,48.81,101.79c5.18,2.48,10.44,4.8,15.83,6.77,2.65,1,5.37,1.71,8.09,2.51,5.11,1.47,9.31-1,12.57-4.86,4.08-4.86,7-10.62,9.87-16.26s6.49-10.94,8.35-16.86a8.39,8.39,0,0,0-1.64-8.65,1.09,1.09,0,0,0-.08-.15,25.94,25.94,0,0,0-3-2.73c3.36-5.83,6.43-11.81,8.24-18.32A29.29,29.29,0,0,0,104.27,20.55ZM90.53,49.24c-.89,2-1.88,3.86-2.87,5.77a107,107,0,0,0-12.89-5.24c-5.58-1.91-11.23-3.5-16.79-5.48-1.23-.43-2.52-.88-3.87-1.3,1.3-5.54,2.92-11.52,5.83-15.82a18.77,18.77,0,0,1,20-7.8,18.22,18.22,0,0,1,14.2,16.57C94.35,40.48,92.33,45.17,90.53,49.24Z"/><path class="cls-35" d="M105.24,44.41a81,81,0,0,1-7.65,16.27,72,72,0,0,0-7.45-4.42c-.39-.2-.79-.38-1.17-.59,1.06-2.26,2.08-4.55,3-6.86,1.85-4.52,3.48-9.38,3-14.31-.7-7.69-6.93-13.9-14.08-16.06-7.7-2.33-15.45.63-20.47,6.64-3.83,4.57-6.68,11.26-7.93,17.42A33.84,33.84,0,0,0,44,41l-.33-.13c1-3.94,1.87-7.9,3.12-11.77,1.67-5.14,3.87-11.24,7.75-15.16A26.58,26.58,0,0,1,66.58,7.44a37.89,37.89,0,0,1,15.66-.56c8.74,1.42,16,7.37,20.4,14.87A28.1,28.1,0,0,1,105.24,44.41Z"/><path class="cls-36" d="M104.27,20.55A33.2,33.2,0,0,0,92.94,9.43a36.92,36.92,0,0,0-7.2-3.25,32.73,32.73,0,0,1,9.84,6.36c5.46,5.32,9.4,12,9,19.86a35.3,35.3,0,0,1-2.79,12.86,19,19,0,0,1-3.71,5.57c-1,.92-3.82,2-3.37-.65.9-5.29,3.94-9.61,3.44-15.2-.36-4.12-1.13-8.81-3.6-12.26-4.65-6.46-13.89-9.18-21.61-8.79-9.25.48-16.8,7.58-19.64,16.09-.58,1.7-2.84,7.28-5,7-4.4-.58-1-12.82-.07-15l-.3.65a92,92,0,0,0-5.12,18c-8-1.37-11.48,12.76-13.27,18.2-2.26,6.83-5.6,13.38-6,20.68-.31,5.86,2.48,10,6.82,13C35.69,96.76,43,99,48.81,101.79c5.18,2.48,10.44,4.8,15.83,6.77,2.65,1,5.37,1.71,8.09,2.51,5.11,1.47,9.31-1,12.57-4.86,4.08-4.86,7-10.62,9.87-16.26s6.49-10.94,8.35-16.86a8.39,8.39,0,0,0-1.64-8.65,1.09,1.09,0,0,0-.08-.15,25.94,25.94,0,0,0-3-2.73c3.36-5.83,6.43-11.81,8.24-18.32A29.29,29.29,0,0,0,104.27,20.55ZM59.94,27.17a18.77,18.77,0,0,1,20-7.8,18.22,18.22,0,0,1,14.2,16.57c.22,4.54-1.8,9.23-3.6,13.3-.89,2-1.88,3.86-2.87,5.77a107,107,0,0,0-12.89-5.24c-5.58-1.91-11.23-3.5-16.79-5.48-1.23-.43-2.52-.88-3.87-1.3C55.41,37.45,57,31.47,59.94,27.17ZM96.16,69.45c.06,6-5.34,12.67-8.39,17.91-2.52,4.31-4.55,9.2-8.46,12.49-7.27,6.09-18.2,2-26.11-.92a106.24,106.24,0,0,1-16.34-7.49C33.68,89.62,30,87.64,28.68,84,25.47,75.21,32,65.34,35,57.35c1.53-4.07,3.35-9.17,7.74-10.85,6-2.29,13.63,1,19.43,2.34a93.76,93.76,0,0,1,19.25,6.4,68,68,0,0,1,10.41,6.52C95,64,96.13,66.67,96.16,69.45Z"/><path class="cls-37" d="M96.16,69.45a11.67,11.67,0,0,1-.23,2.34,56.15,56.15,0,0,1,5.65,1.56l1.7.41c.08-.22.17-.44.24-.67a8.39,8.39,0,0,0-1.64-8.65,1.09,1.09,0,0,0-.08-.15c-.44-.46-.91-.91-1.38-1.33s-1-.72-1.53-1.07c-1.81.42-3.61.84-5.42,1.3A8.75,8.75,0,0,1,96.16,69.45Z"/><path class="cls-37" d="M102.48,66.91c.32,0,.63,0,.94-.08a8,8,0,0,0-1.54-2.39,1.09,1.09,0,0,0-.08-.15l-.55-.52c-1.09.2-2.17.39-3.27.57s-2.08.44-3.11.63a8.4,8.4,0,0,1,.89,2C98,66.87,100.22,67,102.48,66.91Z"/><path class="cls-37" d="M100,71c1.27.28,2.57.52,3.87.72a11.05,11.05,0,0,0,.18-2l-.16,0c-2.57.11-5.16-.1-7.73,0,0,.16,0,.35,0,.53A28,28,0,0,1,100,71Z"/><path class="cls-36" d="M77.13,101.28A14.34,14.34,0,0,1,72,102.85a26.36,26.36,0,0,1,1.43,8.37c4.57,1,8.38-1.07,11.42-4.48-1.38-.85-2.69-1.55-3.33-2A24.75,24.75,0,0,1,77.13,101.28Z"/><path class="cls-36" d="M28.68,84a14.24,14.24,0,0,1-.86-5,31.8,31.8,0,0,1-4.26.37c0,.08,0,.15,0,.21-.3,5.57,2.23,9.6,6.2,12.59a34.7,34.7,0,0,1,1.65-4.34A9.65,9.65,0,0,1,28.68,84Z"/><path class="cls-37" d="M47.43,41.78a31.65,31.65,0,0,0-4.63-1.21.2.2,0,0,0,0,.1c-3-.51-5.37,1.15-7.25,3.71q2.22,1.95,4.34,4a8.27,8.27,0,0,1,2.87-1.86A13,13,0,0,1,48,45.73C47.77,44.41,47.58,43.08,47.43,41.78Z"/><path class="cls-38" d="M42.17,46.75a3.64,3.64,0,0,1,.57-.25,10.14,10.14,0,0,1,1.42-.44,32.94,32.94,0,0,1-2-5.45A6.19,6.19,0,0,0,37.89,42C38.88,43.66,40.86,45.14,42.17,46.75Z"/><path class="cls-38" d="M35.83,44c-.1.14-.21.25-.3.38,1.27,1.11,2.5,2.26,3.73,3.41C38.18,46.48,36.85,45.35,35.83,44Z"/><path class="cls-39" d="M104.27,20.55A33.2,33.2,0,0,0,92.94,9.43a34.51,34.51,0,0,0-9.41-3.86A38.74,38.74,0,0,0,61,7.64c-6.58,2.74-10.43,8.72-13.11,15.08a92,92,0,0,0-5.12,18c-8-1.37-11.48,12.76-13.27,18.2-2.26,6.83-5.6,13.38-6,20.68-.31,5.86,2.48,10,6.82,13C35.69,96.76,43,99,48.81,101.79c5.18,2.48,10.44,4.8,15.83,6.77,2.65,1,5.37,1.71,8.09,2.51,5.11,1.47,9.31-1,12.57-4.86,4.08-4.86,7-10.62,9.87-16.26s6.49-10.94,8.35-16.86a8.39,8.39,0,0,0-1.64-8.65,1.09,1.09,0,0,0-.08-.15,25.94,25.94,0,0,0-3-2.73c3.36-5.83,6.43-11.81,8.24-18.32A29.29,29.29,0,0,0,104.27,20.55Zm-2.66,46.3c1.51,2.79,0,6.23-1.16,8.88-2.16,4.8-4.92,9.43-7.28,14.15A95.47,95.47,0,0,1,85,103.78a23.47,23.47,0,0,1-4.47,4.86c-4.47,3.4-11.87-.41-16.43-2-5.31-1.86-10.47-4.08-15.58-6.39-5.32-2.41-11.09-4.37-16.11-7.44-.4-.19-.79-.41-1.18-.64a19.64,19.64,0,0,1-4.34-4.48c-1.93-2.86-2.14-6.48-1.84-9.81.55-6.23,3.43-12.09,5.46-17.92,2.21-6.36,4.37-16.85,12-18.14C47.28,42.88,52,43.46,56.75,45c5.28,1.72,10.56,3.56,15.81,5.41a116,116,0,0,1,15.2,6.33c1.56.81,3.09,1.61,4.6,2.5A30.44,30.44,0,0,1,95.54,61C97.71,62.61,100.28,64.42,101.61,66.85ZM54.11,43c1.3-5.54,2.92-11.52,5.83-15.82a18.77,18.77,0,0,1,20-7.8,18.22,18.22,0,0,1,14.2,16.57c.22,4.54-1.8,9.23-3.6,13.3-.89,2-1.88,3.86-2.87,5.77a107,107,0,0,0-12.89-5.24c-5.58-1.91-11.23-3.5-16.79-5.48C56.75,43.86,55.46,43.41,54.11,43Zm51.13,1.42a81,81,0,0,1-7.65,16.27,72,72,0,0,0-7.45-4.42c-.39-.2-.79-.38-1.17-.59,1.06-2.26,2.08-4.55,3-6.86,1.85-4.52,3.48-9.38,3-14.31-.7-7.69-6.93-13.9-14.08-16.06-7.7-2.33-15.45.63-20.47,6.64-3.83,4.57-6.68,11.26-7.93,17.42A33.84,33.84,0,0,0,44,41l-.33-.13c1-3.94,1.87-7.9,3.12-11.77,1.67-5.14,3.87-11.24,7.75-15.16A26.58,26.58,0,0,1,66.58,7.44a37.89,37.89,0,0,1,15.66-.56c8.74,1.42,16,7.37,20.4,14.87A28.1,28.1,0,0,1,105.24,44.41Z"/><path class="cls-40" d="M68.71,59.38c-4.29-1.71-10-.69-12.63,3.44-2.13,3.43-1.84,7.47,1.55,11.07-3.28,3.19-6.05,6.7-9.31,9.87-.38.39-.71.85.34,1.25C53.49,86.85,57,88.53,62,90.43c.46.17,1,.06,1.1-.4.55-4.2,1.23-8.89,1.7-13.09C75.06,78.1,78,63.11,68.71,59.38Z"/><path class="cls-41" d="M68.71,59.38c-4.29-1.71-10-.69-12.63,3.44-2.13,3.43-1.84,7.47,1.55,11.07-3.28,3.19-6.05,6.7-9.31,9.87-.38.39-.71.85.34,1.25C53.49,86.85,57,88.53,62,90.43c.46.17,1,.06,1.1-.4.55-4.2,1.23-8.89,1.7-13.09C75.06,78.1,78,63.11,68.71,59.38Zm-3.8,16.55a1.43,1.43,0,0,0-1-.07c-.33,2.31-1.41,9.82-2,12.61-3.66-1.17-8.07-3.06-11.55-4.6,2.92-2.93,4.42-5,7.21-8,1.21-1.56,2-2,1.77-2.24-2.71-2.1-3.72-4.59-2.91-7.93,1-4.19,6.43-6.08,10-5.45a7.91,7.91,0,0,1,6.36,7.63C73,72.15,69.16,76.39,64.91,75.93Z"/><path class="cls-42" d="M48.15,33.48s1.74-12.9,7.44-17.91S69,5.53,84.47,9.35s18.18,17.89,18.72,22.77S101.83,44.47,99.8,47A32.12,32.12,0,0,0,102,32.4c-.82-7.87-4.84-18.07-19.25-20.89C65.35,8.12,53.29,12.18,48.15,33.48Z"/><path class="cls-43" d="M38.65,92.87s21.69,10,28.47,10.85,11.11,1.37,17.09-8.4,7.39-24.29,9-27,6.22-1.32-1.4-6.56c0,0,4.3,4.8,3.49,7.52S89.9,82,85,89.89s-7.78,12.54-13.56,13C65,103.45,38.65,92.87,38.65,92.87Z"/><path class="cls-44" d="M27.82,79S27.25,74.06,33,61.6s6.33-15.38,13.38-16.09S72.82,51.3,82,55.45c0,0-22.42-6.68-27.48-7.59s-10-1.27-13.75,2.9S28,72,27.82,79Z"/><path class="cls-45" d="M67.84,58.06A10.75,10.75,0,0,0,56,62a8.1,8.1,0,0,0-1.23,6.7A15,15,0,0,1,55,66.12c1-6.06,10.11-9.41,15.46-5.15s2.88,11.11,2.88,11.11C77.42,64.76,70.74,58.87,67.84,58.06Z"/><path class="cls-45" d="M63.11,90l1.7-13.09s3.76.84,7.46-3c0,0-2.26,4-6.59,3.62Z"/></g></g></g></svg>