<?xml version="1.0" encoding="UTF-8"?>
<svg width="1200px" height="1200px" viewBox="0 0 1200 1200" version="1.1" xmlns="http://www.w3.org/2000/svg" xmlns:xlink="http://www.w3.org/1999/xlink">
    <!-- Generator: Sketch 46.2 (44496) - http://www.bohemiancoding.com/sketch -->
    <title>plus</title>
    <desc>Created with Sketch.</desc>
    <defs></defs>
    <g id="Page-1" stroke="none" stroke-width="1" fill="none" fill-rule="evenodd">
        <g id="plus" fill-rule="nonzero">
            <g id="baby">
                <path d="M600,0 C268.714286,0 0,268.628571 0,600 C0,931.285714 268.714286,1200 600,1200 C931.371429,1200 1200,931.285714 1200,600 C1200,268.628571 931.371429,0 600,0 Z" id="Shape" fill="#A2319C"></path>
                <path d="M696,699.4 C657.6,750.6 542.4,750.6 510.4,699.4 C497.6,686.6 472,686.6 465.6,693 C452.8,699.4 452.8,725 459.2,737.8 C484.8,769.8 542.4,801.8 600,801.8 C657.6,801.8 702.4,782.6 740.8,737.8 C747.2,725 747.2,712.2 734.4,699.4 C728,686.6 702.4,686.6 696,699.4 Z" id="Shape" fill="#FFFFFF"></path>
                <path d="M964.8,494.6 C920,334.6 772.8,219.4 600,219.4 C427.2,219.4 280,334.6 235.2,494.6 C190.4,507.4 152,545.8 152,597 C152,648.2 190.4,686.6 235.2,699.4 C280,859.4 427.2,981 600,981 C772.8,981 920,865.8 964.8,699.4 C1009.6,686.6 1048,648.2 1048,597 C1048,545.8 1009.6,507.4 964.8,494.6 Z M952,635.4 L913.6,629 L907.2,661 C875.2,808.2 747.2,917 600,917 C452.8,917 318.4,808.2 292.8,661 L286.4,629 L254.4,629 C254.4,629 248,629 248,629 C235.2,635.4 216,616.2 216,597 C216,577.8 235.2,558.6 248,558.6 L286.4,565 L292.8,533 C312,437 369.6,360.2 452.8,321.8 C472,379.4 516.8,475.4 632,475.4 C644.8,475.4 664,462.6 664,449.8 C664,449.8 670.4,405 721.6,385.8 C740.8,379.4 747.2,360.2 740.8,347.4 C728,328.2 715.2,321.8 696,328.2 C644.8,347.4 619.2,385.8 606.4,411.4 C548.8,398.6 523.2,334.6 510.4,296.2 C536,289.8 568,283.4 600,283.4 C747.2,283.4 881.6,392.2 907.2,539.4 L913.6,565 L952,558.6 C971.2,558.6 984,577.8 984,597 C984,616.2 964.8,635.4 952,635.4 Z" id="Shape" fill="#FFFFFF"></path>
                <path d="M427.2,565 C427.2,586.207734 444.392266,603.4 465.6,603.4 C486.807734,603.4 504,586.207734 504,565 C504,543.792266 486.807734,526.6 465.6,526.6 C444.392266,526.6 427.2,543.792266 427.2,565 L427.2,565 Z" id="Shape" fill="#FFFFFF"></path>
                <path d="M696,565 C696,586.207734 713.192266,603.4 734.4,603.4 C755.607734,603.4 772.8,586.207734 772.8,565 C772.8,543.792266 755.607734,526.6 734.4,526.6 C713.192266,526.6 696,543.792266 696,565 Z" id="Shape" fill="#FFFFFF"></path>
            </g>
        </g>
    </g>
</svg>