<svg xmlns="http://www.w3.org/2000/svg" xmlns:xlink="http://www.w3.org/1999/xlink" viewBox="0 0 129.91 161.64"><defs><style>.cls-1{mask:url(#mask);filter:url(#luminosity-noclip-9);}.cls-10,.cls-12,.cls-14,.cls-16,.cls-18,.cls-2,.cls-23,.cls-26,.cls-4,.cls-42,.cls-43,.cls-46,.cls-49,.cls-52,.cls-55,.cls-57,.cls-6,.cls-8{mix-blend-mode:multiply;}.cls-2{fill:url(#linear-gradient);}.cls-3{mask:url(#mask-2);filter:url(#luminosity-noclip-14);}.cls-4{fill:url(#radial-gradient);}.cls-5{mask:url(#mask-3);filter:url(#luminosity-noclip-15);}.cls-6{fill:url(#radial-gradient-2);}.cls-7{mask:url(#mask-4);filter:url(#luminosity-noclip-16);}.cls-8{fill:url(#radial-gradient-3);}.cls-9{mask:url(#mask-5);filter:url(#luminosity-noclip-10);}.cls-10{fill:url(#linear-gradient-2);}.cls-11{mask:url(#mask-6);filter:url(#luminosity-noclip-11);}.cls-12{fill:url(#linear-gradient-3);}.cls-13{mask:url(#mask-7);filter:url(#luminosity-noclip-12);}.cls-14{fill:url(#radial-gradient-4);}.cls-15{mask:url(#mask-8);filter:url(#luminosity-noclip-13);}.cls-16{fill:url(#radial-gradient-5);}.cls-17{isolation:isolate;}.cls-18{fill:#8a7d63;}.cls-18,.cls-54{opacity:0.6;}.cls-19{fill:url(#linear-gradient-4);}.cls-20{opacity:0.5;}.cls-20,.cls-30,.cls-32,.cls-34,.cls-35,.cls-53,.cls-54,.cls-58,.cls-59,.cls-60{mix-blend-mode:screen;}.cls-21{fill:#ffdc7c;}.cls-22{fill:#fff6e6;}.cls-23{fill:url(#linear-gradient-5);}.cls-24{fill:url(#linear-gradient-6);}.cls-25{fill:url(#linear-gradient-7);}.cls-27{fill:#215700;}.cls-28{fill:url(#linear-gradient-8);}.cls-29{mask:url(#mask-9);}.cls-30{fill:url(#linear-gradient-9);}.cls-31{mask:url(#mask-10);}.cls-32{fill:url(#linear-gradient-10);}.cls-33{mask:url(#mask-11);}.cls-34{fill:url(#linear-gradient-11);}.cls-36{mask:url(#mask-12);}.cls-37{fill:url(#radial-gradient-6);}.cls-38{mask:url(#mask-13);}.cls-39{fill:url(#radial-gradient-7);}.cls-40{fill:url(#linear-gradient-12);}.cls-41{mask:url(#mask-14);}.cls-42{fill:url(#radial-gradient-8);}.cls-43{fill:#d47f02;}.cls-44{fill:url(#linear-gradient-13);}.cls-45{mask:url(#mask-15);}.cls-46{fill:url(#radial-gradient-9);}.cls-47{fill:url(#linear-gradient-14);}.cls-48{mask:url(#mask-16);}.cls-49{fill:url(#radial-gradient-10);}.cls-50{fill:url(#radial-gradient-11);}.cls-51{fill:url(#radial-gradient-12);}.cls-52,.cls-53,.cls-54{fill:#c3bcb3;}.cls-52,.cls-57{opacity:0.7;}.cls-53{opacity:0.4;}.cls-55,.cls-57{fill:#665d4a;}.cls-55,.cls-56{opacity:0.8;}.cls-56{fill:url(#radial-gradient-13);}.cls-58{fill:url(#radial-gradient-14);}.cls-59{fill:url(#radial-gradient-15);}.cls-60,.cls-61{fill:#fff;}.cls-62{filter:url(#luminosity-noclip-8);}.cls-63{filter:url(#luminosity-noclip-7);}.cls-64{filter:url(#luminosity-noclip-6);}.cls-65{filter:url(#luminosity-noclip-5);}.cls-66{filter:url(#luminosity-noclip-4);}.cls-67{filter:url(#luminosity-noclip-3);}.cls-68{filter:url(#luminosity-noclip-2);}.cls-69{filter:url(#luminosity-noclip);}</style><filter id="luminosity-noclip" x="19.83" y="-8351.59" width="37.58" height="32766" filterUnits="userSpaceOnUse" color-interpolation-filters="sRGB"><feFlood flood-color="#fff" result="bg"/><feBlend in="SourceGraphic" in2="bg"/></filter><mask id="mask" x="19.83" y="-8351.59" width="37.58" height="32766" maskUnits="userSpaceOnUse"><g class="cls-69"/></mask><linearGradient id="linear-gradient" x1="25.48" y1="21.69" x2="41.93" y2="39.47" gradientUnits="userSpaceOnUse"><stop offset="0.03" stop-color="#fff"/><stop offset="0.19" stop-color="#fff"/><stop offset="0.39" stop-color="#fff"/><stop offset="0.95"/></linearGradient><filter id="luminosity-noclip-2" x="84.02" y="-8351.59" width="34.5" height="32766" filterUnits="userSpaceOnUse" color-interpolation-filters="sRGB"><feFlood flood-color="#fff" result="bg"/><feBlend in="SourceGraphic" in2="bg"/></filter><mask id="mask-2" x="84.02" y="-8351.59" width="34.5" height="32766" maskUnits="userSpaceOnUse"><g class="cls-68"/></mask><radialGradient id="radial-gradient" cx="103.13" cy="134.06" r="25.57" gradientUnits="userSpaceOnUse"><stop offset="0.41"/><stop offset="0.85" stop-color="#fff"/></radialGradient><filter id="luminosity-noclip-3" x="50.73" y="-8351.59" width="27.47" height="32766" filterUnits="userSpaceOnUse" color-interpolation-filters="sRGB"><feFlood flood-color="#fff" result="bg"/><feBlend in="SourceGraphic" in2="bg"/></filter><mask id="mask-3" x="50.73" y="-8351.59" width="27.47" height="32766" maskUnits="userSpaceOnUse"><g class="cls-67"/></mask><radialGradient id="radial-gradient-2" cx="96.63" cy="241.16" r="19.68" gradientTransform="translate(-86.33 -77.12) rotate(-13.76)" xlink:href="#radial-gradient"/><filter id="luminosity-noclip-4" x="21.07" y="-8351.59" width="24.37" height="32766" filterUnits="userSpaceOnUse" color-interpolation-filters="sRGB"><feFlood flood-color="#fff" result="bg"/><feBlend in="SourceGraphic" in2="bg"/></filter><mask id="mask-4" x="21.07" y="-8351.59" width="24.37" height="32766" maskUnits="userSpaceOnUse"><g class="cls-66"/></mask><radialGradient id="radial-gradient-3" cx="68.85" cy="339.88" r="17.7" gradientTransform="matrix(0.9, -0.44, 0.44, 0.9, -179.58, -135.56)" xlink:href="#radial-gradient"/><filter id="luminosity-noclip-5" x="59.88" y="-8351.59" width="11.47" height="32766" filterUnits="userSpaceOnUse" color-interpolation-filters="sRGB"><feFlood flood-color="#fff" result="bg"/><feBlend in="SourceGraphic" in2="bg"/></filter><mask id="mask-5" x="59.88" y="-8351.59" width="11.47" height="32766" maskUnits="userSpaceOnUse"><g class="cls-65"/></mask><linearGradient id="linear-gradient-2" x1="55.75" y1="7.88" x2="73.69" y2="26.91" gradientUnits="userSpaceOnUse"><stop offset="0" stop-color="#fff"/><stop offset="0.31" stop-color="#fff"/><stop offset="0.8"/></linearGradient><filter id="luminosity-noclip-6" x="19.09" y="-8351.59" width="88.55" height="32766" filterUnits="userSpaceOnUse" color-interpolation-filters="sRGB"><feFlood flood-color="#fff" result="bg"/><feBlend in="SourceGraphic" in2="bg"/></filter><mask id="mask-6" x="19.09" y="-8351.59" width="88.55" height="32766" maskUnits="userSpaceOnUse"><g class="cls-64"/></mask><linearGradient id="linear-gradient-3" x1="63.36" y1="112.83" x2="63.36" y2="71.13" xlink:href="#linear-gradient"/><filter id="luminosity-noclip-7" x="27.65" y="-8351.59" width="83.78" height="32766" filterUnits="userSpaceOnUse" color-interpolation-filters="sRGB"><feFlood flood-color="#fff" result="bg"/><feBlend in="SourceGraphic" in2="bg"/></filter><mask id="mask-7" x="27.65" y="-8351.59" width="83.78" height="32766" maskUnits="userSpaceOnUse"><g class="cls-63"/></mask><radialGradient id="radial-gradient-4" cx="103.58" cy="120.14" r="64.58" gradientUnits="userSpaceOnUse"><stop offset="0" stop-color="#fff"/><stop offset="0.24" stop-color="#fff"/><stop offset="0.79"/></radialGradient><filter id="luminosity-noclip-8" x="15.05" y="-8351.59" width="86.71" height="32766" filterUnits="userSpaceOnUse" color-interpolation-filters="sRGB"><feFlood flood-color="#fff" result="bg"/><feBlend in="SourceGraphic" in2="bg"/></filter><mask id="mask-8" x="15.05" y="-8351.59" width="86.71" height="32766" maskUnits="userSpaceOnUse"><g class="cls-62"/></mask><radialGradient id="radial-gradient-5" cx="-762.8" cy="153.56" r="64.47" gradientTransform="matrix(-1, 0.08, 0.08, 1, -745.27, 28.24)" xlink:href="#radial-gradient-4"/><linearGradient id="linear-gradient-4" x1="64.4" y1="-7.93" x2="64.4" y2="127.41" gradientUnits="userSpaceOnUse"><stop offset="0.42" stop-color="#72c6cc"/><stop offset="0.89" stop-color="#00778b"/></linearGradient><linearGradient id="linear-gradient-5" x1="63.76" y1="112.62" x2="63.76" y2="8.95" xlink:href="#linear-gradient-4"/><linearGradient id="linear-gradient-6" x1="64.4" y1="126.86" x2="64.4" y2="47.48" xlink:href="#linear-gradient-4"/><linearGradient id="linear-gradient-7" x1="63.62" y1="123.1" x2="63.62" y2="30.89" xlink:href="#linear-gradient-4"/><linearGradient id="linear-gradient-8" x1="62.88" y1="118.09" x2="62.88" y2="22.45" xlink:href="#linear-gradient-4"/><filter id="luminosity-noclip-9" x="19.83" y="16.42" width="37.58" height="38.06" filterUnits="userSpaceOnUse" color-interpolation-filters="sRGB"><feFlood flood-color="#fff" result="bg"/><feBlend in="SourceGraphic" in2="bg"/></filter><mask id="mask-9" x="19.83" y="16.42" width="37.58" height="38.06" maskUnits="userSpaceOnUse"><g class="cls-1"><path class="cls-2" d="M20,51.43c-.6-6.85.36-19.92.91-24.8s-.36-8,9.41-9.06a150.31,150.31,0,0,1,21.74-1.1c4.89.19,7.78,3.1,2.54,4.9s-21.26,11-30.43,29.34C23.1,52.88,20.57,57.58,20,51.43Z"/></g></mask><linearGradient id="linear-gradient-9" x1="25.48" y1="21.69" x2="41.93" y2="39.47" gradientUnits="userSpaceOnUse"><stop offset="0.03" stop-color="#fff"/><stop offset="0.19" stop-color="#c8c8c8"/><stop offset="0.39" stop-color="#7f7f7f"/><stop offset="0.95" stop-color="#474747"/></linearGradient><filter id="luminosity-noclip-10" x="59.88" y="16.22" width="11.47" height="3.78" filterUnits="userSpaceOnUse" color-interpolation-filters="sRGB"><feFlood flood-color="#fff" result="bg"/><feBlend in="SourceGraphic" in2="bg"/></filter><mask id="mask-10" x="59.88" y="16.22" width="11.47" height="3.78" maskUnits="userSpaceOnUse"><g class="cls-9"><path class="cls-10" d="M61.49,16.3c6-.19,10.5-.19,9.78,2s-2.36,1.77-6.7,1.44c-2.35-.17-4.35.54-4.53-.55S59.43,16.36,61.49,16.3Z"/></g></mask><linearGradient id="linear-gradient-10" x1="55.75" y1="7.88" x2="73.69" y2="26.91" gradientUnits="userSpaceOnUse"><stop offset="0" stop-color="#c8c8c8"/><stop offset="0.31" stop-color="#7f7f7f"/><stop offset="0.8" stop-color="#474747"/></linearGradient><filter id="luminosity-noclip-11" x="19.09" y="64.49" width="88.55" height="39.85" filterUnits="userSpaceOnUse" color-interpolation-filters="sRGB"><feFlood flood-color="#fff" result="bg"/><feBlend in="SourceGraphic" in2="bg"/></filter><mask id="mask-11" x="19.09" y="64.49" width="88.55" height="39.85" maskUnits="userSpaceOnUse"><g class="cls-11"><path class="cls-12" d="M19.48,90.56C17.3,70.65,24.55,60.15,35.05,74.27S51,89.12,59.31,88.76s22.11-2.54,29.34-14.49,19.2-14.48,18.47,1.08,7.25,29-21,28.61c-17-.22-39.11-.36-54,.35C24.13,104.73,20.53,100.18,19.48,90.56Z"/></g></mask><linearGradient id="linear-gradient-11" x1="63.36" y1="112.83" x2="63.36" y2="71.13" xlink:href="#linear-gradient-9"/><filter id="luminosity-noclip-12" x="27.65" y="56.85" width="83.78" height="49.23" filterUnits="userSpaceOnUse" color-interpolation-filters="sRGB"><feFlood flood-color="#fff" result="bg"/><feBlend in="SourceGraphic" in2="bg"/></filter><mask id="mask-12" x="27.65" y="56.85" width="83.78" height="49.23" maskUnits="userSpaceOnUse"><g class="cls-13"><path class="cls-14" d="M39.56,102.88c12.41-2,46.76.55,54.57-.85S107.48,99.26,108,90.9s-.56-18.94-.56-24.5,3.62-18.94,3.9,1.11-.73,26.82-1.12,30.06-1.65,7.53-13.92,7.53-20.87,1.39-35.63.84S8.65,107.89,39.56,102.88Z"/></g></mask><radialGradient id="radial-gradient-6" cx="103.58" cy="120.14" r="64.58" gradientUnits="userSpaceOnUse"><stop offset="0" stop-color="#c8c8c8"/><stop offset="0.24" stop-color="#7f7f7f"/><stop offset="0.79" stop-color="#474747"/></radialGradient><filter id="luminosity-noclip-13" x="15.05" y="59.63" width="86.71" height="47.07" filterUnits="userSpaceOnUse" color-interpolation-filters="sRGB"><feFlood flood-color="#fff" result="bg"/><feBlend in="SourceGraphic" in2="bg"/></filter><mask id="mask-13" x="15.05" y="59.63" width="86.71" height="47.07" maskUnits="userSpaceOnUse"><g class="cls-15"><path class="cls-16" d="M89.68,99.92c-12.53-1-46.59,4.2-54.47,3.41s-12.2-2-14.74-10c-4.59-14.37-1.92-18.56-2.35-24.13S14,50.24,15.32,70.25s2.82,26.69,3.45,29.89,2.25,7.36,14.46,6.43,20.92-.26,35.59-2S120.88,102.51,89.68,99.92Z"/></g></mask><radialGradient id="radial-gradient-7" cx="-762.8" cy="153.56" r="64.47" gradientTransform="matrix(-1, 0.08, 0.08, 1, -745.27, 28.24)" xlink:href="#radial-gradient-6"/><linearGradient id="linear-gradient-12" x1="97.12" y1="158.23" x2="102.32" y2="134.66" gradientUnits="userSpaceOnUse"><stop offset="0.11" stop-color="#fffb74"/><stop offset="0.49" stop-color="#fffa00"/><stop offset="0.93" stop-color="#ffc921"/></linearGradient><filter id="luminosity-noclip-14" x="84.02" y="125.05" width="34.5" height="34" filterUnits="userSpaceOnUse" color-interpolation-filters="sRGB"><feFlood flood-color="#fff" result="bg"/><feBlend in="SourceGraphic" in2="bg"/></filter><mask id="mask-14" x="84.02" y="125.05" width="34.5" height="34" maskUnits="userSpaceOnUse"><g class="cls-3"><path class="cls-4" d="M115.76,140.09c-.32-.25-.66-.49-1-.73,1.45,1.48,1.72,2.95,1.06,4.07-.9,1.57-3.93,1.9-5.75,2-2.41.19-.91,2.27-1.85,4.44-1.86,4.27-7.11,2-8.82-.56-1.12-1.65-5.47,1.71-8.13-1.23a4,4,0,0,1-.68-3.61c.85-2.42-.51-2.79-1.73-4.46-1.9-2.59-3.18-6.19-.13-6.28a70.29,70.29,0,0,1,7.33.19c1.3.09,1.76-2.32,3.61-5.2.45-.68,1.9-3,2.28-3.72a22.49,22.49,0,0,0-3.44,4.1,23.42,23.42,0,0,0-2,3.31.57.57,0,0,0-.27-.06,68.39,68.39,0,0,0-7.71,0c-2,.24-4.17.22-4.5,2.32-.23,1.37.84,2.81,1.64,3.82,1.32,1.66,2.44,3,3.89,4.59a48,48,0,0,0-3.37,6.4c-.45,1.15-1.29,3.84.07,4.77,1.1.74,2.74.34,4.35-.19a49.82,49.82,0,0,0,7.62-3.48,78.8,78.8,0,0,0,5.75,6c1.07,1,3.5,3.22,5,2.13,1.21-.86,1.19-2.87,1.2-4.18,0-2.48-.13-5-.29-7.5,1.92-.22,3.84-.46,5.74-.8,1.35-.25,2.92-1,2.92-2.54S116.87,140.94,115.76,140.09Z"/></g></mask><radialGradient id="radial-gradient-8" cx="103.13" cy="134.06" r="25.57" gradientUnits="userSpaceOnUse"><stop offset="0.41" stop-color="#fffb62"/><stop offset="0.85" stop-color="#f39f46"/></radialGradient><linearGradient id="linear-gradient-13" x1="92.01" y1="259.75" x2="96.01" y2="241.62" gradientTransform="translate(-86.33 -77.12) rotate(-13.76)" xlink:href="#linear-gradient-12"/><filter id="luminosity-noclip-15" x="50.73" y="127.61" width="27.47" height="24.86" filterUnits="userSpaceOnUse" color-interpolation-filters="sRGB"><feFlood flood-color="#fff" result="bg"/><feBlend in="SourceGraphic" in2="bg"/></filter><mask id="mask-15" x="50.73" y="127.61" width="27.47" height="24.86" maskUnits="userSpaceOnUse"><g class="cls-5"><path class="cls-6" d="M75.42,136.32l-.87-.36c1.35.84,1.82,1.88,1.54,2.84-.4,1.36-2.59,2.15-3.93,2.58-1.77.61-.25,1.87-.57,3.68-.61,3.54-5,2.79-6.69,1.2-1.15-1.06-3.78,2.27-6.31.55a3,3,0,0,1-1.16-2.56c.2-2-.89-2-2.12-3-1.9-1.57-3.51-4-1.24-4.66a54.79,54.79,0,0,1,5.5-1.22c1-.15.91-2.05,1.77-4.54.2-.58.87-2.57,1-3.19a17.56,17.56,0,0,0-1.82,3.69,19,19,0,0,0-.88,2.84.42.42,0,0,0-.22,0,49.74,49.74,0,0,0-5.75,1.42c-1.41.53-3.08.93-2.94,2.56.07,1.07,1.14,2,1.93,2.57,1.29,1,2.38,1.81,3.73,2.69a39.8,39.8,0,0,0-1.34,5.43c-.11.93-.27,3.1.93,3.53.95.36,2.11-.25,3.22-.92a36.94,36.94,0,0,0,5.06-4,57.27,57.27,0,0,0,5.39,3.4c1,.56,3.2,1.78,4.1.7.72-.88.35-2.37.12-3.37-.43-1.84-1-3.72-1.59-5.55,1.39-.51,2.8-1,4.14-1.63,1-.44,2-1.25,1.72-2.45S76.43,136.76,75.42,136.32Z"/></g></mask><radialGradient id="radial-gradient-9" cx="96.63" cy="241.16" r="19.68" gradientTransform="translate(-86.33 -77.12) rotate(-13.76)" xlink:href="#radial-gradient-8"/><linearGradient id="linear-gradient-14" x1="64.7" y1="356.6" x2="68.29" y2="340.3" gradientTransform="matrix(0.9, -0.44, 0.44, 0.9, -179.58, -135.56)" xlink:href="#linear-gradient-12"/><filter id="luminosity-noclip-16" x="21.07" y="133.36" width="24.37" height="22.99" filterUnits="userSpaceOnUse" color-interpolation-filters="sRGB"><feFlood flood-color="#fff" result="bg"/><feBlend in="SourceGraphic" in2="bg"/></filter><mask id="mask-16" x="21.07" y="133.36" width="24.37" height="22.99" maskUnits="userSpaceOnUse"><g class="cls-7"><path class="cls-8" d="M42.45,138.46l-.83-.15c1.33.47,2,1.3,1.9,2.21-.06,1.24-1.85,2.38-2.93,3-1.44.86.13,1.68.22,3.34.14,3.21-3.82,3.42-5.64,2.34C34,148.53,32.3,152,29.74,151a2.79,2.79,0,0,1-1.53-2c-.2-1.76-1.17-1.59-2.44-2.24-2-1-3.87-2.85-2-3.85a46.38,46.38,0,0,1,4.6-2.13c.83-.34.38-2,.65-4.35.07-.55.26-2.43.26-3a16.88,16.88,0,0,0-.88,3.6,19.73,19.73,0,0,0-.21,2.66.61.61,0,0,0-.18,0,48.18,48.18,0,0,0-4.77,2.38c-1.14.74-2.52,1.42-2.09,2.81.29.94,1.39,1.5,2.2,1.89,1.33.62,2.42,1.12,3.81,1.65a32.39,32.39,0,0,0-.12,5c.07.84.37,2.77,1.48,2.94.93.11,1.81-.65,2.66-1.45a34.62,34.62,0,0,0,3.66-4.5,53.4,53.4,0,0,0,5.38,1.92c1,.3,3.16.95,3.75-.17.46-.93-.15-2.16-.56-3-.73-1.54-1.62-3.09-2.48-4.56,1.13-.72,2.26-1.44,3.33-2.25.77-.56,1.51-1.5,1-2.48S43.41,138.66,42.45,138.46Z"/></g></mask><radialGradient id="radial-gradient-10" cx="68.85" cy="339.88" r="17.7" gradientTransform="matrix(0.9, -0.44, 0.44, 0.9, -179.58, -135.56)" xlink:href="#radial-gradient-8"/><radialGradient id="radial-gradient-11" cx="59.43" cy="42.07" fy="58.06210080750165" r="66.76" gradientUnits="userSpaceOnUse"><stop offset="0" stop-color="#f0eee8"/><stop offset="0.4" stop-color="#b7a892"/><stop offset="1" stop-color="#6c614f"/></radialGradient><radialGradient id="radial-gradient-12" cx="70.65" cy="12.32" fy="12.323799646664156" r="54.34" xlink:href="#radial-gradient-11"/><radialGradient id="radial-gradient-13" cx="84.57" cy="86.82" r="37.38" gradientUnits="userSpaceOnUse"><stop offset="0" stop-color="#fff"/><stop offset="0.32" stop-color="#b2b2b2"/><stop offset="1"/></radialGradient><radialGradient id="radial-gradient-14" cx="73.64" cy="8.52" r="43.31" gradientUnits="userSpaceOnUse"><stop offset="0" stop-color="#f0eee8"/><stop offset="0.4" stop-color="#b7a892"/><stop offset="1"/></radialGradient><radialGradient id="radial-gradient-15" cx="85.47" cy="109.15" r="38.73" xlink:href="#radial-gradient-14"/></defs><title>资源 2</title><g class="cls-17"><g id="图层_2" data-name="图层 2"><g id="Layer_1" data-name="Layer 1"><path class="cls-18" d="M129.59,25C129,14.79,128,3.38,116.28,1.62a89.46,89.46,0,0,0-13.2-.5c-7,0-13.89-.05-20.86-.27C67.93.4,53.61.29,39.31.16,33.19.09,27.05-.09,20.93.06c-4.1.1-8.18.59-11.88,2.51S3,8.33,1.67,12.34C.53,15.89.6,19.57.76,23.27.34,33.32.43,43.42.34,53.44.24,65.32.28,77.17,0,89.06a164.19,164.19,0,0,0,.43,16.45c.36,4.37.75,9.15,2.57,13.17,3,6.69,11,11.29,18.05,11.65a146.24,146.24,0,0,0,19-.78c8-.63,14.43-.4,22.45-.85,8.68-.49,17.39-.81,26.07-1,4.13-.08,8.22.09,12.34.23,3.47.12,7.24.24,10.64-.72,3.94-.36,7.83-.91,10.78-4,3.09-3.29,4.09-8.53,4.63-12.9.75-6.19,1.23-12.42,1.42-18.65.27-8.32-.14-16.61.36-24.94.52-8.86,1-17.72,1.13-26.6C130,35.09,129.88,30,129.59,25Z"/><path class="cls-19" d="M127,23.51c-.55-9.6-1.55-20.33-12.9-22a90.81,90.81,0,0,0-12.78-.47c-6.75,0-13.46,0-20.21-.25C67.26.38,53.41.27,39.56.16,33.63.09,27.69-.08,21.75.06c-4,.1-7.92.56-11.5,2.36S4.38,7.83,3.1,11.61c-1.09,3.33-1,6.78-.87,10.26-.41,9.45-.32,18.94-.41,28.37-.11,11.17-.07,22.33-.3,33.49A145.09,145.09,0,0,0,1.94,99.2c.35,4.1.73,8.62,2.5,12.38,2.93,6.3,10.63,10.6,17.48,11a152,152,0,0,0,18.37-.75c7.77-.58,14-.36,21.75-.8,8.42-.47,16.83-.75,25.26-.93,4-.09,8,.1,11.94.23,3.37.1,7,.23,10.31-.66,3.82-.37,7.58-.87,10.44-3.8s4-8,4.48-12.13q1.09-8.73,1.39-17.52c.25-7.83-.15-15.64.34-23.47.51-8.31,1-16.64,1.1-25C127.35,33,127.28,28.26,127,23.51Z"/><g class="cls-20"><path class="cls-21" d="M18.55,19.52a29.72,29.72,0,0,1,3.24-4.26c-2-4.87-3.86-9.79-5.72-14.69a20.79,20.79,0,0,0-5.82,1.85A13.92,13.92,0,0,0,3.9,9.6c3.4,3,8,5.16,11.54,7.65C16.49,18,17.51,18.77,18.55,19.52Z"/><path class="cls-21" d="M106.48,16.74c.55,1.17,1.19,2.3,1.81,3.44,6.08-1,12-2.61,18.09-3.71-1-6.92-3.48-13.12-11.25-14.74a41,41,0,0,1-4.5,8C109.17,12,107.77,14.35,106.48,16.74Z"/><path class="cls-21" d="M105.56,100.26c-.21.18-.44.42-.69.62.24,2.88,2.12,6.23,2.79,8.93q1.2,4.86,2.14,9.8c3.73-.35,7.41-.89,10.19-3.76a15.07,15.07,0,0,0,3.4-6.48c-5.6-3.45-11.66-6.21-17.28-9.61C105.93,99.94,105.73,100.1,105.56,100.26Z"/><path class="cls-21" d="M22,96.63a1.59,1.59,0,0,1-.3.36c-5.67,5.24-10.8,11.05-16,16.74a22,22,0,0,0,14.44,8.63c1.64-8.07,3-16.19,3.95-24.37C23.36,97.57,22.66,97.09,22,96.63Z"/></g><path class="cls-22" d="M19.54,13.89C17.9,9.53,15.77,5.35,14,1a20.6,20.6,0,0,0-3.74,1.4,1.23,1.23,0,0,0-.25.14A144.37,144.37,0,0,1,19.54,13.89Z"/><path class="cls-22" d="M110.62,19c1.53-1,3.11-1.91,4.68-2.84,3-2.11,5.76-4.46,8.5-6.84A137.72,137.72,0,0,0,110.62,19Z"/><path class="cls-22" d="M122.77,6.37a11.59,11.59,0,0,0-5-3.81c-3.45,4-5.89,9.13-8.73,13.52-.1.16-.2.32-.31.47C113.12,12.79,118.05,9.68,122.77,6.37Z"/><path class="cls-22" d="M115.8,109.32c1.56,2,3.11,4,4.75,5.83a12.51,12.51,0,0,0,1.5-2.24,29,29,0,0,1-4.78-3.11c-1.34-1.11-2.72-2.13-4.14-3.13A16.74,16.74,0,0,1,115.8,109.32Z"/><path class="cls-22" d="M8.54,116.92c.46-.65.84-1.14,1.06-1.47,2.39-3.68,4.9-7.27,7.38-10.91-3.37,3.59-6.78,7.12-10.08,10.76A17.94,17.94,0,0,0,8.54,116.92Z"/><path class="cls-23" d="M116.57,55.23c-.2-6.86-.25-13.25-.39-20.1-.12-6.19,0-12-1-18.15-1.11-7.34-7.54-7.23-13.89-7.3-22.26-2.42-44.93-1-67.26-1-6.58,0-14.17.28-19.11,5.23-3.56,3.58-3.9,8.64-3.51,13.77,0,9.37-.64,16-.66,24.07,0,9.82-.12,19.6.56,29.43.29,4.17.65,8.36,1.22,12.53.49,3.53.8,7.31,2.2,10.62,2,4.83,6.52,7.37,11.77,7.22a.59.59,0,0,0,.35-.15c5.58.64,11.45.3,17,.38,7.24.09,14.48.1,21.72.12s14.61-.16,21.87-.86c4.64-.43,11-.18,15.63-.44,3.76-.24,7-1.13,9.77-4.1S115.74,97.88,116,94C116.78,81.15,117,68.15,116.57,55.23Z"/><path class="cls-24" d="M127,23.51c-.55-9.6-1.55-20.33-12.9-22a90.81,90.81,0,0,0-12.78-.47c-6.75,0-13.46,0-20.21-.25C67.26.38,53.41.27,39.56.16,33.63.09,27.69-.08,21.75.06c-4,.1-7.92.56-11.5,2.36S4.38,7.83,3.1,11.61c-1.09,3.33-1,6.78-.87,10.26-.41,9.45-.32,18.94-.41,28.37-.11,11.17-.07,22.33-.3,33.49A145.09,145.09,0,0,0,1.94,99.2c.35,4.1.73,8.62,2.5,12.38,2.93,6.3,10.63,10.6,17.48,11a152,152,0,0,0,18.37-.75c7.77-.58,14-.36,21.75-.8,8.42-.47,16.83-.75,25.26-.93,4-.09,8,.1,11.94.23,3.37.1,7,.23,10.31-.66,3.82-.37,7.58-.87,10.44-3.8s4-8,4.48-12.13q1.09-8.73,1.39-17.52c.25-7.83-.15-15.64.34-23.47.51-8.31,1-16.64,1.1-25C127.35,33,127.28,28.26,127,23.51Zm-3,60.76c-.15,5-.38,10-.74,15-.32,4.59-.93,9.37-3.23,13.42-2.53,4.46-8.53,5.37-13.14,5.67-6.16.42-12.34,0-18.49,0q-12.66.22-25.27.91c-7.53.4-13.3.12-20.8.84-3.24.29-11.78,1-15,.92-6.87-.2-12.55-1.69-15.69-3.79a16.51,16.51,0,0,1-6.75-9.81c-2.47-9.55-1.81-20.2-1.64-30s0-19.61,0-29.42c.07-8,.59-16.16.32-24.22A68.29,68.29,0,0,1,4,14.94C4.76,9.75,7.72,5.2,12.68,3.3c3.74-1.43,8-1.38,12-1.38,6.05,0,12.12.14,18.17.2,12.76.14,25.54.3,38.29.7,6.4.2,12.77.33,19.18.27a114.6,114.6,0,0,1,12.56.65c6.41.66,9.9,2.91,11.37,9.45,1.23,5.48,1.15,11.07,1.36,16.65C126.28,47.94,124.53,66.16,124,84.27Z"/><path class="cls-25" d="M113.79,54.62c-.18-6.53-.24-12.6-.36-19.12-.13-5.89-.05-11.41-.94-17.26-1.06-7-7.16-6.9-13.18-7C78.15,9,56.62,10.33,35.4,10.36c-6.27,0-13.46.25-18.16,5-3.39,3.41-3.71,8.21-3.32,13.1,0,8.91-.62,15.27-.64,22.9,0,9.35-.12,18.67.52,28,.27,4,.63,8,1.16,11.92.46,3.36.76,7,2.09,10.1,1.94,4.62,6.21,7,11.19,6.88a.49.49,0,0,0,.34-.15c5.3.62,10.86.31,16.15.37,6.88.08,13.76.1,20.64.13s13.87-.15,20.77-.81c4.41-.43,10.44-.19,14.85-.46,3.58-.21,6.66-1,9.27-3.89s2.75-8.23,3-11.89C114,79.29,114.15,66.91,113.79,54.62Z"/><g class="cls-26"><path class="cls-27" d="M113.79,54.62c-.18-6.53-.24-12.6-.36-19.12-.13-5.89-.05-11.41-.94-17.26-1.06-7-7.16-6.9-13.18-7C78.15,9,56.62,10.33,35.4,10.36c-6.27,0-13.46.25-18.16,5-3.39,3.41-3.71,8.21-3.32,13.1,0,8.91-.62,15.27-.64,22.9,0,9.35-.12,18.67.52,28,.27,4,.63,8,1.16,11.92.46,3.36.76,7,2.09,10.1,1.94,4.62,6.21,7,11.19,6.88a.49.49,0,0,0,.34-.15c5.3.62,10.86.31,16.15.37,6.88.08,13.76.1,20.64.13s13.87-.15,20.77-.81c4.41-.43,10.44-.19,14.85-.46,3.58-.21,6.66-1,9.27-3.89s2.75-8.23,3-11.89C114,79.29,114.15,66.91,113.79,54.62ZM112,89.17c-.17,3.63-.36,8.4-2,11.65-3.24,6.25-11.55,4.6-17.49,5.07-8.64.68-17.29,1.4-26,1.43-6.51,0-13,0-19.54-.07-6.2,0-12.74-.72-19-.15-2.39-.46-4.66-.79-6.74-2.19s-3.15-4.11-3.81-6.52C15.31,90.58,15,82,14.7,73.94c-.51-12.84.81-26.5.91-39.36.16,1.47-.93-15.23,3.67-19C24.76,11.07,33.89,12,40.42,12c10.21,0,20.42-.31,30.62-.31,6.37,0,12.74.26,19.1.6,3.3.18,6.6.28,9.9.44,3.68.14,7.33-.26,9.5,3.39,2.47,4.14,2.5,9.73,2.59,14.39.15,8.14-.38,16.51,0,24.64a222.85,222.85,0,0,1,0,23.83C112,81.38,112.14,85.19,112,89.17Z"/></g><path class="cls-28" d="M107.5,52.78c-.17-5.7-.21-11-.33-16.75-.11-5.16,0-10-.82-15.11-.94-6.15-6.37-6.05-11.74-6.11-18.82-2-38-.84-56.83-.8-5.56,0-12,.22-16.15,4.36-3,3-3.3,7.21-2.95,11.49,0,7.81-.56,13.37-.57,20.06,0,8.19-.11,16.37.47,24.54.25,3.5.55,7,1,10.47.42,2.92.68,6.08,1.87,8.85,1.72,4,5.51,6.14,9.94,6a.53.53,0,0,0,.32-.12c4.7.52,9.64.26,14.35.31q9.16.09,18.35.11c6.15,0,12.34-.15,18.47-.7,3.92-.39,9.29-.18,13.21-.4,3.18-.2,5.92-.93,8.25-3.43s2.45-7.19,2.65-10.41C107.68,74.41,107.82,63.57,107.5,52.78Z"/><g class="cls-29"><path class="cls-30" d="M20,51.43c-.6-6.85.36-19.92.91-24.8s-.36-8,9.41-9.06a150.31,150.31,0,0,1,21.74-1.1c4.89.19,7.78,3.1,2.54,4.9s-21.26,11-30.43,29.34C23.1,52.88,20.57,57.58,20,51.43Z"/></g><g class="cls-31"><path class="cls-32" d="M61.49,16.3c6-.19,10.5-.19,9.78,2s-2.36,1.77-6.7,1.44c-2.35-.17-4.35.54-4.53-.55S59.43,16.36,61.49,16.3Z"/></g><g class="cls-33"><path class="cls-34" d="M19.48,90.56C17.3,70.65,24.55,60.15,35.05,74.27S51,89.12,59.31,88.76s22.11-2.54,29.34-14.49,19.2-14.48,18.47,1.08,7.25,29-21,28.61c-17-.22-39.11-.36-54,.35C24.13,104.73,20.53,100.18,19.48,90.56Z"/></g><g class="cls-35"><g class="cls-36"><path class="cls-37" d="M39.56,102.88c12.41-2,46.76.55,54.57-.85S107.48,99.26,108,90.9s-.56-18.94-.56-24.5,3.62-18.94,3.9,1.11-.73,26.82-1.12,30.06-1.65,7.53-13.92,7.53-20.87,1.39-35.63.84S8.65,107.89,39.56,102.88Z"/></g></g><g class="cls-35"><g class="cls-38"><path class="cls-39" d="M89.68,99.92c-12.53-1-46.59,4.2-54.47,3.41s-12.2-2-14.74-10c-4.59-14.37-1.92-18.56-2.35-24.13S14,50.24,15.32,70.25s2.82,26.69,3.45,29.89,2.25,7.36,14.46,6.43,20.92-.26,35.59-2S120.88,102.51,89.68,99.92Z"/></g></g><path class="cls-18" d="M117.3,141.41a46.23,46.23,0,0,0-6.1-4A69.86,69.86,0,0,0,108.83,127c-.62-1.86-3-3.69-4.8-2.72-2,1-3.53,3.46-4.81,5.28a28.36,28.36,0,0,0-2.09,3.58.77.77,0,0,0-.28-.06c-2.76,0-5.32-.31-8.08,0-2,.25-4.37.23-4.72,2.5-.25,1.5,1.38,6.61,4.6,10.49a35.31,35.31,0,0,0-2.85,5.57,4.1,4.1,0,0,0,.39,4.34c.85,1.14,4.06,1.11,5.77.59,4.09-1.27,5.69-1.55,7-2,2.56,1.94,3.72,3.67,6.54,5.4,3,1.84,4.07,1.92,5,1.35,1.8-1.06,2.74-8.41,2.56-11.08,2-.24,6.93-1.17,7.11-4.13C120.31,144.37,118.47,142.34,117.3,141.41Z"/><path class="cls-40" d="M115.76,140.09a69,69,0,0,0-7.4-4.83c-.48-3-.28-6.15-1.26-9.06-.6-1.73-2.27-2.83-4-1.94s-3.34,3.21-4.57,4.89a23.42,23.42,0,0,0-2,3.31.57.57,0,0,0-.27-.06,68.39,68.39,0,0,0-7.71,0c-2,.24-4.17.22-4.5,2.32-.23,1.37.84,2.81,1.64,3.82,1.32,1.66,2.44,3,3.89,4.59a48,48,0,0,0-3.37,6.4c-.45,1.15-1.29,3.84.07,4.77,1.1.74,2.74.34,4.35-.19a49.82,49.82,0,0,0,7.62-3.48,78.8,78.8,0,0,0,5.75,6c1.07,1,3.5,3.22,5,2.13,1.21-.86,1.19-2.87,1.2-4.18,0-2.48-.13-5-.29-7.5,1.92-.22,3.84-.46,5.74-.8,1.35-.25,2.92-1,2.92-2.54S116.87,140.94,115.76,140.09Z"/><g class="cls-41"><path class="cls-42" d="M115.76,140.09c-.32-.25-.66-.49-1-.73,1.45,1.48,1.72,2.95,1.06,4.07-.9,1.57-3.93,1.9-5.75,2-2.41.19-.91,2.27-1.85,4.44-1.86,4.27-7.11,2-8.82-.56-1.12-1.65-5.47,1.71-8.13-1.23a4,4,0,0,1-.68-3.61c.85-2.42-.51-2.79-1.73-4.46-1.9-2.59-3.18-6.19-.13-6.28a70.29,70.29,0,0,1,7.33.19c1.3.09,1.76-2.32,3.61-5.2.45-.68,1.9-3,2.28-3.72a22.49,22.49,0,0,0-3.44,4.1,23.42,23.42,0,0,0-2,3.31.57.57,0,0,0-.27-.06,68.39,68.39,0,0,0-7.71,0c-2,.24-4.17.22-4.5,2.32-.23,1.37.84,2.81,1.64,3.82,1.32,1.66,2.44,3,3.89,4.59a48,48,0,0,0-3.37,6.4c-.45,1.15-1.29,3.84.07,4.77,1.1.74,2.74.34,4.35-.19a49.82,49.82,0,0,0,7.62-3.48,78.8,78.8,0,0,0,5.75,6c1.07,1,3.5,3.22,5,2.13,1.21-.86,1.19-2.87,1.2-4.18,0-2.48-.13-5-.29-7.5,1.92-.22,3.84-.46,5.74-.8,1.35-.25,2.92-1,2.92-2.54S116.87,140.94,115.76,140.09Z"/></g><path class="cls-43" d="M115.76,140.09a69,69,0,0,0-7.4-4.83c-.48-3-.28-6.15-1.26-9.06-.6-1.73-2.27-2.83-4-1.94s-3.34,3.21-4.57,4.89a23.42,23.42,0,0,0-2,3.31.57.57,0,0,0-.27-.06,68.39,68.39,0,0,0-7.71,0c-2,.24-4.17.22-4.5,2.32-.23,1.37.84,2.81,1.64,3.82,1.32,1.66,2.44,3,3.89,4.59a48,48,0,0,0-3.37,6.4c-.45,1.15-1.29,3.84.07,4.77,1.1.74,2.74.34,4.35-.19a49.82,49.82,0,0,0,7.62-3.48,78.8,78.8,0,0,0,5.75,6c1.07,1,3.5,3.22,5,2.13,1.21-.86,1.19-2.87,1.2-4.18,0-2.48-.13-5-.29-7.5,1.92-.22,3.84-.46,5.74-.8,1.35-.25,2.92-1,2.92-2.54S116.87,140.94,115.76,140.09Zm.7,4.36A6.19,6.19,0,0,1,114,145c-1.65.23-3.3.46-5,.6a.81.81,0,0,0-.63,1.21c.11,1.91.09,3.83.23,5.75a13.6,13.6,0,0,1-.12,4c-.55,2.5-3.62-1-4.4-1.8-1.8-1.82-3.28-3.12-4.92-5.08-.37-.39-.68-.55-.84-.49-1.48.72-5.11,2.35-6.08,2.81a20.51,20.51,0,0,1-4.11,1.46c-2.74.61-.52-3.77-.08-4.7.81-1.74,1.85-3.35,2.69-5.07.29-.6.6-.81.22-1.27a66.18,66.18,0,0,1-4.84-6c-.47-.72-.76-2,.23-2.39s7.73-.64,9-.49a6.29,6.29,0,0,0,1.68.2,47.46,47.46,0,0,1,3.2-4.83c.6-.77,3-4.55,4.68-3.66,1.06.55,1.31,2.78,1.44,3.85.29,2.27.42,4.37.59,6.72,0,.2.85.6,1.92,1.26a47.62,47.62,0,0,1,7.05,4.72C116.46,142.32,117.57,143.69,116.46,144.45Z"/><path class="cls-22" d="M86,135.18s-.32-.63,1.72-.8a30.82,30.82,0,0,1,7.24.27l2.27.28c.84-1.5,1.62-3.19,1.62-3.19L97.19,134a73,73,0,0,0-8.68-.14C86.82,133.91,85.58,134.52,86,135.18Z"/><path class="cls-22" d="M99,131.5s2.18-4,4.64-3,2.64,4.69,2.88,6.93c-.22-2.08-.12-2.81-.47-6.93-.33-3.84-2.22-3.81-4.31-1.16A21.36,21.36,0,0,0,99,131.5Z"/><path class="cls-22" d="M106.32,134s.07,2.07,0,3.18c0,0,7.78,3.77,8.94,4.88s1.35,1.81,1,2.32c0,0,1.11-.55-.52-2.32s-9.28-6-9.28-6Z"/><path class="cls-22" d="M88.36,138.93a29.76,29.76,0,0,0,4.27,3.62s-5.81,8.07-5.54,10.29c0,0-.63-.9.92-3.68s3.52-6.52,3.52-6.52S89.34,140.19,88.36,138.93Z"/><path class="cls-18" d="M76.8,137a32.35,32.35,0,0,0-5.28-1.85,50.33,50.33,0,0,0-3.68-7.34c-.8-1.3-2.9-2.24-4.09-1.17s-2,3.22-2.61,4.82a20.26,20.26,0,0,0-.9,3.06.89.89,0,0,0-.23,0,55,55,0,0,0-6,1.51c-1.47.56-3.22,1-3.08,2.73.11,1.18,2.25,4.7,5.37,7a27.16,27.16,0,0,0-1.11,4.69,3.21,3.21,0,0,0,1.08,3.19c.84.68,3.25.08,4.43-.63,2.82-1.68,4-2.18,4.87-2.79,2.26,1,3.43,2.06,5.87,2.82s3.39.7,4,.1c1.15-1.12.5-6.77-.11-8.75,1.46-.53,4.95-2.14,4.54-4.4C79.6,138.71,77.86,137.52,76.8,137Z"/><path class="cls-44" d="M75.42,136.32A54,54,0,0,0,69,134.07c-.91-2.16-1.33-4.55-2.61-6.52a2.18,2.18,0,0,0-3.35-.73c-1.22,1.07-1.91,3-2.52,4.48a19,19,0,0,0-.88,2.84.42.42,0,0,0-.22,0,49.74,49.74,0,0,0-5.75,1.42c-1.41.53-3.08.93-2.94,2.56.07,1.07,1.14,2,1.93,2.57,1.29,1,2.38,1.81,3.73,2.69a39.8,39.8,0,0,0-1.34,5.43c-.11.93-.27,3.1.93,3.53.95.36,2.11-.25,3.22-.92a36.94,36.94,0,0,0,5.06-4,57.27,57.27,0,0,0,5.39,3.4c1,.56,3.2,1.78,4.1.7.72-.88.35-2.37.12-3.37-.43-1.84-1-3.72-1.59-5.55,1.39-.51,2.8-1,4.14-1.63,1-.44,2-1.25,1.72-2.45S76.43,136.76,75.42,136.32Z"/><g class="cls-45"><path class="cls-46" d="M75.42,136.32l-.87-.36c1.35.84,1.82,1.88,1.54,2.84-.4,1.36-2.59,2.15-3.93,2.58-1.77.61-.25,1.87-.57,3.68-.61,3.54-5,2.79-6.69,1.2-1.15-1.06-3.78,2.27-6.31.55a3,3,0,0,1-1.16-2.56c.2-2-.89-2-2.12-3-1.9-1.57-3.51-4-1.24-4.66a54.79,54.79,0,0,1,5.5-1.22c1-.15.91-2.05,1.77-4.54.2-.58.87-2.57,1-3.19a17.56,17.56,0,0,0-1.82,3.69,19,19,0,0,0-.88,2.84.42.42,0,0,0-.22,0,49.74,49.74,0,0,0-5.75,1.42c-1.41.53-3.08.93-2.94,2.56.07,1.07,1.14,2,1.93,2.57,1.29,1,2.38,1.81,3.73,2.69a39.8,39.8,0,0,0-1.34,5.43c-.11.93-.27,3.1.93,3.53.95.36,2.11-.25,3.22-.92a36.94,36.94,0,0,0,5.06-4,57.27,57.27,0,0,0,5.39,3.4c1,.56,3.2,1.78,4.1.7.72-.88.35-2.37.12-3.37-.43-1.84-1-3.72-1.59-5.55,1.39-.51,2.8-1,4.14-1.63,1-.44,2-1.25,1.72-2.45S76.43,136.76,75.42,136.32Z"/></g><path class="cls-43" d="M75.42,136.32A54,54,0,0,0,69,134.07c-.91-2.16-1.33-4.55-2.61-6.52a2.18,2.18,0,0,0-3.35-.73c-1.22,1.07-1.91,3-2.52,4.48a19,19,0,0,0-.88,2.84.42.42,0,0,0-.22,0,49.74,49.74,0,0,0-5.75,1.42c-1.41.53-3.08.93-2.94,2.56.07,1.07,1.14,2,1.93,2.57,1.29,1,2.38,1.81,3.73,2.69a39.8,39.8,0,0,0-1.34,5.43c-.11.93-.27,3.1.93,3.53.95.36,2.11-.25,3.22-.92a36.94,36.94,0,0,0,5.06-4,57.27,57.27,0,0,0,5.39,3.4c1,.56,3.2,1.78,4.1.7.72-.88.35-2.37.12-3.37-.43-1.84-1-3.72-1.59-5.55,1.39-.51,2.8-1,4.14-1.63,1-.44,2-1.25,1.72-2.45S76.43,136.76,75.42,136.32Zm1.33,3.14a4.88,4.88,0,0,1-1.75.91c-1.19.47-2.39.93-3.61,1.34a.63.63,0,0,0-.24,1c.44,1.41.77,2.84,1.22,4.24a10.68,10.68,0,0,1,.66,3c0,2-2.9-.1-3.62-.53-1.68-1-3-1.73-4.62-2.9-.34-.21-.61-.29-.7-.19-1,.79-3.4,2.67-4.05,3.19a14.69,14.69,0,0,1-2.79,1.85c-1.94.95-1.08-2.72-.93-3.51.29-1.44.77-2.84,1.09-4.28.11-.49.29-.7-.07-1A49.47,49.47,0,0,1,52.61,139c-.48-.46-.93-1.32-.26-1.84a35.28,35.28,0,0,1,6.64-2,5.71,5.71,0,0,0,1.28-.15,38,38,0,0,1,1.51-4.2c.31-.69,1.39-3.94,2.85-3.59.88.21,1.48,1.84,1.76,2.61.64,1.64,1.11,3.18,1.67,4.92.06.16.74.3,1.68.59a35.66,35.66,0,0,1,6.13,2.24C76.35,137.88,77.43,138.68,76.75,139.46Z"/><path class="cls-22" d="M52.25,138.11s-.36-.4,1.13-.92a25.49,25.49,0,0,1,5.47-1.13l1.73-.2c.36-1.26.64-2.67.64-2.67l-.79,2a56.41,56.41,0,0,0-6.52,1.47C52.66,137,51.84,137.69,52.25,138.11Z"/><path class="cls-22" d="M61.36,133s.89-3.42,2.91-3.07,2.85,3,3.43,4.65c-.55-1.52-.61-2.08-1.62-5.08-1-2.83-2.37-2.46-3.43-.09A15.85,15.85,0,0,0,61.36,133Z"/><path class="cls-22" d="M67.25,133.48s.42,1.54.59,2.38c0,0,6.51,1.38,7.58,2s1.33,1.12,1.19,1.56c0,0,.73-.63-.8-1.65s-8-2.79-8-2.79Z"/><path class="cls-22" d="M54.73,140.48a23.13,23.13,0,0,0,3.85,1.91s-2.87,7.11-2.26,8.73c0,0-.63-.56,0-2.93s1.44-5.52,1.44-5.52S55.69,141.24,54.73,140.48Z"/><path class="cls-18" d="M43.81,138.8a33.09,33.09,0,0,0-5-.59,45.49,45.49,0,0,0-4.65-5.73c-1-1-3-1.38-3.82-.21S29.21,135.5,29,137a19.09,19.09,0,0,0-.19,2.84.39.39,0,0,0-.2,0,49.6,49.6,0,0,0-5,2.5c-1.18.78-2.63,1.48-2.16,3,.31,1,2.89,3.67,6.07,5.06a25.29,25.29,0,0,0-.06,4.34A2.86,2.86,0,0,0,29,157.42c.86.43,2.85-.57,3.75-1.41,2.14-2,3.06-2.72,3.73-3.41,2.18.41,3.42,1.14,5.7,1.34,2.44.23,3.11-.05,3.54-.7.79-1.21-.88-6.05-1.81-7.66,1.17-.76,3.93-2.86,3.13-4.74C46.59,139.74,44.82,139,43.81,138.8Z"/><path class="cls-47" d="M42.45,138.46a46.58,46.58,0,0,0-6.06-.72c-1.22-1.72-2.06-3.73-3.56-5.23a2,2,0,0,0-3.07,0c-.88,1.19-1.11,3-1.36,4.43a19.73,19.73,0,0,0-.21,2.66.61.61,0,0,0-.18,0,48.18,48.18,0,0,0-4.77,2.38c-1.14.74-2.52,1.42-2.09,2.81.29.94,1.39,1.5,2.2,1.89,1.33.62,2.42,1.12,3.81,1.65a32.39,32.39,0,0,0-.12,5c.07.84.37,2.77,1.48,2.94.93.11,1.81-.65,2.66-1.45a34.62,34.62,0,0,0,3.66-4.5,53.4,53.4,0,0,0,5.38,1.92c1,.3,3.16.95,3.75-.17.46-.93-.15-2.16-.56-3-.73-1.54-1.62-3.09-2.48-4.56,1.13-.72,2.26-1.44,3.33-2.25.77-.56,1.51-1.5,1-2.48S43.41,138.66,42.45,138.46Z"/><g class="cls-48"><path class="cls-49" d="M42.45,138.46l-.83-.15c1.33.47,2,1.3,1.9,2.21-.06,1.24-1.85,2.38-2.93,3-1.44.86.13,1.68.22,3.34.14,3.21-3.82,3.42-5.64,2.34C34,148.53,32.3,152,29.74,151a2.79,2.79,0,0,1-1.53-2c-.2-1.76-1.17-1.59-2.44-2.24-2-1-3.87-2.85-2-3.85a46.38,46.38,0,0,1,4.6-2.13c.83-.34.38-2,.65-4.35.07-.55.26-2.43.26-3a16.88,16.88,0,0,0-.88,3.6,19.73,19.73,0,0,0-.21,2.66.61.61,0,0,0-.18,0,48.18,48.18,0,0,0-4.77,2.38c-1.14.74-2.52,1.42-2.09,2.81.29.94,1.39,1.5,2.2,1.89,1.33.62,2.42,1.12,3.81,1.65a32.39,32.39,0,0,0-.12,5c.07.84.37,2.77,1.48,2.94.93.11,1.81-.65,2.66-1.45a34.62,34.62,0,0,0,3.66-4.5,53.4,53.4,0,0,0,5.38,1.92c1,.3,3.16.95,3.75-.17.46-.93-.15-2.16-.56-3-.73-1.54-1.62-3.09-2.48-4.56,1.13-.72,2.26-1.44,3.33-2.25.77-.56,1.51-1.5,1-2.48S43.41,138.66,42.45,138.46Z"/></g><path class="cls-43" d="M42.45,138.46a46.58,46.58,0,0,0-6.06-.72c-1.22-1.72-2.06-3.73-3.56-5.23a2,2,0,0,0-3.07,0c-.88,1.19-1.11,3-1.36,4.43a19.73,19.73,0,0,0-.21,2.66.61.61,0,0,0-.18,0,48.18,48.18,0,0,0-4.77,2.38c-1.14.74-2.52,1.42-2.09,2.81.29.94,1.39,1.5,2.2,1.89,1.33.62,2.42,1.12,3.81,1.65a32.39,32.39,0,0,0-.12,5c.07.84.37,2.77,1.48,2.94.93.11,1.81-.65,2.66-1.45a34.62,34.62,0,0,0,3.66-4.5,53.4,53.4,0,0,0,5.38,1.92c1,.3,3.16.95,3.75-.17.46-.93-.15-2.16-.56-3-.73-1.54-1.62-3.09-2.48-4.56,1.13-.72,2.26-1.44,3.33-2.25.77-.56,1.51-1.5,1-2.48S43.41,138.66,42.45,138.46ZM44.24,141a4.24,4.24,0,0,1-1.36,1.13c-1,.64-1.92,1.29-2.91,1.9a.56.56,0,0,0,0,.94c.65,1.14,1.22,2.35,1.89,3.49A9.38,9.38,0,0,1,43,151c.41,1.72-2.56.47-3.29.21-1.67-.56-3-.93-4.61-1.64-.35-.11-.59-.13-.67,0-.7.89-2.45,3-2.91,3.6a13.41,13.41,0,0,1-2.1,2.16c-1.51,1.21-1.47-2.16-1.48-2.9,0-1.31.12-2.65.1-4,0-.47.13-.68-.25-.84A45.5,45.5,0,0,1,23,145.29c-.51-.29-1.07-1-.58-1.55a30.46,30.46,0,0,1,5.43-3.05c.67-.23,1.09-.32,1.1-.4a32.59,32.59,0,0,1,.51-4c.12-.65.44-3.73,1.77-3.71.83,0,1.67,1.33,2.07,2,.88,1.33,1.6,2.58,2.44,4,.07.13.71.13,1.56.19a31.06,31.06,0,0,1,5.84.78C43.57,139.64,44.68,140.14,44.24,141Z"/><path class="cls-22" d="M22.46,144.54s-.38-.27.83-1a20.24,20.24,0,0,1,4.57-2l1.5-.54c.05-1.17,0-2.47,0-2.47l-.32,1.9A51.9,51.9,0,0,0,23.65,143C22.62,143.5,22,144.26,22.46,144.54Z"/><path class="cls-22" d="M29.45,138.27s.13-3.18,2-3.27,3.09,2.09,3.91,3.41c-.78-1.22-.94-1.71-2.41-4.15-1.38-2.29-2.55-1.66-3,.62A15.79,15.79,0,0,0,29.45,138.27Z"/><path class="cls-22" d="M34.72,137.56s.68,1.27,1,2c0,0,6-.06,7,.27s1.39.71,1.34,1.14c0,0,.52-.69-1-1.29s-7.6-.89-7.6-.89Z"/><path class="cls-22" d="M25.12,146.15a20.55,20.55,0,0,0,3.76.93s-1.15,6.79-.3,8.1c0,0-.66-.39-.56-2.58s.19-5.13.19-5.13S26.1,146.61,25.12,146.15Z"/><path class="cls-18" d="M74.81,10.25c-7.46,2.64-18.5,13-21.48,20.07a81.25,81.25,0,0,0-3.95,12.49c-.24,1-.43,4.69-1.16,5.36a14.23,14.23,0,0,0-3.24.42c-6,2.35-14.4,7.38-16.1,12.82C25.23,73,23.31,80.23,24.18,85.28c3.43,19.89,20.9,19.73,30.08,24.12a144.18,144.18,0,0,0,18.82,7.78c3.82,1.18,7.71,2.78,11.68,1.22,3.4-1.33,5.83-4.22,7.93-7.09,4-5.46,6.65-11.63,9.91-17.49,2.66-4.83,7.26-11.08,6.84-16.88-.12-1.8-2.45-6.66-4.44-10.11.88-1.53,2.6-5.12,3.44-6.68,6-11.37,7.26-19.55,1.27-32C102.11,12.41,89.78,5,74.81,10.25ZM65.38,34.77A19,19,0,0,1,88.59,28c9,3.94,12.78,13.7,9.76,22.86a68,68,0,0,1-2.85,6.92c-.61,1.3-1.25,2.58-1.91,3.85-.82,1.59-2,.21-3.41-.4A142.32,142.32,0,0,0,74.6,55.53c-2.62-.82-5.24-1.63-7.85-2.48-1.43-.49-2.85-1-4.29-1.5s-3.07-.32-2.68-1.95c1.22-5.1,2.61-10.45,5.6-14.83Z"/><path class="cls-50" d="M104.27,20.55A33.2,33.2,0,0,0,92.94,9.43a34.51,34.51,0,0,0-9.41-3.86A38.74,38.74,0,0,0,61,7.64c-6.58,2.74-10.43,8.72-13.11,15.08a92,92,0,0,0-5.12,18c-8-1.37-11.48,12.76-13.27,18.2-2.26,6.83-5.6,13.38-6,20.68-.31,5.86,2.48,10,6.82,13C35.69,96.76,43,99,48.81,101.79c5.18,2.48,10.44,4.8,15.83,6.77,2.65,1,5.37,1.71,8.09,2.51,5.11,1.47,9.31-1,12.57-4.86,4.08-4.86,7-10.62,9.87-16.26s6.49-10.94,8.35-16.86a8.39,8.39,0,0,0-1.64-8.65,1.09,1.09,0,0,0-.08-.15,25.94,25.94,0,0,0-3-2.73c3.36-5.83,6.43-11.81,8.24-18.32A29.29,29.29,0,0,0,104.27,20.55ZM90.53,49.24c-.89,2-1.88,3.86-2.87,5.77a107,107,0,0,0-12.89-5.24c-5.58-1.91-11.23-3.5-16.79-5.48-1.23-.43-2.52-.88-3.87-1.3,1.3-5.54,2.92-11.52,5.83-15.82a18.77,18.77,0,0,1,20-7.8,18.22,18.22,0,0,1,14.2,16.57C94.35,40.48,92.33,45.17,90.53,49.24Z"/><path class="cls-51" d="M105.24,44.41a81,81,0,0,1-7.65,16.27,72,72,0,0,0-7.45-4.42c-.39-.2-.79-.38-1.17-.59,1.06-2.26,2.08-4.55,3-6.86,1.85-4.52,3.48-9.38,3-14.31-.7-7.69-6.93-13.9-14.08-16.06-7.7-2.33-15.45.63-20.47,6.64-3.83,4.57-6.68,11.26-7.93,17.42A33.84,33.84,0,0,0,44,41l-.33-.13c1-3.94,1.87-7.9,3.12-11.77,1.67-5.14,3.87-11.24,7.75-15.16A26.58,26.58,0,0,1,66.58,7.44a37.89,37.89,0,0,1,15.66-.56c8.74,1.42,16,7.37,20.4,14.87A28.1,28.1,0,0,1,105.24,44.41Z"/><path class="cls-52" d="M104.27,20.55A33.2,33.2,0,0,0,92.94,9.43a36.92,36.92,0,0,0-7.2-3.25,32.73,32.73,0,0,1,9.84,6.36c5.46,5.32,9.4,12,9,19.86a35.3,35.3,0,0,1-2.79,12.86,19,19,0,0,1-3.71,5.57c-1,.92-3.82,2-3.37-.65.9-5.29,3.94-9.61,3.44-15.2-.36-4.12-1.13-8.81-3.6-12.26-4.65-6.46-13.89-9.18-21.61-8.79-9.25.48-16.8,7.58-19.64,16.09-.58,1.7-2.84,7.28-5,7-4.4-.58-1-12.82-.07-15l-.3.65a92,92,0,0,0-5.12,18c-8-1.37-11.48,12.76-13.27,18.2-2.26,6.83-5.6,13.38-6,20.68-.31,5.86,2.48,10,6.82,13C35.69,96.76,43,99,48.81,101.79c5.18,2.48,10.44,4.8,15.83,6.77,2.65,1,5.37,1.71,8.09,2.51,5.11,1.47,9.31-1,12.57-4.86,4.08-4.86,7-10.62,9.87-16.26s6.49-10.94,8.35-16.86a8.39,8.39,0,0,0-1.64-8.65,1.09,1.09,0,0,0-.08-.15,25.94,25.94,0,0,0-3-2.73c3.36-5.83,6.43-11.81,8.24-18.32A29.29,29.29,0,0,0,104.27,20.55ZM59.94,27.17a18.77,18.77,0,0,1,20-7.8,18.22,18.22,0,0,1,14.2,16.57c.22,4.54-1.8,9.23-3.6,13.3-.89,2-1.88,3.86-2.87,5.77a107,107,0,0,0-12.89-5.24c-5.58-1.91-11.23-3.5-16.79-5.48-1.23-.43-2.52-.88-3.87-1.3C55.41,37.45,57,31.47,59.94,27.17ZM96.16,69.45c.06,6-5.34,12.67-8.39,17.91-2.52,4.31-4.55,9.2-8.46,12.49-7.27,6.09-18.2,2-26.11-.92a106.24,106.24,0,0,1-16.34-7.49C33.68,89.62,30,87.64,28.68,84,25.47,75.21,32,65.34,35,57.35c1.53-4.07,3.35-9.17,7.74-10.85,6-2.29,13.63,1,19.43,2.34a93.76,93.76,0,0,1,19.25,6.4,68,68,0,0,1,10.41,6.52C95,64,96.13,66.67,96.16,69.45Z"/><path class="cls-53" d="M96.16,69.45a11.67,11.67,0,0,1-.23,2.34,56.15,56.15,0,0,1,5.65,1.56l1.7.41c.08-.22.17-.44.24-.67a8.39,8.39,0,0,0-1.64-8.65,1.09,1.09,0,0,0-.08-.15c-.44-.46-.91-.91-1.38-1.33s-1-.72-1.53-1.07c-1.81.42-3.61.84-5.42,1.3A8.75,8.75,0,0,1,96.16,69.45Z"/><path class="cls-53" d="M102.48,66.91c.32,0,.63,0,.94-.08a8,8,0,0,0-1.54-2.39,1.09,1.09,0,0,0-.08-.15l-.55-.52c-1.09.2-2.17.39-3.27.57s-2.08.44-3.11.63a8.4,8.4,0,0,1,.89,2C98,66.87,100.22,67,102.48,66.91Z"/><path class="cls-53" d="M100,71c1.27.28,2.57.52,3.87.72a11.05,11.05,0,0,0,.18-2l-.16,0c-2.57.11-5.16-.1-7.73,0,0,.16,0,.35,0,.53A28,28,0,0,1,100,71Z"/><path class="cls-52" d="M77.13,101.28A14.34,14.34,0,0,1,72,102.85a26.36,26.36,0,0,1,1.43,8.37c4.57,1,8.38-1.07,11.42-4.48-1.38-.85-2.69-1.55-3.33-2A24.75,24.75,0,0,1,77.13,101.28Z"/><path class="cls-52" d="M28.68,84a14.24,14.24,0,0,1-.86-5,31.8,31.8,0,0,1-4.26.37c0,.08,0,.15,0,.21-.3,5.57,2.23,9.6,6.2,12.59a34.7,34.7,0,0,1,1.65-4.34A9.65,9.65,0,0,1,28.68,84Z"/><path class="cls-53" d="M47.43,41.78a31.65,31.65,0,0,0-4.63-1.21.2.2,0,0,0,0,.1c-3-.51-5.37,1.15-7.25,3.71q2.22,1.95,4.34,4a8.27,8.27,0,0,1,2.87-1.86A13,13,0,0,1,48,45.73C47.77,44.41,47.58,43.08,47.43,41.78Z"/><path class="cls-54" d="M42.17,46.75a3.64,3.64,0,0,1,.57-.25,10.14,10.14,0,0,1,1.42-.44,32.94,32.94,0,0,1-2-5.45A6.19,6.19,0,0,0,37.89,42C38.88,43.66,40.86,45.14,42.17,46.75Z"/><path class="cls-54" d="M35.83,44c-.1.14-.21.25-.3.38,1.27,1.11,2.5,2.26,3.73,3.41C38.18,46.48,36.85,45.35,35.83,44Z"/><path class="cls-55" d="M104.27,20.55A33.2,33.2,0,0,0,92.94,9.43a34.51,34.51,0,0,0-9.41-3.86A38.74,38.74,0,0,0,61,7.64c-6.58,2.74-10.43,8.72-13.11,15.08a92,92,0,0,0-5.12,18c-8-1.37-11.48,12.76-13.27,18.2-2.26,6.83-5.6,13.38-6,20.68-.31,5.86,2.48,10,6.82,13C35.69,96.76,43,99,48.81,101.79c5.18,2.48,10.44,4.8,15.83,6.77,2.65,1,5.37,1.71,8.09,2.51,5.11,1.47,9.31-1,12.57-4.86,4.08-4.86,7-10.62,9.87-16.26s6.49-10.94,8.35-16.86a8.39,8.39,0,0,0-1.64-8.65,1.09,1.09,0,0,0-.08-.15,25.94,25.94,0,0,0-3-2.73c3.36-5.83,6.43-11.81,8.24-18.32A29.29,29.29,0,0,0,104.27,20.55Zm-2.66,46.3c1.51,2.79,0,6.23-1.16,8.88-2.16,4.8-4.92,9.43-7.28,14.15A95.47,95.47,0,0,1,85,103.78a23.47,23.47,0,0,1-4.47,4.86c-4.47,3.4-11.87-.41-16.43-2-5.31-1.86-10.47-4.08-15.58-6.39-5.32-2.41-11.09-4.37-16.11-7.44-.4-.19-.79-.41-1.18-.64a19.64,19.64,0,0,1-4.34-4.48c-1.93-2.86-2.14-6.48-1.84-9.81.55-6.23,3.43-12.09,5.46-17.92,2.21-6.36,4.37-16.85,12-18.14C47.28,42.88,52,43.46,56.75,45c5.28,1.72,10.56,3.56,15.81,5.41a116,116,0,0,1,15.2,6.33c1.56.81,3.09,1.61,4.6,2.5A30.44,30.44,0,0,1,95.54,61C97.71,62.61,100.28,64.42,101.61,66.85ZM54.11,43c1.3-5.54,2.92-11.52,5.83-15.82a18.77,18.77,0,0,1,20-7.8,18.22,18.22,0,0,1,14.2,16.57c.22,4.54-1.8,9.23-3.6,13.3-.89,2-1.88,3.86-2.87,5.77a107,107,0,0,0-12.89-5.24c-5.58-1.91-11.23-3.5-16.79-5.48C56.75,43.86,55.46,43.41,54.11,43Zm51.13,1.42a81,81,0,0,1-7.65,16.27,72,72,0,0,0-7.45-4.42c-.39-.2-.79-.38-1.17-.59,1.06-2.26,2.08-4.55,3-6.86,1.85-4.52,3.48-9.38,3-14.31-.7-7.69-6.93-13.9-14.08-16.06-7.7-2.33-15.45.63-20.47,6.64-3.83,4.57-6.68,11.26-7.93,17.42A33.84,33.84,0,0,0,44,41l-.33-.13c1-3.94,1.87-7.9,3.12-11.77,1.67-5.14,3.87-11.24,7.75-15.16A26.58,26.58,0,0,1,66.58,7.44a37.89,37.89,0,0,1,15.66-.56c8.74,1.42,16,7.37,20.4,14.87A28.1,28.1,0,0,1,105.24,44.41Z"/><path class="cls-56" d="M68.71,59.38c-4.29-1.71-10-.69-12.63,3.44-2.13,3.43-1.84,7.47,1.55,11.07-3.28,3.19-6.05,6.7-9.31,9.87-.38.39-.71.85.34,1.25C53.49,86.85,57,88.53,62,90.43c.46.17,1,.06,1.1-.4.55-4.2,1.23-8.89,1.7-13.09C75.06,78.1,78,63.11,68.71,59.38Z"/><path class="cls-57" d="M68.71,59.38c-4.29-1.71-10-.69-12.63,3.44-2.13,3.43-1.84,7.47,1.55,11.07-3.28,3.19-6.05,6.7-9.31,9.87-.38.39-.71.85.34,1.25C53.49,86.85,57,88.53,62,90.43c.46.17,1,.06,1.1-.4.55-4.2,1.23-8.89,1.7-13.09C75.06,78.1,78,63.11,68.71,59.38Zm-3.8,16.55a1.43,1.43,0,0,0-1-.07c-.33,2.31-1.41,9.82-2,12.61-3.66-1.17-8.07-3.06-11.55-4.6,2.92-2.93,4.42-5,7.21-8,1.21-1.56,2-2,1.77-2.24-2.71-2.1-3.72-4.59-2.91-7.93,1-4.19,6.43-6.08,10-5.45a7.91,7.91,0,0,1,6.36,7.63C73,72.15,69.16,76.39,64.91,75.93Z"/><path class="cls-58" d="M48.15,33.48s1.74-12.9,7.44-17.91S69,5.53,84.47,9.35s18.18,17.89,18.72,22.77S101.83,44.47,99.8,47A32.12,32.12,0,0,0,102,32.4c-.82-7.87-4.84-18.07-19.25-20.89C65.35,8.12,53.29,12.18,48.15,33.48Z"/><path class="cls-59" d="M38.65,92.87s21.69,10,28.47,10.85,11.11,1.37,17.09-8.4,7.39-24.29,9-27,6.22-1.32-1.4-6.56c0,0,4.3,4.8,3.49,7.52S89.9,82,85,89.89s-7.78,12.54-13.56,13C65,103.45,38.65,92.87,38.65,92.87Z"/><path class="cls-60" d="M27.82,79S27.25,74.06,33,61.6s6.33-15.38,13.38-16.09S72.82,51.3,82,55.45c0,0-22.42-6.68-27.48-7.59s-10-1.27-13.75,2.9S28,72,27.82,79Z"/><path class="cls-61" d="M67.84,58.06A10.75,10.75,0,0,0,56,62a8.1,8.1,0,0,0-1.23,6.7A15,15,0,0,1,55,66.12c1-6.06,10.11-9.41,15.46-5.15s2.88,11.11,2.88,11.11C77.42,64.76,70.74,58.87,67.84,58.06Z"/><path class="cls-61" d="M63.11,90l1.7-13.09s3.76.84,7.46-3c0,0-2.26,4-6.59,3.62Z"/></g></g></g></svg>