<?xml version="1.0" encoding="UTF-8"?>
<svg width="747px" height="703px" viewBox="0 0 747 703" version="1.1" xmlns="http://www.w3.org/2000/svg" xmlns:xlink="http://www.w3.org/1999/xlink">
    <!-- Generator: Sketch 46.2 (44496) - http://www.bohemiancoding.com/sketch -->
    <title>lock</title>
    <desc>Created with Sketch.</desc>
    <defs></defs>
    <g id="Page-1" stroke="none" stroke-width="1" fill="none" fill-rule="evenodd">
        <g id="lock" transform="translate(-132.000000, 0.000000)" fill-rule="nonzero">
            <path d="M534.708353,170.125554 C534.708353,170.23511 534.714496,170.343642 534.714496,170.455245 L534.714496,170.357976 C534.71552,170.281185 534.708353,170.203369 534.708353,170.125554 L534.708353,170.125554 Z M533.734638,153.924616 C533.820644,154.676148 533.881054,155.443038 533.956821,156.196618 C533.888221,155.443038 533.821668,154.676148 533.734638,153.924616 Z M532.291983,144.654359 C532.490617,145.705889 532.688227,146.754348 532.862287,147.807926 C532.692322,146.750252 532.490617,145.705889 532.291983,144.654359 Z M519.771914,193.958533 L519.771914,164.646744 C519.771914,109.591406 488.319181,61.058218 443.221127,32.433455 C480.9984,50.784552 511.57264,82.736941 525.899867,121.509431 C503.191114,59.889964 439.51159,15.432864 371.024925,15.432864 C285.460876,15.432864 204.404994,84.793928 204.404995,170.359 L204.404995,380.334331 L241.58739,380.334331 L241.58739,179.014926 C241.58739,113.470907 291.714768,60.341497 357.25162,60.341498 C378.353897,60.341498 392.409794,65.87867 409.478986,75.538004 C454.289327,91.376486 486.40349,134.088886 486.403491,184.321724 L486.403491,205.838674 C486.403491,212.967988 490.310637,219.273073 496.309581,223.188411 C509.379477,222.336538 519.771913,209.598381 519.771914,193.958533 L519.771914,193.958533 Z M534.376614,161.071336 C534.43088,161.85768 534.477979,162.644024 534.518934,163.434463 C534.477979,162.644024 534.426784,161.85768 534.376614,161.071336 Z M530.85752,137.830163 C531.132945,138.989201 531.37663,140.157454 531.632601,141.325708 C531.382773,140.157455 531.132945,138.988178 530.85752,137.830163 Z" id="Shape" fill="#ECECEC"></path>
            <path d="M241.58739,179.014926 L241.58739,380.428528 L258.572624,380.428528 L258.572624,184.418993 C258.572624,120.700561 307.304446,69.045547 371.023901,69.045547 C384.675364,69.045547 397.765738,71.4312 409.917209,75.782712 L409.477962,75.538004 C392.40877,65.87867 378.353896,60.341498 357.250596,60.341498 C291.714768,60.341498 241.58739,113.470908 241.58739,179.014926 L241.58739,179.014926 Z M534.518934,163.434463 C534.477979,162.644024 534.43088,161.85768 534.376614,161.071336 C534.266317,159.444014 534.126363,157.818838 533.956821,156.196618 C533.881053,155.443038 533.821668,154.676148 533.734638,153.924616 C533.48768,151.879709 533.196829,149.840342 532.862287,147.807926 C532.688226,146.754348 532.489593,145.705889 532.291983,144.654359 C532.084506,143.542404 531.864699,142.432786 531.632601,141.325708 C531.37663,140.157455 531.132945,138.989202 530.85752,137.830163 C530.652743,136.990577 530.426464,136.154063 530.209401,135.316525 C529.599302,132.945173 528.926373,130.590431 528.191323,128.254787 C528.015215,127.690626 527.847298,127.129537 527.664022,126.568448 C527.177359,125.083165 526.666714,123.605847 526.132289,122.137073 C526.058569,121.926153 525.975635,121.718304 525.899867,121.509431 C511.57264,82.737965 480.9984,50.784552 443.221127,32.433455 C488.31918,61.058217 519.771913,109.591405 519.771914,164.646744 L519.771914,193.958533 C519.771914,209.597357 509.379478,222.335515 496.309581,223.188411 C496.268626,223.190459 496.22767,223.199674 496.184667,223.203769 C500.203417,225.863823 505.166189,227.454941 510.560017,227.454941 C523.901243,227.454941 534.71552,214.695282 534.71552,198.955093 L534.71552,170.455245 C534.71552,170.343641 534.709377,170.23511 534.709377,170.125554 C534.699951,167.893979 534.636451,165.662961 534.518934,163.434463 L534.518934,163.434463 Z" id="Shape" fill="#A7A7A7"></path>
            <path d="M514.901291,231.671301 C497.112307,231.671301 482.640712,218.398676 482.640712,202.08511 L482.640712,180.21492 C482.640712,119.832307 433.512646,70.707313 373.12901,70.707313 C318.564113,70.707313 275.216904,112.01699 270.060617,168.93068 C269.674612,173.177756 265.919001,176.30163 261.67602,175.921769 C259.637221,175.737562 257.755153,174.750828 256.444006,173.178719 C255.132859,171.60661 254.500082,169.577961 254.684931,167.53922 C260.580463,102.484618 310.392484,55.268146 373.130033,55.268146 C442.0283,55.268146 498.080903,111.3187 498.080903,180.21492 L498.080903,202.08511 C498.080903,209.886092 505.627962,216.232134 514.902315,216.232134 C524.185883,216.232134 531.737038,206.700786 531.737037,194.986514 L531.737037,166.03206 C531.737037,152.925304 529.811109,139.861551 526.01659,127.202233 C525.428531,125.241089 525.643695,123.126656 526.614739,121.324166 C527.585784,119.521675 529.233151,118.178805 531.194378,117.591022 C535.280704,116.36236 539.578975,118.687603 540.804566,122.767786 C545.022886,136.802572 547.169406,151.378072 547.176204,166.033084 L547.176204,194.987537 C547.17518,215.213368 532.697442,231.6713 514.901291,231.671301 L514.901291,231.671301 Z" id="Shape" fill="#000000"></path>
            <path d="M269.555842,387.103236 L202.147327,387.103236 L202.147327,166.031037 C202.147327,101.624555 245.343001,40.348089 309.635833,13.549938 C313.557214,11.9699525 318.019999,13.8379167 319.64672,17.7401414 C321.273441,21.6423661 319.458927,26.1271493 315.576415,27.800374 C256.966147,52.229254 217.586494,107.780152 217.586494,166.031037 L217.586494,371.66407 L254.117699,371.66407 L254.117699,211.601101 C254.186326,207.38698 257.622091,204.006712 261.836771,204.006712 C266.05145,204.006712 269.487215,207.38698 269.555842,211.601101 L269.555842,387.103236 L269.555842,387.103236 Z M477.017534,52.383861 C475.311421,52.3854966 473.653292,51.8192185 472.30459,50.774313 C443.552866,28.564193 408.330187,16.332858 373.12901,16.332859 C365.549187,16.332859 357.957077,16.901115 350.562577,18.023293 C346.363623,18.658102 342.413474,15.764602 341.772521,11.548243 C341.133407,7.33293893 344.032313,3.39759657 348.247572,2.758187 C356.483,1.51444762 364.800195,0.890854861 373.12901,0.892668 C411.726415,0.892668 450.300271,14.268706 481.742765,38.554242 C484.356021,40.5745529 485.394666,44.0334293 484.326684,47.1591572 C483.258702,50.284885 480.320678,52.3850341 477.017534,52.383861 L477.017534,52.383861 Z M514.754875,92.913338 C512.152001,92.9159478 509.723189,91.60626 508.295183,89.43008 C507.433948,88.1165919 506.576611,86.8005521 505.723183,85.481978 C500.930376,78.094645 499.317756,75.606604 491.903803,68.596061 C488.818847,65.6637882 488.689056,60.7878884 491.613645,57.6956477 C494.538235,54.603407 499.413796,54.4614863 502.513303,57.378374 C511.266499,65.656487 513.588671,69.237014 518.676356,77.080999 C519.434031,78.2513 520.265426,79.53218 521.200234,80.954357 C522.32412,82.665709 522.721975,84.7534959 522.30624,86.7582429 C521.890505,88.7629899 520.695249,90.5204048 518.983522,91.64372 C517.72927,92.4730755 516.25853,92.9146536 514.754875,92.913338 L514.754875,92.913338 Z" id="Shape" fill="#000000"></path>
            <path d="M605.196714,661.348873 C605.196714,678.583935 592.323404,692.560993 576.44499,692.560993 L207.41317,692.560993 C191.532709,692.560993 178.656327,678.584958 178.656326,661.348873 L178.656326,323.230198 C178.656326,305.993089 191.532708,292.021149 207.41317,292.02115 L576.44499,292.02115 C592.323404,292.02115 605.196714,305.993089 605.196714,323.230198 L605.196714,661.348873 L605.196714,661.348873 Z" id="Shape" fill="#FDD72C"></path>
            <path d="M573.986641,292.02115 L493.360792,292.02115 C510.595854,292.02115 524.570864,305.993089 524.570864,323.230198 L524.570864,661.348873 C524.570864,678.583935 510.596877,692.560993 493.360792,692.560993 L573.986641,692.560993 C591.221703,692.560993 605.196713,678.584958 605.196714,661.348873 L605.196714,323.230198 C605.196714,305.993089 591.222727,292.021149 573.986641,292.02115 Z" id="Shape" fill="#F97C21"></path>
            <path d="M291.943094,509.844561 C291.943094,518.462985 298.929707,525.449597 307.548131,525.449597 C316.166554,525.449597 323.153167,518.462985 323.153167,509.844561 C323.153167,501.226137 316.166554,494.239525 307.54813,494.239525 C298.929707,494.239525 291.943094,501.226137 291.943094,509.844561 L291.943094,509.844561 Z" id="Shape" fill="#000000"></path>
            <path d="M442.794167,509.844561 C442.794167,518.462985 449.78078,525.449597 458.399203,525.449597 C467.017627,525.449597 474.00424,518.462985 474.00424,509.844561 C474.00424,501.226137 467.017627,494.239525 458.399203,494.239525 C449.78078,494.239525 442.794167,501.226137 442.794167,509.844561 Z" id="Shape" fill="#000000"></path>
            <path d="M416.490553,533.989825 C416.746524,531.680964 414.839026,529.789847 412.512759,529.789848 L345.204585,529.789848 C342.883437,529.789848 340.977986,531.680964 341.229862,533.989825 C343.319612,552.922489 359.369014,567.651079 378.862767,567.651079 C398.354472,567.650055 414.403874,552.922489 416.490553,533.989825 Z" id="Shape" fill="#000000"></path>
            <path d="M391.069528,556.178444 C391.069528,559.592078 385.379797,562.366807 378.363111,562.366807 C371.343353,562.366807 365.651575,559.593102 365.651575,556.178444 C365.651575,552.760715 371.343354,549.990081 378.363111,549.990081 C385.379797,549.991105 391.069528,552.760715 391.069528,556.178444 Z" id="Shape" fill="#FD631F"></path>
            <path d="M785.48449,166.294175 C775.130962,166.294175 766.707457,157.874766 766.707457,147.527381 C766.707457,137.1759 775.130962,128.754444 785.48449,128.754444 C795.833923,128.754444 804.25538,137.175901 804.255379,147.527381 C804.256403,157.874766 795.833922,166.294175 785.48449,166.294175 Z M785.48449,133.165341 C777.562689,133.165341 771.118355,139.608651 771.118355,147.527381 C771.118355,155.443038 777.562689,161.883277 785.48449,161.883277 C793.402195,161.883277 799.844482,155.443038 799.844481,147.527381 C799.844481,139.608652 793.402195,133.165342 785.48449,133.165341 Z M706.000272,138.62777 C703.935786,138.627205 702.262173,136.954049 702.261043,134.889564 L702.261043,131.143168 C702.261043,128.89062 700.436479,127.067081 698.176764,127.06708 C695.924872,127.066514 694.098735,128.891276 694.097605,131.143168 L694.097605,134.889564 C694.097605,135.881175 693.703619,136.832158 693.002348,137.533237 C692.301077,138.234316 691.349987,138.628042 690.358376,138.62777 L686.619147,138.62777 C685.145474,138.604416 683.773638,139.377239 683.029978,140.649728 C682.286317,141.922217 682.286317,143.49676 683.029978,144.769249 C683.773638,146.041738 685.145474,146.814561 686.619147,146.791207 L690.358376,146.791207 C691.350081,146.791207 692.301169,147.18516 693.002411,147.886402 C693.703652,148.587644 694.097605,149.538732 694.097605,150.530437 L694.097605,154.269666 C694.097605,156.522214 695.926264,158.348825 698.176764,158.348825 C699.259511,158.350184 700.298377,157.921017 701.064475,157.155879 C701.830574,156.390741 702.261044,155.352414 702.261043,154.269666 L702.261043,150.530437 C702.261608,148.465552 703.935387,146.791772 706.000272,146.791207 L709.743597,146.791207 C711.997848,146.788947 713.82424,144.961181 713.824804,142.706929 C713.824804,140.454381 711.992049,138.62777 709.743597,138.62777 L706.000272,138.62777 L706.000272,138.62777 Z" id="Shape" fill="#FD5C1E"></path>
            <path d="M865.395668,71.936999 C863.738058,71.9380863 862.148026,71.2800847 860.975918,70.1079768 C859.80381,68.9358689 859.145809,67.3458375 859.146896,65.688227 L859.146896,59.436383 C859.14407,55.6710141 856.091142,52.6199191 852.325772,52.619355 C848.561767,52.621614 845.511003,55.6723783 845.508743,59.436383 L845.508743,65.688227 C845.509015,67.3459426 844.85047,68.9358106 843.678096,70.1078005 C842.505722,71.2797904 840.915638,71.9378141 839.257923,71.936999 L833.005055,71.936999 C831.196169,71.9375419 829.461615,72.6567803 828.183115,73.9364322 C826.904616,75.2160841 826.18694,76.9512848 826.188027,78.760171 C826.188027,80.5679711 826.906313,82.3016984 828.184812,83.5798141 C829.463312,84.8579299 831.197255,85.575695 833.005055,85.575152 L839.257923,85.575152 C840.915816,85.5743367 842.506055,86.232501 843.678458,87.4047124 C844.850862,88.5769238 845.509287,90.167055 845.508743,91.824948 L845.508743,98.080887 C845.511569,101.843829 848.562829,104.892798 852.325772,104.892796 C856.09008,104.894494 859.143505,101.845194 859.146896,98.080887 L859.146896,91.824948 C859.145537,90.1671602 859.803418,88.5768654 860.975556,87.404536 C862.147693,86.2322065 863.73788,85.5740643 865.395668,85.575152 L871.646488,85.575152 C873.454433,85.5767839 875.188798,84.859303 876.467209,83.5808922 C877.74562,82.3024814 878.4631,80.568116 878.461468,78.760171 C878.463914,76.9512239 877.746957,75.2155438 876.468606,73.9356557 C875.190254,72.6557677 873.455437,71.9367258 871.646488,71.936999 L865.395668,71.936999 L865.395668,71.936999 Z" id="Shape" fill="#FED62C"></path>
            <path d="M610.085766,189.311117 C609.202263,189.310842 608.354986,189.662251 607.731024,190.28775 C607.107062,190.91325 606.757738,191.761388 606.760187,192.644888 L606.751996,207.293615 C606.751996,209.128418 608.248916,210.619195 610.092934,210.62329 C611.929195,210.617663 613.416063,209.129879 613.420561,207.293615 L613.420561,192.644888 C613.419996,190.803531 611.927123,189.311117 610.085766,189.311117 L610.085766,189.311117 Z M610.085766,239.926888 C608.246874,239.928577 606.755945,241.417674 606.751996,243.256563 L606.760187,257.909386 C606.760187,259.748315 608.250933,261.239061 610.089862,261.239061 C611.928791,261.239061 613.419537,259.748315 613.419537,257.909386 L613.419537,243.256563 C613.418994,242.372935 613.067453,241.525714 612.44225,240.901279 C611.817047,240.276844 610.969394,239.926345 610.085766,239.926888 L610.085766,239.926888 Z M595.019294,214.91337 C595.64306,215.539055 596.490221,215.890723 597.373718,215.890723 C598.257215,215.890723 599.104376,215.539055 599.728142,214.91337 C600.353828,214.289604 600.705496,213.442442 600.705496,212.558946 C600.705496,211.675449 600.353828,210.828287 599.728142,210.204521 L589.367447,199.844849 C588.06005,198.588345 585.987721,198.608573 584.7051,199.890358 C583.422479,201.172142 583.400899,203.244458 584.65655,204.552674 L595.019294,214.91337 L595.019294,214.91337 Z M625.152239,235.636809 C624.529968,235.011051 623.683892,234.659209 622.801399,234.659209 C621.918905,234.659209 621.072829,235.011051 620.450558,235.636809 C619.825628,236.260977 619.474481,237.107987 619.474481,237.991233 C619.474481,238.874479 619.825628,239.721489 620.450558,240.345657 L630.813301,250.705329 C632.123392,251.947804 634.185034,251.919718 635.460792,250.642015 C636.736551,249.364313 636.761498,247.302631 635.51703,245.994433 L625.152239,235.636809 Z M595.432944,225.276113 C595.43376,224.393321 595.083433,223.546452 594.459205,222.922224 C593.834977,222.297996 592.988108,221.94767 592.105316,221.948486 L577.454541,221.948486 C576.571124,221.946854 575.72336,222.296787 575.098304,222.921074 C574.473248,223.545361 574.122273,224.392694 574.122818,225.276113 C574.124513,227.115139 575.615515,228.605224 577.454541,228.605788 L592.105316,228.605788 C592.988379,228.606332 593.835401,228.255638 594.45963,227.631026 C595.083858,227.006413 595.434032,226.159176 595.432944,225.276113 L595.432944,225.276113 Z M642.719039,221.948486 L628.066217,221.948486 C627.183592,221.948757 626.337254,222.299779 625.713528,222.924273 C625.089802,223.548767 624.739822,224.395536 624.740637,225.278161 C624.73982,226.161308 625.090427,227.008488 625.715099,227.632775 C626.33977,228.257062 627.187166,228.607148 628.070312,228.605788 L642.719039,228.605788 C643.602479,228.606331 644.449921,228.255767 645.074799,227.631273 C645.699677,227.006779 646.050762,226.159553 646.050762,225.276113 C646.053499,224.392025 645.703226,223.543416 645.077694,222.918653 C644.452162,222.29389 643.603123,221.944661 642.719039,221.948486 L642.719039,221.948486 Z M595.019294,235.636809 L584.65655,245.994433 C583.357142,247.295919 583.357142,249.403843 584.65655,250.705329 C585.2808,251.330887 586.12825,251.682432 587.011998,251.682432 C587.895747,251.682432 588.743197,251.330887 589.367447,250.705329 L599.728142,240.345657 C600.353827,239.721891 600.705495,238.87473 600.705495,237.991233 C600.705495,237.107736 600.353827,236.260575 599.728142,235.636809 C599.104376,235.011124 598.257215,234.659456 597.373718,234.659456 C596.490221,234.659456 595.64306,235.011124 595.019294,235.636809 L595.019294,235.636809 Z M625.158382,214.91337 L635.516006,204.552674 C636.814498,203.252008 636.814498,201.145515 635.516006,199.844849 C634.893384,199.218968 634.046969,198.867076 633.164141,198.867076 C632.281314,198.867076 631.434899,199.218968 630.812277,199.844849 L620.449534,210.204521 C619.824603,210.828689 619.473457,211.6757 619.473457,212.558945 C619.473457,213.442191 619.824603,214.289202 620.449534,214.91337 C621.072762,215.540066 621.920125,215.892433 622.803958,215.892433 C623.687791,215.892433 624.535154,215.540066 625.158382,214.91337 L625.158382,214.91337 Z" id="Shape" fill="#FED62C"></path>
            <path d="M791.311421,692.559969 L838.453149,692.559969" id="Shape" fill="#FEDEBB"></path>
            <path d="M716.535028,692.559969 L744.494265,692.559969" id="Shape" fill="#FEDEBB"></path>
            <path d="M107.285376,692.559969 L667.118227,692.559969" id="Shape" fill="#FEDEBB"></path>
            <path d="M697.401683,278.980946 C697.402227,280.247085 696.899496,281.461522 696.004201,282.356817 C695.108905,283.252112 693.894469,283.754843 692.62833,283.7543 C689.993493,283.7543 687.857536,281.618343 687.857536,278.983506 C687.857536,276.348669 689.993493,274.212712 692.62833,274.212712 C693.893748,274.211625 695.107724,274.713479 696.00299,275.607785 C696.898256,276.50209 697.401412,277.715528 697.401683,278.980946 Z" id="Shape" fill="#FD5C1E"></path>
            <path d="M748.020526,223.87851 C748.047184,225.830051 747.021255,227.644846 745.335411,228.628287 C743.649568,229.611728 741.564859,229.611531 739.879202,228.627771 C738.193545,227.644011 737.167959,225.829022 737.194986,223.877486 C737.235984,220.917131 739.647622,218.538885 742.608261,218.539165 C745.5689,218.539445 747.980088,220.918147 748.020526,223.87851 L748.020526,223.87851 Z M657.669813,50.135409 C657.669248,54.6236913 654.031517,58.2623386 649.543235,58.264034 C645.089805,58.2140227 641.505886,54.5896312 641.505886,50.1359205 C641.505886,45.6822098 645.089805,42.0578183 649.543235,42.007807 C654.026829,42.007807 657.669813,45.650791 657.669813,50.135409 L657.669813,50.135409 Z" id="Shape" fill="#FDD72C"></path>
            <path d="M733.231526,53.650407 C721.646264,53.650407 712.220375,44.224519 712.220375,32.64028 C712.220375,21.050922 721.646263,11.62401 733.231526,11.62401 C744.816788,11.62401 754.244725,21.051946 754.244725,32.64028 C754.244725,44.225542 744.817813,53.650407 733.231526,53.650407 Z M733.231526,18.241381 C725.294367,18.241381 718.836722,24.701074 718.836722,32.641304 C718.836722,40.577439 725.294367,47.035084 733.231526,47.035084 C741.170733,47.035084 747.628378,40.577439 747.628378,32.641304 C747.628378,24.700049 741.170733,18.241381 733.231526,18.241381 Z" id="Shape" fill="#2BA9FC"></path>
            <path d="M558.381605,702.485514 L189.059001,702.485514 C157.772137,702.485514 132.317324,677.030701 132.317324,645.743837 L132.317324,338.835234 C132.317324,307.54837 157.772137,282.095605 189.059001,282.095605 L558.381605,282.095605 C589.668469,282.095605 615.121234,307.54837 615.121234,338.835234 L615.121234,470.172077 C615.121234,475.653959 610.677572,480.097621 605.19569,480.097621 C599.713808,480.097621 595.270146,475.653959 595.270146,470.172077 L595.270146,338.835234 C595.270146,318.493704 578.722111,301.94567 558.380581,301.94567 L189.059001,301.94567 C168.716447,301.94567 152.167389,318.493705 152.167389,338.835234 L152.167389,645.743837 C152.167389,666.085367 168.716448,682.635449 189.059001,682.635449 L558.381605,682.635449 C578.723135,682.635449 595.271169,666.085367 595.27117,645.743837 L595.27117,600.2178 C595.27117,594.735918 599.714832,590.292256 605.196714,590.292255 C610.678596,590.292254 615.122258,594.735917 615.122258,600.2178 L615.122258,645.743837 C615.121234,677.030701 589.669493,702.485514 558.381605,702.485514 L558.381605,702.485514 Z" id="Shape" fill="#000000"></path>
            <path d="M605.196714,568.526501 C599.714987,568.526501 595.27117,564.082684 595.27117,558.600957 L595.27117,513.08823 C595.27117,507.606348 599.714832,503.162686 605.196714,503.162686 C610.678596,503.162686 615.122258,507.606348 615.122258,513.08823 L615.122258,558.601981 C615.121234,564.083863 610.678596,568.526501 605.196714,568.526501 L605.196714,568.526501 Z" id="Shape" fill="#000000"></path>
        </g>
    </g>
</svg>