<?xml version="1.0" standalone="no"?><!DOCTYPE svg PUBLIC "-//W3C//DTD SVG 1.1//EN" "http://www.w3.org/Graphics/SVG/1.1/DTD/svg11.dtd"><svg t="1554278807385" class="icon" style="" viewBox="0 0 1024 1024" version="1.1" xmlns="http://www.w3.org/2000/svg" p-id="2965" xmlns:xlink="http://www.w3.org/1999/xlink" width="200" height="200"><defs><style type="text/css"></style></defs><path d="M550.4 527.36h-307.2c-15.36 0-25.6 10.24-25.6 25.6s10.24 25.6 25.6 25.6h307.2c15.36 0 25.6-10.24 25.6-25.6s-10.24-25.6-25.6-25.6z m0 102.4h-307.2c-15.36 0-25.6 10.24-25.6 25.6s10.24 25.6 25.6 25.6h307.2c15.36 0 25.6-10.24 25.6-25.6s-10.24-25.6-25.6-25.6z m281.6-460.8h-614.4c-56.32 0-102.4 46.08-102.4 102.4v409.6c0 56.32 46.08 102.4 102.4 102.4h614.4c56.32 0 102.4-46.08 102.4-102.4v-409.6c0-56.32-46.08-102.4-102.4-102.4z m51.2 512c0 28.16-23.04 51.2-51.2 51.2h-614.4c-28.16 0-51.2-23.04-51.2-51.2v-409.6c0-28.16 23.04-51.2 51.2-51.2h614.4c28.16 0 51.2 23.04 51.2 51.2v409.6z m-102.4-409.6h-102.4c-28.16 0-51.2 23.04-51.2 51.2v102.4c0 28.16 23.04 51.2 51.2 51.2h102.4c28.16 0 51.2-23.04 51.2-51.2v-102.4c0-28.16-23.04-51.2-51.2-51.2z m0 128c0 15.36-10.24 25.6-25.6 25.6h-51.2c-15.36 0-25.6-10.24-25.6-25.6v-51.2c0-15.36 10.24-25.6 25.6-25.6h51.2c15.36 0 25.6 10.24 25.6 25.6v51.2z" p-id="2966"></path></svg>