<?xml version="1.0" standalone="no"?><!DOCTYPE svg PUBLIC "-//W3C//DTD SVG 1.1//EN" "http://www.w3.org/Graphics/SVG/1.1/DTD/svg11.dtd"><svg t="1554948643638" class="icon" style="" viewBox="0 0 1024 1024" version="1.1" xmlns="http://www.w3.org/2000/svg" p-id="915" xmlns:xlink="http://www.w3.org/1999/xlink" width="200" height="200"><defs><style type="text/css"></style></defs><path d="M329.299 515c0 42.524-34.45 76.975-76.975 76.975-42.504 0-76.976-34.45-76.976-76.975 0-42.526 34.472-76.977 76.976-76.977 42.525 0 76.975 34.451 76.975 76.977" fill="#FC607B" p-id="916"></path><path d="M219.359 640.839C149.967 640.839 93.52 584.392 93.52 515c0-69.393 56.447-125.84 125.839-125.84S345.198 445.607 345.198 515c0 69.392-56.447 125.839-125.839 125.839z m0-195.751c-38.546 0-69.911 31.351-69.911 69.912 0 38.56 31.365 69.91 69.911 69.91S289.27 553.56 289.27 515c0-38.561-31.365-69.912-69.911-69.912z" fill="#213847" p-id="917"></path><path d="M788.886 256.33c0 54.071-43.804 97.875-97.874 97.875-54.044 0-97.875-43.803-97.875-97.875s43.831-97.875 97.875-97.875c54.07 0 97.874 43.803 97.874 97.875" fill="#FC607B" p-id="918"></path><path d="M691.012 382.169c-69.393 0-125.84-56.447-125.84-125.839s56.447-125.839 125.84-125.839c69.392 0 125.839 56.447 125.839 125.839s-56.448 125.839-125.839 125.839z m0-195.75c-38.546 0-69.912 31.351-69.912 69.911s31.366 69.911 69.912 69.911c38.547 0 69.91-31.351 69.91-69.911s-31.363-69.911-69.91-69.911z" fill="#213847" p-id="919"></path><path d="M788.886 773.67c0 54.072-43.804 97.876-97.874 97.876-54.044 0-97.875-43.804-97.875-97.876 0-54.071 43.831-97.875 97.875-97.875 54.07 0 97.874 43.804 97.874 97.875" fill="#FC607B" p-id="920"></path><path d="M691.012 899.509c-69.393 0-125.84-56.447-125.84-125.839 0-69.393 56.447-125.84 125.84-125.84 69.392 0 125.839 56.447 125.839 125.84 0 69.392-56.448 125.839-125.839 125.839z m0-195.748c-38.546 0-69.912 31.349-69.912 69.909s31.366 69.91 69.912 69.91c38.547 0 69.91-31.351 69.91-69.91 0-38.561-31.363-69.909-69.91-69.909z" fill="#213847" p-id="921"></path><path d="M596.863 769.027a27.944 27.944 0 0 1-17.49-6.146L309.997 546.624a28.005 28.005 0 0 1-10.459-22.367 28.023 28.023 0 0 1 11.347-21.955l274.973-203.207c12.427-9.176 29.932-6.5 39.106 5.871 9.177 12.426 6.555 29.932-5.871 39.134l-245.78 181.631 241.07 193.511c12.043 9.695 13.969 27.282 4.301 39.325-5.531 6.883-13.642 10.46-21.821 10.46z" fill="#213847" p-id="922"></path></svg>