<?xml version="1.0" encoding="UTF-8"?>
<svg width="129px" height="107px" viewBox="0 0 129 107" version="1.1" xmlns="http://www.w3.org/2000/svg" xmlns:xlink="http://www.w3.org/1999/xlink">
    <!-- Generator: Sketch 44.1 (41455) - http://www.bohemiancoding.com/sketch -->
    <title>speak</title>
    <desc>Created with Sketch.</desc>
    <defs></defs>
    <g id="Page-1" stroke="none" stroke-width="1" fill="none" fill-rule="evenodd">
        <g id="129056-ORJ5J8-534" transform="translate(-47.000000, -227.000000)">
            <g id="speak" transform="translate(47.000000, 227.000000)">
                <path d="M75.324,93.537 C75.793,91.353 73.626,90.195 71.766,90.909 L71.608,90.988 C71.531,91.122 71.458,91.239 71.421,91.318 C71.025,92.143 70.772,93.112 71.165,93.99 C71.967,95.781 74.917,95.437 75.324,93.537" id="Fill-43" fill="#C82863"></path>
                <path d="M114.533,34.586 C114.224,34.429 114.375,33.941 114.706,33.945 C116.128,33.965 117.486,34.246 118.763,34.723 C118.097,31.453 117.519,28.34 115.799,25.241 C113.703,21.463 110.672,18.202 106.96,15.97 C98.847,11.093 90.252,12.195 81.883,15.346 C82.195,16.843 82.297,18.405 82.146,20.012 C82.103,20.478 81.457,20.603 81.313,20.125 C78.581,11.107 72.905,3.447 62.618,3.146 C57.782,3.005 53.134,4.776 49.596,8.069 C46.574,10.882 45.316,14.362 43.452,17.904 C43.07,18.631 41.986,18.258 41.966,17.501 C41.916,15.662 42.246,13.926 42.865,12.31 C37.18,11.677 31.905,10.585 26.736,14.35 C21.198,18.385 20.979,24.529 23.242,30.452 C23.46,31.023 22.691,31.311 22.312,30.993 C20.224,29.241 19.22,26.928 19.027,24.491 C9.29,27.661 1.874,34.504 2.548,45.785 C3.195,56.618 12.907,70.045 25.09,66.728 C25.57,66.597 25.96,66.746 26.222,67.022 C26.535,67.206 26.78,67.521 26.828,67.968 C28.438,82.907 46.02,89.399 56.661,78.593 C57.42,77.822 58.544,78.277 58.892,79.182 C62.21,87.814 72.167,81.431 76.196,77.419 C76.737,76.88 77.553,76.937 78.097,77.419 C80.013,79.112 82.308,80.033 84.89,79.866 C86.879,79.737 88.447,77.997 90.129,77.849 C91.421,77.736 92.512,78.615 93.712,79.062 C95.613,79.769 97.542,80.266 99.549,80.551 C108.959,81.886 120.2,75.919 118.408,65.418 C117.401,65.623 116.345,65.623 115.247,65.349 L115.205,65.19 C116.145,64.205 117.237,63.436 118.34,62.681 C118.468,62.547 118.624,62.442 118.796,62.367 C120.008,61.539 121.213,60.693 122.228,59.563 C124.681,56.833 126.168,53.231 126.126,49.546 C126.045,42.363 120.414,37.592 114.533,34.586" id="Fill-44" fill="#FFFFFF"></path>
                <path d="M83.532,101.444 C82.963,100.725 82.093,100.706 81.445,101.107 C81.137,102.044 80.735,103.393 81.963,103.78 C83.371,104.223 84.403,102.546 83.532,101.444" id="Fill-45" fill="#C82863"></path>
                <path d="M75.324,93.537 C75.793,91.353 73.626,90.195 71.766,90.909 L71.608,90.988 C71.531,91.122 71.458,91.239 71.421,91.318 C71.025,92.143 70.772,93.112 71.165,93.99 C71.967,95.781 74.917,95.437 75.324,93.537" id="Fill-46" fill="#FFFFFF"></path>
                <path d="M83.532,101.444 C82.963,100.725 82.093,100.706 81.445,101.107 C81.137,102.044 80.735,103.393 81.963,103.78 C83.371,104.223 84.403,102.546 83.532,101.444" id="Fill-47" fill="#FFFFFF"></path>
                <path d="M122.228,59.563 C121.213,60.693 120.008,61.539 118.796,62.367 C118.624,62.442 118.468,62.547 118.34,62.681 C117.237,63.436 116.145,64.205 115.205,65.19 L115.247,65.349 C116.345,65.623 117.401,65.623 118.408,65.418 C120.2,75.919 108.959,81.886 99.549,80.551 C97.542,80.266 95.613,79.769 93.712,79.062 C92.512,78.615 91.421,77.736 90.129,77.849 C88.447,77.997 86.879,79.737 84.89,79.866 C82.308,80.033 80.013,79.112 78.097,77.419 C77.553,76.937 76.737,76.88 76.196,77.419 C72.167,81.431 62.21,87.814 58.892,79.182 C58.544,78.277 57.42,77.822 56.661,78.593 C46.02,89.399 28.438,82.907 26.828,67.968 C26.78,67.521 26.535,67.206 26.222,67.022 C25.96,66.746 25.57,66.597 25.09,66.728 C12.907,70.045 3.195,56.618 2.548,45.785 C1.874,34.504 9.29,27.661 19.027,24.491 C19.22,26.928 20.224,29.241 22.312,30.993 C22.691,31.311 23.46,31.023 23.242,30.452 C20.979,24.529 21.198,18.385 26.736,14.35 C31.905,10.585 37.18,11.677 42.865,12.31 C42.246,13.926 41.916,15.662 41.966,17.501 C41.986,18.258 43.07,18.631 43.452,17.904 C45.316,14.362 46.574,10.882 49.596,8.069 C53.134,4.776 57.782,3.005 62.618,3.146 C72.905,3.447 78.581,11.107 81.313,20.125 C81.457,20.603 82.103,20.478 82.146,20.012 C82.297,18.405 82.195,16.843 81.883,15.346 C90.252,12.195 98.847,11.093 106.96,15.97 C110.672,18.202 113.703,21.463 115.799,25.241 C117.519,28.34 118.097,31.453 118.763,34.723 C117.486,34.246 116.128,33.965 114.706,33.945 C114.375,33.941 114.224,34.429 114.533,34.586 C120.414,37.592 126.045,42.363 126.126,49.546 C126.168,53.231 124.681,56.833 122.228,59.563 M121.379,36.05 C122.066,27.509 115.698,18.469 108.842,14.101 C101.031,9.126 89.324,8.348 81.437,13.674 C79.006,6.161 71.216,0.649 63.344,0.16 C56.096,-0.289 47.291,3.868 43.658,10.586 C37.428,7.07 28.458,8.721 23.408,13.549 C21.006,15.846 19.346,19.205 19.047,22.547 C6.691,22.131 -1.171,36.973 0.314,47.866 C1.87,59.271 12.147,71.827 24.596,69.323 C26.632,85.095 45.309,91.802 57.229,81.689 C58.856,84.284 61.542,85.857 64.804,86.085 C69.713,86.429 73.849,83.39 77.241,80.152 C80.702,82.679 84.552,82.96 88.772,81.691 C91.327,80.923 91.886,81.349 94.471,82.16 C97.524,83.118 100.795,83.648 104.001,83.468 C114.064,82.903 122.986,74.752 120.92,64.428 C125.674,61.611 128.786,54.195 128.732,49.546 C128.671,44.32 125.771,38.924 121.379,36.05" id="Fill-48" fill="#332015"></path>
                <path d="M75.324,93.537 C74.917,95.437 71.967,95.781 71.165,93.99 C70.772,93.112 71.025,92.143 71.421,91.318 C71.458,91.239 71.531,91.122 71.608,90.988 L71.766,90.909 C73.626,90.195 75.793,91.353 75.324,93.537 Z M75.723,96.608 C77.907,95.149 78.114,91.864 76.414,89.947 C74.649,87.956 71.596,88.22 70.004,90.245 C69.888,90.392 69.788,90.555 69.694,90.724 C69.547,90.912 69.423,91.102 69.339,91.269 C68.788,92.362 68.749,93.687 69.212,94.814 C70.241,97.32 73.538,98.068 75.723,96.608 L75.723,96.608 Z" id="Fill-49" fill="#332015"></path>
                <path d="M83.532,101.444 C84.403,102.546 83.371,104.223 81.963,103.78 C80.735,103.393 81.137,102.044 81.445,101.107 C82.093,100.706 82.963,100.725 83.532,101.444 Z M83.387,105.56 L83.5,105.327 C85.181,104.681 86.227,102.643 85.201,100.849 C83.742,98.297 80.107,98.712 79.105,101.423 C78.637,102.69 78.976,104.078 79.932,105.024 C80.767,105.85 82.432,106.597 83.387,105.56 L83.387,105.56 Z" id="Fill-50" fill="#332015"></path>
                <path d="M44.211,83.964 C44.21,83.964 44.208,83.964 44.206,83.964 C35.865,83.962 27.914,77.813 26.834,68.021 C26.832,68.003 26.83,67.986 26.828,67.968 C26.78,67.521 26.535,67.206 26.222,67.022 C26.22,67.02 26.217,67.017 26.215,67.015 C26.214,67.013 26.212,67.012 26.211,67.01 C26.209,67.009 26.207,67.007 26.206,67.005 C26.013,66.81 25.754,66.682 25.443,66.68 C25.44,66.68 25.436,66.68 25.433,66.68 C25.432,66.68 25.431,66.68 25.43,66.68 C25.336,66.68 25.236,66.692 25.132,66.717 C25.118,66.72 25.104,66.724 25.09,66.728 C25.07,66.733 25.05,66.738 25.03,66.744 C23.766,67.082 22.529,67.241 21.325,67.241 L21.324,67.241 C21.323,67.241 21.322,67.241 21.32,67.241 C10.995,67.237 3.183,55.558 2.554,45.89 C2.554,45.881 2.553,45.872 2.552,45.862 C2.551,45.836 2.549,45.811 2.548,45.785 C2.547,45.771 2.546,45.756 2.545,45.742 C2.545,45.74 2.545,45.738 2.545,45.736 C2.432,43.772 2.577,41.949 2.924,40.25 C3.296,42.75 3.828,45.216 4.653,47.606 C6.501,52.953 9.943,57.96 14.961,60.573 C17.119,61.696 19.587,62.287 22.029,62.287 C25.263,62.286 28.449,61.25 30.799,59.043 C29.798,65.558 33.968,72.492 40.192,74.662 C41.609,75.156 43.095,75.39 44.585,75.39 C49.642,75.39 54.737,72.69 57.259,68.268 C58.849,72.391 62.083,76.169 66.4,77.111 C66.954,77.231 67.521,77.289 68.089,77.289 C71.959,77.289 75.914,74.609 76.256,70.772 C77.69,73.467 80.483,75.392 83.511,75.775 C83.892,75.823 84.274,75.847 84.657,75.847 C87.321,75.846 89.982,74.705 91.782,72.735 C92.585,71.858 93.351,70.754 94.529,70.589 C94.63,70.574 94.731,70.568 94.831,70.568 C95.75,70.568 96.609,71.133 97.452,71.554 C98.737,72.196 100.169,72.51 101.603,72.51 C103.65,72.51 105.701,71.87 107.332,70.631 C110.107,68.523 111.535,64.781 110.87,61.36 C115.925,60.04 120.241,56.16 122.09,51.273 C123.416,47.768 123.441,43.813 122.276,40.255 C124.526,42.739 126.048,45.761 126.124,49.415 L126.124,49.416 C126.124,49.423 126.125,49.43 126.125,49.437 C126.125,49.444 126.125,49.45 126.125,49.456 C126.125,49.457 126.125,49.458 126.125,49.46 C126.125,49.465 126.125,49.471 126.125,49.476 C126.125,49.478 126.126,49.48 126.126,49.481 C126.126,49.486 126.126,49.491 126.126,49.496 C126.126,49.498 126.126,49.501 126.126,49.503 C126.126,49.508 126.126,49.513 126.126,49.518 C126.126,49.52 126.126,49.522 126.126,49.525 C126.126,49.532 126.126,49.539 126.126,49.546 C126.127,49.596 126.127,49.647 126.127,49.697 C126.127,53.33 124.647,56.87 122.228,59.563 C121.213,60.693 120.008,61.539 118.796,62.367 C118.624,62.442 118.468,62.547 118.34,62.681 C117.237,63.436 116.145,64.205 115.205,65.19 L115.247,65.349 C115.834,65.496 116.409,65.564 116.971,65.564 C116.973,65.564 116.974,65.564 116.976,65.564 C116.977,65.564 116.978,65.564 116.98,65.564 C117.438,65.564 117.887,65.519 118.327,65.434 C118.346,65.43 118.366,65.426 118.386,65.422 C118.393,65.421 118.4,65.419 118.408,65.418 C118.41,65.431 118.412,65.445 118.414,65.458 C120.007,74.955 110.932,80.732 102.22,80.736 C102.217,80.736 102.214,80.736 102.211,80.736 L102.21,80.736 C101.315,80.736 100.424,80.675 99.549,80.551 C97.542,80.266 95.613,79.769 93.712,79.062 C93.699,79.057 93.687,79.052 93.675,79.048 C93.666,79.044 93.657,79.041 93.649,79.038 C93.646,79.037 93.643,79.035 93.64,79.034 C93.637,79.033 93.633,79.032 93.629,79.03 C93.61,79.023 93.59,79.015 93.571,79.007 C93.568,79.006 93.565,79.005 93.562,79.004 C93.459,78.962 93.357,78.918 93.256,78.872 C92.301,78.439 91.393,77.842 90.365,77.839 C90.362,77.839 90.36,77.839 90.358,77.839 C90.357,77.839 90.357,77.839 90.357,77.839 C90.289,77.839 90.22,77.842 90.151,77.847 C90.144,77.848 90.136,77.849 90.129,77.849 C88.447,77.997 86.879,79.737 84.89,79.866 C84.69,79.879 84.491,79.885 84.294,79.885 C84.292,79.885 84.29,79.885 84.288,79.885 C82.01,79.884 79.969,79.025 78.232,77.536 C78.22,77.526 78.209,77.516 78.197,77.506 C78.182,77.493 78.167,77.48 78.152,77.467 C78.144,77.46 78.137,77.454 78.13,77.448 C78.119,77.438 78.108,77.428 78.097,77.419 C78.088,77.41 78.078,77.402 78.069,77.394 C77.795,77.163 77.457,77.037 77.121,77.036 C77.12,77.036 77.118,77.036 77.117,77.036 C77.116,77.036 77.114,77.036 77.113,77.036 C76.799,77.037 76.486,77.148 76.23,77.386 C76.222,77.394 76.214,77.402 76.206,77.409 C76.203,77.413 76.2,77.416 76.196,77.419 C76.191,77.424 76.186,77.429 76.181,77.434 C76.167,77.448 76.152,77.463 76.138,77.477 C76.131,77.483 76.124,77.491 76.117,77.497 C76.105,77.509 76.093,77.521 76.081,77.533 C73.491,80.07 68.626,83.471 64.566,83.478 C64.562,83.478 64.558,83.478 64.554,83.478 C64.553,83.478 64.552,83.478 64.551,83.478 C62.189,83.477 60.1,82.325 58.892,79.182 C58.89,79.178 58.889,79.175 58.888,79.171 C58.661,78.594 58.117,78.202 57.557,78.201 C57.556,78.201 57.555,78.201 57.554,78.201 C57.552,78.201 57.551,78.201 57.55,78.201 C57.244,78.202 56.933,78.319 56.667,78.586 C56.665,78.589 56.663,78.591 56.661,78.593 C56.618,78.636 56.576,78.679 56.533,78.721 C52.916,82.33 48.513,83.963 44.214,83.964 C44.213,83.964 44.212,83.964 44.211,83.964" id="Fill-51" fill="#E7E2DA"></path>
                <path d="M44.211,83.964 C44.21,83.964 44.208,83.964 44.206,83.964 C44.208,83.964 44.21,83.964 44.211,83.964 M44.214,83.964 L44.214,83.964 C48.513,83.963 52.916,82.33 56.533,78.721 C52.915,82.33 48.513,83.964 44.214,83.964 M64.554,83.478 C64.553,83.478 64.552,83.478 64.551,83.478 C64.552,83.478 64.553,83.478 64.554,83.478 M64.566,83.478 L64.566,83.478 C68.626,83.471 73.491,80.07 76.081,77.533 C73.491,80.07 68.627,83.472 64.566,83.478 M102.211,80.736 L102.21,80.736 L102.211,80.736 M102.22,80.736 L102.22,80.736 C110.932,80.732 120.007,74.955 118.414,65.458 C120.007,74.956 110.932,80.733 102.22,80.736 M99.549,80.551 L99.549,80.551 C97.542,80.266 95.613,79.769 93.712,79.062 C93.699,79.057 93.687,79.052 93.675,79.048 C93.687,79.052 93.699,79.057 93.712,79.062 C95.613,79.769 97.542,80.266 99.549,80.551 M84.294,79.885 C84.292,79.885 84.29,79.885 84.288,79.885 C84.29,79.885 84.292,79.885 84.294,79.885 L84.294,79.885 C84.491,79.885 84.69,79.879 84.89,79.866 C86.879,79.737 88.447,77.997 90.129,77.849 C88.447,77.997 86.879,79.737 84.89,79.866 C84.69,79.879 84.491,79.885 84.294,79.885 M58.892,79.182 L58.892,79.182 C58.89,79.178 58.889,79.175 58.888,79.171 C58.889,79.175 58.89,79.178 58.892,79.182 M93.649,79.038 C93.646,79.037 93.643,79.035 93.64,79.034 C93.643,79.035 93.646,79.037 93.649,79.038 M93.629,79.03 C93.61,79.023 93.59,79.015 93.571,79.007 C93.59,79.015 93.61,79.023 93.629,79.03 M93.562,79.004 C93.459,78.962 93.357,78.918 93.256,78.872 C93.357,78.918 93.459,78.962 93.562,79.004 M56.667,78.586 L56.667,78.586 C56.933,78.319 57.244,78.202 57.55,78.201 C57.244,78.202 56.933,78.319 56.667,78.586 M57.557,78.201 C57.556,78.201 57.555,78.201 57.554,78.201 C57.555,78.201 57.556,78.201 57.557,78.201 M90.151,77.847 L90.151,77.847 C90.22,77.842 90.289,77.839 90.357,77.839 C90.289,77.839 90.22,77.842 90.151,77.847 M90.365,77.839 C90.362,77.839 90.36,77.839 90.358,77.839 C90.36,77.839 90.362,77.839 90.365,77.839 M78.232,77.536 C78.22,77.526 78.209,77.516 78.197,77.506 C78.209,77.516 78.22,77.526 78.232,77.536 M76.117,77.497 L76.117,77.497 C76.124,77.491 76.131,77.483 76.138,77.477 C76.131,77.483 76.124,77.491 76.117,77.497 M78.152,77.467 C78.144,77.46 78.137,77.454 78.13,77.448 C78.137,77.454 78.144,77.46 78.152,77.467 M76.181,77.434 L76.181,77.434 C76.186,77.429 76.191,77.424 76.196,77.419 C76.2,77.416 76.203,77.413 76.206,77.409 C76.203,77.413 76.2,77.416 76.196,77.419 C76.191,77.424 76.186,77.429 76.181,77.434 M78.097,77.419 L78.097,77.419 C78.088,77.41 78.078,77.402 78.069,77.394 C78.078,77.402 78.088,77.41 78.097,77.419 M76.23,77.386 L76.23,77.386 C76.486,77.148 76.799,77.037 77.113,77.036 C76.799,77.037 76.486,77.148 76.23,77.386 M77.121,77.036 C77.12,77.036 77.118,77.036 77.117,77.036 C77.118,77.036 77.12,77.036 77.121,77.036 M26.834,68.021 C26.832,68.003 26.83,67.986 26.828,67.968 C26.78,67.521 26.535,67.206 26.222,67.022 C26.22,67.02 26.217,67.017 26.215,67.015 C26.217,67.017 26.22,67.02 26.222,67.022 C26.535,67.206 26.78,67.521 26.828,67.968 C26.83,67.986 26.832,68.003 26.834,68.021 M21.324,67.241 C21.323,67.241 21.322,67.241 21.32,67.241 C21.322,67.241 21.323,67.241 21.324,67.241 M21.325,67.241 L21.325,67.241 C22.529,67.241 23.766,67.082 25.03,66.744 C23.765,67.083 22.529,67.241 21.325,67.241 M26.211,67.01 C26.209,67.009 26.207,67.007 26.206,67.005 C26.207,67.007 26.209,67.009 26.211,67.01 M25.132,66.717 L25.132,66.717 C25.236,66.692 25.336,66.68 25.43,66.68 C25.336,66.68 25.236,66.692 25.132,66.717 M25.443,66.68 C25.44,66.68 25.436,66.68 25.433,66.68 C25.436,66.68 25.44,66.68 25.443,66.68 M116.976,65.564 C116.974,65.564 116.973,65.564 116.971,65.564 C116.973,65.564 116.974,65.564 116.976,65.564 M116.98,65.564 C117.438,65.564 117.887,65.519 118.327,65.434 C117.887,65.519 117.438,65.564 116.98,65.564 M115.205,65.19 L115.205,65.19 C116.145,64.205 117.237,63.436 118.34,62.681 C118.468,62.547 118.624,62.442 118.796,62.367 C120.008,61.539 121.213,60.693 122.228,59.563 C124.647,56.87 126.127,53.33 126.127,49.697 C126.127,53.33 124.647,56.87 122.228,59.563 C121.213,60.693 120.008,61.539 118.796,62.367 C118.624,62.442 118.468,62.547 118.34,62.681 C117.237,63.436 116.145,64.205 115.205,65.19 M126.126,49.525 C126.126,49.522 126.126,49.52 126.126,49.518 C126.126,49.52 126.126,49.522 126.126,49.525 M126.126,49.503 C126.126,49.501 126.126,49.498 126.126,49.496 C126.126,49.498 126.126,49.501 126.126,49.503 M126.126,49.481 C126.126,49.48 126.125,49.478 126.125,49.476 C126.125,49.478 126.126,49.48 126.126,49.481 M126.125,49.46 C126.125,49.458 126.125,49.457 126.125,49.456 C126.125,49.457 126.125,49.458 126.125,49.46 M126.124,49.416 L126.124,49.415 L126.124,49.416 M2.554,45.89 C2.554,45.881 2.553,45.872 2.552,45.862 C2.553,45.872 2.554,45.881 2.554,45.89 M2.545,45.742 C2.545,45.74 2.545,45.738 2.545,45.736 C2.545,45.738 2.545,45.74 2.545,45.742" id="Fill-52" fill="#332015"></path>
            </g>
        </g>
    </g>
</svg>