<?xml version="1.0" encoding="UTF-8"?>
<svg width="117px" height="99px" viewBox="0 0 117 99" version="1.1" xmlns="http://www.w3.org/2000/svg" xmlns:xlink="http://www.w3.org/1999/xlink">
    <!-- Generator: Sketch 44.1 (41455) - http://www.bohemiancoding.com/sketch -->
    <title>speak1</title>
    <desc>Created with Sketch.</desc>
    <defs></defs>
    <g id="Page-1" stroke="none" stroke-width="1" fill="none" fill-rule="evenodd">
        <g id="129056-ORJ5J8-534" transform="translate(-53.000000, -100.000000)">
            <g id="speak1" transform="translate(53.000000, 100.000000)">
                <path d="M25.187,72.493 C25.698,72.765 25.991,73.321 25.924,73.896 C25.505,77.529 26.324,81.511 28.231,85.109 C29.714,87.909 31.881,90.6 34.696,93.143 C33.692,88.248 34.21,82.97 36.246,78.328 C36.527,77.686 37.238,77.352 37.913,77.539 C44.418,79.366 51.296,80.293 58.356,80.293 C88.675,80.293 113.341,63.051 113.341,41.857 C113.341,20.664 88.675,3.422 58.356,3.422 C28.038,3.422 3.372,20.664 3.372,41.857 C3.372,53.972 11.323,65.138 25.187,72.493" id="Fill-7" fill="#FFFFFF"></path>
                <path d="M36.25,78.318 C36.333,78.133 36.452,77.974 36.595,77.845 C36.601,77.847 36.607,77.848 36.613,77.849 C36.465,77.978 36.335,78.129 36.25,78.318" id="Fill-8" fill="#00A5B9"></path>
                <path d="M34.696,93.143 L34.696,93.143 C34.003,92.517 33.35,91.882 32.736,91.238 C32.08,87.042 32.429,82.648 33.858,78.607 C34.07,78.006 34.636,77.623 35.252,77.623 C35.349,77.623 35.447,77.632 35.544,77.651 C35.893,77.722 36.245,77.78 36.595,77.845 C36.452,77.974 36.333,78.133 36.25,78.318 C36.249,78.321 36.248,78.325 36.246,78.328 C34.882,81.438 34.199,84.833 34.199,88.207 C34.199,89.87 34.365,91.527 34.696,93.143" id="Fill-9" fill="#E7E2DA"></path>
                <path d="M58.356,80.293 C58.332,80.293 58.307,80.293 58.283,80.292 C58.307,80.293 58.332,80.293 58.356,80.293 C88.675,80.293 113.341,63.051 113.341,41.857 C113.341,63.051 88.675,80.293 58.356,80.293 M58.259,80.292 C58.242,80.292 58.225,80.292 58.207,80.292 C58.224,80.292 58.242,80.292 58.259,80.292 M58.182,80.292 C58.16,80.292 58.138,80.292 58.117,80.292 C58.139,80.292 58.16,80.292 58.182,80.292 M58.081,80.292 C58.069,80.292 58.057,80.292 58.044,80.292 C58.056,80.292 58.069,80.292 58.081,80.292 M57.999,80.292 C57.992,80.292 57.985,80.292 57.978,80.292 C57.986,80.292 57.992,80.292 57.999,80.292 M113.341,41.822 C113.341,41.818 113.341,41.814 113.341,41.81 C113.341,41.814 113.341,41.818 113.341,41.822 M113.341,41.786 C113.341,41.782 113.341,41.778 113.341,41.774 C113.341,41.778 113.341,41.782 113.341,41.786 M113.341,41.747 C113.341,41.744 113.341,41.742 113.341,41.739 C113.341,41.742 113.341,41.744 113.341,41.747 M113.341,41.665 L113.341,41.662 C113.341,41.663 113.341,41.664 113.341,41.665 M113.34,41.627 C113.34,41.626 113.34,41.625 113.34,41.624 C113.34,41.625 113.34,41.626 113.34,41.627" id="Fill-10" fill="#00A5B9"></path>
                <path d="M58.356,80.293 C58.332,80.293 58.307,80.293 58.283,80.292 C58.275,80.292 58.267,80.292 58.259,80.292 C58.242,80.292 58.224,80.292 58.207,80.292 C58.199,80.292 58.19,80.292 58.182,80.292 C58.16,80.292 58.139,80.292 58.117,80.292 C58.105,80.292 58.093,80.292 58.081,80.292 C58.069,80.292 58.056,80.292 58.044,80.292 C58.029,80.292 58.014,80.292 57.999,80.292 C57.992,80.292 57.986,80.292 57.978,80.292 C52.899,80.268 47.917,79.76 43.101,78.786 C45.743,79.051 48.419,79.184 51.118,79.184 C53.129,79.184 55.154,79.11 57.187,78.96 C88.97,76.621 113.496,56.643 111.86,34.427 C111.808,33.716 111.728,33.012 111.624,32.314 C112.718,35.295 113.313,38.413 113.34,41.624 C113.34,41.625 113.34,41.626 113.34,41.627 C113.34,41.639 113.341,41.65 113.341,41.662 L113.341,41.665 C113.341,41.69 113.341,41.714 113.341,41.739 C113.341,41.742 113.341,41.744 113.341,41.747 C113.341,41.756 113.341,41.765 113.341,41.774 C113.341,41.778 113.341,41.782 113.341,41.786 C113.341,41.794 113.341,41.802 113.341,41.81 C113.341,41.814 113.341,41.818 113.341,41.822 C113.341,41.834 113.341,41.845 113.341,41.857 C113.341,63.051 88.675,80.293 58.356,80.293" id="Fill-11" fill="#E7E2DA"></path>
                <path d="M58.356,3.422 C88.675,3.422 113.341,20.664 113.341,41.857 C113.341,63.051 88.675,80.293 58.356,80.293 C51.296,80.293 44.418,79.366 37.913,77.539 C37.238,77.352 36.527,77.686 36.246,78.328 C34.21,82.97 33.692,88.248 34.696,93.143 C31.881,90.6 29.714,87.909 28.231,85.109 C26.324,81.511 25.505,77.529 25.924,73.896 C25.991,73.321 25.698,72.765 25.187,72.493 C11.323,65.138 3.372,53.972 3.372,41.857 C3.372,20.664 28.038,3.422 58.356,3.422 Z M23.047,74.532 C22.797,78.454 23.742,82.64 25.747,86.424 C28.007,90.689 31.658,94.685 36.603,98.301 C36.85,98.481 37.141,98.571 37.432,98.571 C37.743,98.571 38.055,98.468 38.311,98.262 C38.806,97.865 38.974,97.185 38.719,96.603 C36.556,91.661 36.442,85.756 38.367,80.575 C44.758,82.253 51.477,83.103 58.356,83.103 C90.225,83.103 116.152,64.6 116.152,41.857 C116.152,19.114 90.225,0.612 58.356,0.612 C26.488,0.612 0.562,19.114 0.562,41.857 C0.562,54.799 8.743,66.666 23.047,74.532 L23.047,74.532 Z" id="Fill-12" fill="#332015"></path>
            </g>
        </g>
    </g>
</svg>