<?xml version="1.0" encoding="UTF-8"?>
<svg width="151px" height="137px" viewBox="0 0 151 137" version="1.1" xmlns="http://www.w3.org/2000/svg" xmlns:xlink="http://www.w3.org/1999/xlink">
    <!-- Generator: Sketch 49.3 (51167) - http://www.bohemiancoding.com/sketch -->
    <title>speaker</title>
    <desc>Created with Sketch.</desc>
    <defs></defs>
    <g id="Page-1" stroke="none" stroke-width="1" fill="none" fill-rule="evenodd">
        <g id="26146-NVYAST" transform="translate(-77.000000, -588.000000)">
            <g id="speaker" transform="translate(66.000000, 578.000000)">
                <path d="M13.285,102.243 C13.24,102.019 13.195,101.79 13.152,101.555 C13.195,101.79 13.24,102.019 13.285,102.243" id="Fill-363" fill="#DD4F2D"></path>
                <path d="M13.102,101.284 C13.047,100.973 12.992,100.655 12.94,100.326 C12.992,100.655 13.047,100.973 13.102,101.284" id="Fill-364" fill="#DD4F2D"></path>
                <path d="M53.639,112.36 C54.049,112.378 54.442,112.395 54.824,112.412 C54.442,112.395 54.049,112.378 53.639,112.36" id="Fill-365" fill="#DD4F2D"></path>
                <path d="M12.182,93.824 C12.146,93.399 12.111,92.968 12.078,92.532 C12.111,92.968 12.146,93.399 12.182,93.824" id="Fill-366" fill="#DD4F2D"></path>
                <path d="M13.951,104.9 C13.897,104.731 13.844,104.554 13.792,104.372 C13.844,104.554 13.897,104.731 13.951,104.9" id="Fill-367" fill="#DD4F2D"></path>
                <path d="M15.092,107.257 C15.182,107.36 15.273,107.453 15.367,107.526 C17.122,108.891 23.033,109.921 30.036,110.685 C23.033,109.921 17.122,108.891 15.367,107.526 C15.273,107.453 15.182,107.36 15.092,107.257" id="Fill-368" fill="#DD4F2D"></path>
                <path d="M12.586,97.781 C12.543,97.429 12.501,97.072 12.461,96.707 C12.501,97.071 12.543,97.429 12.586,97.781" id="Fill-369" fill="#DD4F2D"></path>
                <path d="M14.193,105.596 C14.135,105.443 14.078,105.285 14.022,105.117 C14.078,105.285 14.135,105.443 14.193,105.596" id="Fill-370" fill="#DD4F2D"></path>
                <path d="M14.488,106.298 C14.408,106.129 14.328,105.947 14.251,105.752 C14.328,105.947 14.408,106.129 14.488,106.298" id="Fill-371" fill="#DD4F2D"></path>
                <path d="M12.74,98.965 C12.699,98.668 12.659,98.366 12.621,98.059 C12.659,98.366 12.699,98.668 12.74,98.965" id="Fill-372" fill="#DD4F2D"></path>
                <path d="M12.314,95.286 C12.273,94.866 12.234,94.439 12.197,94.006 C12.234,94.439 12.273,94.866 12.314,95.286" id="Fill-373" fill="#DD4F2D"></path>
                <path d="M12.934,100.29 C12.879,99.939 12.825,99.576 12.773,99.207 C12.825,99.576 12.879,99.939 12.934,100.29" id="Fill-374" fill="#DD4F2D"></path>
                <path d="M13.507,103.267 C13.45,103.026 13.395,102.776 13.341,102.518 C13.395,102.776 13.45,103.025 13.507,103.267" id="Fill-375" fill="#DD4F2D"></path>
                <path d="M13.735,104.171 C13.666,103.919 13.598,103.657 13.533,103.382 C13.598,103.657 13.666,103.919 13.735,104.171" id="Fill-376" fill="#DD4F2D"></path>
                <path d="M52.075,112.287 C51.266,112.249 50.418,112.206 49.537,112.16 C50.418,112.206 51.266,112.249 52.075,112.287" id="Fill-377" fill="#DD4F2D"></path>
                <path d="M48.647,112.113 C48.047,112.081 47.434,112.047 46.81,112.011 C47.434,112.047 48.047,112.081 48.647,112.113" id="Fill-378" fill="#DD4F2D"></path>
                <path d="M12.45,96.611 C12.404,96.185 12.359,95.751 12.316,95.308 C12.359,95.75 12.404,96.185 12.45,96.611" id="Fill-379" fill="#DD4F2D"></path>
                <path d="M53.639,112.36 C53.137,112.337 52.615,112.313 52.075,112.287 C52.615,112.313 53.137,112.337 53.639,112.36" id="Fill-380" fill="#DD4F2D"></path>
                <path d="M45.867,111.956 C42.383,111.749 38.614,111.489 34.943,111.165 C38.614,111.489 42.383,111.749 45.867,111.956" id="Fill-381" fill="#DD4F2D"></path>
                <path d="M15.011,107.156 C14.947,107.076 14.884,106.988 14.822,106.893 C14.884,106.988 14.947,107.076 15.011,107.156" id="Fill-382" fill="#DD4F2D"></path>
                <path d="M14.739,106.762 C14.671,106.649 14.604,106.526 14.539,106.395 C14.604,106.526 14.671,106.649 14.739,106.762" id="Fill-383" fill="#DD4F2D"></path>
                <path d="M11.663,67.651 C12.168,79.728 14.404,96.214 22.742,98.165 C35.356,101.118 41.371,103.295 52.074,86.22 C52.088,84.808 52.11,83.383 52.14,81.954 C52.159,81.098 52.18,80.241 52.204,79.385 C52.281,76.67 52.384,73.97 52.507,71.365 C52.547,70.532 52.588,69.708 52.631,68.897 C52.677,68.041 52.725,67.199 52.774,66.373 C52.821,65.596 52.869,64.833 52.918,64.088 C53.017,62.58 53.122,61.146 53.231,59.802 C53.235,59.751 53.239,59.7 53.243,59.649 C53.296,58.995 53.35,58.362 53.405,57.755 C53.433,57.44 53.461,57.131 53.49,56.83 C53.79,53.66 54.103,51.286 54.39,50.1 C44.324,49.764 15.994,49.034 13.665,51.363 C11.747,53.28 10.868,76.447 12.075,92.49 C11.497,84.805 11.399,75.486 11.663,67.651" id="Fill-384" fill="#DD4F2D"></path>
                <path d="M33.945,111.076 C32.618,110.954 31.309,110.824 30.036,110.685 C31.309,110.824 32.618,110.954 33.945,111.076" id="Fill-385" fill="#DD4F2D"></path>
                <path d="M54.511,112.065 C52.667,109.76 52.04,99.871 52.06,88.599 C52.062,87.812 52.067,87.018 52.074,86.22 C41.371,103.295 35.356,101.118 22.742,98.165 C14.404,96.214 12.168,79.728 11.663,67.651 C11.399,75.486 11.497,84.805 12.075,92.49 C12.076,92.504 12.077,92.518 12.078,92.532 C12.111,92.968 12.146,93.399 12.182,93.824 C12.187,93.885 12.192,93.945 12.197,94.006 C12.234,94.439 12.273,94.866 12.314,95.286 C12.315,95.293 12.315,95.301 12.316,95.308 C12.359,95.751 12.404,96.185 12.45,96.611 C12.454,96.644 12.458,96.675 12.461,96.707 C12.501,97.072 12.543,97.429 12.586,97.781 C12.597,97.874 12.609,97.966 12.621,98.059 C12.659,98.366 12.699,98.668 12.74,98.965 C12.751,99.045 12.762,99.127 12.773,99.207 C12.825,99.576 12.879,99.939 12.934,100.29 C12.936,100.302 12.938,100.314 12.94,100.326 C12.992,100.655 13.047,100.973 13.102,101.284 C13.119,101.376 13.135,101.465 13.152,101.555 C13.195,101.79 13.24,102.019 13.285,102.243 C13.303,102.336 13.322,102.428 13.341,102.518 C13.395,102.776 13.45,103.026 13.507,103.267 C13.515,103.305 13.524,103.345 13.533,103.382 C13.598,103.657 13.666,103.919 13.735,104.171 C13.754,104.24 13.773,104.305 13.792,104.372 C13.844,104.554 13.897,104.731 13.951,104.9 C13.974,104.974 13.998,105.046 14.022,105.117 C14.078,105.285 14.135,105.443 14.193,105.596 C14.212,105.648 14.231,105.702 14.251,105.752 C14.328,105.947 14.408,106.129 14.488,106.298 C14.505,106.332 14.522,106.362 14.539,106.395 C14.604,106.526 14.671,106.649 14.739,106.762 C14.766,106.808 14.794,106.85 14.822,106.893 C14.884,106.988 14.947,107.076 15.011,107.156 C15.038,107.19 15.064,107.226 15.092,107.257 C15.182,107.36 15.273,107.453 15.367,107.526 C17.122,108.891 23.033,109.921 30.036,110.685 C31.309,110.824 32.618,110.954 33.945,111.076 C34.277,111.106 34.61,111.136 34.943,111.165 C38.614,111.489 42.383,111.749 45.867,111.956 C46.184,111.975 46.499,111.993 46.81,112.011 C47.434,112.047 48.047,112.081 48.647,112.113 C48.947,112.129 49.244,112.145 49.537,112.16 C50.418,112.206 51.266,112.249 52.075,112.287 C52.615,112.313 53.137,112.337 53.639,112.36 C54.049,112.378 54.442,112.395 54.824,112.412 C54.716,112.294 54.594,112.168 54.511,112.065" id="Fill-386" fill="#AD3F2C"></path>
                <path d="M120.847,135.378 C120.648,136.275 120.442,137.124 120.23,137.929 C120.442,137.124 120.648,136.275 120.847,135.378" id="Fill-387" fill="#EC9456"></path>
                <path d="M54.766,49.179 C54.868,49.023 54.992,48.855 55.146,48.668 C54.993,48.854 54.868,49.024 54.766,49.179" id="Fill-388" fill="#EC9456"></path>
                <path d="M61.038,43.312 C56.656,57.207 53.123,79.862 59.049,92.209 C65.857,106.391 99.328,120.007 110.674,104.689 C122.02,89.372 115.78,10.519 115.78,10.517 C111.045,7.162 61.58,40.878 55.161,48.651 C56.175,47.428 58.252,45.564 61.038,43.312" id="Fill-389" fill="#EC9456"></path>
                <path d="M119.604,140.099 C119.105,141.679 118.575,143.02 118.013,144.059 C118.575,143.02 119.105,141.679 119.604,140.099" id="Fill-390" fill="#EC9456"></path>
                <path d="M122.612,125.076 C122.58,125.322 122.546,125.565 122.513,125.807 C122.546,125.565 122.58,125.322 122.612,125.076" id="Fill-391" fill="#EC9456"></path>
                <path d="M115.249,146.682 C116.24,146.544 117.162,145.63 118.013,144.059 C117.162,145.63 116.24,146.544 115.249,146.682" id="Fill-392" fill="#EC9456"></path>
                <path d="M54.511,112.064 C52.667,109.76 52.04,99.871 52.0595384,88.599 C52.04,99.871 52.667,109.76 54.511,112.065 C54.594,112.168 54.716,112.294 54.824,112.412 C60.4,118.476 98.67,142.459 113.013,146.295 C98.391,142.385 58.876,117.521 54.511,112.064" id="Fill-393" fill="#EC9456"></path>
                <path d="M52.204,79.385 C52.18,80.241 52.159,81.098 52.14,81.954 C52.159,81.098 52.18,80.241 52.204,79.385" id="Fill-394" fill="#EC9456"></path>
                <path d="M52.631,68.897 C52.588,69.708 52.547,70.532 52.507,71.365 C52.547,70.532 52.588,69.708 52.631,68.897" id="Fill-395" fill="#EC9456"></path>
                <path d="M53.405,57.755 C53.35,58.362 53.296,58.995 53.243,59.649 C53.296,58.995 53.35,58.362 53.405,57.755" id="Fill-396" fill="#EC9456"></path>
                <path d="M54.511,49.661 C54.549,49.546 54.623,49.409 54.715,49.261 C54.624,49.408 54.549,49.546 54.511,49.661 C54.471,49.78 54.431,49.932 54.39,50.1 C54.103,51.286 53.79,53.66 53.49,56.83 C53.833,53.211 54.192,50.618 54.511,49.661" id="Fill-397" fill="#EC9456"></path>
                <path d="M52.918,64.088 C52.869,64.833 52.821,65.596 52.774,66.373 C52.821,65.596 52.868,64.833 52.918,64.088" id="Fill-398" fill="#EC9456"></path>
                <path d="M53.231,59.802 C53.122,61.146 53.017,62.58 52.918,64.088 C53.017,62.581 53.122,61.146 53.231,59.802" id="Fill-399" fill="#EC9456"></path>
                <path d="M120.847,135.378 C121.466,132.589 122.022,129.37 122.513,125.807 C122.546,125.565 122.58,125.322 122.612,125.076 C127.505,88.476 125.747,17.577 115.78,10.517 C115.78,10.519 122.02,89.372 110.674,104.689 C99.328,120.007 65.857,106.391 59.049,92.209 C53.123,79.862 56.656,57.207 61.038,43.312 C58.252,45.564 56.175,47.428 55.161,48.651 C55.156,48.656 55.151,48.663 55.146,48.668 C54.992,48.855 54.868,49.023 54.766,49.179 C54.747,49.207 54.732,49.234 54.715,49.261 C54.623,49.409 54.549,49.546 54.511,49.661 C54.192,50.618 53.833,53.211 53.49,56.83 C53.461,57.131 53.433,57.44 53.405,57.755 C53.35,58.362 53.296,58.995 53.243,59.649 C53.239,59.7 53.235,59.751 53.231,59.802 C53.122,61.146 53.017,62.581 52.918,64.088 C52.868,64.833 52.821,65.596 52.774,66.373 C52.725,67.199 52.677,68.041 52.631,68.897 C52.588,69.708 52.547,70.532 52.507,71.365 C52.384,73.97 52.281,76.67 52.204,79.385 C52.18,80.241 52.159,81.098 52.14,81.954 C52.11,83.383 52.088,84.808 52.074,86.22 C52.067,87.018 52.062,87.812 52.06,88.599 C52.04,99.871 52.667,109.76 54.511,112.064 C58.876,117.521 98.391,142.385 113.013,146.295 C113.593,146.45 114.147,146.584 114.645,146.67 C114.849,146.706 115.05,146.709 115.249,146.682 C116.24,146.544 117.162,145.63 118.013,144.059 C118.575,143.02 119.105,141.679 119.604,140.099 C119.819,139.421 120.028,138.698 120.23,137.929 C120.442,137.124 120.648,136.275 120.847,135.378" id="Fill-400" fill="#E47537"></path>
                <path d="M133.167,51.147 C132.401,50.488 131.454,51.299 131.831,52.178 C135.759,61.348 140.515,68.956 141.19,79.24 C141.872,89.65 137.168,99.946 131.866,108.568 C130.263,111.174 134.374,113.564 135.953,110.957 C146.683,93.237 150.985,66.47 133.167,51.147" id="Fill-401" fill="#DD4F2D"></path>
                <path d="M136.965,28.792 C135.25,27.997 133.874,30.274 135.475,31.341 C151.22,41.836 156.635,62.583 156.884,80.547 C157.127,98.125 150.103,115.972 136.897,127.671 C134.439,129.848 138.043,133.417 140.489,131.262 C155.866,117.72 162.204,97.764 161.78,77.677 C161.413,60.302 153.963,36.673 136.965,28.792" id="Fill-402" fill="#DD4F2D"></path>
            </g>
        </g>
    </g>
</svg>