<?xml version="1.0" encoding="UTF-8"?>
<svg width="500px" height="500px" viewBox="0 0 500 500" version="1.1" xmlns="http://www.w3.org/2000/svg" xmlns:xlink="http://www.w3.org/1999/xlink">
    <!-- Generator: Sketch 44.1 (41455) - http://www.bohemiancoding.com/sketch -->
    <title>162606-OVB0AG-618</title>
    <desc>Created with Sketch.</desc>
    <defs>
        <text id="text-1" font-family="STYuanti-SC-Regular, Yuanti SC" font-size="42" font-weight="normal" fill="#FFFFFF">
            <tspan x="167" y="157">水果英语</tspan>
        </text>
        <filter x="-1.1%" y="-2.5%" width="102.3%" height="110.2%" filterUnits="objectBoundingBox" id="filter-2">
            <feOffset dx="0" dy="2" in="SourceAlpha" result="shadowOffsetOuter1"></feOffset>
            <feGaussianBlur stdDeviation="0.5" in="shadowOffsetOuter1" result="shadowBlurOuter1"></feGaussianBlur>
            <feColorMatrix values="0 0 0 0 0   0 0 0 0 0   0 0 0 0 0  0 0 0 0.5 0" type="matrix" in="shadowBlurOuter1"></feColorMatrix>
        </filter>
    </defs>
    <g id="Page-1" stroke="none" stroke-width="1" fill="none" fill-rule="evenodd">
        <g id="162606-OVB0AG-618">
            <g id="Group-6">
                <polygon id="Fill-1" fill="#71C4C4" points="0.06 500 500 500 500 0 0.06 0"></polygon>
                <polygon id="Fill-3" fill="#37B9C9" points="0.06 500 500 500 500 370.121 0.06 370.121"></polygon>
                <polygon id="Fill-4" fill="#EC934A" points="0.06 500 500 500 500 406.906 0.06 406.906"></polygon>
                <polygon id="Fill-5" fill="#3AB07C" points="0.06 500 500 500 500 414.08 0.06 414.08"></polygon>
            </g>
            <path d="M68.129,441.623 C65.757,426.028 52.291,414.08 36.035,414.08 C19.778,414.08 6.313,426.028 3.941,441.623 L68.129,441.623" id="Fill-7" fill="#27A77A"></path>
            <path d="M153.629,441.623 C149.768,416.232 127.843,396.776 101.373,396.776 C74.904,396.776 52.979,416.232 49.118,441.623 L153.629,441.623" id="Fill-8" fill="#27A77A"></path>
            <path d="M197.238,441.623 C195.453,429.888 185.32,420.896 173.087,420.896 C160.853,420.896 150.72,429.888 148.936,441.623 L197.238,441.623" id="Fill-9" fill="#27A77A"></path>
            <path d="M453.301,461.683 C450.074,440.458 431.746,424.193 409.619,424.193 C387.494,424.193 369.167,440.458 365.939,461.683 L453.301,461.683" id="Fill-10" fill="#318D74"></path>
            <path d="M489.755,461.683 C488.263,451.872 479.793,444.355 469.566,444.355 C459.339,444.355 450.87,451.872 449.379,461.683 L489.755,461.683" id="Fill-11" fill="#318D74"></path>
            <path d="M75.889,488.007 C73.799,474.261 61.929,463.727 47.599,463.727 C33.27,463.727 21.4,474.261 19.31,488.007 L75.889,488.007" id="Fill-12" fill="#318D74"></path>
            <path d="M99.498,488.007 C98.532,481.653 93.047,476.785 86.423,476.785 C79.8,476.785 74.315,481.653 73.349,488.007 L99.498,488.007" id="Fill-13" fill="#318D74"></path>
            <path d="M166.997,467.474 C165.302,456.333 155.683,447.797 144.07,447.797 C132.456,447.797 122.837,456.333 121.143,467.474 L166.997,467.474" id="Fill-14" fill="#318D74"></path>
            <path d="M228.077,467.474 C225.318,449.335 209.656,435.436 190.746,435.436 C171.837,435.436 156.174,449.335 153.416,467.474 L228.077,467.474" id="Fill-15" fill="#318D74"></path>
            <path d="M345.664,63.507 C343.292,47.913 329.826,35.964 313.57,35.964 C297.313,35.964 283.849,47.913 281.477,63.507 L345.664,63.507" id="Fill-16" fill="#FFFFFF"></path>
            <path d="M431.164,63.507 C427.303,38.116 405.378,18.661 378.908,18.661 C352.439,18.661 330.515,38.116 326.653,63.507 L431.164,63.507" id="Fill-17" fill="#FFFFFF"></path>
            <path d="M474.773,63.507 C472.988,51.771 462.855,42.78 450.622,42.78 C438.388,42.78 428.255,51.771 426.471,63.507 L474.773,63.507" id="Fill-18" fill="#FFFFFF"></path>
            <path d="M151.624,327.272 C149.252,311.678 135.786,299.73 119.53,299.73 C103.273,299.73 89.809,311.678 87.436,327.272 L151.624,327.272" id="Fill-19" fill="#FFFFFF"></path>
            <path d="M237.124,327.272 C233.263,301.882 211.338,282.426 184.868,282.426 C158.399,282.426 136.475,301.882 132.613,327.272 L237.124,327.272" id="Fill-20" fill="#FFFFFF"></path>
            <path d="M280.734,327.272 C278.949,315.537 268.816,306.545 256.582,306.545 C244.347,306.545 234.215,315.537 232.431,327.272 L280.734,327.272" id="Fill-21" fill="#FFFFFF"></path>
            <path d="M76.615,244.618 C75.239,235.573 67.43,228.644 58.002,228.644 C48.574,228.644 40.766,235.573 39.39,244.618 L76.615,244.618" id="Fill-22" fill="#FFFFFF"></path>
            <path d="M126.199,244.618 C123.96,229.892 111.245,218.609 95.895,218.609 C80.544,218.609 67.829,229.892 65.589,244.618 L126.199,244.618" id="Fill-23" fill="#FFFFFF"></path>
            <path d="M151.49,244.618 C150.455,237.811 144.578,232.597 137.484,232.597 C130.389,232.597 124.512,237.811 123.478,244.618 L151.49,244.618" id="Fill-24" fill="#FFFFFF"></path>
            <path d="M436.72,251.568 C435.984,246.734 431.811,243.03 426.772,243.03 C421.732,243.03 417.56,246.734 416.824,251.568 L436.72,251.568" id="Fill-25" fill="#FFFFFF"></path>
            <path d="M463.221,251.568 C462.024,243.698 455.229,237.667 447.024,237.667 C438.82,237.667 432.024,243.698 430.827,251.568 L463.221,251.568" id="Fill-26" fill="#FFFFFF"></path>
            <path d="M476.738,251.568 C476.186,247.93 473.044,245.143 469.253,245.143 C465.46,245.143 462.319,247.93 461.767,251.568 L476.738,251.568" id="Fill-27" fill="#FFFFFF"></path>
            <path d="M440.616,362.879 C439.881,358.045 435.707,354.341 430.669,354.341 C425.629,354.341 421.456,358.045 420.721,362.879 L440.616,362.879" id="Fill-28" fill="#FFFFFF"></path>
            <path d="M467.117,362.879 C465.921,355.009 459.126,348.978 450.921,348.978 C442.717,348.978 435.921,355.009 434.724,362.879 L467.117,362.879" id="Fill-29" fill="#FFFFFF"></path>
            <path d="M480.635,362.879 C480.082,359.241 476.94,356.454 473.149,356.454 C469.356,356.454 466.216,359.241 465.663,362.879 L480.635,362.879" id="Fill-30" fill="#FFFFFF"></path>
            <path d="M52.724,349.849 C51.304,340.51 43.241,333.354 33.505,333.354 C23.769,333.354 15.706,340.51 14.285,349.849 L52.724,349.849" id="Fill-31" fill="#FFFFFF"></path>
            <path d="M68.764,349.849 C68.108,345.532 64.38,342.226 59.882,342.226 C55.381,342.226 51.654,345.532 50.999,349.849 L68.764,349.849" id="Fill-32" fill="#FFFFFF"></path>
            <path d="M109.912,46.959 C108.749,39.312 102.146,33.453 94.175,33.453 C86.203,33.453 79.601,39.312 78.437,46.959 L109.912,46.959" id="Fill-33" fill="#FFFFFF"></path>
            <path d="M151.839,46.959 C149.945,34.509 139.194,24.968 126.214,24.968 C113.235,24.968 102.483,34.509 100.59,46.959 L151.839,46.959" id="Fill-34" fill="#FFFFFF"></path>
            <path d="M173.224,46.959 C172.348,41.205 167.379,36.795 161.381,36.795 C155.381,36.795 150.412,41.205 149.537,46.959 L173.224,46.959" id="Fill-35" fill="#FFFFFF"></path>
            <g id="Group-2" transform="translate(91.000000, 0.716444)">
                <path d="M82.656,82.6715083 C81.005617,82.6715083 79.6629787,84.0141466 79.6629787,85.6645296 C79.6629787,87.3149125 81.005617,88.6575508 82.656,88.6575508 C84.3070638,88.6575508 85.6490213,87.3149125 85.6490213,85.6645296 C85.6490213,84.0141466 84.3070638,82.6715083 82.656,82.6715083 Z M82.656,91.646487 C79.3579574,91.646487 76.6747234,88.963253 76.6747234,85.6645296 C76.6747234,82.3658061 79.3579574,79.6825721 82.656,79.6825721 C85.9547234,79.6825721 88.6379574,82.3658061 88.6379574,85.6645296 C88.6379574,88.963253 85.9547234,91.646487 82.656,91.646487 L82.656,91.646487 Z" id="Fill-36" fill="#6C3420"></path>
                <path d="M82.656,81.4759338 C81.005617,81.4759338 79.6629787,82.8185721 79.6629787,84.4689551 C79.6629787,86.1193381 81.005617,87.4619764 82.656,87.4619764 C84.3070638,87.4619764 85.6490213,86.1193381 85.6490213,84.4689551 C85.6490213,82.8185721 84.3070638,81.4759338 82.656,81.4759338 Z M82.656,90.4509125 C79.3579574,90.4509125 76.6747234,87.7676785 76.6747234,84.4689551 C76.6747234,81.1702317 79.3579574,78.4869976 82.656,78.4869976 C85.9547234,78.4869976 88.6379574,81.1702317 88.6379574,84.4689551 C88.6379574,87.7676785 85.9547234,90.4509125 82.656,90.4509125 L82.656,90.4509125 Z" id="Fill-37" fill="#7C4A25"></path>
                <path d="M232.841532,82.6715083 C231.191149,82.6715083 229.848511,84.0141466 229.848511,85.6645296 C229.848511,87.3149125 231.191149,88.6575508 232.841532,88.6575508 C234.491915,88.6575508 235.834553,87.3149125 235.834553,85.6645296 C235.834553,84.0141466 234.491915,82.6715083 232.841532,82.6715083 Z M232.841532,91.646487 C229.543489,91.646487 226.859574,88.963253 226.859574,85.6645296 C226.859574,82.3658061 229.543489,79.6825721 232.841532,79.6825721 C236.139574,79.6825721 238.823489,82.3658061 238.823489,85.6645296 C238.823489,88.963253 236.139574,91.646487 232.841532,91.646487 L232.841532,91.646487 Z" id="Fill-38" fill="#6C3420"></path>
                <path d="M232.841532,81.4759338 C231.191149,81.4759338 229.848511,82.8185721 229.848511,84.4689551 C229.848511,86.1193381 231.191149,87.4619764 232.841532,87.4619764 C234.491915,87.4619764 235.834553,86.1193381 235.834553,84.4689551 C235.834553,82.8185721 234.491915,81.4759338 232.841532,81.4759338 Z M232.841532,90.4509125 C229.543489,90.4509125 226.859574,87.7676785 226.859574,84.4689551 C226.859574,81.1702317 229.543489,78.4869976 232.841532,78.4869976 C236.139574,78.4869976 238.823489,81.1702317 238.823489,84.4689551 C238.823489,87.7676785 236.139574,90.4509125 232.841532,90.4509125 L232.841532,90.4509125 Z" id="Fill-39" fill="#7C4A25"></path>
                <path d="M266.984851,107.617891 L285.740255,74.4910827 C286.29583,73.5099764 285.950638,72.2633381 284.968851,71.7077636 C283.987745,71.1515083 282.741106,71.4966998 282.185532,72.478487 L263.430128,105.605296 C262.873872,106.587083 263.219745,107.83304 264.200851,108.389296 C265.182638,108.94487 266.429277,108.599678 266.984851,107.617891" id="Fill-40" fill="#FFFFFF"></path>
                <polyline id="Fill-41" fill="#E46A80" points="283.68817 73.9695508 297.370553 93.3336359 273.51217 91.9433381 283.68817 73.9695508"></polyline>
                <path d="M264.324766,112.766487 L301.009702,102.604104 C302.09634,102.303168 302.733617,101.177721 302.432681,100.090402 C302.131064,99.0037636 301.005617,98.366487 299.918979,98.6674232 L263.234043,108.829806 C262.146723,109.130742 261.509447,110.256189 261.811064,111.343508 C262.112,112.430827 263.237447,113.067423 264.324766,112.766487" id="Fill-42" fill="#FFFFFF"></path>
                <polyline id="Fill-43" fill="#EA8737" points="299.929191 100.784189 295.910128 124.150998 280.022468 106.298402 299.929191 100.784189"></polyline>
                <path d="M271.922383,120.868615 L303.714723,138.867593 C304.69583,139.423849 305.942468,139.078657 306.498043,138.09687 C307.054298,137.115083 306.708426,135.868444 305.727319,135.31287 L273.934979,117.313891 C272.953191,116.757636 271.707234,117.102827 271.15166,118.084615 C270.595404,119.066402 270.940596,120.31304 271.922383,120.868615" id="Fill-44" fill="#FFFFFF"></path>
                <polyline id="Fill-45" fill="#3468A4" points="304.334979 136.872019 288.928 147.758827 290.033702 128.775338 304.334979 136.872019"></polyline>
                <path d="M54.5831489,105.605296 L35.8277447,72.478487 C35.2714894,71.4966998 34.0255319,71.1515083 33.0437447,71.7077636 C32.0619574,72.2633381 31.716766,73.5099764 32.2730213,74.4910827 L51.0277447,107.617891 C51.584,108.599678 52.8299574,108.94487 53.8117447,108.389296 C54.7935319,107.83304 55.1387234,106.587083 54.5831489,105.605296" id="Fill-46" fill="#FFFFFF"></path>
                <polyline id="Fill-47" fill="#E46A80" points="34.3251064 73.9695508 20.6427234 93.3336359 44.5011064 91.9433381 34.3251064 73.9695508"></polyline>
                <path d="M54.779234,108.829806 L18.0942979,98.6674232 C17.0069787,98.366487 15.8815319,99.0037636 15.5805957,100.090402 C15.2789787,101.177721 15.9162553,102.303168 17.0035745,102.604104 L53.6885106,112.766487 C54.7758298,113.067423 55.9012766,112.430827 56.2022128,111.343508 C56.5031489,110.256189 55.8658723,109.130742 54.779234,108.829806" id="Fill-48" fill="#FFFFFF"></path>
                <polyline id="Fill-49" fill="#EA8737" points="18.0840851 100.784189 22.1024681 124.150998 37.9901277 106.298402 18.0840851 100.784189"></polyline>
                <path d="M44.077617,117.313891 L12.2859574,135.31287 C11.3041702,135.868444 10.9589787,137.115083 11.5145532,138.09687 C12.0708085,139.078657 13.316766,139.423849 14.2985532,138.867593 L46.0902128,120.868615 C47.072,120.31304 47.4171915,119.066402 46.861617,118.084615 C46.3060426,117.102827 45.0594043,116.757636 44.077617,117.313891" id="Fill-50" fill="#FFFFFF"></path>
                <polyline id="Fill-51" fill="#3468A4" points="13.677617 136.872019 29.0845957 147.758827 27.9788936 128.775338 13.677617 136.872019"></polyline>
                <path d="M275.116255,175.792189 L275.116255,107.860274 C264.829957,107.860274 256.490213,99.5205296 256.490213,89.2335508 L62.9194894,89.2335508 C62.9194894,99.5205296 54.5804255,107.860274 44.292766,107.860274 L44.292766,175.792189 C54.5804255,175.792189 62.9194894,184.131934 62.9194894,194.418913 L256.490213,194.418913 C256.490213,184.131934 264.829957,175.792189 275.116255,175.792189" id="Fill-52" fill="#F2AD44"></path>
                <path d="M122.632851,181.954572 L81.3889362,181.954572 C80.5814468,181.954572 79.9278298,181.300274 79.9278298,180.493466 C79.9278298,179.687338 80.5814468,179.03304 81.3889362,179.03304 L122.632851,179.03304 C123.43966,179.03304 124.093957,179.687338 124.093957,180.493466 C124.093957,181.300274 123.43966,181.954572 122.632851,181.954572" id="Fill-53" fill="#EE9943"></path>
                <path d="M147.074043,181.954572 L135.159149,181.954572 C134.35234,181.954572 133.698723,181.300274 133.698723,180.493466 C133.698723,179.687338 134.35234,179.03304 135.159149,179.03304 L147.074043,179.03304 C147.880851,179.03304 148.535149,179.687338 148.535149,180.493466 C148.535149,181.300274 147.880851,181.954572 147.074043,181.954572" id="Fill-54" fill="#EE9943"></path>
                <path d="M189.235064,181.954572 L184.957957,181.954572 C184.15183,181.954572 183.497532,181.300274 183.497532,180.493466 C183.497532,179.687338 184.15183,179.03304 184.957957,179.03304 L189.235064,179.03304 C190.041872,179.03304 190.69617,179.687338 190.69617,180.493466 C190.69617,181.300274 190.041872,181.954572 189.235064,181.954572" id="Fill-55" fill="#EE9943"></path>
                <path d="M225.398468,181.954572 L206.038468,181.954572 C205.23234,181.954572 204.578043,181.300274 204.578043,180.493466 C204.578043,179.687338 205.23234,179.03304 206.038468,179.03304 L225.398468,179.03304 C226.205277,179.03304 226.859574,179.687338 226.859574,180.493466 C226.859574,181.300274 226.205277,181.954572 225.398468,181.954572" id="Fill-56" fill="#EE9943"></path>
                <path d="M106.35166,173.116444 L65.1070638,173.116444 C64.3002553,173.116444 63.6466383,172.462827 63.6466383,171.656019 C63.6466383,170.84921 64.3002553,170.194913 65.1070638,170.194913 L106.35166,170.194913 C107.158468,170.194913 107.812085,170.84921 107.812085,171.656019 C107.812085,172.462827 107.158468,173.116444 106.35166,173.116444" id="Fill-57" fill="#EE9943"></path>
                <path d="M130.792851,173.116444 L118.877957,173.116444 C118.071149,173.116444 117.416851,172.462827 117.416851,171.656019 C117.416851,170.84921 118.071149,170.194913 118.877957,170.194913 L130.792851,170.194913 C131.59966,170.194913 132.253957,170.84921 132.253957,171.656019 C132.253957,172.462827 131.59966,173.116444 130.792851,173.116444" id="Fill-58" fill="#EE9943"></path>
                <path d="M172.953872,173.116444 L168.676766,173.116444 C167.869957,173.116444 167.21634,172.462827 167.21634,171.656019 C167.21634,170.84921 167.869957,170.194913 168.676766,170.194913 L172.953872,170.194913 C173.760681,170.194913 174.414979,170.84921 174.414979,171.656019 C174.414979,172.462827 173.760681,173.116444 172.953872,173.116444" id="Fill-59" fill="#EE9943"></path>
                <path d="M209.117957,173.116444 L189.757277,173.116444 C188.949787,173.116444 188.296851,172.462827 188.296851,171.656019 C188.296851,170.84921 188.949787,170.194913 189.757277,170.194913 L209.117957,170.194913 C209.923404,170.194913 210.578383,170.84921 210.578383,171.656019 C210.578383,172.462827 209.923404,173.116444 209.117957,173.116444" id="Fill-60" fill="#EE9943"></path>
                <path d="M159.935319,163.73704 L118.691404,163.73704 C117.884596,163.73704 117.230298,163.083423 117.230298,162.275934 C117.230298,161.469125 117.884596,160.815508 118.691404,160.815508 L159.935319,160.815508 C160.742128,160.815508 161.396426,161.469125 161.396426,162.275934 C161.396426,163.083423 160.742128,163.73704 159.935319,163.73704" id="Fill-61" fill="#EE9943"></path>
                <path d="M184.377191,163.73704 L172.462298,163.73704 C171.655489,163.73704 171.001191,163.083423 171.001191,162.275934 C171.001191,161.469125 171.655489,160.815508 172.462298,160.815508 L184.377191,160.815508 C185.183319,160.815508 185.837617,161.469125 185.837617,162.275934 C185.837617,163.083423 185.183319,163.73704 184.377191,163.73704" id="Fill-62" fill="#EE9943"></path>
                <path d="M226.538213,163.73704 L222.261106,163.73704 C221.454298,163.73704 220.800681,163.083423 220.800681,162.275934 C220.800681,161.469125 221.454298,160.815508 222.261106,160.815508 L226.538213,160.815508 C227.34434,160.815508 227.999319,161.469125 227.999319,162.275934 C227.999319,163.083423 227.34434,163.73704 226.538213,163.73704" id="Fill-63" fill="#EE9943"></path>
                <path d="M262.701617,163.73704 L243.341617,163.73704 C242.534809,163.73704 241.881191,163.083423 241.881191,162.275934 C241.881191,161.469125 242.534809,160.815508 243.341617,160.815508 L262.701617,160.815508 C263.507745,160.815508 264.162043,161.469125 264.162043,162.275934 C264.162043,163.083423 263.507745,163.73704 262.701617,163.73704" id="Fill-64" fill="#EE9943"></path>
                <path d="M97.4733617,141.826572 L56.228766,141.826572 C55.4219574,141.826572 54.7676596,141.172274 54.7676596,140.365466 C54.7676596,139.558657 55.4219574,138.904359 56.228766,138.904359 L97.4733617,138.904359 C98.2801702,138.904359 98.9344681,139.558657 98.9344681,140.365466 C98.9344681,141.172274 98.2801702,141.826572 97.4733617,141.826572" id="Fill-65" fill="#EE9943"></path>
                <path d="M121.914553,141.826572 L109.99966,141.826572 C109.192851,141.826572 108.539234,141.172274 108.539234,140.365466 C108.539234,139.558657 109.192851,138.904359 109.99966,138.904359 L121.914553,138.904359 C122.721362,138.904359 123.374979,139.558657 123.374979,140.365466 C123.374979,141.172274 122.721362,141.826572 121.914553,141.826572" id="Fill-66" fill="#EE9943"></path>
                <path d="M164.075574,141.826572 L159.799149,141.826572 C158.99166,141.826572 158.338043,141.172274 158.338043,140.365466 C158.338043,139.558657 158.99166,138.904359 159.799149,138.904359 L164.075574,138.904359 C164.882383,138.904359 165.537362,139.558657 165.537362,140.365466 C165.537362,141.172274 164.882383,141.826572 164.075574,141.826572" id="Fill-67" fill="#EE9943"></path>
                <path d="M200.23966,141.826572 L180.87966,141.826572 C180.071489,141.826572 179.418553,141.172274 179.418553,140.365466 C179.418553,139.558657 180.071489,138.904359 180.87966,138.904359 L200.23966,138.904359 C201.045106,138.904359 201.700085,139.558657 201.700085,140.365466 C201.700085,141.172274 201.045106,141.826572 200.23966,141.826572" id="Fill-68" fill="#EE9943"></path>
                <path d="M201.761362,109.859934 L243.006638,109.859934 C243.812766,109.859934 244.467745,109.205636 244.467745,108.398827 C244.467745,107.592019 243.812766,106.937721 243.006638,106.937721 L201.761362,106.937721 C200.955234,106.937721 200.300255,107.592019 200.300255,108.398827 C200.300255,109.205636 200.955234,109.859934 201.761362,109.859934" id="Fill-69" fill="#EE9943"></path>
                <path d="M177.32017,109.859934 L189.235064,109.859934 C190.041872,109.859934 190.69617,109.205636 190.69617,108.398827 C190.69617,107.592019 190.041872,106.937721 189.235064,106.937721 L177.32017,106.937721 C176.514043,106.937721 175.859745,107.592019 175.859745,108.398827 C175.859745,109.205636 176.514043,109.859934 177.32017,109.859934" id="Fill-70" fill="#EE9943"></path>
                <path d="M135.159149,109.859934 L139.436255,109.859934 C140.243745,109.859934 140.896681,109.205636 140.896681,108.398827 C140.896681,107.592019 140.243745,106.937721 139.436255,106.937721 L135.159149,106.937721 C134.353021,106.937721 133.698043,107.592019 133.698043,108.398827 C133.698043,109.205636 134.353021,109.859934 135.159149,109.859934" id="Fill-71" fill="#EE9943"></path>
                <path d="M98.9957447,109.859934 L118.355745,109.859934 C119.163234,109.859934 119.81617,109.205636 119.81617,108.398827 C119.81617,107.592019 119.163234,106.937721 118.355745,106.937721 L98.9957447,106.937721 C98.189617,106.937721 97.5346383,107.592019 97.5346383,108.398827 C97.5346383,109.205636 98.189617,109.859934 98.9957447,109.859934" id="Fill-72" fill="#EE9943"></path>
                <path d="M256.490213,93.6161891 L62.9194894,93.6161891 C62.9194894,103.903849 54.5804255,112.242913 44.292766,112.242913 L44.292766,180.174827 C54.5804255,180.174827 62.9194894,188.514572 62.9194894,198.801551 L256.490213,198.801551 C256.490213,188.514572 264.829957,180.174827 275.116255,180.174827 L275.116255,112.242913 C264.829957,112.242913 256.490213,103.903849 256.490213,93.6161891 M250.785362,100.190487 C253.117277,108.811423 259.921702,115.615849 268.542638,117.947083 L268.542638,174.470657 C259.921702,176.802572 253.117277,183.606998 250.785362,192.227934 L68.6243404,192.227934 C66.2924255,183.606998 59.488,176.802572 50.8670638,174.470657 L50.8670638,117.947083 C59.488,115.615849 66.2924255,108.811423 68.6243404,100.190487 L250.785362,100.190487" id="Fill-73" fill="#79432C"></path>
                <path d="M256.490213,89.2335508 L62.9194894,89.2335508 C62.9194894,99.5205296 54.5804255,107.860274 44.292766,107.860274 L44.292766,175.792189 C54.5804255,175.792189 62.9194894,184.131934 62.9194894,194.418913 L256.490213,194.418913 C256.490213,184.131934 264.829957,175.792189 275.116255,175.792189 L275.116255,107.860274 C264.829957,107.860274 256.490213,99.5205296 256.490213,89.2335508 M250.785362,95.8078487 C253.117277,104.428785 259.921702,111.23321 268.542638,113.565125 L268.542638,170.088019 C259.921702,172.419934 253.117277,179.224359 250.785362,187.845296 L68.6243404,187.845296 C66.2924255,179.224359 59.488,172.419934 50.8670638,170.088019 L50.8670638,113.565125 C59.488,111.23321 66.2924255,104.428785 68.6243404,95.8078487 L250.785362,95.8078487" id="Fill-74" fill="#AC6535"></path>
                <path d="M84.3581277,83.2179551 L84.3581277,2.95312762 C84.3581277,1.32300117 83.5962553,0 82.656,0 C81.7164255,0 80.9538723,1.32300117 80.9538723,2.95312762 L80.9538723,83.2179551 C80.9538723,84.8492628 81.7164255,86.1710827 82.656,86.1710827 C83.5962553,86.1710827 84.3581277,84.8492628 84.3581277,83.2179551" id="Fill-123" fill="#F2AD44"></path>
                <path d="M234.54366,83.2179551 L234.54366,2.95312762 C234.54366,1.32300117 233.781787,0 232.841532,0 C231.901957,0 231.139404,1.32300117 231.139404,2.95312762 L231.139404,83.2179551 C231.139404,84.8492628 231.901957,86.1710827 232.841532,86.1710827 C233.781787,86.1710827 234.54366,84.8492628 234.54366,83.2179551" id="Fill-124" fill="#F2AD44"></path>
                <path d="M264.404426,207.083423 L264.300936,206.967678 C263.799149,206.344019 263.899234,205.431678 264.520851,204.927849 C264.711489,204.773296 269.189447,201.028615 267.618043,194.773636 C267.423319,193.995423 267.89583,193.204955 268.674723,193.00887 C269.451574,192.814827 270.242043,193.289381 270.438128,194.065551 C272.47183,202.165636 266.594723,206.990827 266.342809,207.19304 C265.758638,207.662147 264.921191,207.604274 264.404426,207.083423" id="Fill-125" fill="#AC5F42"></path>
                <path d="M270.438128,194.065551 C270.282894,193.450742 269.755234,193.031338 269.154723,192.977551 C269.307915,193.148444 269.427064,193.351338 269.486298,193.587593 C271.52,201.687678 265.643574,206.510827 265.39166,206.713721 C265.083915,206.961551 264.708085,207.054147 264.346553,207.017381 L264.404426,207.083423 C264.921191,207.604274 265.758638,207.662147 266.342809,207.19304 C266.594723,206.990827 272.47183,202.165636 270.438128,194.065551" id="Fill-126" fill="#91502F"></path>
                <path d="M238.841872,201.045636 C247.579234,192.36887 261.026043,194.069636 265.896851,205.599168 C278.229787,211.137891 278.999149,224.006657 270.262468,232.684785 C261.525787,241.361551 248.328851,240.400189 239.652085,231.662827 C230.976,222.926147 230.105191,209.722402 238.841872,201.045636" id="Fill-127" fill="#DD405D"></path>
                <path d="M274.274723,195.141976 C268.499745,198.011764 267.37566,204.298061 267.37566,204.298061 C267.37566,204.298061 272.862638,207.295849 278.83983,204.323934 C284.96817,201.275764 285.736851,195.16853 285.736851,195.16853 C285.736851,195.16853 280.096681,192.245636 274.274723,195.141976" id="Fill-128" fill="#197F41"></path>
                <path d="M278.31966,197.506572 C270.853447,198.19287 267.37566,204.298061 267.37566,204.298061 L267.377021,204.299423 C267.391319,204.306232 272.869447,207.291764 278.83983,204.323934 C282.037106,202.732104 283.767149,200.314402 284.699234,198.360359 C282.945362,197.695849 280.812255,197.277125 278.31966,197.506572" id="Fill-129" fill="#196A38"></path>
                <path d="M278.916766,198.578232 C271.673191,198.552359 267.37566,204.298061 267.37566,204.298061 C267.37566,204.298061 271.377702,210.074402 278.877277,210.099593 C286.568851,210.127508 290.418383,204.379083 290.418383,204.379083 C290.418383,204.379083 286.226383,198.601381 278.916766,198.578232" id="Fill-130" fill="#0A9F69"></path>
                <path d="M268.234213,204.707934 L288.52017,204.7767 C288.708085,204.777381 288.861277,204.625551 288.861957,204.437636 C288.862638,204.249721 288.710128,204.09653 288.522213,204.095849 L268.236255,204.027083 C268.04834,204.026402 267.89583,204.178232 267.895149,204.366147 C267.894468,204.554061 268.046298,204.707253 268.234213,204.707934" id="Fill-131" fill="#1C7B4D"></path>
                <path d="M258.520511,205.883764 C257.856681,205.883764 257.202383,205.582147 256.776851,205.008189 C256.59234,204.766487 255.914894,204.044785 255.211574,203.839849 C254.843234,203.733636 254.523915,203.538232 254.272681,203.284274 C253.732085,202.740955 253.49583,201.9287 253.724596,201.140274 C253.99966,200.186402 254.871149,199.565466 255.816851,199.565466 C256.017702,199.565466 256.222638,199.594061 256.425532,199.652615 C258.674383,200.302827 260.117106,202.195593 260.277106,202.407338 C260.991319,203.377551 260.785021,204.741976 259.81617,205.456189 C259.426043,205.744189 258.971234,205.883764 258.520511,205.883764" id="Fill-132" fill="#E77890"></path>
                <path d="M135.193191,314.113891 L135.300766,313.9927 C135.821617,313.345891 135.718128,312.398827 135.072681,311.876615 C134.875234,311.715253 130.227745,307.829636 131.858383,301.338402 C132.060596,300.530913 131.571064,299.710487 130.762213,299.506232 C129.956085,299.305381 129.13566,299.797636 128.932085,300.603083 C126.821447,309.009551 132.921191,314.017891 133.181277,314.226913 C133.787915,314.71304 134.657362,314.653125 135.193191,314.113891" id="Fill-133" fill="#AC5F42"></path>
                <path d="M128.932085,300.603083 C129.093447,299.965125 129.640851,299.530742 130.26383,299.474232 C130.105191,299.651934 129.981277,299.862317 129.92,300.107423 C127.809362,308.513891 133.907745,313.518827 134.169191,313.730572 C134.488511,313.987253 134.878638,314.082572 135.253787,314.045125 L135.193191,314.113891 C134.657362,314.653125 133.787915,314.71304 133.181277,314.226913 C132.921191,314.017891 126.821447,309.009551 128.932085,300.603083" id="Fill-134" fill="#91502F"></path>
                <path d="M161.721872,307.846657 C152.654298,298.842402 138.699574,300.607168 133.644936,312.572444 C120.846298,318.320189 120.04766,331.675083 129.113872,340.681381 C138.180766,349.684955 151.876085,348.687508 160.88034,339.620615 C169.884596,330.554402 170.787404,316.852274 161.721872,307.846657" id="Fill-135" fill="#DD405D"></path>
                <path d="M124.950468,301.720359 C130.943319,304.698402 132.110298,311.222317 132.110298,311.222317 C132.110298,311.222317 126.41634,314.333125 120.213106,311.248189 C113.853277,308.086317 113.056,301.747593 113.056,301.747593 C113.056,301.747593 118.908596,298.714402 124.950468,301.720359" id="Fill-136" fill="#197F41"></path>
                <path d="M120.75234,304.174147 C128.501106,304.886317 132.110298,311.222317 132.110298,311.222317 L132.108936,311.222998 C132.093277,311.231168 126.408851,314.32904 120.213106,311.248189 C116.894638,309.597125 115.099234,307.088189 114.131745,305.060615 C115.95234,304.370913 118.165787,303.935849 120.75234,304.174147" id="Fill-137" fill="#196A38"></path>
                <path d="M120.132766,305.285976 C127.650723,305.259423 132.110298,311.222317 132.110298,311.222317 C132.110298,311.222317 127.957106,317.21653 120.174298,317.243083 C112.192,317.271678 108.197447,311.306742 108.197447,311.306742 C108.197447,311.306742 112.548085,305.311168 120.132766,305.285976" id="Fill-138" fill="#0A9F69"></path>
                <path d="M131.217021,310.954061 L110.164426,311.02487 C109.976511,311.025551 109.824681,311.178742 109.825362,311.366657 C109.826043,311.554572 109.978553,311.706402 110.166468,311.705721 L131.219064,311.634913 C131.406979,311.634232 131.558809,311.48104 131.558809,311.293125 C131.558128,311.10521 131.404936,310.953381 131.217021,310.954061" id="Fill-139" fill="#1C7B4D"></path>
                <path d="M141.300426,312.868615 C140.832681,312.868615 140.36017,312.723593 139.955064,312.4247 C138.949447,311.682572 138.73566,310.267083 139.476426,309.260104 C139.643234,309.040189 141.140426,307.075934 143.474383,306.401891 C143.684766,306.340615 143.897191,306.311338 144.105532,306.311338 C145.087319,306.311338 145.990809,306.954742 146.276766,307.945381 C146.513702,308.763764 146.269277,309.606657 145.708255,310.169721 C145.446809,310.434572 145.115915,310.636785 144.733957,310.746402 C144.003404,310.958827 143.300766,311.707764 143.109447,311.959678 C142.667574,312.555423 141.988766,312.868615 141.300426,312.868615" id="Fill-140" fill="#E77890"></path>
                <path d="M200.960681,288.549976 C200.801362,288.050232 197.152681,276.917636 187.042723,268.942147 C186.734979,269.435764 186.428596,269.930742 186.129702,270.428444 C195.719489,278.103678 199.270809,288.96053 199.306894,289.076955 C199.453277,289.533125 199.941447,289.78504 200.397617,289.640019 L200.411234,289.635253 C200.858553,289.484785 201.10434,289.002061 200.960681,288.549976" id="Fill-141" fill="#AC5F42"></path>
                <path d="M200.960681,288.549976 C200.801362,288.050232 197.152681,276.917636 187.042723,268.942147 C186.92766,269.127338 186.813277,269.311849 186.698894,269.49704 C196.514723,277.4487 200.070809,288.302827 200.228766,288.796444 C200.329532,289.115083 200.234894,289.448019 200.014298,289.670657 C200.138213,289.686998 200.268936,289.68087 200.397617,289.640019 L200.411234,289.635253 C200.858553,289.484785 201.10434,289.002061 200.960681,288.549976" id="Fill-142" fill="#91502F"></path>
                <path d="M192.53583,292.828444 C191.105362,288.530232 193.866213,284.376359 198.462638,284.658232 C202.306043,281.501806 206.67234,283.35304 208.102128,287.651934 C209.531915,291.950827 207.054979,296.142827 202.757447,297.571253 C198.458553,299.001721 193.965617,297.128019 192.53583,292.828444" id="Fill-143" fill="#DD405D"></path>
                <path d="M195.544511,288.151678 C195.350468,288.151678 195.155745,288.081551 195.001872,287.940615 C194.675064,287.64104 194.652596,287.133125 194.953532,286.806998 C195.53566,286.172444 196.394894,286.006998 196.491574,285.987934 C196.537872,285.979764 196.584851,285.975678 196.630468,285.975678 C197.013787,285.975678 197.35217,286.250061 197.420936,286.638827 C197.497191,287.07321 197.209872,287.48921 196.77617,287.567508 C196.665191,287.588615 196.316596,287.693466 196.134809,287.892274 C196.039489,287.995764 195.922383,288.069296 195.797787,288.110827 C195.716085,288.138061 195.630298,288.151678 195.544511,288.151678" id="Fill-144" fill="#E77890"></path>
                <path d="M181.574809,291.231168 C181.056681,291.231168 180.632511,290.815168 180.62366,290.295678 C180.614128,289.68087 180.490213,275.124955 189.853957,262.722572 C190.170553,262.302487 190.766979,262.218742 191.186383,262.536019 C191.605787,262.852615 191.689532,263.44904 191.372255,263.868444 C182.4,275.753381 182.524596,290.121381 182.526638,290.26504 C182.535489,290.789976 182.115404,291.222998 181.590468,291.231168 L181.574809,291.231168" id="Fill-145" fill="#AC5F42"></path>
                <path d="M181.471319,290.295678 C181.461106,289.68087 181.337872,275.124955 190.701617,262.722572 C190.794213,262.600019 190.909957,262.509466 191.039319,262.445466 C190.636936,262.243934 190.135149,262.349466 189.853957,262.722572 C180.490213,275.124955 180.614128,289.68087 180.62366,290.295678 C180.632511,290.815168 181.056681,291.231168 181.574809,291.231168 L181.590468,291.231168 C181.738894,291.229125 181.876426,291.190317 182.00034,291.128359 C181.691915,290.974487 181.477447,290.662657 181.471319,290.295678" id="Fill-146" fill="#91502F"></path>
                <path d="M183.304851,272.496189 C184.321362,275.52121 182.514383,278.114572 182.514383,278.114572 C182.514383,278.114572 179.545191,277.243764 178.493957,274.111168 C177.415489,270.900274 179.283745,268.494147 179.283745,268.494147 C179.283745,268.494147 182.281532,269.445296 183.304851,272.496189" id="Fill-147" fill="#197F41"></path>
                <path d="M181.061447,271.907934 C183.434213,274.7607 182.514383,278.114572 182.514383,278.114572 L182.513702,278.114572 C182.506213,278.111168 179.544511,277.238998 178.493957,274.111168 C177.931574,272.435593 178.172596,270.983338 178.530043,269.973636 C179.37634,270.354913 180.269617,270.955423 181.061447,271.907934" id="Fill-148" fill="#196A38"></path>
                <path d="M180.477277,272.073381 C183.021617,274.599338 182.514383,278.114572 182.514383,278.114572 C182.514383,278.114572 179.093787,278.735508 176.459574,276.118998 C173.758638,273.437806 174.422468,270.079168 174.422468,270.079168 C174.422468,270.079168 177.91183,269.524274 180.477277,272.073381" id="Fill-149" fill="#0A9F69"></path>
                <path d="M182.429277,277.596444 L175.306213,270.521721 C175.172766,270.388955 174.957617,270.389636 174.824851,270.523083 C174.692766,270.65653 174.693447,270.871678 174.826894,271.004444 L181.949277,278.079849 C182.082723,278.211934 182.298553,278.211253 182.431319,278.077806 C182.563404,277.944359 182.562723,277.72921 182.429277,277.596444" id="Fill-150" fill="#1C7B4D"></path>
                <path d="M190.88,291.796955 C190.86366,286.827423 186.540255,283.474913 181.859404,285.375849 C176.75983,283.436785 172.866723,286.890061 172.884426,291.859593 C172.901447,296.829125 176.942298,300.32053 181.91183,300.303508 C186.880681,300.287168 190.898383,296.766487 190.88,291.796955" id="Fill-151" fill="#DD405D"></path>
                <path d="M185.834213,288.03253 C185.691234,288.03253 185.546213,287.997125 185.411404,287.922232 C185.23234,287.823508 184.985191,287.799678 184.809532,287.799678 C184.732596,287.799678 184.668596,287.804444 184.63183,287.80921 C184.588255,287.816019 184.545362,287.818742 184.503149,287.818742 C184.074894,287.818742 183.701787,287.50487 183.636426,287.069806 C183.562894,286.589125 183.894468,286.141125 184.375149,286.068274 C184.415319,286.062827 184.578043,286.040359 184.810213,286.040359 C185.187404,286.040359 185.747745,286.098913 186.259745,286.381466 C186.686638,286.614998 186.841872,287.151508 186.606298,287.57704 C186.446979,287.866402 186.147404,288.031168 185.838298,288.03253 C185.836936,288.03253 185.835574,288.03253 185.834213,288.03253" id="Fill-152" fill="#E77890"></path>
                <path d="M188.864681,226.102317 L188.804085,226.222827 C188.456851,226.826742 187.686809,227.035764 187.083574,226.689891 C186.897021,226.58504 182.44766,224.146913 177.882553,227.4007 C177.314043,227.805125 176.524936,227.672359 176.120511,227.103849 C175.716085,226.536019 175.848851,225.746913 176.416681,225.341806 C182.328511,221.130061 188.096,224.357296 188.339064,224.496189 C188.903489,224.823678 189.122043,225.517466 188.864681,226.102317" id="Fill-153" fill="#AC5F42"></path>
                <path d="M176.416681,225.341806 C175.967319,225.661125 175.795064,226.222827 175.941447,226.724615 C176.031319,226.547593 176.157957,226.386913 176.330894,226.263678 C182.243404,222.050572 188.010213,225.279168 188.252596,225.419423 C188.550128,225.590317 188.74417,225.8647 188.829957,226.170402 L188.864681,226.102317 C189.122043,225.517466 188.903489,224.823678 188.339064,224.496189 C188.096,224.357296 182.328511,221.130061 176.416681,225.341806" id="Fill-154" fill="#91502F"></path>
                <path d="M192.074894,248.70521 C182.284255,244.381806 179.400851,232.959168 187.189787,225.364274 C187.766468,213.625721 197.940426,208.925806 207.731064,213.24921 C217.522383,217.572615 220.924596,228.559508 216.601872,238.350827 C212.278468,248.142147 201.866213,253.028615 192.074894,248.70521" id="Fill-155" fill="#10A968"></path>
                <path d="M176.07217,221.897381 C180.224681,225.661125 185.669447,224.579253 185.669447,224.579253 C185.669447,224.579253 186.357106,219.188274 182.056851,215.292444 C177.649021,211.29721 172.461617,212.60921 172.461617,212.60921 C172.461617,212.60921 171.884255,218.099593 176.07217,221.897381" id="Fill-156" fill="#197F41"></path>
                <path d="M176.702638,217.872189 C179.624851,223.698913 185.668766,224.578572 185.668766,224.578572 L185.669447,224.57721 C185.670809,224.565636 186.350979,219.183508 182.056851,215.292444 C179.757617,213.206998 177.252085,212.572444 175.374298,212.437636 C175.391319,214.068955 175.729021,215.926998 176.702638,217.872189" id="Fill-157" fill="#196A38"></path>
                <path d="M177.381447,217.050402 C179.656851,222.922061 185.669447,224.579253 185.669447,224.579253 C185.669447,224.579253 189.075745,219.511678 186.721362,213.430317 C184.306383,207.196444 178.433362,205.901466 178.433362,205.901466 C178.433362,205.901466 175.086979,211.123593 177.381447,217.050402" id="Fill-158" fill="#0A9F69"></path>
                <path d="M185.768851,223.739083 L179.399489,207.295168 C179.331404,207.119508 179.133957,207.032359 178.958979,207.100444 C178.783319,207.16853 178.69617,207.365296 178.764255,207.540955 L185.134298,223.98487 C185.201702,224.16053 185.399149,224.247678 185.574128,224.179593 C185.749787,224.111508 185.836936,223.914061 185.768851,223.739083" id="Fill-159" fill="#1C7B4D"></path>
                <path d="M187.261957,236.637125 C186.293787,236.637125 185.467234,235.899083 185.378043,234.914572 C185.19217,232.887678 186.265191,231.120189 186.387745,230.924785 C186.747234,230.352189 187.363404,230.038998 187.993191,230.038998 C188.338383,230.038998 188.68766,230.133636 189.001532,230.330402 C189.881872,230.887338 190.154894,232.049551 189.602043,232.933296 C189.464511,233.159338 189.094128,233.93687 189.151319,234.569381 C189.181957,234.900955 189.124766,235.221636 188.999489,235.506232 C188.730553,236.115593 188.147745,236.564955 187.437617,236.629636 C187.378383,236.634402 187.31983,236.637125 187.261957,236.637125" id="Fill-160" fill="#65BC94"></path>
                <path d="M31.968,167.888189 C34.1045106,174.964274 40.9933617,177.444615 40.9933617,177.444615 C40.9933617,177.444615 45.4359149,171.816019 43.2224681,164.4887 C40.955234,156.974827 34.1977872,154.930913 34.1977872,154.930913 C34.1977872,154.930913 29.8124255,160.748785 31.968,167.888189" id="Fill-161" fill="#197F41"></path>
                <path d="M33.3603404,169.100104 C38.5116596,170.09687 40.7605106,174.779764 40.7605106,174.779764 C40.7605106,174.779764 39.9809362,175.530061 38.6280851,176.239508 C36.6120851,174.99287 33.824,172.692274 32.3492766,168.959849 C32.6801702,168.989125 33.0171915,169.034061 33.3603404,169.100104" id="Fill-162" fill="#196736"></path>
                <path d="M32.4173617,170.606827 C37.6626383,170.609551 40.7605106,174.779764 40.7605106,174.779764 C40.7605106,174.779764 37.8485106,178.951338 32.4166809,178.951338 C26.8459574,178.953381 24.0735319,174.779764 24.0735319,174.779764 C24.0735319,174.779764 27.1237447,170.609551 32.4173617,170.606827" id="Fill-163" fill="#0A9F69"></path>
                <path d="M39.1850213,197.561721 C45.7702128,204.146913 71.2006809,218.898913 77.7865532,212.312359 C84.3724255,205.725806 69.6211064,180.2967 63.0359149,173.709466 C56.4493617,167.123593 45.7702128,167.123593 39.1850213,173.708785 C32.5977872,180.2967 32.5977872,190.974487 39.1850213,197.561721" id="Fill-164" fill="#E87F3A"></path>
                <path d="M43.1509787,196.180955 C43.4444255,195.884785 43.6071489,195.465381 43.5581277,195.020785 C43.533617,194.774317 43.0107234,188.788274 49.0083404,182.791338 C55.0073191,176.792359 60.9933617,177.315934 61.2459574,177.340444 C62.0214468,177.417381 62.72,176.854998 62.8010213,176.077466 C62.8834043,175.301976 62.3257872,174.606147 61.5502979,174.518998 C61.2459574,174.486317 54.0105532,173.774147 47.0018723,180.784189 C39.9931915,187.791508 40.704,195.026913 40.7373617,195.331934 C40.8238298,196.110827 41.5251064,196.671849 42.304,196.586061 C42.6369362,196.550657 42.9297021,196.40087 43.1509787,196.180955" id="Fill-165" fill="#E36531"></path>
                <path d="M59.4362553,187.962402 C59.8556596,187.542317 59.9809362,186.884615 59.7031489,186.325636 C59.3538723,185.625721 58.5021277,185.339083 57.8001702,185.68904 C52.6168511,188.265381 51.8508936,191.581806 51.780766,191.950147 C51.6350638,192.718827 52.1402553,193.462317 52.9102979,193.6087 C53.6708085,193.753721 54.4054468,193.262827 54.5634043,192.504359 C54.596766,192.364785 55.1965957,190.149296 59.0638298,188.228615 C59.2054468,188.158487 59.3300426,188.068615 59.4362553,187.962402" id="Fill-166" fill="#E36531"></path>
                <path d="M59.2667234,204.115593 C59.4594043,203.921551 59.5989787,203.670317 59.6548085,203.382998 C61.152,195.693466 66.8779574,193.105551 67.1203404,192.997976 C67.835234,192.685466 68.1668085,191.851423 67.8556596,191.133125 C67.5465532,190.41687 66.7172766,190.083934 65.9996596,190.391678 C65.700766,190.519678 58.6662128,193.626402 56.8694468,202.839678 C56.7210213,203.609721 57.2214468,204.353891 57.9914894,204.503678 C58.4714894,204.599678 58.944,204.437636 59.2667234,204.115593" id="Fill-167" fill="#E36531"></path>
                <path d="M44.6284255,176.603083 C44.2457872,176.603083 43.8338723,176.485976 43.4737021,176.125806 C42.3918298,175.043934 43.1046809,173.894657 43.1046809,173.894657 C43.6125957,172.767849 46.8588936,171.229806 50.3591489,171.229806 C50.6028936,171.229806 50.848,171.237296 51.0937872,171.252955 C52.1361702,171.318998 52.9273191,172.217721 52.8626383,173.259423 C52.8306383,173.738061 52.6257021,174.162232 52.3118298,174.476785 C51.968,174.820615 51.4914043,175.032359 50.9719149,175.032359 C50.9331064,175.032359 50.893617,175.030998 50.8541277,175.028274 C50.6648511,175.0167 50.4796596,175.010572 50.2978723,175.010572 C47.6786383,175.010572 45.9451915,176.198657 45.9274894,176.212274 C45.9274894,176.212274 45.3276596,176.603083 44.6284255,176.603083" id="Fill-168" fill="#F1AA74"></path>
                <path d="M230.754043,260.79304 C236.640681,252.944189 241.317447,247.595423 247.507064,249.660444 C253.700766,251.727508 254.227745,258.811764 254.225702,268.623508 C254.22434,274.339934 257.761362,280.659593 255.635064,287.039168 C252.219915,297.27304 242.001702,300.266742 231.765106,296.852955 C221.530553,293.438487 215.155745,284.910827 218.570894,274.676274 C220.698553,268.298742 227.321191,265.365636 230.754043,260.79304" id="Fill-169" fill="#45AD4C"></path>
                <path d="M246.545021,251.525976 L246.677106,251.562061 C247.363404,251.713891 248.04017,251.28087 248.192681,250.596615 C248.241702,250.385551 249.441362,245.407168 254.969191,244.204785 C255.658894,244.05704 256.093957,243.378232 255.945532,242.689891 C255.795064,242.002232 255.115574,241.565125 254.429277,241.714232 C247.268766,243.270657 245.766128,249.769381 245.703489,250.045125 C245.562553,250.687168 245.934979,251.322402 246.545021,251.525976" id="Fill-170" fill="#AC5F42"></path>
                <path d="M254.429277,241.714232 C254.972596,241.595764 255.507745,241.848359 255.782809,242.298402 C255.590128,242.245296 255.38383,242.230317 255.175489,242.275934 C248.01566,243.832359 246.510979,250.330402 246.450383,250.606827 C246.376851,250.943849 246.449702,251.276104 246.619915,251.547764 L246.545021,251.525976 C245.934979,251.322402 245.562553,250.687168 245.703489,250.045125 C245.766128,249.769381 247.268766,243.270657 254.429277,241.714232" id="Fill-171" fill="#91502F"></path>
                <path d="M252.089191,239.118827 C252.08034,244.774657 247.578553,248.106742 247.578553,248.106742 C247.578553,248.106742 243.084255,244.96053 243.093106,239.10453 C243.103319,233.100104 247.604426,230.116615 247.604426,230.116615 C247.604426,230.116615 252.098043,233.412615 252.089191,239.118827" id="Fill-172" fill="#197F41"></path>
                <path d="M248.654979,236.856359 C251.022298,242.995593 247.578553,248.106742 247.578553,248.106742 L247.575149,248.106061 C247.564255,248.098572 243.083574,244.953721 243.093106,239.10453 C243.097872,235.971253 244.326128,233.669296 245.499234,232.175508 C246.70434,233.295508 247.864511,234.80904 248.654979,236.856359" id="Fill-173" fill="#196A38"></path>
                <path d="M247.579234,236.805976 C250.421106,242.491083 247.578553,248.106742 247.578553,248.106742 C247.578553,248.106742 241.479489,247.210742 238.538213,241.322742 C235.521362,235.288359 238.540936,230.023338 238.540936,230.023338 C238.540936,230.023338 244.712851,231.069806 247.579234,236.805976" id="Fill-174" fill="#0A9F69"></path>
                <path d="M247.494128,247.3047 L239.537021,231.386402 C239.453277,231.218232 239.24834,231.150147 239.08017,231.234572 C238.912,231.318317 238.843915,231.522572 238.92834,231.690742 L246.884766,247.60904 C246.969191,247.77721 247.173447,247.845296 247.341617,247.761551 C247.509787,247.677806 247.577872,247.47287 247.494128,247.3047" id="Fill-175" fill="#1C7B4D"></path>
                <path d="M250.119489,264.01687 C250.027574,264.01687 249.934298,264.010061 249.841021,263.996444 C249.755915,263.982827 249.672851,263.965125 249.592511,263.941976 C248.695149,263.684615 248.100085,262.7927 248.241021,261.841551 C248.578043,259.57704 248.323404,257.614827 247.486638,256.006657 C247.003915,255.076615 247.366128,253.931423 248.29617,253.4487 C248.576,253.302998 248.874894,253.234232 249.169702,253.234232 C249.855319,253.234232 250.516426,253.606657 250.853447,254.256189 C252.065362,256.588785 252.450043,259.327168 251.995915,262.397125 C251.85634,263.340104 251.044766,264.01687 250.119489,264.01687" id="Fill-176" fill="#76BE83"></path>
                <path d="M226.385021,280.765806 C226.219574,281.26487 225.678298,281.53653 225.178553,281.36904 C224.68017,281.202232 224.409872,280.662317 224.576681,280.163253 C224.741447,279.663508 225.283404,279.39321 225.782468,279.559338 C226.282213,279.726827 226.550468,280.266061 226.385021,280.765806" id="Fill-177" fill="#2AA047"></path>
                <path d="M228.674043,272.397466 C228.508596,272.897891 227.968,273.167508 227.468255,273.0007 C226.968511,272.833891 226.698894,272.293296 226.865021,271.794232 C227.03183,271.293806 227.573106,271.024189 228.071489,271.190317 C228.572596,271.357806 228.842213,271.896359 228.674043,272.397466" id="Fill-178" fill="#2AA047"></path>
                <path d="M231.455319,283.218232 C231.289872,283.719338 230.750638,283.988955 230.250894,283.821466 C229.750468,283.654657 229.481532,283.114061 229.64834,282.614998 C229.815149,282.116615 230.354383,281.846998 230.853447,282.012444 C231.354553,282.179934 231.623489,282.719168 231.455319,283.218232" id="Fill-179" fill="#2AA047"></path>
                <path d="M227.488681,287.242061 C227.321872,287.741125 226.783319,288.010742 226.283574,287.845296 C225.78383,287.679168 225.514894,287.13653 225.681702,286.637466 C225.847149,286.137721 226.387064,285.868104 226.887489,286.035593 C227.387234,286.20104 227.65617,286.741636 227.488681,287.242061" id="Fill-180" fill="#2AA047"></path>
                <path d="M221.195574,276.078147 C221.028766,276.577891 220.489532,276.848189 219.987064,276.681381 C219.490043,276.515253 219.219064,275.974657 219.385872,275.474913 C219.553362,274.975168 220.091234,274.705551 220.59234,274.87304 C221.092085,275.039849 221.362383,275.579083 221.195574,276.078147" id="Fill-181" fill="#2AA047"></path>
                <path d="M231.566298,278.030827 C231.40017,278.529891 230.859574,278.799508 230.361872,278.633381 C229.861447,278.467934 229.590468,277.925976 229.758638,277.426913 C229.924766,276.927168 230.465362,276.658232 230.965106,276.825721 C231.46417,276.989806 231.733106,277.531083 231.566298,278.030827" id="Fill-182" fill="#2AA047"></path>
                <path d="M225.312,276.446487 C225.230298,276.69704 224.96,276.831849 224.708766,276.748785 C224.460255,276.66504 224.325447,276.394742 224.408511,276.146232 C224.492255,275.895678 224.761872,275.761551 225.011064,275.843253 C225.261617,275.927678 225.395745,276.197976 225.312,276.446487" id="Fill-183" fill="#2AA047"></path>
                <path d="M230.912,272.462827 C230.828255,272.7127 230.558638,272.847508 230.309447,272.764444 C230.059574,272.6807 229.923404,272.410402 230.007149,272.16121 C230.090213,271.912019 230.361191,271.77653 230.610383,271.858913 C230.859574,271.942657 230.995064,272.212955 230.912,272.462827" id="Fill-184" fill="#2AA047"></path>
                <path d="M221.907745,280.536359 C221.824681,280.78487 221.553021,280.919678 221.303149,280.838657 C221.053277,280.753551 220.918468,280.483253 221.001532,280.233381 C221.085277,279.984189 221.354894,279.850061 221.604085,279.932444 C221.853957,280.016189 221.991489,280.286487 221.907745,280.536359" id="Fill-185" fill="#2AA047"></path>
                <path d="M221.990128,284.904019 C221.90434,285.153891 221.636766,285.288019 221.386894,285.204955 C221.137021,285.121891 221.002213,284.852274 221.085277,284.60104 C221.169021,284.35321 221.437957,284.218402 221.68783,284.300104 C221.938383,284.38453 222.073191,284.654827 221.990128,284.904019" id="Fill-186" fill="#2AA047"></path>
                <path d="M223.645957,273.821125 C223.560851,274.070998 223.291915,274.206487 223.042043,274.123423 C222.791489,274.039678 222.654638,273.769381 222.739064,273.518147 C222.822809,273.268955 223.093106,273.134827 223.342298,273.21721 C223.591489,273.300274 223.72834,273.571934 223.645957,273.821125" id="Fill-187" fill="#2AA047"></path>
                <path d="M225.324255,271.101806 C225.239149,271.351678 224.970213,271.487168 224.721021,271.403423 C224.470468,271.320359 224.33634,271.0487 224.419404,270.799508 C224.503149,270.550317 224.773447,270.415508 225.023319,270.498572 C225.272511,270.582317 225.406638,270.851253 225.324255,271.101806" id="Fill-188" fill="#2AA047"></path>
                <path d="M133.379404,235.978061 L133.237787,235.913381 C132.530383,235.536189 132.260766,234.659934 132.633191,233.951849 C132.746894,233.733296 135.384511,228.519338 131.465532,223.389125 C130.978723,222.751168 131.100596,221.837466 131.739915,221.350657 C132.377191,220.862487 133.290894,220.986402 133.778383,221.622998 C138.852766,228.266061 135.356596,235.026913 135.205447,235.310827 C134.852085,235.975338 134.060255,236.252444 133.379404,235.978061" id="Fill-189" fill="#AC5F42"></path>
                <path d="M133.778383,221.622998 C133.39234,221.118487 132.740085,220.942147 132.169532,221.130742 C132.376511,221.226061 132.566468,221.366317 132.714213,221.559678 C137.787234,228.203423 134.292426,234.964955 134.141277,235.24887 C133.956085,235.596785 133.646979,235.830998 133.299064,235.940615 L133.379404,235.978061 C134.060255,236.252444 134.852085,235.975338 135.205447,235.310827 C135.356596,235.026913 138.852766,228.266061 133.778383,221.622998" id="Fill-190" fill="#91502F"></path>
                <path d="M107.486638,240.536359 C112.089191,229.102827 125.126128,225.349296 134.164426,234.022657 C147.694979,234.239849 153.492426,245.768019 148.890553,257.201551 C144.288,268.634402 131.772596,272.969381 120.339745,268.368189 C108.907574,263.766317 102.884766,251.96921 107.486638,240.536359" id="Fill-191" fill="#F4B637"></path>
                <path d="M143.358638,222.418913 C136.68834,225.258742 135.010043,232.243593 135.010043,232.243593 C135.010043,232.243593 140.972255,235.971253 147.878809,233.027934 C154.962383,230.011764 156.230128,223.202572 156.230128,223.202572 C156.230128,223.202572 150.089532,219.551849 143.358638,222.418913" id="Fill-192" fill="#0A9F69"></path>
                <path d="M135.960511,232.278317 L154.64034,224.32053 C154.813277,224.246998 154.893617,224.046827 154.820085,223.873891 C154.746553,223.700955 154.546383,223.620615 154.373447,223.694147 L135.693617,231.651934 C135.520681,231.725466 135.43966,231.925636 135.513872,232.098572 C135.587404,232.271508 135.787574,232.351849 135.960511,232.278317" id="Fill-193" fill="#1C7B4D"></path>
                <path d="M126.630809,237.380615 C126.261106,237.380615 125.887319,237.285976 125.545532,237.087168 C125.305872,236.95304 124.544681,236.618742 123.866553,236.618742 C123.790979,236.618742 123.716766,236.622827 123.644596,236.631678 C123.552,236.643253 123.460085,236.649381 123.369532,236.649381 C123.085617,236.649381 122.811915,236.594232 122.56,236.492104 C121.848511,236.205466 121.309957,235.55253 121.208511,234.73687 C121.058723,233.541296 121.907745,232.450572 123.103319,232.301466 C123.358638,232.269466 123.611234,232.255168 123.859064,232.255168 C125.862809,232.255168 127.529532,233.192019 127.733787,233.311168 C128.774809,233.92053 129.125447,235.25704 128.516085,236.297381 C128.110979,236.991849 127.380426,237.380615 126.630809,237.380615" id="Fill-194" fill="#FBD16C"></path>
                <path d="M138.08,229.520189 C138.02417,229.520189 137.96766,229.506572 137.915915,229.477976 C137.751149,229.387423 137.691234,229.180444 137.781787,229.015678 C140.420766,224.22521 144.838128,222.584359 148.155915,222.561891 C148.156596,222.561891 148.157277,222.561891 148.158638,222.561891 C148.345191,222.561891 148.497021,222.71304 148.498383,222.900274 C148.500426,223.088189 148.348596,223.241381 148.160681,223.242742 C145.046468,223.269976 140.887149,224.791678 138.378213,229.343849 C138.316255,229.45687 138.19983,229.520189 138.08,229.520189" id="Fill-195" fill="#64BC98"></path>
                <path d="M150.953532,223.458572 C150.934468,223.458572 150.914723,223.45653 150.894979,223.453125 C150.597447,223.402061 150.259064,223.356444 149.888681,223.321721 C149.701447,223.3047 149.563915,223.138572 149.580936,222.951338 C149.597957,222.774998 149.745702,222.642232 149.92,222.642232 C149.930213,222.642232 149.941106,222.642913 149.952,222.644274 C150.339404,222.680359 150.694809,222.728019 151.011404,222.782487 C151.196596,222.814487 151.320511,222.990827 151.288511,223.176019 C151.259915,223.341466 151.116255,223.458572 150.953532,223.458572" id="Fill-196" fill="#64BC98"></path>
                <path d="M139.164596,247.522572 C138.965106,248.018232 139.205447,248.579934 139.700426,248.778742 C140.194723,248.978232 140.755745,248.739253 140.955234,248.243593 C141.154043,247.749296 140.915064,247.186913 140.420766,246.987423 C139.926468,246.788615 139.363404,247.028955 139.164596,247.522572" id="Fill-197" fill="#F9D852"></path>
                <path d="M136.852426,243.472189 C136.652936,243.967168 136.893277,244.529551 137.386213,244.727678 C137.881872,244.927168 138.444936,244.688189 138.644426,244.193891 C138.843234,243.698913 138.602894,243.135849 138.107234,242.936359 C137.614298,242.738232 137.051234,242.977891 136.852426,243.472189" id="Fill-198" fill="#F9D852"></path>
                <path d="M142.400681,244.479168 C142.201872,244.972785 142.440851,245.535849 142.935149,245.734657 C143.429447,245.933466 143.992511,245.693125 144.191319,245.198827 C144.390128,244.70521 144.150468,244.143508 143.65617,243.9447 C143.161191,243.745891 142.60017,243.984189 142.400681,244.479168" id="Fill-199" fill="#F9D852"></path>
                <path d="M140.362894,239.830317 C140.163404,240.325296 140.403064,240.886998 140.896681,241.085125 C141.393021,241.285296 141.954723,241.046317 142.154213,240.550657 C142.353021,240.05704 142.113362,239.493976 141.617702,239.295168 C141.124085,239.096359 140.561702,239.336019 140.362894,239.830317" id="Fill-200" fill="#F9D852"></path>
                <path d="M133.845787,248.355253 C133.646298,248.850913 133.886638,249.412615 134.381617,249.611423 C134.876596,249.810913 135.437617,249.571253 135.637106,249.076274 C135.835915,248.581976 135.596936,248.019593 135.101957,247.820104 C134.60766,247.621296 134.044596,247.861636 133.845787,248.355253" id="Fill-201" fill="#F9D852"></path>
                <path d="M133.16017,256.176189 C132.961362,256.670487 133.201021,257.232189 133.695319,257.431678 C134.190298,257.630487 134.752681,257.392189 134.95217,256.897891 C135.150979,256.402913 134.910638,255.84053 134.41566,255.64104 C133.921362,255.442232 133.358979,255.681891 133.16017,256.176189" id="Fill-202" fill="#F9D852"></path>
                <path d="M130.582468,244.304189 C130.483064,244.550657 130.602894,244.83253 130.850043,244.932615 C131.097191,245.031338 131.379064,244.912189 131.478468,244.66504 C131.577872,244.417891 131.457362,244.136019 131.210213,244.036615 C130.963745,243.93721 130.681872,244.05704 130.582468,244.304189" id="Fill-203" fill="#F9D852"></path>
                <path d="M136.778894,252.156444 C136.679489,252.403593 136.798638,252.685466 137.045787,252.785551 C137.293617,252.884955 137.574809,252.764444 137.673532,252.516615 C137.773617,252.269466 137.654468,251.989636 137.405957,251.890232 C137.159489,251.790147 136.878979,251.909296 136.778894,252.156444" id="Fill-204" fill="#F9D852"></path>
                <path d="M138.583149,257.838827 C138.483745,258.085976 138.603574,258.367849 138.850723,258.467253 C139.097191,258.566657 139.379745,258.446147 139.479149,258.198998 C139.578553,257.95253 139.458043,257.671338 139.210894,257.571253 C138.963745,257.47253 138.682553,257.592359 138.583149,257.838827" id="Fill-205" fill="#F9D852"></path>
                <path d="M141.939064,252.133976 C141.83966,252.381125 141.959489,252.661636 142.208,252.761721 C142.453787,252.860444 142.734979,252.741976 142.835064,252.494147 C142.934468,252.246998 142.814638,251.965125 142.56817,251.865721 C142.32034,251.766317 142.038468,251.886827 141.939064,252.133976" id="Fill-206" fill="#F9D852"></path>
                <path d="M143.630298,254.914572 C143.530894,255.161721 143.650043,255.443593 143.896511,255.542998 C144.14434,255.642402 144.425532,255.522572 144.525617,255.274742 C144.625021,255.027593 144.504511,254.747083 144.256681,254.646998 C144.010894,254.548274 143.730383,254.667423 143.630298,254.914572" id="Fill-207" fill="#F9D852"></path>
                <path d="M146.107915,248.758998 C146.008511,249.006147 146.129021,249.285296 146.375489,249.3847 C146.623319,249.484104 146.90383,249.366317 147.003234,249.119168 C147.102638,248.872019 146.982809,248.590827 146.734979,248.490742 C146.488511,248.392019 146.208,248.511849 146.107915,248.758998" id="Fill-208" fill="#F9D852"></path>
                <path d="M145.620426,242.986742 C145.521021,243.235253 145.641532,243.515083 145.889362,243.615168 C146.13583,243.714572 146.41634,243.596104 146.516426,243.348274 C146.61583,243.101125 146.496,242.819253 146.249532,242.72053 C146.001021,242.620444 145.71983,242.740274 145.620426,242.986742" id="Fill-209" fill="#F9D852"></path>
                <path d="M130.624,250.200359 C130.524596,250.446827 130.644426,250.727338 130.892255,250.826061 C131.139404,250.926147 131.419915,250.807678 131.519319,250.56053 C131.619404,250.3127 131.499574,250.031508 131.251745,249.932104 C131.004596,249.8327 130.723404,249.95253 130.624,250.200359" id="Fill-210" fill="#F9D852"></path>
                <path d="M134.15966,240.121721 C133.960851,240.6167 134.200511,241.177721 134.694809,241.37653 C135.189787,241.576019 135.75217,241.338402 135.950979,240.843423 C136.150468,240.349125 135.910128,239.786061 135.415149,239.586572 C134.920851,239.387764 134.358468,239.628104 134.15966,240.121721" id="Fill-211" fill="#F9D852"></path>
                <path d="M47.1707234,219.449721 C46.9181277,219.690742 46.6668936,219.935168 46.418383,220.183678 C29.4325106,237.16887 29.4325106,264.706572 46.418383,281.691764 C63.4035745,298.676955 90.9405957,298.676955 107.926468,281.691764 C108.174979,281.443253 108.419404,281.192019 108.660426,280.939423 L47.1707234,219.449721" id="Fill-212" fill="#45AD4C"></path>
                <path d="M49.7300426,222.00904 C49.4978723,222.230317 49.2684255,222.454317 49.0403404,222.682402 C33.4692766,238.253466 33.4692766,263.498742 49.0403404,279.069125 C64.6107234,294.64087 89.8566809,294.64087 105.427745,279.069125 C105.65583,278.841721 105.87983,278.612274 106.100426,278.379423 L49.7300426,222.00904" id="Fill-213" fill="#A0CE91"></path>
                <path d="M51.0161702,223.295168 C50.7948936,223.506232 50.5749787,223.7207 50.3584681,223.937891 C35.4975319,238.798147 35.4975319,262.892104 50.3577872,277.752359 C65.2173617,292.612615 89.3113191,292.612615 104.172936,277.751678 C104.389447,277.535168 104.603915,277.315253 104.814298,277.093296 L51.0161702,223.295168" id="Fill-214" fill="#E05273"></path>
                <path d="M49.6231489,236.371593 C48.5269787,237.467764 48.5262979,239.244104 49.6231489,240.340274 C50.7186383,241.435764 52.4956596,241.435764 53.5918298,240.340274 C55.2714894,238.660615 54.6464681,235.316955 54.6464681,235.316955 C54.6464681,235.316955 51.3926809,234.602061 49.6231489,236.371593" id="Fill-215" fill="#173944"></path>
                <path d="M69.9131915,256.660955 C68.8163404,257.757125 68.8163404,259.534147 69.9131915,260.629636 C71.0086809,261.725806 72.7850213,261.725806 73.8811915,260.628955 C75.5601702,258.949976 74.9365106,255.606998 74.9365106,255.606998 C74.9365106,255.606998 71.6820426,254.891423 69.9131915,256.660955" id="Fill-216" fill="#173944"></path>
                <path d="M87.5206809,274.269125 C86.4251915,275.364615 86.4251915,277.141636 87.5206809,278.238487 C88.6161702,279.333296 90.3938723,279.333296 91.4893617,278.237806 C93.1690213,276.558147 92.5446809,273.214487 92.5446809,273.214487 C92.5446809,273.214487 89.2908936,272.499593 87.5206809,274.269125" id="Fill-217" fill="#173944"></path>
                <path d="M52.836766,253.72853 C51.7405957,254.824019 51.7405957,256.60104 52.836766,257.69653 C53.9322553,258.7927 55.7092766,258.7927 56.8054468,257.69653 C58.4844255,256.017551 57.8594043,252.67321 57.8594043,252.67321 C57.8594043,252.67321 54.6062979,251.958317 52.836766,253.72853" id="Fill-218" fill="#173944"></path>
                <path d="M71.9387234,272.829806 C70.8425532,273.925976 70.8418723,275.702317 71.9380426,276.798487 C73.0342128,277.894657 74.811234,277.894657 75.9067234,276.798487 C77.586383,275.119508 76.9613617,271.775168 76.9613617,271.775168 C76.9613617,271.775168 73.7082553,271.060274 71.9387234,272.829806" id="Fill-219" fill="#173944"></path>
                <path d="M57.0035745,271.106572 C55.9074043,272.202742 55.9074043,273.979764 57.0042553,275.075253 C58.0990638,276.170742 59.8754043,276.171423 60.9722553,275.075253 C62.651234,273.395593 62.0268936,270.051934 62.0268936,270.051934 C62.0268936,270.051934 58.7724255,269.337721 57.0035745,271.106572" id="Fill-220" fill="#173944"></path>
                <path d="M57.6381277,241.710827 C56.8497021,241.710827 56.0619574,241.409891 55.460766,240.8087 L54.180766,239.529381 C55.1046809,237.770061 54.6464681,235.316955 54.6464681,235.316955 C54.6464681,235.316955 53.9962553,235.173976 53.12,235.173976 C52.3043404,235.173976 51.2932766,235.29721 50.4251915,235.773806 L48.6597447,234.008359 C47.4573617,232.805296 47.4573617,230.856019 48.6597447,229.653636 C49.2609362,229.052444 50.0486809,228.751508 50.8371064,228.751508 C51.6248511,228.751508 52.4132766,229.052444 53.0144681,229.653636 L59.8154894,236.454657 C61.0171915,237.656359 61.0171915,239.606317 59.8154894,240.8087 C59.213617,241.409891 58.4258723,241.710827 57.6381277,241.710827" id="Fill-221" fill="#E9869B"></path>
                <path d="M54.180766,239.529381 L50.4251915,235.773806 C51.2932766,235.29721 52.3043404,235.173976 53.12,235.173976 C53.9962553,235.173976 54.6464681,235.316955 54.6464681,235.316955 C54.6464681,235.316955 55.1046809,237.770061 54.180766,239.529381" id="Fill-222" fill="#698287"></path>
                <path d="M65.9261277,249.998827 C65.1377021,249.998827 64.3499574,249.697891 63.748766,249.0967 L61.4365957,246.78521 C60.2342128,245.582147 60.2342128,243.633551 61.4365957,242.430487 C62.0377872,241.829296 62.8262128,241.528359 63.6139574,241.528359 C64.4017021,241.528359 65.1901277,241.829296 65.7913191,242.430487 L68.1028085,244.741976 C69.3051915,245.944359 69.3051915,247.894317 68.1028085,249.0967 C67.501617,249.697891 66.7138723,249.998827 65.9261277,249.998827" id="Fill-223" fill="#E9869B"></path>
                <path d="M24.2519149,166.188104 C24.2519149,167.490572 23.1959149,168.545891 21.8934468,168.545891 C20.5909787,168.545891 19.5349787,167.490572 19.5349787,166.188104 C19.5349787,164.884955 20.5909787,163.829636 21.8934468,163.829636 C23.1959149,163.829636 24.2519149,164.884955 24.2519149,166.188104" id="Fill-224" fill="#EA8737"></path>
                <path d="M22.4285957,192.116955 C22.4285957,193.419423 21.3732766,194.474742 20.0708085,194.474742 C18.7676596,194.474742 17.7123404,193.419423 17.7123404,192.116955 C17.7123404,190.813806 18.7676596,189.758487 20.0708085,189.758487 C21.3732766,189.758487 22.4285957,190.813806 22.4285957,192.116955" id="Fill-225" fill="#EA8737"></path>
                <path d="M31.4777872,217.144359 C31.4777872,218.446827 30.4224681,219.502827 29.12,219.502827 C27.8168511,219.502827 26.7615319,218.446827 26.7615319,217.144359 C26.7615319,215.841891 27.8168511,214.785891 29.12,214.785891 C30.4224681,214.785891 31.4777872,215.841891 31.4777872,217.144359" id="Fill-226" fill="#EA8737"></path>
                <path d="M33.8362553,181.391508 C33.8362553,182.693976 32.7802553,183.749296 31.4777872,183.749296 C30.1753191,183.749296 29.12,182.693976 29.12,181.391508 C29.12,180.08904 30.1753191,179.03304 31.4777872,179.03304 C32.7802553,179.03304 33.8362553,180.08904 33.8362553,181.391508" id="Fill-227" fill="#FFFFFF"></path>
                <path d="M15.2122553,154.342657 C15.2122553,154.994232 14.6839149,155.521891 14.0323404,155.521891 C13.380766,155.521891 12.8531064,154.994232 12.8531064,154.342657 C12.8531064,153.691764 13.380766,153.163423 14.0323404,153.163423 C14.6839149,153.163423 15.2122553,153.691764 15.2122553,154.342657" id="Fill-228" fill="#FFFFFF"></path>
                <path d="M12.8531064,128.090402 C12.8531064,128.741976 12.324766,129.269636 11.6731915,129.269636 C11.021617,129.269636 10.4939574,128.741976 10.4939574,128.090402 C10.4939574,127.439508 11.021617,126.911849 11.6731915,126.911849 C12.324766,126.911849 12.8531064,127.439508 12.8531064,128.090402" id="Fill-229" fill="#FFFFFF"></path>
                <path d="M5.32970213,150.123423 C5.32970213,151.425891 4.27370213,152.481891 2.97123404,152.481891 C1.66876596,152.481891 0.612765957,151.425891 0.612765957,150.123423 C0.612765957,148.820955 1.66876596,147.764955 2.97123404,147.764955 C4.27370213,147.764955 5.32970213,148.820955 5.32970213,150.123423" id="Fill-230" fill="#3468A4"></path>
                <path d="M18.176,221.052444 C18.176,222.354913 17.12,223.410232 15.8175319,223.410232 C14.5150638,223.410232 13.4597447,222.354913 13.4597447,221.052444 C13.4597447,219.749296 14.5150638,218.693976 15.8175319,218.693976 C17.12,218.693976 18.176,219.749296 18.176,221.052444" id="Fill-231" fill="#3468A4"></path>
                <path d="M5.32970213,126.509466 C5.32970213,127.811934 4.27370213,128.867934 2.97123404,128.867934 C1.66876596,128.867934 0.612765957,127.811934 0.612765957,126.509466 C0.612765957,125.206998 1.66876596,124.150998 2.97123404,124.150998 C4.27370213,124.150998 5.32970213,125.206998 5.32970213,126.509466" id="Fill-232" fill="#3468A4"></path>
                <path d="M39.2415319,154.840359 C39.2415319,155.21687 38.9358298,155.521891 38.5593191,155.521891 C38.1828085,155.521891 37.8777872,155.21687 37.8777872,154.840359 C37.8777872,154.463168 38.1828085,154.158147 38.5593191,154.158147 C38.9358298,154.158147 39.2415319,154.463168 39.2415319,154.840359" id="Fill-233" fill="#3468A4"></path>
                <path d="M24.9334468,154.930913 C24.9334468,155.308104 24.6284255,155.613125 24.251234,155.613125 C23.8747234,155.613125 23.5697021,155.308104 23.5697021,154.930913 C23.5697021,154.554402 23.8747234,154.249381 24.251234,154.249381 C24.6284255,154.249381 24.9334468,154.554402 24.9334468,154.930913" id="Fill-234" fill="#3468A4"></path>
                <path d="M12.8653617,187.643083 C12.8653617,188.945551 11.8100426,190.001551 10.5075745,190.001551 C9.20442553,190.001551 8.14910638,188.945551 8.14910638,187.643083 C8.14910638,186.340615 9.20442553,185.284615 10.5075745,185.284615 C11.8100426,185.284615 12.8653617,186.340615 12.8653617,187.643083" id="Fill-235" fill="#E46A80"></path>
                <path d="M36.1947234,248.715423 C36.1947234,250.018572 35.1387234,251.073891 33.8362553,251.073891 C32.5337872,251.073891 31.4777872,250.018572 31.4777872,248.715423 C31.4777872,247.412955 32.5337872,246.357636 33.8362553,246.357636 C35.1387234,246.357636 36.1947234,247.412955 36.1947234,248.715423" id="Fill-236" fill="#E46A80"></path>
                <path d="M40.2362553,137.090572 C40.2362553,138.39304 39.1802553,139.44904 37.8777872,139.44904 C36.5753191,139.44904 35.5193191,138.39304 35.5193191,137.090572 C35.5193191,135.788104 36.5753191,134.732104 37.8777872,134.732104 C39.1802553,134.732104 40.2362553,135.788104 40.2362553,137.090572" id="Fill-237" fill="#E46A80"></path>
                <path d="M5.62451064,175.474913 C5.62451064,176.126487 5.09617021,176.654147 4.44459574,176.654147 C3.79370213,176.654147 3.26604255,176.126487 3.26604255,175.474913 C3.26604255,174.824019 3.79370213,174.295678 4.44459574,174.295678 C5.09617021,174.295678 5.62451064,174.824019 5.62451064,175.474913" id="Fill-238" fill="#E46A80"></path>
                <path d="M295.747404,166.188104 C295.747404,167.490572 296.803404,168.545891 298.105872,168.545891 C299.40834,168.545891 300.46434,167.490572 300.46434,166.188104 C300.46434,164.884955 299.40834,163.829636 298.105872,163.829636 C296.803404,163.829636 295.747404,164.884955 295.747404,166.188104" id="Fill-239" fill="#EA8737"></path>
                <path d="M297.570723,192.116955 C297.570723,193.419423 298.626043,194.474742 299.929191,194.474742 C301.23166,194.474742 302.286979,193.419423 302.286979,192.116955 C302.286979,190.813806 301.23166,189.758487 299.929191,189.758487 C298.626043,189.758487 297.570723,190.813806 297.570723,192.116955" id="Fill-240" fill="#EA8737"></path>
                <path d="M288.521532,217.144359 C288.521532,218.446827 289.576851,219.502827 290.879319,219.502827 C292.182468,219.502827 293.237787,218.446827 293.237787,217.144359 C293.237787,215.841891 292.182468,214.785891 290.879319,214.785891 C289.576851,214.785891 288.521532,215.841891 288.521532,217.144359" id="Fill-241" fill="#EA8737"></path>
                <path d="M286.163064,181.391508 C286.163064,182.693976 287.219064,183.749296 288.521532,183.749296 C289.824,183.749296 290.879319,182.693976 290.879319,181.391508 C290.879319,180.08904 289.824,179.03304 288.521532,179.03304 C287.219064,179.03304 286.163064,180.08904 286.163064,181.391508" id="Fill-242" fill="#FFFFFF"></path>
                <path d="M304.787064,154.342657 C304.787064,154.994232 305.315404,155.521891 305.966979,155.521891 C306.618553,155.521891 307.146213,154.994232 307.146213,154.342657 C307.146213,153.691764 306.618553,153.163423 305.966979,153.163423 C305.315404,153.163423 304.787064,153.691764 304.787064,154.342657" id="Fill-243" fill="#FFFFFF"></path>
                <path d="M307.146213,128.090402 C307.146213,128.741976 307.673872,129.269636 308.326128,129.269636 C308.977702,129.269636 309.505362,128.741976 309.505362,128.090402 C309.505362,127.439508 308.977702,126.911849 308.326128,126.911849 C307.673872,126.911849 307.146213,127.439508 307.146213,128.090402" id="Fill-244" fill="#FFFFFF"></path>
                <path d="M314.669617,150.123423 C314.669617,151.425891 315.725617,152.481891 317.028085,152.481891 C318.330553,152.481891 319.386553,151.425891 319.386553,150.123423 C319.386553,148.820955 318.330553,147.764955 317.028085,147.764955 C315.725617,147.764955 314.669617,148.820955 314.669617,150.123423" id="Fill-245" fill="#3468A4"></path>
                <path d="M301.823319,221.052444 C301.823319,222.354913 302.879319,223.410232 304.181787,223.410232 C305.484255,223.410232 306.539574,222.354913 306.539574,221.052444 C306.539574,219.749296 305.484255,218.693976 304.181787,218.693976 C302.879319,218.693976 301.823319,219.749296 301.823319,221.052444" id="Fill-246" fill="#3468A4"></path>
                <path d="M314.669617,126.509466 C314.669617,127.811934 315.725617,128.867934 317.028085,128.867934 C318.330553,128.867934 319.386553,127.811934 319.386553,126.509466 C319.386553,125.206998 318.330553,124.150998 317.028085,124.150998 C315.725617,124.150998 314.669617,125.206998 314.669617,126.509466" id="Fill-247" fill="#3468A4"></path>
                <path d="M280.757787,154.840359 C280.757787,155.21687 281.063489,155.521891 281.44,155.521891 C281.816511,155.521891 282.121532,155.21687 282.121532,154.840359 C282.121532,154.463168 281.816511,154.158147 281.44,154.158147 C281.063489,154.158147 280.757787,154.463168 280.757787,154.840359" id="Fill-248" fill="#3468A4"></path>
                <path d="M295.065872,154.930913 C295.065872,155.308104 295.370894,155.613125 295.748085,155.613125 C296.124596,155.613125 296.429617,155.308104 296.429617,154.930913 C296.429617,154.554402 296.124596,154.249381 295.748085,154.249381 C295.370894,154.249381 295.065872,154.554402 295.065872,154.930913" id="Fill-249" fill="#3468A4"></path>
                <path d="M307.133957,187.643083 C307.133957,188.945551 308.189277,190.001551 309.491745,190.001551 C310.794213,190.001551 311.850213,188.945551 311.850213,187.643083 C311.850213,186.340615 310.794213,185.284615 309.491745,185.284615 C308.189277,185.284615 307.133957,186.340615 307.133957,187.643083" id="Fill-250" fill="#E46A80"></path>
                <path d="M283.804596,248.715423 C283.804596,250.018572 284.860596,251.073891 286.163064,251.073891 C287.465532,251.073891 288.521532,250.018572 288.521532,248.715423 C288.521532,247.412955 287.465532,246.357636 286.163064,246.357636 C284.860596,246.357636 283.804596,247.412955 283.804596,248.715423" id="Fill-251" fill="#E46A80"></path>
                <path d="M279.763064,137.090572 C279.763064,138.39304 280.819064,139.44904 282.121532,139.44904 C283.424,139.44904 284.48,138.39304 284.48,137.090572 C284.48,135.788104 283.424,134.732104 282.121532,134.732104 C280.819064,134.732104 279.763064,135.788104 279.763064,137.090572" id="Fill-252" fill="#E46A80"></path>
                <path d="M314.374809,175.474913 C314.374809,176.126487 314.903149,176.654147 315.554723,176.654147 C316.205617,176.654147 316.733277,176.126487 316.733277,175.474913 C316.733277,174.824019 316.205617,174.295678 315.554723,174.295678 C314.903149,174.295678 314.374809,174.824019 314.374809,175.474913" id="Fill-253" fill="#E46A80"></path>
            </g>
            <g id="水果英语" fill-opacity="1" fill="#FFFFFF">
                <use filter="url(#filter-2)" xlink:href="#text-1"></use>
                <use xlink:href="#text-1"></use>
            </g>
        </g>
    </g>
</svg>