<?xml version="1.0" encoding="UTF-8"?>
<svg width="750px" height="705px" viewBox="0 0 750 705" version="1.1" xmlns="http://www.w3.org/2000/svg" xmlns:xlink="http://www.w3.org/1999/xlink">
    <!-- Generator: Sketch 46.2 (44496) - http://www.bohemiancoding.com/sketch -->
    <title>星星</title>
    <desc>Created with Sketch.</desc>
    <defs></defs>
    <g id="Page-1" stroke="none" stroke-width="1" fill="none" fill-rule="evenodd">
        <g id="星星">
            <path d="M151.014493,612.608696 C150,612.608696 149.057971,612.536232 148.043478,612.391304 C138.550725,610.724638 132.173913,601.73913 133.84058,592.318841 L137.101449,573.333333 C138.695652,563.84058 147.753623,557.536232 157.173913,559.130435 C166.666667,560.797101 173.043478,569.782609 171.376812,579.202899 L168.115942,598.188406 C166.666667,606.666667 159.347826,612.608696 151.014493,612.608696 Z" id="Shape" fill="#000000" fill-rule="nonzero"></path>
            <path d="M593.478261,338.405797 L416.086957,312.608696 C410.434783,311.811594 405.507246,308.188406 402.971014,303.115942 L348.768116,193.26087 L298.333333,295.434783 L244.202899,303.26087 C241.666667,308.333333 236.811594,311.811594 231.15942,312.608696 L92.6086957,332.753623 L239.565217,476.014493 L213.985507,625.57971 L315.507246,572.173913 C320.57971,569.492754 326.666667,569.492754 331.73913,572.173913 L377.173913,596.086957 L393.26087,587.608696 L487.246377,637.028986 L460.144928,478.985507 C459.202899,473.333333 461.086957,467.536232 465.144928,463.550725 L593.478261,338.405797 Z" id="Shape" fill="#FDD72C" fill-rule="nonzero"></path>
            <path d="M514.565217,704.855072 C511.811594,704.855072 508.985507,704.202899 506.449275,702.826087 L324.637681,607.318841 L142.826087,702.898551 C136.956522,706.014493 129.855072,705.434783 124.492754,701.594203 C119.130435,697.681159 116.449275,691.086957 117.536232,684.565217 L125.869565,635.869565 C127.463768,626.376812 136.594203,620 145.942029,621.666667 C155.434783,623.333333 161.811594,632.318841 160.144928,641.73913 L157.753623,655.652174 L316.449275,572.246377 C321.521739,569.565217 327.608696,569.565217 332.681159,572.246377 L491.376812,655.652174 L461.086957,478.985507 C460.144928,473.333333 462.028986,467.536232 466.086957,463.550725 L594.492754,338.405797 L417.101449,312.608696 C411.449275,311.811594 406.521739,308.188406 403.985507,303.115942 L324.637681,142.318841 L245.362319,303.115942 C242.826087,308.26087 237.898551,311.811594 232.246377,312.608696 L54.8550725,338.405797 L183.26087,463.550725 C187.391304,467.536232 189.275362,473.333333 188.26087,478.985507 L179.492754,529.927536 C177.826087,539.42029 168.913043,545.797101 159.42029,544.130435 C149.927536,542.536232 143.550725,533.478261 145.217391,524.057971 L152.391304,482.173913 L5.28985507,338.84058 C0.507246377,334.202899 -1.15942029,327.318841 0.869565217,321.014493 C2.89855072,314.710145 8.33333333,310.144928 14.9275362,309.202899 L218.188406,279.637681 L309.057971,95.2898551 C312.028986,89.3478261 318.043478,85.5797101 324.637681,85.5797101 C331.231884,85.5797101 337.318841,89.3478261 340.217391,95.2898551 L431.15942,279.492754 L634.42029,309.057971 C640.942029,310 646.449275,314.565217 648.478261,320.869565 C650.507246,327.173913 648.84058,334.130435 644.057971,338.695652 L497.028986,482.101449 L531.73913,684.565217 C532.826087,691.086957 530.144928,697.681159 524.782609,701.594203 C521.811594,703.768116 518.188406,704.855072 514.565217,704.855072 Z" id="Shape" fill="#000000" fill-rule="nonzero"></path>
            <g id="Group" transform="translate(257.971014, 415.434783)" fill-rule="nonzero">
                <path d="M0.683401449,11.4815659 C0.683401449,17.7268005 5.74616436,22.7895634 11.9913989,22.7895634 C18.2366335,22.7895634 23.2993964,17.7268005 23.2993964,11.4815659 C23.2993964,5.23633139 18.2366335,0.173568478 11.9913989,0.173568478 C5.74616436,0.173568478 0.683401449,5.23633139 0.683401449,11.4815659 L0.683401449,11.4815659 Z" id="Shape" fill="#000000"></path>
                <path d="M109.995773,11.4815659 C109.995773,17.7268005 115.058536,22.7895634 121.303771,22.7895634 C127.549005,22.7895634 132.611768,17.7268005 132.611768,11.4815659 C132.611768,5.23633139 127.549005,0.173568478 121.303771,0.173568478 C115.058536,0.173568478 109.995773,5.23633139 109.995773,11.4815659 Z" id="Shape" fill="#000000"></path>
                <path d="M90.9351833,28.9781341 C91.1206696,27.3050464 89.7384246,25.9346717 88.0527239,25.9346725 L39.2786848,25.9346725 C37.5966935,25.9346725 36.2159319,27.3050464 36.3984507,28.9781341 C37.9127623,42.6974558 49.5427638,53.3703471 63.6686717,53.3703471 C77.7930957,53.3696051 89.4230971,42.6974558 90.9351833,28.9781341 Z" id="Shape" fill="#000000"></path>
                <path d="M72.5141507,45.0568435 C72.5141507,47.5304913 68.3911572,49.5411645 63.3066022,49.5411645 C58.219821,49.5411645 54.0953442,47.5312333 54.0953442,45.0568435 C54.0953442,42.5802283 58.2198217,40.5725225 63.3066022,40.5725225 C68.3911572,40.5732645 72.5141507,42.5802283 72.5141507,45.0568435 Z" id="Shape" fill="#FD631F"></path>
            </g>
            <g id="Group-2" transform="translate(264.000000, 193.000000)">
                <polygon id="Triangle" fill="#F97C21" transform="translate(251.431143, 172.109902) rotate(72.000000) translate(-251.431143, -172.109902) " points="251.431143 86.8766662 341.121146 257.343137 161.741141 257.343137"></polygon>
                <polygon id="Triangle" fill="#F97C21" transform="translate(175.221996, 380.869701) rotate(143.000000) translate(-175.221996, -380.869701) " points="175.221996 296.109522 264.414207 465.629881 86.0297858 465.629881"></polygon>
                <polygon id="Triangle" fill="#F97C21" transform="translate(84.875957, 78.929893) rotate(1.000000) translate(-84.875957, -78.929893) " points="84.8759567 2.24944072 165.565959 155.610346 4.1859543 155.610346"></polygon>
                <polygon id="Triangle" fill="#FDD72C" transform="translate(74.874499, 87.326071) rotate(1.000000) translate(-74.874499, -87.326071) " points="74.8744986 18.2480924 147.564501 156.40405 2.18449616 156.40405"></polygon>
                <polygon id="Triangle" fill="#FDD72C" transform="translate(218.933351, 179.636846) rotate(72.000000) translate(-218.933351, -179.636846) " points="218.933351 94.8766662 308.125562 264.397025 129.741141 264.397025"></polygon>
                <polygon id="Triangle" fill="#FDD72C" transform="translate(160.275724, 378.382095) rotate(143.000000) translate(-160.275724, -378.382095) " points="160.275724 299.325869 243.465727 457.438321 77.0857217 457.438321"></polygon>
            </g>
            <g id="Group-3" transform="translate(445.000000, 0.000000)" fill-rule="nonzero">
                <path d="M211.48449,155.294175 C201.130962,155.294175 192.707457,146.874766 192.707457,136.527381 C192.707457,126.1759 201.130962,117.754444 211.48449,117.754444 C221.833923,117.754444 230.25538,126.175901 230.255379,136.527381 C230.256403,146.874766 221.833922,155.294175 211.48449,155.294175 Z M211.48449,122.165341 C203.562689,122.165341 197.118355,128.608651 197.118355,136.527381 C197.118355,144.443038 203.562689,150.883277 211.48449,150.883277 C219.402195,150.883277 225.844482,144.443038 225.844481,136.527381 C225.844481,128.608652 219.402195,122.165342 211.48449,122.165341 Z M132.000272,127.62777 C129.935786,127.627205 128.262173,125.954049 128.261043,123.889564 L128.261043,120.143168 C128.261043,117.89062 126.436479,116.067081 124.176764,116.06708 C121.924872,116.066514 120.098735,117.891276 120.097605,120.143168 L120.097605,123.889564 C120.097605,124.881175 119.703619,125.832158 119.002348,126.533237 C118.301077,127.234316 117.349987,127.628042 116.358376,127.62777 L112.619147,127.62777 C111.145474,127.604416 109.773638,128.377239 109.029978,129.649728 C108.286317,130.922217 108.286317,132.49676 109.029978,133.769249 C109.773638,135.041738 111.145474,135.814561 112.619147,135.791207 L116.358376,135.791207 C117.350081,135.791207 118.301169,136.18516 119.002411,136.886402 C119.703652,137.587644 120.097605,138.538732 120.097605,139.530437 L120.097605,143.269666 C120.097605,145.522214 121.926264,147.348825 124.176764,147.348825 C125.259511,147.350184 126.298377,146.921017 127.064475,146.155879 C127.830574,145.390741 128.261044,144.352414 128.261043,143.269666 L128.261043,139.530437 C128.261608,137.465552 129.935387,135.791772 132.000272,135.791207 L135.743597,135.791207 C137.997848,135.788947 139.82424,133.961181 139.824804,131.706929 C139.824804,129.454381 137.992049,127.62777 135.743597,127.62777 L132.000272,127.62777 L132.000272,127.62777 Z" id="Shape" fill="#FD5C1E"></path>
                <path d="M291.395668,60.936999 C289.738058,60.9380863 288.148026,60.2800847 286.975918,59.1079768 C285.80381,57.9358689 285.145809,56.3458375 285.146896,54.688227 L285.146896,48.436383 C285.14407,44.6710141 282.091142,41.6199191 278.325772,41.619355 C274.561767,41.621614 271.511003,44.6723783 271.508743,48.436383 L271.508743,54.688227 C271.509015,56.3459426 270.85047,57.9358106 269.678096,59.1078005 C268.505722,60.2797904 266.915638,60.9378141 265.257923,60.936999 L259.005055,60.936999 C257.196169,60.9375419 255.461615,61.6567803 254.183115,62.9364322 C252.904616,64.2160841 252.18694,65.9512848 252.188027,67.760171 C252.188027,69.5679711 252.906313,71.3016984 254.184812,72.5798141 C255.463312,73.8579299 257.197255,74.575695 259.005055,74.575152 L265.257923,74.575152 C266.915816,74.5743367 268.506055,75.232501 269.678458,76.4047124 C270.850862,77.5769238 271.509287,79.167055 271.508743,80.824948 L271.508743,87.080887 C271.511569,90.8438287 274.562829,93.8927976 278.325772,93.892796 C282.09008,93.8944936 285.143505,90.8451937 285.146896,87.080887 L285.146896,80.824948 C285.145537,79.1671602 285.803418,77.5768654 286.975556,76.404536 C288.147693,75.2322065 289.73788,74.5740643 291.395668,74.575152 L297.646488,74.575152 C299.454433,74.5767839 301.188798,73.859303 302.467209,72.5808922 C303.74562,71.3024814 304.4631,69.568116 304.461468,67.760171 C304.463914,65.9512239 303.746957,64.2155438 302.468606,62.9356557 C301.190254,61.6557677 299.455437,60.9367258 297.646488,60.936999 L291.395668,60.936999 L291.395668,60.936999 Z" id="Shape" fill="#FED62C"></path>
                <path d="M36.085766,178.311117 C35.2022627,178.310842 34.3549862,178.662251 33.7310241,179.28775 C33.1070619,179.91325 32.7577381,180.761388 32.760187,181.644888 L32.751996,196.293615 C32.751996,198.128418 34.248916,199.619195 36.092934,199.62329 C37.9291946,199.617663 39.4160635,198.129879 39.420561,196.293615 L39.420561,181.644888 C39.4199956,179.803531 37.9271226,178.311117 36.085766,178.311117 L36.085766,178.311117 Z M36.085766,228.926888 C34.2468736,228.928577 32.7559449,230.417674 32.751996,232.256563 L32.760187,246.909386 C32.760187,248.748315 34.2509333,250.239061 36.089862,250.239061 C37.9287907,250.239061 39.419537,248.748315 39.419537,246.909386 L39.419537,232.256563 C39.418994,231.372935 39.0674533,230.525714 38.44225,229.901279 C37.8170466,229.276844 36.9693939,228.926345 36.085766,228.926888 L36.085766,228.926888 Z M21.019294,203.91337 C21.6430602,204.539055 22.4902214,204.890723 23.373718,204.890723 C24.2572146,204.890723 25.1043758,204.539055 25.728142,203.91337 C26.3538276,203.289604 26.7054959,202.442442 26.7054959,201.558946 C26.7054959,200.675449 26.3538276,199.828287 25.728142,199.204521 L15.367447,188.844849 C14.06005,187.588345 11.987721,187.608573 10.7051,188.890358 C9.42247904,190.172142 9.40089942,192.244458 10.65655,193.552674 L21.019294,203.91337 L21.019294,203.91337 Z M51.152239,224.636809 C50.5299679,224.011051 49.6838917,223.659209 48.8013985,223.659209 C47.9189053,223.659209 47.0728291,224.011051 46.450558,224.636809 C45.8256277,225.260977 45.4744814,226.107987 45.4744814,226.991233 C45.4744814,227.874479 45.8256277,228.721489 46.450558,229.345657 L56.813301,239.705329 C58.1233924,240.947804 60.1850338,240.919718 61.4607923,239.642015 C62.7365509,238.364313 62.7614981,236.302631 61.51703,234.994433 L51.152239,224.636809 Z M21.432944,214.276113 C21.4337598,213.393321 21.0834334,212.546452 20.4592052,211.922224 C19.8349769,211.297996 18.9881076,210.94767 18.105316,210.948486 L3.454541,210.948486 C2.57112366,210.946854 1.72335957,211.296787 1.09830402,211.921074 C0.473248459,212.545361 0.12227272,213.392694 0.122818,214.276113 C0.124513058,216.115139 1.61551451,217.605224 3.454541,217.605788 L18.105316,217.605788 C18.9883794,217.606332 19.8354014,217.255638 20.4596296,216.631026 C21.0838579,216.006413 21.4340315,215.159176 21.432944,214.276113 L21.432944,214.276113 Z M68.719039,210.948486 L54.066217,210.948486 C53.1835918,210.948757 52.3372543,211.299779 51.7135281,211.924273 C51.089802,212.548767 50.7398219,213.395536 50.740637,214.278161 C50.7398202,215.161308 51.0904274,216.008488 51.7150988,216.632775 C52.3397702,217.257062 53.187166,217.607148 54.070312,217.605788 L68.719039,217.605788 C69.6024785,217.606331 70.4499206,217.255767 71.0747988,216.631273 C71.699677,216.006779 72.0507622,215.159553 72.050762,214.276113 C72.053499,213.392025 71.7032265,212.543416 71.0776942,211.918653 C70.4521619,211.29389 69.6031234,210.944661 68.719039,210.948486 L68.719039,210.948486 Z M21.019294,224.636809 L10.65655,234.994433 C9.35714154,236.295919 9.35714154,238.403843 10.65655,239.705329 C11.2808001,240.330887 12.1282503,240.682432 13.0119985,240.682432 C13.8957467,240.682432 14.7431969,240.330887 15.367447,239.705329 L25.728142,229.345657 C26.3538273,228.721891 26.7054954,227.87473 26.7054954,226.991233 C26.7054954,226.107736 26.3538273,225.260575 25.728142,224.636809 C25.1043758,224.011124 24.2572146,223.659456 23.373718,223.659456 C22.4902214,223.659456 21.6430602,224.011124 21.019294,224.636809 L21.019294,224.636809 Z M51.158382,203.91337 L61.516006,193.552674 C62.8144984,192.252008 62.8144984,190.145515 61.516006,188.844849 C60.8933845,188.218968 60.0469695,187.867076 59.1641415,187.867076 C58.2813135,187.867076 57.4348985,188.218968 56.812277,188.844849 L46.449534,199.204521 C45.8246034,199.828689 45.4734569,200.6757 45.4734569,201.558945 C45.4734569,202.442191 45.8246034,203.289202 46.449534,203.91337 C47.0727623,204.540066 47.920125,204.892433 48.803958,204.892433 C49.687791,204.892433 50.5351537,204.540066 51.158382,203.91337 L51.158382,203.91337 Z" id="Shape" fill="#FED62C"></path>
                <path d="M123.401683,267.980946 C123.402227,269.247085 122.899496,270.461522 122.004201,271.356817 C121.108905,272.252112 119.894469,272.754843 118.62833,272.7543 C115.993493,272.7543 113.857536,270.618343 113.857536,267.983506 C113.857536,265.348669 115.993493,263.212712 118.62833,263.212712 C119.893748,263.211625 121.107724,263.713479 122.00299,264.607785 C122.898256,265.50209 123.401412,266.715528 123.401683,267.980946 Z" id="Shape" fill="#FD5C1E"></path>
                <path d="M174.020526,212.87851 C174.047184,214.830051 173.021255,216.644846 171.335411,217.628287 C169.649568,218.611728 167.564859,218.611531 165.879202,217.627771 C164.193545,216.644011 163.167959,214.829022 163.194986,212.877486 C163.235984,209.917131 165.647622,207.538885 168.608261,207.539165 C171.5689,207.539445 173.980088,209.918147 174.020526,212.87851 L174.020526,212.87851 Z M83.669813,39.135409 C83.669248,43.6236913 80.031517,47.2623386 75.543235,47.264034 C71.0898051,47.2140227 67.5058865,43.5896312 67.5058865,39.1359205 C67.5058865,34.6822098 71.0898051,31.0578183 75.543235,31.007807 C80.026829,31.007807 83.669813,34.650791 83.669813,39.135409 L83.669813,39.135409 Z" id="Shape" fill="#FDD72C"></path>
                <path d="M159.231526,42.650407 C147.646264,42.650407 138.220375,33.224519 138.220375,21.64028 C138.220375,10.050922 147.646263,0.62401 159.231526,0.62401 C170.816788,0.62401 180.244725,10.051946 180.244725,21.64028 C180.244725,33.225542 170.817813,42.650407 159.231526,42.650407 Z M159.231526,7.241381 C151.294367,7.241381 144.836722,13.701074 144.836722,21.641304 C144.836722,29.577439 151.294367,36.035084 159.231526,36.035084 C167.170733,36.035084 173.628378,29.577439 173.628378,21.641304 C173.628378,13.700049 167.170733,7.241381 159.231526,7.241381 Z" id="Shape" fill="#2BA9FC"></path>
            </g>
        </g>
    </g>
</svg>