<?xml version="1.0" encoding="UTF-8"?>
<svg width="85px" height="84px" viewBox="0 0 85 84" version="1.1" xmlns="http://www.w3.org/2000/svg" xmlns:xlink="http://www.w3.org/1999/xlink">
    <!-- Generator: Sketch 49.3 (51167) - http://www.bohemiancoding.com/sketch -->
    <title>Group 2</title>
    <desc>Created with Sketch.</desc>
    <defs></defs>
    <g id="Page-1" stroke="none" stroke-width="1" fill="none" fill-rule="evenodd">
        <g id="218618-P0UMU2-537" transform="translate(-53.000000, -360.000000)">
            <g id="Group-2" transform="translate(53.000000, 360.000000)">
                <path d="M37.49,48 C37.62,43.519 33.46,39.47 29.06,39.24 C24.51,39 20.51,42.51 19.94,46.95 C19.83,47.84 21.18,47.92 21.43,47.15 C22.52,43.88 25.4,41.14 29.06,41.41 C32.86,41.69 34.79,44.95 35.49,48.269 C35.74,49.42 37.46,49.12 37.49,48 M64.5,48.8 C64.71,50.07 66.94,49.78 66.76,48.49 C65.43,38.53 51.38,35.75 47.75,45.8 C47.42,46.72 48.83,47.27 49.3,46.46 C53.31,39.55 63.12,40.54 64.5,48.8 M70.73,28.14 C74.4,29.4 81.95,30.41 80.97,35.41 C80.38,38.44 77.02,42.44 75.49,45.17 C73.66,48.41 71.76,51.63 70.08,54.96 C70.01,55.1 69.97,55.24 69.95,55.38 C69.43,54.08 67.19,54.82 67.44,56.4 C68.12,60.75 68.58,65.12 68.7,69.52 C68.81,73.29 70.36,80.2 64.98,80.42 C61.83,80.54 56.99,77.98 53.92,77.07 C50.52,76.07 47.11,75.08 43.66,74.23 C43.5,73.6 42.92,73.07 42.19,73.34 C37.76,74.94 33.47,76.78 28.91,78.04 C24.96,79.12 19.47,81.12 15.42,80.64 C9.1,79.9 12.6,72.25 13.22,68.3 C13.93,63.88 14.13,59.46 13.88,55 C13.85,54.41 13.42,54.11 12.98,54.1 C12.12,50.55 10.03,47.35 8.46,44.059 C7.53,42.12 6.64,40.15 5.77,38.18 C5.11,36.67 2.77,33.17 2.99,31.36 C3.45,27.48 12.14,27.45 14.84,26.95 C19.05,26.17 23.37,25.61 27.49,24.44 C28.32,24.2 28.49,23.19 28.11,22.59 C30,19.23 31.82,15.83 33.91,12.58 C36.58,8.44 39.96,0.87 46.03,5.54 C51.63,9.86 55.85,17.61 59.14,23.93 C59.18,24.05 59.23,24.16 59.31,24.26 C59.41,24.44 59.51,24.63 59.6,24.81 C60.04,25.65 60.93,25.62 61.51,25.17 C64.59,26.16 67.68,27.09 70.73,28.14" id="Fill-70" fill="#F7C937"></path>
                <path d="M8.46,44.059 C9.695,46.649 11.245,49.185 12.271,51.877 C14.947,49.099 17.857,46.517 20.844,44.085 C22.044,41.752 24.249,39.997 26.834,39.431 C27.183,39.17 27.532,38.906 27.88,38.649 C37.151,31.789 46.8,25.287 57.134,20.157 C54.174,14.754 50.553,9.029 46.03,5.54 C39.96,0.87 36.58,8.44 33.91,12.58 C31.82,15.83 30,19.23 28.11,22.59 C28.49,23.19 28.32,24.2 27.49,24.44 C23.37,25.61 19.05,26.17 14.84,26.95 C12.14,27.45 3.45,27.48 2.99,31.36 C2.77,33.17 5.11,36.67 5.77,38.18 C6.64,40.15 7.53,42.12 8.46,44.059" id="Fill-71" fill="#FFF3C5"></path>
                <path d="M70.73,28.14 C69.302,27.648 67.865,27.187 66.425,26.729 C63.242,30.831 60.293,35.13 57.553,39.569 C61.894,40.046 66.065,43.284 66.76,48.49 C66.94,49.78 64.71,50.07 64.5,48.8 C63.682,43.901 59.898,41.582 56.118,41.929 C50.337,51.664 45.551,62.031 41.611,72.515 C41.46,72.915 41.309,73.319 41.158,73.725 C41.503,73.598 41.844,73.465 42.19,73.34 C42.92,73.07 43.5,73.6 43.66,74.23 C47.11,75.08 50.52,76.07 53.92,77.07 C56.99,77.98 61.83,80.54 64.98,80.42 C70.36,80.2 68.81,73.29 68.7,69.52 C68.58,65.12 68.12,60.75 67.44,56.4 C67.19,54.82 69.43,54.08 69.95,55.38 C69.97,55.24 70.01,55.1 70.08,54.96 C71.76,51.63 73.66,48.41 75.49,45.17 C77.02,42.44 80.38,38.44 80.97,35.41 C81.95,30.41 74.4,29.4 70.73,28.14" id="Fill-72" fill="#FFF3C5"></path>
                <path d="M47.75,45.8 C51.38,35.75 65.43,38.53 66.76,48.49 C66.94,49.78 64.71,50.07 64.5,48.8 C63.12,40.54 53.31,39.55 49.3,46.46 C48.83,47.27 47.42,46.72 47.75,45.8" id="Fill-73" fill="#000105"></path>
                <path d="M84.3,32.31 C85.21,35.43 81.94,39.19 80.55,41.65 C77.82,46.51 75.21,51.49 72.25,56.23 C71.67,57.17 70.54,56.91 70.1,56.2 C70.98,61.89 71.49,67.62 71.43,73.39 C71.4,76.04 71.8,80.28 69.58,82.34 C66.9,84.82 62.49,82.45 59.67,81.58 C54.07,79.86 48.44,78.2 42.95,76.18 L43.66,74.23 C47.11,75.08 50.52,76.07 53.92,77.07 C56.99,77.98 61.83,80.54 64.98,80.42 C70.36,80.2 68.81,73.29 68.7,69.52 C68.58,65.12 68.12,60.75 67.44,56.4 C67.19,54.82 69.43,54.08 69.95,55.38 C69.97,55.24 70.01,55.1 70.08,54.96 C71.76,51.63 73.66,48.41 75.49,45.17 C77.02,42.44 80.38,38.44 80.97,35.41 C81.95,30.41 74.4,29.4 70.73,28.14 C67.68,27.09 64.59,26.16 61.51,25.17 C60.93,25.62 60.04,25.65 59.6,24.81 C59.51,24.63 59.41,24.44 59.31,24.26 C59.23,24.16 59.18,24.05 59.14,23.93 C55.85,17.61 51.63,9.86 46.03,5.54 C39.96,0.87 36.58,8.44 33.91,12.58 C31.82,15.83 30,19.23 28.11,22.59 L26.09,22.26 C28.18,16.73 31.19,11.58 34.65,6.8 C36.54,4.17 38.74,0.34 42.5,0.61 C46.94,0.94 50.33,6.13 52.79,9.25 C56.16,13.519 59.06,18.08 61.59,22.89 C67.1,24.03 72.48,25.84 77.72,27.87 C80,28.75 83.51,29.61 84.3,32.31" id="Fill-74" fill="#000105"></path>
                <path d="M35.49,49.27 C34.79,45.95 32.86,42.69 29.06,42.41 C25.4,42.14 22.52,44.88 21.43,48.15 C21.18,48.92 19.83,48.84 19.94,47.95 C20.51,43.51 24.51,40 29.06,40.24 C33.46,40.47 37.62,44.52 37.49,49 C37.46,50.12 35.74,50.42 35.49,49.27" id="Fill-75" fill="#000105"></path>
                <path d="M11.86,55.1 C11.61,54.85 11.37,54.59 11.14,54.32 L12.98,54.1 C13.42,54.11 13.85,54.41 13.88,55 C14.13,59.46 13.93,63.88 13.22,68.3 C12.6,72.25 9.1,79.9 15.42,80.64 C19.47,81.12 24.96,79.12 28.91,78.04 C33.47,76.78 37.76,74.94 42.19,73.34 C42.92,73.07 43.5,73.6 43.66,74.23 L42.95,76.18 C42.75,76.11 42.55,76.03 42.35,75.96 C37.3,78.53 31.69,80.22 26.2,81.5 C22.3,82.41 15.51,84.65 11.51,83.05 C8.56,81.86 8.34,78.85 8.82,76.11 C10.07,69.09 11.51,62.35 12,55.2 L11.86,55.1" id="Fill-76" fill="#000105"></path>
                <path d="M0.49,28.82 C1.98,25.49 7.58,25.57 10.49,25.03 C15.66,24.08 20.86,22.82 26.09,22.26 L28.11,22.59 C28.49,23.19 28.32,24.2 27.49,24.44 C23.37,25.61 19.05,26.17 14.84,26.95 C12.14,27.45 3.45,27.48 2.99,31.36 C2.77,33.17 5.11,36.67 5.77,38.18 C6.64,40.15 7.53,42.12 8.46,44.059 C10.03,47.35 12.12,50.55 12.98,54.1 L11.14,54.32 C7.62,50.26 5.59,44.34 3.47,39.53 C2.23,36.71 -0.94,32.02 0.49,28.82" id="Fill-77" fill="#000105"></path>
                <path d="M75.836,35.235 C71.992,33.733 67.94,32.687 63.99,31.489 C60.879,30.547 58.737,30.349 56.692,27.329 C55.773,25.973 55.257,24.157 54.497,22.702 C51.647,17.255 47.934,11.031 42.717,7.55 C42.08,7.125 41.393,7.941 41.719,8.548 C43.848,12.512 46.92,15.968 49.254,19.832 C51.272,23.174 52.417,27.185 54.541,30.39 C56.048,32.664 57.891,33.05 60.372,33.833 C65.206,35.357 70.077,37.08 75.023,38.186 C76.979,38.622 77.644,35.942 75.836,35.235" id="Fill-78" fill="#F3F1ED"></path>
            </g>
        </g>
    </g>
</svg>