<?xml version="1.0" encoding="UTF-8"?>
<svg viewBox="0 0 117 124" version="1.1" xmlns="http://www.w3.org/2000/svg" xmlns:xlink="http://www.w3.org/1999/xlink">
    <!-- Generator: Sketch 46.2 (44496) - http://www.bohemiancoding.com/sketch -->
    <title>Group 2</title>
    <desc>Created with Sketch.</desc>
    <defs></defs>
    <g id="Page-1" stroke="none" stroke-width="1" fill="none" fill-rule="evenodd">
        <g id="pineapple" transform="translate(-13.000000, -10.000000)">
            <g id="Group-2" transform="translate(13.000000, 10.000000)">
                <path d="M58.895,123.526 C89.613,123.526 109.72,104.562 115.932,97.775 C117.182,96.408 117.377,94.389 116.425,92.802 L62.486,2.878 C60.86,0.167 56.93,0.167 55.304,2.878 L1.364,92.802 C0.412,94.389 0.608,96.408 1.857,97.775 C8.07,104.562 28.176,123.526 58.895,123.526" id="Fill-64" fill="#FF4D63"></path>
                <path d="M110.303,82.595 C100.925,90.916 83.25,102.833 58.895,102.833 C34.539,102.833 16.864,90.916 7.487,82.595 L1.364,92.802 C0.412,94.389 0.608,96.408 1.857,97.775 C8.07,104.562 28.176,123.526 58.895,123.526 C89.613,123.526 109.72,104.562 115.932,97.775 C117.182,96.408 117.377,94.389 116.425,92.802 L110.303,82.595" id="Fill-65" fill="#B33645"></path>
                <path d="M112.465,86.199 C103.814,94.448 85.272,108.425 58.895,108.425 C32.518,108.425 13.975,94.448 5.324,86.199 L1.364,92.802 C0.412,94.389 0.608,96.408 1.857,97.775 C8.07,104.562 28.176,123.526 58.895,123.526 C89.613,123.526 109.72,104.562 115.932,97.775 C117.182,96.408 117.377,94.389 116.425,92.802 L112.465,86.199" id="Fill-66" fill="#738750"></path>
                <path d="M114.625,89.802 C107.201,97.468 87.721,114.166 58.895,114.166 C30.069,114.166 10.588,97.468 3.163,89.802 L1.364,92.802 C0.412,94.389 0.608,96.408 1.857,97.775 C8.07,104.562 28.176,123.526 58.895,123.526 C89.613,123.526 109.72,104.562 115.932,97.775 C117.182,96.408 117.377,94.389 116.425,92.802 L114.625,89.802" id="Fill-67" fill="#92AD66"></path>
                <path d="M89.417,70.672 C89.417,73.961 86.75,76.627 83.461,76.627 C80.172,76.627 77.506,73.961 77.506,70.672 C77.506,67.383 80.172,64.717 83.461,64.717 C86.75,64.717 89.417,67.383 89.417,70.672" id="Fill-68" fill="#594949"></path>
                <path d="M87.287,69.3 C87.287,70.523 86.296,71.514 85.073,71.514 C83.851,71.514 82.86,70.523 82.86,69.3 C82.86,68.077 83.851,67.086 85.073,67.086 C86.296,67.086 87.287,68.077 87.287,69.3" id="Fill-69" fill="#FFFFFF"></path>
                <path d="M82.543,72.992 C82.543,73.634 82.023,74.155 81.381,74.155 C80.738,74.155 80.218,73.634 80.218,72.992 C80.218,72.35 80.738,71.829 81.381,71.829 C82.023,71.829 82.543,72.35 82.543,72.992" id="Fill-70" fill="#FFFFFF"></path>
                <path d="M28.972,70.672 C28.972,69.19 29.57,67.857 30.541,66.884 C31.513,65.914 32.846,65.316 34.328,65.316 C35.81,65.316 37.143,65.914 38.115,66.884 C39.086,67.857 39.683,69.19 39.684,70.672 C39.684,71.224 40.131,71.672 40.684,71.672 C41.236,71.672 41.684,71.224 41.684,70.672 C41.683,66.609 38.391,63.316 34.328,63.316 C30.265,63.316 26.972,66.609 26.972,70.672 C26.972,71.224 27.42,71.672 27.972,71.672 C28.524,71.672 28.972,71.224 28.972,70.672" id="Fill-71" fill="#594949"></path>
                <path d="M68.653,80.607 C69.764,80.607 70.633,81.612 70.426,82.703 C69.445,87.889 64.889,91.81 59.418,91.81 C53.947,91.81 49.392,87.889 48.41,82.703 C48.203,81.612 49.072,80.607 50.184,80.607 L68.653,80.607" id="Fill-72" fill="#FFFFFF"></path>
                <path d="M56.427,26.597 L56.427,26.597 C55.396,25.686 55.296,24.097 56.207,23.065 L58.877,20.039 C59.787,19.007 61.377,18.908 62.409,19.819 C63.441,20.729 63.54,22.319 62.629,23.35 L59.959,26.377 C59.049,27.408 57.459,27.508 56.427,26.597" id="Fill-73" fill="#B33645"></path>
                <path d="M33.859,54.002 L33.859,54.002 C32.827,53.091 32.728,51.502 33.638,50.47 L36.309,47.444 C37.219,46.412 38.809,46.312 39.841,47.223 C40.872,48.134 40.972,49.723 40.061,50.755 L37.391,53.781 C36.481,54.813 34.891,54.912 33.859,54.002" id="Fill-74" fill="#B33645"></path>
                <path d="M51.077,39.377 L51.077,39.377 C49.886,40.065 48.348,39.653 47.659,38.461 L45.642,34.966 C44.953,33.774 45.365,32.236 46.558,31.548 C47.749,30.86 49.287,31.271 49.976,32.464 L51.993,35.958 C52.682,37.15 52.27,38.689 51.077,39.377" id="Fill-75" fill="#B33645"></path>
                <path d="M79.339,57.26 L79.339,57.26 C77.988,56.992 77.104,55.668 77.371,54.319 L78.156,50.36 C78.424,49.01 79.748,48.124 81.098,48.392 C82.448,48.66 83.333,49.984 83.066,51.334 L82.28,55.292 C82.012,56.642 80.689,57.528 79.339,57.26" id="Fill-76" fill="#B33645"></path>
                <path d="M68.891,41.97 L68.891,41.97 C67.559,41.626 66.749,40.255 67.093,38.922 L68.099,35.014 C68.443,33.681 69.814,32.872 71.147,33.215 C72.48,33.558 73.289,34.93 72.945,36.262 L71.939,40.171 C71.595,41.504 70.224,42.313 68.891,41.97" id="Fill-77" fill="#B33645"></path>
                <path d="M47.225,62.318 L47.225,62.318 C45.892,61.974 45.082,60.603 45.426,59.27 L46.433,55.362 C46.777,54.029 48.148,53.22 49.481,53.563 C50.813,53.907 51.622,55.278 51.279,56.611 L50.273,60.519 C49.929,61.852 48.558,62.66 47.225,62.318" id="Fill-78" fill="#B33645"></path>
                <path d="M61.427,56.034 L61.427,56.034 C60.194,56.646 58.685,56.137 58.073,54.904 L56.279,51.289 C55.668,50.056 56.177,48.547 57.41,47.935 C58.643,47.324 60.152,47.832 60.764,49.065 L62.557,52.681 C63.168,53.914 62.659,55.423 61.427,56.034" id="Fill-79" fill="#B33645"></path>
                <path d="M60.041,70.371 L60.041,70.371 C60.132,68.998 61.331,67.949 62.704,68.041 L66.731,68.31 C68.104,68.402 69.153,69.6 69.061,70.973 C68.97,72.346 67.771,73.395 66.398,73.303 L62.371,73.034 C60.998,72.943 59.949,71.744 60.041,70.371" id="Fill-80" fill="#B33645"></path>
                <path d="M28.324,86.101 L28.324,86.101 C27.092,86.712 25.582,86.204 24.971,84.971 L23.178,81.356 C22.567,80.122 23.075,78.614 24.308,78.002 C25.541,77.391 27.05,77.899 27.661,79.132 L29.454,82.747 C30.066,83.981 29.558,85.49 28.324,86.101" id="Fill-81" fill="#B33645"></path>
            </g>
        </g>
    </g>
</svg>