<?xml version="1.0" encoding="UTF-8"?>
<svg width="365px" height="274px" viewBox="0 0 365 274" version="1.1" xmlns="http://www.w3.org/2000/svg" xmlns:xlink="http://www.w3.org/1999/xlink">
    <!-- Generator: Sketch 49.3 (51167) - http://www.bohemiancoding.com/sketch -->
    <title>8706</title>
    <desc>Created with Sketch.</desc>
    <defs></defs>
    <g id="Page-1" stroke="none" stroke-width="1" fill="none" fill-rule="evenodd">
        <g id="8706" transform="translate(0.000000, -10.000000)">
            <polyline id="Fill-1" fill="#131514" points="46.423 259.632 45.944 259.747 30.874 197.2 31.352 197.085 46.423 259.632"></polyline>
            <path d="M41.501,165.471 C44.77,180.824 38.4,195.195 27.272,197.575 C16.147,199.952 4.478,189.434 1.208,174.08 C-2.061,158.724 4.308,144.354 15.434,141.979 C26.561,139.599 38.232,150.117 41.501,165.471" id="Fill-2" fill="#EBE63F"></path>
            <path d="M14.803,142.312 C4.09,145.119 -1.802,159.055 1.386,174.042 C2.958,181.43 6.519,187.928 11.417,192.339 C16.298,196.737 21.915,198.534 27.235,197.393 C38.366,195.01 44.581,180.805 41.32,165.51 C39.747,158.12 36.185,151.622 31.291,147.209 C26.415,142.811 20.794,141.017 15.472,142.155 C15.247,142.201 15.024,142.253 14.803,142.312 M27.997,197.587 C27.771,197.647 27.544,197.7 27.312,197.753 C21.87,198.915 16.144,197.087 11.171,192.612 C6.222,188.145 2.618,181.583 1.032,174.118 C-2.269,158.626 4.071,144.212 15.397,141.799 C20.836,140.638 26.567,142.463 31.54,146.937 C36.487,151.403 40.09,157.968 41.679,165.432 C44.909,180.61 38.903,194.73 27.997,197.587" id="Fill-3" fill="#020609"></path>
            <path d="M12.889,157.143 C13.594,160.471 12.376,163.548 10.157,164.02 C7.943,164.493 5.571,162.182 4.866,158.86 C4.159,155.532 5.378,152.456 7.595,151.98 C9.81,151.509 12.18,153.822 12.889,157.143" id="Fill-4" fill="#FFFFFE"></path>
            <path d="M9.026,171.389 C9.329,172.808 8.811,174.12 7.875,174.323 C6.944,174.522 5.937,173.534 5.637,172.116 C5.337,170.696 5.85,169.384 6.784,169.186 C7.719,168.987 8.724,169.975 9.026,171.389" id="Fill-5" fill="#FFFFFE"></path>
            <polyline id="Fill-6" fill="#CF6C9E" points="31.204 195.903 30.696 198.322 33.374 197.754 31.204 195.903"></polyline>
            <path d="M30.933,198.089 L32.971,197.651 L31.321,196.239 L30.933,198.089 M33.421,197.928 L33.413,197.928 L30.738,198.499 L30.569,198.456 L30.517,198.288 L31.03,195.862 L31.145,195.729 L31.323,195.763 L33.487,197.614 L33.548,197.797 L33.421,197.928" id="Fill-7" fill="#020609"></path>
            <path d="M24.075,197.728 C19.738,197.728 15.34,195.873 11.417,192.339 C8.005,189.267 5.243,185.183 3.349,180.491 C7.318,187.949 15.175,192.222 22.386,192.222 C31.65,192.221 39.847,185.169 37.355,168.763 C37.068,166.874 36.708,165.113 36.284,163.47 C37.974,164.952 39.762,166.143 41.614,167.029 C43.812,179.709 39.53,191.385 31.41,195.838 L31.323,195.763 L31.145,195.729 L31.03,195.862 L30.988,196.061 C29.812,196.66 28.558,197.11 27.235,197.393 C26.191,197.617 25.135,197.728 24.075,197.728 M26.02,146.334 C23.076,143.996 19.991,142.65 17.263,141.883 C17.719,141.842 18.175,141.822 18.632,141.822 C20.856,141.822 23.095,142.308 25.278,143.258 C25.49,144.3 25.738,145.327 26.02,146.334" id="Fill-8" fill="#ECC439"></path>
            <path d="M24.103,197.908 C15.175,197.908 6.442,190.125 2.5,178.703 C2.759,179.318 3.042,179.913 3.349,180.491 C5.243,185.183 8.005,189.267 11.417,192.339 C15.34,195.873 19.738,197.728 24.075,197.728 C25.135,197.728 26.191,197.617 27.235,197.393 C28.558,197.11 29.812,196.66 30.988,196.061 L30.941,196.282 C29.788,196.862 28.562,197.299 27.272,197.575 C26.218,197.8 25.16,197.909 24.103,197.908 M31.551,195.958 L31.41,195.838 C39.53,191.385 43.812,179.709 41.614,167.029 C41.681,167.061 41.749,167.093 41.817,167.125 C43.953,179.759 39.609,191.45 31.551,195.958 M25.278,143.258 C23.095,142.308 20.856,141.822 18.632,141.822 C18.175,141.822 17.719,141.842 17.263,141.883 C17.105,141.839 16.948,141.796 16.792,141.756 C17.399,141.682 18.006,141.646 18.613,141.646 C20.858,141.646 23.09,142.138 25.237,143.056 C25.251,143.123 25.265,143.191 25.278,143.258" id="Fill-9" fill="#020509"></path>
            <path d="M30.941,196.282 L30.988,196.061 L31.03,195.862 L31.145,195.729 L31.323,195.763 L31.41,195.838 L31.551,195.958 C31.35,196.07 31.147,196.178 30.941,196.282" id="Fill-10" fill="#020509"></path>
            <polyline id="Fill-11" fill="#131514" points="134.93 233.452 134.175 233.456 133.592 134.377 134.348 134.369 134.93 233.452"></polyline>
            <path d="M164.592,88.102 C163.994,117.158 146.426,140.373 125.356,139.947 C104.287,139.531 87.702,115.633 88.311,86.568 C88.915,57.499 106.474,34.285 127.542,34.711 C148.611,35.13 165.197,59.036 164.592,88.102" id="Fill-12" fill="#9A8BB6"></path>
            <path d="M126.266,35.046 C105.758,35.573 89.238,58.207 88.642,86.57 C88.354,100.555 92.021,113.779 98.99,123.807 C105.922,133.798 115.293,139.416 125.365,139.614 C146.443,140.025 163.66,117.046 164.252,88.09 C164.544,74.104 160.871,60.88 153.914,50.852 C146.986,40.862 137.612,35.248 127.538,35.046 C127.107,35.034 126.689,35.034 126.266,35.046 M126.658,140.286 C126.227,140.298 125.791,140.295 125.354,140.291 C115.052,140.083 105.496,134.364 98.429,124.192 C91.396,114.046 87.677,100.69 87.972,86.558 C88.58,57.233 106.109,33.93 127.551,34.374 C137.85,34.582 147.416,40.297 154.484,50.468 C161.508,60.613 165.228,73.974 164.93,88.103 C164.338,116.829 147.528,139.748 126.658,140.286" id="Fill-13" fill="#020609"></path>
            <path d="M116.53,60.976 C116.396,67.274 112.9,72.306 108.705,72.218 C104.508,72.136 101.208,66.964 101.341,60.674 C101.479,54.375 104.974,49.346 109.169,49.425 C113.365,49.514 116.662,54.684 116.53,60.976" id="Fill-14" fill="#FFFFFE"></path>
            <path d="M103.539,85.025 C103.486,87.712 101.997,89.855 100.22,89.826 C98.465,89.789 97.067,87.579 97.122,84.9 C97.185,82.213 98.661,80.067 100.433,80.101 C102.202,80.142 103.594,82.347 103.539,85.025" id="Fill-15" fill="#FFFFFE"></path>
            <polyline id="Fill-16" fill="#CF6C9E" points="133.15 138.598 131.213 142.756 136.276 142.86 133.15 138.598"></polyline>
            <path d="M131.738,142.424 L135.603,142.504 L133.217,139.257 L131.738,142.424 M136.285,143.194 L136.273,143.188 L131.211,143.084 C131.092,143.088 130.986,143.036 130.93,142.938 C130.866,142.835 130.854,142.722 130.902,142.61 L132.858,138.46 C132.899,138.356 133.003,138.281 133.124,138.268 C133.252,138.265 133.357,138.307 133.424,138.401 L136.55,142.655 C136.624,142.756 136.632,142.904 136.576,143.01 C136.525,143.123 136.416,143.191 136.285,143.194" id="Fill-17" fill="#020609"></path>
            <path d="M125.922,139.62 C125.737,139.62 125.55,139.618 125.365,139.614 C125.272,139.613 125.178,139.61 125.085,139.607 C125.71,137.593 126.216,135.491 126.59,133.318 C127.819,135.41 129.175,137.385 130.652,139.222 C129.103,139.485 127.523,139.62 125.922,139.62" id="Fill-18" fill="#7E70A6"></path>
            <path d="M125.927,139.953 C125.737,139.953 125.547,139.951 125.356,139.947 C125.231,139.945 125.106,139.942 124.981,139.937 C125.016,139.828 125.051,139.718 125.085,139.607 C125.178,139.61 125.272,139.613 125.365,139.614 C125.55,139.618 125.737,139.62 125.922,139.62 C127.523,139.62 129.103,139.485 130.652,139.222 C130.73,139.319 130.809,139.416 130.887,139.512 C129.261,139.803 127.606,139.953 125.927,139.953" id="Fill-19" fill="#010509"></path>
            <path d="M149.931,55.17 C144.864,45.039 137.457,38.948 130.871,35.313 C138.539,36.392 145.669,40.651 151.451,47.607 C150.821,50.052 150.31,52.578 149.931,55.17" id="Fill-20" fill="#7E70A6"></path>
            <path d="M151.451,47.607 C145.669,40.651 138.539,36.392 130.871,35.313 C130.607,35.167 130.344,35.025 130.082,34.887 C138.289,35.798 145.711,40.289 151.553,47.218 C151.519,47.347 151.485,47.477 151.451,47.607" id="Fill-21" fill="#010509"></path>
            <polyline id="Fill-22" fill="#131514" points="201.505 240.215 200.604 240.237 197.745 122.222 198.647 122.199 201.505 240.215"></polyline>
            <path d="M229.061,66.254 C228.986,96.572 211.114,121.117 189.134,121.083 C167.159,121.049 149.403,96.437 149.479,66.118 C149.553,35.792 167.42,11.248 189.398,11.286 C211.38,11.323 229.136,35.93 229.061,66.254" id="Fill-23" fill="#B8D259"></path>
            <path d="M188.07,11.659 C166.696,12.604 149.902,36.523 149.826,66.111 C149.793,80.704 153.875,94.426 161.325,104.75 C168.753,115.034 178.632,120.712 189.138,120.728 C211.123,120.752 228.638,96.46 228.703,66.253 C228.741,51.659 224.658,37.942 217.214,27.616 C209.794,17.33 199.909,11.654 189.398,11.639 C188.958,11.634 188.52,11.64 188.07,11.659 M190.495,121.404 C190.048,121.423 189.597,121.433 189.138,121.434 C178.388,121.415 168.316,115.635 160.748,105.162 C153.224,94.714 149.092,80.856 149.129,66.112 C149.199,35.519 167.04,10.88 189.396,10.935 C200.151,10.953 210.23,16.731 217.797,27.204 C225.317,37.648 229.453,51.511 229.413,66.251 C229.338,96.22 212.249,120.444 190.495,121.404" id="Fill-24" fill="#020609"></path>
            <path d="M178.418,38.884 C178.401,45.459 174.849,50.773 170.466,50.761 C166.094,50.755 162.557,45.426 162.576,38.863 C162.591,32.294 166.146,26.98 170.528,26.982 C174.895,26.995 178.438,32.325 178.418,38.884" id="Fill-25" fill="#FFFFFE"></path>
            <path d="M165.329,64.215 C165.327,67.019 163.812,69.283 161.964,69.286 C160.13,69.282 158.627,67.008 158.635,64.208 C158.647,61.406 160.143,59.137 161.998,59.142 C163.845,59.15 165.34,61.421 165.329,64.215" id="Fill-26" fill="#FFFFFE"></path>
            <polyline id="Fill-27" fill="#CF6C9E" points="197.239 119.525 195.296 123.891 200.584 123.901 197.239 119.525"></polyline>
            <path d="M195.836,123.539 L199.868,123.546 L197.322,120.209 L195.836,123.539 M200.599,124.254 L200.584,124.247 L195.298,124.236 C195.177,124.242 195.065,124.182 195.001,124.086 C194.936,123.984 194.922,123.86 194.967,123.748 L196.93,119.38 C196.969,119.269 197.075,119.188 197.193,119.176 C197.334,119.17 197.445,119.216 197.515,119.31 L200.857,123.688 C200.937,123.79 200.95,123.939 200.89,124.057 C200.839,124.172 200.73,124.247 200.599,124.254" id="Fill-28" fill="#020609"></path>
            <path d="M228.293,74.047 C225.571,72.921 222.725,72.258 219.802,72.088 C219.835,71.659 219.865,71.223 219.892,70.785 C222.132,34.606 205.923,18.745 192.897,11.855 C202.088,12.98 210.623,18.479 217.214,27.616 C224.658,37.942 228.741,51.659 228.703,66.253 C228.697,68.9 228.558,71.502 228.293,74.047" id="Fill-29" fill="#90BA3F"></path>
            <path d="M228.629,74.188 C228.517,74.14 228.405,74.093 228.293,74.047 C228.558,71.502 228.697,68.9 228.703,66.253 C228.741,51.659 224.658,37.942 217.214,27.616 C210.623,18.479 202.088,12.98 192.897,11.855 C192.614,11.705 192.333,11.56 192.054,11.419 C212.787,13.339 229.136,37.162 229.061,66.254 C229.054,68.948 228.907,71.598 228.629,74.188" id="Fill-30" fill="#020507"></path>
            <polyline id="Fill-31" fill="#131514" points="249.377 233.26 248.913 233.215 260.416 102.809 260.879 102.854 249.377 233.26"></polyline>
            <path d="M286.796,66.982 C284.192,87.673 269.922,102.923 254.921,101.047 C239.922,99.171 229.875,80.876 232.48,60.181 C235.089,39.487 249.354,24.239 264.352,26.117 C279.354,27.993 289.4,46.289 286.796,66.982" id="Fill-32" fill="#D6242C"></path>
            <path d="M263.416,26.26 C248.747,25.103 235.267,40.015 232.72,60.21 C231.465,70.167 233.094,79.88 237.312,87.552 C241.515,95.2 247.781,99.909 254.952,100.805 C269.96,102.675 283.963,87.566 286.553,66.953 C287.808,56.991 286.179,47.283 281.965,39.608 C277.766,31.959 271.501,27.254 264.324,26.357 C264.019,26.316 263.72,26.284 263.416,26.26 M255.825,101.382 C255.514,101.357 255.205,101.322 254.892,101.286 C247.559,100.369 241.168,95.573 236.884,87.785 C232.626,80.021 230.973,70.213 232.24,60.151 C234.869,39.273 249.121,23.955 264.386,25.876 C271.718,26.796 278.112,31.59 282.396,39.375 C286.649,47.141 288.304,56.952 287.036,67.011 C284.461,87.463 270.755,102.559 255.825,101.382" id="Fill-33" fill="#020609"></path>
            <path d="M254.533,44.034 C253.967,48.518 251.094,51.847 248.103,51.469 C245.118,51.096 243.15,47.159 243.719,42.682 C244.285,38.198 247.157,34.872 250.147,35.242 C253.131,35.62 255.096,39.557 254.533,44.034" id="Fill-34" fill="#FFFFFE"></path>
            <path d="M243.465,60.223 C243.224,62.134 242.001,63.554 240.739,63.399 C239.486,63.241 238.651,61.562 238.894,59.653 C239.139,57.739 240.354,56.318 241.615,56.476 C242.874,56.636 243.703,58.313 243.465,60.223" id="Fill-35" fill="#FFFFFE"></path>
            <polyline id="Fill-36" fill="#CF6C9E" points="260.583 100.666 258.892 103.482 262.498 103.935 260.583 100.666"></polyline>
            <path d="M259.287,103.289 L262.037,103.632 L260.583,101.14 L259.287,103.289 M262.479,104.178 L262.47,104.173 L258.863,103.719 L258.674,103.592 L258.679,103.358 L260.384,100.54 L260.585,100.423 C260.681,100.431 260.751,100.474 260.793,100.542 L262.703,103.812 L262.695,104.067 L262.479,104.178" id="Fill-37" fill="#020609"></path>
            <path d="M257.468,100.962 C256.634,100.962 255.794,100.91 254.952,100.805 C252.976,100.558 251.069,100.022 249.255,99.214 C248.003,95.449 246.381,91.91 244.411,88.678 C248.633,91.704 253.5,93.45 258.285,93.45 C267.765,93.449 276.932,86.602 280.157,69.301 C284.731,44.791 275.002,32.598 266.691,26.798 C272.874,28.34 278.234,32.813 281.965,39.608 C286.179,47.283 287.808,56.991 286.553,66.953 C284.308,84.821 273.488,98.553 260.871,100.676 L260.793,100.542 C260.751,100.474 260.681,100.431 260.585,100.423 L260.384,100.54 L260.243,100.772 C259.326,100.897 258.4,100.962 257.468,100.962 M235.364,78.239 C234.705,77.717 234.035,77.228 233.352,76.77 C232.824,74.318 232.494,71.774 232.367,69.173 C232.872,72.42 233.915,75.469 235.364,78.239" id="Fill-38" fill="#A32629"></path>
            <path d="M257.425,101.203 C256.594,101.203 255.758,101.152 254.921,101.047 C252.976,100.803 251.116,100.282 249.354,99.516 C249.322,99.416 249.288,99.314 249.255,99.214 C251.069,100.022 252.976,100.558 254.952,100.805 C255.794,100.91 256.634,100.962 257.468,100.962 C258.4,100.962 259.326,100.897 260.243,100.772 L260.089,101.028 C259.207,101.144 258.319,101.203 257.425,101.203 M260.995,100.888 L260.871,100.676 C273.488,98.553 284.308,84.821 286.553,66.953 C287.808,56.991 286.179,47.283 281.965,39.608 C278.234,32.813 272.874,28.34 266.691,26.798 C266.512,26.673 266.333,26.551 266.155,26.431 C280.144,29.489 289.297,47.13 286.796,66.982 C284.548,84.849 273.601,98.659 260.995,100.888 M233.352,76.77 C233.265,76.711 233.178,76.653 233.09,76.595 C232.421,73.412 232.071,70.037 232.08,66.546 C232.136,67.434 232.232,68.311 232.367,69.173 C232.494,71.774 232.824,74.318 233.352,76.77" id="Fill-39" fill="#010408"></path>
            <path d="M260.089,101.028 L260.243,100.772 L260.384,100.54 L260.585,100.423 C260.681,100.431 260.751,100.474 260.793,100.542 L260.871,100.676 L260.995,100.888 C260.694,100.941 260.391,100.988 260.089,101.028" id="Fill-40" fill="#010408"></path>
            <polyline id="Fill-41" fill="#131514" points="88.61 233.372 87.782 233.457 76.707 125.223 77.534 125.138 88.61 233.372"></polyline>
            <path d="M101.712,74.459 C103.708,100.928 89.776,123.568 70.587,125.034 C51.405,126.496 34.232,106.222 32.234,79.751 C30.237,53.276 44.169,30.637 63.353,29.18 C82.538,27.714 99.712,47.986 101.712,74.459" id="Fill-42" fill="#EBE63F"></path>
            <path d="M62.22,29.594 C43.63,31.871 30.597,53.89 32.542,79.725 C33.501,92.465 37.995,104.164 45.204,112.663 C52.385,121.14 61.394,125.425 70.566,124.722 C89.761,123.249 103.397,100.853 101.398,74.483 C100.438,61.741 95.941,50.044 88.741,41.539 C81.565,33.064 72.554,28.783 63.376,29.485 C62.988,29.511 62.604,29.547 62.22,29.594 M71.8,125.218 C71.406,125.266 71.013,125.303 70.614,125.339 C61.23,126.052 52.048,121.693 44.729,113.066 C37.448,104.459 32.897,92.644 31.931,79.774 C29.913,53.065 43.804,30.346 63.331,28.87 C72.71,28.157 81.901,32.515 89.22,41.14 C96.497,49.747 101.046,61.566 102.016,74.434 C103.988,100.6 90.724,122.901 71.8,125.218" id="Fill-43" fill="#020609"></path>
            <path d="M55.649,54.015 C56.076,59.753 53.338,64.633 49.513,64.921 C45.695,65.212 42.243,60.801 41.814,55.073 C41.386,49.337 44.124,44.458 47.946,44.163 C51.765,43.876 55.214,48.289 55.649,54.015" id="Fill-44" fill="#FFFFFE"></path>
            <path d="M45.946,77.015 C46.134,79.462 44.968,81.541 43.352,81.669 C41.747,81.792 40.282,79.907 40.101,77.464 C39.921,75.016 41.077,72.935 42.689,72.812 C44.3,72.693 45.761,74.575 45.946,77.015" id="Fill-45" fill="#FFFFFE"></path>
            <polyline id="Fill-46" fill="#CF6C9E" points="77.555 123.122 76.156 127.063 80.773 126.716 77.555 123.122"></polyline>
            <path d="M76.605,126.724 L80.12,126.451 L77.675,123.711 L76.605,126.724 M80.812,127.022 L80.798,127.017 L76.187,127.367 C76.079,127.38 75.978,127.338 75.914,127.257 C75.849,127.172 75.826,127.064 75.861,126.961 L77.274,123.016 C77.304,122.92 77.391,122.84 77.495,122.817 C77.615,122.802 77.717,122.838 77.787,122.916 L80.993,126.507 C81.073,126.592 81.095,126.722 81.054,126.828 C81.015,126.934 80.921,127.008 80.812,127.022" id="Fill-47" fill="#020609"></path>
            <path d="M69.879,124.766 C68.748,121.255 67.187,118.002 65.252,115.131 C66.027,115.194 66.8,115.225 67.57,115.225 C69.579,115.225 71.564,115.01 73.486,114.567 C72.755,117.638 72.292,120.878 72.136,124.235 C72.131,124.342 72.126,124.449 72.122,124.556 C71.608,124.627 71.089,124.682 70.566,124.722 C70.337,124.74 70.108,124.754 69.879,124.766 M93.474,88.742 C93.883,85.782 94.073,82.552 94.016,79.035 C93.508,47.304 78.28,34.562 66.44,29.435 C74.542,29.791 82.367,34.01 88.741,41.539 C95.941,50.044 100.438,61.741 101.398,74.483 C101.739,78.974 101.626,83.348 101.109,87.524 C100.912,87.518 100.716,87.516 100.519,87.516 C98.093,87.516 95.732,87.941 93.474,88.742" id="Fill-48" fill="#ECC439"></path>
            <path d="M69.977,125.073 C69.945,124.97 69.912,124.867 69.879,124.766 C70.108,124.754 70.337,124.74 70.566,124.722 C71.089,124.682 71.608,124.627 72.122,124.556 C72.118,124.661 72.114,124.767 72.11,124.872 C71.606,124.941 71.099,124.995 70.587,125.034 C70.384,125.049 70.18,125.062 69.977,125.073 M101.402,87.535 C101.305,87.53 101.206,87.527 101.109,87.524 C101.626,83.348 101.739,78.974 101.398,74.483 C100.438,61.741 95.941,50.044 88.741,41.539 C82.367,34.01 74.542,29.791 66.44,29.435 C66.185,29.324 65.931,29.217 65.679,29.114 C83.903,29.38 99.795,49.061 101.712,74.459 C102.051,78.956 101.93,83.343 101.402,87.535" id="Fill-49" fill="#020509"></path>
            <path d="M39.968,105.11 C37.549,100.82 35.662,96.056 34.371,90.984 C36.264,96.095 39.212,100.562 42.804,104.217 C41.832,104.436 40.885,104.736 39.968,105.11" id="Fill-50" fill="#ECC439"></path>
            <path d="M39.704,105.22 C36.828,100.098 34.636,94.2 33.352,87.79 C33.646,88.882 33.986,89.945 34.371,90.984 C35.662,96.056 37.549,100.82 39.968,105.11 C39.88,105.146 39.792,105.183 39.704,105.22" id="Fill-51" fill="#020509"></path>
            <polyline id="Fill-52" fill="#131514" points="64.131 225.103 63.669 225.162 56.019 164.596 56.481 164.536 64.131 225.103"></polyline>
            <path d="M71.576,134.007 C73.35,151.825 64.312,167.319 51.392,168.61 C38.474,169.907 26.568,156.508 24.801,138.684 C23.03,120.858 32.063,105.365 44.982,104.074 C57.901,102.78 69.806,116.183 71.576,134.007" id="Fill-53" fill="#F0A74E"></path>
            <path d="M44.226,104.374 C31.72,106.206 23.28,121.267 25.004,138.661 C25.858,147.236 29.073,155.057 34.073,160.678 C39.052,166.279 45.196,169.026 51.372,168.407 C64.296,167.106 73.137,151.781 71.368,134.026 C70.516,125.448 67.296,117.63 62.302,112.007 C57.328,106.406 51.181,103.662 45.005,104.28 C44.74,104.304 44.484,104.336 44.226,104.374 M52.212,168.721 C51.95,168.76 51.683,168.79 51.415,168.821 C45.097,169.452 38.831,166.657 33.76,160.956 C28.712,155.266 25.452,147.37 24.593,138.703 C22.806,120.72 31.814,105.174 44.962,103.868 C51.277,103.237 57.55,106.029 62.623,111.73 C67.665,117.419 70.925,125.318 71.782,133.984 C73.534,151.599 64.939,166.856 52.212,168.721" id="Fill-54" fill="#020609"></path>
            <path d="M40.179,120.952 C40.56,124.814 38.792,128.15 36.22,128.405 C33.648,128.664 31.247,125.743 30.866,121.886 C30.485,118.022 32.255,114.688 34.825,114.428 C37.399,114.173 39.796,117.094 40.179,120.952" id="Fill-55" fill="#FFFFFE"></path>
            <path d="M34.001,136.62 C34.169,138.267 33.415,139.687 32.327,139.8 C31.249,139.907 30.231,138.659 30.068,137.014 C29.907,135.367 30.654,133.945 31.741,133.835 C32.825,133.731 33.839,134.977 34.001,136.62" id="Fill-56" fill="#FFFFFE"></path>
            <polyline id="Fill-57" fill="#CF6C9E" points="56.06 167.212 55.181 169.897 58.285 169.587 56.06 167.212"></polyline>
            <path d="M55.477,169.656 L57.847,169.42 L56.149,167.608 L55.477,169.656 M58.315,169.792 L58.308,169.788 L55.203,170.098 L55.021,170.029 L54.981,169.831 L55.87,167.148 L56.019,167.01 L56.214,167.071 L58.438,169.442 L58.479,169.659 L58.315,169.792" id="Fill-58" fill="#020609"></path>
            <path d="M49.658,168.493 C44.068,168.492 38.59,165.76 34.073,160.678 C30.593,156.766 27.978,151.789 26.422,146.233 C30.307,155.999 39.913,162.053 48.748,162.052 C58.417,162.05 67.163,154.795 66.46,137.215 C65.609,115.816 55.131,107.464 47.062,104.198 C52.532,104.307 57.881,107.029 62.302,112.007 C67.296,117.63 70.516,125.448 71.368,134.026 C72.901,149.416 66.463,162.979 56.305,167.168 L56.214,167.071 L56.019,167.01 L55.87,167.148 L55.797,167.368 C54.387,167.899 52.909,168.252 51.372,168.407 C50.8,168.464 50.228,168.493 49.658,168.493" id="Fill-59" fill="#E67734"></path>
            <path d="M49.671,168.696 C38.772,168.695 28.902,158.382 25.681,144.09 C25.897,144.822 26.145,145.537 26.422,146.233 C27.978,151.789 30.593,156.766 34.073,160.678 C38.59,165.76 44.068,168.492 49.658,168.493 C50.228,168.493 50.8,168.464 51.372,168.407 C52.909,168.252 54.387,167.899 55.797,167.368 L55.718,167.607 C54.335,168.12 52.89,168.46 51.392,168.61 C50.816,168.668 50.242,168.696 49.671,168.696 M56.446,167.318 L56.305,167.168 C66.463,162.979 72.901,149.416 71.368,134.026 C70.516,125.448 67.296,117.63 62.302,112.007 C57.881,107.029 52.532,104.307 47.062,104.198 C46.889,104.128 46.718,104.06 46.548,103.995 C46.601,103.995 46.653,103.995 46.706,103.995 C58.94,103.995 69.887,116.978 71.576,134.007 C73.108,149.394 66.576,163.047 56.446,167.318" id="Fill-60" fill="#020407"></path>
            <path d="M55.718,167.607 L55.797,167.368 L55.87,167.148 L56.019,167.01 L56.214,167.071 L56.305,167.168 L56.446,167.318 C56.205,167.42 55.963,167.516 55.718,167.607" id="Fill-61" fill="#020407"></path>
            <polyline id="Fill-62" fill="#131514" points="175.013 234.489 174.337 234.565 164.139 146.211 164.813 146.129 175.013 234.489"></polyline>
            <path d="M187.284,101.891 C189.589,127.877 176.178,150.307 157.335,151.986 C138.495,153.672 121.36,133.968 119.064,107.972 C116.765,81.975 130.165,59.545 149.006,57.866 C167.849,56.184 184.983,75.895 187.284,101.891" id="Fill-63" fill="#F0A74E"></path>
            <path d="M147.899,58.291 C129.651,60.765 117.121,82.575 119.36,107.942 C120.471,120.449 125.034,131.893 132.229,140.159 C139.395,148.397 148.304,152.495 157.312,151.689 C176.159,149.996 189.279,127.809 186.979,101.914 C185.872,89.404 181.302,77.964 174.116,69.694 C166.957,61.457 158.044,57.362 149.037,58.166 C148.651,58.198 148.277,58.239 147.899,58.291 M158.53,152.161 C158.147,152.214 157.757,152.254 157.365,152.293 C148.151,153.113 139.067,148.944 131.769,140.559 C124.503,132.191 119.878,120.637 118.763,107.997 C116.44,81.771 129.806,59.264 148.979,57.565 C158.19,56.745 167.284,60.911 174.588,69.296 C181.845,77.663 186.471,89.222 187.584,101.859 C189.858,127.549 177.099,149.644 158.53,152.161" id="Fill-64" fill="#020609"></path>
            <path d="M141.744,82.379 C142.239,88.013 139.613,92.845 135.86,93.176 C132.11,93.512 128.659,89.22 128.163,83.595 C127.67,77.959 130.299,73.13 134.048,72.791 C137.804,72.461 141.247,76.753 141.744,82.379" id="Fill-65" fill="#FFFFFE"></path>
            <path d="M132.501,105.109 C132.718,107.511 131.599,109.568 130.013,109.716 C128.44,109.855 126.976,108.021 126.765,105.622 C126.558,103.219 127.667,101.16 129.25,101.017 C130.832,100.882 132.29,102.714 132.501,105.109" id="Fill-66" fill="#FFFFFE"></path>
            <polyline id="Fill-67" fill="#CF6C9E" points="164.159 150.021 162.835 153.92 167.364 153.517 164.159 150.021"></polyline>
            <path d="M163.273,153.573 L166.728,153.266 L164.282,150.601 L163.273,153.573 M167.403,153.816 L167.394,153.811 L162.864,154.213 C162.759,154.228 162.662,154.192 162.601,154.11 C162.534,154.024 162.511,153.925 162.546,153.819 L163.884,149.926 C163.911,149.83 163.995,149.752 164.101,149.728 C164.216,149.712 164.314,149.741 164.384,149.818 L167.588,153.308 C167.663,153.39 167.685,153.524 167.646,153.624 C167.61,153.728 167.52,153.8 167.403,153.816" id="Fill-68" fill="#020609"></path>
            <path d="M155.08,151.789 C146.842,151.789 138.802,147.716 132.229,140.159 C130.181,137.806 128.347,135.196 126.744,132.377 C126.913,131.273 127.05,130.148 127.15,129.011 C134.057,137.445 144.279,142.393 153.887,142.392 C167.856,142.389 180.523,131.923 179.778,106.484 C178.875,75.292 163.739,62.962 152.034,58.079 C160.003,58.324 167.753,62.373 174.116,69.694 C180.729,77.305 185.127,87.602 186.649,98.946 C184.464,104.937 183.148,111.641 182.931,118.747 C182.825,122.233 182.99,125.668 183.413,129.009 C179.504,139.013 172.836,146.636 164.515,149.961 L164.384,149.818 C164.327,149.755 164.25,149.724 164.161,149.724 C164.141,149.724 164.121,149.725 164.101,149.728 C163.995,149.752 163.911,149.83 163.884,149.926 L163.774,150.244 C161.712,150.997 159.552,151.488 157.312,151.689 C156.567,151.756 155.823,151.789 155.08,151.789" id="Fill-69" fill="#E67734"></path>
            <path d="M155.098,152.086 C143.867,152.085 133.441,144.567 126.674,132.816 C126.698,132.669 126.721,132.524 126.744,132.377 C128.347,135.196 130.181,137.806 132.229,140.159 C138.802,147.716 146.842,151.789 155.08,151.789 C155.823,151.789 156.567,151.756 157.312,151.689 C159.552,151.488 161.712,150.997 163.774,150.244 L163.655,150.592 C161.632,151.318 159.52,151.792 157.335,151.986 C156.585,152.053 155.841,152.086 155.098,152.086 M164.719,150.184 L164.515,149.961 C172.836,146.636 179.504,139.013 183.413,129.009 C183.434,129.175 183.456,129.341 183.478,129.507 C179.512,139.332 172.889,146.841 164.719,150.184 M186.649,98.946 C185.127,87.602 180.729,77.305 174.116,69.694 C167.753,62.373 160.003,58.324 152.034,58.079 C151.785,57.975 151.536,57.874 151.29,57.776 C168.347,57.802 183.551,75.154 186.874,98.34 C186.798,98.541 186.723,98.743 186.649,98.946" id="Fill-70" fill="#020407"></path>
            <path d="M163.655,150.592 L163.774,150.244 L163.884,149.926 C163.911,149.83 163.995,149.752 164.101,149.728 C164.121,149.725 164.141,149.724 164.161,149.724 C164.25,149.724 164.327,149.755 164.384,149.818 L164.515,149.961 L164.719,150.184 C164.367,150.328 164.013,150.463 163.655,150.592" id="Fill-71" fill="#020407"></path>
            <polyline id="Fill-72" fill="#131514" points="323.032 247.866 322.581 247.755 337.192 188.482 337.645 188.591 323.032 247.866"></polyline>
            <path d="M362.696,165.521 C357.952,182.787 343.953,194.002 331.432,190.566 C318.909,187.136 312.61,170.357 317.362,153.087 C322.112,135.815 336.105,124.599 348.626,128.034 C361.148,131.465 367.446,148.25 362.696,165.521" id="Fill-73" fill="#9A8BB6"></path>
            <path d="M347.813,128.042 C335.483,125.26 322.198,136.286 317.56,153.139 C315.276,161.449 315.47,169.902 318.119,176.944 C320.751,183.959 325.501,188.729 331.487,190.369 C344.016,193.796 357.769,182.67 362.495,165.463 C364.781,157.152 364.584,148.698 361.942,141.658 C359.313,134.645 354.561,129.876 348.573,128.234 C348.317,128.162 348.068,128.098 347.813,128.042 M332.158,190.965 C331.898,190.907 331.639,190.839 331.379,190.771 C325.256,189.091 320.411,184.232 317.726,177.089 C315.057,169.966 314.852,161.427 317.161,153.03 C321.952,135.606 335.941,124.332 348.683,127.835 C354.803,129.514 359.654,134.372 362.341,141.514 C365.005,148.635 365.209,157.177 362.898,165.573 C358.207,182.642 344.706,193.795 332.158,190.965" id="Fill-74" fill="#020609"></path>
            <path d="M338.083,142.061 C337.052,145.802 334.204,148.281 331.711,147.594 C329.217,146.913 328.026,143.325 329.055,139.588 C330.089,135.844 332.936,133.369 335.43,134.049 C337.923,134.737 339.111,138.323 338.083,142.061" id="Fill-75" fill="#FFFFFE"></path>
            <path d="M326.691,154.464 C326.255,156.062 325.042,157.117 323.984,156.832 C322.941,156.545 322.44,155.013 322.878,153.421 C323.32,151.826 324.526,150.766 325.58,151.054 C326.63,151.346 327.129,152.874 326.691,154.464" id="Fill-76" fill="#FFFFFE"></path>
            <polyline id="Fill-77" fill="#CF6C9E" points="336.291 190.937 334.506 193.129 337.515 193.955 336.291 190.937"></polyline>
            <path d="M334.87,193.009 L337.166,193.64 L336.231,191.34 L334.87,193.009 M337.47,194.156 L337.464,194.15 L334.455,193.324 L334.31,193.194 L334.343,192.994 L336.138,190.81 L336.325,190.736 L336.484,190.861 L337.709,193.874 L337.671,194.089 L337.47,194.156" id="Fill-78" fill="#020609"></path>
            <path d="M335.991,190.988 C334.484,190.978 332.977,190.776 331.487,190.369 C325.501,188.729 320.751,183.959 318.119,176.944 C317.307,174.785 316.725,172.492 316.375,170.113 C316.849,169.851 317.319,169.576 317.785,169.287 C321.15,178.233 329.273,184.694 337.558,184.694 C344.904,184.693 352.378,179.612 356.771,166.677 C363.661,146.4 356.882,134.842 350.524,128.897 C355.592,130.964 359.605,135.425 361.942,141.658 C364.584,148.698 364.781,157.152 362.495,165.463 C358.399,180.378 347.519,190.725 336.534,190.984 L336.484,190.861 L336.325,190.736 L336.138,190.81 L335.991,190.988" id="Fill-79" fill="#7E70A6"></path>
            <path d="M335.831,191.184 C334.356,191.166 332.884,190.964 331.432,190.566 C323.223,188.314 317.692,180.319 316.198,170.21 C316.257,170.178 316.316,170.145 316.375,170.113 C316.725,172.492 317.307,174.785 318.119,176.944 C320.751,183.959 325.501,188.729 331.487,190.369 C332.977,190.776 334.484,190.978 335.991,190.988 L335.831,191.184 M336.612,191.176 L336.534,190.984 C347.519,190.725 358.399,180.378 362.495,165.463 C364.781,157.152 364.584,148.698 361.942,141.658 C359.605,135.425 355.592,130.964 350.524,128.897 C350.388,128.77 350.253,128.645 350.117,128.523 C361.635,132.834 367.256,148.95 362.696,165.521 C358.599,180.431 347.601,190.829 336.612,191.176" id="Fill-80" fill="#010509"></path>
            <path d="M336.045,191.185 C335.974,191.185 335.902,191.185 335.831,191.184 L335.991,190.988 L336.138,190.81 L336.325,190.736 L336.484,190.861 L336.612,191.176 C336.424,191.182 336.234,191.185 336.045,191.185" id="Fill-81" fill="#010509"></path>
            <polyline id="Fill-82" fill="#131514" points="273.543 235.797 273.077 235.808 271.599 174.782 272.065 174.77 273.543 235.797"></polyline>
            <path d="M287.792,145.84 C287.754,161.518 278.512,174.211 267.146,174.193 C255.782,174.175 246.601,161.448 246.64,145.77 C246.678,130.088 255.917,117.396 267.282,117.416 C278.649,117.435 287.831,130.16 287.792,145.84" id="Fill-83" fill="#B8D259"></path>
            <path d="M266.596,117.609 C255.543,118.097 246.858,130.466 246.819,145.767 C246.802,153.313 248.913,160.409 252.766,165.747 C256.606,171.065 261.715,174.001 267.147,174.009 C278.517,174.022 287.573,161.46 287.607,145.839 C287.627,138.293 285.516,131.2 281.666,125.86 C277.829,120.541 272.718,117.606 267.282,117.598 C267.055,117.596 266.828,117.599 266.596,117.609 M267.85,174.359 C267.618,174.369 267.385,174.374 267.147,174.375 C261.589,174.364 256.381,171.376 252.467,165.96 C248.576,160.557 246.439,153.391 246.459,145.767 C246.495,129.947 255.721,117.206 267.281,117.234 C272.843,117.244 278.055,120.232 281.968,125.647 C285.856,131.048 287.995,138.216 287.975,145.839 C287.936,161.337 279.099,173.862 267.85,174.359" id="Fill-84" fill="#020609"></path>
            <path d="M261.604,131.687 C261.596,135.087 259.759,137.835 257.492,137.829 C255.231,137.826 253.402,135.07 253.412,131.676 C253.42,128.279 255.259,125.531 257.524,125.532 C259.782,125.539 261.614,128.296 261.604,131.687" id="Fill-85" fill="#FFFFFE"></path>
            <path d="M254.836,144.786 C254.835,146.236 254.052,147.407 253.096,147.408 C252.147,147.406 251.37,146.23 251.374,144.782 C251.381,143.334 252.154,142.16 253.113,142.163 C254.068,142.167 254.842,143.341 254.836,144.786" id="Fill-86" fill="#FFFFFE"></path>
            <polyline id="Fill-87" fill="#CF6C9E" points="271.337 173.387 270.332 175.645 273.066 175.65 271.337 173.387"></polyline>
            <path d="M270.611,175.463 L272.696,175.466 L271.38,173.741 L270.611,175.463 M273.074,175.833 L273.066,175.829 L270.333,175.823 L270.18,175.746 L270.162,175.571 L271.177,173.313 L271.314,173.207 L271.479,173.276 L273.208,175.54 L273.225,175.731 L273.074,175.833" id="Fill-88" fill="#020609"></path>
            <path d="M267.165,174.009 C267.159,174.009 267.153,174.009 267.147,174.009 C261.715,174.001 256.606,171.065 252.766,165.747 C250.086,162.034 248.249,157.47 247.384,152.496 C250.089,161.98 258.89,168.33 267.084,168.329 C272.643,168.328 277.923,165.406 280.827,158.553 C281.646,160.071 282.543,161.486 283.511,162.794 C280.63,168.085 276.427,171.916 271.55,173.368 L271.479,173.276 L271.314,173.207 L271.177,173.313 L271.094,173.496 C269.825,173.833 268.511,174.009 267.165,174.009" id="Fill-89" fill="#90BA3F"></path>
            <path d="M267.169,174.193 C267.161,174.193 267.153,174.193 267.146,174.193 C256.967,174.173 248.544,163.956 246.926,150.554 C247.05,151.215 247.203,151.862 247.384,152.496 C248.249,157.47 250.086,162.034 252.766,165.747 C256.606,171.065 261.715,174.001 267.147,174.009 C267.153,174.009 267.159,174.009 267.165,174.009 C268.511,174.009 269.825,173.833 271.094,173.496 L271.002,173.702 C269.76,174.024 268.479,174.193 267.169,174.193 M271.662,173.515 L271.55,173.368 C276.427,171.916 280.63,168.085 283.511,162.794 C283.543,162.836 283.574,162.879 283.606,162.922 C280.705,168.195 276.503,172.03 271.662,173.515" id="Fill-90" fill="#020507"></path>
            <path d="M276.782,123.995 C274.381,121.039 271.62,119.047 269.091,117.71 C272.046,118.072 274.869,119.307 277.402,121.326 C277.177,122.204 276.97,123.094 276.782,123.995" id="Fill-91" fill="#90BA3F"></path>
            <path d="M277.402,121.326 C274.869,119.307 272.046,118.072 269.091,117.71 C268.945,117.632 268.8,117.558 268.655,117.485 C271.841,117.779 274.827,119.075 277.449,121.144 C277.433,121.203 277.417,121.266 277.402,121.326" id="Fill-92" fill="#020507"></path>
            <path d="M271.002,173.702 L271.094,173.496 L271.177,173.313 L271.314,173.207 L271.479,173.276 L271.55,173.368 L271.662,173.515 C271.443,173.582 271.223,173.644 271.002,173.702" id="Fill-93" fill="#020507"></path>
            <polyline id="Fill-94" fill="#131514" points="102.832 225.587 102.366 225.578 103.579 164.546 104.044 164.553 102.832 225.587"></polyline>
            <path d="M127.06,126.756 C126.091,147.586 113.064,163.912 97.962,163.221 C82.862,162.53 71.407,145.082 72.378,124.247 C73.351,103.412 86.373,87.088 101.472,87.781 C116.575,88.472 128.029,105.921 127.06,126.756" id="Fill-95" fill="#D6242C"></path>
            <path d="M100.55,87.998 C85.835,87.998 73.569,103.924 72.618,124.256 C72.15,134.281 74.538,143.836 79.347,151.153 C84.138,158.446 90.755,162.648 97.975,162.977 C113.083,163.661 125.855,147.498 126.815,126.745 C127.282,116.716 124.896,107.166 120.091,99.846 C115.304,92.551 108.688,88.352 101.463,88.023 C101.155,88.007 100.855,87.998 100.55,87.998 M98.89,163.483 C98.577,163.483 98.268,163.473 97.952,163.462 C90.569,163.124 83.821,158.845 78.938,151.419 C74.083,144.013 71.663,134.365 72.136,124.235 C73.114,103.215 86.118,86.824 101.486,87.538 C108.868,87.879 115.62,92.155 120.503,99.579 C125.354,106.987 127.774,116.637 127.302,126.765 C126.343,147.357 113.866,163.483 98.89,163.483" id="Fill-96" fill="#020609"></path>
            <path d="M93.093,106.415 C92.88,110.929 90.278,114.474 87.267,114.333 C84.262,114.196 81.99,110.426 82.205,105.918 C82.417,101.403 85.019,97.861 88.028,97.995 C91.032,98.137 93.301,101.907 93.093,106.415" id="Fill-97" fill="#FFFFFE"></path>
            <path d="M83.331,123.424 C83.241,125.348 82.134,126.86 80.864,126.805 C79.603,126.746 78.638,125.138 78.73,123.215 C78.823,121.289 79.923,119.776 81.192,119.835 C82.46,119.895 83.419,121.502 83.331,123.424" id="Fill-98" fill="#FFFFFE"></path>
            <polyline id="Fill-99" fill="#CF6C9E" points="103.577 162.396 102.112 165.337 105.743 165.504 103.577 162.396"></polyline>
            <path d="M102.491,165.112 L105.26,165.239 L103.614,162.869 L102.491,165.112 M105.743,165.749 L105.733,165.744 L102.102,165.575 L101.903,165.463 L101.89,165.229 L103.368,162.286 L103.56,162.154 C103.655,162.154 103.729,162.192 103.776,162.256 L105.937,165.366 L105.95,165.621 L105.743,165.749" id="Fill-100" fill="#020609"></path>
            <path d="M98.898,162.998 C98.592,162.998 98.283,162.991 97.975,162.977 C90.755,162.648 84.138,158.446 79.347,151.153 C75.999,146.059 73.825,139.88 72.97,133.214 C76.084,146.342 87.97,155.445 99.138,155.445 C109.194,155.444 118.667,148.062 120.624,129.588 C123.257,104.795 112.598,93.405 103.856,88.276 C110.141,89.328 115.838,93.365 120.091,99.846 C124.896,107.166 127.282,116.716 126.815,126.745 C125.982,144.736 116.277,159.276 103.864,162.383 L103.776,162.256 C103.729,162.192 103.655,162.154 103.56,162.154 L103.368,162.286 L103.247,162.528 C101.828,162.837 100.375,162.998 98.898,162.998" id="Fill-101" fill="#A32629"></path>
            <path d="M98.885,163.242 C98.579,163.242 98.27,163.235 97.962,163.221 C84.439,162.594 73.843,148.526 72.48,130.623 C72.605,131.502 72.769,132.367 72.97,133.214 C73.825,139.88 75.999,146.059 79.347,151.153 C84.138,158.446 90.755,162.648 97.975,162.977 C98.283,162.991 98.592,162.998 98.898,162.998 C100.375,162.998 101.828,162.837 103.247,162.528 L103.112,162.796 C101.73,163.09 100.318,163.243 98.885,163.242 M104.005,162.585 L103.864,162.383 C116.277,159.276 125.982,144.736 126.815,126.745 C127.282,116.716 124.896,107.166 120.091,99.846 C115.838,93.365 110.141,89.328 103.856,88.276 C103.668,88.166 103.481,88.058 103.294,87.953 C117.479,89.901 127.992,106.767 127.06,126.756 C126.223,144.744 116.397,159.373 104.005,162.585" id="Fill-102" fill="#010408"></path>
            <path d="M103.112,162.796 L103.247,162.528 L103.368,162.286 L103.56,162.154 C103.655,162.154 103.729,162.192 103.776,162.256 L103.864,162.383 L104.005,162.585 C103.709,162.662 103.411,162.732 103.112,162.796" id="Fill-103" fill="#010408"></path>
            <polyline id="Fill-104" fill="#131514" points="297.559 235.968 297.096 235.904 305.529 175.444 305.991 175.508 297.559 235.968"></polyline>
            <path d="M337.895,136.692 C333.377,159.928 316.057,176.122 299.212,172.86 C282.361,169.6 272.365,148.117 276.885,124.876 C281.404,101.634 298.715,85.441 315.564,88.706 C332.41,91.965 342.407,113.45 337.895,136.692" id="Fill-105" fill="#EA9CBA"></path>
            <path d="M314.492,88.796 C297.962,86.375 281.561,102.244 277.155,124.926 C274.979,136.11 276.09,147.233 280.284,156.242 C284.467,165.223 291.206,171.032 299.261,172.59 C316.118,175.845 333.122,159.792 337.619,136.637 C339.787,125.452 338.681,114.331 334.491,105.318 C330.314,96.338 323.572,90.531 315.512,88.973 C315.171,88.905 314.836,88.847 314.492,88.796 M300.206,173.307 C299.858,173.255 299.511,173.196 299.158,173.129 C290.92,171.536 284.045,165.621 279.785,156.477 C275.547,147.358 274.421,136.123 276.615,124.823 C281.172,101.373 298.478,85.105 315.619,88.436 C323.858,90.032 330.734,95.945 334.997,105.089 C339.227,114.206 340.358,125.443 338.159,136.74 C333.694,159.712 317.029,175.771 300.206,173.307" id="Fill-106" fill="#020609"></path>
            <path d="M303.085,108.254 C302.103,113.29 298.593,116.843 295.242,116.19 C291.886,115.543 289.958,110.934 290.937,105.905 C291.916,100.871 295.426,97.318 298.781,97.965 C302.131,98.617 304.062,103.225 303.085,108.254" id="Fill-107" fill="#FFFFFE"></path>
            <path d="M289.322,125.753 C288.904,127.902 287.413,129.415 285.992,129.144 C284.585,128.871 283.77,126.907 284.188,124.761 C284.607,122.615 286.089,121.096 287.509,121.369 C288.923,121.647 289.737,123.61 289.322,125.753" id="Fill-108" fill="#FFFFFE"></path>
            <polyline id="Fill-109" fill="#CF6C9E" points="305.653 172.859 303.52 175.923 307.568 176.71 305.653 172.859"></polyline>
            <path d="M303.983,175.731 L307.073,176.328 L305.614,173.395 L303.983,175.731 M307.529,176.979 L307.519,176.973 L303.468,176.186 C303.376,176.171 303.299,176.112 303.268,176.026 L303.291,175.766 L305.433,172.702 C305.482,172.628 305.574,172.578 305.669,172.585 C305.775,172.6 305.855,172.652 305.898,172.735 L307.812,176.583 C307.857,176.674 307.848,176.791 307.787,176.873 C307.726,176.954 307.628,176.995 307.529,176.979" id="Fill-110" fill="#020609"></path>
            <path d="M303.638,173.01 C302.184,173.009 300.721,172.872 299.261,172.59 C291.206,171.032 284.467,165.223 280.284,156.242 C277.367,149.976 275.942,142.687 276.076,135.067 C277.539,151.63 291.392,164.562 305.06,164.561 C315.31,164.56 325.458,157.286 330.194,138.816 C337.231,111.397 327.132,96.848 318.159,89.652 C325.045,91.867 330.78,97.34 334.491,105.318 C338.681,114.331 339.787,125.452 337.619,136.637 C333.721,156.708 320.428,171.443 305.977,172.892 L305.898,172.735 C305.855,172.652 305.775,172.6 305.669,172.585 C305.663,172.584 305.657,172.584 305.652,172.584 C305.563,172.584 305.479,172.632 305.433,172.702 L305.257,172.953 C304.718,172.991 304.179,173.01 303.638,173.01" id="Fill-111" fill="#E780A6"></path>
            <path d="M303.57,173.278 C302.12,173.278 300.664,173.141 299.212,172.86 C284.12,169.933 274.536,152.387 275.949,132.055 C275.945,133.071 275.988,134.076 276.076,135.067 C275.942,142.687 277.367,149.976 280.284,156.242 C284.467,165.223 291.206,171.032 299.261,172.59 C300.721,172.872 302.184,173.009 303.638,173.01 C304.179,173.01 304.718,172.991 305.257,172.953 L305.064,173.23 C304.567,173.262 304.068,173.278 303.57,173.278 M306.1,173.14 L305.977,172.892 C320.428,171.443 333.721,156.708 337.619,136.637 C339.787,125.452 338.681,114.331 334.491,105.318 C330.78,97.34 325.045,91.867 318.159,89.652 C317.966,89.497 317.774,89.346 317.582,89.198 C333.194,93.72 342.229,114.393 337.895,136.692 C333.993,156.758 320.546,171.572 306.1,173.14" id="Fill-112" fill="#020509"></path>
            <path d="M305.064,173.23 L305.257,172.953 L305.433,172.702 C305.479,172.632 305.563,172.584 305.652,172.584 C305.657,172.584 305.663,172.584 305.669,172.585 C305.775,172.6 305.855,172.652 305.898,172.735 L305.977,172.892 L306.1,173.14 C305.755,173.178 305.41,173.207 305.064,173.23" id="Fill-113" fill="#020509"></path>
            <polyline id="Fill-114" fill="#131514" points="225.582 236.453 225.064 236.464 223.524 168.909 224.04 168.897 225.582 236.453"></polyline>
            <path d="M251.992,120.814 C251.189,147.006 235.146,167.778 216.163,167.21 C197.174,166.646 182.432,144.953 183.234,118.757 C184.038,92.561 200.07,71.79 219.06,72.361 C238.044,72.924 252.788,94.619 251.992,120.814" id="Fill-115" fill="#EA9CBA"></path>
            <path d="M217.905,72.65 C199.414,72.944 184.318,93.199 183.539,118.764 C183.151,131.37 186.343,143.324 192.528,152.421 C198.695,161.489 207.091,166.637 216.168,166.906 C235.165,167.464 250.886,146.901 251.682,120.803 C252.06,108.198 248.873,96.245 242.692,87.142 C236.532,78.075 228.134,72.93 219.05,72.661 C218.665,72.648 218.289,72.644 217.905,72.65 M217.329,167.521 C216.94,167.527 216.55,167.523 216.152,167.514 C206.868,167.237 198.305,161.999 192.024,152.766 C185.772,143.557 182.544,131.483 182.931,118.747 C183.738,92.317 199.751,71.465 219.071,72.056 C228.357,72.334 236.921,77.571 243.205,86.803 C249.447,96.011 252.683,108.087 252.289,120.819 C251.497,146.711 236.147,167.221 217.329,167.521" id="Fill-116" fill="#020609"></path>
            <path d="M208.902,95.937 C208.725,101.614 205.522,106.12 201.746,106.002 C197.964,105.892 195.038,101.2 195.213,95.531 C195.387,89.858 198.59,85.352 202.371,85.462 C206.146,85.578 209.075,90.269 208.902,95.937" id="Fill-117" fill="#FFFFFE"></path>
            <path d="M196.979,117.504 C196.904,119.926 195.545,121.843 193.944,121.8 C192.357,121.753 191.118,119.752 191.193,117.333 C191.27,114.914 192.618,112.991 194.219,113.036 C195.813,113.088 197.052,115.089 196.979,117.504" id="Fill-118" fill="#FFFFFE"></path>
            <polyline id="Fill-119" fill="#CF6C9E" points="223.2 166.063 221.414 169.791 225.978 169.928 223.2 166.063"></polyline>
            <path d="M221.887,169.498 L225.368,169.6 L223.253,166.657 L221.887,169.498 M225.982,170.231 L225.97,170.227 L221.404,170.087 C221.302,170.087 221.206,170.036 221.157,169.948 C221.098,169.864 221.087,169.753 221.136,169.659 L222.932,165.93 C222.972,165.84 223.063,165.77 223.169,165.76 C223.287,165.758 223.384,165.801 223.446,165.884 L226.222,169.749 C226.287,169.84 226.297,169.968 226.246,170.069 C226.192,170.168 226.093,170.23 225.982,170.231" id="Fill-120" fill="#020609"></path>
            <path d="M216.924,166.917 C216.673,166.917 216.42,166.913 216.168,166.906 C207.091,166.637 198.695,161.489 192.528,152.421 C188.226,146.093 185.371,138.382 184.163,130.031 C188.304,146.293 203.157,157.425 217.066,157.422 C229.855,157.42 241.845,148.004 243.957,124.505 C246.768,93.297 233.146,79.198 222.063,72.932 C229.98,74.127 237.22,79.086 242.692,87.142 C248.873,96.245 252.06,108.198 251.682,120.803 C250.992,143.425 239.09,161.888 223.559,166.041 L223.446,165.884 C223.385,165.803 223.291,165.76 223.177,165.76 C223.174,165.76 223.172,165.76 223.169,165.76 C223.063,165.77 222.972,165.84 222.932,165.93 L222.784,166.236 C220.878,166.684 218.92,166.917 216.924,166.917" id="Fill-121" fill="#E780A6"></path>
            <path d="M216.924,167.221 C216.671,167.221 216.417,167.217 216.163,167.21 C199.154,166.697 185.562,149.232 183.49,126.768 C183.666,127.876 183.892,128.965 184.163,130.031 C185.371,138.382 188.226,146.093 192.528,152.421 C198.695,161.489 207.091,166.637 216.168,166.906 C216.42,166.913 216.673,166.917 216.924,166.917 C218.92,166.917 220.878,166.684 222.784,166.236 L222.622,166.573 C220.765,166.999 218.86,167.221 216.924,167.221 M223.738,166.291 L223.559,166.041 C239.09,161.888 250.992,143.425 251.682,120.803 C252.06,108.198 248.873,96.245 242.692,87.142 C237.22,79.086 229.98,74.127 222.063,72.932 C221.824,72.797 221.587,72.666 221.352,72.539 C239.213,74.703 252.76,95.682 251.992,120.814 C251.299,143.433 239.242,162.009 223.738,166.291" id="Fill-122" fill="#020509"></path>
            <path d="M222.622,166.573 L222.784,166.236 L222.932,165.93 C222.972,165.84 223.063,165.77 223.169,165.76 C223.172,165.76 223.174,165.76 223.177,165.76 C223.291,165.76 223.385,165.803 223.446,165.884 L223.559,166.041 L223.738,166.291 C223.368,166.393 222.996,166.487 222.622,166.573" id="Fill-123" fill="#020509"></path>
            <path d="M39.171,257.117 C35.841,254.763 32.477,252.483 29.08,250.281 C25.684,248.077 22.355,245.69 19.091,243.116 L18.663,242.688 C18.864,241.425 19.233,240.223 19.773,239.08 C20.311,237.936 20.925,236.839 21.614,235.788 C22.304,234.737 23.035,233.699 23.809,232.673 C24.581,231.647 25.314,230.579 26.003,229.469 C26.306,229.268 26.65,229.167 27.037,229.167 C27.341,229.167 27.617,229.235 27.87,229.37 C29.652,230.259 31.355,231.264 32.978,232.382 C34.601,233.502 36.194,234.666 37.758,235.877 C39.321,237.089 40.878,238.303 42.425,239.521 C43.972,240.741 45.561,241.905 47.192,243.016 C48.841,239.938 50.74,237.091 52.894,234.476 C55.046,231.863 57.224,229.21 59.427,226.518 C59.628,226.282 59.905,226.166 60.259,226.166 C60.78,226.166 61.226,226.376 61.596,226.796 C62.773,227.435 63.857,228.17 64.85,229.003 C65.843,229.837 66.805,230.706 67.738,231.614 C68.672,232.522 69.597,233.46 70.513,234.426 C71.43,235.393 72.367,236.322 73.325,237.214 C73.09,237.837 72.901,238.475 72.759,239.131 C72.614,239.787 72.409,240.426 72.14,241.047 C67.414,248.111 62.727,255.194 58.077,262.3 C53.427,269.406 48.622,276.353 43.661,283.149 C43.324,283.484 42.946,283.654 42.525,283.654 C42.29,283.654 42.139,283.636 42.071,283.603 C39.97,282.711 37.927,281.764 35.942,280.764 C33.958,279.765 32.023,278.59 30.14,277.247 C29.904,277.112 29.682,276.96 29.472,276.793 C29.261,276.623 29.156,276.397 29.156,276.11 C29.156,275.943 29.173,275.841 29.206,275.808 C30.267,274.428 31.229,272.975 32.095,271.445 C32.96,269.913 33.772,268.345 34.528,266.74 C35.286,265.134 36.034,263.523 36.774,261.91 C37.514,260.295 38.314,258.696 39.171,257.117" id="Fill-124" fill="#131514"></path>
            <path d="M83.29,244.15 C82.6,244.15 81.876,244.252 81.12,244.453 C80.364,244.655 79.674,244.954 79.052,245.348 C78.43,245.745 77.921,246.218 77.526,246.774 C77.13,247.329 76.933,247.951 76.933,248.64 C76.933,249.264 77.097,249.805 77.425,250.268 C77.753,250.73 78.173,251.108 78.687,251.402 C79.198,251.696 79.758,251.92 80.364,252.072 C80.969,252.223 81.565,252.297 82.154,252.297 C82.81,252.297 83.483,252.198 84.173,251.996 C84.862,251.793 85.488,251.496 86.052,251.1 C86.615,250.705 87.069,250.213 87.414,249.624 C87.759,249.036 87.931,248.363 87.931,247.606 C87.931,246.983 87.784,246.459 87.489,246.03 C87.195,245.601 86.817,245.249 86.355,244.969 C85.892,244.693 85.388,244.487 84.841,244.353 C84.294,244.218 83.777,244.15 83.29,244.15 Z M104.378,255.402 C104.378,257.536 104.05,259.615 103.394,261.631 C102.738,263.65 101.721,265.457 100.342,267.054 C98.963,268.652 97.231,269.936 95.146,270.902 C93.06,271.869 90.588,272.353 87.73,272.353 C84.735,272.353 82.05,271.843 79.67,270.826 C77.29,269.809 75.276,268.447 73.628,266.74 C71.98,265.033 70.715,263.069 69.832,260.85 C68.948,258.629 68.507,256.3 68.507,253.863 C68.507,251.759 68.911,249.717 69.719,247.732 C70.525,245.748 71.682,243.983 73.187,242.435 C74.692,240.888 76.474,239.64 78.534,238.689 C80.595,237.74 82.903,237.263 85.459,237.263 C88.452,237.263 91.122,237.756 93.468,238.74 C95.813,239.723 97.794,241.052 99.409,242.724 C101.022,244.399 102.255,246.329 103.104,248.514 C103.952,250.701 104.378,252.997 104.378,255.402 Z" id="Fill-125" fill="#131514"></path>
            <path d="M135.431,272.855 C134.522,272.855 133.63,272.833 132.757,272.782 C131.882,272.731 130.999,272.622 130.108,272.452 C129.653,272.252 129.368,271.945 129.251,271.532 C129.132,271.121 129.073,270.672 129.073,270.182 C129.073,269.898 129.081,269.629 129.099,269.376 C129.115,269.125 129.124,268.871 129.124,268.62 C127.678,270.182 126.198,271.288 124.685,271.935 C123.171,272.585 121.581,272.906 119.917,272.906 C117.781,272.906 115.801,272.381 113.976,271.331 C112.151,270.281 110.55,268.881 109.171,267.131 C107.792,265.382 106.716,263.377 105.942,261.114 C105.169,258.853 104.782,256.518 104.782,254.114 C104.916,252.6 105.001,251.067 105.034,249.509 C105.067,247.955 105.104,246.405 105.147,244.856 C105.189,243.31 105.253,241.763 105.337,240.215 C105.421,238.669 105.58,237.137 105.815,235.625 C105.815,235.49 105.946,235.393 106.207,235.334 C106.468,235.276 106.698,235.247 106.901,235.247 C108.212,235.247 109.377,235.263 110.395,235.297 C111.411,235.331 112.483,235.346 113.61,235.346 C114.485,235.346 115.41,235.331 116.386,235.297 C117.36,235.263 118.504,235.196 119.816,235.094 C120.203,235.163 120.53,235.376 120.8,235.739 C121.069,236.099 121.204,236.525 121.204,237.012 C120.514,238.661 120.026,240.172 119.74,241.552 C119.454,242.931 119.312,244.21 119.312,245.386 C119.312,246.664 119.467,247.783 119.778,248.741 C120.089,249.7 120.501,250.506 121.015,251.164 C121.527,251.818 122.12,252.31 122.793,252.638 C123.465,252.967 124.146,253.131 124.836,253.131 C125.56,253.131 126.282,252.95 127.005,252.589 C127.728,252.226 128.372,251.676 128.935,250.935 C129.499,250.196 129.952,249.275 130.298,248.173 C130.642,247.072 130.814,245.764 130.814,244.252 C130.814,243.242 130.722,242.145 130.536,240.959 C130.352,239.774 130.049,238.491 129.628,237.114 C130.149,236.59 130.89,236.331 131.849,236.331 C132.757,236.331 133.715,236.393 134.725,236.52 C135.733,236.647 136.691,236.709 137.6,236.709 C138.895,236.709 140.214,236.578 141.56,236.318 C142.905,236.058 144.218,235.893 145.495,235.826 C146.084,235.926 146.454,236.246 146.605,236.785 C146.757,237.324 146.833,237.844 146.833,238.348 C146.697,241.375 146.589,244.34 146.505,247.24 C146.42,250.141 146.378,253.089 146.378,256.083 C146.378,258.589 146.42,261.081 146.505,263.561 C146.589,266.043 146.731,268.577 146.933,271.167 C145.083,271.721 143.19,272.143 141.257,272.426 C139.323,272.714 137.381,272.855 135.431,272.855" id="Fill-126" fill="#131514"></path>
            <path d="M210.805,261.505 C208.801,263.977 206.839,266.504 204.912,269.087 C202.987,271.669 201.302,274.479 199.855,277.523 C198.947,277.591 198.015,277.65 197.057,277.701 C196.098,277.752 195.113,277.777 194.104,277.777 C192.625,277.777 191.187,277.645 189.792,277.386 C188.395,277.125 187.151,276.599 186.058,275.808 C184.914,271.823 183.687,267.828 182.375,263.825 C181.063,259.825 179.781,255.816 178.528,251.805 C177.274,247.796 176.123,243.777 175.072,239.749 C174.021,235.721 173.184,231.672 172.563,227.602 C172.915,227.368 173.314,227.215 173.76,227.149 C174.205,227.081 174.672,227.047 175.16,227.047 C176.085,227.047 177.048,227.09 178.049,227.174 C179.048,227.258 179.994,227.299 180.886,227.299 C181.677,227.299 182.521,227.258 183.422,227.174 C184.32,227.09 185.183,227.047 186.007,227.047 C186.663,227.047 187.28,227.106 187.861,227.224 C188.441,227.342 189.008,227.593 189.563,227.981 C190.32,229.276 190.862,230.63 191.19,232.043 C191.52,233.456 191.839,234.867 192.149,236.28 C192.46,237.693 192.847,239.08 193.311,240.441 C193.771,241.803 194.525,243.075 195.567,244.252 C196.761,241.981 197.851,239.657 198.835,237.276 C199.817,234.896 200.839,232.673 201.899,230.604 C204.556,230.049 207.348,229.772 210.275,229.772 C211.619,229.772 212.948,229.843 214.26,229.986 C215.571,230.131 216.842,230.369 218.07,230.706 C218.841,231.496 219.562,232.349 220.226,233.265 C220.891,234.182 221.558,235.112 222.23,236.053 C222.904,236.994 223.585,237.94 224.274,238.891 C224.965,239.841 225.702,240.728 226.494,241.552 C227.014,240.358 227.44,239.131 227.768,237.87 C228.097,236.609 228.399,235.35 228.676,234.097 C228.954,232.845 229.238,231.589 229.533,230.327 C229.827,229.066 230.21,227.829 230.682,226.62 C233.675,226.62 236.625,226.758 239.535,227.036 C242.444,227.312 245.438,227.452 248.517,227.452 C248.717,227.553 248.94,227.637 249.184,227.704 C249.428,227.771 249.65,227.86 249.854,227.969 C250.054,228.079 250.234,228.225 250.394,228.411 C250.554,228.595 250.65,228.846 250.686,229.167 C249.407,233.018 248.243,236.923 247.192,240.882 C246.14,244.845 245.047,248.797 243.913,252.739 C242.776,256.683 241.536,260.593 240.191,264.469 C238.845,268.345 237.249,272.11 235.397,275.757 C235.146,276.059 234.961,276.359 234.845,276.653 C234.726,276.947 234.475,277.188 234.086,277.374 C233.163,277.472 232.206,277.566 231.225,277.65 C230.24,277.733 229.251,277.777 228.26,277.777 C226.981,277.777 225.715,277.688 224.465,277.51 C223.212,277.336 221.997,277.01 220.819,276.539 C220.195,275.362 219.447,274.165 218.574,272.944 C217.699,271.727 216.794,270.494 215.86,269.249 C214.93,268.006 214.017,266.74 213.126,265.454 C212.233,264.168 211.46,262.851 210.805,261.505" id="Fill-127" fill="#131514"></path>
            <path d="M252.273,236.13 C252.273,235.372 252.55,234.729 253.105,234.199 C253.661,233.669 254.352,233.232 255.173,232.887 C255.997,232.543 256.91,232.281 257.91,232.106 C258.912,231.928 259.858,231.839 260.748,231.839 C262.027,231.839 263.363,231.971 264.759,232.232 C266.156,232.492 267.422,232.854 268.556,233.316 C269.692,233.779 270.629,234.355 271.369,235.044 C272.107,235.733 272.478,236.507 272.478,237.365 C272.478,238.122 272.168,238.787 271.544,239.358 C270.923,239.929 270.137,240.405 269.188,240.783 C268.236,241.162 267.194,241.447 266.061,241.641 C264.924,241.834 263.861,241.93 262.869,241.93 C261.623,241.93 260.376,241.809 259.122,241.565 C257.869,241.322 256.733,240.952 255.716,240.454 C254.698,239.96 253.872,239.349 253.232,238.626 C252.593,237.902 252.273,237.07 252.273,236.13 Z M256.513,272.452 C255.921,272.452 255.284,272.426 254.595,272.379 C253.904,272.328 253.261,272.214 252.664,272.036 C252.068,271.861 251.559,271.608 251.137,271.28 C250.719,270.953 250.508,270.537 250.508,270.032 L250.508,254.417 C250.508,252.769 250.465,251.248 250.381,249.851 C250.298,248.456 250.255,247.034 250.255,245.589 C250.255,245.168 250.401,244.84 250.696,244.604 C250.99,244.37 251.343,244.188 251.756,244.061 C252.167,243.937 252.605,243.856 253.067,243.823 C253.529,243.79 253.955,243.772 254.341,243.772 C256.091,243.772 257.672,243.818 259.084,243.912 C260.497,244.003 261.842,244.099 263.12,244.201 C264.398,244.302 265.654,244.393 266.893,244.478 C268.127,244.563 269.451,244.604 270.864,244.604 C271.25,244.604 271.658,244.702 272.087,244.894 C272.516,245.089 272.731,245.454 272.731,245.992 C272.731,247.203 272.846,248.409 273.071,249.611 C273.3,250.814 273.411,252.054 273.411,253.333 C273.411,255.922 273.3,258.5 273.071,261.063 C272.846,263.63 272.731,266.164 272.731,268.671 C272.663,268.922 272.612,269.211 272.579,269.541 C272.546,269.868 272.514,270.187 272.478,270.499 C272.444,270.808 272.387,271.075 272.303,271.293 C272.219,271.511 272.1,271.62 271.95,271.62 C269.375,271.62 266.806,271.759 264.244,272.036 C261.677,272.315 259.1,272.452 256.513,272.452 Z" id="Fill-128" fill="#131514"></path>
            <path d="M294.904,263.297 C294.181,263.297 293.631,263.617 293.253,264.254 C292.875,264.893 292.685,265.735 292.685,266.778 C292.685,268.358 293.063,270.022 293.82,271.772 C293.785,272.092 293.699,272.379 293.555,272.63 C293.412,272.881 293.139,273.007 292.735,273.007 C291.289,273.007 289.851,273.071 288.423,273.198 C286.992,273.322 285.554,273.462 284.108,273.614 C282.662,273.763 281.217,273.903 279.771,274.03 C278.322,274.157 276.876,274.217 275.431,274.217 C275.144,274.217 274.9,274.114 274.7,273.903 C274.497,273.693 274.324,273.431 274.183,273.122 C274.04,272.81 273.944,272.475 273.894,272.112 C273.843,271.753 273.817,271.42 273.817,271.116 C273.817,267.77 273.946,264.436 274.208,261.114 C274.469,257.795 274.599,254.408 274.599,250.961 C274.599,249.885 274.624,248.615 274.675,247.152 C274.726,245.69 274.801,244.29 274.9,242.953 C275.002,241.616 275.131,240.472 275.293,239.521 C275.45,238.572 275.633,238.08 275.834,238.046 C278.205,237.743 280.547,237.52 282.86,237.378 C285.171,237.235 287.515,237.146 289.884,237.114 C290.843,237.114 291.454,237.399 291.713,237.971 C291.975,238.542 292.106,239.173 292.106,239.862 C292.106,240.198 292.096,240.53 292.081,240.859 C292.063,241.187 292.056,241.485 292.056,241.755 C293.501,240.895 294.879,240.27 296.192,239.875 C297.504,239.48 298.78,239.282 300.025,239.282 C302.917,239.282 305.276,239.913 307.103,241.174 C308.927,242.435 310.364,244.235 311.415,246.573 C312.465,248.91 313.188,251.74 313.584,255.06 C313.979,258.383 314.177,262.129 314.177,266.298 C314.177,266.953 314.151,267.635 314.101,268.34 C314.05,269.048 313.972,269.703 313.862,270.309 C313.751,270.915 313.596,271.415 313.396,271.81 C313.193,272.207 312.932,272.402 312.612,272.402 C310.243,272.402 307.858,272.42 305.461,272.452 C303.064,272.488 300.683,272.622 298.311,272.855 C297.823,272.855 297.461,272.637 297.225,272.201 C297.78,270.789 298.057,269.376 298.057,267.963 C298.057,266.618 297.788,265.505 297.25,264.622 C296.713,263.739 295.932,263.297 294.904,263.297" id="Fill-129" fill="#131514"></path>
            <path d="M336.07,228.385 C337.047,228.385 337.65,228.649 337.887,229.178 C338.123,229.71 338.242,230.268 338.242,230.857 C337.971,233.447 337.56,236.024 337.004,238.589 C336.451,241.153 335.883,243.717 335.302,246.282 C334.721,248.846 334.181,251.427 333.676,254.026 C333.171,256.625 332.834,259.234 332.666,261.859 C332.666,262.549 332.451,263.042 332.022,263.333 C331.594,263.63 331.186,263.774 330.8,263.774 C329.673,263.574 328.521,263.434 327.345,263.358 C326.165,263.285 324.993,263.212 323.824,263.145 C322.654,263.077 321.495,262.967 320.344,262.818 C319.192,262.666 318.061,262.38 316.949,261.959 C316.716,261.892 316.557,261.654 316.473,261.241 C316.387,260.83 316.346,260.428 316.346,260.044 C316.749,257.368 317.106,254.67 317.416,251.945 C317.729,249.22 318.056,246.502 318.4,243.785 C318.745,241.069 319.134,238.356 319.563,235.65 C319.991,232.942 320.534,230.259 321.188,227.602 C321.257,227.266 321.43,226.934 321.706,226.606 C321.982,226.278 322.332,226.115 322.753,226.115 C324.82,226.602 326.989,227.005 329.26,227.325 C331.53,227.644 333.801,227.999 336.07,228.385 Z M331.076,270.586 C331.076,271.631 330.865,272.528 330.447,273.287 C330.025,274.043 329.483,274.651 328.818,275.116 C328.154,275.578 327.391,275.922 326.522,276.148 C325.658,276.377 324.795,276.488 323.938,276.488 C322.896,276.488 321.822,276.34 320.722,276.047 C319.621,275.753 318.616,275.346 317.708,274.824 C316.8,274.304 316.041,273.672 315.438,272.931 C314.831,272.194 314.529,271.377 314.529,270.486 C314.529,269.695 314.799,269.005 315.336,268.417 C315.874,267.828 316.546,267.346 317.355,266.965 C318.162,266.588 319.047,266.306 320.017,266.121 C320.982,265.936 321.911,265.844 322.804,265.844 C323.661,265.844 324.582,265.928 325.566,266.095 C326.548,266.265 327.443,266.537 328.253,266.918 C329.06,267.296 329.731,267.788 330.27,268.391 C330.807,268.998 331.076,269.728 331.076,270.586 Z" id="Fill-130" fill="#131514"></path>
            <path d="M80.725,240.519 C80.569,240.784 80.369,241.001 80.112,241.181 C79.78,241.415 79.414,241.589 78.995,241.71 C78.546,241.841 78.112,241.908 77.706,241.908 C77.333,241.908 76.942,241.858 76.546,241.759 C76.175,241.667 75.833,241.531 75.529,241.357 C75.344,241.251 75.206,241.129 75.083,240.847 C75.083,240.698 75.11,240.604 75.194,240.487 C75.395,240.206 75.657,239.964 75.996,239.749 C76.392,239.498 76.845,239.302 77.341,239.171 C77.876,239.029 78.381,238.955 78.842,238.955 C79.118,238.955 79.432,238.998 79.772,239.082 C80.067,239.156 80.329,239.26 80.569,239.404 C80.712,239.49 80.817,239.587 80.871,239.653 C80.871,239.653 80.886,239.701 80.886,239.814 C80.886,240.201 80.794,240.401 80.725,240.519 Z M144.528,248.29 C144.528,245.329 144.569,242.38 144.653,239.523 C144.736,236.635 144.845,233.685 144.981,230.556 C144.981,229.815 144.873,229.051 144.657,228.289 C144.237,226.795 143.052,225.742 141.486,225.473 C141.341,225.449 141.194,225.436 141.048,225.436 L140.911,225.44 C139.521,225.513 138.077,225.694 136.618,225.975 C135.442,226.204 134.276,226.319 133.151,226.319 C132.354,226.319 131.495,226.262 130.599,226.15 C129.489,226.01 128.413,225.941 127.4,225.941 C125.322,225.941 124.048,226.78 123.344,227.485 C122.665,228.162 122.416,229.16 122.696,230.078 C123.078,231.333 123.356,232.506 123.522,233.567 C123.686,234.615 123.769,235.589 123.769,236.459 C123.769,237.702 123.636,238.759 123.37,239.604 C123.118,240.414 122.798,241.075 122.421,241.57 C122.099,241.994 121.763,242.288 121.396,242.473 C121.034,242.653 120.705,242.741 120.388,242.741 C120.096,242.741 119.8,242.666 119.482,242.511 C119.166,242.357 118.882,242.114 118.612,241.771 C118.29,241.358 118.017,240.812 117.8,240.146 C117.575,239.452 117.461,238.594 117.461,237.594 C117.461,236.598 117.587,235.485 117.836,234.288 C118.087,233.078 118.529,231.71 119.151,230.222 C119.284,229.905 119.353,229.565 119.353,229.219 C119.353,228.179 119.036,227.203 118.436,226.395 C117.769,225.499 116.862,224.927 115.817,224.744 C115.669,224.717 115.519,224.704 115.368,224.704 L115.168,224.712 C113.898,224.811 112.792,224.876 111.849,224.907 C110.904,224.94 110.009,224.957 109.163,224.957 C108.065,224.957 107.022,224.94 106.032,224.907 C104.989,224.874 103.797,224.856 102.453,224.856 C102.058,224.856 101.646,224.905 101.182,225.008 C99.587,225.373 98.915,226.508 98.792,227.495 C98.55,229.059 98.383,230.671 98.295,232.281 C98.251,233.09 98.229,233.899 98.196,234.709 C97.769,234.162 97.315,233.633 96.829,233.129 C94.976,231.209 92.687,229.669 90.024,228.552 C87.369,227.438 84.337,226.874 81.011,226.874 C78.089,226.874 75.394,227.434 72.999,228.538 C72.466,228.784 71.952,229.055 71.45,229.337 C71.427,228.659 71.163,228 70.646,227.518 C69.728,226.665 68.821,225.764 67.949,224.846 C67.009,223.854 66.06,222.891 65.102,221.96 C64.128,221.01 63.107,220.09 62.071,219.22 C61.048,218.36 59.923,217.585 58.724,216.907 C57.914,216.173 56.897,215.776 55.812,215.776 C54.698,215.776 53.703,216.221 52.969,217.079 C50.767,219.768 48.591,222.422 46.44,225.034 C44.794,227.033 43.275,229.182 41.904,231.451 C41.118,230.876 40.343,230.286 39.585,229.688 C38.031,228.465 36.47,227.247 34.9,226.031 C33.313,224.801 31.665,223.597 30.003,222.452 C28.29,221.271 26.467,220.194 24.644,219.284 C24.012,218.948 23.321,218.776 22.589,218.776 C21.694,218.776 20.839,219.032 20.114,219.516 C19.807,219.721 19.545,219.991 19.349,220.305 C18.702,221.346 18.008,222.359 17.287,223.317 C16.48,224.387 15.708,225.482 14.993,226.571 C14.24,227.72 13.562,228.934 12.974,230.181 C12.334,231.541 11.89,232.989 11.649,234.486 C11.519,235.307 11.789,236.143 12.378,236.732 L12.807,237.161 L13.035,237.363 C16.345,239.975 19.771,242.431 23.219,244.668 C25.937,246.429 28.667,248.264 31.362,250.139 C30.875,251.1 30.407,252.068 29.966,253.033 C29.229,254.64 28.485,256.242 27.731,257.84 C27.01,259.371 26.221,260.897 25.388,262.373 C24.595,263.771 23.702,265.122 22.734,266.387 C22.32,266.897 22.11,267.546 22.11,268.318 C22.11,269.394 22.565,270.354 23.403,271.031 C23.684,271.254 23.978,271.458 24.281,271.638 C26.241,273.029 28.273,274.258 30.325,275.292 C32.342,276.308 34.445,277.282 36.579,278.189 C37.113,278.426 37.634,278.459 38.077,278.459 C39.189,278.459 40.215,278.023 41.044,277.198 C41.142,277.102 41.23,276.999 41.311,276.889 C46.282,270.078 51.157,263.026 55.802,255.93 C57.69,253.045 59.603,250.144 61.517,247.247 C61.641,249.588 62.113,251.863 62.971,254.016 C63.975,256.543 65.436,258.809 67.312,260.751 C69.194,262.702 71.513,264.273 74.2,265.422 C76.896,266.574 79.95,267.159 83.281,267.159 C86.505,267.159 89.367,266.589 91.79,265.466 C94.2,264.349 96.243,262.833 97.86,260.959 C98.849,259.813 99.663,258.554 100.335,257.216 C101.009,258.55 101.784,259.806 102.683,260.945 C104.261,262.949 106.128,264.579 108.233,265.79 C110.448,267.064 112.882,267.712 115.47,267.712 C117.483,267.712 119.433,267.313 121.257,266.531 C121.81,266.295 122.358,266.01 122.899,265.678 C123.319,266.257 123.901,266.723 124.61,267.037 C124.791,267.115 124.979,267.174 125.173,267.212 C126.164,267.401 127.169,267.525 128.158,267.584 C129.081,267.636 130.022,267.661 130.982,267.661 C133.057,267.661 135.146,267.507 137.187,267.204 C139.231,266.903 141.265,266.452 143.232,265.861 C144.403,265.509 145.169,264.391 145.075,263.172 C144.876,260.622 144.733,258.101 144.653,255.68 C144.569,253.248 144.528,250.76 144.528,248.29 Z" id="Fill-131" fill="#FFFFFE"></path>
            <path d="M291,260.592 C290.89,260.038 290.834,259.502 290.834,258.985 L290.838,258.768 C290.953,259.158 291.012,259.626 291.012,260.17 C291.012,260.311 291.008,260.452 291,260.592 Z M267.927,234.196 L267.905,234.453 L267.693,234.378 L267.927,234.196 Z M246.55,233.786 C245.998,233.953 245.507,234.209 245.053,234.506 C245.119,234.257 245.19,234.006 245.256,233.757 C245.479,232.918 245.729,232.085 245.963,231.247 C246.203,231.706 246.481,232.149 246.838,232.552 C247.135,232.89 247.46,233.207 247.814,233.506 C247.378,233.567 246.956,233.661 246.55,233.786 Z M335.812,220.331 C335.436,219.484 334.427,218.083 331.865,217.999 C329.645,217.622 327.395,217.273 325.175,216.96 C322.99,216.653 320.88,216.26 318.901,215.794 C318.706,215.748 318.506,215.725 318.306,215.725 C317.118,215.725 316.041,216.227 315.271,217.139 C314.714,217.802 314.351,218.525 314.218,219.19 C313.547,221.915 312.984,224.696 312.549,227.452 C312.113,230.196 311.719,232.96 311.375,235.665 C311.128,237.616 310.898,239.571 310.669,241.527 C310.294,240.158 309.855,238.874 309.336,237.714 C308.095,234.951 306.343,232.775 304.131,231.244 C301.871,229.684 298.993,228.892 295.577,228.892 C294.087,228.892 292.546,229.128 290.995,229.594 C290.65,229.699 290.301,229.815 289.948,229.948 C289.861,229.659 289.756,229.38 289.632,229.105 C289.307,228.39 288.248,226.723 285.399,226.723 C282.997,226.756 280.593,226.848 278.251,226.993 C275.892,227.138 273.471,227.368 270.948,227.692 C270.727,227.731 270.533,227.8 270.347,227.877 C270.082,227.071 269.591,226.191 268.69,225.351 C267.722,224.448 266.509,223.698 265.089,223.119 C263.798,222.591 262.351,222.178 260.788,221.886 C259.241,221.596 257.731,221.45 256.301,221.45 C255.262,221.45 254.154,221.553 253.011,221.755 C251.828,221.964 250.723,222.28 249.719,222.7 C249.215,222.911 248.752,223.163 248.313,223.434 C248.446,223.022 248.567,222.602 248.703,222.193 C248.821,221.839 248.86,221.46 248.818,221.087 C248.725,220.237 248.419,219.508 247.909,218.917 C247.548,218.499 247.124,218.155 246.636,217.888 C246.263,217.688 245.855,217.526 245.428,217.408 L245.237,217.339 C244.874,217.157 244.475,217.061 244.069,217.061 C241.087,217.061 238.147,216.924 235.333,216.656 C232.354,216.373 229.292,216.229 226.234,216.229 C225.163,216.229 224.202,216.886 223.814,217.883 C223.301,219.202 222.877,220.567 222.556,221.944 C222.259,223.214 221.973,224.479 221.691,225.746 C221.497,226.624 221.291,227.503 221.07,228.386 C220.677,227.839 220.284,227.294 219.896,226.752 C219.221,225.805 218.55,224.87 217.881,223.948 C217.153,222.944 216.345,221.985 215.481,221.1 C215.159,220.768 214.753,220.529 214.309,220.407 C212.955,220.037 211.537,219.769 210.094,219.611 C208.692,219.459 207.258,219.382 205.827,219.382 C202.737,219.382 199.74,219.68 196.92,220.269 C196.152,220.43 195.498,220.928 195.139,221.628 C194.055,223.746 192.993,226.053 191.986,228.491 C191.668,229.262 191.337,230.03 190.991,230.795 C190.702,229.851 190.45,228.892 190.238,227.93 C189.925,226.506 189.604,225.085 189.273,223.662 C188.886,221.998 188.242,220.389 187.357,218.878 C187.168,218.553 186.909,218.272 186.6,218.057 C185.755,217.469 184.858,217.075 183.927,216.886 C183.178,216.735 182.381,216.659 181.56,216.659 C180.662,216.659 179.711,216.704 178.732,216.796 C177.918,216.872 177.146,216.909 176.438,216.909 C175.62,216.909 174.74,216.872 173.816,216.793 C172.744,216.704 171.699,216.659 170.712,216.659 C170.103,216.659 169.502,216.702 168.922,216.788 C168.099,216.913 167.343,217.202 166.674,217.647 C165.833,218.208 165.394,219.205 165.546,220.202 C166.179,224.339 167.042,228.514 168.11,232.611 C169.166,236.657 170.34,240.754 171.601,244.788 C172.847,248.777 174.145,252.833 175.459,256.842 C176.751,260.788 177.981,264.788 179.114,268.732 C179.273,269.291 179.616,269.779 180.087,270.12 C181.487,271.133 183.095,271.815 184.871,272.148 C186.423,272.436 188.034,272.582 189.656,272.582 C190.713,272.582 191.742,272.555 192.746,272.502 C193.724,272.45 194.676,272.39 195.604,272.32 C196.533,272.251 197.354,271.687 197.754,270.845 C199.117,267.974 200.73,265.283 202.546,262.847 C203.683,261.324 204.838,259.813 205.998,258.331 C206.176,258.602 206.357,258.872 206.542,259.139 C207.433,260.424 208.371,261.729 209.334,263.013 C210.257,264.245 211.152,265.464 212.014,266.663 C212.818,267.786 213.512,268.896 214.077,269.963 C214.364,270.506 214.834,270.929 215.405,271.157 C216.775,271.707 218.206,272.087 219.651,272.29 C221.018,272.484 222.416,272.582 223.812,272.582 C224.863,272.582 225.935,272.536 226.997,272.446 C227.998,272.36 228.974,272.264 229.915,272.163 C230.206,272.132 230.492,272.051 230.757,271.924 C231.987,271.339 232.549,270.464 232.811,269.822 C232.811,269.821 232.841,269.754 232.946,269.627 C233.07,269.477 233.178,269.314 233.266,269.14 C235.151,265.424 236.812,261.518 238.198,257.528 C239.553,253.622 240.818,249.631 241.961,245.665 C242.414,244.09 242.859,242.502 243.302,240.912 C243.32,241.344 243.315,241.786 243.341,242.214 C243.422,243.567 243.463,245.05 243.463,246.625 L243.463,262.24 C243.463,263.544 244.041,264.714 245.095,265.539 C245.776,266.068 246.579,266.471 247.475,266.733 C248.247,266.964 249.081,267.113 249.965,267.177 C250.721,267.231 251.418,267.257 252.064,267.257 C254.748,267.257 257.444,267.113 260.075,266.826 C262.501,266.563 264.958,266.433 267.383,266.429 C267.646,266.998 267.981,267.497 268.371,267.902 C269.059,268.625 269.986,269.023 270.982,269.023 C272.515,269.023 274.052,268.957 275.55,268.825 C277.01,268.697 278.468,268.556 279.932,268.405 C281.362,268.255 282.785,268.116 284.204,267.993 C285.55,267.874 286.924,267.813 288.287,267.813 C289.469,267.813 290.478,267.338 291.113,266.506 C291.818,267.25 292.778,267.661 293.862,267.661 L294.117,267.648 C296.407,267.423 298.739,267.292 301.049,267.257 C303.435,267.224 305.807,267.207 308.164,267.207 C308.528,267.207 308.872,267.138 309.201,267.03 C309.965,267.905 310.89,268.668 311.965,269.283 C313.06,269.913 314.283,270.411 315.603,270.764 C316.918,271.116 318.226,271.293 319.49,271.293 C320.574,271.293 321.666,271.15 322.729,270.87 C323.885,270.569 324.937,270.093 325.858,269.453 C326.846,268.762 327.656,267.856 328.273,266.75 C328.904,265.605 329.226,264.273 329.226,262.793 C329.226,261.307 328.721,259.953 327.761,258.872 C327.634,258.729 327.502,258.59 327.365,258.457 C327.938,258.317 328.499,258.058 329.04,257.685 C329.693,257.239 330.781,256.193 330.814,254.162 C330.976,251.691 331.299,249.19 331.777,246.73 C332.286,244.116 332.827,241.538 333.387,239.064 C333.971,236.49 334.54,233.918 335.096,231.345 C335.665,228.717 336.096,226.02 336.378,223.335 L336.392,223.065 C336.392,222.114 336.196,221.194 335.812,220.331 Z" id="Fill-132" fill="#FFFFFE"></path>
            <path d="M34.724,249.325 C31.394,246.97 28.029,244.69 24.632,242.489 C21.235,240.284 17.905,237.897 14.644,235.324 L14.214,234.895 C14.416,233.633 14.786,232.431 15.324,231.287 C15.862,230.144 16.477,229.047 17.166,227.996 C17.855,226.944 18.587,225.907 19.36,224.881 C20.134,223.854 20.865,222.787 21.556,221.676 C21.858,221.475 22.202,221.374 22.589,221.374 C22.892,221.374 23.169,221.442 23.422,221.577 C25.204,222.467 26.907,223.471 28.53,224.59 C30.153,225.709 31.746,226.874 33.31,228.085 C34.874,229.296 36.43,230.51 37.978,231.728 C39.523,232.948 41.112,234.113 42.744,235.223 C44.393,232.145 46.292,229.299 48.445,226.684 C50.598,224.07 52.775,221.417 54.979,218.725 C55.181,218.49 55.458,218.374 55.812,218.374 C56.333,218.374 56.778,218.584 57.148,219.004 C58.325,219.643 59.409,220.378 60.401,221.21 C61.394,222.044 62.356,222.914 63.29,223.821 C64.224,224.729 65.148,225.667 66.065,226.633 C66.981,227.601 67.919,228.53 68.878,229.421 C68.642,230.044 68.453,230.683 68.31,231.338 C68.167,231.995 67.961,232.633 67.692,233.256 C62.966,240.318 58.278,247.402 53.629,254.507 C48.979,261.613 44.174,268.561 39.213,275.357 C38.876,275.691 38.498,275.862 38.077,275.862 C37.842,275.862 37.69,275.843 37.624,275.811 C35.521,274.918 33.478,273.971 31.493,272.972 C29.51,271.973 27.575,270.798 25.692,269.454 C25.456,269.32 25.233,269.168 25.023,269 C24.814,268.83 24.708,268.604 24.708,268.318 C24.708,268.15 24.726,268.048 24.759,268.015 C25.818,266.635 26.78,265.182 27.648,263.653 C28.513,262.121 29.324,260.553 30.081,258.947 C30.839,257.34 31.586,255.732 32.327,254.116 C33.065,252.503 33.864,250.905 34.724,249.325" id="Fill-133" fill="#F9D939"></path>
            <path d="M78.842,236.357 C78.151,236.357 77.429,236.459 76.673,236.661 C75.915,236.862 75.226,237.162 74.604,237.556 C73.981,237.952 73.473,238.426 73.077,238.982 C72.683,239.536 72.485,240.159 72.485,240.847 C72.485,241.471 72.649,242.013 72.978,242.476 C73.305,242.937 73.725,243.315 74.238,243.61 C74.751,243.904 75.31,244.128 75.915,244.279 C76.521,244.43 77.117,244.506 77.706,244.506 C78.362,244.506 79.035,244.405 79.725,244.204 C80.413,244.001 81.04,243.704 81.604,243.308 C82.167,242.912 82.621,242.421 82.966,241.832 C83.311,241.243 83.483,240.571 83.483,239.814 C83.483,239.191 83.336,238.666 83.042,238.237 C82.747,237.808 82.368,237.456 81.906,237.176 C81.443,236.9 80.939,236.695 80.393,236.56 C79.847,236.426 79.329,236.357 78.842,236.357 Z M99.93,247.61 C99.93,249.743 99.603,251.821 98.946,253.839 C98.29,255.856 97.272,257.665 95.894,259.262 C94.515,260.86 92.782,262.143 90.698,263.11 C88.612,264.077 86.14,264.561 83.281,264.561 C80.288,264.561 77.601,264.051 75.222,263.034 C72.842,262.016 70.829,260.655 69.181,258.947 C67.532,257.242 66.267,255.278 65.384,253.056 C64.501,250.837 64.06,248.507 64.06,246.07 C64.06,243.967 64.464,241.925 65.271,239.939 C66.077,237.956 67.233,236.19 68.739,234.643 C70.243,233.095 72.026,231.847 74.087,230.896 C76.146,229.948 78.454,229.471 81.011,229.471 C84.005,229.471 86.674,229.963 89.021,230.947 C91.366,231.931 93.347,233.26 94.96,234.932 C96.575,236.606 97.807,238.537 98.656,240.721 C99.505,242.909 99.93,245.204 99.93,247.61 Z" id="Fill-134" fill="#F9D939"></path>
            <path d="M130.982,265.063 C130.074,265.063 129.183,265.041 128.309,264.99 C127.435,264.939 126.551,264.83 125.659,264.66 C125.206,264.46 124.92,264.153 124.803,263.739 C124.685,263.328 124.626,262.88 124.626,262.389 C124.626,262.105 124.634,261.837 124.651,261.583 C124.667,261.332 124.677,261.078 124.677,260.827 C123.229,262.389 121.751,263.496 120.237,264.142 C118.723,264.792 117.134,265.114 115.47,265.114 C113.333,265.114 111.353,264.589 109.528,263.539 C107.704,262.489 106.103,261.089 104.724,259.338 C103.345,257.589 102.267,255.585 101.494,253.323 C100.721,251.06 100.333,248.726 100.333,246.321 C100.468,244.808 100.553,243.275 100.586,241.717 C100.62,240.163 100.657,238.613 100.7,237.064 C100.741,235.518 100.804,233.97 100.889,232.423 C100.974,230.876 101.132,229.344 101.368,227.833 C101.368,227.698 101.498,227.601 101.759,227.542 C102.021,227.483 102.251,227.454 102.453,227.454 C103.765,227.454 104.929,227.47 105.946,227.505 C106.964,227.538 108.036,227.554 109.163,227.554 C110.037,227.554 110.962,227.538 111.938,227.505 C112.913,227.47 114.056,227.403 115.368,227.301 C115.755,227.37 116.083,227.584 116.352,227.946 C116.62,228.306 116.756,228.733 116.756,229.219 C116.065,230.868 115.578,232.381 115.292,233.76 C115.007,235.138 114.863,236.418 114.863,237.594 C114.863,238.872 115.019,239.99 115.33,240.949 C115.642,241.908 116.054,242.714 116.565,243.372 C117.079,244.026 117.672,244.518 118.345,244.846 C119.017,245.174 119.698,245.339 120.388,245.339 C121.111,245.339 121.834,245.157 122.558,244.796 C123.28,244.434 123.923,243.883 124.487,243.143 C125.05,242.404 125.505,241.483 125.85,240.381 C126.194,239.28 126.366,237.972 126.366,236.459 C126.366,235.45 126.274,234.352 126.089,233.167 C125.903,231.982 125.601,230.698 125.181,229.321 C125.702,228.798 126.442,228.538 127.4,228.538 C128.309,228.538 129.267,228.6 130.276,228.727 C131.286,228.854 132.243,228.917 133.151,228.917 C134.446,228.917 135.767,228.786 137.112,228.526 C138.458,228.266 139.769,228.1 141.048,228.034 C141.636,228.133 142.006,228.454 142.157,228.993 C142.31,229.532 142.384,230.051 142.384,230.556 C142.249,233.583 142.14,236.547 142.057,239.447 C141.972,242.349 141.931,245.297 141.931,248.29 C141.931,250.796 141.972,253.29 142.057,255.767 C142.14,258.249 142.284,260.784 142.485,263.374 C140.636,263.929 138.743,264.35 136.81,264.634 C134.876,264.922 132.933,265.063 130.982,265.063" id="Fill-135" fill="#F9D939"></path>
            <path d="M206.357,253.714 C204.354,256.186 202.391,258.712 200.465,261.294 C198.539,263.876 196.854,266.686 195.408,269.73 C194.5,269.799 193.566,269.857 192.608,269.908 C191.649,269.959 190.666,269.984 189.656,269.984 C188.177,269.984 186.739,269.852 185.344,269.593 C183.946,269.333 182.703,268.807 181.61,268.015 C180.466,264.031 179.238,260.036 177.927,256.034 C176.615,252.031 175.332,248.023 174.08,244.013 C172.827,240.003 171.675,235.985 170.624,231.957 C169.573,227.928 168.736,223.88 168.114,219.81 C168.467,219.575 168.867,219.422 169.313,219.356 C169.758,219.289 170.225,219.256 170.712,219.256 C171.637,219.256 172.6,219.297 173.601,219.381 C174.601,219.466 175.547,219.506 176.438,219.506 C177.229,219.506 178.074,219.466 178.975,219.381 C179.872,219.297 180.734,219.256 181.56,219.256 C182.215,219.256 182.833,219.314 183.413,219.432 C183.993,219.549 184.56,219.801 185.115,220.189 C185.873,221.483 186.414,222.838 186.743,224.251 C187.071,225.663 187.391,227.075 187.701,228.488 C188.013,229.901 188.399,231.287 188.862,232.649 C189.324,234.011 190.077,235.282 191.12,236.459 C192.313,234.189 193.402,231.864 194.387,229.483 C195.37,227.104 196.391,224.881 197.451,222.812 C200.108,222.256 202.899,221.98 205.827,221.98 C207.171,221.98 208.501,222.051 209.812,222.193 C211.123,222.338 212.395,222.577 213.622,222.914 C214.394,223.704 215.113,224.557 215.778,225.473 C216.442,226.389 217.109,227.319 217.782,228.26 C218.457,229.202 219.137,230.148 219.826,231.099 C220.517,232.049 221.255,232.935 222.046,233.76 C222.566,232.565 222.992,231.338 223.319,230.077 C223.649,228.816 223.951,227.558 224.228,226.305 C224.507,225.053 224.791,223.796 225.085,222.534 C225.379,221.274 225.762,220.037 226.234,218.827 C229.228,218.827 232.178,218.965 235.087,219.243 C237.996,219.52 240.989,219.659 244.069,219.659 C244.27,219.76 244.492,219.844 244.736,219.911 C244.979,219.979 245.203,220.067 245.405,220.176 C245.606,220.286 245.786,220.432 245.946,220.618 C246.105,220.803 246.202,221.054 246.237,221.374 C244.959,225.225 243.795,229.131 242.745,233.09 C241.692,237.052 240.599,241.005 239.465,244.947 C238.328,248.891 237.088,252.799 235.744,256.675 C234.396,260.553 232.802,264.317 230.949,267.965 C230.698,268.267 230.514,268.566 230.396,268.86 C230.277,269.155 230.026,269.395 229.638,269.581 C228.715,269.679 227.759,269.774 226.777,269.857 C225.793,269.941 224.804,269.984 223.812,269.984 C222.533,269.984 221.268,269.895 220.017,269.717 C218.764,269.543 217.549,269.218 216.372,268.747 C215.748,267.569 214.999,266.372 214.127,265.152 C213.252,263.934 212.346,262.702 211.412,261.456 C210.481,260.214 209.568,258.947 208.678,257.66 C207.785,256.374 207.012,255.057 206.357,253.714" id="Fill-136" fill="#D6242C"></path>
            <path d="M247.825,228.337 C247.825,227.58 248.103,226.936 248.657,226.407 C249.213,225.876 249.903,225.44 250.725,225.094 C251.55,224.751 252.463,224.489 253.462,224.313 C254.464,224.136 255.41,224.047 256.301,224.047 C257.579,224.047 258.916,224.179 260.311,224.439 C261.709,224.7 262.975,225.062 264.108,225.524 C265.244,225.987 266.181,226.563 266.921,227.251 C267.659,227.941 268.029,228.714 268.029,229.572 C268.029,230.33 267.721,230.994 267.097,231.566 C266.475,232.136 265.688,232.612 264.74,232.99 C263.788,233.37 262.746,233.655 261.612,233.849 C260.476,234.042 259.413,234.138 258.421,234.138 C257.176,234.138 255.928,234.016 254.675,233.773 C253.422,233.529 252.285,233.159 251.268,232.662 C250.251,232.167 249.424,231.557 248.784,230.833 C248.146,230.11 247.825,229.278 247.825,228.337 Z M252.064,264.66 C251.474,264.66 250.837,264.634 250.146,264.587 C249.457,264.536 248.813,264.422 248.216,264.244 C247.62,264.069 247.11,263.815 246.689,263.488 C246.271,263.161 246.061,262.745 246.061,262.24 L246.061,246.625 C246.061,244.977 246.017,243.455 245.934,242.058 C245.85,240.664 245.807,239.242 245.807,237.796 C245.807,237.375 245.954,237.047 246.248,236.811 C246.542,236.577 246.895,236.395 247.309,236.269 C247.719,236.144 248.158,236.063 248.619,236.03 C249.081,235.998 249.508,235.979 249.893,235.979 C251.644,235.979 253.224,236.025 254.637,236.119 C256.05,236.211 257.394,236.307 258.672,236.408 C259.95,236.509 261.206,236.601 262.444,236.686 C263.68,236.771 265.004,236.811 266.416,236.811 C266.802,236.811 267.211,236.909 267.639,237.102 C268.067,237.297 268.283,237.662 268.283,238.199 C268.283,239.411 268.397,240.617 268.623,241.819 C268.852,243.021 268.963,244.261 268.963,245.54 C268.963,248.13 268.852,250.708 268.623,253.272 C268.397,255.837 268.283,258.37 268.283,260.878 C268.215,261.129 268.164,261.418 268.131,261.748 C268.099,262.075 268.065,262.394 268.029,262.707 C267.997,263.016 267.938,263.283 267.854,263.501 C267.771,263.718 267.651,263.828 267.502,263.828 C264.928,263.828 262.357,263.967 259.796,264.244 C257.229,264.523 254.651,264.66 252.064,264.66 Z" id="Fill-137" fill="#D6242C"></path>
            <path d="M290.456,255.504 C289.733,255.504 289.183,255.824 288.805,256.463 C288.427,257.102 288.236,257.942 288.236,258.985 C288.236,260.566 288.614,262.23 289.373,263.98 C289.337,264.299 289.251,264.587 289.106,264.838 C288.965,265.089 288.69,265.215 288.287,265.215 C286.841,265.215 285.403,265.279 283.975,265.406 C282.544,265.53 281.106,265.67 279.66,265.822 C278.214,265.971 276.769,266.111 275.322,266.238 C273.874,266.364 272.429,266.425 270.982,266.425 C270.695,266.425 270.452,266.321 270.252,266.111 C270.049,265.9 269.876,265.639 269.734,265.33 C269.593,265.017 269.496,264.682 269.445,264.32 C269.395,263.96 269.369,263.628 269.369,263.323 C269.369,259.977 269.498,256.643 269.76,253.323 C270.021,250.002 270.15,246.616 270.15,243.169 C270.15,242.092 270.176,240.822 270.227,239.36 C270.277,237.897 270.354,236.497 270.452,235.16 C270.554,233.824 270.683,232.679 270.846,231.728 C271.003,230.78 271.186,230.288 271.386,230.254 C273.758,229.95 276.099,229.728 278.412,229.585 C280.723,229.442 283.066,229.354 285.436,229.321 C286.395,229.321 287.006,229.606 287.265,230.178 C287.526,230.749 287.658,231.381 287.658,232.069 C287.658,232.406 287.647,232.738 287.633,233.066 C287.615,233.395 287.607,233.693 287.607,233.962 C289.053,233.103 290.431,232.478 291.744,232.082 C293.056,231.688 294.332,231.49 295.577,231.49 C298.469,231.49 300.828,232.12 302.654,233.382 C304.479,234.643 305.917,236.442 306.967,238.78 C308.017,241.118 308.74,243.947 309.136,247.267 C309.531,250.59 309.729,254.335 309.729,258.505 C309.729,259.161 309.704,259.842 309.653,260.547 C309.603,261.256 309.523,261.91 309.415,262.516 C309.303,263.123 309.148,263.623 308.948,264.018 C308.745,264.414 308.483,264.609 308.164,264.609 C305.795,264.609 303.41,264.627 301.014,264.66 C298.616,264.695 296.234,264.83 293.862,265.063 C293.376,265.063 293.013,264.845 292.777,264.409 C293.332,262.996 293.609,261.583 293.609,260.17 C293.609,258.826 293.34,257.711 292.803,256.828 C292.265,255.945 291.483,255.504 290.456,255.504" id="Fill-138" fill="#D6242C"></path>
            <path d="M331.623,220.592 C332.6,220.592 333.203,220.856 333.438,221.386 C333.675,221.917 333.794,222.475 333.794,223.065 C333.522,225.655 333.111,228.231 332.556,230.796 C332.003,233.361 331.435,235.925 330.854,238.49 C330.273,241.054 329.732,243.635 329.229,246.234 C328.724,248.833 328.386,251.443 328.219,254.066 C328.219,254.756 328.003,255.248 327.574,255.542 C327.146,255.837 326.737,255.983 326.352,255.983 C325.226,255.78 324.073,255.643 322.896,255.567 C321.717,255.491 320.545,255.421 319.376,255.352 C318.206,255.286 317.047,255.176 315.896,255.024 C314.744,254.873 313.612,254.589 312.502,254.167 C312.269,254.101 312.108,253.86 312.024,253.449 C311.938,253.036 311.897,252.637 311.897,252.25 C312.301,249.576 312.659,246.877 312.969,244.153 C313.28,241.428 313.607,238.709 313.952,235.992 C314.298,233.277 314.686,230.564 315.114,227.858 C315.543,225.149 316.086,222.467 316.74,219.81 C316.809,219.473 316.981,219.141 317.258,218.814 C317.534,218.486 317.885,218.323 318.306,218.323 C320.373,218.809 322.542,219.213 324.812,219.532 C327.082,219.852 329.353,220.206 331.623,220.592 Z M326.628,262.793 C326.628,263.838 326.418,264.736 325.999,265.495 C325.578,266.251 325.035,266.859 324.37,267.323 C323.706,267.785 322.942,268.13 322.075,268.356 C321.21,268.584 320.348,268.696 319.49,268.696 C318.447,268.696 317.374,268.548 316.273,268.255 C315.173,267.96 314.168,267.554 313.26,267.032 C312.352,266.511 311.594,265.88 310.99,265.139 C310.384,264.401 310.082,263.585 310.082,262.694 C310.082,261.903 310.351,261.213 310.889,260.624 C311.426,260.036 312.099,259.553 312.907,259.173 C313.714,258.796 314.6,258.515 315.568,258.33 C316.535,258.144 317.463,258.05 318.356,258.05 C319.214,258.05 320.135,258.137 321.118,258.304 C322.101,258.471 322.996,258.745 323.805,259.125 C324.611,259.503 325.283,259.995 325.821,260.598 C326.359,261.205 326.628,261.935 326.628,262.793 Z" id="Fill-139" fill="#D6242C"></path>
            <path d="M36.495,242.959 C30.882,238.629 25.638,233.684 19.792,229.676 C19.195,229.268 17.89,231.089 18.466,231.534 C23.999,235.794 28.565,242.158 35.097,244.918 C35.795,245.213 37.119,243.44 36.495,242.959" id="Fill-140" fill="#FFFFFE"></path>
            <path d="M38.558,248.797 C36.757,251.675 34.747,254.343 33.067,257.307 C31.674,259.765 29.815,262.529 29.403,265.368 C29.128,267.274 31.204,265.278 31.552,264.716 C33.171,262.1 34.306,259.158 35.783,256.446 C37.16,253.919 38.757,251.364 39.707,248.642 C40.134,247.419 38.865,248.306 38.558,248.797" id="Fill-141" fill="#FFFFFE"></path>
            <path d="M28.926,267.303 C28.107,267.303 26.958,269.491 27.738,269.491 C28.557,269.491 29.706,267.303 28.926,267.303" id="Fill-142" fill="#FFFFFE"></path>
            <path d="M74.267,254.744 C68.461,250.082 64.96,242.939 70.45,236.303 C70.729,235.966 70.999,234.787 70.278,235.441 C67.222,238.218 65.501,241.158 65.322,245.351 C65.126,249.963 67.781,255.856 72.323,257.464 C73.296,257.809 75.147,255.45 74.267,254.744" id="Fill-143" fill="#FFFFFE"></path>
            <path d="M77.034,256.91 C76.016,256.91 74.586,259.632 75.558,259.632 C76.575,259.632 78.005,256.91 77.034,256.91" id="Fill-144" fill="#FFFFFE"></path>
            <path d="M108.482,255.576 C101.458,248.998 103.747,239.295 104.267,230.713 C104.301,230.155 103.385,231.083 103.335,231.374 C102.097,238.711 98.386,253.284 106.775,257.966 C107.604,258.428 109.172,256.221 108.482,255.576" id="Fill-145" fill="#FFFFFE"></path>
            <path d="M111.628,257.878 C110.71,257.878 109.421,260.333 110.296,260.333 C111.215,260.333 112.505,257.878 111.628,257.878" id="Fill-146" fill="#FFFFFE"></path>
            <path d="M187.304,258.932 C185.502,252.951 182.943,247.155 180.81,241.282 C178.479,234.87 176.497,228.321 173.663,222.107 C173.436,221.608 172.427,222.814 172.595,223.269 C177.17,235.648 179.597,249.054 185.454,260.944 C185.9,261.85 187.527,259.677 187.304,258.932" id="Fill-147" fill="#FFFFFE"></path>
            <path d="M188.35,263.071 C187.7,263.071 186.789,264.805 187.408,264.805 C188.058,264.805 188.969,263.071 188.35,263.071" id="Fill-148" fill="#FFFFFE"></path>
            <path d="M249.445,237.632 C249.347,236.932 248.446,238.161 248.416,238.49 C248.119,241.78 248.383,245.041 248.469,248.335 C248.55,251.409 248.325,254.594 249.184,257.573 C249.425,258.411 250.834,256.452 250.842,255.985 C250.946,249.898 250.294,243.656 249.445,237.632" id="Fill-149" fill="#FFFFFE"></path>
            <path d="M250.701,259.62 C249.973,259.62 248.949,261.567 249.645,261.567 C250.373,261.567 251.396,259.62 250.701,259.62" id="Fill-150" fill="#FFFFFE"></path>
            <path d="M255.295,225.058 C254.592,224.966 253.896,225.347 253.289,225.654 C252.559,226.023 251.904,226.563 251.32,227.129 C251.071,227.37 250.139,228.828 250.955,228.945 C251.363,229.005 251.833,228.838 252.22,228.709 C252.734,228.538 253.263,228.478 253.781,228.331 C254.481,228.131 255.05,227.386 255.378,226.781 C255.589,226.393 256.103,225.165 255.295,225.058" id="Fill-151" fill="#FFFFFE"></path>
            <path d="M275.933,232.268 C275.816,231.211 274.354,233.052 274.325,233.608 C273.842,242.676 271.8,252.165 272.316,261.226 C272.398,262.677 274.49,260.29 274.581,259.617 C275.763,250.85 276.898,241.082 275.933,232.268" id="Fill-152" fill="#FFFFFE"></path>
            <path d="M274.578,262.444 C273.959,262.444 273.09,264.098 273.68,264.098 C274.299,264.098 275.168,262.444 274.578,262.444" id="Fill-153" fill="#FFFFFE"></path>
            <path d="M321.255,220.945 C321.215,219.949 319.753,221.589 319.688,222.057 C318.502,230.765 315.546,239.812 315.315,248.56 C315.276,250.049 317.433,247.488 317.58,246.951 C319.808,238.844 321.594,229.388 321.255,220.945" id="Fill-154" fill="#FFFFFE"></path>
            <path d="M316.765,250.714 L316.531,250.575 C316.013,250.264 315.344,251.213 315.155,251.561 C315.016,251.818 314.681,252.924 315.394,252.661 C315.523,252.613 315.652,252.565 315.781,252.517 C316.181,252.37 316.484,252.007 316.683,251.643 C316.785,251.455 317.051,250.886 316.765,250.714" id="Fill-155" fill="#FFFFFE"></path>
            <path d="M318.52,263.884 C317.598,263.639 316.631,263.672 315.725,263.353 C314.873,263.053 314.115,262.507 313.57,261.791 C313.259,261.38 312.563,262.404 312.688,262.752 C313.037,263.728 313.563,264.584 314.533,265.023 C315.604,265.507 316.732,265.533 317.861,265.309 C318.228,265.236 319.13,264.047 318.52,263.884" id="Fill-156" fill="#FFFFFE"></path>
        </g>
    </g>
</svg>