<?xml version="1.0" encoding="UTF-8"?>
<svg width="100px" height="162px" viewBox="0 0 100 162" version="1.1" xmlns="http://www.w3.org/2000/svg" xmlns:xlink="http://www.w3.org/1999/xlink">
    <!-- Generator: Sketch 44.1 (41455) - http://www.bohemiancoding.com/sketch -->
    <title>banana</title>
    <desc>Created with Sketch.</desc>
    <defs></defs>
    <g id="Page-1" stroke="none" stroke-width="1" fill="none" fill-rule="evenodd">
        <g id="159072-OUUEO9-538" transform="translate(-357.000000, -279.000000)">
            <g id="banana" transform="translate(353.000000, 273.000000)">
                <path d="M47.646,136.072 C47.278,139.965 47.08,149.877 47.026,153.785 C46.987,156.58 47.069,159.436 47.654,162.178 C48.207,164.771 53.696,164.289 55.751,164.113 C58.156,163.906 58.659,167.623 56.249,167.83 C53.077,168.104 48.545,168.221 45.861,166.225 C43.985,164.828 43.737,162.033 43.511,159.895 C42.868,153.871 43.361,141.584 43.931,135.566 C44.158,133.156 47.873,133.672 47.646,136.072" id="Fill-110" fill="#FFB636"></path>
                <path d="M59.656,142.613 C59.896,148.439 60.392,154.324 61.54,160.045 C61.942,162.055 62.587,165.51 64.614,166.629 C67.708,168.336 72.105,167.717 75.407,166.975 C77.767,166.443 76.766,162.828 74.41,163.357 C72.673,163.748 67.489,164.854 66.401,163.096 C65.121,161.027 64.913,157.959 64.554,155.617 C63.894,151.326 63.585,146.949 63.406,142.613 C63.308,140.203 59.557,140.193 59.656,142.613" id="Fill-111" fill="#FFB636"></path>
                <path d="M58.154,95.357 C72.103,91.602 78.743,77.648 77.024,64.074 C76.725,61.709 72.972,61.68 73.274,64.074 C74.783,75.992 69.57,88.4 57.158,91.742 C54.825,92.369 55.816,95.986 58.154,95.357" id="Fill-112" fill="#FFB636"></path>
                <path d="M17.88,96.455 C13.034,99.264 9.06,103.975 6.78,109.033 C1.546,120.648 7.459,132.691 14.691,141.9 C16.185,143.801 18.819,141.127 17.344,139.248 C10.459,130.482 5.377,119.32 11.131,108.676 C13.061,105.107 16.238,101.742 19.772,99.693 C21.863,98.482 19.977,95.24 17.88,96.455" id="Fill-113" fill="#FFB636"></path>
                <path d="M43.323,5.984 C43.323,5.984 0.3,37.896 11.211,93.348 C21.664,146.465 80.42,158.514 103.157,143.605 L103.157,137.871 C103.157,137.871 42.776,115.5 46.043,7.131 L43.323,5.984" id="Fill-114" fill="#FFE135"></path>
                <path d="M91.353,144.73 C59.145,138.414 37.931,124.469 28.301,103.283 C10.148,63.346 40.024,10.814 40.329,10.289 L42.313,11.436 C42.016,11.953 12.725,63.484 30.393,102.342 C39.7,122.811 60.357,136.314 91.794,142.48 L91.353,144.73" id="Fill-115" fill="#FCD61D"></path>
                <path d="M94.433,140.803 C62.041,129.914 42.569,104.002 38.123,65.863 C34.781,37.197 41.138,11.414 41.203,11.156 L43.427,11.715 C43.363,11.969 37.101,37.4 40.408,65.658 C44.819,103.35 63.241,127.898 95.163,138.627 L94.433,140.803" id="Fill-116" fill="#FCD61D"></path>
                <path d="M36.6,12.01 L45.925,15.74 C45.923,12.93 45.955,10.068 46.043,7.131 L43.323,5.984 C43.323,5.984 40.554,8.041 36.6,12.01" id="Fill-117" fill="#FFB636"></path>
                <path d="M86.438,149.133 C92.958,148.377 98.74,146.502 103.157,143.605 L103.157,137.871 C103.157,137.871 97.839,135.9 90.443,130.295 L86.438,149.133" id="Fill-118" fill="#FFB636"></path>
                <path d="M9.465,77.69 C9.447,77.456 9.438,77.218 9.438,76.979 C9.438,76.859 9.441,76.741 9.445,76.622 C9.449,76.976 9.456,77.334 9.465,77.69" id="Fill-119" fill="#FFD1BE"></path>
                <path d="M15.385,84.486 C12.291,84.486 9.749,81.503 9.465,77.69 C9.456,77.334 9.449,76.976 9.445,76.622 C9.592,72.642 12.195,69.473 15.385,69.473 C18.668,69.473 21.331,72.832 21.331,76.979 C21.331,81.125 18.668,84.486 15.385,84.486" id="Fill-120" fill="#FFBC31"></path>
                <path d="M48.001,85.018 C46.215,85.018 44.614,84.024 43.524,82.451 C43.007,80.481 42.539,78.469 42.118,76.409 C42.54,72.785 45.013,70.004 48.001,70.004 C51.284,70.004 53.947,73.363 53.947,77.51 C53.947,81.656 51.284,85.018 48.001,85.018" id="Fill-121" fill="#FFBC31"></path>
                <path d="M43.524,82.451 C42.609,81.13 42.055,79.402 42.055,77.51 C42.055,77.136 42.076,76.768 42.118,76.409 C42.539,78.469 43.007,80.481 43.524,82.451" id="Fill-122" fill="#FDB51F"></path>
                <path d="M40.288,70.621 C40.363,67.932 41.371,63.766 44.693,63.549 C47.99,63.334 49.034,68.264 49.1,70.621 C49.122,71.426 50.372,71.428 50.35,70.621 C50.254,67.154 48.777,62.564 44.693,62.299 C40.631,62.035 39.123,67.588 39.038,70.621 C39.016,71.428 40.266,71.426 40.288,70.621" id="Fill-123" fill="#1F1A1A"></path>
                <path d="M22.75,70.621 C22.654,67.154 21.178,62.564 17.094,62.299 C13.031,62.035 11.523,67.588 11.438,70.621 C11.416,71.428 12.666,71.426 12.688,70.621 C12.764,67.932 13.771,63.766 17.094,63.549 C20.391,63.334 21.435,68.264 21.5,70.621 C21.522,71.426 22.772,71.428 22.75,70.621" id="Fill-124" fill="#1F1A1A"></path>
                <path d="M23.798,72.994 C25.017,75.855 27.854,77.861 31.159,77.861 C34.465,77.861 37.302,75.855 38.521,72.994 L23.798,72.994" id="Fill-125" fill="#1F1A1A"></path>
            </g>
        </g>
    </g>
</svg>