<?xml version="1.0" encoding="UTF-8"?>
<svg width="71px" height="138px" viewBox="0 0 71 138" version="1.1" xmlns="http://www.w3.org/2000/svg" xmlns:xlink="http://www.w3.org/1999/xlink">
    <!-- Generator: Sketch 44.1 (41455) - http://www.bohemiancoding.com/sketch -->
    <title>cherry</title>
    <desc>Created with Sketch.</desc>
    <defs></defs>
    <g id="Page-1" stroke="none" stroke-width="1" fill="none" fill-rule="evenodd">
        <g id="116964-OP2RDX-97" transform="translate(-278.000000, -88.000000)">
            <g id="cherry" transform="translate(278.000000, 88.000000)">
                <path d="M57.33,101.549 C57.33,101.549 72.263,105.354 68.062,90.399 C68.062,90.399 64.645,91.235 63.999,89.903 C63.354,88.57 65.936,89.002 65.936,89.002 C65.936,89.002 63.089,85.334 63.9,84.406 C64.711,83.479 66.716,88.222 66.716,88.222 C66.716,88.222 65.047,83.334 66.201,82.962 C67.355,82.589 68.093,87.703 68.093,87.703 C68.093,87.703 68.033,83.341 69.221,83.884 C70.409,84.428 69.273,89.65 69.273,89.65 C69.273,89.65 76.128,108.138 57.049,105.355" id="Fill-84" fill="#B72C3B"></path>
                <path d="M9.069,103.1 C9.069,103.1 -4.181,110.968 9.365,118.573 C9.365,118.573 11.19,115.565 12.589,116.051 C13.988,116.537 11.856,118.057 11.856,118.057 C11.856,118.057 16.463,118.638 16.545,119.867 C16.628,121.096 11.856,119.16 11.856,119.16 C11.856,119.16 16.492,121.437 15.94,122.516 C15.387,123.595 11.25,120.501 11.25,120.501 C11.25,120.501 14.376,123.543 13.152,123.999 C11.928,124.455 9.038,119.959 9.038,119.959 C9.038,119.959 -8.882,111.733 6.577,100.21" id="Fill-85" fill="#B72C3B"></path>
                <path d="M34.82,74.002 C34.82,74.002 10.587,33.394 35.19,0.611 L42.01,6.47 C42.01,6.47 14.932,26.372 38.829,74.002 L34.82,74.002" id="Fill-86" fill="#89B84F"></path>
                <path d="M25.273,110.382 C25.273,110.382 25.097,126.188 29.192,136.254 C29.192,136.254 21.69,131.709 18.961,132.903 C16.231,134.098 16.888,137.681 16.888,137.681 L31.37,137.681 C31.37,137.681 24.293,123.901 32.802,111.235" id="Fill-87" fill="#B72C3B"></path>
                <path d="M44.366,110.382 C44.366,110.382 44.542,126.188 40.448,136.254 C40.448,136.254 47.949,131.709 50.679,132.903 C53.408,134.098 52.751,137.681 52.751,137.681 L38.269,137.681 C38.269,137.681 45.346,123.901 36.837,111.235" id="Fill-88" fill="#B72C3B"></path>
                <path d="M63.039,97.181 C63.039,112.766 50.405,125.4 34.82,125.4 C19.235,125.4 6.601,112.766 6.601,97.181 C6.601,81.596 19.235,68.962 34.82,68.962 C50.405,68.962 63.039,81.596 63.039,97.181" id="Fill-89" fill="#D2323C"></path>
                <path d="M32.859,91.012 C32.859,95.246 29.427,98.679 25.192,98.679 C20.958,98.679 17.526,95.246 17.526,91.012 C17.526,86.778 20.958,83.345 25.192,83.345 C29.427,83.345 32.859,86.778 32.859,91.012" id="Fill-90" fill="#FFFFFF"></path>
                <path d="M20.238,91.015 C20.238,93.868 22.553,96.184 25.406,96.184 C27.669,96.184 29.598,94.728 30.293,92.707 L25.406,91.015 L30.136,88.91 C29.329,87.099 27.519,85.84 25.406,85.84 C22.553,85.84 20.238,88.155 20.238,91.015" id="Fill-91" fill="#322D20"></path>
                <path d="M36.78,91.012 C36.78,95.246 40.213,98.679 44.447,98.679 C48.681,98.679 52.114,95.246 52.114,91.012 C52.114,86.778 48.681,83.345 44.447,83.345 C40.213,83.345 36.78,86.778 36.78,91.012" id="Fill-92" fill="#FFFFFF"></path>
                <path d="M39.077,90.954 C39.077,93.807 41.392,96.123 44.246,96.123 C46.509,96.123 48.437,94.667 49.133,92.646 L44.246,90.954 L48.975,88.848 C48.168,87.038 46.358,85.779 44.246,85.779 C41.392,85.779 39.077,88.094 39.077,90.954" id="Fill-93" fill="#322D20"></path>
                <path d="M42.881,100.729 C42.881,102.594 42.221,104.308 41.104,105.641 C39.695,107.341 37.563,108.42 35.19,108.42 C32.816,108.42 30.684,107.341 29.275,105.641 C28.158,104.308 27.498,102.594 27.498,100.729 L42.881,100.729" id="Fill-94" fill="#322D20"></path>
                <path d="M41.104,105.641 C39.695,107.341 37.563,108.42 35.19,108.42 C32.816,108.42 30.684,107.341 29.275,105.641 C30.684,103.94 32.816,102.861 35.19,102.861 C37.563,102.861 39.695,103.94 41.104,105.641" id="Fill-95" fill="#D5689C"></path>
                <path d="M28.369,99.841 L26.832,102.216 C26.832,102.216 26.087,100.027 28.369,99.841" id="Fill-96" fill="#322D20"></path>
                <path d="M42.01,99.841 L43.547,102.216 C43.547,102.216 44.292,100.027 42.01,99.841" id="Fill-97" fill="#322D20"></path>
                <path d="M28.369,48.457 C28.369,48.457 27.937,26.662 51.13,21.093 C51.13,21.093 53.733,55.007 28.369,48.457" id="Fill-98" fill="#89B84F"></path>
            </g>
        </g>
    </g>
</svg>