<?xml version="1.0" encoding="UTF-8"?>
<svg width="100px" height="155px" viewBox="0 0 100 155" version="1.1" xmlns="http://www.w3.org/2000/svg" xmlns:xlink="http://www.w3.org/1999/xlink">
    <!-- Generator: Sketch 44.1 (41455) - http://www.bohemiancoding.com/sketch -->
    <title>eggplant</title>
    <desc>Created with Sketch.</desc>
    <defs></defs>
    <g id="Page-1" stroke="none" stroke-width="1" fill="none" fill-rule="evenodd">
        <g id="159072-OUUEO9-538" transform="translate(-193.000000, -97.000000)">
            <g id="eggplant" transform="translate(188.000000, 92.000000)">
                <path d="M56.383,127.76 C56.75,131.652 56.95,141.563 57.002,145.472 C57.042,148.267 56.959,151.123 56.375,153.865 C55.823,156.459 50.333,155.977 48.278,155.8 C45.873,155.593 45.37,159.311 47.78,159.518 C50.952,159.791 55.484,159.908 58.168,157.912 C60.043,156.515 60.292,153.72 60.518,151.582 C61.161,145.558 60.668,133.271 60.098,127.254 C59.872,124.843 56.157,125.358 56.383,127.76" id="Fill-128" fill="#8F42C1"></path>
                <path d="M44.373,134.301 C44.134,140.126 43.638,146.011 42.489,151.732 C42.087,153.742 41.442,157.197 39.415,158.316 C36.321,160.023 31.923,159.404 28.623,158.662 C26.263,158.13 27.263,154.516 29.619,155.045 C31.357,155.436 36.54,156.541 37.628,154.782 C38.908,152.715 39.116,149.646 39.476,147.305 C40.136,143.014 40.444,138.637 40.623,134.301 C40.722,131.891 44.473,131.881 44.373,134.301" id="Fill-129" fill="#8F42C1"></path>
                <path d="M85.52,79.767 C91.092,84.516 96.446,90.187 99.698,96.788 C104.23,105.992 94.068,109.023 86.846,108.897 C84.426,108.855 84.431,112.605 86.846,112.647 C94.254,112.776 104.135,110.357 104.663,101.546 C105.217,92.314 94.537,82.54 88.172,77.115 C86.343,75.556 83.677,78.196 85.52,79.767" id="Fill-130" fill="#8F42C1"></path>
                <path d="M29.576,74.677 C26.453,76.847 23.307,78.984 20.146,81.097 C18.088,82.472 16.016,83.826 13.914,85.133 C13.183,85.589 12.44,86.025 11.686,86.442 C10.358,87.175 13.128,88.21 12.72,86.927 C10.181,78.946 9.836,69.836 8.871,61.546 C8.595,59.174 4.842,59.147 5.121,61.546 C5.606,65.72 6.146,69.887 6.714,74.049 C7.369,78.839 7.455,84.892 9.649,89.298 C11.792,93.602 28.818,79.756 31.468,77.916 C33.439,76.546 31.567,73.294 29.576,74.677" id="Fill-131" fill="#8F42C1"></path>
                <path d="M56.749,31.402 C56.749,31.402 74.028,31.659 81.668,55.054 C89.307,78.449 100.428,115.956 70.248,133.722 C42.084,150.304 6.095,129.709 20.903,100.301 C39.999,62.38 28.01,31.402 56.749,31.402" id="Fill-132" fill="#8F42C1"></path>
                <path d="M79.236,44.899 C79.236,44.899 78.257,34.814 66.342,30.686 C59.614,25.01 64.047,6.593 64.047,6.593 C63.179,4.665 58.143,5.05 58.143,5.05 C50.677,10.063 49.635,22.404 49.635,26.003 C49.635,28.353 48.379,29.931 47.506,30.747 C35.761,34.914 34.792,44.899 34.792,44.899 C43.024,43.426 48.519,39.581 51.988,36.04 C51.028,39.398 51.557,43.764 56.427,48.713 C56.427,48.713 63.354,42.45 61.241,35.195 C64.643,38.947 70.346,43.309 79.236,44.899" id="Fill-133" fill="#3AB54A"></path>
                <path d="M36.377,87.14 C33.023,87.14 30.305,84.412 30.305,81.046 C30.305,77.681 33.023,74.953 36.377,74.953 C39.73,74.953 42.449,77.681 42.449,81.046 C42.449,84.412 39.73,87.14 36.377,87.14" id="Fill-134" fill="#A74CB9"></path>
                <path d="M45.525,70.533 C45.525,73.162 44.11,75.293 42.366,75.293 C40.621,75.293 39.207,73.162 39.207,70.533 C39.207,67.902 40.621,65.772 42.366,65.772 C44.11,65.772 45.525,67.902 45.525,70.533" id="Fill-135" fill="#1F1A1A"></path>
                <path d="M61.049,74.41 C61.125,71.72 62.132,67.554 65.455,67.338 C68.752,67.123 69.796,72.052 69.861,74.41 C69.884,75.214 71.134,75.217 71.111,74.41 C71.016,70.943 69.539,66.354 65.455,66.088 C61.392,65.823 59.884,71.377 59.799,74.41 C59.777,75.217 61.027,75.214 61.049,74.41" id="Fill-136" fill="#1F1A1A"></path>
                <path d="M50.287,84.7 C54.953,87.384 60.163,85.483 63.322,81.506 C63.816,80.885 62.947,79.983 62.446,80.615 C59.645,84.141 55.108,86.032 50.929,83.627 C50.229,83.225 49.588,84.298 50.287,84.7" id="Fill-137" fill="#1F1A1A"></path>
                <path d="M73.164,87.14 C69.811,87.14 67.092,84.412 67.092,81.046 C67.092,77.681 69.811,74.953 73.164,74.953 C76.517,74.953 79.236,77.681 79.236,81.046 C79.236,84.412 76.517,87.14 73.164,87.14" id="Fill-138" fill="#A74CB9"></path>
            </g>
        </g>
    </g>
</svg>