<?xml version="1.0" encoding="UTF-8"?>
<svg width="109px" height="139px" viewBox="0 0 109 139" version="1.1" xmlns="http://www.w3.org/2000/svg" xmlns:xlink="http://www.w3.org/1999/xlink">
    <!-- Generator: Sketch 44.1 (41455) - http://www.bohemiancoding.com/sketch -->
    <title>grape</title>
    <desc>Created with Sketch.</desc>
    <defs></defs>
    <g id="Page-1" stroke="none" stroke-width="1" fill="none" fill-rule="evenodd">
        <g id="116964-OP2RDX-97" transform="translate(-357.000000, -88.000000)">
            <g id="grape" transform="translate(357.000000, 88.000000)">
                <path d="M23.939,87.357 C23.939,87.357 15.275,98.679 19.598,115.494 C19.598,115.494 23.626,115.249 24.081,116.885 C24.537,118.521 21.711,117.505 21.711,117.505 C21.711,117.505 24.174,122.226 23.069,123.107 C21.965,123.988 20.672,118.225 20.672,118.225 C20.672,118.225 21.556,124.082 20.177,124.267 C18.799,124.451 19.012,118.53 19.012,118.53 C19.012,118.53 18.187,123.464 16.958,122.608 C15.729,121.752 18.079,116.091 18.079,116.091 C18.079,116.091 11.137,99.841 19.686,87.01" id="Fill-126" fill="#22214B"></path>
                <path d="M85.635,87.357 C85.635,87.357 94.3,98.679 89.976,115.494 C89.976,115.494 85.949,115.249 85.493,116.885 C85.037,118.521 87.863,117.505 87.863,117.505 C87.863,117.505 85.4,122.226 86.505,123.107 C87.61,123.988 88.902,118.225 88.902,118.225 C88.902,118.225 88.019,124.082 89.397,124.267 C90.776,124.451 90.562,118.53 90.562,118.53 C90.562,118.53 91.387,123.464 92.616,122.608 C93.846,121.752 91.496,116.091 91.496,116.091 C91.496,116.091 98.437,99.841 89.888,87.01" id="Fill-127" fill="#22214B"></path>
                <path d="M58.291,33.609 C58.291,33.609 57.77,7.326 85.738,0.611 C85.738,0.611 88.877,41.507 58.291,33.609" id="Fill-128" fill="#89B84F"></path>
                <path d="M44.861,109.836 L49.228,138.488 L33.366,138.488 C33.366,138.488 32.209,129.81 47.044,134.906 L41.08,109.836 L44.861,109.836" id="Fill-129" fill="#22214B"></path>
                <path d="M63.79,109.836 L59.424,138.488 L75.286,138.488 C75.286,138.488 76.442,129.81 61.607,134.906 L67.572,109.836 L63.79,109.836" id="Fill-130" fill="#22214B"></path>
                <path d="M108.091,59.294 C108.091,51.583 102.1,45.286 94.521,44.766 C94.842,43.563 95.029,42.306 95.029,41.003 C95.029,32.951 88.502,26.423 80.45,26.423 C76.647,26.423 73.196,27.891 70.601,30.275 C68.309,23.478 61.896,18.577 54.326,18.577 C46.756,18.577 40.342,23.478 38.051,30.275 C35.455,27.891 32.004,26.423 28.202,26.423 C20.15,26.423 13.622,32.951 13.622,41.003 C13.622,42.306 13.809,43.563 14.13,44.766 C6.551,45.286 0.56,51.583 0.56,59.294 C0.56,64.696 3.506,69.401 7.871,71.92 C7.138,73.79 6.722,75.819 6.722,77.949 C6.722,85.734 12.105,92.245 19.347,94.007 C19.042,95.291 18.863,96.623 18.863,98 C18.863,107.507 26.57,115.214 36.077,115.214 C37.056,115.214 38.009,115.114 38.942,114.957 C42.167,120.059 47.843,123.458 54.326,123.458 C60.808,123.458 66.484,120.059 69.709,114.957 C70.643,115.114 71.596,115.214 72.574,115.214 C82.082,115.214 89.789,107.507 89.789,98 C89.789,96.719 89.638,95.475 89.373,94.274 C97.284,93.033 103.341,86.208 103.341,77.949 C103.341,75.546 102.818,73.269 101.897,71.209 C105.64,68.57 108.091,64.222 108.091,59.294" id="Fill-131" fill="#582C7A"></path>
                <path d="M51.615,57.167 C51.615,63.022 46.869,67.768 41.014,67.768 C35.16,67.768 30.414,63.022 30.414,57.167 C30.414,51.313 35.16,46.567 41.014,46.567 C46.869,46.567 51.615,51.313 51.615,57.167" id="Fill-132" fill="#FFFFFF"></path>
                <path d="M34.164,57.172 C34.164,61.117 37.365,64.319 41.31,64.319 C44.439,64.319 47.106,62.305 48.067,59.512 L41.31,57.172 L47.85,54.261 C46.734,51.757 44.231,50.016 41.31,50.016 C37.365,50.016 34.164,53.218 34.164,57.172" id="Fill-133" fill="#322D20"></path>
                <path d="M57.036,57.167 C57.036,63.022 61.782,67.768 67.637,67.768 C73.492,67.768 78.238,63.022 78.238,57.167 C78.238,51.313 73.492,46.567 67.637,46.567 C61.782,46.567 57.036,51.313 57.036,57.167" id="Fill-134" fill="#FFFFFF"></path>
                <path d="M60.212,57.087 C60.212,61.033 63.414,64.234 67.359,64.234 C70.488,64.234 73.155,62.221 74.116,59.427 L67.359,57.087 L73.898,54.176 C72.783,51.673 70.28,49.932 67.359,49.932 C63.414,49.932 60.212,53.133 60.212,57.087" id="Fill-135" fill="#322D20"></path>
                <path d="M65.472,70.603 C65.472,73.182 64.56,75.552 63.015,77.394 C61.067,79.746 58.119,81.238 54.837,81.238 C51.555,81.238 48.607,79.746 46.659,77.394 C45.115,75.552 44.202,73.182 44.202,70.603 L65.472,70.603" id="Fill-136" fill="#322D20"></path>
                <path d="M63.015,77.394 C61.067,79.746 58.119,81.238 54.837,81.238 C51.555,81.238 48.607,79.746 46.659,77.394 C48.607,75.043 51.555,73.551 54.837,73.551 C58.119,73.551 61.067,75.043 63.015,77.394" id="Fill-137" fill="#D5689C"></path>
                <path d="M45.407,69.375 L43.281,72.66 C43.281,72.66 42.251,69.633 45.407,69.375" id="Fill-138" fill="#322D20"></path>
                <path d="M64.268,69.375 L66.393,72.66 C66.393,72.66 67.423,69.633 64.268,69.375" id="Fill-139" fill="#322D20"></path>
            </g>
        </g>
    </g>
</svg>