<?xml version="1.0" encoding="UTF-8"?>
<svg width="121px" height="130px" viewBox="0 0 121 130" version="1.1" xmlns="http://www.w3.org/2000/svg" xmlns:xlink="http://www.w3.org/1999/xlink">
    <!-- Generator: Sketch 44.1 (41455) - http://www.bohemiancoding.com/sketch -->
    <title>lemon</title>
    <desc>Created with Sketch.</desc>
    <defs></defs>
    <g id="Page-1" stroke="none" stroke-width="1" fill="none" fill-rule="evenodd">
        <g id="159072-OUUEO9-538" transform="translate(-30.000000, -311.000000)">
            <g id="lemon" transform="translate(25.000000, 306.000000)">
                <path d="M82.98,103.75 C112.764,90.611 112.522,61.74 112.522,61.74 C112.522,61.74 112.764,32.871 82.98,19.73 C82.98,19.73 82.492,4.998 65.892,4.998 C49.289,4.998 48.802,19.73 48.802,19.73 C19.021,32.871 19.264,61.74 19.264,61.74 C19.264,61.74 19.021,90.611 48.802,103.75 C48.802,103.75 49.289,118.484 65.892,118.484 C82.492,118.484 82.98,103.75 82.98,103.75" id="Fill-141" fill="#FFE135"></path>
                <path d="M70.77,89.436 C70.77,90.635 69.859,91.607 68.734,91.607 C67.61,91.607 66.698,90.635 66.698,89.436 C66.698,88.238 67.61,87.266 68.734,87.266 C69.859,87.266 70.77,88.238 70.77,89.436" id="Fill-142" fill="#F8D321"></path>
                <path d="M85.239,87.266 C85.239,89.256 83.726,90.871 81.858,90.871 C79.991,90.871 78.478,89.256 78.478,87.266 C78.478,85.275 79.991,83.66 81.858,83.66 C83.726,83.66 85.239,85.275 85.239,87.266" id="Fill-143" fill="#F8D321"></path>
                <path d="M67.39,99.115 C67.39,100.5 66.337,101.623 65.037,101.623 C63.737,101.623 62.685,100.5 62.685,99.115 C62.685,97.73 63.737,96.605 65.037,96.605 C66.337,96.605 67.39,97.73 67.39,99.115" id="Fill-144" fill="#F8D321"></path>
                <path d="M79.659,99.115 C79.659,101.713 77.684,103.818 75.247,103.818 C72.81,103.818 70.836,101.713 70.836,99.115 C70.836,96.518 72.81,94.412 75.247,94.412 C77.684,94.412 79.659,96.518 79.659,99.115" id="Fill-145" fill="#F8D321"></path>
                <path d="M60.419,31.125 C60.419,29.926 61.331,28.953 62.456,28.953 C63.58,28.953 64.492,29.926 64.492,31.125 C64.492,32.324 63.58,33.297 62.456,33.297 C61.331,33.297 60.419,32.324 60.419,31.125" id="Fill-146" fill="#F8D321"></path>
                <path d="M45.951,33.297 C45.951,31.307 47.464,29.691 49.331,29.691 C51.199,29.691 52.712,31.307 52.712,33.297 C52.712,35.287 51.199,36.9 49.331,36.9 C47.464,36.9 45.951,35.287 45.951,33.297" id="Fill-147" fill="#F8D321"></path>
                <path d="M63.8,21.447 C63.8,20.061 64.853,18.938 66.153,18.938 C67.453,18.938 68.505,20.061 68.505,21.447 C68.505,22.832 67.453,23.955 66.153,23.955 C64.853,23.955 63.8,22.832 63.8,21.447" id="Fill-148" fill="#F8D321"></path>
                <path d="M51.531,21.447 C51.531,18.85 53.506,16.742 55.943,16.742 C58.379,16.742 60.354,18.85 60.354,21.447 C60.354,24.043 58.379,26.15 55.943,26.15 C53.506,26.15 51.531,24.043 51.531,21.447" id="Fill-149" fill="#F8D321"></path>
                <path d="M33.431,81.33 C28.402,81.33 24.325,76.184 24.325,69.834 C24.325,63.482 28.402,58.336 33.431,58.336 C38.459,58.336 42.538,63.482 42.538,69.834 C42.538,76.184 38.459,81.33 33.431,81.33" id="Fill-150" fill="#FFCE33"></path>
                <path d="M98.648,81.33 C93.619,81.33 89.541,76.184 89.541,69.834 C89.541,63.482 93.619,58.336 98.648,58.336 C103.676,58.336 107.754,63.482 107.754,69.834 C107.754,76.184 103.676,81.33 98.648,81.33" id="Fill-151" fill="#FFCE33"></path>
                <path d="M47.645,54.23 C47.57,56.922 46.562,61.088 43.24,61.303 C39.943,61.518 38.899,56.59 38.834,54.23 C38.811,53.428 37.561,53.424 37.584,54.23 C37.68,57.699 39.156,62.287 43.24,62.553 C47.303,62.818 48.81,57.264 48.896,54.23 C48.918,53.424 47.668,53.428 47.645,54.23" id="Fill-152" fill="#1F1A1A"></path>
                <path d="M83.184,54.23 C83.279,57.699 84.756,62.287 88.84,62.553 C92.902,62.818 94.411,57.264 94.495,54.23 C94.518,53.424 93.268,53.428 93.245,54.23 C93.171,56.922 92.163,61.088 88.84,61.303 C85.543,61.518 84.499,56.59 84.434,54.23 C84.411,53.428 83.161,53.424 83.184,54.23" id="Fill-153" fill="#1F1A1A"></path>
                <path d="M69.101,67.516 C69.101,69.506 67.665,71.117 65.893,71.117 C64.121,71.117 62.685,69.506 62.685,67.516 C62.685,65.527 64.121,63.914 65.893,63.914 C67.665,63.914 69.101,65.527 69.101,67.516" id="Fill-154" fill="#1F1A1A"></path>
                <path d="M111.412,63.549 C115.8,61.898 119.628,58.863 122.389,55.105 C128.567,46.699 124.379,36.111 119.119,28.49 C117.755,26.516 114.502,28.387 115.88,30.383 C120.744,37.428 124.573,46.48 118.542,54.01 C116.515,56.541 113.247,58.867 110.415,59.934 C108.173,60.775 109.144,64.4 111.412,63.549" id="Fill-155" fill="#FFE135"></path>
                <path d="M19.283,63.549 C14.894,61.898 11.066,58.863 8.305,55.105 C2.127,46.699 6.315,36.111 11.576,28.49 C12.939,26.516 16.192,28.387 14.814,30.383 C9.951,37.428 6.122,46.48 12.153,54.01 C14.18,56.541 17.448,58.867 20.28,59.934 C22.521,60.775 21.551,64.4 19.283,63.549" id="Fill-156" fill="#FFE135"></path>
                <path d="M72.158,106.18 C74.664,108.637 77.064,111.205 79.336,113.881 C80.214,114.914 83.108,117.705 82.165,119.139 C80.604,121.508 78.484,123.592 76.639,125.736 C75.256,127.346 71.292,130.891 73.584,133.184 C75.688,135.287 80.963,134.891 83.687,134.979 C86.106,135.057 86.099,131.307 83.687,131.229 C82.223,131.182 80.762,131.08 79.304,130.947 C78.309,130.857 77.357,130.697 76.388,130.469 C76.264,132.037 76.416,132.363 76.842,131.451 C77.198,130.926 77.581,130.42 77.992,129.936 C80.281,127.086 85.341,123.303 86.187,119.602 C86.896,116.498 83.775,113.4 81.988,111.229 C79.762,108.525 77.31,105.979 74.809,103.527 C73.081,101.836 70.428,104.484 72.158,106.18" id="Fill-157" fill="#FFE135"></path>
                <path d="M56.976,103.527 C54.706,105.752 52.53,108.074 50.441,110.471 C48.681,112.49 44.828,116.229 45.523,119.273 C46.352,122.896 50.863,126.467 53.168,129.182 C53.79,129.916 54.389,130.664 54.943,131.451 C55.37,132.363 55.521,132.037 55.397,130.469 C54.881,130.605 54.36,130.711 53.833,130.787 C51.96,131.115 49.998,131.168 48.099,131.229 C45.687,131.307 45.679,135.057 48.099,134.979 C51.158,134.881 55.082,135.016 57.821,133.477 C61.077,131.645 56.37,127.18 55.146,125.736 C53.538,123.842 51.881,121.988 50.312,120.061 C48.574,117.924 50.294,116.568 51.828,114.635 C54.204,111.639 56.898,108.855 59.627,106.18 C61.357,104.484 58.704,101.836 56.976,103.527" id="Fill-158" fill="#FFE135"></path>
            </g>
        </g>
    </g>
</svg>