<?xml version="1.0" encoding="UTF-8"?>
<svg width="108px" height="138px" viewBox="0 0 108 138" version="1.1" xmlns="http://www.w3.org/2000/svg" xmlns:xlink="http://www.w3.org/1999/xlink">
    <!-- Generator: Sketch 44.1 (41455) - http://www.bohemiancoding.com/sketch -->
    <title>lime</title>
    <desc>Created with Sketch.</desc>
    <defs></defs>
    <g id="Page-1" stroke="none" stroke-width="1" fill="none" fill-rule="evenodd">
        <g id="116964-OP2RDX-97" transform="translate(-160.000000, -88.000000)">
            <g id="lime" transform="translate(160.000000, 88.000000)">
                <path d="M38.6,90.821 C38.6,90.821 38.297,117.953 45.326,135.232 C45.326,135.232 32.449,127.43 27.763,129.48 C23.077,131.53 24.205,137.681 24.205,137.681 L49.066,137.681 C49.066,137.681 36.918,114.027 51.524,92.285" id="Fill-140" fill="#206E4E"></path>
                <path d="M69.303,90.821 C69.303,90.821 69.606,117.953 62.577,135.232 C62.577,135.232 75.454,127.43 80.14,129.48 C84.826,131.53 83.698,137.681 83.698,137.681 L58.838,137.681 C58.838,137.681 70.985,114.027 56.379,92.285" id="Fill-141" fill="#206E4E"></path>
                <path d="M70.615,12.721 C67.66,11.75 65.174,9.755 63.514,7.125 C61.474,3.893 58.358,0.611 54.114,0.611 C49.889,0.611 46.949,3.774 45.074,6.903 C43.416,9.67 40.701,11.611 37.631,12.598 C15.363,19.751 -0.521,41.145 0.708,66.059 C2.058,93.439 24.479,115.589 51.872,116.631 C82.262,117.786 107.262,93.492 107.262,63.359 C107.262,39.738 91.895,19.718 70.615,12.721" id="Fill-142" fill="#85BF43"></path>
                <path d="M36.11,47 C36.11,53.519 30.825,58.804 24.306,58.804 C17.786,58.804 12.501,53.519 12.501,47 C12.501,40.48 17.786,35.195 24.306,35.195 C30.825,35.195 36.11,40.48 36.11,47" id="Fill-143" fill="#FFFFFF"></path>
                <path d="M32.159,47.005 C32.159,51.398 28.594,54.963 24.201,54.963 C20.717,54.963 17.747,52.721 16.677,49.61 L24.201,47.005 L16.919,43.763 C18.161,40.975 20.949,39.036 24.201,39.036 C28.594,39.036 32.159,42.601 32.159,47.005" id="Fill-144" fill="#322D20"></path>
                <path d="M71.793,47 C71.793,53.519 77.078,58.804 83.598,58.804 C90.117,58.804 95.402,53.519 95.402,47 C95.402,40.48 90.117,35.195 83.598,35.195 C77.078,35.195 71.793,40.48 71.793,47" id="Fill-145" fill="#FFFFFF"></path>
                <path d="M75.33,46.91 C75.33,51.304 78.895,54.869 83.288,54.869 C86.772,54.869 89.742,52.627 90.812,49.516 L83.288,46.91 L90.57,43.669 C89.328,40.881 86.54,38.942 83.288,38.942 C78.895,38.942 75.33,42.507 75.33,46.91" id="Fill-146" fill="#322D20"></path>
                <path d="M65.794,53.566 C65.794,56.439 64.778,59.077 63.058,61.129 C60.889,63.748 57.606,65.409 53.952,65.409 C50.297,65.409 47.014,63.748 44.845,61.129 C43.125,59.077 42.109,56.439 42.109,53.566 L65.794,53.566" id="Fill-147" fill="#322D20"></path>
                <path d="M63.058,61.129 C60.889,63.748 57.606,65.409 53.952,65.409 C50.297,65.409 47.014,63.748 44.845,61.129 C47.014,58.51 50.297,56.849 53.952,56.849 C57.606,56.849 60.889,58.51 63.058,61.129" id="Fill-148" fill="#D5689C"></path>
                <path d="M43.45,52.199 L41.083,55.857 C41.083,55.857 39.936,52.486 43.45,52.199" id="Fill-149" fill="#322D20"></path>
                <path d="M64.453,52.199 L66.82,55.857 C66.82,55.857 67.967,52.486 64.453,52.199" id="Fill-150" fill="#322D20"></path>
                <path d="M8.21,77.289 C-1.233,105.458 31.047,101.833 31.047,101.833 C31.047,101.833 39.507,105.997 40.942,104.194 C42.376,102.391 34.884,100.64 34.884,100.64 C34.884,100.64 43.952,101.55 43.805,99.416 C43.657,97.282 34.579,98.062 34.579,98.062 C34.579,98.062 43.552,96.644 42.309,94.862 C41.065,93.079 33.575,96.395 33.575,96.395 C33.575,96.395 35.412,92.157 32.856,92.696 C30.3,93.235 30.28,99.442 30.28,99.442 C9.066,100.091 11.994,85.873 14.394,79.426 C15.037,77.698 14.089,75.785 12.338,75.21 C10.627,74.649 8.782,75.582 8.21,77.289" id="Fill-151" fill="#206E4E"></path>
                <path d="M99.693,77.289 C109.136,105.458 76.856,101.833 76.856,101.833 C76.856,101.833 68.396,105.997 66.962,104.194 C65.527,102.391 73.02,100.64 73.02,100.64 C73.02,100.64 63.951,101.55 64.098,99.416 C64.246,97.282 73.325,98.062 73.325,98.062 C73.325,98.062 64.351,96.644 65.595,94.862 C66.838,93.079 74.328,96.395 74.328,96.395 C74.328,96.395 72.491,92.157 75.047,92.696 C77.603,93.235 77.623,99.442 77.623,99.442 C98.837,100.091 95.909,85.873 93.509,79.426 C92.866,77.698 93.814,75.785 95.565,75.21 C97.276,74.649 99.121,75.582 99.693,77.289" id="Fill-152" fill="#206E4E"></path>
            </g>
        </g>
    </g>
</svg>