<?xml version="1.0" encoding="UTF-8"?>
<svg width="104px" height="145px" viewBox="0 0 104 145" version="1.1" xmlns="http://www.w3.org/2000/svg" xmlns:xlink="http://www.w3.org/1999/xlink">
    <!-- Generator: Sketch 44.1 (41455) - http://www.bohemiancoding.com/sketch -->
    <title>pear</title>
    <desc>Created with Sketch.</desc>
    <defs></defs>
    <g id="Page-1" stroke="none" stroke-width="1" fill="none" fill-rule="evenodd">
        <g id="159072-OUUEO9-538" transform="translate(-191.000000, -296.000000)">
            <g id="pear" transform="translate(186.000000, 292.000000)">
                <path d="M42.491,123.834 C42.331,127.74 41.999,131.643 41.525,135.521 C41.186,138.297 40.719,141.115 39.77,143.754 C38.873,146.25 33.499,145.031 31.487,144.578 C29.131,144.049 28.131,147.664 30.491,148.193 C33.597,148.893 38.072,149.621 41,148.006 C43.048,146.875 43.67,144.139 44.184,142.051 C45.633,136.168 45.993,129.871 46.241,123.834 C46.34,121.414 42.59,121.424 42.491,123.834" id="Fill-96" fill="#A4C422"></path>
                <path d="M67.902,123.834 C68.142,129.658 68.638,135.543 69.786,141.266 C70.188,143.275 70.833,146.729 72.86,147.85 C75.954,149.557 80.352,148.938 83.653,148.193 C86.013,147.664 85.012,144.049 82.656,144.578 C80.919,144.969 75.735,146.072 74.647,144.314 C73.367,142.248 73.159,139.18 72.8,136.838 C72.14,132.547 71.831,128.17 71.652,123.834 C71.554,121.424 67.803,121.414 67.902,123.834" id="Fill-97" fill="#A4C422"></path>
                <path d="M56.881,7.02 C46.547,7.02 56.881,27.395 56.881,27.395 C56.881,27.395 67.216,7.02 56.881,7.02" id="Fill-98" fill="#664E42"></path>
                <path d="M61.342,14.189 C61.342,14.189 72.394,-2.879 90.394,8.789 C90.394,8.789 76.959,25.924 61.342,14.189" id="Fill-99" fill="#AFD33D"></path>
                <path d="M79.507,51.686 C80.017,49.768 80.289,47.756 80.289,45.68 C80.289,32.752 69.81,22.271 56.881,22.271 C43.954,22.271 33.473,32.752 33.473,45.68 C33.473,47.6 33.707,49.467 34.145,51.252 C34.423,52.387 34.3,54.988 32.047,56.467 C19.793,64.512 11.739,78.41 11.739,94.166 C11.739,119.098 31.95,139.309 56.881,139.309 C81.813,139.309 102.024,119.098 102.024,94.166 C102.024,78.348 93.703,64.707 81.572,56.373 C79.557,54.988 79.246,52.668 79.507,51.686" id="Fill-100" fill="#AFD33D"></path>
                <path d="M74.551,68.539 C74.551,70.287 73.133,71.705 71.385,71.705 C69.636,71.705 68.218,70.287 68.218,68.539 C68.218,66.789 69.636,65.371 71.385,65.371 C73.133,65.371 74.551,66.789 74.551,68.539" id="Fill-101" fill="#1F1A1A"></path>
                <path d="M45.546,68.539 C45.546,70.287 44.128,71.705 42.38,71.705 C40.631,71.705 39.213,70.287 39.213,68.539 C39.213,66.789 40.631,65.371 42.38,65.371 C44.128,65.371 45.546,66.789 45.546,68.539" id="Fill-102" fill="#1F1A1A"></path>
                <path d="M49.52,72.959 C50.578,75.232 52.242,77.426 54.416,78.715 C58.894,81.369 62.656,76.324 64.6,72.959 C65.004,72.26 63.923,71.631 63.52,72.328 C61.426,75.955 57.941,80.275 53.78,76.73 C52.423,75.576 51.349,73.939 50.6,72.328 C50.26,71.598 49.183,72.232 49.52,72.959" id="Fill-103" fill="#1F1A1A"></path>
                <path d="M33.273,94.141 C28.244,94.141 24.167,88.994 24.167,82.645 C24.167,76.293 28.244,71.147 33.273,71.147 C38.301,71.147 42.379,76.293 42.379,82.645 C42.379,88.994 38.301,94.141 33.273,94.141" id="Fill-104" fill="#CEB435"></path>
                <path d="M80.49,94.141 C75.461,94.141 71.384,88.994 71.384,82.645 C71.384,76.293 75.461,71.147 80.49,71.147 C85.518,71.147 89.597,76.293 89.597,82.645 C89.597,88.994 85.518,94.141 80.49,94.141" id="Fill-105" fill="#CEB435"></path>
                <path d="M17.503,69.975 C13.187,72.436 9.268,76.076 6.833,80.414 C2.011,89.006 8.228,96.779 15.063,101.74 C17.024,103.164 18.892,99.908 16.956,98.502 C10.381,93.73 6.311,87.467 11.455,80.107 C13.417,77.301 16.432,74.902 19.396,73.213 C21.496,72.016 19.608,68.775 17.503,69.975" id="Fill-106" fill="#A4C422"></path>
                <path d="M94.36,73.213 C97.067,74.756 99.459,76.83 101.527,79.146 C107.937,86.328 103.598,93.568 96.801,98.502 C94.864,99.908 96.732,103.164 98.693,101.74 C105.26,96.975 111.437,89.637 107.305,81.193 C104.995,76.477 100.794,72.564 96.253,69.975 C94.148,68.775 92.261,72.016 94.36,73.213" id="Fill-107" fill="#A4C422"></path>
            </g>
        </g>
    </g>
</svg>