<?xml version="1.0" encoding="UTF-8"?>
<svg width="89px" height="143px" viewBox="0 0 89 143" version="1.1" xmlns="http://www.w3.org/2000/svg" xmlns:xlink="http://www.w3.org/1999/xlink">
    <!-- Generator: Sketch 44.1 (41455) - http://www.bohemiancoding.com/sketch -->
    <title>pineapple</title>
    <desc>Created with Sketch.</desc>
    <defs></defs>
    <g id="Page-1" stroke="none" stroke-width="1" fill="none" fill-rule="evenodd">
        <g id="159072-OUUEO9-538" transform="translate(-46.000000, -109.000000)">
            <g id="pineapple" transform="translate(41.000000, 104.000000)">
                <path d="M84.084,85.989 C89.387,94.038 89.683,105.987 89.758,115.163 C89.777,117.58 93.527,117.582 93.508,115.163 C93.428,105.35 92.976,92.678 87.322,84.097 C85.998,82.087 82.749,83.963 84.084,85.989" id="Fill-38" fill="#FDB11F"></path>
                <path d="M11.373,84.097 C5.719,92.678 5.268,105.35 5.187,115.163 C5.168,117.582 8.918,117.58 8.937,115.163 C9.012,105.987 9.308,94.038 14.611,85.989 C15.946,83.963 12.697,82.087 11.373,84.097" id="Fill-39" fill="#FDB11F"></path>
                <path d="M35.294,122.522 C35.134,126.428 34.802,130.331 34.328,134.211 C33.989,136.986 33.522,139.805 32.573,142.443 C31.676,144.939 26.301,143.72 24.29,143.267 C21.935,142.737 20.935,146.353 23.294,146.884 C26.4,147.582 30.875,148.311 33.803,146.695 C35.852,145.564 36.473,142.827 36.987,140.74 C38.436,134.857 38.796,128.561 39.044,122.522 C39.144,120.103 35.394,120.113 35.294,122.522" id="Fill-40" fill="#FDB11F"></path>
                <path d="M60.705,122.522 C60.945,128.348 61.441,134.232 62.588,139.954 C62.992,141.964 63.635,145.418 65.663,146.539 C68.756,148.246 73.154,147.627 76.456,146.884 C78.815,146.353 77.814,142.737 75.459,143.267 C73.722,143.658 68.538,144.762 67.45,143.004 C66.17,140.936 65.962,137.868 65.602,135.526 C64.942,131.236 64.634,126.858 64.455,122.522 C64.356,120.113 60.605,120.103 60.705,122.522" id="Fill-41" fill="#FDB11F"></path>
                <path d="M81.976,32.496 C78.976,30.162 68.643,42.756 68.643,42.756 C68.643,42.756 76.31,17.162 71.976,15.162 C67.643,13.162 57.976,37.496 57.976,37.496 C57.976,37.496 58.476,5.164 49.893,5.162 C41.31,5.164 41.81,37.496 41.81,37.496 C41.81,37.496 32.143,13.162 27.81,15.162 C23.476,17.162 31.143,42.756 31.143,42.756 C31.143,42.756 20.81,30.162 17.81,32.496 C14.81,34.829 28.22,53.016 28.22,53.016 L49.893,54.496 L71.565,53.016 C71.565,53.016 84.976,34.829 81.976,32.496" id="Fill-42" fill="#3AB54A"></path>
                <path d="M87.893,90.245 C87.893,115.282 70.88,135.578 49.893,135.578 C28.907,135.578 11.893,115.282 11.893,90.245 C11.893,65.208 28.907,44.912 49.893,44.912 C70.88,44.912 87.893,65.208 87.893,90.245" id="Fill-43" fill="#FDCC1A"></path>
                <path d="M64.035,117.115 L51.307,104.387 L64.035,91.659 L76.763,104.387 L64.035,117.115 M49.893,131.257 L37.165,118.529 L49.893,105.801 L62.621,118.529 L49.893,131.257 M23.023,104.387 L35.751,91.659 L48.479,104.387 L35.751,117.115 L23.023,104.387 M23.023,76.103 L35.751,63.375 L48.479,76.103 L35.751,88.831 L23.023,76.103 M49.893,49.233 L62.621,61.961 L49.893,74.689 L37.165,61.961 L49.893,49.233 M62.621,90.245 L49.893,102.973 L37.165,90.245 L49.893,77.517 L62.621,90.245 M76.763,76.103 L64.035,88.831 L51.307,76.103 L64.035,63.375 L76.763,76.103 M87.53,96.449 C87.647,95.428 87.735,94.397 87.794,93.356 L78.177,102.973 L65.449,90.245 L78.177,77.517 L87.794,87.134 C87.735,86.093 87.647,85.062 87.53,84.042 L79.591,76.103 L84.409,71.285 C84.147,70.608 83.873,69.94 83.584,69.282 L78.177,74.689 L65.449,61.961 L73.075,54.335 C72.581,53.881 72.079,53.441 71.566,53.016 L64.035,60.547 L51.307,47.819 L53.953,45.173 C53.091,45.063 52.22,44.995 51.342,44.956 L49.893,46.405 L48.444,44.956 C47.566,44.995 46.695,45.063 45.833,45.173 L48.479,47.819 L35.751,60.547 L28.22,53.016 C27.708,53.441 27.205,53.882 26.712,54.336 L34.337,61.961 L21.609,74.689 L16.202,69.282 C15.914,69.941 15.639,70.608 15.378,71.286 L20.195,76.103 L12.256,84.042 C12.139,85.062 12.051,86.093 11.992,87.134 L21.609,77.517 L34.337,90.245 L21.609,102.973 L11.992,93.356 C12.051,94.397 12.139,95.428 12.256,96.449 L20.195,104.387 L15.378,109.205 C15.639,109.882 15.914,110.549 16.202,111.208 L21.609,105.801 L34.337,118.529 L26.712,126.154 C27.205,126.608 27.708,127.049 28.22,127.474 L35.751,119.943 L48.479,132.671 L45.833,135.317 C46.695,135.427 47.566,135.495 48.444,135.534 L49.893,134.085 L51.342,135.534 C52.22,135.495 53.091,135.427 53.953,135.317 L51.307,132.671 L64.035,119.943 L71.566,127.474 C72.079,127.049 72.581,126.609 73.075,126.155 L65.449,118.529 L78.177,105.801 L83.584,111.208 C83.873,110.55 84.147,109.882 84.409,109.205 L79.591,104.387 L87.53,96.449" id="Fill-44" fill="#FDB11F"></path>
                <path d="M23.98,105.345 L23.023,104.387 L32.019,95.391 C31.486,100.635 28.157,104.773 23.98,105.345 M19.864,104.718 C17.662,103.703 15.857,101.645 14.825,99.017 L20.195,104.387 L19.864,104.718 M21.609,102.973 L13.948,95.312 C13.904,94.854 13.881,94.388 13.881,93.915 C13.881,87.564 17.958,82.417 22.987,82.417 C27.651,82.417 31.496,86.844 32.03,92.552 L21.609,102.973" id="Fill-45" fill="#FEAE1E"></path>
                <path d="M22.987,105.412 C21.89,105.412 20.838,105.167 19.864,104.718 L20.195,104.387 L14.825,99.017 C14.377,97.877 14.074,96.629 13.948,95.312 L21.609,102.973 L32.03,92.552 C32.072,92.999 32.093,93.454 32.093,93.915 C32.093,94.415 32.068,94.908 32.019,95.391 L23.023,104.387 L23.98,105.345 C23.654,105.389 23.323,105.412 22.987,105.412" id="Fill-46" fill="#FE9B21"></path>
                <path d="M75.806,105.345 C71.629,104.773 68.3,100.635 67.767,95.391 L76.763,104.387 L75.806,105.345 M79.922,104.718 L79.591,104.387 L84.961,99.018 C83.929,101.645 82.124,103.703 79.922,104.718 M78.177,102.973 L67.756,92.552 C68.29,86.844 72.135,82.417 76.799,82.417 C81.828,82.417 85.905,87.564 85.905,93.915 C85.905,94.388 85.882,94.854 85.838,95.312 L78.177,102.973" id="Fill-47" fill="#FEAE1E"></path>
                <path d="M76.799,105.412 C76.463,105.412 76.132,105.389 75.806,105.345 L76.763,104.387 L67.767,95.391 C67.718,94.908 67.693,94.415 67.693,93.915 C67.693,93.454 67.714,92.999 67.756,92.552 L78.177,102.973 L85.838,95.312 C85.712,96.629 85.409,97.877 84.961,99.018 L79.591,104.387 L79.922,104.718 C78.948,105.167 77.896,105.412 76.799,105.412" id="Fill-48" fill="#FE9B21"></path>
                <path d="M43.146,84.29 C47.011,88.035 52.527,87.469 56.565,84.387 C57.197,83.905 56.575,82.819 55.934,83.308 C52.354,86.04 47.493,86.762 44.03,83.406 C43.451,82.845 42.566,83.728 43.146,84.29" id="Fill-49" fill="#1F1A1A"></path>
                <path d="M63.287,83.412 C63.362,80.722 64.37,76.556 67.693,76.34 C70.99,76.125 72.033,81.054 72.099,83.412 C72.121,84.216 73.371,84.219 73.349,83.412 C73.252,79.945 71.777,75.355 67.693,75.09 C63.63,74.825 62.122,80.379 62.037,83.412 C62.015,84.219 63.265,84.216 63.287,83.412" id="Fill-50" fill="#1F1A1A"></path>
                <path d="M37.749,83.412 C37.653,79.945 36.177,75.355 32.093,75.09 C28.031,74.825 26.522,80.379 26.437,83.412 C26.415,84.219 27.665,84.216 27.687,83.412 C27.762,80.722 28.77,76.556 32.093,76.34 C35.39,76.125 36.434,81.054 36.499,83.412 C36.521,84.216 37.771,84.219 37.749,83.412" id="Fill-51" fill="#1F1A1A"></path>
            </g>
        </g>
    </g>
</svg>