<?xml version="1.0" encoding="UTF-8"?>
<svg width="118px" height="139px" viewBox="0 0 118 139" version="1.1" xmlns="http://www.w3.org/2000/svg" xmlns:xlink="http://www.w3.org/1999/xlink">
    <!-- Generator: Sketch 44.1 (41455) - http://www.bohemiancoding.com/sketch -->
    <title>strawberry</title>
    <desc>Created with Sketch.</desc>
    <defs></defs>
    <g id="Page-1" stroke="none" stroke-width="1" fill="none" fill-rule="evenodd">
        <g id="116964-OP2RDX-97" transform="translate(-34.000000, -88.000000)">
            <g id="strawberry" transform="translate(34.000000, 88.000000)">
                <polyline id="Fill-99" fill="#89B84F" points="71.214 13.76 67.719 0.611 58.832 8.607 49.944 0.611 46.449 13.76 35.997 9.318 42.517 26.554 75.146 26.554 81.666 9.318 71.214 13.76"></polyline>
                <path d="M53.906,111.955 L57.95,138.488 L43.261,138.488 C43.261,138.488 42.19,130.452 55.928,135.171 L50.404,111.955 L53.906,111.955" id="Fill-100" fill="#B72C3B"></path>
                <path d="M63.757,111.955 L59.713,138.488 L74.402,138.488 C74.402,138.488 75.473,130.452 61.735,135.171 L67.259,111.955 L63.757,111.955" id="Fill-101" fill="#B72C3B"></path>
                <path d="M106.057,53.998 C106.057,80.08 84.913,115.268 58.832,115.268 C32.75,115.268 11.606,80.08 11.606,53.998 C11.606,27.916 32.75,19.66 58.832,19.66 C84.913,19.66 106.057,27.916 106.057,53.998" id="Fill-102" fill="#D2323C"></path>
                <path d="M40.99,53.507 C40.99,60.026 35.705,65.311 29.186,65.311 C22.666,65.311 17.381,60.026 17.381,53.507 C17.381,46.987 22.666,41.702 29.186,41.702 C35.705,41.702 40.99,46.987 40.99,53.507" id="Fill-103" fill="#FFFFFF"></path>
                <path d="M37.039,53.512 C37.039,57.905 33.474,61.47 29.081,61.47 C25.597,61.47 22.627,59.228 21.557,56.118 L29.081,53.512 L21.799,50.27 C23.041,47.482 25.829,45.543 29.081,45.543 C33.474,45.543 37.039,49.109 37.039,53.512" id="Fill-104" fill="#322D20"></path>
                <path d="M76.673,53.507 C76.673,60.026 81.958,65.311 88.478,65.311 C94.997,65.311 100.282,60.026 100.282,53.507 C100.282,46.987 94.997,41.702 88.478,41.702 C81.958,41.702 76.673,46.987 76.673,53.507" id="Fill-105" fill="#FFFFFF"></path>
                <path d="M80.21,53.418 C80.21,57.811 83.775,61.376 88.168,61.376 C91.652,61.376 94.622,59.134 95.692,56.023 L88.168,53.418 L95.45,50.176 C94.208,47.388 91.42,45.449 88.168,45.449 C83.775,45.449 80.21,49.014 80.21,53.418" id="Fill-106" fill="#322D20"></path>
                <path d="M70.674,60.073 C70.674,62.946 69.658,65.584 67.938,67.636 C65.769,70.255 62.486,71.916 58.832,71.916 C55.177,71.916 51.894,70.255 49.725,67.636 C48.005,65.584 46.989,62.946 46.989,60.073 L70.674,60.073" id="Fill-107" fill="#322D20"></path>
                <path d="M67.938,67.636 C65.769,70.255 62.486,71.916 58.832,71.916 C55.177,71.916 51.894,70.255 49.725,67.636 C51.894,65.018 55.177,63.357 58.832,63.357 C62.486,63.357 65.769,65.018 67.938,67.636" id="Fill-108" fill="#D5689C"></path>
                <path d="M48.33,58.707 L45.963,62.364 C45.963,62.364 44.816,58.993 48.33,58.707" id="Fill-109" fill="#322D20"></path>
                <path d="M69.333,58.707 L71.7,62.364 C71.7,62.364 72.847,58.993 69.333,58.707" id="Fill-110" fill="#322D20"></path>
                <path d="M12.721,64.986 C12.721,64.986 -1.774,70.978 0.94,82.845 C3.655,94.711 19.814,92.818 19.814,92.818 C19.814,92.818 18.173,98.751 22.528,98.499 C22.528,98.499 19.688,99.887 20.003,100.771 C20.319,101.655 26.947,101.024 26.757,97.173 C26.568,93.323 23.033,90.04 23.033,90.04 C23.033,90.04 6.116,90.609 5.738,82.213 C5.359,73.818 14.926,73.428 14.926,73.428 C14.926,73.428 15.097,67.262 12.721,64.986" id="Fill-111" fill="#B72C3B"></path>
                <path d="M104.942,64.986 C104.942,64.986 119.437,70.978 116.723,82.845 C114.009,94.711 97.849,92.818 97.849,92.818 C97.849,92.818 99.49,98.751 95.135,98.499 C95.135,98.499 97.976,99.887 97.66,100.771 C97.344,101.655 90.717,101.024 90.906,97.173 C91.095,93.323 94.63,90.04 94.63,90.04 C94.63,90.04 111.547,90.609 111.925,82.213 C112.304,73.818 102.737,73.428 102.737,73.428 C102.737,73.428 102.566,67.262 104.942,64.986" id="Fill-112" fill="#B72C3B"></path>
                <path d="M27.028,73.9 C26.325,73.9 25.755,75.021 25.755,76.403 C25.755,77.786 26.325,78.906 27.028,78.906 C27.732,78.906 28.302,77.786 28.302,76.403 C28.302,75.021 27.732,73.9 27.028,73.9" id="Fill-113" fill="#DFDC29"></path>
                <path d="M48.231,73.9 C47.527,73.9 46.957,75.021 46.957,76.403 C46.957,77.786 47.527,78.906 48.231,78.906 C48.934,78.906 49.504,77.786 49.504,76.403 C49.504,75.021 48.934,73.9 48.231,73.9" id="Fill-114" fill="#DFDC29"></path>
                <path d="M69.433,73.9 C68.729,73.9 68.159,75.021 68.159,76.403 C68.159,77.786 68.729,78.906 69.433,78.906 C70.136,78.906 70.706,77.786 70.706,76.403 C70.706,75.021 70.136,73.9 69.433,73.9" id="Fill-115" fill="#DFDC29"></path>
                <path d="M90.635,73.9 C89.931,73.9 89.361,75.021 89.361,76.403 C89.361,77.786 89.931,78.906 90.635,78.906 C91.338,78.906 91.908,77.786 91.908,76.403 C91.908,75.021 91.338,73.9 90.635,73.9" id="Fill-116" fill="#DFDC29"></path>
                <path d="M80.034,83.821 C79.33,83.821 78.76,84.942 78.76,86.324 C78.76,87.706 79.33,88.827 80.034,88.827 C80.737,88.827 81.307,87.706 81.307,86.324 C81.307,84.942 80.737,83.821 80.034,83.821" id="Fill-117" fill="#DFDC29"></path>
                <path d="M37.63,83.821 C36.926,83.821 36.356,84.942 36.356,86.324 C36.356,87.706 36.926,88.827 37.63,88.827 C38.333,88.827 38.903,87.706 38.903,86.324 C38.903,84.942 38.333,83.821 37.63,83.821" id="Fill-118" fill="#DFDC29"></path>
                <path d="M59.327,84.018 C59.251,83.954 59.171,83.905 59.088,83.872 C59.005,83.839 58.919,83.821 58.832,83.821 L58.831,83.821 C58.744,83.821 58.658,83.839 58.575,83.872 C58.492,83.905 58.412,83.954 58.336,84.018 C58.184,84.144 58.046,84.328 57.931,84.554 C57.701,85.007 57.558,85.633 57.558,86.324 C57.558,87.015 57.701,87.641 57.931,88.094 C58.046,88.32 58.184,88.504 58.336,88.63 C58.412,88.694 58.492,88.743 58.575,88.776 C58.658,88.81 58.744,88.827 58.831,88.827 L58.832,88.827 C58.919,88.827 59.005,88.81 59.088,88.776 C59.171,88.743 59.251,88.694 59.327,88.63 C59.48,88.504 59.617,88.32 59.732,88.094 C59.962,87.641 60.105,87.015 60.105,86.324 C60.105,85.633 59.962,85.007 59.732,84.554 C59.617,84.328 59.48,84.144 59.327,84.018" id="Fill-119" fill="#DFDC29"></path>
                <path d="M48.231,93.742 C47.527,93.742 46.957,94.862 46.957,96.245 C46.957,97.627 47.527,98.748 48.231,98.748 C48.934,98.748 49.504,97.627 49.504,96.245 C49.504,94.862 48.934,93.742 48.231,93.742" id="Fill-120" fill="#DFDC29"></path>
                <path d="M69.433,93.742 C68.729,93.742 68.159,94.862 68.159,96.245 C68.159,97.627 68.729,98.748 69.433,98.748 C70.136,98.748 70.706,97.627 70.706,96.245 C70.706,94.862 70.136,93.742 69.433,93.742" id="Fill-121" fill="#DFDC29"></path>
                <path d="M59.327,26.751 C59.251,26.688 59.171,26.638 59.088,26.605 C59.005,26.572 58.919,26.554 58.832,26.554 L58.831,26.554 C58.744,26.554 58.658,26.572 58.575,26.605 C58.492,26.638 58.412,26.688 58.336,26.751 C58.184,26.878 58.046,27.061 57.931,27.287 C57.701,27.74 57.558,28.366 57.558,29.057 C57.558,29.749 57.701,30.374 57.931,30.827 C58.046,31.054 58.184,31.237 58.336,31.364 C58.412,31.427 58.492,31.476 58.575,31.509 C58.658,31.543 58.744,31.56 58.831,31.56 L58.832,31.56 C58.919,31.56 59.005,31.543 59.088,31.509 C59.171,31.476 59.251,31.427 59.327,31.364 C59.48,31.237 59.617,31.054 59.732,30.827 C59.962,30.374 60.105,29.749 60.105,29.057 C60.105,28.366 59.962,27.74 59.732,27.287 C59.617,27.061 59.48,26.878 59.327,26.751" id="Fill-122" fill="#DFDC29"></path>
                <path d="M48.231,36.475 C47.527,36.475 46.957,37.596 46.957,38.978 C46.957,40.36 47.527,41.481 48.231,41.481 C48.934,41.481 49.504,40.36 49.504,38.978 C49.504,37.596 48.934,36.475 48.231,36.475" id="Fill-123" fill="#DFDC29"></path>
                <path d="M69.433,36.475 C68.729,36.475 68.159,37.596 68.159,38.978 C68.159,40.36 68.729,41.481 69.433,41.481 C70.136,41.481 70.706,40.36 70.706,38.978 C70.706,37.596 70.136,36.475 69.433,36.475" id="Fill-124" fill="#DFDC29"></path>
                <path d="M58.832,103.662 C58.128,103.662 57.558,104.783 57.558,106.165 C57.558,107.548 58.128,108.668 58.832,108.668 C59.535,108.668 60.105,107.548 60.105,106.165 C60.105,104.783 59.535,103.662 58.832,103.662" id="Fill-125" fill="#DFDC29"></path>
            </g>
        </g>
    </g>
</svg>