<?xml version="1.0" encoding="UTF-8"?>
<svg width="122px" height="130px" viewBox="0 0 122 130" version="1.1" xmlns="http://www.w3.org/2000/svg" xmlns:xlink="http://www.w3.org/1999/xlink">
    <!-- Generator: Sketch 44.1 (41455) - http://www.bohemiancoding.com/sketch -->
    <title>watermelon</title>
    <desc>Created with Sketch.</desc>
    <defs></defs>
    <g id="Page-1" stroke="none" stroke-width="1" fill="none" fill-rule="evenodd">
        <g id="159072-OUUEO9-538" transform="translate(-346.000000, -122.000000)">
            <g id="watermelon" transform="translate(341.000000, 116.000000)">
                <path d="M51.566,110.522 C51.406,114.428 51.074,118.331 50.601,122.211 C50.262,124.986 49.795,127.805 48.846,130.443 C47.948,132.939 42.574,131.72 40.563,131.268 C38.207,130.737 37.207,134.353 39.566,134.882 C42.673,135.582 47.147,136.311 50.076,134.695 C52.124,133.564 52.746,130.827 53.26,128.74 C54.709,122.857 55.068,116.561 55.316,110.522 C55.416,108.103 51.666,108.113 51.566,110.522" id="Fill-54" fill="#3AB54A"></path>
                <path d="M76.978,110.522 C77.217,116.348 77.713,122.232 78.861,127.954 C79.264,129.964 79.908,133.417 81.936,134.539 C85.029,136.246 89.427,135.627 92.729,134.882 C95.088,134.353 94.087,130.737 91.731,131.268 C89.994,131.658 84.811,132.761 83.723,131.004 C82.442,128.936 82.234,125.868 81.875,123.526 C81.215,119.236 80.906,114.858 80.728,110.522 C80.629,108.113 76.878,108.103 76.978,110.522" id="Fill-55" fill="#3AB54A"></path>
                <path d="M126.647,95.822 C120.425,57.147 66.005,6.594 65.98,6.571 C65.955,6.594 11.535,57.147 5.314,95.822 C5.314,95.822 17.758,123.838 65.98,123.838 C114.203,123.838 126.647,95.822 126.647,95.822" id="Fill-56" fill="#3AB54A"></path>
                <path d="M7.473,86.994 C12.725,94.563 28.598,111.393 65.98,111.393 C103.363,111.393 119.236,94.563 124.487,86.994 C112.603,49.886 66.003,6.593 65.98,6.571 C65.957,6.593 19.356,49.886 7.473,86.994" id="Fill-57" fill="#90E54C"></path>
                <path d="M10.346,79.369 C17.608,87.67 33.842,100.108 65.98,100.108 C98.118,100.108 114.352,87.67 121.614,79.37 C106.493,44.209 66.002,6.591 65.98,6.571 C65.959,6.591 25.467,44.209 10.346,79.369" id="Fill-58" fill="#FF5D98"></path>
                <path d="M66.147,21.004 C66.147,21.004 60.813,31.504 65.98,31.504 C71.147,31.504 66.147,21.004 66.147,21.004" id="Fill-59" fill="#F23884"></path>
                <path d="M56.147,31.004 C56.147,31.004 50.813,41.504 55.98,41.504 C61.147,41.504 56.147,31.004 56.147,31.004" id="Fill-60" fill="#F23884"></path>
                <path d="M76.147,31.004 C76.147,31.004 70.813,41.504 75.98,41.504 C81.147,41.504 76.147,31.004 76.147,31.004" id="Fill-61" fill="#F23884"></path>
                <path d="M66.147,41.004 C66.147,41.004 60.813,51.504 65.98,51.504 C71.147,51.504 66.147,41.004 66.147,41.004" id="Fill-62" fill="#F23884"></path>
                <path d="M46.147,41.004 C46.147,41.004 40.813,51.504 45.98,51.504 C51.147,51.504 46.147,41.004 46.147,41.004" id="Fill-63" fill="#F23884"></path>
                <path d="M86.147,41.004 C86.147,41.004 80.813,51.504 85.98,51.504 C91.147,51.504 86.147,41.004 86.147,41.004" id="Fill-64" fill="#F23884"></path>
                <path d="M56.147,51.004 C56.147,51.004 50.813,61.504 55.98,61.504 C61.147,61.504 56.147,51.004 56.147,51.004" id="Fill-65" fill="#F23884"></path>
                <path d="M76.147,51.004 C76.147,51.004 70.813,61.504 75.98,61.504 C81.147,61.504 76.147,51.004 76.147,51.004" id="Fill-66" fill="#F23884"></path>
                <path d="M36.147,51.004 C36.147,51.004 30.813,61.504 35.98,61.504 C41.147,61.504 36.147,51.004 36.147,51.004" id="Fill-67" fill="#F23884"></path>
                <path d="M96.147,51.004 C96.147,51.004 90.813,61.504 95.98,61.504 C101.147,61.504 96.147,51.004 96.147,51.004" id="Fill-68" fill="#F23884"></path>
                <path d="M66.147,61.004 C66.147,61.004 60.813,71.504 65.98,71.504 C71.147,71.504 66.147,61.004 66.147,61.004" id="Fill-69" fill="#F23884"></path>
                <path d="M46.147,61.004 C46.147,61.004 40.813,71.504 45.98,71.504 C51.147,71.504 46.147,61.004 46.147,61.004" id="Fill-70" fill="#F23884"></path>
                <path d="M86.147,61.004 C86.147,61.004 80.813,71.504 85.98,71.504 C91.147,71.504 86.147,61.004 86.147,61.004" id="Fill-71" fill="#F23884"></path>
                <path d="M56.147,71.004 C56.147,71.004 50.813,81.504 55.98,81.504 C61.147,81.504 56.147,71.004 56.147,71.004" id="Fill-72" fill="#F23884"></path>
                <path d="M76.147,71.004 C76.147,71.004 70.813,81.504 75.98,81.504 C81.147,81.504 76.147,71.004 76.147,71.004" id="Fill-73" fill="#F23884"></path>
                <path d="M36.147,71.004 C36.147,71.004 30.813,81.504 35.98,81.504 C41.147,81.504 36.147,71.004 36.147,71.004" id="Fill-74" fill="#F23884"></path>
                <path d="M96.147,71.004 C96.147,71.004 90.813,81.504 95.98,81.504 C101.147,81.504 96.147,71.004 96.147,71.004" id="Fill-75" fill="#F23884"></path>
                <path d="M106.147,61.004 C106.147,61.004 100.813,71.504 105.98,71.504 C111.147,71.504 106.147,61.004 106.147,61.004" id="Fill-76" fill="#F23884"></path>
                <path d="M26.147,61.004 C26.147,61.004 20.813,71.504 25.98,71.504 C31.147,71.504 26.147,61.004 26.147,61.004" id="Fill-77" fill="#F23884"></path>
                <path d="M66.147,81.004 C66.147,81.004 60.813,91.504 65.98,91.504 C71.147,91.504 66.147,81.004 66.147,81.004" id="Fill-78" fill="#F23884"></path>
                <path d="M46.147,81.004 C46.147,81.004 40.813,91.504 45.98,91.504 C51.147,91.504 46.147,81.004 46.147,81.004" id="Fill-79" fill="#F23884"></path>
                <path d="M86.147,81.004 C86.147,81.004 80.813,91.504 85.98,91.504 C91.147,91.504 86.147,81.004 86.147,81.004" id="Fill-80" fill="#F23884"></path>
                <path d="M85.502,53.339 C85.502,55.594 84.022,57.421 82.198,57.421 C80.374,57.421 78.895,55.594 78.895,53.339 C78.895,51.084 80.374,49.257 82.198,49.257 C84.022,49.257 85.502,51.084 85.502,53.339" id="Fill-81" fill="#1F1A1A"></path>
                <path d="M53.4,53.339 C53.4,55.594 51.92,57.421 50.096,57.421 C48.271,57.421 46.793,55.594 46.793,53.339 C46.793,51.084 48.271,49.257 50.096,49.257 C51.92,49.257 53.4,51.084 53.4,53.339" id="Fill-82" fill="#1F1A1A"></path>
                <path d="M70.188,63.504 C70.188,67.254 68.305,70.295 65.98,70.295 C63.656,70.295 61.772,67.254 61.772,63.504 C61.772,59.753 63.656,56.712 65.98,56.712 C68.305,56.712 70.188,59.753 70.188,63.504" id="Fill-83" fill="#1F1A1A"></path>
                <path d="M44.22,79.896 C41.887,79.896 39.76,78.789 38.149,76.969 C37.635,74.128 36.147,71.004 36.147,71.004 C36.147,71.004 35.922,71.447 35.609,72.151 C35.288,70.975 35.113,69.712 35.113,68.398 C35.113,65.721 35.838,63.259 37.053,61.305 C37.691,61.025 38.049,60.471 38.212,59.757 C39.816,57.979 41.918,56.901 44.22,56.901 C49.248,56.901 53.326,62.048 53.326,68.398 C53.326,74.749 49.248,79.896 44.22,79.896 M46.147,61.004 C46.147,61.004 40.813,71.504 45.98,71.504 C51.147,71.504 46.147,61.004 46.147,61.004" id="Fill-84" fill="#FF73A5"></path>
                <path d="M37.053,61.305 C37.401,60.745 37.789,60.226 38.212,59.757 C38.049,60.471 37.691,61.025 37.053,61.305" id="Fill-85" fill="#F75997"></path>
                <path d="M45.98,71.504 C40.813,71.504 46.147,61.004 46.147,61.004 C46.147,61.004 51.147,71.504 45.98,71.504" id="Fill-86" fill="#F75997"></path>
                <path d="M38.149,76.969 C37.005,75.676 36.121,74.023 35.609,72.151 C35.922,71.447 36.147,71.004 36.147,71.004 C36.147,71.004 37.635,74.128 38.149,76.969" id="Fill-87" fill="#F75997"></path>
                <path d="M88.075,79.896 C83.046,79.896 78.969,74.749 78.969,68.398 C78.969,62.048 83.046,56.901 88.075,56.901 C90.222,56.901 92.195,57.839 93.752,59.409 C93.86,60.439 94.311,61.213 95.323,61.437 C96.489,63.369 97.182,65.782 97.182,68.398 C97.182,69.733 97.002,71.013 96.671,72.204 C96.369,71.469 96.147,71.004 96.147,71.004 C96.147,71.004 94.459,74.327 93.902,77.234 C92.323,78.896 90.291,79.896 88.075,79.896 M86.147,61.004 C86.147,61.004 80.813,71.504 85.98,71.504 C91.147,71.504 86.147,61.004 86.147,61.004" id="Fill-88" fill="#FF73A5"></path>
                <path d="M95.323,61.437 C94.311,61.213 93.86,60.439 93.752,59.409 C94.34,60.001 94.868,60.682 95.323,61.437" id="Fill-89" fill="#F75997"></path>
                <path d="M85.98,71.504 C80.813,71.504 86.147,61.004 86.147,61.004 C86.147,61.004 91.147,71.504 85.98,71.504" id="Fill-90" fill="#F75997"></path>
                <path d="M93.902,77.234 C94.459,74.327 96.147,71.004 96.147,71.004 C96.147,71.004 96.369,71.469 96.671,72.204 C96.121,74.184 95.154,75.917 93.902,77.234" id="Fill-91" fill="#F75997"></path>
                <path d="M103.267,54.419 C111.358,47.339 116.356,36.503 114.748,25.755 C114.392,23.371 110.778,24.388 111.133,26.752 C112.537,36.143 107.598,45.658 100.614,51.768 C98.791,53.363 101.455,56.005 103.267,54.419" id="Fill-92" fill="#FF5D98"></path>
                <path d="M29.028,54.419 C20.937,47.339 15.938,36.503 17.547,25.755 C17.903,23.371 21.517,24.388 21.162,26.752 C19.758,36.143 24.697,45.658 31.681,51.768 C33.504,53.363 30.84,56.005 29.028,54.419" id="Fill-93" fill="#FF5D98"></path>
            </g>
        </g>
    </g>
</svg>