<?xml version="1.0" encoding="UTF-8"?>
<svg width="1750px" height="500px" viewBox="0 0 1750 500" version="1.1" xmlns="http://www.w3.org/2000/svg" xmlns:xlink="http://www.w3.org/1999/xlink">
    <!-- Generator: Sketch 49.3 (51167) - http://www.bohemiancoding.com/sketch -->
    <title>Artboard 2</title>
    <desc>Created with Sketch.</desc>
    <defs>
        <linearGradient x1="-2.98441472%" y1="16.038%" x2="86.8752073%" y2="73.636%" id="linearGradient-1">
            <stop stop-color="#AAC845" offset="0%"></stop>
            <stop stop-color="#A7C744" offset="24%"></stop>
            <stop stop-color="#9DC242" offset="44%"></stop>
            <stop stop-color="#8CBB3D" offset="61%"></stop>
            <stop stop-color="#74B037" offset="78%"></stop>
            <stop stop-color="#56A330" offset="94%"></stop>
            <stop stop-color="#489D2C" offset="100%"></stop>
        </linearGradient>
        <linearGradient x1="15.3958472%" y1="43.352%" x2="118.457839%" y2="63.152%" id="linearGradient-2">
            <stop stop-color="#008DC8" offset="0%"></stop>
            <stop stop-color="#1497CD" offset="11%"></stop>
            <stop stop-color="#29A1D2" offset="27%"></stop>
            <stop stop-color="#37A8D5" offset="44%"></stop>
            <stop stop-color="#3FADD7" offset="66%"></stop>
            <stop stop-color="#42AED8" offset="100%"></stop>
        </linearGradient>
    </defs>
    <g id="Page-1" stroke="none" stroke-width="1" fill="none" fill-rule="evenodd">
        <g id="Artboard-2" fill-rule="nonzero">
            <path d="M-5.68434189e-14,0 L952.35,0 C950.6,7.7 944.23,28.16 924.94,37 C900.94,48 867.94,52 859.94,92 C851.94,132 902.94,207 870.94,254 C838.94,301 787.94,313 797.94,360 C807.68,405.77 847.83,438.81 784.29,500 L-5.68434189e-14,500 L-5.68434189e-14,0 Z" id="Shape" fill="url(#linearGradient-1)"></path>
            <path d="M1750,0 L1750,500 L784.29,500 C847.83,438.81 807.68,405.77 797.94,360 C787.94,313 838.94,301 870.94,254 C902.94,207 851.94,132 859.94,92 C867.94,52 900.94,48 924.94,37 C944.23,28.16 950.6,7.7 952.35,0 L1750,0 Z" id="Shape" fill="url(#linearGradient-2)"></path>
            <path d="M856.55,152.05 C837.96,159.4 817.7,137.72 789.28,147.46 C760.86,157.2 746.94,177.85 749.28,206.46 C751.62,235.07 761.46,251.18 751.6,264.94 C741.74,278.7 731.88,288.44 735.94,309.08 C740,329.72 775.94,356.08 795.68,357.24 C815.42,358.4 829.9,340.04 844.4,345.24 C858.9,350.44 854.84,379.06 882.09,377.34 C909.34,375.62 902.97,340.07 917.47,337.21 C931.97,334.35 942.41,341.21 956.91,325.74 C971.41,310.27 965.03,290.2 978.37,275.87 C991.71,261.54 1012.01,248.93 1006.79,223.7 C1001.57,198.47 980.11,205.93 975.47,190.45 C970.83,174.97 967.93,162.36 952.27,159.45 C936.61,156.54 929.27,162.87 921.53,158.88 C909.35,152.57 916.89,122.19 891.37,124.48 C870.43,126.41 871.05,146.32 856.55,152.05 Z" id="Shape" fill="#650E81" opacity="0.2" style="mix-blend-mode: multiply;"></path>
            <path d="M801.08,130.12 C804.4,126.8 797.08,107.12 781.64,99.63 C766.2,92.14 752.48,91.24 748.5,101 C744.52,110.76 769.27,119.55 780.76,122.65 C792.25,125.75 798,133.21 801.08,130.12 Z" id="Shape" fill="#650E81" opacity="0.2" style="mix-blend-mode: multiply;"></path>
            <path d="M825.82,128.79 C836.08,128.15 838.63,94.33 821.4,94.33 C804.17,94.33 804.62,130.12 825.82,128.79 Z" id="Shape" fill="#650E81" opacity="0.2" style="mix-blend-mode: multiply;"></path>
            <path d="M801.08,125.83 C804.4,122.51 797.08,102.83 781.64,95.34 C766.2,87.85 752.48,87 748.5,96.67 C744.52,106.34 769.27,115.22 780.76,118.32 C792.25,121.42 798,128.92 801.08,125.83 Z" id="Shape" fill="#FFD900"></path>
            <path d="M825.82,124.5 C836.08,123.86 838.63,90 821.4,90 C804.17,90 804.62,125.83 825.82,124.5 Z" id="Shape" fill="#FFD900"></path>
            <path d="M832.37,359.38 C833.7,353.38 822.12,367.64 810.79,369.38 C799.46,371.12 783.7,373.38 786.1,382.03 C790.3,397.23 827.2,382.75 832.37,359.38 Z" id="Shape" fill="#650E81" opacity="0.2" style="mix-blend-mode: multiply;"></path>
            <path d="M832.37,356.16 C833.7,350.16 822.12,364.42 810.79,366.16 C799.46,367.9 783.7,370.11 786.1,378.81 C790.3,394 827.2,379.53 832.37,356.16 Z" id="Shape" fill="#FFD900"></path>
            <path d="M989.49,184.11 C988.42,183.39 996.97,157.88 1012.36,162.49 C1017.71,164.1 1018.13,171.44 1015.21,173.39 C1011.88,175.62 1008.21,174.33 1003.07,176.6 C995,180.18 992.7,186.25 989.49,184.11 Z" id="Shape" fill="#650E81" opacity="0.2" style="mix-blend-mode: multiply;"></path>
            <path d="M990.22,160.84 C988.332693,159.155364 985.683268,158.620127 983.29,159.44 C980.07,160.56 978.29,163.22 977.07,166.25 C976.595009,167.991072 977.344701,169.834579 978.9,170.75 C982.54,172.75 986.9,172.86 990.11,170.04 C991.401873,168.844842 992.054194,167.11026 991.87,165.36 C992.12879,163.670342 991.506473,161.965569 990.22,160.84 Z" id="Shape" fill="#650E81" opacity="0.2" style="mix-blend-mode: multiply;"></path>
            <path d="M987.34,182 C986.27,181.29 994.83,155.77 1010.21,160.38 C1015.57,161.99 1015.98,169.38 1013.07,171.28 C1009.73,173.51 1006.07,172.23 1000.92,174.5 C992.88,178 990.56,184.11 987.34,182 Z" id="Shape" fill="#FFD900"></path>
            <path d="M988.07,158.7 C986.184694,157.01189 983.535048,156.472785 981.14,157.29 C977.93,158.41 976.14,161.07 974.93,164.11 C974.432704,165.852346 975.187838,167.709234 976.76,168.61 C980.39,170.61 984.76,170.72 987.96,167.9 C989.258681,166.709431 989.912339,164.971295 989.72,163.22 C989.97879,161.530342 989.356473,159.825569 988.07,158.7 Z" id="Shape" fill="#FFD900"></path>
            <path d="M856.79,144.43 C838.48,151.75 818.54,130.16 790.57,139.86 C762.6,149.56 748.9,170.12 751.18,198.66 C753.46,227.2 763.18,243.19 753.46,256.89 C743.74,270.59 734.05,280.29 738.05,300.84 C742.05,321.39 777.44,347.65 796.85,348.84 C816.26,350.03 830.53,331.71 844.8,336.84 C859.07,341.97 855.08,370.52 881.9,368.84 C908.72,367.16 902.46,331.74 916.73,328.84 C931,325.94 941.27,332.84 955.54,317.43 C969.81,302.02 963.54,282.04 976.67,267.76 C989.8,253.48 1009.78,240.94 1004.67,215.82 C999.56,190.7 978.41,198.12 973.84,182.71 C969.27,167.3 966.42,154.71 951.01,151.88 C935.6,149.05 928.34,155.28 920.75,151.31 C908.75,145.03 916.19,114.78 891.07,117.06 C870.45,118.9 871.06,138.72 856.79,144.43 Z" id="Shape" fill="#FFD900"></path>
            <path d="M878,199.31 C877.742699,195.797503 876.718673,192.384085 875,189.31 C871.733333,183.543333 868.336667,180.656667 864.81,180.65 C862.6,180.65 860.18,181.65 857.53,183.71 C853.743333,186.643333 850.076667,193.483333 846.53,204.23 C844.936667,209.47 842.466667,217.376667 839.12,227.95 C838.24,230.79 836.873333,235.586667 835.02,242.34 C833.44,248.38 831.676667,252.996667 829.73,256.19 C826.816667,252.023333 823.95,244.473333 821.13,233.54 C819.13,225.366667 817.146667,217.196667 815.18,209.03 C814.393333,205.83 813.203333,201.076667 811.61,194.77 C810.203333,189.71 808.536667,186.156667 806.61,184.11 C804.14,181.54 800.61,180.51 795.9,181.05 C793.07398,181.366499 790.415431,182.550793 788.29,184.44 C786.161846,186.30014 784.697922,188.803203 784.12,191.57 C783.953333,192.456667 783.733333,195.076667 783.46,199.43 C783.2,204.323333 784.48,211.52 787.3,221.02 C787.74,222.526667 790.12,229.586667 794.44,242.2 C801.406667,262.54 808.073333,277.686667 814.44,287.64 C816.726667,291.28 821.663333,293.456667 829.25,294.17 C833.75,294.61 837.94,292.743333 841.82,288.57 C847.937761,279.513819 852.956363,269.761953 856.77,259.52 C857.83,256.68 861.313333,249.31 867.22,237.41 C871.633333,228.53 874.5,220.933333 875.82,214.62 C877.386667,206.906667 878.113333,201.803333 878,199.31 Z" id="Shape" fill="#4C427B"></path>
            <path d="M903.49,218.1 C904.25,215.92 906.3,214.56 909.65,213.99 C911.254612,213.853452 912.869187,214.086061 914.37,214.67 C917.776667,215.803333 922.156667,218.253333 927.51,222.02 C931.96,225.15 935.62,227.2 938.51,228.14 C941.09,228.993333 942.976667,228.906667 944.17,227.88 C946.57,225.833333 948.57,222.5 950.17,217.88 C951.65,213.366667 951.28,210.033333 949.06,207.88 C941.961424,200.800666 933.343383,195.43149 923.86,192.18 C915.92,189.56 908.903333,189.08 902.81,190.74 C898.143333,192.033333 893.633333,195.55 889.28,201.29 C885.939194,205.693807 883.449885,210.6826 881.94,216 C879.586667,224.486667 879.986667,231.82 883.14,238 C885.58,242.9 891.58,247.09 901.14,250.57 C909.14,253.536667 913.676667,255.283333 914.75,255.81 C920.93,259.023333 923.596667,262.66 922.75,266.72 C922.2,269.55 920.26,271.58 916.95,272.82 C914.224938,273.893336 911.260675,274.211182 908.37,273.74 C906.522342,273.553761 904.737534,272.966788 903.14,272.02 C895.56,267.513333 889.646667,264.56 885.4,263.16 C882.68,262.273333 880.53,262.066667 878.95,262.54 C877.123333,263.1 875.433333,264.67 873.88,267.25 C873.358092,268.102685 872.951232,269.020642 872.67,269.98 C871.056667,275.793333 875.056667,281.7 884.67,287.7 C888.026435,289.934859 891.577467,291.862658 895.28,293.46 C897.981498,294.401852 900.736301,295.183214 903.53,295.8 L911.98,297.8 C913.19,298.11 916.69,298.35 922.51,298.52 C925.763333,298.593333 929.523333,296.956667 933.79,293.61 C937.863333,290.436667 940.666667,287.186667 942.2,283.86 C943.297799,281.481596 944.207258,279.020708 944.92,276.5 C946.806667,269.7 946.636667,263.593333 944.41,258.18 C943.183333,255.193333 940.73,251.963333 937.05,248.49 C934.131414,245.70298 930.907691,243.254158 927.44,241.19 C926.106667,240.416667 921.773333,238.773333 914.44,236.26 C909.02,234.4 905.156667,232 902.85,229.06 C901.09,226.9 900.63,224.99 901.47,223.35 C901.985873,221.543413 902.661886,219.786449 903.49,218.1 Z" id="Shape" fill="#4C427B"></path>
            <path d="M804.13,191.85 C810.23,199.17 813.55,207.85 817.06,216.85 C816.44,214.26 815.81,211.67 815.2,209.09 C814.413333,205.89 813.223333,201.136667 811.63,194.83 C810.223333,189.77 808.556667,186.216667 806.63,184.17 C804.16,181.6 800.63,180.57 795.92,181.11 C793.09398,181.426499 790.435431,182.610793 788.31,184.5 C786.181846,186.36014 784.717922,188.863203 784.14,191.63 C783.986667,192.396667 783.803333,194.443333 783.59,197.77 C787.77,189.14 797.29,183.49 804.13,191.85 Z" id="Shape" fill="#2F2850"></path>
            <path d="M878,199.31 C877.742699,195.797503 876.718673,192.384085 875,189.31 C871.733333,183.543333 868.336667,180.656667 864.81,180.65 C862.6,180.65 860.18,181.65 857.53,183.71 C855.27,185.463333 853.053333,188.616667 850.88,193.17 C858.04,188.65 866.8,185.62 870.58,195.05 C873.91,206.73 872.92,218.4 870.58,230.05 C872.818364,225.081513 874.556924,219.902681 875.77,214.59 C877.37,206.896667 878.113333,201.803333 878,199.31 Z" id="Shape" fill="#2F2850"></path>
            <path d="M944.4,258.26 C943.173333,255.273333 940.72,252.043333 937.04,248.57 C934.121414,245.78298 930.897691,243.334158 927.43,241.27 C926.096667,240.496667 921.763333,238.853333 914.43,236.34 C909.32,234.58 905.61,232.34 903.27,229.63 C903.51576,230.232436 903.696777,230.859292 903.81,231.5 C919.89,243.29 945.61,250.8 942.4,275.45 C941.1938,281.135012 939.108769,286.597253 936.22,291.64 C938.715858,289.501408 940.756286,286.882859 942.22,283.94 C943.317799,281.561596 944.227258,279.100708 944.94,276.58 C946.813333,269.78 946.633333,263.673333 944.4,258.26 Z" id="Shape" fill="#2F2850"></path>
            <path d="M918.42,272.2 C917.950168,272.455487 917.462185,272.676082 916.96,272.86 C914.234938,273.933336 911.270675,274.251182 908.38,273.78 C906.532342,273.593761 904.747534,273.006788 903.15,272.06 C895.57,267.553333 889.656667,264.6 885.41,263.2 C882.69,262.313333 880.54,262.106667 878.96,262.58 C877.601063,263.058319 876.40506,263.911121 875.51,265.04 C884.7,265.15 892.82,271.04 901.66,275.45 C908.69,278.65 915,276.88 918.42,272.2 Z" id="Shape" fill="#2F2850"></path>
            <path d="M949,207.83 C941.901424,200.750666 933.283383,195.38149 923.8,192.13 C915.86,189.51 908.843333,189.03 902.75,190.69 C898.083333,191.983333 893.573333,195.5 889.22,201.24 C887.434381,203.629805 885.887002,206.188675 884.6,208.88 C902.21,187.88 932.72,197.88 950.79,215.1 C951.34,212 950.75,209.52 949,207.83 Z" id="Shape" fill="#2F2850"></path>
            <path d="M769.8,95 C769.465642,94.0580835 768.964299,93.1841207 768.32,92.42 C767.599044,91.7259812 766.735755,91.1970884 765.79,90.87 C763.640613,90.2151405 761.335502,90.2854183 759.23,91.07 C756.44,92.07 757.73,96.51 760.43,95.45 C761.794183,94.8745774 763.271693,94.6180652 764.75,94.7 C766.109515,94.8040926 767.420403,95.2513771 768.56,96 C768.738633,96.2215047 769.021868,96.330884 769.303013,96.2869358 C769.584158,96.2429875 769.8205,96.0523886 769.923013,95.7869358 C770.025525,95.5214829 769.978633,95.2215047 769.8,95 Z" id="Shape" fill="#FFFFFF"></path>
            <path d="M824.51,94.13 C824.088697,93.4079047 823.476189,92.8161606 822.74,92.42 C821.773046,91.9396062 820.636954,91.9396062 819.67,92.42 C818.581729,93.1634774 817.73105,94.2051254 817.22,95.42 C817.22548,96.7708212 818.319179,97.8645199 819.67,97.87 C820.15,97.87 820.67,97.87 821.12,97.87 C821.272681,97.8900095 821.427319,97.8900095 821.58,97.87 L822.35,97.87 C824.14,97.91 825.62,95.71 824.51,94.13 Z" id="Shape" fill="#FFFFFF"></path>
            <path d="M987,160.3 C986.980663,160.187366 986.950524,160.076856 986.91,159.97 C986.85,159.81 986.78,159.65 986.71,159.48 L986.8,159.66 C986.604904,158.916075 986.023925,158.335096 985.28,158.14 C984.524038,157.933982 983.715607,158.14753 983.16,158.7 C982.694168,159.192071 982.477336,159.86925 982.57071,160.540379 C982.664085,161.211509 983.057536,161.803778 983.64,162.15 C983.768039,162.283289 983.908697,162.403853 984.06,162.51 C984.06,162.51 984.06,162.51 984.06,162.51 C984.104397,162.614869 984.168952,162.710001 984.25,162.79 C984.2,162.7 984.25,162.74 984.25,162.9 C984.445429,163.224271 984.796392,163.422528 985.175,163.422528 C985.553608,163.422528 985.904571,163.224271 986.1,162.9 C986.222545,162.642535 986.359427,162.392143 986.51,162.15 C986.945717,161.639699 987.12599,160.959077 987,160.3 Z" id="Shape" fill="#FFFFFF"></path>
            <path d="M1008.35,161.79 C1007.52826,161.058974 1006.27944,161.094029 1005.5,161.87 L1005.4,161.95 C1004.869,162.46854 1004.66881,163.23849 1004.88,163.95 C1005.11308,164.833955 1005.91586,165.447359 1006.83,165.44 L1007,165.44 C1007.14936,165.459592 1007.30064,165.459592 1007.45,165.44 C1007.63701,165.610379 1007.92299,165.610379 1008.11,165.44 C1008.65172,165.378179 1009.10826,165.007479 1009.28,164.49 C1009.68466,163.483959 1009.28837,162.33344 1008.35,161.79 Z" id="Shape" fill="#FFFFFF"></path>
            <path d="M793.84,373.59 C793.479037,372.994227 792.866523,372.595144 792.175707,372.50563 C791.484891,372.416115 790.79089,372.645904 790.29,373.13 C789.834786,373.57926 789.575927,374.190454 789.57,374.83 C789.567519,375.822016 790.232171,376.691806 791.19,376.95 C791.812147,377.132488 792.482775,377.037725 793.03,376.69 C794.093727,376.045615 794.452541,374.672378 793.84,373.59 Z" id="Shape" fill="#FFFFFF"></path>
            <path d="M803.3,370.65 C802.795703,370.158795 802.070294,369.968897 801.39,370.15 C800.959301,370.258716 800.563476,370.47556 800.24,370.78 L800.18,370.78 L800.05,370.78 L799.76,370.78 C799.020343,370.587061 798.241385,370.899455 797.84,371.55 C797.447452,372.217437 797.558707,373.06627 798.11,373.61 C798.883839,374.343369 799.904033,374.760721 800.97,374.78 C802.39,374.71 804.07,373.64 803.88,372.01 C803.849349,371.503331 803.644437,371.022848 803.3,370.65 Z" id="Shape" fill="#FFFFFF"></path>
            <path d="M787.25,150.59 C789,155 804,152 812.17,152.19 C823.96,152.46 831.73,156.75 832.53,152.46 C832.94,150.31 806.07,138.39 790.84,145.46 C789.45,146.11 786.18,147.91 787.25,150.59 Z" id="Shape" fill="#FFFFFF"></path>
            <path d="M839.14,152.08 C838.19007,152.08 837.42,152.85007 837.42,153.8 C837.42,154.74993 838.19007,155.52 839.14,155.52 C840.08993,155.52 840.86,154.74993 840.86,153.8 C840.86,152.85007 840.08993,152.08 839.14,152.08 Z" id="Shape" fill="#FFFFFF"></path>
            <path d="M887.05,123.41 C882.9,122.82 879.05,124.19 876.65,127.78 C876.3932,128.225583 876.357428,128.765029 876.553145,129.24062 C876.748861,129.71621 877.153959,130.074228 877.65,130.21 C880.48,130.78 882.65,129.58 884.85,127.96 C885.174365,127.732614 885.410872,127.400799 885.52,127.02 C886.4,126.65 887.12,126.3 887.42,126.17 C887.935918,125.856503 888.217409,125.2674 888.137196,124.669053 C888.056983,124.070707 887.630272,123.576544 887.05,123.41 Z" id="Shape" fill="#FFFFFF"></path>
            <path d="M874.76,132.51 C874.82,132.51 874.86,132.51 874.71,132.51 L874.64,132.51 C874.210014,132.305212 873.722353,132.255739 873.26,132.37 C872.929501,132.462973 872.631606,132.646559 872.4,132.9 C872.130514,133.118808 871.958066,133.434963 871.92,133.78 C871.915111,133.806443 871.915111,133.833557 871.92,133.86 C871.915028,133.913217 871.915028,133.966783 871.92,134.02 C871.914695,134.076543 871.914695,134.133457 871.92,134.19 C871.914479,134.213007 871.914479,134.236993 871.92,134.26 C871.955522,134.60862 872.128207,134.928808 872.4,135.15 C872.631606,135.403441 872.929501,135.587027 873.26,135.68 C873.589075,135.755355 873.930925,135.755355 874.26,135.68 L874.62,135.53 L874.71,135.53 L874.78,135.53 L874.72,135.53 C875.425012,135.376742 875.931055,134.757317 875.94061,134.035902 C875.950165,133.314488 875.460706,132.681877 874.76,132.51 Z" id="Shape" fill="#FFFFFF"></path>
            <path d="M871.34,137.45 C871.137202,137.382664 870.930057,137.329207 870.72,137.29 C870.378141,136.974781 869.894799,136.864412 869.45,137 C869.083109,137.11699 868.754798,137.331256 868.5,137.62 C868.489236,137.647031 868.472079,137.671051 868.45,137.69 L868.37,137.79 C868.142759,138.079581 867.997681,138.425004 867.95,138.79 C867.95,139.342285 868.397715,139.79 868.95,139.79 L869.3,139.79 C869.544231,139.839026 869.795769,139.839026 870.04,139.79 C870.386021,139.721794 870.695322,139.529814 870.91,139.25 L871.32,139.1 C871.700363,139.010653 871.970828,138.673512 871.975563,138.282825 C871.980299,137.892138 871.718086,137.548541 871.34,137.45 Z" id="Shape" fill="#FFFFFF"></path>
            <path d="M912.26,21.91 C909.73,15.75 879.44,19.5 861.81,35.55 C847.81,48.26 831.9,75.03 844.15,83.55 C856.4,92.07 849.94,65.02 876.94,44.55 C891.92,33.13 913.94,26 912.26,21.91 Z" id="Shape" fill="#42A3CA"></path>
            <path d="M927.27,9.38 C924.36,8.2 921.21,10.27 919.6,12.6 C918.369293,14.5085318 918.658187,17.020658 920.29,18.6 C920.470556,18.7834102 920.66083,18.9569934 920.86,19.12 C921.975571,21.5349842 924.548117,22.9270898 927.18,22.54 C930.18,22.13 932.18,19.14 932.18,16.26 C932.068608,13.1903942 930.136645,10.4832844 927.27,9.38 Z" id="Shape" fill="#42A3CA"></path>
            <path d="M825.76,460.64 C821.29,459.73 833.84,449.78 829.99,420.5 C827.99,405.06 817.99,398.35 825.19,391.1 C832.39,383.85 842.79,414.68 842.96,424.56 C843.31,445.23 830.78,461.66 825.76,460.64 Z" id="Shape" fill="#7BB529"></path>
        </g>
    </g>
</svg>